<svg width="48" height="48" fill="none" xmlns="http://www.w3.org/2000/svg"><path d="M9.599 3.84c-3.69 0-6.72 3.03-6.72 6.72v2.88c0 .53.431.96.96.96h4.8v28.8c0 .53.431.96.96.96h13.44v-1.92h-12.48V14.4h18.24a.96.96 0 00.96-.96v-2.88a4.81 4.81 0 014.8-4.8h.09a4.81 4.81 0 014.71 4.8v31.68h-4.8v1.92h5.76a.96.96 0 00.96-.96V10.56c0-3.64-2.948-6.64-6.57-6.72H9.599zm0 1.92h20.31c-1.264 1.223-2.07 2.914-2.07 4.8v1.92H4.799v-1.92a4.81 4.81 0 014.8-4.8zm5.76 11.52v1.92h19.2v-1.92h-19.2zm0 5.76v1.92h19.2v-1.92h-19.2zm13.44 5.76c-.743 0-1.354.413-1.8.99-.668-.146-1.388-.112-1.98.36-.589.473-.743 1.2-.72 1.89-.623.342-1.136.855-1.26 1.59-.12.728.206 1.373.66 1.89-.27.683-.296 1.444.06 2.04.064.11.157.18.24.27v8.25a.955.955 0 00.525.863.955.955 0 001.005-.083l3.27-2.46 3.27 2.46a.955.955 0 001.005.083.954.954 0 00.525-.863v-8.25c.082-.09.176-.16.24-.27.416-.693.326-1.402.06-2.04.454-.517.78-1.162.66-1.89-.124-.735-.638-1.248-1.26-1.59.022-.69-.131-1.417-.72-1.89-.593-.472-1.313-.506-1.98-.36-.435-.55-1.046-.99-1.8-.99zm1.92 1.17c.041.03.12.09.09.06l-.03.03-.06-.09zm-1.92.75c.307 0 .337.057.42.3a.99.99 0 00.24.39c.049.05.109.113.36.24.251.128.461.12.51.12a.966.966 0 00.51-.12c.142-.086.401-.112.54 0 .161.132.161.177.06.48a.988.988 0 00-.06.33c0 .132.067.15.12.27a.96.96 0 00.78.87c.15.027.334.21.36.36a.476.476 0 01-.21.45.962.962 0 00-.45.81v.3a.946.946 0 00.18.57c.026.038.067.42.03.48a.476.476 0 01-.45.21.957.957 0 00-.93.36v.03c-.034.027-.019.023-.06.06-.011.012-.019-.01-.03 0a.96.96 0 00-.3.69c0 .255 0 .26-.21.33-.041.02-.083.038-.12.06-.008-.003.019 0-.03 0-.064 0-.251-.07-.39-.21a.95.95 0 00-.69-.27h-.36a.95.95 0 00-.69.27c-.158.158-.33.222-.54.15a.4.4 0 01-.21-.33 1.16 1.16 0 00-.48-.87.958.958 0 00-.84-.27.476.476 0 01-.45-.21c-.113-.19-.15-.262 0-.45a.965.965 0 00.21-.6v-.3a.962.962 0 00-.45-.81.476.476 0 01-.21-.45.527.527 0 01.36-.36.96.96 0 00.78-.87c.052-.12.12-.138.12-.27a.988.988 0 00-.06-.33c-.101-.303-.101-.348.06-.48.139-.112.397-.086.54 0a.955.955 0 00.96 0h.03l.03-.03a.436.436 0 00.06-.03.964.964 0 00.54-.57c.049-.15.27-.3.42-.3zm-2.88 8.7c.217.278.48.5.81.63l.03.03c.727.244 1.429.03 2.01-.33.007-.003.022.004.03 0h.18c.341.2.645.48 1.08.48.165 0 .495-.07.78-.18.015-.015.041-.022.06-.03.019-.007.041.012.06 0v-.03c.296-.123.532-.31.72-.54v4.71l-2.31-1.74a.956.956 0 00-1.14 0l-2.31 1.74v-4.74z" fill="#82C83C"/></svg>