<svg width="48" height="48" fill="none" xmlns="http://www.w3.org/2000/svg"><path d="M8.64 3.84c-2.636 0-4.8 2.165-4.8 4.8v30.72c0 2.636 2.164 4.8 4.8 4.8h30.72c2.636 0 4.8-2.164 4.8-4.8V8.64c0-2.635-2.164-4.8-4.8-4.8H8.64zm0 1.92h30.72a2.883 2.883 0 012.88 2.88v30.72a2.883 2.883 0 01-2.88 2.88H8.64a2.883 2.883 0 01-2.88-2.88V8.64a2.883 2.883 0 012.88-2.88zM24 9.417l-.896 2.336-2.946 7.674-10.684.582 8.258 6.746-2.67 10.338L24 31.288l8.938 5.805-2.67-10.338 8.258-6.746-10.684-.582L24 9.417zm0 5.36l2.494 6.5 6.978.38-5.372 4.389 1.746 6.748L24 29l-5.846 3.795 1.745-6.748-5.372-4.39 6.98-.378 2.493-6.5z" fill="#82C83C"/></svg>