<svg width="48" height="48" fill="none" xmlns="http://www.w3.org/2000/svg"><path d="M13.44 1.92c-1.52 0-2.782.604-3.598 1.522C9.026 4.36 8.64 5.547 8.64 6.72s.386 2.36 1.202 3.277c.816.918 2.078 1.523 3.598 1.523s2.782-.605 3.598-1.523c.816-.918 1.202-2.104 1.202-3.277s-.386-2.36-1.202-3.278c-.816-.918-2.078-1.522-3.598-1.522zm20.16 0c-1.52 0-2.782.604-3.598 1.522-.816.918-1.202 2.105-1.202 3.278s.386 2.36 1.202 3.277c.816.918 2.078 1.523 3.598 1.523s2.782-.605 3.598-1.523C38.014 9.08 38.4 7.893 38.4 6.72s-.386-2.36-1.202-3.278C36.382 2.524 35.12 1.92 33.6 1.92zM13.44 3.84c1.04 0 1.698.355 2.162.877.464.522.718 1.256.718 2.003 0 .747-.254 1.48-.718 2.002-.464.522-1.122.878-2.162.878-1.04 0-1.698-.356-2.162-.878-.464-.522-.718-1.255-.718-2.002 0-.747.254-1.48.718-2.003.464-.522 1.122-.877 2.162-.877zm20.16 0c1.04 0 1.698.355 2.162.877.464.522.718 1.256.718 2.003 0 .747-.254 1.48-.718 2.002-.464.522-1.122.878-2.162.878-1.04 0-1.698-.356-2.162-.878-.464-.522-.718-1.255-.718-2.002 0-.747.254-1.48.718-2.003.464-.522 1.122-.877 2.162-.877zM9.12 12.48a5.285 5.285 0 00-5.28 5.28v12a.96.96 0 00.292.703c.347 1.201 1.281 2.177 2.588 2.177.338 0 .658-.071.96-.18v11.029c0 1.361 1.12 2.59 2.591 2.59h1.633c.625 0 1.194-.284 1.658-.682.444.375.967.683 1.607.683h1.63c1.363 0 2.592-1.12 2.592-2.591v-6.167c.247.07.501.118.769.118v6.24c0 1.328 1.072 2.4 2.4 2.4h2.88c1.328 0 2.4-1.072 2.4-2.4v-6.24c.373 0 .632-.268.96-.4v6.16c0 1.58 1.3 2.88 2.88 2.88.746 0 1.406-.328 1.92-.8.514.472 1.174.8 1.92.8 1.58 0 2.88-1.3 2.88-2.88v-7.68h2.496c.714 0 1.142-.36 1.447-.666a.962.962 0 00.12-.146c.356-.534.352-1.231.229-1.725a.933.933 0 00-.02-.071l-.413-1.238c.026.001.05.006.077.006.969 0 1.844-.492 2.313-1.243.469-.75.547-1.715.223-2.627v-.006c-.38-1.14-1.048-3.24-1.717-5.343l-.004-.014a881.565 881.565 0 01-2.11-6.423.96.96 0 00-.037-.094c-.2-.45-.575-1.283-1.28-2.033-.706-.75-1.812-1.417-3.244-1.417h-5.76c-1.472 0-2.58.743-3.27 1.432a.96.96 0 101.357 1.358c.463-.463 1.08-.87 1.913-.87h5.76c.872 0 1.399.34 1.845.814.44.466.727 1.06.911 1.473.023.071 1.047 3.23 2.093 6.368a530.13 530.13 0 001.734 5.396c.154.43.09.758-.041.968-.131.209-.312.34-.686.34-.438 0-.736-.308-.805-.55a.995.995 0 00-.01-.034l-1.248-3.84-.002-.008-.769-2.302a1.008 1.008 0 00-.016-.047l-.865-2.209-.005-.013a.953.953 0 00-.053-.116l-.007-.011a.96.96 0 00-1.733.813l4.009 12.029c.035.126.036.13.026.129H30.72v-5.76A3.84 3.84 0 0026.88 24h-5.76a3.84 3.84 0 00-3.84 3.84v6.72c0 .351.074.685.191.997v7.932c0 .448-.305.67-.671.67h-1.631c-.448 0-.673-.304-.673-.67a.96.96 0 00-.096-.403V31.39a.961.961 0 10-1.92 0v12.193c-.07.33-.262.576-.576.576h-1.633c-.448 0-.671-.305-.671-.671v-23.33a.96.96 0 10-1.92 0v9.6c0 .533-.428.96-.96.96a.957.957 0 01-.96-.96v-12a3.32 3.32 0 013.36-3.36h8.64c.768 0 1.436.23 1.939.59a.96.96 0 101.115-1.562c-.84-.6-1.902-.947-3.054-.947H9.12zM24 15.36c-1.2 0-2.222.485-2.878 1.222-.656.738-.962 1.685-.962 2.618 0 .933.306 1.88.962 2.617.656.738 1.678 1.223 2.878 1.223 1.2 0 2.222-.485 2.878-1.223.656-.738.962-1.684.962-2.617s-.306-1.88-.962-2.618C26.222 15.844 25.2 15.36 24 15.36zm0 1.92c.72 0 1.138.235 1.442.577.304.343.478.836.478 1.343s-.174 1-.478 1.342c-.304.342-.722.578-1.442.578s-1.138-.236-1.442-.578c-.304-.342-.478-.835-.478-1.342 0-.507.174-1 .478-1.343.304-.342.722-.577 1.442-.577zm-2.88 8.64h5.76c1.143 0 1.92.777 1.92 1.92v6.72c0 .532-.428.96-.96.96h-.96a.96.96 0 00-.96.96v7.2c0 .208-.272.48-.48.48h-2.88c-.208 0-.48-.272-.48-.48v-7.2a.96.96 0 00-.96-.96h-.96a.94.94 0 01-.769-.415V29.76a.96.96 0 00-.191-.587V27.84c0-1.143.777-1.92 1.92-1.92zm9.6 9.6h1.92v7.68c0 .532-.428.96-.96.96a.957.957 0 01-.96-.96v-7.68zm3.84 0h1.92v7.68c0 .532-.428.96-.96.96a.957.957 0 01-.96-.96v-7.68z" fill="#82C83C"/></svg>