<svg width="48" height="48" fill="none" xmlns="http://www.w3.org/2000/svg"><path d="M25.729 4.8c-4.28 0-7.403 1.7-9.058 4.211a8.058 8.058 0 00-.814 1.633l-.208-.468c-.192-.384-.48-.576-.865-.576-3.168 0-5.664 1.248-7.104 3.36-1.248 1.824-1.44 4.128-.671 6.336-.192.384-.385 1.056-.289 1.728.192 1.536.769 2.208 1.249 2.496.288 1.152.864 2.4 1.44 3.071 0 .672-.002 1.345-.098 2.209-.384.768-1.631 1.344-3.071 1.92C3.744 31.776.288 33.12 0 37.44c0 .288.097.577.289.769.192.192.383.287.671.287h5.955a8.836 8.836 0 00-.289 1.766.96.96 0 00.958 1.018h32.832a.959.959 0 00.958-1.018 8.794 8.794 0 00-.315-1.862h5.981c.288 0 .48-.096.671-.384.192-.192.289-.384.289-.672-.288-4.32-3.648-5.664-6.144-6.72-1.344-.576-2.688-1.152-3.072-1.92-.096-.768-.095-1.44-.095-2.208.576-.672 1.15-1.92 1.342-2.976.48-.288 1.057-.96 1.249-2.496.096-.672 0-1.248-.289-1.728.576-1.44.578-3.936-.382-5.76-.768-1.536-2.017-2.4-3.553-2.592l-.385-.768c-.096-.384-.478-.576-.862-.576-1.49 0-2.802.178-3.945.525-.34-.759-.79-1.475-1.408-2.07-.817-.784-1.966-1.249-3.28-1.399l-.572-1.286a.96.96 0 00-.875-.57zm-.598 1.978l.487 1.1a.96.96 0 00.878.57c1.193 0 1.995.382 2.63.993.636.61 1.09 1.493 1.35 2.47.26.979.324 2.041.235 2.933-.09.893-.373 1.617-.548 1.836a.962.962 0 00.343 1.47c.003 0 .015.003.038.056.055.13.108.409.08.782-.128.823-.35 1.301-.504 1.508a.555.555 0 01-.146.148.96.96 0 00-.88.85c-.08.716-.365 1.635-.697 2.354-.166.36-.346.673-.493.88-.148.206-.31.28-.154.213a.96.96 0 00-.581.883c0 1.248 0 2.243.097 3.711a.96.96 0 00.06.28c.515 1.351 1.691 2.166 2.957 2.793 1.266.628 2.703 1.108 4.052 1.693 1.35.585 2.595 1.266 3.5 2.198.702.722 1.142 1.68 1.392 2.861H8.773c.25-1.181.69-2.14 1.391-2.861.906-.932 2.152-1.613 3.501-2.198 1.35-.585 2.786-1.066 4.052-1.693 1.266-.627 2.442-1.442 2.957-2.794a.959.959 0 00.06-.273c.098-1.38.097-2.469.097-3.717a.96.96 0 00-.581-.883c.131.056-.034-.025-.19-.227a5.514 5.514 0 01-.517-.855c-.35-.701-.654-1.609-.733-2.36a.96.96 0 00-.765-.84c-.094-.019-.602-.004-.769-1.643-.067-.737.287-.964.248-.937a.96.96 0 00.348-1.183c-1.035-2.374-.87-4.898.402-6.827 1.199-1.818 3.442-3.139 6.857-3.29zM14.209 11.52l.287.864c.188.377.47.567.843.574a9.803 9.803 0 00.602 4.148c-.369.498-.663 1.142-.577 2.085l.002.009c.168 1.688.927 2.489 1.665 2.923.155.917.415 1.836.795 2.595.22.441.458.834.714 1.166.097.126.258.2.362.312a44.722 44.722 0 01-.077 3.007c-.275.63-.915 1.166-1.961 1.684-1.09.54-2.516 1.025-3.962 1.652-1.447.627-2.93 1.403-4.116 2.623-.428.44-.81.945-1.132 1.51H2.016c.672-2.305 2.687-3.168 4.895-4.032 1.824-.768 3.649-1.537 4.225-3.169.096-.096.095-.19.095-.287a33.99 33.99 0 00.098-2.975c0-.288-.097-.577-.385-.769-.288-.192-.96-1.537-1.153-2.689-.096-.48-.478-.766-.862-.862 0-.096-.193-.386-.289-1.058 0-.288 0-.48.096-.575.288-.192.48-.768.288-1.152-.768-1.728-.673-3.648.287-5.088.96-1.536 2.69-2.4 4.898-2.496zm21.022 0l.385.769c.096.384.48.575.864.575 1.152 0 2.016.48 2.496 1.536.768 1.632.575 3.935.095 4.511-.192.288-.287.577-.191.865.096.192.192.384.384.48v.48c-.096.672-.192.96-.288 1.055a.861.861 0 00-.865.865c-.096 1.056-.768 2.303-.96 2.495-.288.192-.48.48-.48.865 0 1.056.002 1.92.098 2.975.096.096.095.193.095.289.672 1.728 2.4 2.4 4.225 3.169 2.112.864 4.224 1.727 4.8 4.031H40.32c-.03 0-.053.013-.083.015a7.473 7.473 0 00-1.023-1.333c-1.186-1.22-2.67-1.996-4.116-2.623-1.446-.627-2.873-1.112-3.962-1.652-1.045-.518-1.684-1.053-1.96-1.682a46.068 46.068 0 01-.078-3.03c.104-.118.274-.199.368-.33.245-.343.467-.746.673-1.19.359-.777.605-1.685.752-2.573.256-.157.565-.168.765-.433.418-.558.717-1.332.877-2.402a.882.882 0 00.008-.056c.06-.662-.022-1.243-.23-1.733-.05-.122-.22-.161-.29-.275.308-.629.519-1.33.6-2.147.096-.965.045-2.034-.176-3.096.82-.221 1.776-.348 2.786-.42z" fill="#82C83C"/></svg>