<svg width="48" height="48" fill="none" xmlns="http://www.w3.org/2000/svg"><path d="M23.997 1.89c-.48 0-.964.124-1.391.375-.008 0-.011.004-.019.008 0 0-5.051 3.075-10.11 6.22A484.633 484.633 0 005.51 12.9a84.745 84.745 0 00-2.325 1.56c-.29.206-.522.375-.705.525-.09.075-.17.143-.255.233-.045.045-.09.093-.15.18-.057.086-.17.195-.188.54-.034.6.143.63.233.772.086.143.187.27.303.42.237.293.544.641.912 1.039.13.139.326.334.472.487 0 3.184.008 9.837.011 11.374a1.92 1.92 0 00-.941 1.65c0 .221.041.443.116.653-.648.525-1.076 1.308-1.076 2.197 0 1.133.589 2.096 1.099 2.944.51.851 1.02 1.511 1.02 1.511.18.236.461.375.757.375a.97.97 0 00.762-.367s.51-.653 1.023-1.497c.514-.847 1.099-1.822 1.099-2.966 0-.889-.427-1.672-1.076-2.197a1.923 1.923 0 00-.799-2.287c0-1.246-.007-5.663-.011-9.342.075.075.135.142.214.217 1.78 1.785 3.296 3.24 3.562 3.5-.964.51-1.89 1.72-1.89 3.633 0 1.969 1.219 3.84 3.124 4.38 1.226 3.109 2.786 6.371 4.852 8.951 2.123 2.651 4.853 4.624 8.183 4.684.052.007.101.011.154.011h.022a.681.681 0 00.12-.011c3.341-.049 6.079-2.025 8.209-4.684 2.066-2.58 3.626-5.842 4.852-8.951 1.905-.54 3.124-2.411 3.124-4.38 0-1.913-.926-3.124-1.89-3.634.266-.259 1.781-1.714 3.566-3.499.964-.967 1.932-1.957 2.667-2.752.367-.398.675-.746.91-1.039.117-.15.218-.277.308-.42.087-.142.263-.172.23-.772-.02-.35-.132-.458-.192-.544a1.129 1.129 0 00-.146-.176 2.498 2.498 0 00-.26-.233 12.63 12.63 0 00-.7-.525 80.283 80.283 0 00-2.33-1.56 462.122 462.122 0 00-6.963-4.406c-5.059-3.146-10.11-6.221-10.11-6.221-.007-.004-.011-.008-.019-.008a2.748 2.748 0 00-1.39-.375zm0 1.98c.135 0 .27.038.394.109.019.011 5.04 3.064 10.076 6.199a453.58 453.58 0 016.934 4.387c.945.615 1.729 1.14 2.265 1.515.052.038.067.053.112.086-.168.2-.33.39-.577.657a98.506 98.506 0 01-2.614 2.696 182.018 182.018 0 01-3.12 3.06V18.24a.983.983 0 00-.472-.844s-4.992-3.026-12.998-3.026S11 17.396 11 17.396a.983.983 0 00-.473.844v4.339c-.532-.51-1.564-1.5-3.12-3.06-.652-.649-1.207-1.234-1.777-1.83a.927.927 0 00-.267-.274c-.176-.187-.42-.424-.573-.589-.244-.27-.405-.465-.578-.66l.116-.086c.537-.379 1.32-.904 2.265-1.515 1.887-1.23 4.41-2.816 6.934-4.387a1271.545 1271.545 0 0110.076-6.2.79.79 0 01.394-.108zm0 12.48c6.953 0 10.879 2.179 11.49 2.531v3.814c-1.511-.502-5.212-1.605-11.49-1.605-6.277 0-9.979 1.103-11.49 1.605v-3.814c.611-.352 4.538-2.53 11.49-2.53zm0 6.72c6.135 0 10.211 1.204 11.52 1.65v1.309l1.065-.113s.473-.037.915.18c.446.214.9.525.9 1.958 0 1.346-.87 2.554-2.017 2.67l-.59.06-.21.551c-1.207 3.128-2.79 6.413-4.74 8.85-1.95 2.434-4.184 3.975-6.84 3.975h-.007c-2.655 0-4.89-1.541-6.84-3.975-1.95-2.437-3.532-5.722-4.74-8.85l-.21-.551-.588-.06c-1.148-.116-2.018-1.324-2.018-2.67 0-1.433.454-1.744.9-1.958.443-.217.915-.18.915-.18l1.065.113V24.72c1.309-.446 5.385-1.65 11.52-1.65zM4.797 33.6c.551 0 .96.416.96.93 0 .274-.375 1.23-.821 1.965-.068.113-.068.098-.135.199-.068-.109-.071-.094-.143-.21-.45-.743-.821-1.718-.821-1.954 0-.514.409-.93.96-.93z" fill="#82C83C"/></svg>