<svg width="48" height="48" fill="none" xmlns="http://www.w3.org/2000/svg"><g clip-path="url(#clip0_947_7939)"><path d="M23.998 0C37.25 0 48 10.746 48 24S37.252 48 23.998 48 0 37.253 0 24 10.746 0 23.998 0zm2.554 2.4a2.995 2.995 0 00-2.655 1.638 2.992 2.992 0 00-3.084-1.58 2.984 2.984 0 00-2.297 1.784 3.052 3.052 0 00-.2.645 2.997 2.997 0 00-2.154-.923 2.993 2.993 0 00-2.958 2.646 3.076 3.076 0 00-.009.65 2.959 2.959 0 00-1.47-.381 2.97 2.97 0 00-1.966.745 3.005 3.005 0 00-.977 2.752c.037.226.097.443.18.647a2.972 2.972 0 00-3.209 1.32 3.021 3.021 0 00.186 3.482 3.001 3.001 0 00-2.705 2.177c-.26.918-.082 1.88.49 2.644.187.248.408.465.652.64a2.95 2.95 0 00-1.106.712 3.007 3.007 0 00-.87 2.143 3.014 3.014 0 002.037 2.833 3.003 3.003 0 00-.652.645 3.057 3.057 0 00-.466 2.667 3.02 3.02 0 002.683 2.137c-.12.163-.226.339-.314.528a3.012 3.012 0 00.2 2.918 2.976 2.976 0 003.196 1.289 3.015 3.015 0 00.841 3.366c.54.467 1.231.724 1.944.724.539 0 1.049-.145 1.49-.406a3.002 3.002 0 001.746 3.005c.39.176.801.267 1.226.267.806 0 1.588-.335 2.15-.916l.032-.038c.043.222.11.443.204.654a2.982 2.982 0 002.73 1.786 2.991 2.991 0 002.656-1.64 2.99 2.99 0 003.084 1.58 2.972 2.972 0 002.297-1.785c.092-.21.159-.427.2-.644a2.997 2.997 0 002.154.923 2.94 2.94 0 001.253-.279 2.997 2.997 0 001.704-2.364c.027-.222.03-.44.01-.652a2.96 2.96 0 001.47.382c.722 0 1.422-.265 1.966-.745a3.007 3.007 0 00.977-2.752 2.956 2.956 0 00-.18-.647 2.972 2.972 0 003.209-1.32 3.016 3.016 0 00-.186-3.482 3.006 3.006 0 002.705-2.18 3.002 3.002 0 00-.49-2.641 2.974 2.974 0 00-.652-.64c.413-.15.79-.39 1.106-.712a3.007 3.007 0 00.87-2.143 3.012 3.012 0 00-2.037-2.833 3.02 3.02 0 00.652-.645 3.06 3.06 0 00.466-2.667 3.018 3.018 0 00-2.683-2.137c.12-.165.226-.341.314-.528a3.013 3.013 0 00-.2-2.918 2.979 2.979 0 00-3.196-1.289 3.011 3.011 0 00-.841-3.366 2.966 2.966 0 00-1.944-.724c-.539 0-1.049.145-1.49.406a2.999 2.999 0 00-2.972-3.272c-.806 0-1.588.335-2.15.916l-.032.038a3.032 3.032 0 00-.204-.654 2.982 2.982 0 00-2.73-1.786zm-2.948 39.366c.256.784.152 1.558-.295 2.182l-.176.213a2.288 2.288 0 01-2 .722 2.278 2.278 0 01-1.776-1.35c-.332-.75-.242-1.597.246-2.328 1.06-1.586 1.535-2.307 2.445-3.686.018-.027.04-.056.06-.082l.066-.099c.525 1.66.82 2.561 1.43 4.428zm4.973-.607c.495.722.594 1.573.27 2.325a2.29 2.29 0 01-2.105 1.394 2.296 2.296 0 01-1.847-.95c-.445-.613-.555-1.385-.31-2.167.6-1.905.85-2.723 1.381-4.45.971 1.45 1.506 2.228 2.611 3.848zm-9.942-.235c.029.89-.34 1.466-.65 1.79a2.3 2.3 0 01-1.65.704l-.243-.014a2.298 2.298 0 01-2.023-1.995c-.11-.812.215-1.598.886-2.16a488.472 488.472 0 003.551-2.986c.039 1.748.068 2.695.13 4.661zM33.2 39.157c.676.552 1.007 1.339.907 2.154l-.056.293a2.278 2.278 0 01-1.254 1.519 2.238 2.238 0 01-.96.215 2.304 2.304 0 01-1.641-.694c-.314-.322-.68-.89-.661-1.774.042-1.997.055-2.853.082-4.661 1.337 1.112 2.067 1.708 3.583 2.948zm-9.143-4.334c.452.005.867.222 1.113.58.303.437.337 1.046.097 1.717-.381 1.07-.86 2.678-1.172 3.746-.336-1.045-.839-2.62-1.193-3.69-.242-.726-.197-1.381.131-1.837.236-.33.603-.516 1.008-.516h.016zm-9.923 3.893c-.287 1.115-1.174 1.836-2.26 1.836a2.287 2.287 0 01-1.488-.558l-.213-.209a2.32 2.32 0 01-.56-1.898c.124-.809.654-1.476 1.457-1.821 1.82-.789 2.6-1.134 4.243-1.859a399.63 399.63 0 00-1.18 4.51zm22.922-2.786c.803.339 1.344.998 1.474 1.807a2.306 2.306 0 01-.75 2.111l-.162.134c-.39.287-.861.44-1.347.44-1.073 0-1.955-.709-2.25-1.809-.52-1.928-.746-2.752-1.226-4.495a420.23 420.23 0 004.26 1.812zm-16.4-1.52c.127 0 .256.018.38.057.432.136.768.464.905.877.136.417.063.892-.2 1.368l-.11.165a12.93 12.93 0 01-.157.243c-.659.916-1.533 2.254-2.109 3.155-.026-1.098-.066-2.75-.103-3.877-.022-.667.153-1.234.5-1.593.243-.255.559-.394.895-.394zm6.844.006c.377 0 .723.15.975.422.325.346.475.863.436 1.497-.067 1.137-.077 2.815-.077 3.928a451.9 451.9 0 00-2.175-3.201l-.15-.24c-.316-.555-.398-1.104-.235-1.57.139-.386.444-.67.835-.78.128-.037.261-.056.391-.056zm-9.743-1.503c.18.028.353.097.509.202.374.254.604.664.619 1.1.014.53-.29 1.063-.854 1.494-.897.686-2.172 1.77-3.009 2.494.287-1.061.713-2.655.996-3.748.3-1.142.998-1.55 1.554-1.551l.185.01zm12.842-.063c.728 0 1.29.558 1.502 1.498.252 1.108.71 2.722 1.02 3.79a475.661 475.661 0 00-2.98-2.454c-.594-.487-.906-1.065-.871-1.63.024-.408.24-.766.586-.986.227-.143.485-.218.743-.218zm-20.17 2.475c-.459.772-1.196 1.214-2.028 1.214-.78 0-1.5-.393-1.924-1.05a2.316 2.316 0 01.808-3.274c.104-.041.208-.09.31-.146.197-.075.41-.13.633-.157 1.968-.242 2.81-.35 4.589-.58a444.582 444.582 0 00-2.389 3.993zm29.43-3.598h.007c.867.099 1.565.576 1.92 1.317.345.725.3 1.564-.127 2.244a2.28 2.28 0 01-1.939 1.07c-.791 0-1.555-.433-2.013-1.188a590.609 590.609 0 00-2.435-3.965c1.718.207 2.651.31 4.587.522zm-24.905-1.05c.366 0 .7.158.94.446.293.347.406.805.3 1.23l-.061.185c-.179.43-.584.784-1.163 1.013-1.05.413-2.568 1.104-3.574 1.57.564-.942 1.41-2.36 1.978-3.33.414-.707.99-1.114 1.58-1.114zm18.286-.049c.58 0 1.11.378 1.493 1.06l.466.81a100.85 100.85 0 001.575 2.536 493.159 493.159 0 00-3.548-1.502c-.706-.295-1.167-.76-1.294-1.313-.091-.398.01-.803.281-1.113a1.378 1.378 0 011.027-.478zM25.533 12.98a2.084 2.084 0 001.87 1.235c.403 0 .783-.127 1.111-.361.063.605.403 1.167.924 1.516a1.914 1.914 0 001.764.197c-.095.591.08 1.21.476 1.683.37.44.906.691 1.472.691l.054-.002a2.1 2.1 0 00-.021 1.77c.258.587.765.99 1.376 1.12-.002 0-.006.008-.01.012a2.102 2.102 0 00-.48 1.659 1.94 1.94 0 00.914 1.406 2.06 2.06 0 00-.966 1.48 1.925 1.925 0 00.506 1.637 2.068 2.068 0 00-1.277 1.12c-.27.578-.25 1.23.059 1.787l-.064.002a2.07 2.07 0 00-1.544.713 1.945 1.945 0 00-.464 1.61 2.007 2.007 0 00-.635-.106c-.39 0-.774.113-1.114.326-.537.34-.87.9-.909 1.538v.007a2.007 2.007 0 00-1.073-.305c-.194 0-.39.026-.577.08a1.918 1.918 0 00-1.256 1.101 2.078 2.078 0 00-1.603-.778h-.024c-.61 0-1.17.28-1.54.766a2.092 2.092 0 00-1.26-1.087 1.898 1.898 0 00-1.671.255 2.101 2.101 0 00-.917-1.52 1.912 1.912 0 00-1.078-.336c-.232 0-.456.044-.666.122a2.11 2.11 0 00-.483-1.652 1.925 1.925 0 00-1.46-.692 2.109 2.109 0 000-1.687 1.929 1.929 0 00-1.467-1.149 2.109 2.109 0 00.464-1.643 1.929 1.929 0 00-.89-1.39c.518-.308.886-.84.984-1.497a1.932 1.932 0 00-.527-1.655 2.072 2.072 0 001.265-1.118 1.945 1.945 0 00-.04-1.75c.024.001.051.004.075.004.59 0 1.162-.267 1.561-.729.39-.451.548-1.033.45-1.61.19.053.376.08.553.08.391 0 .774-.113 1.111-.326a1.94 1.94 0 00.91-1.495 2.062 2.062 0 001.664.246 1.924 1.924 0 001.308-1.196c.38.448.946.716 1.551.725h.026c.627 0 1.2-.295 1.568-.804zM6.213 27.108c.147 0 .3.013.45.037 1.956.325 2.795.46 4.566.739a378.245 378.245 0 00-3.4 3.161 2.793 2.793 0 01-.533.39 3.395 3.395 0 00-.316.145 2.23 2.23 0 01-.8.15c-1.001 0-1.9-.676-2.19-1.643l-.064-.265a2.345 2.345 0 01.42-1.784 2.292 2.292 0 011.867-.93zm35.651-.251c.743 0 1.42.336 1.854.916.44.586.575 1.328.377 2.03l-.133.356a2.301 2.301 0 01-2.068 1.32 2.34 2.34 0 01-1.425-.497l-.367-.319a465.16 465.16 0 00-2.984-2.695c-.061-.062-.126-.123-.183-.18a3.591 3.591 0 00-.094-.087c1.696-.288 2.622-.456 4.533-.797h.005c.165-.03.328-.047.485-.047zm-28.706.954c.527 0 .964.283 1.17.757.179.417.153.89-.071 1.263-.273.455-.811.734-1.519.788-1.123.088-2.774.305-3.867.46a479.8 479.8 0 002.848-2.612c.466-.43.963-.656 1.439-.656zm21.942-.169c.342 0 .688.126 1.022.368l.183.164c.122.109.237.211.347.312.802.774 1.923 1.77 2.69 2.442l-3.822-.443c-.762-.082-1.333-.402-1.606-.895a1.247 1.247 0 01-.037-1.146c.232-.495.7-.802 1.223-.802zM24 17.873a6.269 6.269 0 10.004 12.538A6.269 6.269 0 0024 17.873zm-12.084 6.612c.72 0 1.267.443 1.359 1.104.055.407-.06.808-.316 1.104-.283.326-.705.5-1.226.5-.169 0-.35-.018-.532-.057-1.108-.222-2.755-.462-3.849-.61.778-.392 1.87-.94 2.785-1.408.295-.146.609-.299.96-.471l.21-.07a2.13 2.13 0 01.609-.092zm24.161-.178c.332 0 .686.103 1.053.298.997.527 2.512 1.232 3.518 1.687a653.38 653.38 0 00-3.788.682c-.8.148-1.494-.031-1.875-.48l-.152-.22a1.248 1.248 0 01-.13-.781c.09-.59.548-1.186 1.374-1.186zM5.381 21.813c.37 0 .74.091 1.104.268 1.78.864 2.552 1.231 4.163 2.001a4.459 4.459 0 00-.174.082l-.647.33c-1.084.534-1.902.947-3.314 1.655a2.512 2.512 0 01-1.132.281c-1.251 0-2.276-1.027-2.285-2.292l.012-.232c.05-.532.278-1.028.656-1.413a2.258 2.258 0 011.617-.68zm37.24-.243c1.252 0 2.277 1.027 2.285 2.292l-.011.232a2.316 2.316 0 01-.657 1.413c-.433.44-1.008.68-1.617.68-.293 0-.583-.058-.872-.167-.091-.043-.213-.095-.354-.16a664.761 664.761 0 00-4.029-1.935c.063-.029.127-.06.19-.091.55-.284 1.246-.635 1.922-.978.582-.291 1.201-.6 2.011-1.008a2.533 2.533 0 011.132-.278zm-31.41-.542c.8-.152 1.494.029 1.877.478.235.277.338.632.283 1.001-.09.59-.546 1.185-1.376 1.186l-.25-.021a2.479 2.479 0 01-.797-.274c-1-.528-2.513-1.225-3.52-1.68 1.074-.192 2.685-.485 3.782-.69zm25.087-.225c.17 0 .35.02.536.056 1.108.224 2.756.464 3.849.612l-1.517.76c-.722.36-1.395.693-2.33 1.15a2.2 2.2 0 01-.719.131c-.722 0-1.27-.447-1.36-1.106-.056-.406.06-.808.315-1.104.283-.328.707-.499 1.226-.499zm-30.19-4.282c.586 0 1.15.228 1.624.661a541.88 541.88 0 003.443 3.11 441.58 441.58 0 00-4.554.802 2.846 2.846 0 01-.485.044 2.29 2.29 0 01-1.854-.916 2.313 2.313 0 01-.377-2.027l.136-.357a2.3 2.3 0 012.067-1.317zm35.714-.25c1.001 0 1.9.675 2.191 1.642l.064.265a2.34 2.34 0 01-.422 1.784 2.295 2.295 0 01-1.866.93c-.102 0-.206-.008-.31-.019l-.088-.011a.184.184 0 01-.052-.01 545.444 545.444 0 00-4.558-.736l.117-.1c.162-.156.344-.325.532-.502.732-.675 1.311-1.219 2.126-1.98.309-.288.573-.53.752-.697.128-.104.26-.196.398-.271.108-.046.215-.093.317-.148.256-.096.524-.148.799-.148zM12.52 17.497c.761.083 1.333.403 1.606.896.199.357.212.773.037 1.146l-.094.173c-.252.39-.67.626-1.13.626-.453 0-.92-.224-1.35-.65-.807-.794-2.059-1.902-2.891-2.631 1.083.13 2.71.32 3.822.44zm26.567-.48c-.623.577-1.436 1.331-2.121 1.976l-.746.682c-.407.326-.831.499-1.242.499-.519 0-.954-.282-1.16-.748a1.392 1.392 0 01.056-1.265c.269-.46.804-.742 1.51-.804 1.123-.097 2.77-.33 3.862-.49-.055.049-.107.101-.16.15zM14.83 14.484c.71.29 1.176.75 1.308 1.301.096.398-.003.806-.272 1.118-.269.31-.645.485-1.036.485-.573 0-1.104-.372-1.488-1.045l-.476-.806a99.893 99.893 0 00-1.598-2.522c1.007.42 2.524 1.048 3.562 1.47zm19.64 2.026l-.147.17c-.349.362-.756.562-1.172.562-.366 0-.698-.159-.94-.446a1.389 1.389 0 01-.3-1.228c.13-.517.564-.941 1.226-1.202 1.044-.409 2.547-1.092 3.55-1.556-.85 1.437-1.33 2.235-2.217 3.7zM8.285 11.64c.792 0 1.555.436 2.013 1.19a726.457 726.457 0 002.436 3.966c-1.722-.21-2.655-.311-4.594-.525-.867-.096-1.568-.575-1.922-1.314a2.317 2.317 0 01.129-2.243 2.281 2.281 0 011.938-1.074zm31.317-.178c.78 0 1.501.395 1.925 1.052l.147.256a2.32 2.32 0 01.007 1.98c-.207.448-.54.8-.96 1.034a3.55 3.55 0 00-.31.145c-.112.043-.23.081-.35.108l-.52.08c-1.79.22-2.638.33-4.324.548.039-.057.076-.115.11-.176a541.947 541.947 0 012.421-4.073c.46-.61 1.122-.954 1.854-.954zm-21.75.837c.597.486.906 1.064.87 1.626-.025.409-.238.77-.584.987a1.41 1.41 0 01-.743.218c-.729 0-1.293-.56-1.504-1.502-.25-1.11-.704-2.725-1.013-3.793.84.7 2.107 1.753 2.974 2.464zm14.208 1.139c-.293 1.148-.994 1.56-1.554 1.56-.24 0-.479-.075-.684-.215a1.379 1.379 0 01-.626-1.095c-.014-.476.224-.95.677-1.356l.01-.01.108-.089.049-.04c.898-.69 2.168-1.779 3.002-2.508a426.44 426.44 0 00-.982 3.753zM11.733 7.573c1.072 0 1.955.71 2.25 1.809.519 1.93.745 2.755 1.226 4.495a422.176 422.176 0 00-4.261-1.811c-.804-.341-1.344-.997-1.475-1.805a2.313 2.313 0 01.75-2.116c.418-.37.954-.572 1.51-.572zm24.398-.127c.546 0 1.076.199 1.49.558l.21.209c.457.51.665 1.202.56 1.898-.108.7-.52 1.29-1.142 1.66l-.703.33c-1.549.673-2.33 1.016-3.85 1.687.451-1.685.688-2.602 1.178-4.51.287-1.112 1.172-1.832 2.257-1.832zm-14.76 3.546c.43.639.561 1.284.37 1.814-.14.384-.447.665-.842.774a1.41 1.41 0 01-.38.051c-.378 0-.727-.149-.98-.424-.325-.349-.473-.87-.428-1.507l.05-.933c.039-1.004.054-2.158.06-2.993.605.914 1.518 2.288 2.15 3.218zm7.424.427l.007.248c-.006.605-.18 1.117-.499 1.451a1.235 1.235 0 01-1.273.34 1.378 1.378 0 01-.909-.874c-.144-.438-.06-.94.235-1.442l.009-.011c.057-.085.109-.167.162-.247.663-.92 1.561-2.31 2.153-3.241.029 1.067.075 2.655.115 3.776zm-3.689-.692c.24.727.194 1.382-.133 1.838a1.229 1.229 0 01-1.008.518h-.019a1.375 1.375 0 01-1.113-.581c-.3-.44-.334-1.05-.092-1.72.383-1.07.866-2.676 1.177-3.744.334 1.047.836 2.62 1.188 3.69zM16.17 4.662a2.29 2.29 0 011.639.693c.313.32.681.89.663 1.775a557.634 557.634 0 00-.082 4.661c-1.335-1.112-2.065-1.708-3.583-2.948-.676-.554-1.007-1.34-.908-2.154l.057-.293a2.285 2.285 0 012.214-1.734zm15.497-.08a2.298 2.298 0 012.266 2.006c.11.813-.216 1.603-.888 2.164-1.51 1.26-2.16 1.81-3.506 2.948l-.042.035v-.068a4.947 4.947 0 00-.007-.265 436.66 436.66 0 00-.12-4.329c-.028-.889.34-1.465.65-1.788a2.298 2.298 0 011.647-.703zM21.26 3.122c.725 0 1.42.356 1.85.95.447.613.555 1.385.309 2.167a654.024 654.024 0 00-1.383 4.45c-.857-1.28-1.377-2.039-2.25-3.32l-.497-.75c-.374-.672-.427-1.427-.134-2.103l.139-.264a2.275 2.275 0 011.966-1.13zm5.609-.005a2.275 2.275 0 011.779 1.35c.295.663.256 1.407-.096 2.074l-.31.488a571.339 571.339 0 00-2.294 3.466c-.043.058-.081.116-.12.174a343.81 343.81 0 00-1.427-4.432c-.256-.787-.153-1.562.295-2.182l.176-.216a2.289 2.289 0 011.68-.745c.106 0 .211.009.317.023z" fill="#82C83C"/></g><defs><clipPath id="clip0_947_7939"><path fill="#fff" d="M0 0h48v48H0z"/></clipPath></defs></svg>