<svg width="326" height="326" fill="none" xmlns="http://www.w3.org/2000/svg"><path d="M206.114 163.001c0-23.813-19.299-43.113-43.113-43.113s-43.113 19.3-43.113 43.113 19.299 43.111 43.113 43.111v5.788l-1.264-.017c-26.006-.659-46.962-21.614-47.62-47.621l-.017-1.261c0-27.01 21.891-48.901 48.901-48.901l1.261.017c26.427.669 47.638 22.296 47.638 48.884l-.015 1.261c-.669 26.427-22.297 47.638-48.884 47.638v-5.788c23.813 0 43.112-19.298 43.113-43.111z" fill="#82C83C"/><path d="M311.083 183.483a22.424 22.424 0 008.357-5.376c4.271-4.323 6.59-10.071 6.56-16.161-.062-9.947-6.498-18.391-15.362-21.382a22.672 22.672 0 004.915-4.88c4.24-5.764 5.546-13.279 3.518-20.128-2.734-9.095-10.953-15.556-20.247-16.114a24.011 24.011 0 002.366-3.982c3.333-7.173 2.765-15.416-1.506-22.032a22.467 22.467 0 00-18.926-10.335c-1.797 0-3.533.217-5.207.62a22.985 22.985 0 001.244-4.695c1.183-7.825-1.644-15.556-7.589-20.7a22.363 22.363 0 00-14.655-5.47c-4.071 0-7.927 1.084-11.261 3.052a23.195 23.195 0 00-.107-4.942c-1.045-7.856-5.93-14.472-13.058-17.726a21.961 21.961 0 00-9.248-2.014c-6.084 0-11.983 2.525-16.223 6.91-.076.093-.169.186-.245.28a22.861 22.861 0 00-1.537-4.928c-3.21-7.22-9.755-12.178-17.497-13.263A21.1 21.1 0 00182.256 0c-7.189 0-14.01 3.533-18.25 9.42a24.253 24.253 0 00-1.782 2.944 21.32 21.32 0 00-1.736-2.82C156.264 3.704 149.443.201 142.3.201c-1.107 0-2.243.093-3.349.248-7.728 1.178-14.21 6.198-17.344 13.45a22.947 22.947 0 00-1.49 4.865 1.025 1.025 0 00-.123-.14c-4.209-4.338-10.093-6.833-16.13-6.833a22.05 22.05 0 00-9.464 2.123c-7.097 3.316-11.905 9.994-12.873 17.85-.2 1.657-.215 3.3-.061 4.911-3.288-1.86-7.036-2.882-11.092-2.882a22.421 22.421 0 00-14.84 5.624c-5.883 5.191-8.648 12.97-7.373 20.778a22.105 22.105 0 001.367 4.866 22.812 22.812 0 00-5.147-.605c-7.788 0-14.9 3.951-19.064 10.567-4.194 6.663-4.655 14.906-1.26 22.033a21.79 21.79 0 002.658 4.261c-9.494.527-17.79 7.128-20.416 16.424-1.967 6.926-.63 14.193 3.687 19.957a22.778 22.778 0 004.93 4.819c-3.118 1.115-5.96 2.943-8.356 5.376-4.27 4.323-6.59 10.071-6.56 16.161.062 9.931 6.498 18.391 15.362 21.382a22.68 22.68 0 00-4.915 4.88c-4.24 5.749-5.546 13.279-3.518 20.112 2.734 9.095 10.953 15.572 20.247 16.13a22.796 22.796 0 00-2.366 3.982c-3.333 7.173-2.765 15.401 1.506 22.017 4.163 6.477 11.26 10.35 18.926 10.35 1.797 0 3.533-.217 5.208-.62a23.063 23.063 0 00-1.245 4.68c-1.183 7.824 1.644 15.572 7.589 20.716a22.366 22.366 0 0014.656 5.469c4.07 0 7.926-1.085 11.26-3.052a23.169 23.169 0 00.108 4.942c1.044 7.84 5.93 14.472 13.057 17.726a22.207 22.207 0 009.248 2.014c6.084 0 11.983-2.525 16.223-6.91.076-.093.169-.186.245-.279.323 1.673.83 3.331 1.537 4.927 3.21 7.22 9.755 12.178 17.497 13.263 1.029.14 2.089.217 3.119.217 7.189 0 14.01-3.533 18.25-9.436a22.081 22.081 0 001.782-2.944 21.516 21.516 0 001.736 2.836c4.224 5.841 11.045 9.327 18.188 9.327 1.107 0 2.243-.077 3.349-.248 7.728-1.162 14.226-6.182 17.344-13.449a22.684 22.684 0 001.49-4.865.546.546 0 00.123.139c4.209 4.339 10.093 6.833 16.13 6.833 3.288 0 6.468-.712 9.464-2.107 7.097-3.331 11.905-9.994 12.873-17.849.2-1.674.215-3.316.061-4.912 3.288 1.859 7.036 2.882 11.092 2.882a22.427 22.427 0 0014.84-5.624c5.883-5.207 8.649-12.969 7.373-20.778a22.2 22.2 0 00-1.367-4.881c1.675.403 3.395.62 5.147.62 7.788 0 14.901-3.951 19.064-10.567 4.209-6.663 4.655-14.906 1.26-22.033a21.815 21.815 0 00-2.658-4.261c9.494-.543 17.789-7.143 20.416-16.44 1.967-6.91.63-14.177-3.687-19.941a22.416 22.416 0 00-4.931-4.819zM180.843 65.882c.43-.636.83-1.255 1.229-1.86 5.008-6.941 11.783-17.446 16.253-24.465.215 8.057.553 20.05.86 28.51l.047 1.859c-.047 4.57-1.352 8.429-3.764 10.954-1.844 1.937-4.24 2.99-6.79 2.99-.937 0-1.89-.139-2.812-.433-3.272-1.007-5.822-3.47-6.851-6.585-1.091-3.3-.461-7.081 1.767-10.877l.061-.093zm95.998 44.437a3214.982 3214.982 0 00-16.007 14.906c-1.736 1.596-3.58 3.285-5.608 5.144-3.072 2.464-6.283 3.765-9.386 3.765-3.917 0-7.205-2.123-8.756-5.64-1.398-3.145-1.229-6.709.43-9.544 2.028-3.471 6.068-5.609 11.399-6.074 8.48-.728 20.907-2.479 29.142-3.688-.415.372-.815.76-1.214 1.131zM155.695 248.575c1.782-2.495 4.548-3.905 7.605-3.905h.122c3.411.031 6.545 1.674 8.404 4.37 2.288 3.3 2.534 7.902.722 12.969-2.873 8.072-6.483 20.204-8.834 28.261-2.534-7.886-6.344-19.755-9.017-27.828-1.828-5.485-1.475-10.427.998-13.867zm27.36 12.984c-3.303-4.788-4.317-9.637-2.903-13.65a9.323 9.323 0 016.298-5.888 10.683 10.683 0 012.95-.418c2.842 0 5.453 1.131 7.358 3.176 2.458 2.618 3.595 6.523 3.303 11.311-.507 8.584-.599 21.242-.599 29.64-4.624-6.864-11.598-17.167-16.407-24.155m60.926-40.549c4.164 7.484 10.907 18.19 15.409 25.24-7.574-3.238-18.973-8.088-26.777-11.341-5.33-2.232-8.817-5.733-9.77-9.901-.691-3.006.092-6.059 2.135-8.398 2.028-2.293 4.84-3.61 7.743-3.61 4.378 0 8.372 2.851 11.26 7.995m-19.847 20.08c1.904 8.367 5.346 20.546 7.681 28.603-6.345-5.268-15.9-13.17-22.475-18.531-4.486-3.673-6.836-8.027-6.575-12.287.184-3.084 1.797-5.78 4.409-7.438 1.72-1.084 3.656-1.658 5.607-1.658 5.5 0 9.755 4.215 11.353 11.311zm9.079-33.328h-.477c-4.393 0-8.664 1.968-11.66 5.377-2.98 3.393-4.209 7.762-3.502 12.147a15.055 15.055 0 00-4.778-.79c-2.949 0-5.837.852-8.403 2.463-4.055 2.572-6.575 6.787-6.867 11.606v.046c-2.396-1.503-5.161-2.308-8.111-2.308a15.91 15.91 0 00-4.347.604c-4.317 1.224-7.743 4.23-9.479 8.32-2.888-3.641-7.327-5.81-12.09-5.872h-.184c-4.609 0-8.818 2.107-11.614 5.779-1.859-3.873-5.284-6.864-9.524-8.196a14.748 14.748 0 00-4.394-.682c-2.949 0-5.776.914-8.203 2.603-.461-4.586-2.996-8.816-6.929-11.481-2.442-1.658-5.238-2.526-8.126-2.526-1.751 0-3.441.326-5.024.914.63-4.385-.675-8.955-3.64-12.473-2.781-3.3-6.79-5.175-11.03-5.206 1.766-3.951 1.782-8.599 0-12.736-2.028-4.679-6.13-7.856-11.061-8.677 2.842-3.377 4.117-7.886 3.502-12.395-.614-4.509-3.118-8.228-6.728-10.49 3.917-2.324 6.698-6.337 7.435-11.295.645-4.308-.538-8.507-3.349-11.791a9.156 9.156 0 00-.63-.698c4.117-1.27 7.59-4.245 9.54-8.428 2.013-4.277 1.89-9.08-.292-13.217.185.015.384.031.569.031 4.455 0 8.756-2.014 11.767-5.501 2.95-3.408 4.133-7.793 3.395-12.147a15.47 15.47 0 004.179.604c2.949 0 5.837-.852 8.387-2.463 3.979-2.51 6.468-6.601 6.852-11.28 2.458 1.58 5.3 2.432 8.341 2.432 1.429 0 2.858-.186 4.225-.573 4.593-1.255 8.188-4.54 9.863-9.018 2.872 3.378 7.143 5.392 11.705 5.454h.2c4.732 0 9.048-2.215 11.829-6.058 1.813 4.106 5.361 7.282 9.786 8.646a14.42 14.42 0 004.332.666c3.041 0 5.914-.945 8.387-2.711.477 4.57 3.042 8.8 6.975 11.434 2.427 1.627 5.208 2.48 8.065 2.48 1.828 0 3.595-.341 5.254-.992-.722 4.462.584 9.142 3.579 12.705 2.796 3.316 6.836 5.206 11.107 5.206.138 0 .277-.015.415-.015-2.013 4.106-2.089 9.033-.169 13.356 1.951 4.431 5.776 7.484 10.385 8.46-.016 0-.046.046-.077.077-2.934 3.394-4.225 7.949-3.61 12.535.63 4.571 3.195 8.336 6.897 10.598-3.84 2.324-6.575 6.291-7.297 11.172-.66 4.323.523 8.537 3.334 11.806.153.186.322.372.491.543-4.163 1.239-7.665 4.245-9.647 8.46-2.043 4.353-1.889 9.281.446 13.48m-118.704 22.404c1.844 0 3.641.574 5.208 1.627 2.827 1.921 4.563 5.02 4.67 8.305.108 4.013-2.181 8.026-6.436 11.28-6.775 5.175-16.392 13.341-22.706 18.81 2.166-8.011 5.377-20.034 7.512-28.277 2.259-8.63 7.543-11.714 11.737-11.714m-10.4-4.168c-.983 3.889-4.255 7.097-9.248 9.064-7.927 3.115-19.372 8.321-26.96 11.838 4.255-7.112 10.63-17.803 14.916-25.132 3.119-5.33 7.466-8.398 11.921-8.398 2.765 0 5.285 1.194 7.097 3.363 2.213 2.618 3.057 6.073 2.259 9.281m-14.594-19.043c-2.059 3.44-6.114 5.563-11.46 5.966-8.48.666-20.94 2.293-29.189 3.455 6.115-5.563 15.286-13.93 21.492-19.693 3.518-3.254 7.266-4.959 10.861-4.959 3.979 0 7.266 2.139 8.818 5.718 1.352 3.145 1.167 6.709-.522 9.529M72.417 160.66c-2.504 0-5.146-.743-7.911-2.2-7.543-3.982-18.972-9.25-26.577-12.69a3693.103 3693.103 0 0028.558-5.19c6.038-1.147 11.276.201 14.164 3.594 1.782 2.092 2.55 4.773 2.136 7.562-.676 4.447-4.117 8.94-10.385 8.94m16.391-31.345c-1.751 3.719-5.284 6.043-9.248 6.043-3.425 0-6.959-1.689-10.2-4.897-6.099-5.996-15.531-14.363-21.814-19.863 8.172.976 20.447 2.417 28.834 3.331 5.746.62 10.063 3.021 12.121 6.74 1.506 2.696 1.613 5.841.292 8.661m-6.191-24.14c-4.24-7.437-11.076-18.082-15.654-25.1 7.604 3.176 19.05 7.917 26.884 11.093 5.361 2.185 8.864 5.656 9.862 9.808.722 3.006-.031 6.074-2.058 8.429-2.028 2.34-4.855 3.672-7.804 3.672-4.332 0-8.326-2.804-11.23-7.886m19.218-20.5c-1.89-8.366-5.3-20.56-7.635-28.617 6.345 5.283 15.9 13.217 22.444 18.578 4.501 3.672 6.836 8.041 6.56 12.286-.185 3.084-1.798 5.795-4.409 7.438-1.721 1.069-3.656 1.642-5.607 1.642-5.5 0-9.755-4.214-11.353-11.326zm24.303-14.517c.568-8.584.768-21.243.829-29.64 4.563 6.894 11.461 17.26 16.223 24.279 3.257 4.818 4.24 9.684 2.796 13.681-1.06 2.897-3.38 5.02-6.36 5.841-.937.264-1.905.388-2.858.388-2.857 0-5.484-1.131-7.389-3.208-2.458-2.634-3.579-6.554-3.241-11.357m45.241-7.344c1.813 5.485 1.46 10.427-1.014 13.867-1.782 2.48-4.547 3.905-7.604 3.905h-.138c-3.41-.047-6.544-1.705-8.403-4.385-2.258-3.316-2.52-7.918-.691-12.984 2.888-8.073 6.528-20.19 8.879-28.246 2.519 7.902 6.314 19.77 8.971 27.843zM242 106.492c-2.858 3.533-6.36 5.501-9.955 5.501-2.765 0-5.269-1.193-7.097-3.362-2.212-2.619-3.057-6.074-2.259-9.266.984-3.905 4.256-7.112 9.248-9.08 7.881-3.083 19.219-8.243 26.792-11.744A2802.388 2802.388 0 01242 106.477m3.886 75.349c-1.782-2.108-2.534-4.773-2.12-7.562.676-4.447 4.133-8.94 10.37-8.94 2.504 0 5.177.759 7.942 2.231 7.527 3.982 18.957 9.297 26.546 12.737-8.112 1.441-20.278 3.61-28.574 5.144-6.037 1.115-11.276-.233-14.148-3.626m13.964-23.474c-1.874.651-3.687.976-5.423.976-5.454 0-9.586-3.362-10.262-8.336-.43-3.067.446-6.104 2.366-8.336 2.135-2.479 5.331-3.765 9.248-3.765 1.29 0 2.642.14 4.055.419 8.357 1.689 20.785 3.501 29.035 4.617-3.303 1.658-7.313 3.672-11.43 5.733a2309.639 2309.639 0 01-17.589 8.692zm-52.477-83.452c.276-.233.553-.465.814-.682.138-.108.261-.217.384-.31 6.775-5.206 16.345-13.418 22.644-18.918-2.135 8.01-5.3 20.065-7.405 28.308-2.212 8.677-7.512 11.776-11.736 11.776a9.199 9.199 0 01-5.162-1.612c-2.857-1.89-4.593-4.974-4.716-8.274-.108-3.594 1.69-7.174 5.115-10.242l.062-.062v.016zM65.627 167.896c2.136-.821 4.194-1.239 6.176-1.239 5.438 0 9.57 3.346 10.262 8.336.415 3.067-.446 6.104-2.381 8.336-2.136 2.463-5.316 3.765-9.248 3.765-1.276 0-2.643-.14-4.025-.434-8.357-1.674-20.785-3.486-29.035-4.602 5.869-2.959 14.103-7.081 21-10.614 2.228-1.1 4.594-2.262 7.251-3.563m79.499 92.284c-.399.635-.799 1.239-1.198 1.844-4.977 6.91-11.568 17.012-15.915 23.814-.2-8.289-.507-20.762-.784-29.268-.169-5.036 1.168-9.313 3.779-12.024 1.844-1.921 4.225-2.975 6.76-2.975.952 0 1.92.14 2.857.434 3.257 1.023 5.792 3.502 6.821 6.616 1.029 3.145.491 6.725-1.49 10.319l-.83 1.24zm133.635-44.903c-8.172-.96-20.447-2.417-28.834-3.331-5.746-.62-10.063-3.021-12.121-6.74-1.49-2.696-1.598-5.841-.277-8.661 1.752-3.734 5.285-6.043 9.233-6.043 2.581 0 5.192.945 7.712 2.773l1.382 1.24c.922.821 1.782 1.596 2.612 2.355 6.053 5.841 14.517 13.356 20.309 18.423m41.969-53.301c.015 4.664-1.767 9.08-5.024 12.396-3.272 3.316-7.604 5.128-12.197 5.128-2.212 0-4.409-.433-6.59-1.255-.692-.325-1.598-.728-2.658-1.208a4978.176 4978.176 0 00-30.402-14.611c.477-.217.953-.45 1.429-.682 4.148-2.138 9.402-4.788 14.502-7.375 4.393-2.201 9.063-4.525 15.178-7.608 2.811-1.395 5.668-2.107 8.541-2.107 9.448 0 17.175 7.762 17.236 17.307m-6.728-44.887c1.567 5.237.568 11.032-2.704 15.448-3.288 4.447-8.419 7.019-14.087 7.019-.768 0-1.552-.062-2.335-.14-.215-.031-.446-.062-.676-.093-.123 0-.261-.031-.384-.062-14.732-2.432-21.062-3.439-34.396-5.547.292-.248.584-.511.876-.774 1.229-1.178 2.596-2.449 4.009-3.781 5.531-5.098 9.909-9.188 16.054-14.937 2.335-2.169 4.316-3.997 5.668-5.252a20.03 20.03 0 013.011-2.061 25.836 25.836 0 002.381-1.115 17.078 17.078 0 016.038-1.116c7.558 0 14.348 5.098 16.545 12.395m-18.758-40.765c3.273 5.067 3.703 11.404 1.153 16.904a17.005 17.005 0 01-7.251 7.794c-.799.325-1.567.697-2.335 1.1-.845.325-1.736.604-2.643.806-.952.155-2.289.356-3.917.604-13.519 1.658-19.909 2.494-32.629 4.137.292-.434.568-.868.83-1.333 5.699-9.745 15.116-25.472 18.265-30.725 3.472-4.602 8.465-7.205 13.995-7.205 5.884 0 11.322 2.975 14.517 7.933M265.78 42.3c4.547 3.936 6.729 9.886 5.822 15.882-.814 5.284-3.917 9.746-8.618 12.535-1.198.573-3.057 1.44-5.315 2.495a4649.197 4649.197 0 00-29.05 12.736c3.411-12.721 5.193-19.647 8.895-34.041 2.166-8.398 8.849-13.821 17.037-13.821a17.19 17.19 0 0111.245 4.199M220.861 16.47c2.458 0 4.824.527 7.082 1.55 5.469 2.494 9.218 7.577 10.016 13.588.83 6.136-1.628 12.086-6.697 16.316-11.399 9.513-16.315 13.666-26.469 22.25l-.323.279v-.527c0-.419 0-.852-.015-1.286 0-.233 0-.465-.031-.698-.261-11.651-.476-18.81-.906-32.677-.215-6.709 2.565-11.063 4.9-13.495a17.339 17.339 0 0112.443-5.3zm-52.599-3.997c3.256-4.524 8.479-7.236 13.994-7.236.799 0 1.598.062 2.397.17 5.945.822 10.968 4.633 13.411 10.196 2.228 5.004 1.936 10.613-.722 15.649-.599.945-1.383 2.2-2.335 3.688a4302.485 4302.485 0 00-17.282 26.092c0 .016 0 .047-.031.062-.323.434-.599.868-.891 1.301-3.948-12.55-6.176-19.352-10.784-33.436-1.936-5.934-1.153-11.791 2.227-16.47m-41.785 3.486c2.397-5.578 7.374-9.436 13.304-10.335a17.701 17.701 0 012.565-.186c5.469 0 10.708 2.68 13.949 7.158 3.38 4.633 4.194 10.459 2.335 16.362a4942.33 4942.33 0 00-10.431 33.576c-6.467-9.668-10.385-15.385-16.975-25.054-1.613-2.432-2.934-4.4-3.764-5.655-2.826-5.067-3.21-10.769-.998-15.866M86.781 32.368c.737-6.028 4.424-11.156 9.878-13.697a17.072 17.072 0 017.251-1.612c4.624 0 9.155 1.906 12.366 5.237 2.366 2.417 5.131 6.71 4.993 13.387-.323 15.076-.415 21.537-.615 35.188-10.077-8.398-15.577-12.891-27.037-22.25-5.1-4.183-7.604-10.118-6.852-16.253M59.038 43.353A17.154 17.154 0 0170.42 39.03c8.096 0 14.763 5.361 16.99 13.65a4423.956 4423.956 0 009.249 33.933c-12.014-5.19-18.573-7.948-32.153-13.666-6.068-2.572-10.14-7.53-11.122-13.635-.983-5.996 1.136-11.961 5.653-15.959zm-29.25 34.475c3.196-5.067 8.65-8.104 14.625-8.104 5.976 0 11.737 3.285 15.193 8.987 7.835 12.845 11.23 18.345 18.373 29.92-12.996-1.581-20.032-2.356-34.672-3.967-6.544-.728-11.813-4.338-14.486-9.916-2.612-5.485-2.259-11.791.967-16.92zm-18.419 41.354c2.12-7.437 8.941-12.628 16.607-12.628 4.424 0 8.68 1.72 12.259 4.989a4042.522 4042.522 0 0025.992 23.474c-12.92 2.2-19.894 3.456-34.38 6.059a21.45 21.45 0 01-3.656.325c-5.607 0-10.723-2.526-13.995-6.911-3.318-4.431-4.332-10.009-2.842-15.308M5.27 164.023c-.016-4.664 1.766-9.08 5.023-12.396 3.272-3.316 7.604-5.128 12.197-5.128 2.796 0 5.592.681 8.342 2.014 13.427 6.523 19.249 9.296 31.4 15.107-.43.186-.86.403-1.306.62-1.505.774-3.149 1.611-4.87 2.494-8.187 4.029-14.363 7.143-25.024 12.489-2.811 1.41-5.669 2.122-8.542 2.122-9.447 0-17.174-7.762-17.236-17.307m6.729 44.887c-1.567-5.252-.553-11.032 2.704-15.448 3.287-4.462 8.418-7.019 14.086-7.019 1.107 0 2.259.093 3.396.279 14.763 2.448 21.092 3.455 34.457 5.563-9.678 8.893-14.87 13.743-25.655 23.861a21.108 21.108 0 01-4.025 2.944 25.33 25.33 0 00-2.38 1.1 16.823 16.823 0 01-6.038 1.131c-7.558 0-14.348-5.098-16.545-12.395m18.772 40.765c-3.272-5.082-3.702-11.404-1.152-16.904 1.567-3.378 4.071-6.027 7.251-7.809.784-.31 1.567-.682 2.335-1.1a19.937 19.937 0 014.778-1.178c14.855-1.828 21.2-2.65 34.626-4.385-6.82 11.264-10.462 17.4-18.02 30.137-3.456 5.825-9.017 9.157-15.3 9.157a17.219 17.219 0 01-14.518-7.918zm29.496 33.979c-4.548-3.951-6.73-9.885-5.823-15.897.937-6.105 4.931-11.14 11-13.744 13.733-5.949 19.602-8.552 31.999-14.022-3.41 12.736-5.193 19.647-8.895 34.041-2.166 8.414-8.848 13.837-17.036 13.837-4.117 0-8.112-1.503-11.245-4.199m44.903 25.829c-2.458 0-4.824-.527-7.082-1.55-5.469-2.494-9.217-7.577-10.016-13.604-.83-6.136 1.628-12.07 6.698-16.315 11.521-9.607 16.437-13.759 26.791-22.529.292 13.201.507 20.344.968 35.187.215 6.725-2.565 11.063-4.9 13.512a17.344 17.344 0 01-12.444 5.299m52.6 3.997c-3.257 4.524-8.48 7.236-13.995 7.236a17.71 17.71 0 01-2.396-.171c-5.945-.836-10.969-4.632-13.411-10.195-2.504-5.655-1.828-12.039 1.859-17.555 8.003-11.977 11.583-17.415 18.449-27.828.139-.201.292-.418.446-.619l.507-.744c3.963 12.519 6.175 19.321 10.784 33.406 1.936 5.918 1.152 11.76-2.227 16.47m41.785-3.502c-2.397 5.563-7.374 9.436-13.304 10.335-.845.124-1.705.186-2.566.186-5.468 0-10.707-2.681-13.948-7.158-3.365-4.633-4.194-10.459-2.335-16.362a4633.226 4633.226 0 0010.43-33.592c7.328 10.954 11.353 16.827 19.695 29.052 3.733 5.454 4.47 11.868 2.028 17.539zm39.68-16.393c-.738 6.028-4.424 11.156-9.878 13.682a16.87 16.87 0 01-7.251 1.627c-4.624 0-9.156-1.922-12.366-5.237-2.366-2.433-5.131-6.709-4.993-13.387.323-15.076.415-21.537.614-35.188 10.093 8.398 15.593 12.891 27.038 22.25 5.1 4.168 7.604 10.102 6.851 16.253m27.713-11.016a17.152 17.152 0 01-11.383 4.323c-8.096 0-14.763-5.361-16.99-13.666a4898.173 4898.173 0 00-9.248-33.917c12.013 5.19 18.572 7.948 32.153 13.666 6.068 2.556 10.139 7.53 11.122 13.635.983 5.996-1.137 11.946-5.654 15.943m29.265-34.428c-3.195 5.067-8.649 8.088-14.624 8.088-5.976 0-11.737-3.269-15.194-8.971-7.834-12.86-11.229-18.361-18.373-29.92 12.966 1.565 20.002 2.356 34.611 3.952h.062c6.544.743 11.813 4.338 14.486 9.931 2.612 5.47 2.258 11.792-.968 16.92zm18.404-41.37c-2.12 7.438-8.941 12.628-16.606 12.628-3.826 0-7.497-1.286-10.754-3.749a472.274 472.274 0 01-2.78-2.402 3517.05 3517.05 0 00-22.521-20.344c-.461-.465-.937-.914-1.367-1.348l-.707-.666c12.797-2.169 19.771-3.44 34.196-6.012h.046a19.981 19.981 0 013.656-.341c5.607 0 10.723 2.526 13.995 6.911 3.318 4.415 4.332 10.009 2.842 15.308" fill="#82C83C"/></svg>