<svg width="142" height="142" fill="none" xmlns="http://www.w3.org/2000/svg"><g opacity=".1" fill="#82C83C"><path d="M179.559 142.001c0-20.745-16.813-37.558-37.558-37.559-20.746 0-37.559 16.813-37.559 37.559 0 20.745 16.813 37.557 37.559 37.557v5.042l-1.101-.014c-22.656-.575-40.912-18.83-41.486-41.486l-.014-1.099c0-23.53 19.07-42.601 42.6-42.601l1.099.014c23.022.584 41.5 19.424 41.5 42.587l-.013 1.099c-.583 23.021-19.424 41.5-42.586 41.5v-5.042c20.745-.001 37.558-16.812 37.558-37.557z"/><path d="M271.005 159.844a19.535 19.535 0 007.28-4.683c3.721-3.766 5.741-8.774 5.715-14.079-.054-8.666-5.661-16.022-13.383-18.627a19.773 19.773 0 004.282-4.252c3.694-5.021 4.832-11.568 3.065-17.534-2.382-7.924-9.542-13.552-17.639-14.038.79-1.08 1.486-2.24 2.061-3.47 2.904-6.249 2.409-13.43-1.311-19.194a19.574 19.574 0 00-16.488-9.003c-1.566 0-3.078.19-4.537.54.495-1.31.87-2.672 1.084-4.09 1.031-6.816-1.432-13.552-6.611-18.033a19.482 19.482 0 00-12.767-4.765 19.23 19.23 0 00-9.81 2.66c.12-1.418.094-2.863-.094-4.307-.91-6.843-5.166-12.607-11.375-15.442a19.131 19.131 0 00-8.057-1.754c-5.299 0-10.438 2.2-14.132 6.02-.067.08-.147.162-.214.243a19.89 19.89 0 00-1.339-4.293c-2.797-6.29-8.498-10.61-15.243-11.554A18.374 18.374 0 00158.776 0c-6.264 0-12.206 3.078-15.899 8.207a21.04 21.04 0 00-1.553 2.564 18.581 18.581 0 00-1.512-2.456c-3.68-5.089-9.622-8.14-15.846-8.14-.963 0-1.953.081-2.917.216-6.732 1.026-12.379 5.4-15.109 11.717a19.956 19.956 0 00-1.298 4.238.842.842 0 00-.108-.121 19.693 19.693 0 00-14.052-5.953c-2.864 0-5.634.621-8.243 1.85-6.184 2.888-10.372 8.706-11.215 15.55a19.922 19.922 0 00-.054 4.278c-2.864-1.62-6.13-2.51-9.663-2.51-4.75 0-9.354 1.74-12.927 4.9-5.126 4.521-7.535 11.297-6.424 18.1.24 1.485.642 2.902 1.19 4.239a19.873 19.873 0 00-4.482-.527c-6.786 0-12.982 3.442-16.609 9.206-3.653 5.804-4.055 12.985-1.097 19.194a18.978 18.978 0 002.315 3.712c-8.27.459-15.497 6.21-17.786 14.308-1.713 6.034-.548 12.364 3.212 17.386a19.866 19.866 0 004.296 4.198c-2.717.971-5.192 2.564-7.28 4.683-3.72 3.766-5.742 8.774-5.715 14.079.054 8.652 5.661 16.022 13.383 18.627a19.765 19.765 0 00-4.282 4.252c-3.694 5.008-4.832 11.568-3.065 17.521 2.382 7.923 9.542 13.565 17.639 14.051a19.897 19.897 0 00-2.061 3.469c-2.904 6.25-2.41 13.417 1.311 19.181a19.555 19.555 0 0016.488 9.017 19.33 19.33 0 004.537-.54 20.09 20.09 0 00-1.084 4.076c-1.03 6.817 1.432 13.566 6.611 18.047a19.48 19.48 0 0012.767 4.765c3.547 0 6.906-.945 9.81-2.659a20.197 20.197 0 00.094 4.306c.91 6.83 5.166 12.607 11.375 15.442a19.35 19.35 0 008.057 1.754c5.3 0 10.438-2.2 14.132-6.02.067-.081.147-.162.214-.243a19.904 19.904 0 001.339 4.293c2.797 6.29 8.498 10.609 15.243 11.554.896.121 1.82.189 2.716.189 6.264 0 12.206-3.078 15.899-8.22a19.17 19.17 0 001.553-2.565c.441.85.937 1.687 1.512 2.47 3.68 5.089 9.622 8.126 15.846 8.126.963 0 1.953-.067 2.917-.216 6.732-1.012 12.393-5.386 15.109-11.716a19.795 19.795 0 001.299-4.239.432.432 0 00.107.122c3.666 3.779 8.792 5.952 14.052 5.952 2.864 0 5.634-.62 8.244-1.835 6.182-2.902 10.371-8.707 11.214-15.55a19.93 19.93 0 00.054-4.279c2.864 1.62 6.129 2.511 9.662 2.511 4.751 0 9.355-1.742 12.928-4.9 5.126-4.536 7.535-11.298 6.424-18.101a19.36 19.36 0 00-1.191-4.252c1.459.351 2.958.54 4.483.54 6.786 0 12.982-3.442 16.609-9.206 3.667-5.804 4.055-12.985 1.097-19.194a18.978 18.978 0 00-2.315-3.712c8.27-.473 15.497-6.223 17.786-14.322 1.713-6.02.548-12.35-3.212-17.372a19.566 19.566 0 00-4.296-4.198zM157.544 57.394c.375-.553.723-1.093 1.071-1.62 4.363-6.047 10.265-15.199 14.159-21.313.187 7.019.482 17.466.75 24.836l.04 1.62c-.04 3.982-1.178 7.343-3.279 9.543-1.606 1.687-3.694 2.605-5.915 2.605a8.053 8.053 0 01-2.449-.378c-2.851-.877-5.073-3.023-5.969-5.736-.95-2.875-.402-6.17 1.539-9.476l.053-.081zm83.63 38.712a2770.668 2770.668 0 00-13.945 12.986c-1.512 1.39-3.118 2.861-4.884 4.481-2.677 2.146-5.474 3.28-8.177 3.28-3.413 0-6.277-1.849-7.629-4.913-1.218-2.74-1.07-5.845.375-8.315 1.767-3.024 5.286-4.886 9.93-5.291 7.388-.635 18.214-2.16 25.388-3.213-.362.324-.71.662-1.058.986zM135.636 216.55c1.553-2.173 3.962-3.402 6.625-3.402h.107c2.971.027 5.701 1.458 7.321 3.807 1.994 2.875 2.208 6.884.629 11.298-2.503 7.032-5.648 17.601-7.696 24.62-2.208-6.87-5.527-17.21-7.855-24.242-1.593-4.779-1.285-9.084.869-12.081zm23.835 11.311c-2.877-4.171-3.76-8.395-2.529-11.891a8.123 8.123 0 015.487-5.13 9.304 9.304 0 012.57-.364c2.475 0 4.751.985 6.41 2.767 2.141 2.281 3.132 5.683 2.877 9.854-.441 7.478-.522 18.505-.522 25.821-4.028-5.979-10.104-14.955-14.293-21.043m53.077-35.325c3.627 6.52 9.502 15.847 13.423 21.989-6.598-2.821-16.528-7.046-23.326-9.881-4.644-1.944-7.682-4.994-8.512-8.625-.602-2.619.081-5.278 1.86-7.316 1.767-1.998 4.216-3.145 6.745-3.145 3.815 0 7.294 2.484 9.81 6.965m-17.291 17.493c1.66 7.289 4.658 17.899 6.692 24.918-5.527-4.589-13.851-11.473-19.579-16.144-3.908-3.199-5.956-6.992-5.728-10.704.16-2.686 1.566-5.035 3.841-6.479 1.499-.945 3.185-1.444 4.884-1.444 4.792 0 8.499 3.671 9.89 9.853zm7.91-29.034h-.415c-3.828 0-7.548 1.714-10.158 4.684-2.596 2.956-3.667 6.762-3.051 10.582a13.121 13.121 0 00-4.162-.688c-2.57 0-5.086.742-7.321 2.146-3.533 2.241-5.728 5.912-5.982 10.11v.041c-2.088-1.31-4.496-2.012-7.066-2.012-1.271 0-2.556.176-3.787.527-3.761 1.066-6.745 3.685-8.258 7.248-2.516-3.172-6.383-5.061-10.532-5.115h-.161c-4.015 0-7.681 1.835-10.117 5.034-1.619-3.374-4.604-5.979-8.298-7.14a12.843 12.843 0 00-3.827-.594c-2.57 0-5.032.796-7.147 2.268-.401-3.996-2.609-7.681-6.035-10.002-2.128-1.445-4.564-2.201-7.08-2.201-1.525 0-2.998.284-4.376.797.549-3.82-.589-7.802-3.172-10.866-2.422-2.875-5.915-4.509-9.609-4.536 1.54-3.442 1.553-7.491 0-11.095-1.766-4.076-5.34-6.844-9.635-7.559 2.475-2.943 3.586-6.87 3.05-10.798-.535-3.928-2.716-7.168-5.861-9.139 3.413-2.024 5.835-5.52 6.477-9.84.563-3.752-.468-7.41-2.917-10.272a7.962 7.962 0 00-.549-.607c3.587-1.107 6.611-3.699 8.311-7.343 1.753-3.726 1.646-7.91-.254-11.514.16.013.334.027.495.027 3.881 0 7.628-1.755 10.251-4.792 2.57-2.97 3.6-6.79 2.958-10.582a13.52 13.52 0 003.64.526c2.57 0 5.086-.742 7.307-2.146 3.466-2.187 5.634-5.75 5.969-9.827a13.317 13.317 0 007.267 2.12c1.244 0 2.489-.163 3.68-.5 4.002-1.093 7.133-3.955 8.592-7.856 2.503 2.943 6.223 4.698 10.198 4.752h.174c4.122 0 7.882-1.93 10.305-5.278 1.579 3.577 4.67 6.344 8.525 7.532 1.244.391 2.516.58 3.774.58 2.649 0 5.152-.823 7.307-2.362.415 3.982 2.649 7.667 6.076 9.962 2.114 1.417 4.536 2.16 7.026 2.16a12.49 12.49 0 004.577-.865c-.629 3.888.508 7.964 3.118 11.069 2.435 2.888 5.955 4.535 9.676 4.535.12 0 .241-.013.361-.013-1.753 3.577-1.82 7.869-.147 11.635 1.699 3.86 5.032 6.52 9.047 7.37-.014 0-.041.04-.067.067-2.556 2.957-3.681 6.925-3.145 10.92.548 3.982 2.783 7.262 6.009 9.233-3.346 2.025-5.728 5.48-6.357 9.732-.576 3.766.455 7.438 2.904 10.286.134.162.281.324.428.472-3.627 1.08-6.678 3.699-8.404 7.37-1.78 3.793-1.646 8.086.388 11.744m-103.41 19.518c1.606 0 3.171.499 4.537 1.417 2.462 1.674 3.974 4.373 4.068 7.235.094 3.496-1.9 6.992-5.607 9.827-5.902 4.508-14.28 11.622-19.78 16.386 1.887-6.978 4.684-17.453 6.544-24.634 1.967-7.518 6.57-10.204 10.224-10.204m-9.06-3.631c-.856 3.388-3.707 6.182-8.056 7.896-6.906 2.713-16.876 7.249-23.487 10.313 3.707-6.196 9.26-15.51 12.994-21.894 2.717-4.644 6.504-7.316 10.385-7.316 2.41 0 4.604 1.039 6.183 2.929 1.928 2.281 2.664 5.291 1.968 8.085m-12.714-16.589c-1.793 2.997-5.327 4.846-9.984 5.197-7.387.58-18.24 1.998-25.427 3.01 5.326-4.846 13.316-12.135 18.722-17.156 3.065-2.835 6.33-4.32 9.462-4.32 3.466 0 6.33 1.863 7.682 4.981 1.178 2.74 1.017 5.845-.455 8.302m-14.869-40.373c-2.181 0-4.483-.648-6.892-1.917-6.57-3.469-16.528-8.058-23.152-11.055a3174.197 3174.197 0 0024.879-4.522c5.26-.999 9.823.176 12.339 3.132 1.552 1.822 2.221 4.157 1.86 6.587-.589 3.874-3.587 7.788-9.047 7.788m14.28-27.306c-1.526 3.239-4.604 5.264-8.057 5.264-2.984 0-6.062-1.471-8.886-4.266-5.313-5.223-13.53-12.512-19.004-17.304 7.12.85 17.813 2.106 25.12 2.902 5.005.54 8.766 2.632 10.559 5.872 1.312 2.348 1.405 5.088.254 7.545m-5.393-21.03c-3.694-6.479-9.65-15.752-13.637-21.867 6.624 2.767 16.595 6.898 23.42 9.665 4.67 1.903 7.722 4.927 8.592 8.544.629 2.619-.027 5.291-1.794 7.343-1.766 2.038-4.229 3.2-6.798 3.2-3.774 0-7.254-2.444-9.783-6.871m16.742-17.858c-1.646-7.29-4.617-17.912-6.651-24.931 5.527 4.602 13.851 11.514 19.552 16.184 3.921 3.199 5.956 7.005 5.715 10.704a8.153 8.153 0 01-3.841 6.479c-1.499.931-3.185 1.43-4.885 1.43-4.791 0-8.498-3.67-9.89-9.866zm21.172-12.648c.495-7.478.669-18.506.723-25.822 3.974 6.007 9.983 15.037 14.132 21.151 2.837 4.199 3.694 8.437 2.436 11.92-.924 2.523-2.945 4.373-5.541 5.088a9.214 9.214 0 01-2.489.338c-2.489 0-4.778-.986-6.437-2.794-2.142-2.295-3.119-5.71-2.824-9.895m39.413-6.398c1.579 4.779 1.271 9.085-.884 12.081-1.552 2.16-3.961 3.402-6.624 3.402h-.121c-2.971-.04-5.701-1.485-7.32-3.82-1.967-2.889-2.195-6.898-.602-11.312 2.516-7.032 5.687-17.588 7.735-24.607 2.195 6.884 5.5 17.224 7.816 24.256zm61.548 38.024c-2.489 3.078-5.541 4.792-8.672 4.792-2.409 0-4.591-1.04-6.183-2.929-1.927-2.281-2.663-5.291-1.968-8.072.857-3.401 3.708-6.195 8.057-7.91 6.865-2.686 16.742-7.18 23.34-10.231a2445.9 2445.9 0 01-14.574 24.337m3.386 65.641c-1.553-1.836-2.209-4.157-1.847-6.587.589-3.874 3.6-7.788 9.033-7.788 2.182 0 4.51.661 6.919 1.943 6.558 3.469 16.515 8.099 23.126 11.096-7.066 1.255-17.665 3.145-24.892 4.481-5.26.972-9.823-.202-12.326-3.158m12.165-20.45c-1.633.567-3.212.85-4.724.85-4.751 0-8.351-2.929-8.94-7.262-.375-2.672.388-5.318 2.061-7.262 1.86-2.159 4.644-3.28 8.057-3.28 1.124 0 2.302.122 3.533.365 7.28 1.471 18.107 3.05 25.294 4.022-2.878 1.445-6.371 3.199-9.957 4.995a2047.123 2047.123 0 01-15.324 7.572zm-45.716-72.7c.241-.203.482-.406.709-.595.121-.094.228-.189.335-.27 5.902-4.535 14.239-11.689 19.726-16.48a2799.65 2799.65 0 00-6.45 24.66c-1.927 7.56-6.544 10.259-10.225 10.259a8.009 8.009 0 01-4.496-1.404c-2.49-1.647-4.002-4.333-4.109-7.208-.094-3.132 1.472-6.25 4.456-8.922l.054-.054v.013zM57.172 146.264c1.86-.715 3.654-1.079 5.38-1.079 4.738 0 8.338 2.915 8.94 7.262.361 2.672-.388 5.318-2.074 7.261-1.86 2.147-4.63 3.281-8.057 3.281-1.11 0-2.302-.122-3.506-.378-7.28-1.458-18.107-3.037-25.294-4.009 5.112-2.578 12.285-6.169 18.294-9.247 1.941-.958 4.002-1.97 6.317-3.104m69.257 80.395c-.348.553-.696 1.079-1.044 1.606-4.336 6.02-10.077 14.821-13.865 20.746-.174-7.221-.441-18.087-.682-25.497-.147-4.387 1.017-8.113 3.292-10.475 1.606-1.674 3.68-2.592 5.889-2.592.829 0 1.672.122 2.489.378 2.837.891 5.045 3.051 5.942 5.764.896 2.74.428 5.858-1.298 8.99l-.723 1.08zm116.418-39.118c-7.12-.837-17.813-2.106-25.12-2.902-5.005-.54-8.765-2.632-10.559-5.872-1.298-2.348-1.392-5.088-.241-7.545 1.526-3.253 4.604-5.264 8.044-5.264 2.248 0 4.523.823 6.718 2.416l1.204 1.08c.803.715 1.553 1.39 2.275 2.051 5.273 5.089 12.647 11.636 17.693 16.05m36.562-46.434c.013 4.063-1.539 7.91-4.376 10.799-2.851 2.888-6.625 4.467-10.626 4.467-1.928 0-3.841-.377-5.742-1.093-.602-.283-1.392-.634-2.315-1.053a4335.93 4335.93 0 00-26.485-12.728c.415-.189.83-.392 1.245-.594 3.613-1.863 8.19-4.171 12.633-6.425 3.828-1.917 7.896-3.942 13.223-6.628 2.449-1.215 4.938-1.836 7.441-1.836 8.23 0 14.962 6.763 15.015 15.078m-5.862-39.104c1.365 4.562.496 9.61-2.355 13.457-2.864 3.874-7.334 6.115-12.272 6.115-.669 0-1.352-.054-2.034-.122a66.51 66.51 0 00-.589-.081c-.107 0-.228-.027-.335-.054a3588.792 3588.792 0 00-29.964-4.832c.254-.216.508-.445.763-.675 1.07-1.026 2.261-2.133 3.493-3.293a2432.09 2432.09 0 0013.985-13.013c2.034-1.89 3.76-3.482 4.938-4.575a17.41 17.41 0 012.623-1.796 22.547 22.547 0 002.075-.972 14.883 14.883 0 015.259-.971c6.584 0 12.5 4.44 14.413 10.798m-16.34-35.513c2.85 4.413 3.225 9.934 1.004 14.726a14.82 14.82 0 01-6.317 6.79c-.696.283-1.365.607-2.034.958a16.41 16.41 0 01-2.302.702c-.83.135-1.994.31-3.413.526-11.777 1.445-17.344 2.174-28.425 3.604.254-.378.495-.756.722-1.16 4.965-8.49 13.169-22.191 15.913-26.767 3.024-4.01 7.374-6.277 12.192-6.277a15.01 15.01 0 0112.646 6.911M231.539 36.85c3.961 3.428 5.861 8.612 5.072 13.835-.71 4.603-3.413 8.49-7.508 10.92-1.044.5-2.663 1.256-4.631 2.174a4057.68 4057.68 0 00-25.307 11.095c2.971-11.082 4.524-17.116 7.749-29.655 1.887-7.316 7.709-12.04 14.842-12.04 3.586 0 7.066 1.295 9.796 3.657M192.407 14.35a14.8 14.8 0 016.169 1.35c4.765 2.173 8.03 6.6 8.726 11.837.723 5.345-1.419 10.529-5.835 14.214a3892.285 3892.285 0 00-23.059 19.383l-.281.243v-.46c0-.363 0-.741-.013-1.12 0-.202 0-.404-.027-.607-.227-10.15-.415-16.386-.789-28.467-.188-5.845 2.234-9.638 4.269-11.757a15.103 15.103 0 0110.84-4.617zm-45.823-3.483c2.837-3.941 7.387-6.304 12.192-6.304.695 0 1.391.054 2.087.149 5.179.715 9.556 4.036 11.684 8.882 1.94 4.36 1.686 9.246-.629 13.633-.522.823-1.205 1.916-2.035 3.212a3739.807 3739.807 0 00-15.055 22.731c0 .014 0 .04-.027.054-.281.378-.522.756-.776 1.134-3.44-10.934-5.38-16.86-9.395-29.13-1.686-5.169-1.004-10.271 1.94-14.348m-36.401 3.037c2.087-4.859 6.423-8.22 11.589-9.003a15.426 15.426 0 012.235-.162c4.765 0 9.328 2.335 12.152 6.237 2.944 4.035 3.654 9.11 2.034 14.253a4295.749 4295.749 0 00-9.087 29.25c-5.634-8.422-9.047-13.403-14.788-21.826-1.405-2.119-2.556-3.833-3.279-4.926-2.462-4.414-2.797-9.382-.87-13.823M75.6 28.198c.643-5.251 3.855-9.72 8.606-11.933a14.872 14.872 0 016.316-1.404c4.029 0 7.977 1.66 10.774 4.563 2.061 2.105 4.47 5.844 4.349 11.662-.281 13.134-.361 18.763-.535 30.654-8.78-7.316-13.57-11.23-23.554-19.383-4.443-3.645-6.625-8.814-5.969-14.16m-24.156 9.57a14.943 14.943 0 019.917-3.765c7.052 0 12.86 4.67 14.801 11.892a3855.609 3855.609 0 008.057 29.56c-10.466-4.521-16.18-6.924-28.01-11.905-5.287-2.24-8.834-6.56-9.69-11.878-.856-5.224.99-10.42 4.925-13.903zM25.95 67.802c2.783-4.414 7.534-7.06 12.74-7.06s10.225 2.862 13.236 7.83c6.825 11.19 9.783 15.981 16.006 26.064-11.322-1.377-17.451-2.052-30.205-3.455-5.701-.635-10.292-3.78-12.62-8.64-2.275-4.778-1.968-10.271.843-14.74zM9.904 103.827c1.847-6.479 7.788-11 14.467-11 3.854 0 7.561 1.498 10.68 4.346a3521.472 3521.472 0 0022.643 20.449c-11.255 1.917-17.33 3.01-29.95 5.278a18.604 18.604 0 01-3.186.284c-4.885 0-9.341-2.201-12.192-6.021-2.89-3.86-3.774-8.719-2.476-13.336m-5.3 39.064c-.013-4.063 1.54-7.91 4.377-10.799 2.85-2.888 6.624-4.467 10.626-4.467 2.436 0 4.871.593 7.267 1.754 11.697 5.683 16.769 8.099 27.355 13.161-.375.162-.75.351-1.138.54-1.311.675-2.743 1.404-4.242 2.173-7.133 3.51-12.513 6.223-21.801 10.88-2.45 1.228-4.938 1.849-7.441 1.849-8.23 0-14.962-6.763-15.016-15.078m5.862 39.104c-1.365-4.576-.482-9.61 2.355-13.457 2.864-3.888 7.334-6.115 12.273-6.115.963 0 1.967.081 2.957.243 12.861 2.133 18.375 3.01 30.018 4.846-8.431 7.748-12.955 11.973-22.35 20.787a18.393 18.393 0 01-3.506 2.565c-.71.283-1.405.607-2.074.958a14.658 14.658 0 01-5.26.985c-6.584 0-12.5-4.441-14.413-10.798m16.354 35.513c-2.85-4.427-3.225-9.934-1.004-14.726 1.365-2.943 3.547-5.251 6.317-6.803.682-.27 1.365-.594 2.034-.958 1.298-.5 2.703-.851 4.162-1.026 12.942-1.593 18.469-2.308 30.165-3.82-5.942 9.813-9.113 15.158-15.698 26.254-3.011 5.075-7.856 7.977-13.33 7.977a14.999 14.999 0 01-12.646-6.898zm25.695 29.602c-3.961-3.442-5.862-8.612-5.072-13.849.816-5.319 4.296-9.706 9.582-11.973 11.965-5.183 17.077-7.451 27.877-12.216-2.971 11.095-4.523 17.116-7.749 29.655-1.887 7.33-7.708 12.054-14.842 12.054a15.047 15.047 0 01-9.796-3.658m39.118 22.502a14.82 14.82 0 01-6.169-1.35c-4.764-2.173-8.03-6.601-8.726-11.852-.722-5.345 1.419-10.515 5.835-14.213a3202.415 3202.415 0 0023.34-19.626c.254 11.5.442 17.723.843 30.654.188 5.858-2.235 9.637-4.269 11.77a15.104 15.104 0 01-10.84 4.617m45.823 3.482c-2.837 3.941-7.387 6.304-12.192 6.304-.696 0-1.392-.054-2.087-.149-5.18-.729-9.556-4.036-11.684-8.882-2.181-4.926-1.592-10.488 1.62-15.293 6.972-10.434 10.09-15.172 16.072-24.243.121-.175.255-.364.389-.539l.441-.648c3.453 10.906 5.38 16.832 9.395 29.102 1.686 5.156 1.004 10.245-1.941 14.348m36.402-3.051c-2.088 4.846-6.424 8.221-11.59 9.004-.736.108-1.485.162-2.234.162-4.765 0-9.328-2.336-12.152-6.236-2.931-4.036-3.654-9.112-2.034-14.254a4083.739 4083.739 0 009.087-29.264c6.383 9.543 9.89 14.659 17.157 25.309 3.252 4.751 3.894 10.339 1.766 15.279zm34.568-14.281c-.642 5.251-3.854 9.719-8.605 11.919a14.686 14.686 0 01-6.317 1.418 15.118 15.118 0 01-10.773-4.563c-2.061-2.119-4.47-5.844-4.349-11.662.281-13.134.361-18.762.535-30.654 8.792 7.316 13.584 11.23 23.554 19.383 4.443 3.631 6.624 8.801 5.969 14.159m24.142-9.597a14.94 14.94 0 01-9.916 3.766c-7.053 0-12.861-4.67-14.802-11.905a4244.861 4244.861 0 00-8.056-29.547c10.465 4.521 16.18 6.924 28.01 11.905 5.286 2.227 8.833 6.56 9.689 11.878.857 5.224-.99 10.407-4.925 13.89m25.495-29.993c-2.784 4.414-7.535 7.046-12.741 7.046-5.206 0-10.224-2.848-13.235-7.815a3890.196 3890.196 0 00-16.006-26.065c11.295 1.363 17.424 2.052 30.151 3.442h.054c5.701.648 10.291 3.779 12.62 8.652 2.275 4.765 1.967 10.272-.843 14.74zm16.033-36.04c-1.847 6.479-7.789 11.001-14.467 11.001-3.333 0-6.531-1.12-9.368-3.266a366.364 366.364 0 01-2.423-2.093 3034.361 3034.361 0 00-19.619-17.723c-.401-.405-.816-.796-1.191-1.174l-.616-.58c11.148-1.89 17.224-2.997 29.791-5.238h.04a17.424 17.424 0 013.185-.297c4.885 0 9.341 2.201 12.192 6.02 2.891 3.847 3.774 8.72 2.476 13.337"/></g></svg>