<svg width="39" height="34" fill="none" xmlns="http://www.w3.org/2000/svg"><g opacity=".2" fill="#82C83C"><path d="M10.316 17C10.316 11.303 5.698 6.685 0 6.685S-10.315 11.303-10.315 17c0 5.698 4.617 10.315 10.315 10.315V28.7l-.302-.004c-6.223-.158-11.236-5.172-11.394-11.394L-11.7 17c0-6.462 5.238-11.7 11.7-11.7l.302.004C6.625 5.464 11.7 10.639 11.7 17l-.004.302C11.536 23.625 6.362 28.7 0 28.7v-1.385c5.698 0 10.316-4.617 10.316-10.315z"/><path d="M35.43 21.9a5.368 5.368 0 002-1.285A5.426 5.426 0 0039 16.747a5.435 5.435 0 00-3.676-5.116 5.426 5.426 0 001.177-1.168 5.52 5.52 0 00.841-4.816c-.654-2.176-2.62-3.722-4.844-3.855a5.74 5.74 0 00.566-.953 5.444 5.444 0 00-.36-5.271 5.376 5.376 0 00-5.775-2.325 5.49 5.49 0 00.298-1.123 5.433 5.433 0 00-1.816-4.953 5.35 5.35 0 00-6.2-.578c.033-.39.025-.786-.026-1.183a5.41 5.41 0 00-3.124-4.241 5.253 5.253 0 00-2.213-.482 5.427 5.427 0 00-3.882 1.653c-.018.023-.04.045-.058.067a5.467 5.467 0 00-.368-1.179A5.383 5.383 0 004.607-22a5.404 5.404 0 00-4.793 2.958 5.4 5.4 0 00-4.767-2.91 5.387 5.387 0 00-4.951 3.277 5.503 5.503 0 00-.356 1.164 5.41 5.41 0 00-3.889-1.668c-.787 0-1.548.17-2.264.508a5.405 5.405 0 00-3.08 4.27 5.45 5.45 0 00-.015 1.176 5.344 5.344 0 00-2.654-.69c-1.305 0-2.57.479-3.55 1.346a5.428 5.428 0 00-1.765 4.972c.066.407.177.797.327 1.164a5.361 5.361 0 00-5.793 2.384 5.45 5.45 0 00-.3 5.271c.175.37.389.712.635 1.02a5.416 5.416 0 00-4.885 3.93 5.427 5.427 0 00.882 4.774 5.45 5.45 0 001.18 1.153 5.323 5.323 0 00-2 1.287A5.425 5.425 0 00-39 17.252a5.438 5.438 0 003.676 5.116 5.426 5.426 0 00-1.177 1.168 5.512 5.512 0 00-.841 4.812c.654 2.176 2.62 3.726 4.844 3.859a5.454 5.454 0 00-.566.953 5.437 5.437 0 00.36 5.268 5.37 5.37 0 005.775 2.328 5.44 5.44 0 001.518 6.076 5.35 5.35 0 006.2.578c-.033.39-.025.786.026 1.183a5.416 5.416 0 003.124 4.241 5.311 5.311 0 002.213.482 5.426 5.426 0 003.882-1.654c.018-.022.04-.044.058-.066.078.4.199.797.368 1.179A5.383 5.383 0 00-4.607 56a5.398 5.398 0 004.793-2.962c.12.234.257.463.415.678a5.396 5.396 0 005.153 2.173 5.366 5.366 0 004.15-3.218c.165-.382.283-.771.356-1.164a5.41 5.41 0 003.889 1.668c.787 0 1.548-.17 2.264-.504a5.412 5.412 0 003.08-4.27c.048-.401.052-.794.015-1.176.787.445 1.684.69 2.654.69 1.305 0 2.57-.479 3.55-1.346a5.431 5.431 0 001.765-4.972 5.32 5.32 0 00-.327-1.167 5.36 5.36 0 005.793-2.38 5.44 5.44 0 00.3-5.272 5.215 5.215 0 00-.635-1.02 5.425 5.425 0 004.885-3.933 5.422 5.422 0 00-.882-4.771 5.369 5.369 0 00-1.18-1.153zM4.27-6.236c.102-.152.198-.3.293-.445 1.199-1.66 2.82-4.174 3.889-5.854.051 1.928.132 4.798.206 6.822l.01.445c-.01 1.093-.323 2.016-.9 2.62a2.226 2.226 0 01-1.624.716c-.224 0-.452-.033-.673-.104a2.481 2.481 0 01-1.64-1.575c-.26-.79-.11-1.694.424-2.603l.014-.022zM27.237 4.395a770.187 770.187 0 00-3.83 3.567c-.415.382-.856.786-1.342 1.23-.735.59-1.503.901-2.245.901-.938 0-1.724-.507-2.095-1.349a2.512 2.512 0 01.102-2.284c.486-.83 1.452-1.342 2.728-1.453 2.029-.174 5.002-.593 6.972-.882-.099.089-.194.181-.29.27zm-28.986 33.08a2.206 2.206 0 011.82-.934h.03a2.46 2.46 0 012.01 1.045c.547.79.606 1.89.172 3.103-.687 1.932-1.55 4.834-2.113 6.762-.607-1.887-1.518-4.727-2.158-6.658-.437-1.312-.353-2.495.24-3.318zm6.546 3.107c-.79-1.146-1.032-2.306-.694-3.266a2.23 2.23 0 011.507-1.41c.231-.066.47-.1.706-.1.68 0 1.304.271 1.76.76.588.627.86 1.561.79 2.707-.12 2.054-.143 5.083-.143 7.092a819.348 819.348 0 00-3.926-5.78m14.578-9.701c.996 1.79 2.61 4.352 3.686 6.039a890.32 890.32 0 00-6.406-2.714c-1.275-.534-2.11-1.372-2.338-2.369-.165-.72.022-1.45.511-2.01.485-.548 1.158-.863 1.853-.863 1.047 0 2.003.682 2.694 1.913m-4.749 4.804c.456 2.002 1.28 4.916 1.838 6.844a903.994 903.994 0 00-5.378-4.434c-1.073-.879-1.635-1.92-1.573-2.94a2.244 2.244 0 011.055-1.78 2.521 2.521 0 011.342-.396c1.316 0 2.334 1.008 2.716 2.706zm2.172-7.974h-.114c-1.05 0-2.073.471-2.79 1.287a3.51 3.51 0 00-.837 2.906 3.602 3.602 0 00-1.143-.189c-.706 0-1.397.204-2.011.59A3.505 3.505 0 008.26 35.08v.011a3.623 3.623 0 00-1.94-.552c-.35 0-.703.048-1.041.145a3.462 3.462 0 00-2.268 1.99A3.749 3.749 0 00.12 35.27H.075c-1.102 0-2.11.504-2.778 1.383a3.775 3.775 0 00-2.28-1.961 3.421 3.421 0 00-3.014.46 3.795 3.795 0 00-1.657-2.747 3.444 3.444 0 00-1.944-.605c-.42 0-.824.078-1.202.219a3.81 3.81 0 00-.871-2.984 3.475 3.475 0 00-2.64-1.246 3.804 3.804 0 000-3.047 3.481 3.481 0 00-2.646-2.076c.68-.808.985-1.887.838-2.966a3.483 3.483 0 00-1.61-2.51c.938-.556 1.603-1.516 1.78-2.703a3.486 3.486 0 00-.953-2.988 3.734 3.734 0 002.283-2.016 3.51 3.51 0 00-.07-3.163c.044.004.092.008.136.008 1.066 0 2.095-.482 2.816-1.316a3.505 3.505 0 00.812-2.907c.342.097.68.145 1 .145.705 0 1.396-.204 2.006-.59a3.497 3.497 0 001.64-2.698 3.658 3.658 0 001.996.582 3.74 3.74 0 001.01-.137 3.47 3.47 0 002.36-2.158 3.743 3.743 0 002.8 1.305h.049a3.46 3.46 0 002.83-1.45A3.763 3.763 0 005.107-.828a3.423 3.423 0 003.043-.49A3.791 3.791 0 009.82 1.42a3.452 3.452 0 003.186.355 3.807 3.807 0 00.857 3.04A3.47 3.47 0 0016.52 6.06c.033 0 .066-.004.1-.004a3.792 3.792 0 00-.041 3.196 3.479 3.479 0 002.485 2.024c-.004 0-.012.011-.019.019-.702.812-1.01 1.901-.864 2.999a3.497 3.497 0 001.65 2.535c-.918.556-1.572 1.506-1.745 2.673A3.471 3.471 0 0019 22.457c-.996.297-1.834 1.016-2.308 2.024a3.508 3.508 0 00.106 3.225m-28.401 5.361c.441 0 .871.137 1.246.39a2.519 2.519 0 011.117 1.986c.026.96-.522 1.92-1.54 2.7-1.62 1.237-3.922 3.191-5.432 4.5a766.716 766.716 0 001.797-6.766c.54-2.065 1.805-2.803 2.808-2.803m-2.488-.997c-.235.93-1.018 1.698-2.213 2.169-1.896.745-4.635 1.99-6.45 2.832a802.92 802.92 0 003.569-6.013c.746-1.275 1.786-2.01 2.852-2.01.661 0 1.264.286 1.698.805.53.627.731 1.454.54 2.221m-3.492-4.556c-.492.823-1.462 1.33-2.742 1.427-2.028.16-5.01.549-6.983.827a786.856 786.856 0 005.142-4.712c.842-.779 1.738-1.186 2.599-1.186.952 0 1.738.511 2.11 1.368.323.752.279 1.605-.126 2.28m-4.083-11.089c-.6 0-1.232-.178-1.893-.526-1.805-.953-4.54-2.213-6.359-3.036 1.94-.345 4.852-.872 6.833-1.242 1.445-.275 2.698.048 3.389.86.426.5.61 1.141.51 1.809-.16 1.064-.984 2.139-2.484 2.139m3.922-7.5c-.419.89-1.264 1.446-2.213 1.446-.82 0-1.665-.404-2.44-1.171-1.46-1.435-3.716-3.437-5.22-4.753 1.956.233 4.893.578 6.9.797 1.374.148 2.407.723 2.9 1.613.36.645.386 1.397.07 2.072m-1.482-5.776c-1.014-1.78-2.65-4.326-3.745-6.006 1.82.76 4.557 1.895 6.432 2.655 1.283.522 2.12 1.353 2.36 2.346a2.252 2.252 0 01-.493 2.017c-.485.56-1.161.879-1.867.879-1.037 0-1.992-.671-2.687-1.887m4.598-4.905c-.452-2.002-1.268-4.92-1.826-6.847 1.518 1.264 3.804 3.162 5.37 4.445 1.077.878 1.635 1.924 1.569 2.94a2.239 2.239 0 01-1.055 1.78 2.545 2.545 0 01-1.341.392c-1.316 0-2.334-1.008-2.717-2.71zm5.815-3.474c.136-2.053.184-5.082.199-7.091a700.21 700.21 0 003.881 5.809c.78 1.153 1.014 2.317.669 3.273A2.23 2.23 0 01-5.6-1.814a2.532 2.532 0 01-.683.093 2.366 2.366 0 01-1.768-.768c-.588-.63-.857-1.568-.776-2.717M1.998-6.963c.433 1.312.349 2.494-.243 3.317a2.216 2.216 0 01-1.82.935h-.032a2.484 2.484 0 01-2.011-1.05c-.54-.793-.603-1.894-.165-3.106.69-1.932 1.562-4.83 2.124-6.758.603 1.89 1.51 4.73 2.147 6.662zM18.902 3.48c-.684.845-1.522 1.316-2.382 1.316a2.19 2.19 0 01-1.698-.805c-.53-.626-.732-1.453-.54-2.217C14.516.84 15.3.073 16.494-.398c1.886-.738 4.598-1.972 6.41-2.81a673.458 673.458 0 01-4.002 6.684m.93 18.028a2.242 2.242 0 01-.508-1.809c.162-1.064.99-2.139 2.481-2.139.6 0 1.24.182 1.9.534 1.802.953 4.537 2.224 6.352 3.047-1.94.345-4.852.864-6.836 1.231-1.445.267-2.698-.056-3.386-.867m3.341-5.617a3.954 3.954 0 01-1.297.234c-1.305 0-2.294-.805-2.455-1.995a2.517 2.517 0 01.566-1.994c.51-.593 1.275-.901 2.212-.901.31 0 .633.033.97.1 2 .404 4.974.838 6.948 1.105l-2.735 1.371a557.915 557.915 0 01-4.209 2.08zM10.622-4.083l.194-.163c.034-.026.063-.052.092-.074 1.621-1.246 3.911-3.21 5.418-4.527a773.09 773.09 0 00-1.771 6.773C14.024.002 12.755.744 11.744.744A2.2 2.2 0 0110.51.358a2.491 2.491 0 01-1.128-1.98c-.026-.86.404-1.716 1.224-2.45l.015-.015v.004zm-33.919 22.255a4.112 4.112 0 011.478-.297c1.301 0 2.29.8 2.455 1.994.1.734-.107 1.461-.57 1.995-.51.59-1.271.9-2.212.9a4.68 4.68 0 01-.963-.103c-2-.4-4.973-.834-6.947-1.101 1.404-.708 3.374-1.694 5.024-2.54.533-.263 1.1-.54 1.735-.852m19.021 22.08c-.095.152-.19.297-.286.441-1.191 1.654-2.768 4.07-3.808 5.698a963.708 963.708 0 00-.188-7.003c-.04-1.205.28-2.228.905-2.877a2.221 2.221 0 012.3-.608c.78.245 1.386.838 1.632 1.583.247.753.118 1.61-.356 2.47l-.199.296zm31.975-10.743c-1.956-.23-4.893-.579-6.9-.798-1.374-.148-2.407-.723-2.9-1.612a2.255 2.255 0 01-.066-2.073c.42-.893 1.265-1.445 2.21-1.445.617 0 1.241.226 1.844.663l.331.297c.22.196.427.382.625.563 1.448 1.398 3.473 3.196 4.86 4.408m10.04-12.753a4.19 4.19 0 01-1.201 2.966 4.073 4.073 0 01-2.918 1.227c-.53 0-1.055-.104-1.577-.3-.166-.078-.383-.174-.636-.29a1268.83 1268.83 0 00-7.274-3.495c.114-.052.228-.108.342-.163.992-.512 2.25-1.146 3.47-1.765 1.05-.526 2.168-1.082 3.63-1.82.674-.334 1.357-.504 2.045-.504 2.26 0 4.109 1.857 4.124 4.14m-1.61-10.74a4.216 4.216 0 01-.647 3.697c-.787 1.064-2.015 1.68-3.37 1.68-.185 0-.372-.016-.56-.034l-.161-.022a.397.397 0 01-.092-.015 977.35 977.35 0 00-8.23-1.327c.07-.06.14-.123.21-.186.294-.281.62-.585.96-.904a725.69 725.69 0 003.84-3.574c.559-.52 1.033-.957 1.356-1.257.232-.189.47-.356.72-.493.196-.081.387-.167.57-.267a4.089 4.089 0 011.445-.267c1.808 0 3.433 1.22 3.959 2.966M31.65-3.746A4.184 4.184 0 0131.924.3a4.068 4.068 0 01-1.735 1.865 6.398 6.398 0 00-.558.263 4.46 4.46 0 01-.632.193c-.228.037-.548.085-.938.144-3.234.397-4.763.597-7.807.99a4.65 4.65 0 00.199-.319 965.629 965.629 0 014.37-7.351c.83-1.101 2.025-1.724 3.349-1.724 1.407 0 2.709.712 3.473 1.898m-7.053-8.137a4.176 4.176 0 011.393 3.8c-.195 1.264-.938 2.331-2.062 2.999-.287.137-.732.345-1.272.597a1110.96 1110.96 0 00-6.95 3.047 700.32 700.32 0 002.127-8.145c.519-2.01 2.118-3.307 4.077-3.307.985 0 1.94.356 2.69 1.005m-10.75-6.176a4.07 4.07 0 011.694.37 4.15 4.15 0 012.396 3.252c.199 1.468-.39 2.891-1.602 3.903-2.728 2.277-3.904 3.27-6.334 5.324l-.077.067v-.126c0-.1 0-.204-.003-.308 0-.056 0-.111-.008-.167-.062-2.788-.114-4.5-.217-7.818-.051-1.606.614-2.647 1.173-3.23a4.149 4.149 0 012.977-1.267zm-12.586-.957a4.142 4.142 0 013.348-1.731 4.105 4.105 0 013.782 2.48c.534 1.198.464 2.54-.172 3.744-.144.227-.331.527-.559.883-1.72 2.58-2.576 3.874-4.135 6.243 0 .003 0 .01-.007.015-.077.103-.144.207-.213.311-.945-3.003-1.478-4.63-2.58-8-.464-1.42-.276-2.821.532-3.941m-9.997.834a4.123 4.123 0 013.796-2.517c1.309 0 2.562.641 3.338 1.713.809 1.108 1.003 2.502.559 3.914-1.081 3.44-1.537 4.916-2.496 8.034-1.548-2.313-2.485-3.681-4.062-5.994-.386-.583-.702-1.053-.9-1.354-.676-1.212-.768-2.576-.24-3.796m-9.49 3.922a4.142 4.142 0 012.364-3.277 4.085 4.085 0 011.735-.385 4.14 4.14 0 012.959 1.253c.566.578 1.227 1.605 1.194 3.203-.077 3.607-.099 5.153-.147 8.419a713.602 713.602 0 00-6.469-5.324c-1.22-1-1.82-2.42-1.64-3.889m-6.634 2.629a4.104 4.104 0 012.724-1.034c1.937 0 3.532 1.282 4.065 3.266.938 3.484 1.345 4.975 2.213 8.118-2.874-1.242-4.444-1.901-7.693-3.27-1.452-.615-2.426-1.801-2.661-3.262a4.17 4.17 0 011.352-3.818zm-6.998 8.248a4.117 4.117 0 013.5-1.938c1.429 0 2.807.785 3.634 2.15 1.875 3.073 2.687 4.39 4.396 7.158-3.11-.378-4.793-.563-8.295-.949-1.566-.174-2.827-1.038-3.466-2.372a4.179 4.179 0 01.231-4.049zm-4.407 9.895c.507-1.78 2.14-3.021 3.973-3.021 1.059 0 2.077.411 2.934 1.193a978 978 0 006.219 5.617c-3.092.526-4.76.827-8.226 1.45a5.11 5.11 0 01-.875.077c-1.342 0-2.566-.604-3.349-1.653a4.177 4.177 0 01-.68-3.663m-1.455 10.729a4.19 4.19 0 011.202-2.966 4.073 4.073 0 012.918-1.227c.67 0 1.338.163 1.996.482 3.213 1.56 4.606 2.224 7.513 3.614-.103.045-.206.097-.313.149l-1.165.596c-1.959.964-3.436 1.71-5.987 2.988-.673.338-1.357.508-2.044.508-2.26 0-4.11-1.857-4.124-4.14m1.61 10.74a4.226 4.226 0 01.647-3.697c.786-1.068 2.014-1.68 3.37-1.68.265 0 .54.023.813.068 3.532.585 5.046.826 8.244 1.33a684.092 684.092 0 00-6.138 5.71 5.052 5.052 0 01-.963.704 6.098 6.098 0 00-.57.263c-.463.178-.952.27-1.444.27-1.809 0-3.433-1.219-3.959-2.965m4.492 9.754a4.184 4.184 0 01-.276-4.045 4.096 4.096 0 011.735-1.868 5.07 5.07 0 00.558-.264 4.783 4.783 0 011.144-.281c3.554-.438 5.072-.634 8.284-1.05a802.108 802.108 0 00-4.311 7.211c-.827 1.394-2.158 2.191-3.66 2.191a4.12 4.12 0 01-3.474-1.894zm7.057 8.13a4.183 4.183 0 01-1.393-3.804c.224-1.46 1.18-2.666 2.631-3.288 3.286-1.424 4.69-2.047 7.657-3.355a701.88 701.88 0 00-2.128 8.144c-.519 2.013-2.118 3.31-4.077 3.31-.985 0-1.94-.359-2.69-1.004m10.743 6.18a4.07 4.07 0 01-1.694-.37 4.15 4.15 0 01-2.396-3.255c-.199-1.468.39-2.888 1.602-3.904a878.018 878.018 0 006.41-5.39c.07 3.158.122 4.867.232 8.419.051 1.609-.614 2.647-1.173 3.232a4.148 4.148 0 01-2.977 1.268m12.585.957a4.142 4.142 0 01-3.348 1.73 4.112 4.112 0 01-3.782-2.48c-.6-1.353-.438-2.88.445-4.2 1.915-2.866 2.771-4.167 4.414-6.659.033-.048.07-.1.107-.148l.12-.178a736.417 736.417 0 002.581 7.993c.463 1.416.276 2.814-.533 3.94m9.998-.837a4.131 4.131 0 01-3.797 2.517 4.145 4.145 0 01-3.338-1.713C.81 51.874.612 50.48 1.057 49.068c1.08-3.44 1.536-4.916 2.495-8.038 1.754 2.621 2.717 4.026 4.713 6.951.893 1.305 1.07 2.84.485 4.197zm9.494-3.922a4.13 4.13 0 01-2.364 3.273c-.55.26-1.132.39-1.735.39-1.106 0-2.19-.46-2.958-1.254-.566-.582-1.228-1.605-1.195-3.203.077-3.607.1-5.153.147-8.419 2.415 2.01 3.73 3.085 6.47 5.324 1.22.997 1.819 2.417 1.638 3.889m6.631-2.636a4.104 4.104 0 01-2.723 1.034c-1.937 0-3.533-1.283-4.066-3.27a1152.42 1152.42 0 00-2.212-8.115c2.874 1.242 4.443 1.902 7.693 3.27 1.452.612 2.426 1.802 2.66 3.262a4.163 4.163 0 01-1.352 3.815m7.002-8.237a4.113 4.113 0 01-3.499 1.935c-1.43 0-2.808-.782-3.635-2.147a1067.77 1067.77 0 00-4.396-7.158c3.102.374 4.786.563 8.281.945h.015c1.566.178 2.826 1.038 3.466 2.376a4.18 4.18 0 01-.232 4.049zm4.404-9.899c-.508 1.78-2.14 3.022-3.974 3.022-.915 0-1.793-.308-2.573-.897-.169-.145-.396-.341-.665-.575a834.554 834.554 0 00-5.388-4.868c-.11-.11-.225-.218-.327-.322l-.17-.16c3.062-.519 4.731-.823 8.182-1.438h.011c.298-.056.592-.082.875-.082 1.342 0 2.566.605 3.349 1.654a4.174 4.174 0 01.68 3.663"/></g></svg>