<svg width="280" height="280" fill="none" xmlns="http://www.w3.org/2000/svg"><g opacity=".2" fill="#fff"><path d="M354.06 280.001c0-40.906-33.152-74.058-74.059-74.058s-74.059 33.152-74.059 74.058c.001 40.906 33.152 74.056 74.059 74.056V364l-2.17-.029c-44.674-1.132-80.671-37.129-81.803-81.802l-.028-2.168C196 233.604 233.604 196 280.001 196l2.168.029c45.395 1.149 81.831 38.3 81.831 83.972l-.026 2.168C362.824 327.563 325.673 364 280.001 364v-9.943c40.907 0 74.059-33.15 74.059-74.056z"/><path d="M534.376 315.186c5.357-1.943 10.239-5.057 14.355-9.235 7.337-7.426 11.321-17.301 11.268-27.761-.105-17.087-11.162-31.593-26.388-36.73a38.955 38.955 0 008.444-8.384c7.283-9.901 9.526-22.81 6.043-34.574-4.697-15.624-18.815-26.723-34.78-27.681a41.197 41.197 0 004.063-6.84c5.727-12.323 4.75-26.483-2.586-37.848-7.151-11.099-19.343-17.753-32.511-17.753a38.13 38.13 0 00-8.946 1.065c.977-2.582 1.716-5.27 2.138-8.065 2.032-13.44-2.824-26.722-13.036-35.559a38.415 38.415 0 00-25.175-9.395c-6.993 0-13.617 1.863-19.343 5.243a39.869 39.869 0 00-.185-8.49c-1.795-13.495-10.186-24.86-22.431-30.449-5.04-2.316-10.371-3.46-15.886-3.46-10.45 0-20.583 4.338-27.866 11.87-.132.16-.291.32-.423.48a39.245 39.245 0 00-2.639-8.464c-5.515-12.403-16.757-20.92-30.057-22.783C316.667.106 314.847 0 313.078 0c-12.35 0-24.066 6.068-31.35 16.183-1.161 1.623-2.163 3.326-3.061 5.056a36.569 36.569 0 00-2.982-4.844C268.428 6.361 256.712.346 244.441.346c-1.9 0-3.853.16-5.753.426-13.273 2.023-24.41 10.646-29.793 23.103a39.558 39.558 0 00-2.56 8.357c-.052-.08-.132-.16-.211-.24-7.23-7.452-17.337-11.737-27.708-11.737-5.647 0-11.11 1.224-16.256 3.646-12.191 5.696-20.451 17.167-22.114 30.662a39.277 39.277 0 00-.105 8.437c-5.647-3.194-12.086-4.95-19.053-4.95a38.515 38.515 0 00-25.492 9.661C85.29 76.627 80.54 89.989 82.73 103.403a37.97 37.97 0 002.348 8.357c-2.876-.665-5.832-1.038-8.84-1.038-13.38 0-25.597 6.787-32.749 18.153-7.204 11.444-7.995 25.604-2.163 37.847a37.422 37.422 0 004.565 7.32c-16.308.905-30.558 12.243-35.071 28.213-3.378 11.897-1.082 24.38 6.333 34.281a39.14 39.14 0 008.471 8.278c-5.357 1.916-10.239 5.057-14.355 9.235C3.932 261.475-.052 271.35 0 281.81c.105 17.061 11.162 31.593 26.388 36.73a38.944 38.944 0 00-8.444 8.384c-7.283 9.874-9.526 22.81-6.043 34.547 4.697 15.624 18.815 26.75 34.78 27.708a39.152 39.152 0 00-4.063 6.84c-5.727 12.323-4.75 26.456 2.586 37.821 7.151 11.126 19.343 17.78 32.51 17.78 3.088 0 6.07-.373 8.947-1.065-.977 2.582-1.716 5.27-2.138 8.038-2.032 13.441 2.824 26.749 13.036 35.586a38.416 38.416 0 0025.175 9.395c6.993 0 13.617-1.863 19.343-5.243a39.865 39.865 0 00.185 8.49c1.795 13.468 10.186 24.86 22.431 30.449 5.04 2.289 10.371 3.46 15.886 3.46 10.45 0 20.583-4.338 27.866-11.871.132-.159.291-.319.423-.479a39.232 39.232 0 002.639 8.464c5.515 12.403 16.757 20.92 30.057 22.783a40.18 40.18 0 005.357.373c12.35 0 24.066-6.068 31.35-16.209 1.161-1.597 2.163-3.3 3.061-5.057.87 1.677 1.847 3.327 2.982 4.871 7.257 10.034 18.973 16.022 31.244 16.022 1.9 0 3.853-.133 5.753-.425 13.273-1.997 24.436-10.62 29.793-23.103a39.091 39.091 0 002.56-8.358.9.9 0 00.211.24c7.23 7.452 17.337 11.738 27.708 11.738 5.647 0 11.11-1.225 16.256-3.62 12.191-5.723 20.451-17.167 22.114-30.662.343-2.874.369-5.696.105-8.437 5.647 3.194 12.086 4.951 19.053 4.951a38.518 38.518 0 0025.492-9.662c10.107-8.943 14.857-22.278 12.666-35.692a38.202 38.202 0 00-2.348-8.384 37.732 37.732 0 008.84 1.065c13.379 0 25.597-6.788 32.749-18.153 7.23-11.444 7.995-25.604 2.163-37.847a37.387 37.387 0 00-4.565-7.32c16.309-.931 30.559-12.27 35.071-28.239 3.378-11.871 1.082-24.354-6.333-34.255a38.545 38.545 0 00-8.471-8.278zM310.651 113.171c.739-1.091 1.425-2.156 2.111-3.194 8.603-11.924 20.24-29.97 27.919-42.026.37 13.84.95 34.441 1.478 48.973l.079 3.194c-.079 7.852-2.322 14.479-6.465 18.817-3.167 3.327-7.283 5.137-11.664 5.137-1.61 0-3.246-.239-4.829-.745-5.621-1.73-10.001-5.962-11.77-11.312-1.873-5.669-.791-12.163 3.035-18.684l.106-.16zm164.904 76.335c-8.075 7.479-18.604 17.247-27.497 25.604-2.982 2.742-6.149 5.643-9.632 8.837-5.278 4.232-10.793 6.467-16.124 6.467-6.729 0-12.376-3.646-15.041-9.688-2.402-5.403-2.112-11.524.738-16.395 3.484-5.962 10.424-9.635 19.581-10.434 14.567-1.251 35.915-4.258 50.06-6.334-.713.639-1.399 1.304-2.085 1.943zM267.452 427c3.061-4.285 7.811-6.707 13.063-6.707h.211c5.858.053 11.241 2.874 14.434 7.505 3.932 5.67 4.355 13.575 1.241 22.278-4.935 13.867-11.136 34.707-15.174 48.548-4.354-13.548-10.899-33.936-15.49-47.803-3.14-9.422-2.534-17.912 1.715-23.821zm46.999 22.304c-5.674-8.224-7.416-16.555-4.988-23.449 1.795-5.003 5.753-8.676 10.82-10.114a18.344 18.344 0 015.066-.718c4.882 0 9.368 1.943 12.641 5.456 4.222 4.498 6.175 11.205 5.673 19.43-.871 14.745-1.029 36.49-1.029 50.916-7.943-11.791-19.924-29.49-28.183-41.494m104.658-69.654c7.151 12.855 18.736 31.247 26.468 43.357-13.01-5.563-32.59-13.893-45.996-19.483-9.157-3.832-15.147-9.848-16.783-17.007-1.187-5.164.158-10.407 3.668-14.426 3.483-3.939 8.313-6.202 13.3-6.202 7.521 0 14.382 4.898 19.343 13.734m-34.094 34.495c3.272 14.372 9.183 35.292 13.194 49.133-10.899-9.05-27.312-22.624-38.607-31.833-7.705-6.308-11.743-13.787-11.294-21.107.316-5.296 3.087-9.927 7.573-12.775 2.956-1.863 6.281-2.848 9.632-2.848 9.447 0 16.757 7.239 19.502 19.43zm15.596-57.251h-.819c-7.547 0-14.883 3.38-20.029 9.235-5.119 5.829-7.23 13.335-6.016 20.867a25.866 25.866 0 00-8.207-1.357c-5.067 0-10.028 1.464-14.435 4.232-6.967 4.418-11.295 11.658-11.796 19.935v.08c-4.117-2.582-8.867-3.966-13.933-3.966a27.34 27.34 0 00-7.468 1.038c-7.416 2.103-13.3 7.266-16.282 14.293-4.961-6.255-12.588-9.981-20.768-10.088h-.317c-7.917 0-15.147 3.62-19.95 9.928-3.193-6.654-9.078-11.791-16.361-14.08a25.398 25.398 0 00-7.547-1.171c-5.067 0-9.923 1.571-14.092 4.472-.792-7.879-5.146-15.145-11.901-19.723-4.196-2.848-8.999-4.338-13.96-4.338a24.69 24.69 0 00-8.629 1.57c1.082-7.532-1.161-15.384-6.255-21.426-4.776-5.669-11.663-8.889-18.947-8.943 3.035-6.787 3.061-14.771 0-21.878-3.483-8.038-10.529-13.494-19-14.905 4.882-5.802 7.072-13.547 6.017-21.293-1.056-7.745-5.357-14.133-11.558-18.019 6.729-3.992 11.505-10.886 12.772-19.403 1.108-7.399-.924-14.612-5.753-20.254a15.643 15.643 0 00-1.082-1.198c7.072-2.183 13.036-7.293 16.388-14.479 3.457-7.346 3.245-15.597-.502-22.704.317.027.66.054.977.054 7.652 0 15.041-3.46 20.213-9.449 5.067-5.856 7.099-13.388 5.832-20.867 2.455.692 4.882 1.038 7.178 1.038 5.067 0 10.028-1.464 14.409-4.232 6.834-4.312 11.109-11.338 11.769-19.376 4.222 2.715 9.104 4.178 14.329 4.178 2.454 0 4.909-.319 7.257-.984 7.89-2.156 14.065-7.799 16.942-15.491 4.935 5.802 12.271 9.262 20.108 9.369h.343c8.128 0 15.543-3.806 20.32-10.407 3.114 7.053 9.209 12.51 16.809 14.852a24.785 24.785 0 007.442 1.144c5.225 0 10.16-1.623 14.408-4.658.818 7.852 5.225 15.118 11.981 19.643 4.169 2.795 8.946 4.259 13.854 4.259 3.14 0 6.175-.586 9.025-1.704-1.24 7.666 1.003 15.704 6.149 21.825 4.803 5.696 11.743 8.943 19.079 8.943.237 0 .475-.026.712-.026-3.456 7.053-3.588 15.517-.29 22.943 3.352 7.612 9.922 12.855 17.839 14.532-.026 0-.079.08-.132.133-5.04 5.829-7.257 13.654-6.201 21.532 1.082 7.852 5.489 14.32 11.848 18.206-6.597 3.992-11.294 10.806-12.534 19.19-1.135 7.426.897 14.665 5.726 20.281.264.32.554.639.844.932-7.151 2.129-13.168 7.292-16.572 14.532-3.509 7.479-3.246 15.943.766 23.156m-203.908 38.487c3.167 0 6.255.984 8.946 2.794 4.856 3.301 7.838 8.624 8.022 14.266.185 6.894-3.747 13.788-11.056 19.377-11.638 8.89-28.157 22.916-39.003 32.312 3.721-13.761 9.236-34.415 12.904-48.575 3.879-14.825 12.957-20.121 20.161-20.121m-17.865-7.16c-1.689 6.681-7.31 12.19-15.886 15.571-13.617 5.349-33.277 14.292-46.313 20.334 7.31-12.217 18.261-30.582 25.624-43.171 5.357-9.156 12.825-14.426 20.478-14.426 4.75 0 9.077 2.05 12.191 5.776 3.8 4.498 5.252 10.433 3.879 15.943m-25.069-32.711c-3.536 5.908-10.503 9.555-19.686 10.247-14.567 1.144-35.968 3.939-50.14 5.935 10.504-9.555 26.258-23.928 36.919-33.829 6.043-5.589 12.482-8.517 18.657-8.517 6.835 0 12.482 3.673 15.147 9.822 2.322 5.403 2.006 11.524-.897 16.368m-29.318-79.608c-4.302 0-8.84-1.278-13.59-3.779-12.957-6.841-32.59-15.89-45.653-21.799 13.933-2.475 34.833-6.255 49.057-8.916 10.371-1.97 19.369.346 24.33 6.175 3.061 3.593 4.381 8.197 3.668 12.988-1.161 7.639-7.072 15.358-17.839 15.358m28.157-53.845c-3.008 6.388-9.077 10.381-15.886 10.381-5.884 0-11.954-2.901-17.522-8.411-10.476-10.3-26.68-24.673-37.472-34.122 14.039 1.677 35.123 4.152 49.532 5.723 9.869 1.064 17.285 5.19 20.821 11.578 2.586 4.631 2.77 10.034.501 14.878m-10.635-41.468c-7.283-12.775-19.026-31.06-26.89-43.117 13.062 5.456 32.722 13.6 46.181 19.057 9.209 3.752 15.226 9.714 16.941 16.848 1.241 5.163-.053 10.433-3.536 14.479-3.483 4.019-8.339 6.308-13.405 6.308-7.442 0-14.303-4.818-19.291-13.548m33.013-35.213c-3.246-14.373-9.104-35.319-13.115-49.16 10.898 9.076 27.312 22.704 38.554 31.913 7.732 6.308 11.743 13.814 11.268 21.106-.317 5.297-3.088 9.955-7.574 12.776-2.955 1.837-6.28 2.821-9.632 2.821-9.447 0-16.757-7.239-19.501-19.456zm41.747-24.939c.976-14.745 1.319-36.49 1.425-50.916 7.838 11.844 19.686 29.65 27.867 41.707 5.594 8.277 7.283 16.635 4.803 23.502-1.821 4.977-5.806 8.623-10.925 10.034-1.61.452-3.273.665-4.909.665-4.908 0-9.421-1.943-12.693-5.509-4.222-4.525-6.149-11.259-5.568-19.51m77.715-12.616c3.114 9.422 2.507 17.913-1.741 23.822-3.061 4.258-7.811 6.707-13.063 6.707h-.237c-5.859-.08-11.242-2.928-14.435-7.532-3.879-5.696-4.328-13.601-1.188-22.305 4.962-13.867 11.216-34.68 15.253-48.52 4.328 13.574 10.846 33.961 15.411 47.828zm121.363 74.978c-4.908 6.068-10.925 9.448-17.1 9.448-4.75 0-9.051-2.049-12.192-5.775-3.8-4.499-5.251-10.434-3.879-15.917 1.689-6.707 7.31-12.217 15.886-15.597 13.538-5.296 33.013-14.159 46.022-20.175-11.03 18.632-17.231 28.985-28.737 47.989m6.676 129.433c-3.061-3.619-4.354-8.197-3.641-12.988 1.161-7.639 7.098-15.358 17.812-15.358 4.302 0 8.893 1.305 13.643 3.833 12.931 6.84 32.564 15.97 45.6 21.878-13.933 2.476-34.833 6.202-49.083 8.837-10.371 1.916-19.37-.399-24.304-6.228m23.987-40.323c-3.219 1.117-6.333 1.676-9.315 1.676-9.368 0-16.467-5.775-17.628-14.319-.739-5.27.765-10.487 4.064-14.319 3.668-4.259 9.157-6.468 15.886-6.468 2.217 0 4.539.239 6.967.719 14.355 2.901 35.704 6.015 49.875 7.931-5.674 2.848-12.561 6.308-19.633 9.848-9.369 4.684-18.103 8.996-30.216 14.932zm-90.144-143.354c.475-.399.95-.799 1.398-1.171.238-.186.449-.373.66-.532 11.638-8.943 28.078-23.05 38.897-32.499-3.668 13.761-9.104 34.468-12.719 48.628-3.8 14.905-12.904 20.228-20.161 20.228-3.114 0-6.202-.958-8.867-2.768-4.908-3.247-7.89-8.544-8.101-14.213-.185-6.175 2.902-12.323 8.787-17.593l.106-.107v.027zM112.734 288.411c3.668-1.411 7.204-2.13 10.608-2.13 9.342 0 16.441 5.749 17.628 14.32.713 5.27-.765 10.486-4.09 14.319-3.668 4.232-9.131 6.468-15.886 6.468-2.191 0-4.539-.24-6.914-.745-14.356-2.875-35.704-5.989-49.875-7.905 10.08-5.084 24.225-12.164 36.073-18.232 3.827-1.89 7.891-3.886 12.456-6.122m136.563 158.525a169.56 169.56 0 01-2.059 3.167c-8.55 11.871-19.871 29.224-27.339 40.909-.343-14.24-.871-35.666-1.346-50.278-.29-8.65 2.006-15.996 6.492-20.654 3.167-3.3 7.257-5.11 11.611-5.11 1.636 0 3.299.239 4.909.745 5.594 1.757 9.948 6.015 11.716 11.365 1.768 5.403.845 11.552-2.559 17.726l-1.425 2.13zm229.557-77.133c-14.039-1.651-35.124-4.152-49.532-5.723-9.87-1.064-17.285-5.19-20.821-11.578-2.56-4.631-2.745-10.034-.475-14.878 3.008-6.415 9.078-10.38 15.859-10.38 4.434 0 8.92 1.623 13.248 4.764l2.375 2.129a461.168 461.168 0 014.486 4.046c10.397 10.034 24.937 22.943 34.886 31.646m72.094-91.559c.027 8.012-3.034 15.597-8.629 21.293-5.621 5.696-13.062 8.81-20.952 8.81-3.8 0-7.574-.745-11.321-2.156-1.188-.559-2.745-1.251-4.566-2.076-21.929-10.62-31.93-15.411-52.223-25.099.818-.372 1.636-.772 2.454-1.171 7.125-3.673 16.15-8.224 24.911-12.669 7.547-3.78 15.57-7.772 26.072-13.069 4.829-2.395 9.738-3.619 14.673-3.619 16.229 0 29.502 13.334 29.608 29.73m-11.558-77.107c2.691 8.996.976 18.951-4.645 26.536-5.647 7.639-14.461 12.057-24.199 12.057-1.319 0-2.665-.106-4.011-.239-.369-.053-.765-.107-1.161-.16-.211 0-.448-.053-.659-.106-25.307-4.179-36.18-5.909-59.085-9.529a66.498 66.498 0 001.504-1.331c2.111-2.022 4.46-4.205 6.887-6.494 9.5-8.757 17.021-15.783 27.577-25.658 4.011-3.726 7.415-6.867 9.737-9.023 1.663-1.357 3.378-2.555 5.173-3.539 1.398-.586 2.77-1.198 4.09-1.917 3.325-1.251 6.808-1.916 10.371-1.916 12.983 0 24.647 8.757 28.421 21.293m-32.221-70.027c5.621 8.703 6.359 19.589 1.979 29.038-2.692 5.802-6.993 10.354-12.456 13.388a46.023 46.023 0 00-4.011 1.89 32.03 32.03 0 01-4.539 1.384c-1.636.266-3.932.612-6.729 1.038-23.222 2.848-34.2 4.285-56.05 7.106.501-.745.976-1.49 1.425-2.289 9.79-16.741 25.967-43.756 31.376-52.779 5.964-7.905 14.541-12.377 24.041-12.377 10.107 0 19.448 5.111 24.937 13.628m-50.64-58.422c7.811 6.76 11.558 16.98 10.001 27.281-1.398 9.076-6.729 16.741-14.804 21.532-2.058.985-5.251 2.476-9.13 4.285-20.082 8.73-30.189 13.175-49.902 21.879 5.859-21.852 8.92-33.749 15.279-58.476 3.721-14.425 15.2-23.741 29.266-23.741a29.532 29.532 0 0119.316 7.213m-77.187-44.342c4.222 0 8.286.905 12.165 2.661 9.395 4.285 15.833 13.016 17.206 23.343 1.425 10.54-2.798 20.76-11.506 28.026-19.58 16.342-28.025 23.475-45.468 38.221l-.554.479v-.905c0-.719 0-1.464-.027-2.209 0-.4 0-.799-.052-1.198-.449-20.015-.818-32.312-1.557-56.133-.37-11.525 4.407-19.004 8.418-23.183 5.594-5.802 13.353-9.102 21.375-9.102zm-90.356-6.867c5.595-7.772 14.567-12.43 24.04-12.43 1.373 0 2.745.107 4.117.293 10.213 1.41 18.842 7.958 23.038 17.513 3.826 8.597 3.325 18.232-1.241 26.882-1.029 1.624-2.375 3.78-4.011 6.335a7404.38 7404.38 0 00-29.687 44.821c0 .027 0 .08-.053.107-.554.745-1.029 1.49-1.531 2.236-6.782-21.56-10.608-33.244-18.525-57.438-3.325-10.194-1.979-20.254 3.827-28.292m-71.778 5.988c4.117-9.582 12.667-16.21 22.853-17.753a30.405 30.405 0 014.407-.32c9.394 0 18.393 4.605 23.961 12.297 5.805 7.959 7.204 17.966 4.011 28.107-7.758 24.7-11.031 35.293-17.918 57.677-11.11-16.609-17.839-26.43-29.16-43.038-2.771-4.18-5.04-7.56-6.465-9.715-4.856-8.704-5.515-18.498-1.715-27.255m-68.137 28.16c1.267-10.354 7.6-19.164 16.969-23.529 3.958-1.836 8.127-2.768 12.455-2.768 7.943 0 15.728 3.274 21.243 8.996 4.064 4.153 8.814 11.525 8.577 22.997-.555 25.897-.713 36.996-1.056 60.444-17.311-14.425-26.758-22.144-46.444-38.22-8.762-7.186-13.063-17.38-11.77-27.92m-47.632 18.87a29.466 29.466 0 0119.554-7.425c13.907 0 25.36 9.209 29.186 23.448 6.73 25.019 9.659 35.719 15.887 58.289-20.637-8.916-31.905-13.654-55.232-23.475-10.424-4.418-17.417-12.935-19.106-23.422-1.689-10.3 1.953-20.548 9.711-27.414zm-50.244 59.221c5.489-8.703 14.857-13.92 25.122-13.92s20.161 5.642 26.098 15.437c13.459 22.065 19.291 31.513 31.562 51.396-22.325-2.715-34.411-4.046-59.56-6.814-11.242-1.251-20.293-7.453-24.885-17.034-4.486-9.422-3.88-20.255 1.663-29.065zm-31.64 71.038c3.641-12.776 15.358-21.692 28.526-21.692 7.6 0 14.91 2.954 21.058 8.57 19.08 17.354 27.26 24.727 44.65 40.324-22.193 3.779-34.174 5.935-59.058 10.406a36.65 36.65 0 01-6.28.559c-9.633 0-18.42-4.338-24.041-11.87-5.7-7.613-7.442-17.194-4.882-26.297m-10.45 77.027c-.026-8.012 3.035-15.597 8.63-21.293 5.62-5.696 13.062-8.81 20.952-8.81 4.803 0 9.605 1.171 14.33 3.46 23.063 11.205 33.064 15.97 53.938 25.951-.739.319-1.478.692-2.243 1.064-2.586 1.331-5.41 2.768-8.365 4.285-14.066 6.921-24.674 12.27-42.988 21.453-4.83 2.422-9.737 3.646-14.672 3.646-16.23 0-29.503-13.334-29.608-29.73m11.558 77.107c-2.692-9.023-.95-18.951 4.644-26.536 5.647-7.666 14.461-12.057 24.199-12.057 1.9 0 3.88.159 5.832.479 25.36 4.205 36.232 5.935 59.19 9.555-16.625 15.277-25.544 23.608-44.07 40.988-2.19 2.023-4.485 3.7-6.913 5.057a43.985 43.985 0 00-4.09 1.89 28.899 28.899 0 01-10.371 1.943c-12.984 0-24.648-8.757-28.421-21.293m32.247 70.027c-5.62-8.73-6.36-19.589-1.98-29.038 2.693-5.802 6.994-10.354 12.456-13.415a36.53 36.53 0 004.012-1.889 34.331 34.331 0 018.207-2.023c25.518-3.141 36.416-4.551 59.48-7.532-11.717 19.349-17.971 29.889-30.954 51.768-5.938 10.007-15.49 15.73-26.283 15.73a29.577 29.577 0 01-24.938-13.601zm50.667 58.369c-7.811-6.787-11.559-16.981-10.002-27.308 1.61-10.487 8.471-19.137 18.895-23.609 23.592-10.22 33.672-14.692 54.968-24.087-5.858 21.878-8.919 33.749-15.279 58.475-3.721 14.453-15.2 23.768-29.266 23.768-7.072 0-13.933-2.581-19.316-7.213m77.135 44.369c-4.223 0-8.287-.905-12.166-2.661-9.394-4.286-15.833-13.016-17.205-23.369-1.425-10.54 2.797-20.734 11.505-28.027 19.792-16.502 28.236-23.635 46.023-38.699.501 22.676.87 34.946 1.662 60.444.369 11.552-4.407 19.004-8.418 23.21-5.594 5.802-13.353 9.102-21.375 9.102m90.356 6.867c-5.595 7.772-14.567 12.43-24.041 12.43-1.372 0-2.744-.107-4.116-.293-10.213-1.437-18.842-7.958-23.038-17.513-4.301-9.715-3.14-20.681 3.193-30.156 13.749-20.574 19.897-29.917 31.693-47.802.238-.347.502-.719.766-1.065l.87-1.278c6.809 21.506 10.609 33.19 18.525 57.384 3.325 10.168 1.98 20.202-3.826 28.293m71.778-6.015c-4.117 9.555-12.667 16.209-22.853 17.753a30.395 30.395 0 01-4.407.319c-9.394 0-18.393-4.604-23.961-12.296-5.779-7.959-7.204-17.966-4.011-28.107 7.758-24.699 11.03-35.293 17.918-57.703 12.587 18.817 19.501 28.905 33.83 49.905 6.413 9.368 7.68 20.387 3.484 30.129zm68.162-28.16c-1.266 10.354-7.6 19.164-16.968 23.502a28.963 28.963 0 01-12.455 2.795c-7.943 0-15.728-3.301-21.243-8.996-4.064-4.179-8.814-11.525-8.577-22.997.554-25.897.713-36.996 1.056-60.444 17.337 14.425 26.785 22.144 46.444 38.22 8.761 7.16 13.063 17.354 11.77 27.92m47.605-18.924a29.464 29.464 0 01-19.554 7.426c-13.907 0-25.36-9.209-29.186-23.475-6.729-24.993-9.658-35.666-15.886-58.263 20.636 8.917 31.904 13.654 55.232 23.476 10.423 4.391 17.417 12.935 19.105 23.422 1.689 10.3-1.952 20.521-9.711 27.388m50.271-59.141c-5.489 8.703-14.857 13.894-25.122 13.894s-20.161-5.616-26.099-15.411c-13.458-22.091-19.29-31.54-31.561-51.396 22.272 2.689 34.359 4.046 59.454 6.787h.106c11.242 1.278 20.293 7.453 24.885 17.061 4.486 9.396 3.879 20.255-1.663 29.065zm31.614-71.065c-3.642 12.776-15.358 21.692-28.526 21.692-6.571 0-12.878-2.209-18.473-6.441a746.74 746.74 0 01-4.776-4.125 6000.586 6000.586 0 00-38.686-34.947c-.792-.798-1.61-1.57-2.349-2.316l-1.214-1.144c21.982-3.726 33.963-5.909 58.742-10.327h.079a34.3 34.3 0 016.281-.586c9.632 0 18.419 4.339 24.04 11.871 5.7 7.586 7.442 17.194 4.882 26.297"/></g></svg>