<svg width="36" height="36" fill="none" xmlns="http://www.w3.org/2000/svg"><path d="M8.641 0a1.45 1.45 0 00-1.44 1.44v1.44h-4.32c-.77 0-1.44.58-1.44 1.41v28.98c0 .412.24.812.53 1.017.289.203.604.273.91.273h30.24c.307 0 .622-.07.912-.273.29-.205.528-.605.528-1.018V4.29c0-.754-.61-1.409-1.38-1.409H28.8V1.44A1.45 1.45 0 0027.361 0h-1.44a1.45 1.45 0 00-1.44 1.44v1.44h-12.96V1.44A1.45 1.45 0 0010.081 0h-1.44zm0 1.44h1.44v4.32h-1.44V1.44zm17.28 0h1.44v4.32h-1.44V1.44zM2.881 4.32h4.32v1.44c0 .788.653 1.44 1.44 1.44h1.44a1.45 1.45 0 001.44-1.44V4.32h12.96v1.44c0 .788.653 1.44 1.44 1.44h1.44a1.45 1.45 0 001.44-1.44V4.32h4.32v5.04H2.881V4.32zm0 6.48h30.24v22.32H2.881V10.8zm20.667 4.044l-.391.605-5.864 9.098-3.848-3.481-.534-.481-.965 1.066.532.483 5.107 4.619 6.781-10.522.391-.605-1.21-.782z" fill="#C5C5CC"/></svg>