<svg width="36" height="36" fill="none" xmlns="http://www.w3.org/2000/svg"><g clip-path="url(#clip0_3110_4238)"><path d="M18.001 1.44C8.87 1.44 1.441 8.868 1.441 18c0 9.132 7.429 16.56 16.56 16.56 1.877 0 3.68-.318 5.364-.896a29.63 29.63 0 01-.298-1.273l-.035-.15a15.014 15.014 0 01-5.03.879c-8.337 0-15.12-6.783-15.12-15.12S9.664 2.88 18.001 2.88c8.336 0 15.12 6.783 15.12 15.12 0 .589-.043 1.168-.109 1.74a6.42 6.42 0 011.383.587c.107-.76.165-1.537.165-2.327 0-9.132-7.428-16.56-16.56-16.56zm-.01 3.59a.72.72 0 00-.71.73v10.212A2.153 2.153 0 0015.841 18c0 .333.083.644.217.925l-4.326 4.326a.72.72 0 101.019 1.018l4.325-4.326c.282.135.593.217.925.217a2.16 2.16 0 002.16-2.16c0-.94-.602-1.73-1.44-2.028V5.76a.72.72 0 00-.73-.73zm9.465 15.848c-.04 0-.08.003-.12.009-1.46.035-2.717.52-3.603 1.384-.92.897-1.412 2.175-1.412 3.604 0 1.084.402 1.937.808 2.673.405.737.812 1.385 1.03 2.19.266 1.005.457 2.185.771 3.184.157.5.34.96.643 1.354.302.394.804.724 1.372.724.515 0 1.046-.215 1.377-.622.331-.406.458-.928.458-1.495 0-.922.2-2.14.381-3.287.182 1.14.381 2.364.381 3.287 0 .567.128 1.09.459 1.495.331.407.861.622 1.377.622.57 0 1.072-.334 1.374-.73.301-.396.484-.859.64-1.36.315-1.001.507-2.183.771-3.172.219-.805.626-1.453 1.031-2.19.405-.735.805-1.587.806-2.669.014-1.429-.47-2.709-1.387-3.607-.916-.899-2.233-1.392-3.764-1.392-.615 0-1.157.106-1.67.26a5.72 5.72 0 00-1.652-.259.745.745 0 00-.071-.003zm3.393 1.442c1.229 0 2.141.375 2.758.98.616.605.966 1.462.954 2.568v.007c0 .74-.253 1.297-.628 1.979-.375.68-.875 1.46-1.159 2.507h-.001v.001c-.293 1.091-.49 2.275-.754 3.118-.132.422-.287.75-.413.917-.127.166-.143.163-.228.163-.182 0-.21-.027-.262-.092-.052-.064-.133-.238-.133-.585 0-1.372-.259-3.064-.512-4.476-.108-.661-.726-1.117-1.3-1.117-.574 0-1.18.435-1.315 1.09l-.002.008-.002.01c-.253 1.437-.512 3.11-.512 4.485 0 .347-.082.521-.135.585-.052.065-.078.092-.26.092-.087 0-.105.003-.23-.16-.126-.164-.28-.49-.411-.91-.264-.839-.462-2.023-.754-3.125l-.001-.001v-.003c-.284-1.047-.784-1.825-1.159-2.506-.375-.681-.629-1.24-.629-1.98 0-1.107.358-1.968.98-2.573.61-.596 1.504-.967 2.702-.98.972.078 1.81.519 2.41 1.226a.72.72 0 001.099-.933 4.998 4.998 0 00-.266-.284c.057-.001.103-.011.163-.011z" fill="#C5C5CC"/></g><defs><clipPath id="clip0_3110_4238"><path fill="#fff" d="M0 0h36v36H0z"/></clipPath></defs></svg>