<svg width="20" height="20" fill="none" xmlns="http://www.w3.org/2000/svg"><path d="M8.666 18.667A.667.667 0 017.999 18v-3.035l-1.437-2.61a.667.667 0 01-.563.312h-4a.665.665 0 01-.665-.714L2 2.62A.667.667 0 012.666 2h3.333a.667.667 0 01.667.667h1.099A1.32 1.32 0 018.9 2h6.431c.737 0 1.334.597 1.334 1.333 0 .25-.073.481-.193.681a1.66 1.66 0 011.526 1.653c0 .426-.165.812-.428 1.107.638.234 1.095.84 1.095 1.56a1.66 1.66 0 01-.676 1.333c.408.304.676.785.676 1.333 0 .92-.746 1.667-1.667 1.667h-5.99c.173.774.323 1.608.323 2 0 1.527-1.209 4-2.03 4h-.636zm-5.95-7.334h2.616v-8H3.287l-.572 8z" fill="#F14346"/></svg>