<svg width="16" height="16" fill="none" xmlns="http://www.w3.org/2000/svg"><g clip-path="url(#clip0_947_9307)"><path d="M8 1.6c-2.262 0-3.2 1.45-3.2 3.2 0 .592.282 1.184.282 1.184-.112.064-.298.272-.255.635.09.688.384.859.576.875.07.635.757 1.455.997 1.573v1.066l-.006.01a.53.53 0 00-.413.287l-.167.336C4.498 11.504 1.6 11.32 1.6 14.4h5.866v-3.2c0-.88.72-1.6 1.6-1.6H9.6v-.533c.24-.118.927-.938.997-1.573.192-.016.485-.187.575-.875.043-.368-.143-.57-.255-.635 0 0 .283-.539.283-1.184 0-1.296-.507-2.4-1.6-2.4 0 0-.38-.8-1.6-.8zm3.733 8c-.59 0-1.067.477-1.067 1.067h-1.6a.535.535 0 00-.533.533v2.133c0 .294.24.534.533.534H11.2c0-.294.24-.534.533-.534H12.8c.293 0 .533.24.533.534h2.133c.294 0 .534-.24.534-.534V11.2a.535.535 0 00-.534-.533h-1.6c0-.59-.477-1.067-1.066-1.067h-1.067zm-3.2 5.238v.629c0 .293.24.533.533.533h6.4c.294 0 .534-.24.534-.533v-.63a1.478 1.478 0 01-.534.096h-6.4c-.186 0-.368-.031-.533-.095z" fill="#82C83C"/></g><defs><clipPath id="clip0_947_9307"><path fill="#fff" d="M0 0h16v16H0z"/></clipPath></defs></svg>