<svg width="32" height="32" fill="none" xmlns="http://www.w3.org/2000/svg"><path d="M16.001 1.28c8.13 0 14.72 6.59 14.72 14.72s-6.59 14.72-14.72 14.72S1.281 24.13 1.281 16s6.59-14.72 14.72-14.72zM21.08 22c.27-.83 1.54-9.11 1.696-10.741.047-.494-.109-.823-.415-.97-.37-.177-.918-.088-1.553.14-.872.315-12.015 5.047-12.66 5.32-.61.26-1.187.543-1.187.952 0 .288.17.45.642.619.49.174 1.725.549 2.454.75.702.194 1.501.025 1.95-.253.474-.295 5.954-3.963 6.348-4.284.393-.321.706.09.385.412-.321.322-4.083 3.973-4.579 4.479-.602.613-.175 1.25.23 1.504.46.29 3.779 2.517 4.279 2.874.5.357 1.006.519 1.47.519.465 0 .709-.612.94-1.321z" fill="#fff"/></svg>