<svg width="32" height="32" fill="none" xmlns="http://www.w3.org/2000/svg"><path d="M27.057 8.875c-.436-1.557-1.299-2.789-2.565-3.66-1.598-1.1-3.436-1.491-5.023-1.728-2.196-.328-4.186-.373-6.08-.142-1.777.218-3.115.565-4.336 1.126-2.393 1.1-3.828 2.878-4.267 5.287a33.07 33.07 0 00-.44 3.234c-.191 2.33-.017 4.394.533 6.305.536 1.863 1.472 3.196 2.863 4.07.355.223.808.384 1.247.54.22.078.43.155.615.236v3.765a.891.891 0 001.514.64l3.474-3.38c.152-.173.152-.173.307-.176 1.188-.024 2.4-.07 3.606-.134 1.46-.08 3.152-.221 4.745-.886 1.459-.609 2.523-1.575 3.162-2.871.667-1.353 1.063-2.818 1.212-4.48.26-2.92.074-5.454-.567-7.746zm-6.049 11.114c-.349.571-.871.966-1.486 1.222-.449.187-.907.148-1.35-.04-3.716-1.572-6.63-4.051-8.556-7.613-.397-.733-.673-1.532-.99-2.308-.065-.16-.06-.347-.088-.52.028-1.254.989-1.959 1.96-2.172.37-.082.699.049.974.312a8.578 8.578 0 011.818 2.516c.198.415.109.781-.23 1.09a2.892 2.892 0 01-.218.18c-.771.58-.885 1.019-.474 1.892.7 1.486 1.861 2.483 3.364 3.102.396.163.77.082 1.073-.239.04-.043.086-.084.116-.133.593-.989 1.451-.89 2.245-.327.522.37 1.027.761 1.543 1.139.784.577.777 1.119.3 1.9zM16.55 9.752a3.5 3.5 0 00-.596.05.61.61 0 11-.2-1.203 4.794 4.794 0 015.519 5.521.61.61 0 01-1.202-.202 3.573 3.573 0 00-3.52-4.165zm2.655 3.962a.61.61 0 01-1.218 0 1.83 1.83 0 00-1.828-1.828.61.61 0 010-1.218 3.05 3.05 0 013.046 3.046zm4.103.744a.608.608 0 01-.73.46.61.61 0 01-.46-.73 5.381 5.381 0 00-6.436-6.436.608.608 0 11-.269-1.188 6.6 6.6 0 017.894 7.893z" fill="#fff"/></svg>