<svg width="24" height="24" fill="none" xmlns="http://www.w3.org/2000/svg"><path d="M12 2C6.486 2 2 6.486 2 12s4.486 10 10 10 10-4.486 10-10S17.514 2 12 2zm0 1.5c4.703 0 8.5 3.797 8.5 8.5a8.483 8.483 0 01-7 8.36V14.5h1.813a.5.5 0 00.496-.438l.187-1.5A.5.5 0 0015.5 12h-2v-1.75a1 1 0 011-1h1a.5.5 0 00.5-.5V7.062a.5.5 0 00-.455-.498c-.03-.002-.735-.064-1.628-.064-2.204 0-3.417 1.308-3.417 3.684V12h-2a.5.5 0 00-.5.5V14a.5.5 0 00.5.5h2v5.86a8.483 8.483 0 01-7-8.36c0-4.703 3.797-8.5 8.5-8.5z" fill="#43434A"/></svg>