<svg width="24" height="24" fill="none" xmlns="http://www.w3.org/2000/svg"><g clip-path="url(#clip0_989_55816)"><path d="M12 .96C18.099.96 23.04 5.903 23.04 12c0 6.097-4.942 11.04-11.04 11.04C5.905 23.04.96 18.097.96 12 .96 5.903 5.905.96 12 .96zm3.81 15.54c.202-.623 1.154-6.832 1.271-8.056.036-.37-.081-.617-.31-.727-.278-.133-.69-.066-1.166.106-.654.235-9.011 3.784-9.494 3.99-.458.194-.891.406-.891.713 0 .216.128.338.481.464.368.13 1.294.412 1.84.562.527.146 1.127.02 1.463-.19.356-.22 4.466-2.971 4.761-3.212.295-.24.53.068.29.31-.242.24-3.063 2.978-3.435 3.358-.452.46-.131.937.172 1.128.346.218 2.835 1.888 3.21 2.155.374.268.755.39 1.103.39s.531-.459.704-.991z" fill="#82C83C"/></g><defs><clipPath id="clip0_989_55816"><path fill="#fff" d="M0 0h24v24H0z"/></clipPath></defs></svg>