<svg width="24" height="21" fill="none" xmlns="http://www.w3.org/2000/svg"><path d="M9.996 0c-2.205 0-4 1.795-4 4s1.795 4 4 4 4-1.794 4-4-1.795-4-4-4zM3.953 2.988a1 1 0 00-.89.655L.114 11.326a.961.961 0 00-.016.041C-.324 12.634.662 14 1.998 14H7.84c.155.523.287.966.348 1.166L9.84 21h8.3l-1.645-5.748 2.607.178 2.854 4.724.146.293a1 1 0 101.79-.894l-3-6a1 1 0 00-.507-.473l-.072-.03h-.002c-.123-.05-5.847-2.376-6.861-2.775A3.941 3.941 0 0011.996 10c-.181 0-.363.025-.543.063L3.416 11l1.517-6.654a1 1 0 00-.98-1.358z" fill="#82C83C"/></svg>