<svg width="21" height="26" fill="none" xmlns="http://www.w3.org/2000/svg"><path d="M8.5 0a2.5 2.5 0 100 5 2.5 2.5 0 000-5zM6.488 7c-.642 0-1.267.206-1.783.588L2.531 9.195a3 3 0 00-.94 1.153L.124 13.516l.002.002a1 1 0 101.8.86l1.555-3.081L5 10.25l.004 4.17A2.496 2.496 0 005 14.5c0 .04.002.08.004.12v.001a2.5 2.5 0 00.992 1.873L6 16.5l.03.018c.1.074.208.14.32.199l3.482 2.16 2.232 5.477.012.027.031.076.004-.002a1 1 0 001.596.252 1 1 0 00.232-1.047h.002l-1.502-5.49a2.002 2.002 0 00-.353-.707l-2.09-2.666v-.217L10 14.5c0-.036-.002-.072-.004-.107L10 10.23l4.172 4.33a1 1 0 101.431-1.357l-5.007-5.545A2.001 2.001 0 009.11 7H6.488zm10.23 8.99a.75.75 0 00-.679.996l2.5 7.5a.75.75 0 101.422-.472l-2.5-7.5a.75.75 0 00-.742-.524zM4.673 17.986l-.29 1.588-2.259 3.947a1 1 0 001.407 1.326 1 1 0 00.368-.412l2.706-3.78.333-1.286-2.265-1.383z" fill="#82C83C"/></svg>