<svg width="24" height="24" fill="none" xmlns="http://www.w3.org/2000/svg"><path d="M8.25 2.5A5.761 5.761 0 002.5 8.25v7.5a5.762 5.762 0 005.75 5.75h7.5a5.762 5.762 0 005.75-5.75v-7.5a5.762 5.762 0 00-5.75-5.75h-7.5zm0 1.5h7.5A4.239 4.239 0 0120 8.25v7.5A4.24 4.24 0 0115.75 20h-7.5A4.239 4.239 0 014 15.75v-7.5A4.239 4.239 0 018.25 4zM17 6a1 1 0 100 2 1 1 0 000-2zm-5 1c-2.752 0-5 2.248-5 5s2.248 5 5 5 5-2.248 5-5-2.248-5-5-5zm0 1.5c1.942 0 3.5 1.558 3.5 3.5s-1.558 3.5-3.5 3.5A3.489 3.489 0 018.5 12c0-1.942 1.558-3.5 3.5-3.5z" fill="#43434A"/></svg>