<svg width="20" height="20" fill="none" xmlns="http://www.w3.org/2000/svg"><path d="M8.666 1.333A.667.667 0 007.999 2v3.035l-1.437 2.61a.667.667 0 00-.563-.312h-4a.667.667 0 00-.665.714L2 17.38a.666.666 0 00.666.62h3.333a.666.666 0 00.667-.667h1.099C8 17.737 8.424 18 8.9 18h6.431c.737 0 1.334-.597 1.334-1.333 0-.25-.073-.481-.193-.681a1.66 1.66 0 001.526-1.653 1.66 1.66 0 00-.428-1.107 1.662 1.662 0 001.095-1.56 1.66 1.66 0 00-.676-1.333A1.66 1.66 0 0018.666 9c0-.92-.746-1.667-1.667-1.667h-5.99c.173-.774.323-1.608.323-2 0-1.527-1.209-4-2.03-4h-.636zm-5.95 7.334h2.616v8H3.287l-.572-8z" fill="#82C83C"/></svg>