<svg width="186" height="51" fill="none" xmlns="http://www.w3.org/2000/svg"><path d="M143.229 16.933c2.762-5.328 8.127-4.425 9.828-3.807 2.221.809 3.73 2.486 4.386 4.617.293.897.369 1.941.374 2.764-.011.334.008.668-.007 1.013h-11.804c.015.34-.023 2.346 2.606 3.551 1.611.633 3.153.472 4.229-.03 1.053-.448 1.735-1.264 1.789-1.328.74.716 1.453 1.41 2.172 2.107-.178.177-.343.357-.524.523-1.018.937-2.189 1.596-3.54 1.92-1.22.375-3.46.516-5.635-.338-2.326-.924-3.788-2.61-4.4-5.027-.255-1.003-.294-2.024-.218-3.05.075-1.016.304-1.994.744-2.915zm-39.251-4.276c2.429 0 4.26.678 5.303 2.03v-1.68h3.609v10.465c0 .381.006.764.116 1.135.145.497.446.729.966.733.187.002.699-.044.783-.052v.132l.003.004v2.654s-.614.266-1.356.325c-.64.052-1.214.04-1.845-.151-.96-.29-1.598-1.106-1.902-2.035-1.121 1.415-2.879 2.29-5.448 2.29-3.979 0-7.344-3.242-7.344-7.933 0-4.69 3.628-7.917 7.115-7.917zm-36.28-.007c2.987.009 4.801 2.268 4.82 2.29l-2.134 1.987s-.73-.738-1.929-1.088c-1.46-.347-2.217-.085-2.642.265-.536.407-.69 1.416.094 1.905.578.392 2.776 1.076 3.602 1.376.733.27 1.43.61 2.063 1.078 1.075.798 1.61 1.867 1.616 3.203.005.967-.224 1.866-.79 2.663-.43.608-.992 1.059-1.654 1.395-1.65.861-3.9.786-4.492.744-1.177-.083-2.22-.407-3.26-.98-1.54-.936-2.094-1.912-2.11-1.939l2.195-2.018s.88 1.245 2.53 1.688c.82.206 2.68.484 3.723-.478.673-.694.651-1.644-.428-2.164-.472-.261-3.13-1.165-3.936-1.476-2.291-.82-2.922-2.542-3.007-3.478-.078-.84.025-1.65.407-2.415.405-.819 1.035-1.42 1.833-1.85 1.092-.588 2.272-.711 3.5-.708zm12.525.35h-.002 3.06v3.256h-3.06c0 .05-.011 5.755.007 6.917.026 1.712.702 2.295 2.411 2.11.2-.021.401-.04.664-.068v2.95c-2.07.609-5.108.269-6.033-1.629-.42-.857-.59-1.71-.635-2.663-.076-2.188-.042-7.544-.041-7.603h-1.966v-3.266h1.966V7.14h3.629V13zm102.321 0h3.082v3.256h-3.084c0 .054-.011 5.756.007 6.917.026 1.711.702 2.295 2.411 2.11.2-.021.401-.04.664-.068v2.95c-2.07.609-5.108.269-6.033-1.629-.419-.857-.59-1.71-.635-2.663-.106-2.244-.042-7.54-.041-7.603h-1.966v-3.266h1.966V7.16h3.629V13zm-18.469 2.008c1.518-2.07 3.478-2.574 5.665-2.228 2.752.438 4.442 2.414 4.546 5.277.012 1.889-.006 3.241 0 4.83 0 .27-.006.706 0 .974.026 1.248.458 1.55 1.723 1.337l-.002 2.953c-1.825.694-4.099.049-4.805-1.425-.281-.587-.428-1.282-.456-1.937-.068-1.63-.029-3.27-.04-4.901a10.669 10.669 0 00-.049-1.073c-.186-1.828-1.301-2.878-3.071-2.9-1.816-.025-3.281 1.177-3.444 2.909-.09.955-.063 2.885-.063 2.885l-.004 6.428h-3.541V12.994h3.541v2.014zM59.96 28.166h-3.92L54.2 23.99h-9.277l-1.675 4.168h-3.98l8.56-21.003h3.71l8.422 21.01zm30.461-13.51c1.526-2.729 5.441-1.861 5.441-1.861v3.38h-.002s-1.254-.201-2.086-.109c-2.152.206-3.533 1.79-3.536 3.962-.006 2.662 0 8.03 0 8.107h-3.55V13h3.52v2.014c.1-.175.175-.303.213-.36zm39.131-7.474c5.161 0 7.899 2.562 9.106 4.401a9.832 9.832 0 011.43 3.585c.379 1.994.335 3.98-.206 5.94-.789 2.779-2.736 5.179-5.869 6.276-1.42.508-2.891.734-4.393.74-2.557.012-7.809.005-7.81.005V7.18c.002 0 5.21-.006 7.742.001zm-24.571 8.784c-2.516 0-4.552 2.07-4.552 4.62 0 2.549 2.037 4.616 4.552 4.616 2.516 0 4.551-2.066 4.551-4.616 0-2.551-2.035-4.62-4.551-4.62zm20.6-5.387l.001 14.157s2.868.024 4.255-.024c3.833-.133 5.499-2.34 6.017-3.428.346-.726 1.177-3.567.318-6.398-.556-1.793-1.715-3.034-3.47-3.713-1.036-.4-2.116-.569-3.218-.586-1.26-.02-3.903-.008-3.903-.008zM46.148 20.85h6.961l-3.482-9.008-3.479 9.008zm105.639-4.888c-1.34-.447-4.102-.66-5.435 2.183a3.41 3.41 0 00-.24.852h8.055a3.023 3.023 0 00-.248-1.156c-.433-.937-1.168-1.553-2.132-1.88z" fill="#43434A"/><rect width="36" height="36" rx="18" fill="#fff"/><path d="M17.998 0C27.938 0 36 8.06 36 18s-8.061 18-18.002 18C8.058 36 0 27.94 0 18S8.06 0 17.998 0zm1.916 1.8a2.246 2.246 0 00-1.991 1.229 2.244 2.244 0 00-2.313-1.185 2.238 2.238 0 00-1.723 1.338 2.288 2.288 0 00-.15.483 2.248 2.248 0 00-1.615-.693 2.245 2.245 0 00-2.218 1.985 2.28 2.28 0 00-.008.489 2.22 2.22 0 00-1.102-.287c-.542 0-1.067.199-1.474.56a2.254 2.254 0 00-.733 2.063c.027.17.072.333.135.485a2.23 2.23 0 00-2.406.99 2.266 2.266 0 00.138 2.612 2.25 2.25 0 00-2.028 1.633 2.254 2.254 0 00.367 1.983c.14.186.306.349.489.48-.31.11-.592.292-.83.534a2.255 2.255 0 00-.652 1.607 2.26 2.26 0 001.528 2.125c-.185.134-.35.296-.49.483a2.293 2.293 0 00-.349 2 2.264 2.264 0 002.013 1.604 2.269 2.269 0 00-.086 2.584 2.232 2.232 0 002.397.966 2.262 2.262 0 00.631 2.524 2.225 2.225 0 002.575.24 2.251 2.251 0 002.229 2.454c.605 0 1.191-.252 1.612-.688l.025-.028c.032.167.083.332.153.49a2.236 2.236 0 002.048 1.34 2.243 2.243 0 001.991-1.23 2.242 2.242 0 002.313 1.185 2.23 2.23 0 001.723-1.338c.069-.159.12-.32.15-.484a2.247 2.247 0 001.615.693c.327 0 .643-.07.94-.21a2.248 2.248 0 001.278-1.773c.02-.166.023-.33.008-.489.326.185.699.287 1.102.287.542 0 1.067-.199 1.474-.559.585-.517.86-1.288.733-2.064a2.22 2.22 0 00-.135-.485 2.23 2.23 0 002.407-.99 2.262 2.262 0 00-.14-2.612 2.254 2.254 0 002.03-1.634 2.25 2.25 0 00-.368-1.981 2.228 2.228 0 00-.489-.48 2.257 2.257 0 001.482-2.141 2.26 2.26 0 00-1.528-2.125 2.27 2.27 0 00.49-.484c.42-.573.55-1.32.349-2a2.263 2.263 0 00-2.013-1.604 2.26 2.26 0 00.086-2.584 2.234 2.234 0 00-2.397-.966 2.259 2.259 0 00-.631-2.524 2.225 2.225 0 00-2.575-.24 2.249 2.249 0 00-2.229-2.454c-.605 0-1.191.252-1.612.688l-.025.028a2.277 2.277 0 00-.153-.49 2.236 2.236 0 00-2.048-1.34zm-2.211 29.524c.192.588.114 1.169-.222 1.637l-.131.16a1.716 1.716 0 01-1.5.541 1.708 1.708 0 01-1.332-1.012c-.25-.562-.182-1.198.184-1.746a392.78 392.78 0 001.834-2.765c.013-.02.03-.041.045-.061l.05-.074c.393 1.244.614 1.92 1.072 3.32zm3.73-.455c.371.542.445 1.18.202 1.744a1.718 1.718 0 01-1.578 1.046 1.722 1.722 0 01-1.385-.712c-.335-.46-.417-1.04-.233-1.626.45-1.429.637-2.042 1.036-3.338.728 1.088 1.13 1.671 1.958 2.886zm-7.457-.176c.022.668-.255 1.1-.487 1.343a1.726 1.726 0 01-1.237.528l-.183-.01a1.723 1.723 0 01-1.517-1.496c-.082-.61.161-1.2.665-1.622a365.107 365.107 0 002.663-2.239c.029 1.312.05 2.021.096 3.496zM24.9 29.368c.507.414.755 1.004.68 1.615l-.041.22a1.714 1.714 0 01-2.892.78c-.235-.241-.51-.667-.496-1.33.032-1.498.042-2.14.062-3.496 1.003.834 1.55 1.28 2.687 2.21zm-6.857-3.25c.34.003.65.166.835.434.227.328.252.785.072 1.288-.285.803-.645 2.009-.879 2.81-.252-.784-.629-1.965-.894-2.767-.182-.545-.148-1.037.098-1.379a.916.916 0 01.756-.386h.012zm-7.442 2.92c-.216.836-.881 1.376-1.695 1.376-.409 0-.805-.15-1.116-.419l-.16-.156a1.74 1.74 0 01-.42-1.424c.093-.606.49-1.107 1.093-1.366 1.365-.591 1.95-.85 3.182-1.394a298.612 298.612 0 00-.884 3.382zm17.191-2.09c.603.253 1.008.748 1.106 1.355a1.73 1.73 0 01-.563 1.583l-.121.1a1.703 1.703 0 01-1.01.331c-.805 0-1.467-.532-1.688-1.357-.39-1.446-.56-2.064-.92-3.371 1.194.515 1.846.79 3.196 1.358zm-12.3-1.14a1.038 1.038 0 01.963.7c.103.313.048.67-.149 1.027l-.082.122c-.04.063-.078.124-.118.183-.494.687-1.15 1.69-1.582 2.366-.02-.823-.05-2.062-.077-2.907-.017-.5.115-.926.374-1.195a.926.926 0 01.672-.296zm5.133.004a.99.99 0 01.732.316c.244.26.355.648.327 1.123-.05.854-.058 2.112-.058 2.947-.46-.683-1.154-1.707-1.632-2.402l-.112-.179c-.237-.416-.299-.829-.176-1.178a.927.927 0 01.626-.585c.096-.028.196-.042.293-.042zm-7.307-1.127a.954.954 0 01.382.151c.28.191.453.499.464.825.01.398-.217.798-.64 1.121-.673.515-1.63 1.327-2.257 1.87.215-.796.535-1.991.747-2.81.224-.857.749-1.163 1.165-1.164l.14.007zm9.631-.047c.546 0 .968.418 1.127 1.123.19.831.533 2.041.765 2.842-.63-.523-1.581-1.307-2.235-1.84-.445-.365-.68-.798-.653-1.222a.935.935 0 01.439-.74c.17-.107.364-.163.557-.163zM7.821 26.494c-.344.579-.897.91-1.521.91a1.712 1.712 0 01-1.443-.787 1.737 1.737 0 01.606-2.456c.078-.03.156-.067.232-.109a1.99 1.99 0 01.475-.117c1.476-.182 2.107-.264 3.442-.436-.678 1.119-1.04 1.73-1.791 2.995zm22.072-2.698h.006c.65.073 1.174.432 1.44.988a1.738 1.738 0 01-.096 1.682 1.71 1.71 0 01-1.453.803c-.594 0-1.167-.325-1.51-.891a446.603 446.603 0 00-1.827-2.974c1.289.155 1.989.233 3.44.392zm-18.678-.788c.274 0 .525.119.705.334.22.26.304.604.225.923l-.046.139c-.134.323-.438.588-.872.76-.788.309-1.926.827-2.68 1.177a335.96 335.96 0 001.483-2.498c.31-.53.742-.835 1.185-.835zm13.714-.037c.435 0 .833.284 1.12.795l.35.608c.384.646.845 1.376 1.181 1.902a373.43 373.43 0 00-2.661-1.127c-.53-.222-.876-.57-.97-.984a.937.937 0 01.21-.835c.202-.228.482-.359.77-.359zM19.15 9.735a1.563 1.563 0 001.403.926c.303 0 .588-.095.834-.27.047.454.302.875.692 1.137a1.437 1.437 0 001.324.147 1.58 1.58 0 00.357 1.263c.277.33.68.518 1.104.518l.04-.002c-.2.408-.207.898-.016 1.328.194.44.574.743 1.032.84-.002 0-.004.005-.007.009a1.577 1.577 0 00-.36 1.244c.062.454.317.83.685 1.055a1.545 1.545 0 00-.724 1.109 1.443 1.443 0 00.38 1.229 1.55 1.55 0 00-.958.84c-.203.433-.189.922.044 1.34l-.048.001c-.437 0-.86.196-1.158.534a1.459 1.459 0 00-.348 1.208 1.506 1.506 0 00-.477-.079c-.293 0-.58.084-.835.244a1.457 1.457 0 00-.682 1.153v.006a1.503 1.503 0 00-.805-.229c-.145 0-.292.02-.432.06-.43.122-.77.42-.942.826a1.559 1.559 0 00-1.203-.583h-.017c-.458 0-.877.21-1.155.574a1.569 1.569 0 00-.946-.815 1.423 1.423 0 00-1.253.192 1.575 1.575 0 00-.688-1.141 1.433 1.433 0 00-1.307-.16 1.583 1.583 0 00-.363-1.24 1.443 1.443 0 00-1.095-.518 1.581 1.581 0 000-1.266 1.447 1.447 0 00-1.1-.861c.282-.336.409-.784.348-1.232a1.446 1.446 0 00-.668-1.043c.39-.23.665-.63.738-1.123a1.45 1.45 0 00-.395-1.241 1.56 1.56 0 00.95-.838 1.465 1.465 0 00-.03-1.314.49.49 0 00.055.004c.443 0 .872-.2 1.171-.547a1.46 1.46 0 00.338-1.207c.142.04.282.06.415.06.292 0 .58-.085.833-.245.395-.25.644-.656.682-1.121a1.546 1.546 0 001.248.184c.456-.125.814-.451.98-.896.286.335.71.537 1.164.543h.02c.47 0 .9-.221 1.176-.603zM4.66 20.33c.11 0 .225.01.337.028 1.467.243 2.096.344 3.425.554a284.13 284.13 0 00-2.55 2.371 2.096 2.096 0 01-.4.292c-.08.032-.16.069-.237.109a1.672 1.672 0 01-.6.112 1.732 1.732 0 01-1.643-1.232l-.048-.199a1.76 1.76 0 01.315-1.337 1.72 1.72 0 011.401-.698zm26.738-.188c.557 0 1.065.252 1.39.687.33.44.432.996.284 1.523l-.1.267a1.73 1.73 0 01-1.551.99c-.38 0-.745-.129-1.069-.373a24.84 24.84 0 01-.276-.24 348.84 348.84 0 00-2.238-2.02c-.045-.047-.094-.093-.137-.136l-.07-.065c1.272-.216 1.966-.342 3.4-.598h.003a2.01 2.01 0 01.364-.035zm-21.53.715c.396 0 .723.212.877.568.135.313.116.667-.052.948-.205.34-.609.55-1.14.59-.842.066-2.08.23-2.9.345.608-.553 1.52-1.386 2.136-1.959.35-.323.722-.491 1.08-.492zm16.457-.126c.256 0 .516.094.766.276l.137.123c.092.081.178.158.26.234.602.58 1.443 1.328 2.019 1.831l-2.867-.332c-.571-.062-1-.302-1.204-.672a.935.935 0 01-.029-.86c.174-.37.526-.6.918-.6zM18 13.405a4.702 4.702 0 10.003 9.404A4.702 4.702 0 0018 13.405zm-9.063 4.959c.54 0 .95.332 1.02.828.04.305-.046.606-.238.828-.212.245-.529.374-.92.374a1.94 1.94 0 01-.398-.042c-.831-.166-2.067-.346-2.887-.457.583-.294 1.403-.705 2.089-1.056.22-.11.456-.224.72-.354l.157-.052a1.58 1.58 0 01.457-.069zm18.121-.134c.249 0 .515.077.79.224.747.395 1.884.924 2.638 1.265-.806.143-2.016.36-2.84.512-.6.11-1.122-.024-1.407-.36l-.114-.166a.937.937 0 01-.097-.585c.067-.442.41-.89 1.03-.89zM4.036 16.36c.277 0 .555.068.828.2 1.334.649 1.914.924 3.122 1.502-.043.018-.086.04-.13.061l-.485.248c-.814.4-1.427.71-2.486 1.241a1.9 1.9 0 01-.85.211c-.938 0-1.707-.77-1.713-1.72l.009-.173c.037-.4.209-.772.492-1.06a1.69 1.69 0 011.213-.51zm27.93-.183c.939 0 1.707.771 1.714 1.72l-.01.173c-.036.4-.208.772-.491 1.06-.326.33-.757.51-1.213.51-.22 0-.438-.043-.654-.125-.069-.032-.16-.071-.265-.12a494.878 494.878 0 00-3.022-1.451l.142-.069c.412-.212.935-.476 1.442-.733.436-.218.9-.45 1.508-.756a1.9 1.9 0 01.849-.209zm-23.558-.406c.6-.114 1.12.022 1.408.359a.93.93 0 01.212.75c-.067.442-.409.89-1.032.89l-.188-.016a1.859 1.859 0 01-.597-.206c-.75-.395-1.885-.918-2.64-1.26.806-.143 2.014-.363 2.837-.517zm18.815-.169c.128 0 .263.015.403.043.83.168 2.066.348 2.886.458l-1.137.57c-.542.27-1.047.52-1.747.863a1.651 1.651 0 01-.54.098c-.542 0-.953-.335-1.02-.83a1.045 1.045 0 01.236-.827c.212-.246.53-.375.92-.375zM4.581 12.391c.44 0 .862.17 1.218.496a404.894 404.894 0 002.582 2.332c-1.283.219-1.976.343-3.415.601a2.127 2.127 0 01-.364.034 1.718 1.718 0 01-1.39-.688 1.732 1.732 0 01-.283-1.52l.101-.267a1.725 1.725 0 011.55-.988zm26.785-.188c.752 0 1.426.507 1.644 1.232l.047.199c.081.464-.032.954-.316 1.337a1.721 1.721 0 01-1.4.698c-.076 0-.153-.006-.231-.014l-.067-.009c-.012 0-.026-.004-.039-.007a409.75 409.75 0 00-3.419-.552c.03-.024.06-.049.088-.075.122-.117.259-.244.4-.376.549-.507.983-.914 1.594-1.486l.564-.522c.096-.078.195-.147.299-.204.08-.034.16-.069.237-.11a1.68 1.68 0 01.6-.111zm-21.976.921c.571.062 1 .302 1.204.671.15.268.16.58.029.86l-.07.13a1.01 1.01 0 01-.848.47c-.34 0-.69-.169-1.013-.488-.606-.595-1.544-1.427-2.169-1.973.812.096 2.034.24 2.867.33zm19.925-.36c-.467.432-1.076.998-1.59 1.481l-.56.512c-.305.245-.623.374-.931.374a.927.927 0 01-.87-.56 1.044 1.044 0 01.042-.95c.201-.344.603-.556 1.132-.603.842-.072 2.078-.247 2.897-.367-.041.037-.08.076-.12.113zm-18.192-1.9c.533.216.882.562.981.975a.937.937 0 01-.204.838 1.03 1.03 0 01-.777.364c-.43 0-.827-.279-1.116-.784l-.357-.604A74.931 74.931 0 008.452 9.76c.755.316 1.893.787 2.671 1.102zm14.73 1.518l-.112.127c-.261.272-.566.421-.878.422a.91.91 0 01-.705-.334 1.042 1.042 0 01-.225-.921c.097-.389.423-.707.919-.902.783-.307 1.91-.82 2.663-1.167a277.92 277.92 0 01-1.663 2.775zM6.212 8.73c.595 0 1.167.327 1.51.893a537.113 537.113 0 001.827 2.975c-1.291-.157-1.99-.234-3.445-.394-.65-.072-1.176-.432-1.442-.986a1.738 1.738 0 01.097-1.683c.318-.503.86-.805 1.454-.805zm23.489-.133c.584 0 1.125.296 1.443.79l.11.19a1.74 1.74 0 01-.715 2.261c-.08.033-.155.07-.232.11a1.85 1.85 0 01-.262.08c-.094.016-.228.035-.39.06-1.343.165-1.979.248-3.243.411.029-.043.057-.086.082-.132.567-.968 1.503-2.533 1.816-3.055.345-.457.841-.715 1.39-.715zm-16.313.627c.447.365.68.798.652 1.22a.93.93 0 01-.437.74 1.053 1.053 0 01-.557.164c-.547 0-.97-.42-1.129-1.127-.188-.832-.527-2.043-.76-2.844.631.525 1.58 1.315 2.231 1.847zm10.656.855c-.22.861-.746 1.17-1.165 1.17a.917.917 0 01-.514-.161 1.034 1.034 0 01-.469-.821c-.01-.357.168-.713.508-1.018l.007-.007.081-.067.037-.03c.673-.517 1.626-1.334 2.252-1.88-.213.796-.528 1.994-.737 2.814zM8.8 5.68c.804 0 1.466.533 1.687 1.357.39 1.447.56 2.066.92 3.371-1.194-.516-1.847-.79-3.196-1.359-.603-.255-1.008-.747-1.106-1.353a1.735 1.735 0 01.563-1.587 1.707 1.707 0 011.132-.43zm18.298-.095c.41 0 .807.149 1.118.418l.157.157a1.738 1.738 0 01-.436 2.668l-.527.248a461.45 461.45 0 00-2.889 1.265c.34-1.263.517-1.952.885-3.382.215-.834.879-1.374 1.692-1.374zm-11.07 2.66c.323.478.421.963.277 1.36a.926.926 0 01-.63.58 1.07 1.07 0 01-.285.039.985.985 0 01-.735-.319c-.244-.261-.355-.652-.322-1.13l.037-.7c.03-.753.041-1.618.046-2.244.453.685 1.138 1.716 1.612 2.413zm5.569.32l.005.186c-.005.453-.135.837-.375 1.088a.925.925 0 01-.954.255c-.325-.1-.58-.347-.682-.656-.108-.328-.046-.704.176-1.081l.007-.009.12-.185c.498-.69 1.172-1.733 1.616-2.43.022.8.056 1.99.086 2.831zm-2.767-.52c.18.545.145 1.037-.1 1.379a.922.922 0 01-.756.388h-.014a1.031 1.031 0 01-.835-.436c-.225-.33-.25-.786-.069-1.29.287-.802.649-2.006.883-2.807.25.785.627 1.964.89 2.767zm-6.703-4.549c.46 0 .91.19 1.229.52.235.241.511.668.497 1.331-.032 1.498-.041 2.14-.061 3.497a294.52 294.52 0 00-2.688-2.212c-.507-.415-.755-1.005-.68-1.615l.042-.22a1.714 1.714 0 011.661-1.3zm11.623-.06a1.723 1.723 0 011.7 1.505c.082.61-.163 1.202-.667 1.623-1.132.945-1.62 1.358-2.63 2.211-.01.01-.02.018-.03.026v-.05a3.714 3.714 0 00-.006-.2 324.452 324.452 0 00-.09-3.246c-.021-.667.255-1.1.487-1.341a1.724 1.724 0 011.236-.527zm-7.805-1.094c.544 0 1.065.266 1.387.711.336.46.417 1.04.232 1.626a480.143 480.143 0 00-1.037 3.338c-.643-.96-1.033-1.53-1.688-2.49l-.372-.563c-.281-.503-.32-1.07-.1-1.577l.103-.198a1.707 1.707 0 011.475-.847zm4.207-.004c.59.082 1.091.46 1.334 1.013.221.497.192 1.055-.072 1.555l-.232.366a425.608 425.608 0 00-1.721 2.6c-.032.043-.06.087-.09.13a258.499 258.499 0 00-1.07-3.324c-.193-.59-.115-1.172.221-1.637l.132-.162a1.717 1.717 0 011.498-.541z" fill="#82C83C"/><path d="M4.026 48v-8.484h1.56l2.592 4.668 2.556-4.668h1.524V48h-1.044v-7.428l-2.82 5.22h-.48l-2.844-5.22V48H4.026zm10.877-2.784c.024.28.08.54.168.78.096.232.224.436.384.612s.356.316.588.42c.24.096.516.144.828.144.152 0 .308-.012.468-.036a2.13 2.13 0 00.468-.144c.144-.072.272-.164.384-.276.112-.112.196-.248.252-.408h1.044a2.015 2.015 0 01-.372.792 2.124 2.124 0 01-.612.552 2.718 2.718 0 01-.78.324c-.288.064-.58.096-.876.096-.504 0-.944-.08-1.32-.24a2.598 2.598 0 01-.924-.66 2.796 2.796 0 01-.552-1.02c-.12-.4-.18-.836-.18-1.308 0-.472.064-.904.192-1.296.136-.4.328-.744.576-1.032.248-.288.552-.512.912-.672.36-.16.788-.24 1.284-.24.504 0 .94.1 1.308.3.368.2.664.464.888.792.224.32.38.668.468 1.044.096.376.136.724.12 1.044 0 .072-.004.144-.012.216 0 .072-.004.144-.012.216h-4.692zm3.684-.888c-.016-.536-.184-.972-.504-1.308-.32-.336-.748-.504-1.284-.504-.296 0-.556.048-.78.144a1.597 1.597 0 00-.564.396 1.906 1.906 0 00-.36.588 2.449 2.449 0 00-.168.684h3.66zm3.422 5.952h-1.02v-8.604h.973l.047.972c.216-.344.508-.6.877-.768.376-.176.78-.268 1.212-.276.488 0 .9.084 1.236.252.343.16.628.388.852.684.232.288.404.632.515 1.032.113.392.168.816.168 1.272 0 .464-.055.892-.168 1.284a2.855 2.855 0 01-.515 1.02 2.476 2.476 0 01-.877.684c-.352.16-.771.24-1.26.24-.48 0-.887-.076-1.223-.228a2.259 2.259 0 01-.817-.6v3.036zm1.956-3.108c.345 0 .633-.06.864-.18.24-.128.433-.296.576-.504.152-.216.26-.464.325-.744.072-.28.111-.58.12-.9 0-.32-.037-.62-.109-.9a1.968 1.968 0 00-.323-.744 1.58 1.58 0 00-.6-.492c-.24-.128-.533-.192-.877-.192a1.7 1.7 0 00-1.055.336c-.296.216-.52.492-.672.828a2.096 2.096 0 00-.18.576 3.646 3.646 0 00-.049.6c0 .24.017.464.049.672.032.2.091.392.18.576.152.304.372.56.66.768.296.2.66.3 1.091.3zm5.012-1.956c.024.28.08.54.168.78.096.232.224.436.384.612s.356.316.588.42c.24.096.516.144.828.144.152 0 .308-.012.468-.036a2.13 2.13 0 00.468-.144c.144-.072.272-.164.384-.276.112-.112.196-.248.252-.408h1.044a2.015 2.015 0 01-.372.792 2.124 2.124 0 01-.612.552 2.718 2.718 0 01-.78.324c-.288.064-.58.096-.876.096-.504 0-.944-.08-1.32-.24a2.598 2.598 0 01-.924-.66 2.796 2.796 0 01-.552-1.02c-.12-.4-.18-.836-.18-1.308 0-.472.064-.904.192-1.296.136-.4.328-.744.576-1.032.248-.288.552-.512.912-.672.36-.16.788-.24 1.284-.24.504 0 .94.1 1.308.3.368.2.664.464.888.792.224.32.38.668.468 1.044.096.376.136.724.12 1.044 0 .072-.004.144-.012.216 0 .072-.004.144-.012.216h-4.692zm3.684-.888c-.016-.536-.184-.972-.504-1.308-.32-.336-.748-.504-1.284-.504-.296 0-.556.048-.78.144a1.597 1.597 0 00-.564.396 1.906 1.906 0 00-.36.588 2.449 2.449 0 00-.168.684h3.66zM38.199 48v-2.724h-1.056L35.499 48H34.31l2.052-3.312-1.872-3.012h1.092l1.668 2.736h.948v-2.736h1.02v2.736h.948l1.668-2.736h1.092l-1.872 3.012L43.107 48h-1.188l-1.644-2.724h-1.056V48h-1.02zm9.923-.804a1.753 1.753 0 01-.468.444 2.75 2.75 0 01-1.116.396 4.264 4.264 0 01-.552.036 3.18 3.18 0 01-.84-.108 2.148 2.148 0 01-.72-.348 1.837 1.837 0 01-.504-.6 1.8 1.8 0 01-.18-.816c0-.36.064-.66.192-.9a1.7 1.7 0 01.54-.6c.224-.152.48-.256.768-.312a4.42 4.42 0 01.936-.096h1.86c0-.536-.116-.96-.348-1.272-.232-.32-.624-.488-1.176-.504-.336 0-.632.056-.888.168a.944.944 0 00-.528.552h-1.092c.056-.288.168-.532.336-.732.168-.208.368-.376.6-.504.232-.136.484-.236.756-.3s.544-.096.816-.096c.472 0 .868.08 1.188.24.328.152.592.356.792.612.2.248.34.552.42.912.08.36.12.764.12 1.212V48h-.852l-.06-.804zm-1.2-2.052h-.672c-.248 0-.488.028-.72.084-.232.048-.42.148-.564.3-.136.152-.204.352-.204.6 0 .184.036.34.108.468.072.128.168.236.288.324.128.088.272.152.432.192.16.04.324.06.492.06.6 0 1.072-.144 1.416-.432.352-.296.532-.724.54-1.284v-.312h-1.116zm9.627 2.928c-.504 0-.94-.08-1.308-.24a2.423 2.423 0 01-.912-.672 2.897 2.897 0 01-.54-1.02 4.37 4.37 0 01-.18-1.284c0-.448.064-.868.192-1.26.128-.4.316-.744.564-1.032.248-.296.56-.528.936-.696.376-.176.832-.264 1.368-.264.32 0 .604.036.852.108.248.064.48.172.696.324.224.144.416.336.576.576.16.24.276.532.348.876h-1.044c-.12-.352-.312-.604-.576-.756a1.677 1.677 0 00-.912-.216c-.344 0-.648.068-.912.204-.256.128-.464.3-.624.516a2.246 2.246 0 00-.336.756c-.072.28-.108.568-.108.864 0 .312.036.608.108.888.08.28.196.528.348.744.16.208.364.376.612.504.248.12.544.18.888.18.168 0 .332-.016.492-.048.168-.032.32-.084.456-.156a1.219 1.219 0 00.6-.78h1.056c-.064.328-.18.612-.348.852a2.21 2.21 0 01-.6.588c-.24.152-.504.264-.792.336a3.697 3.697 0 01-.9.108zm8.6-6.396v.9h-2.171V48h-1.02v-5.424h-2.172v-.9h5.364zm3.695-.072c.504 0 .94.08 1.308.24.368.16.676.384.924.672.256.288.444.632.564 1.032.128.392.192.824.192 1.296 0 .472-.064.908-.192 1.308-.12.392-.308.732-.564 1.02-.248.28-.56.5-.936.66-.376.16-.816.24-1.32.24-.504 0-.944-.08-1.32-.24-.368-.16-.68-.38-.936-.66a2.943 2.943 0 01-.564-1.02c-.12-.4-.18-.836-.18-1.308 0-.472.06-.904.18-1.296.128-.4.316-.744.564-1.032.256-.288.572-.512.948-.672.376-.16.82-.24 1.332-.24zm-.024 5.568c.344 0 .64-.06.888-.18a1.66 1.66 0 00.624-.492c.168-.216.288-.464.36-.744.08-.28.12-.584.12-.912 0-.32-.04-.62-.12-.9a1.9 1.9 0 00-.36-.744 1.614 1.614 0 00-.624-.504 2.021 2.021 0 00-.888-.18c-.344 0-.64.06-.888.18a1.74 1.74 0 00-.624.504c-.16.208-.28.456-.36.744-.072.28-.108.58-.108.9 0 .328.036.632.108.912.08.28.2.528.36.744.168.208.376.372.624.492s.544.18.888.18zm4.377-5.496h1.368l2.052 3.168 2.016-3.168h1.344V48h-1.008v-5.196l-2.232 3.576h-.288l-2.244-3.576V48h-1.008v-6.324zm12.554 5.52a1.753 1.753 0 01-.468.444 2.75 2.75 0 01-1.116.396 4.264 4.264 0 01-.552.036 3.18 3.18 0 01-.84-.108 2.148 2.148 0 01-.72-.348 1.837 1.837 0 01-.504-.6 1.8 1.8 0 01-.18-.816c0-.36.064-.66.192-.9a1.7 1.7 0 01.54-.6c.224-.152.48-.256.768-.312a4.42 4.42 0 01.936-.096h1.86c0-.536-.116-.96-.348-1.272-.232-.32-.624-.488-1.176-.504-.336 0-.632.056-.888.168a.944.944 0 00-.528.552h-1.092c.056-.288.168-.532.336-.732.168-.208.368-.376.6-.504.232-.136.484-.236.756-.3s.544-.096.816-.096c.472 0 .868.08 1.188.24.328.152.592.356.792.612.2.248.34.552.42.912.08.36.12.764.12 1.212V48h-.852l-.06-.804zm-1.2-2.052h-.672c-.248 0-.488.028-.72.084-.232.048-.42.148-.564.3-.136.152-.204.352-.204.6 0 .184.036.34.108.468.072.128.168.236.288.324.128.088.272.152.432.192.16.04.324.06.492.06.6 0 1.072-.144 1.416-.432.352-.296.532-.724.54-1.284v-.312h-1.116zm8.36-3.468v.9H90.74V48h-1.02v-5.424h-2.172v-.9h5.364zm3.695-.072c.504 0 .94.08 1.308.24.368.16.676.384.924.672.256.288.444.632.564 1.032.128.392.192.824.192 1.296 0 .472-.064.908-.192 1.308-.12.392-.308.732-.564 1.02-.248.28-.56.5-.936.66-.376.16-.816.24-1.32.24-.504 0-.944-.08-1.32-.24-.368-.16-.68-.38-.936-.66a2.943 2.943 0 01-.564-1.02c-.12-.4-.18-.836-.18-1.308 0-.472.06-.904.18-1.296.128-.4.316-.744.564-1.032.256-.288.572-.512.948-.672.376-.16.82-.24 1.332-.24zm-.024 5.568c.344 0 .64-.06.888-.18a1.66 1.66 0 00.624-.492c.168-.216.288-.464.36-.744.08-.28.12-.584.12-.912 0-.32-.04-.62-.12-.9a1.9 1.9 0 00-.36-.744 1.614 1.614 0 00-.624-.504 2.021 2.021 0 00-.888-.18c-.344 0-.64.06-.888.18a1.74 1.74 0 00-.624.504c-.16.208-.28.456-.36.744-.072.28-.108.58-.108.9 0 .328.036.632.108.912.08.28.2.528.36.744.168.208.376.372.624.492s.544.18.888.18zm4.906-2.136c.04-.576.068-1.136.084-1.68.024-.544.04-1.104.048-1.68h4.392V48h-1.02v-5.424h-2.376l-.108 2.484c-.016.32-.052.68-.108 1.08s-.172.764-.348 1.092a1.62 1.62 0 01-.552.564c-.232.144-.5.216-.804.216h-.372v-.9c.32 0 .576-.136.768-.408.112-.16.2-.392.264-.696.064-.304.108-.628.132-.972zm8.911-3.432c.504 0 .94.08 1.308.24.368.16.676.384.924.672.256.288.444.632.564 1.032.128.392.192.824.192 1.296 0 .472-.064.908-.192 1.308-.12.392-.308.732-.564 1.02-.248.28-.56.5-.936.66-.376.16-.816.24-1.32.24-.504 0-.944-.08-1.32-.24-.368-.16-.68-.38-.936-.66a2.943 2.943 0 01-.564-1.02c-.12-.4-.18-.836-.18-1.308 0-.472.06-.904.18-1.296.128-.4.316-.744.564-1.032.256-.288.572-.512.948-.672.376-.16.82-.24 1.332-.24zm-.024 5.568c.344 0 .64-.06.888-.18a1.66 1.66 0 00.624-.492c.168-.216.288-.464.36-.744.08-.28.12-.584.12-.912 0-.32-.04-.62-.12-.9a1.9 1.9 0 00-.36-.744 1.614 1.614 0 00-.624-.504 2.021 2.021 0 00-.888-.18c-.344 0-.64.06-.888.18a1.74 1.74 0 00-.624.504c-.16.208-.28.456-.36.744-.072.28-.108.58-.108.9 0 .328.036.632.108.912.08.28.2.528.36.744.168.208.376.372.624.492s.544.18.888.18zm4.376.828v-6.324h4.368v.9h-3.348V48h-1.02zm6.037-8.64c.192 0 .356.064.492.192.136.12.204.28.204.48 0 .2-.068.364-.204.492a.692.692 0 01-.492.192.666.666 0 01-.492-.192.666.666 0 01-.192-.492c0-.2.064-.36.192-.48a.666.666 0 01.492-.192zm-.504 8.64v-6.324h1.02V48h-1.02zm5.585-7.944c.336 0 .604-.064.804-.192.208-.128.312-.352.312-.672h.936c-.016.576-.208.996-.576 1.26-.36.264-.856.396-1.488.396s-1.128-.132-1.488-.396c-.352-.264-.536-.684-.552-1.26h.936c.008.32.112.544.312.672s.468.192.804.192zM123.997 48h-.996v-6.324h1.02v4.848c.056-.112.132-.232.228-.36.096-.136.172-.24.228-.312l3.06-4.176h1.008V48h-1.02v-4.848a5 5 0 01-.42.624L123.997 48zm13.143-3.396c.408.128.692.328.852.6.16.272.24.596.24.972a1.658 1.658 0 01-.24.864 1.76 1.76 0 01-.576.588c-.24.152-.512.264-.816.336a4.047 4.047 0 01-.936.108c-.304 0-.612-.028-.924-.084a2.743 2.743 0 01-.828-.288 1.931 1.931 0 01-.624-.54c-.16-.224-.248-.508-.264-.852h.996a.751.751 0 00.228.42c.12.104.26.192.42.264.168.064.34.112.516.144.184.024.348.036.492.036.168 0 .34-.012.516-.036.184-.024.352-.072.504-.144a.981.981 0 00.372-.3.873.873 0 00.144-.516.96.96 0 00-.108-.456.696.696 0 00-.336-.324 1.22 1.22 0 00-.468-.108 5.456 5.456 0 00-.492-.024h-1.128v-.9h.924c.152 0 .308-.012.468-.036.16-.032.304-.084.432-.156a.916.916 0 00.324-.276c.088-.12.136-.288.144-.504a.704.704 0 00-.12-.42.742.742 0 00-.3-.264c-.12-.072-.26-.12-.42-.144a2.208 2.208 0 00-.456-.048c-.144 0-.296.012-.456.036a1.35 1.35 0 00-.444.12.969.969 0 00-.348.24.738.738 0 00-.18.408h-1.008c.008-.32.084-.588.228-.804.152-.224.344-.4.576-.528a2.46 2.46 0 01.768-.288 3.92 3.92 0 011.68-.012c.28.056.528.152.744.288.216.128.392.3.528.516.136.216.204.484.204.804 0 .288-.068.544-.204.768a1.44 1.44 0 01-.624.54zm7.599.432l.708-.6c.264-.224.508-.464.732-.72.232-.256.428-.524.588-.804.16-.288.244-.6.252-.936.016-.512-.132-.904-.444-1.176-.312-.28-.724-.42-1.236-.42-.408 0-.764.084-1.068.252a1.209 1.209 0 00-.6.732h-1.116c.056-.328.172-.612.348-.852a2.4 2.4 0 01.66-.612c.264-.16.552-.28.864-.36.312-.08.632-.12.96-.12.392 0 .752.056 1.08.168.328.104.612.26.852.468.24.208.424.468.552.78.136.304.204.652.204 1.044s-.06.744-.18 1.056a3.23 3.23 0 01-.468.864 5.234 5.234 0 01-.66.744c-.248.232-.504.464-.768.696l-2.148 1.812h4.32V48h-5.832v-.864l2.4-2.1zm11.344-1.272c0 .544-.056 1.076-.168 1.596a4.11 4.11 0 01-.54 1.392c-.256.4-.596.724-1.02.972-.424.248-.952.372-1.584.372-.64 0-1.172-.124-1.596-.372a2.971 2.971 0 01-1.02-.972 4.114 4.114 0 01-.54-1.368 8.01 8.01 0 01-.156-1.62c0-.576.052-1.116.156-1.62.104-.512.284-.968.54-1.368.256-.4.596-.724 1.02-.972.424-.256.956-.384 1.596-.384.632 0 1.16.124 1.584.372.424.248.764.576 1.02.984.256.408.436.872.54 1.392.112.52.168 1.052.168 1.596zm-5.556 0c0 .384.028.776.084 1.176.056.4.164.764.324 1.092.16.328.384.596.672.804.296.208.684.312 1.164.312.472 0 .852-.104 1.14-.312.296-.208.524-.476.684-.804.16-.328.268-.692.324-1.092.056-.4.084-.792.084-1.176 0-.376-.028-.764-.084-1.164a3.619 3.619 0 00-.324-1.092 2.062 2.062 0 00-.684-.816c-.288-.216-.668-.324-1.14-.324-.48 0-.868.108-1.164.324a2.1 2.1 0 00-.672.816c-.16.328-.268.692-.324 1.092-.056.4-.084.788-.084 1.164zm13.537 0c0 .544-.056 1.076-.168 1.596a4.11 4.11 0 01-.54 1.392c-.256.4-.596.724-1.02.972-.424.248-.952.372-1.584.372-.64 0-1.172-.124-1.596-.372a2.971 2.971 0 01-1.02-.972 4.114 4.114 0 01-.54-1.368 8.01 8.01 0 01-.156-1.62c0-.576.052-1.116.156-1.62.104-.512.284-.968.54-1.368.256-.4.596-.724 1.02-.972.424-.256.956-.384 1.596-.384.632 0 1.16.124 1.584.372.424.248.764.576 1.02.984.256.408.436.872.54 1.392.112.52.168 1.052.168 1.596zm-5.556 0c0 .384.028.776.084 1.176.056.4.164.764.324 1.092.16.328.384.596.672.804.296.208.684.312 1.164.312.472 0 .852-.104 1.14-.312.296-.208.524-.476.684-.804.16-.328.268-.692.324-1.092.056-.4.084-.792.084-1.176 0-.376-.028-.764-.084-1.164a3.619 3.619 0 00-.324-1.092 2.062 2.062 0 00-.684-.816c-.288-.216-.668-.324-1.14-.324-.48 0-.868.108-1.164.324a2.1 2.1 0 00-.672.816c-.16.328-.268.692-.324 1.092-.056.4-.084.788-.084 1.164zm7.932.024a2.45 2.45 0 011.032-.912 3.113 3.113 0 011.32-.288c.432 0 .812.068 1.14.204.336.136.624.32.864.552.24.232.428.512.564.84.136.328.204.692.204 1.092 0 .424-.072.808-.216 1.152a2.64 2.64 0 01-.6.888 2.66 2.66 0 01-.924.576 3.17 3.17 0 01-1.152.204c-.592 0-1.092-.104-1.5-.312a2.87 2.87 0 01-.996-.852 3.706 3.706 0 01-.564-1.248 6.888 6.888 0 01-.18-1.488 9.9 9.9 0 01.144-1.764 4.614 4.614 0 01.516-1.464 3.205 3.205 0 011.044-1.104c.44-.296 1-.444 1.68-.444.304 0 .596.04.876.12.28.08.536.2.768.36.232.152.436.344.612.576.176.232.312.496.408.792h-1.092a1.452 1.452 0 00-.66-.672 1.998 1.998 0 00-.924-.228c-.456 0-.836.108-1.14.324a2.435 2.435 0 00-.732.828 4.085 4.085 0 00-.384 1.116c-.072.4-.108.784-.108 1.152zm4.056 1.596c0-.264-.044-.504-.132-.72a1.664 1.664 0 00-.372-.576 1.475 1.475 0 00-.564-.384 1.839 1.839 0 00-.732-.144c-.256 0-.5.044-.732.132-.224.08-.424.2-.6.36-.176.152-.32.34-.432.564a1.745 1.745 0 00-.156.744 1.724 1.724 0 00.54 1.272c.168.16.364.288.588.384.232.088.48.132.744.132s.508-.044.732-.132c.232-.096.428-.22.588-.372.168-.16.296-.348.384-.564.096-.216.144-.448.144-.696zm6.775 4.896h-1.02v-8.604h.972l.048.972c.216-.344.508-.6.876-.768.376-.176.78-.268 1.212-.276.488 0 .9.084 1.236.252.344.16.628.388.852.684.232.288.404.632.516 1.032.112.392.168.816.168 1.272 0 .464-.056.892-.168 1.284a2.855 2.855 0 01-.516 1.02 2.476 2.476 0 01-.876.684c-.352.16-.772.24-1.26.24-.48 0-.888-.076-1.224-.228a2.259 2.259 0 01-.816-.6v3.036zm1.956-3.108c.344 0 .632-.06.864-.18.24-.128.432-.296.576-.504.152-.216.26-.464.324-.744.072-.28.112-.58.12-.9 0-.32-.036-.62-.108-.9a1.968 1.968 0 00-.324-.744 1.58 1.58 0 00-.6-.492c-.24-.128-.532-.192-.876-.192a1.7 1.7 0 00-1.056.336c-.296.216-.52.492-.672.828a2.096 2.096 0 00-.18.576 3.646 3.646 0 00-.048.6c0 .24.016.464.048.672.032.2.092.392.18.576.152.304.372.56.66.768.296.2.66.3 1.092.3z" fill="#43434A"/></svg>