<svg width="24" height="24" fill="none" xmlns="http://www.w3.org/2000/svg"><path d="M16.8 1.6a5.6 5.6 0 00-5.6 5.6c0 3.683 3.641 5.396 4.097 5.806.466.42.85 1.26 1.006 1.793a.53.53 0 00.497.395.528.528 0 00.497-.396c.155-.531.54-1.373 1.006-1.792.456-.41 4.097-2.123 4.097-5.806a5.6 5.6 0 00-5.6-5.6zM3.27 4.013a.84.84 0 00-.87.84v13.742a1.6 1.6 0 001.16 1.54l4.956 1.415c.186.053.382.053.569 0l4.918-1.405a1.6 1.6 0 01.827-.014l5.727 1.433a.84.84 0 001.043-.816v-8.234L20 13.791v5.984l-4.8-1.2v-2.534l-1.6-2.25v4.806l-4 1.144V7.025l.01-.003c.014-.591.1-1.163.25-1.711l-.63.158a1.606 1.606 0 01-.828-.014l-4.93-1.41a.862.862 0 00-.201-.032zM16.8 5.6a1.6 1.6 0 11.001 3.2 1.6 1.6 0 010-3.2zM4 5.861l4 1.142V19.74l-4-1.142V5.861z" fill="#fff"/></svg>