<svg width="24" height="24" fill="none" xmlns="http://www.w3.org/2000/svg"><path d="M16.98 14.311a1.028 1.028 0 00-1.047.006l-1.637.975a1.025 1.025 0 01-1.16-.07c-.58-.453-1.516-1.216-2.33-2.03-.813-.814-1.576-1.749-2.03-2.33a1.025 1.025 0 01-.07-1.16l.976-1.636c.193-.324.194-.726.004-1.05L7.284 2.912a1.035 1.035 0 00-1.142-.483c-.435.106-.999.364-1.59.956C2.701 5.236 1.718 8.359 8.68 15.32s10.084 5.979 11.936 4.127c.592-.593.85-1.158.956-1.593a1.03 1.03 0 00-.48-1.137l-4.11-2.407z" fill="#fff"/></svg>