<svg width="24" height="24" fill="none" xmlns="http://www.w3.org/2000/svg"><path d="M8.8 3.2c-1.8 0-3.252.704-4.198 1.769C3.655 6.034 3.2 7.422 3.2 8.8c0 2.063.369 3.377.766 4.337s.742 1.5.842 2.179v.001c.14.95.32 2.188.722 3.27.2.542.453 1.053.845 1.474.392.42.976.739 1.625.739 1.008 0 1.825-.55 2.285-1.227.46-.677.672-1.453.857-2.175.185-.72.342-1.399.52-1.798.088-.2.178-.317.226-.36.048-.042.033-.04.112-.04.08 0 .065-.002.113.04.048.043.138.16.226.36.178.399.334 1.077.519 1.798.185.722.398 1.498.858 2.175.46.678 1.276 1.227 2.284 1.227.65 0 1.233-.318 1.625-.74.392-.42.645-.931.846-1.473.4-1.082.582-2.32.721-3.27v-.001c.1-.679.446-1.218.843-2.179.396-.96.765-2.274.765-4.337 0-1.378-.455-2.766-1.401-3.831-.947-1.065-2.399-1.77-4.199-1.77-1.289.001-2.194.218-2.797.459-.266.106-.265.148-.428.254-.49-.26-1.481-.712-3.175-.712zm0 1.6c1.804 0 2.752.662 2.752.662a.8.8 0 001.014-.096s.034-.065.431-.224c.398-.159 1.092-.342 2.203-.342 1.4 0 2.348.496 3.002 1.231.653.735.998 1.747.998 2.769s-.093 1.779-.23 2.4h-3.132c-.365-1.365-1.563-2.4-3.038-2.4h-1.6c-1.475 0-2.672 1.035-3.037 2.4H5.03c-.137-.621-.23-1.378-.23-2.4s.345-2.034.999-2.769C6.452 5.296 7.4 4.8 8.8 4.8zm2.4 5.6h1.6c.893 0 1.6.707 1.6 1.6a.8.8 0 00.8.8h3.231c-.319.706-.687 1.356-.823 2.284-.139.943-.325 2.104-.637 2.947-.157.422-.347.756-.518.94-.17.183-.268.229-.453.229-.519 0-.706-.15-.96-.523-.252-.373-.458-.997-.632-1.675-.174-.68-.317-1.401-.606-2.052-.145-.325-.33-.645-.63-.91-.16-.14-.41-.158-.627-.235A.8.8 0 0012 13.6a.8.8 0 00-.544.205c-.217.077-.467.094-.628.236-.299.264-.484.583-.63.909-.29.65-.432 1.373-.606 2.052-.174.678-.38 1.302-.632 1.675-.253.372-.44.523-.96.523-.184 0-.282-.046-.453-.23-.17-.183-.36-.517-.517-.939-.313-.843-.499-2.004-.638-2.947v-.001c-.136-.928-.504-1.577-.823-2.283H8.8a.8.8 0 00.8-.8c0-.893.707-1.6 1.6-1.6z" fill="#fff"/></svg>