<svg width="16" height="16" fill="none" xmlns="http://www.w3.org/2000/svg"><path d="M8 0a8.001 8.001 0 11-8 8 8 8 0 018-8zm.85.8a.998.998 0 00-.884.546A.998.998 0 006.938.82a.995.995 0 00-.766.595c-.03.07-.053.143-.067.215a1 1 0 00-.718-.308.998.998 0 00-.99 1.1.99.99 0 00-1.145.121 1.002 1.002 0 00-.264 1.132.99.99 0 00-1.07.44 1.007 1.007 0 00.062 1.161 1 1 0 00-.902.726 1.002 1.002 0 00.38 1.094 1.002 1.002 0 00-.659.952c.004.438.288.812.68.944a1.02 1.02 0 00-.373 1.104c.121.402.484.688.895.713a1.008 1.008 0 00-.038 1.148.992.992 0 001.065.43 1.005 1.005 0 00.28 1.122.989.989 0 001.145.106 1 1 0 00.99 1.09c.27 0 .53-.111.717-.305l.011-.012a.994.994 0 00.978.813.997.997 0 00.885-.547.997.997 0 001.028.527.99.99 0 00.766-.595c.03-.07.053-.142.067-.215a1 1 0 001.136.215.999.999 0 00.57-1.005.99.99 0 001.145-.121 1.003 1.003 0 00.267-1.133.99.99 0 001.07-.44 1.005 1.005 0 00-.063-1.161c.42-.024.786-.316.902-.727a1 1 0 00-.38-1.093 1.002 1.002 0 00.659-.952 1.004 1.004 0 00-.68-.944 1.001 1.001 0 00.373-1.104 1.006 1.006 0 00-.895-.713 1.004 1.004 0 00-.798-1.605.98.98 0 00-.23.027 1.004 1.004 0 00-.28-1.122.989.989 0 00-1.144-.106 1 1 0 00-.99-1.09c-.27 0-.53.111-.717.305l-.011.012A.994.994 0 008.85.8zm-.982 13.122c.085.261.05.52-.098.727l-.06.071a.763.763 0 01-.665.24.759.759 0 01-.593-.45.795.795 0 01.082-.775c.354-.529.512-.769.815-1.229l.02-.027.022-.033c.175.553.273.854.477 1.476zm1.658-.203a.798.798 0 01.09.776.763.763 0 01-.702.464.765.765 0 01-.616-.316.796.796 0 01-.103-.723c.2-.635.283-.907.46-1.483.324.484.502.743.87 1.283zm-3.314-.078a.802.802 0 01-.217.597.767.767 0 01-.55.235l-.08-.005a.766.766 0 01-.674-.665.792.792 0 01.294-.72c.509-.425.727-.608 1.184-.995.013.582.022.898.043 1.553zm4.854-.589a.794.794 0 01.303.718l-.019.098a.759.759 0 01-.738.578.768.768 0 01-.547-.231.799.799 0 01-.22-.592c.014-.665.018-.95.027-1.553.446.37.689.569 1.194.982zM8.02 11.608a.45.45 0 01.37.193c.102.146.113.349.033.572a26.15 26.15 0 00-.39 1.249c-.113-.348-.28-.873-.398-1.23-.081-.242-.066-.46.043-.612a.407.407 0 01.336-.172h.006zm-3.31 1.297c-.096.372-.392.612-.753.612a.762.762 0 01-.496-.186l-.071-.07a.773.773 0 01-.187-.632.788.788 0 01.486-.607c.606-.263.866-.378 1.414-.62-.15.563-.23.868-.393 1.504zm7.64-.928a.789.789 0 01.492.602.769.769 0 01-.25.704l-.054.044a.758.758 0 01-.45.147c-.357 0-.65-.236-.75-.603-.172-.643-.248-.917-.408-1.498.53.229.82.351 1.42.604zm-5.466-.507a.461.461 0 01.428.31c.046.14.021.299-.066.458l-.037.054a4.101 4.101 0 01-.052.081c-.22.306-.511.752-.703 1.052-.01-.366-.022-.917-.035-1.292-.007-.222.051-.412.167-.531a.411.411 0 01.298-.132zm2.281.002a.44.44 0 01.325.14c.109.116.159.288.146.5a25.04 25.04 0 00-.026 1.31 152.32 152.32 0 00-.725-1.068l-.05-.08c-.106-.185-.133-.368-.078-.523a.412.412 0 01.278-.26.474.474 0 01.13-.02zm-3.247-.5a.42.42 0 01.17.066.465.465 0 01.206.367c.004.177-.097.354-.285.498-.3.229-.724.59-1.003.831.096-.353.238-.885.332-1.249.1-.38.333-.517.518-.517l.062.003zm4.28-.022c.243 0 .43.186.501.5.084.369.237.907.34 1.263-.28-.233-.703-.582-.993-.818-.198-.163-.302-.355-.29-.543a.416.416 0 01.195-.33.465.465 0 01.247-.072zm-6.723.825a.78.78 0 01-.676.405.76.76 0 01-.641-.35.772.772 0 01.27-1.092.935.935 0 00.102-.048.884.884 0 01.211-.053c.656-.08.937-.117 1.53-.193-.301.497-.462.769-.796 1.331zm9.81-1.2h.002a.785.785 0 01.64.44c.115.241.1.521-.042.747a.76.76 0 01-.646.357.791.791 0 01-.671-.396c-.346-.568-.496-.81-.812-1.321.573.069.884.103 1.529.174zm-8.302-.35c.122 0 .234.053.314.15a.464.464 0 01.1.41l-.02.061c-.06.144-.195.261-.388.338-.35.137-.856.368-1.192.523.188-.314.47-.786.66-1.11.138-.236.33-.371.526-.371zm6.096-.016c.193 0 .37.126.497.354l.156.27c.17.287.376.611.525.845-.335-.143-.838-.357-1.183-.5-.235-.1-.39-.254-.431-.438a.417.417 0 01.094-.371.46.46 0 01.342-.16zM8.51 4.327a.694.694 0 00.624.411.632.632 0 00.37-.12.7.7 0 00.309.505.638.638 0 00.588.066.703.703 0 00.158.561c.124.146.302.23.491.23h.018a.7.7 0 00-.007.59c.086.195.255.33.459.373l-.004.004a.7.7 0 00-.16.553.648.648 0 00.305.469.686.686 0 00-.322.493.642.642 0 00.169.546.69.69 0 00-.426.373.647.647 0 00.02.596h-.021a.69.69 0 00-.515.238.649.649 0 00-.155.537.668.668 0 00-.583.073.648.648 0 00-.303.513v.002a.67.67 0 00-.358-.102.708.708 0 00-.192.027.64.64 0 00-.419.367.693.693 0 00-.534-.26h-.008a.64.64 0 00-.513.256.698.698 0 00-.615-.392c-.13 0-.255.04-.363.115a.7.7 0 00-.305-.507.637.637 0 00-.581-.071.703.703 0 00-.161-.551.642.642 0 00-.487-.23.703.703 0 000-.563.643.643 0 00-.489-.383.703.703 0 00.155-.548.643.643 0 00-.297-.463.69.69 0 00.328-.5.644.644 0 00-.176-.55.69.69 0 00.422-.373.648.648 0 00-.013-.584l.025.002a.691.691 0 00.52-.243.648.648 0 00.15-.537.684.684 0 00.555-.082.647.647 0 00.303-.498.675.675 0 00.555.082.641.641 0 00.436-.399c.126.15.315.239.517.242h.008a.64.64 0 00.523-.268zM2.072 9.036c.049 0 .1.004.15.012.652.109.932.153 1.522.247-.427.392-.657.607-1.134 1.053a.928.928 0 01-.177.13.773.773 0 00-.105.049.743.743 0 01-.267.05.77.77 0 01-.73-.548l-.021-.088a.782.782 0 01.14-.595.764.764 0 01.622-.31zm11.884-.084a.771.771 0 01.744.982l-.045.12a.767.767 0 01-.69.439.781.781 0 01-.474-.166 20.4 20.4 0 01-.123-.106c-.416-.378-.628-.57-.994-.898l-.061-.06-.031-.03c.565-.095.873-.151 1.51-.265h.002a.886.886 0 01.162-.016zm-9.57.318c.177 0 .322.095.39.253a.465.465 0 01-.023.42c-.09.152-.27.245-.506.263-.374.03-.925.102-1.289.153.27-.245.675-.615.95-.87.155-.144.32-.219.479-.219zm7.315-.056c.114 0 .23.042.34.123l.062.054c.04.037.079.07.115.104.268.258.641.59.897.814l-1.274-.147c-.254-.028-.444-.135-.535-.299a.415.415 0 01-.013-.382.45.45 0 01.408-.267zM8 5.958a2.09 2.09 0 10.001 4.18A2.09 2.09 0 008 5.957zM3.972 8.162c.24 0 .422.147.453.368a.465.465 0 01-.105.368.52.52 0 01-.41.166.859.859 0 01-.176-.019 23.68 23.68 0 00-1.283-.203c.259-.13.623-.313.928-.47l.32-.156.07-.024c.07-.02.137-.03.203-.03zm8.054-.06c.11 0 .229.035.35.1.333.175.838.41 1.173.562-.358.064-.896.16-1.262.227-.267.05-.498-.01-.625-.16l-.051-.073a.416.416 0 01-.043-.26.45.45 0 01.458-.396zm-10.232-.83a.84.84 0 01.368.088c.593.288.85.41 1.387.667l-.058.028c-.066.034-.14.07-.215.11-.362.178-.634.315-1.105.551a.767.767 0 01-1.14-.67l.005-.077a.772.772 0 01.219-.471.753.753 0 01.539-.227zm12.413-.082c.417 0 .759.342.762.764l-.004.077a.772.772 0 01-.219.471.753.753 0 01-.539.227.822.822 0 01-.29-.056l-.119-.053c-.563-.273-.82-.396-1.342-.645l.063-.03c.183-.095.415-.212.64-.326l.67-.336a.844.844 0 01.378-.093zm-10.47-.18c.266-.051.498.009.625.159.08.092.113.21.095.333a.451.451 0 01-.459.396l-.083-.007a.826.826 0 01-.266-.092 24.754 24.754 0 00-1.173-.56c.358-.064.895-.161 1.26-.23zm8.362-.076c.057 0 .117.007.18.02.368.074.918.154 1.282.203l-.505.253-.777.384a.733.733 0 01-.24.044c-.24 0-.423-.15-.453-.37a.465.465 0 01.105-.367.518.518 0 01.408-.167zM2.036 5.507c.195 0 .383.076.541.22.49.446.701.636 1.148 1.037-.57.097-.878.152-1.518.267a.948.948 0 01-.162.015.77.77 0 01-.744-.981l.046-.119a.767.767 0 01.689-.439zm11.905-.084a.77.77 0 01.73.548l.021.088a.78.78 0 01-.14.595.765.765 0 01-.725.304l-.03-.004c-.006 0-.012-.002-.017-.003-.651-.108-.93-.152-1.52-.246l.04-.033c.053-.052.114-.108.177-.167.244-.225.437-.407.708-.66l.25-.232a.886.886 0 01.134-.091.84.84 0 00.105-.05.755.755 0 01.267-.049zm-9.768.41c.254.027.445.134.536.298.066.12.07.258.012.382l-.031.058a.447.447 0 01-.377.209c-.15 0-.307-.075-.45-.217-.27-.265-.686-.634-.964-.877.361.043.904.106 1.274.147zm8.856-.16a96.79 96.79 0 00-.707.658l-.249.228a.672.672 0 01-.414.166.412.412 0 01-.386-.25.464.464 0 01.018-.421c.09-.153.268-.247.503-.268.375-.032.924-.11 1.288-.163l-.053.05zm-8.085-.845c.237.097.392.25.436.434a.416.416 0 01-.09.372.458.458 0 01-.346.162c-.191 0-.368-.124-.496-.348l-.159-.27a33.293 33.293 0 00-.533-.84c.336.14.842.35 1.188.49zm6.546.675l-.05.056a.548.548 0 01-.39.188.404.404 0 01-.313-.149.463.463 0 01-.1-.409c.043-.172.188-.314.408-.4.348-.137.85-.365 1.184-.52-.284.48-.443.746-.74 1.234zM2.762 3.88c.264 0 .518.145.67.397.347.567.497.81.813 1.321-.574-.07-.885-.103-1.532-.175a.786.786 0 01-.64-.438.772.772 0 01.689-1.105zM13.2 3.82c.26 0 .5.132.641.351l.05.085a.773.773 0 01-.319 1.005 1.19 1.19 0 00-.103.048.824.824 0 01-.116.036l-.173.027c-.598.073-.88.11-1.442.183A.766.766 0 0113.2 3.821zm-7.25.28c.199.161.302.354.29.541a.414.414 0 01-.195.33.47.47 0 01-.248.072c-.242 0-.43-.187-.501-.5a25.32 25.32 0 00-.338-1.265c.28.234.703.584.992.821zm4.736.379c-.098.383-.332.52-.518.52a.46.46 0 01-.437-.437c-.005-.158.075-.316.226-.452l.003-.003.036-.03.016-.013c.3-.23.723-.593 1.001-.836-.094.354-.234.887-.327 1.25zM3.91 2.524c.357 0 .652.237.75.603.173.643.248.919.409 1.499-.531-.23-.82-.352-1.42-.604a.79.79 0 01-.492-.602.77.77 0 01.753-.896zm8.133-.042a.76.76 0 01.497.186l.07.07a.773.773 0 01-.195 1.185l-.234.11c-.516.225-.777.34-1.284.563.151-.562.23-.867.393-1.503.096-.37.391-.61.753-.611zm-4.92 1.182c.143.213.187.428.123.605a.411.411 0 01-.28.258.47.47 0 01-.127.017.438.438 0 01-.327-.142c-.108-.116-.158-.29-.143-.502l.017-.31c.013-.336.018-.72.02-.999a129 129 0 00.716 1.073zm2.474.142l.003.083c-.002.202-.06.372-.167.484a.411.411 0 01-.424.113.46.46 0 01-.303-.291c-.048-.146-.02-.313.078-.48l.003-.005c.02-.028.037-.055.054-.082.221-.306.52-.77.718-1.08.01.355.025.885.038 1.258zm-1.23-.23c.08.242.065.46-.044.612a.41.41 0 01-.336.173h-.006a.458.458 0 01-.371-.194c-.1-.146-.111-.35-.03-.573.127-.357.288-.892.392-1.248.11.35.278.873.396 1.23zM5.39 1.554c.204 0 .404.084.546.231a.797.797 0 01.221.592c-.014.665-.018.95-.027 1.553-.445-.37-.689-.569-1.195-.982a.795.795 0 01-.302-.718l.019-.098a.762.762 0 01.738-.578zm5.166-.027a.766.766 0 01.755.669.793.793 0 01-.296.721c-.503.42-.72.604-1.169.983l-.014.012v-.023a1.617 1.617 0 00-.002-.088c-.012-.515-.021-.83-.04-1.443a.8.8 0 01.216-.596.766.766 0 01.55-.235zm-3.47-.486c.242 0 .474.118.617.316.15.205.185.462.103.723-.2.635-.284.908-.46 1.483-.286-.427-.46-.68-.75-1.107a237.78 237.78 0 01-.166-.25.781.781 0 01-.045-.7l.046-.089a.758.758 0 01.656-.376zm1.87-.002a.758.758 0 01.593.45.782.782 0 01-.032.691l-.103.163a189.471 189.471 0 00-.765 1.155l-.04.058c-.174-.554-.272-.855-.475-1.477a.793.793 0 01.098-.727l.059-.072a.763.763 0 01.665-.24z" fill="#82C83C"/></svg>