<svg width="24" height="24" fill="none" xmlns="http://www.w3.org/2000/svg"><path d="M5.6 2.4A1.6 1.6 0 004 4v16.8a1.6 1.6 0 001.6 1.6h12.8a1.6 1.6 0 001.6-1.6V8.4a.8.8 0 00-.234-.566l-5.2-5.2A.8.8 0 0014 2.4H5.6zm8 1.523L18.477 8.8H14.4a.8.8 0 01-.8-.8V3.923zm-2.338 5.918c.435 0 .8.183 1.025.517.183.267.27.61.27 1.051 0 .756-.338 1.943-.865 3.214.255.577.551 1.148.867 1.668.735.004 1.744.071 2.568.348 1.184.397 1.434 1.05 1.434 1.528 0 .689-.56 1.433-1.788 1.433-.908 0-1.92-.921-2.793-2.183-.637.02-1.242.083-1.797.177-1.018 1.665-2.171 2.967-3.05 2.967-.967 0-1.292-.955-1.292-1.39 0-1.371 1.733-2.181 3.648-2.577.362-.617.712-1.284 1.014-1.946-.446-1.104-.72-2.185-.72-2.987 0-.509.104-.921.31-1.228.258-.383.674-.592 1.17-.592zm-.001 1.118c-.174 0-.213.06-.24.099-.044.066-.12.233-.12.603 0 .41.082.889.224 1.401.21-.654.33-1.25.313-1.721-.013-.381-.105-.382-.177-.382zm2.103 6.485c.514.63 1.018 1.036 1.408 1.036.46 0 .667-.158.667-.314 0-.148-.261-.33-.669-.468-.37-.124-.852-.21-1.406-.254zm-4.766.536c-1.012.341-1.639.785-1.639 1.189 0 0 .046.271.172.271.304-.021.858-.601 1.467-1.46z" fill="#fff"/></svg>