<svg width="24" height="24" fill="none" xmlns="http://www.w3.org/2000/svg"><path d="M12.801 2.4a.8.8 0 100 1.6c3.986 0 7.2 3.213 7.2 7.2a.8.8 0 101.6 0c0-4.851-3.95-8.8-8.8-8.8zm-6.61 1.603a.949.949 0 00-.304.025c-.397.096-.912.331-1.452.871-1.69 1.69-2.587 4.54 3.77 10.897 6.355 6.357 9.205 5.46 10.896 3.77.542-.543.777-1.058.873-1.456a.94.94 0 00-.439-1.037l-3.753-2.199a.94.94 0 00-.956.005l-1.494.89a.937.937 0 01-1.059-.062 24.503 24.503 0 01-2.127-1.854 24.23 24.23 0 01-1.854-2.127.936.936 0 01-.063-1.06l.89-1.493a.943.943 0 00.004-.96L6.929 4.469a.947.947 0 00-.737-.465zm6.61 1.596a.8.8 0 100 1.6c2.219 0 4 1.782 4 4a.8.8 0 101.6 0c0-3.083-2.516-5.6-5.6-5.6zm0 3.2a.8.8 0 100 1.6c.452 0 .8.349.8.8a.8.8 0 101.6 0c0-1.315-1.084-2.4-2.4-2.4z" fill="#82C83C"/></svg>