<svg width="404" height="188" fill="none" xmlns="http://www.w3.org/2000/svg"><path d="M510.859.002c0-59.021-47.834-106.856-106.857-106.856-59.024 0-106.857 47.834-106.857 106.856.001 59.021 47.834 106.852 106.857 106.852V121.2l-3.131-.041c-64.458-1.634-116.397-53.572-118.03-118.03L282.8.002c0-66.944 54.257-121.202 121.202-121.202l3.127.041C472.628-119.5 525.2-65.897 525.2.002l-.037 3.127C523.503 68.627 469.9 121.2 404.002 121.2v-14.346c59.022 0 106.856-47.831 106.857-106.852z" fill="#82C83C"/><path d="M771.028 50.769c7.729-2.804 14.773-7.297 20.713-13.326 10.585-10.714 16.334-24.962 16.258-40.054-.152-24.655-16.106-45.585-38.075-52.997a56.208 56.208 0 0012.184-12.097c10.509-14.285 13.745-32.911 8.719-49.885-6.777-22.543-27.147-38.557-50.183-39.939a59.65 59.65 0 005.864-9.87c8.262-17.78 6.853-38.211-3.732-54.609-10.318-16.014-27.909-25.615-46.909-25.615a55.02 55.02 0 00-12.907 1.536c1.408-3.725 2.474-7.603 3.084-11.636 2.931-19.393-4.074-38.556-18.81-51.306a55.426 55.426 0 00-36.323-13.557c-10.091 0-19.647 2.689-27.91 7.566a57.422 57.422 0 00-.266-12.251c-2.589-19.47-14.697-35.868-32.364-43.933-7.273-3.341-14.964-4.992-22.922-4.992-15.078 0-29.699 6.259-40.207 17.128-.191.23-.419.46-.61.691a56.623 56.623 0 00-3.807-12.212c-7.958-17.896-24.178-30.185-43.368-32.873-2.551-.384-5.178-.538-7.729-.538-17.82 0-34.725 8.756-45.234 23.349-1.675 2.343-3.122 4.8-4.417 7.297-1.256-2.42-2.665-4.762-4.302-6.99-10.471-14.478-27.377-23.157-45.082-23.157-2.741 0-5.559.231-8.3.615-19.152 2.918-35.22 15.361-42.987 33.334a57 57 0 00-3.694 12.058c-.076-.115-.19-.23-.304-.346-10.433-10.752-25.016-16.935-39.979-16.935-8.148 0-16.03 1.766-23.455 5.261-17.591 8.218-29.508 24.77-31.907 44.24a56.661 56.661 0 00-.152 12.174c-8.148-4.608-17.439-7.143-27.491-7.143a55.575 55.575 0 00-36.781 13.94c-14.582 12.865-21.436 32.144-18.276 51.499a54.843 54.843 0 003.389 12.058c-4.15-.96-8.415-1.497-12.755-1.497-19.305 0-36.934 9.792-47.252 26.191-10.395 16.513-11.537 36.943-3.122 54.609a53.99 53.99 0 006.587 10.56c-23.53 1.306-44.091 17.666-50.602 40.708-4.874 17.166-1.561 35.177 9.138 49.463A56.46 56.46 0 0036.972-50.77c-7.73 2.765-14.773 7.297-20.713 13.326C5.674-26.729-.075-12.481.001 2.611c.152 24.617 16.106 45.585 38.075 52.997a56.2 56.2 0 00-12.184 12.097c-10.509 14.247-13.745 32.911-8.72 49.847 6.778 22.542 27.149 38.595 50.184 39.977a56.561 56.561 0 00-5.863 9.87c-8.263 17.78-6.854 38.172 3.73 54.571 10.32 16.052 27.91 25.653 46.91 25.653a55.02 55.02 0 0012.907-1.536c-1.408 3.725-2.474 7.604-3.084 11.597-2.931 19.394 4.074 38.595 18.81 51.345a55.427 55.427 0 0036.324 13.557c10.09 0 19.646-2.689 27.909-7.566a57.422 57.422 0 00.266 12.251c2.589 19.432 14.697 35.868 32.364 43.933 7.273 3.302 14.964 4.992 22.922 4.992 15.078 0 29.699-6.26 40.208-17.128.19-.23.418-.46.609-.691a56.623 56.623 0 003.807 12.212c7.958 17.896 24.178 30.185 43.368 32.873 2.551.346 5.178.538 7.729.538 17.82 0 34.725-8.756 45.234-23.387 1.675-2.305 3.122-4.762 4.417-7.297 1.256 2.419 2.665 4.8 4.302 7.028 10.471 14.478 27.377 23.118 45.082 23.118 2.741 0 5.559-.192 8.3-.614 19.152-2.88 35.258-15.323 42.987-33.334a56.334 56.334 0 003.694-12.058c.076.115.19.268.304.345 10.433 10.753 25.016 16.936 39.979 16.936 8.148 0 16.03-1.767 23.455-5.223 17.591-8.257 29.508-24.77 31.907-44.24.495-4.148.533-8.219.152-12.174 8.148 4.608 17.439 7.143 27.491 7.143a55.575 55.575 0 0036.781-13.94c14.583-12.904 21.436-32.144 18.276-51.499a55.124 55.124 0 00-3.389-12.097 54.417 54.417 0 0012.755 1.536c19.305 0 36.934-9.792 47.252-26.191 10.433-16.513 11.537-36.943 3.122-54.609a54.003 54.003 0 00-6.587-10.561c23.531-1.344 44.092-17.703 50.602-40.745 4.874-17.128 1.561-35.139-9.138-49.425a55.592 55.592 0 00-12.222-11.943zM448.225-240.71c1.066-1.575 2.056-3.111 3.046-4.609 12.412-17.204 29.203-43.241 40.283-60.638.533 19.97 1.371 49.694 2.133 70.662l.114 4.608c-.114 11.329-3.351 20.891-9.329 27.151-4.569 4.8-10.508 7.412-16.829 7.412a22.92 22.92 0 01-6.968-1.076c-8.11-2.496-14.43-8.602-16.981-16.321-2.704-8.18-1.143-17.55 4.378-26.959l.153-.23zm237.933 110.14c-11.651 10.791-26.843 24.885-39.675 36.943-4.302 3.956-8.871 8.142-13.897 12.75-7.615 6.106-15.573 9.332-23.264 9.332-9.709 0-17.858-5.261-21.703-13.979-3.465-7.795-3.046-16.628 1.066-23.656 5.026-8.602 15.04-13.902 28.252-15.054 21.017-1.805 51.82-6.144 72.229-9.14-1.028.922-2.018 1.882-3.008 2.804zM385.895 212.1c4.417-6.183 11.27-9.678 18.847-9.678h.305c8.453.077 16.22 4.148 20.827 10.83 5.674 8.18 6.283 19.586 1.79 32.143-7.12 20.008-16.068 50.078-21.893 70.048-6.283-19.548-15.726-48.964-22.351-68.972-4.531-13.595-3.655-25.846 2.475-34.371zm67.813 32.182c-8.187-11.867-10.7-23.887-7.197-33.833 2.589-7.22 8.301-12.52 15.611-14.594a26.488 26.488 0 017.311-1.036c7.044 0 13.516 2.803 18.238 7.872 6.092 6.49 8.909 16.168 8.186 28.034-1.257 21.276-1.485 52.651-1.485 73.465-11.461-17.012-28.747-42.55-40.664-59.87m151.007-100.501c10.318 18.549 27.033 45.086 38.189 62.559-18.771-8.026-47.023-20.046-66.365-28.111-13.212-5.53-21.855-14.209-24.216-24.54-1.714-7.45.228-15.015 5.292-20.814 5.026-5.684 11.994-8.948 19.19-8.948 10.852 0 20.751 7.066 27.91 19.816m-49.194 49.77c4.721 20.738 13.25 50.923 19.038 70.892-15.725-13.057-39.408-32.642-55.704-45.93-11.118-9.101-16.944-19.893-16.297-30.453.457-7.643 4.455-14.325 10.928-18.434 4.264-2.688 9.062-4.109 13.897-4.109 13.631 0 24.178 10.446 28.138 28.034zm22.503-82.605h-1.181c-10.889 0-21.474 4.878-28.899 13.326-7.386 8.41-10.433 19.24-8.681 30.108a37.3 37.3 0 00-11.841-1.958c-7.311 0-14.469 2.112-20.828 6.106-10.052 6.375-16.296 16.82-17.019 28.764v.115c-5.94-3.725-12.794-5.722-20.104-5.722-3.617 0-7.273.499-10.776 1.497-10.699 3.034-19.19 10.485-23.492 20.623-7.158-9.025-18.162-14.401-29.966-14.555h-.456c-11.423 0-21.856 5.223-28.785 14.324-4.608-9.6-13.098-17.012-23.607-20.315-3.579-1.113-7.235-1.689-10.89-1.689-7.31 0-14.316 2.265-20.332 6.451-1.142-11.367-7.425-21.851-17.172-28.456-6.054-4.109-12.984-6.26-20.142-6.26-4.341 0-8.529.806-12.451 2.266 1.561-10.868-1.675-22.197-9.024-30.915-6.891-8.18-16.829-12.826-27.338-12.903 4.379-9.793 4.417-21.314 0-31.567-5.026-11.598-15.192-19.47-27.414-21.506 7.044-8.372 10.204-19.547 8.681-30.723-1.523-11.175-7.729-20.392-16.677-25.998 9.709-5.76 16.601-15.707 18.429-27.996 1.599-10.676-1.333-21.084-8.301-29.225a22.7 22.7 0 00-1.561-1.728c10.204-3.15 18.809-10.523 23.645-20.891 4.988-10.6 4.683-22.505-.723-32.758.456.038.951.077 1.408.077 11.042 0 21.703-4.993 29.166-13.633 7.311-8.449 10.242-19.317 8.415-30.108 3.541.998 7.044 1.497 10.356 1.497 7.311 0 14.469-2.112 20.789-6.106 9.862-6.221 16.03-16.359 16.982-27.957 6.092 3.917 13.136 6.029 20.675 6.029 3.541 0 7.082-.461 10.471-1.421 11.384-3.11 20.294-11.252 24.444-22.35 7.12 8.371 17.705 13.364 29.014 13.517h.495c11.727 0 22.426-5.491 29.318-15.015 4.493 10.177 13.288 18.049 24.254 21.429a35.776 35.776 0 0010.737 1.651c7.539 0 14.659-2.342 20.789-6.72 1.181 11.328 7.539 21.812 17.286 28.341 6.016 4.032 12.908 6.144 19.99 6.144 4.531 0 8.91-.844 13.022-2.457-1.79 11.06 1.447 22.657 8.871 31.49 6.93 8.218 16.944 12.904 27.529 12.904.343 0 .685-.039 1.028-.039-4.988 10.177-5.178 22.39-.419 33.104 4.836 10.983 14.317 18.548 25.739 20.968-.038 0-.114.115-.19.192-7.273 8.41-10.471 19.7-8.948 31.068 1.561 11.329 7.92 20.66 17.096 26.267-9.519 5.76-16.296 15.592-18.086 27.689-1.637 10.714 1.295 21.16 8.262 29.263.381.461.8.922 1.219 1.344-10.318 3.072-19 10.523-23.911 20.968-5.064 10.792-4.684 23.004 1.104 33.411m-294.209 55.531c4.569 0 9.024 1.421 12.908 4.032 7.005 4.762 11.308 12.443 11.574 20.584.267 9.947-5.406 19.893-15.953 27.958-16.791 12.826-40.627 33.065-56.276 46.621 5.369-19.855 13.327-49.655 18.619-70.086 5.597-21.39 18.695-29.032 29.09-29.032M258 156.185c-2.437 9.639-10.547 17.589-22.922 22.466-19.647 7.719-48.013 20.622-66.822 29.34 10.547-17.627 26.348-44.125 36.971-62.29 7.73-13.211 18.505-20.814 29.547-20.814 6.853 0 13.098 2.957 17.591 8.333 5.483 6.49 7.577 15.054 5.597 23.004m-36.172-47.198c-5.102 8.526-15.154 13.787-28.404 14.785-21.018 1.652-51.897 5.684-72.343 8.564 15.154-13.786 37.885-34.524 53.267-48.81 8.719-8.065 18.01-12.289 26.919-12.289 9.862 0 18.01 5.3 21.856 14.17 3.35 7.797 2.893 16.629-1.295 23.619M179.488-5.799c-6.206 0-12.755-1.843-19.609-5.453-18.695-9.87-47.023-22.927-65.87-31.452 20.104-3.572 50.26-9.025 70.782-12.865 14.964-2.842 27.948.499 35.106 8.91 4.416 5.184 6.32 11.828 5.292 18.74C203.514-16.897 194.985-5.76 179.45-5.76m40.627-77.69c-4.341 9.217-13.098 14.977-22.922 14.977-8.491 0-17.248-4.186-25.282-12.135-15.116-14.862-38.494-35.6-54.067-49.233 20.256 2.42 50.678 5.991 71.468 8.257 14.24 1.536 24.939 7.489 30.041 16.705 3.732 6.682 3.998 14.478.724 21.468m-15.345-59.832c-10.509-18.434-27.452-44.817-38.799-62.213 18.848 7.872 47.214 19.624 66.632 27.496 13.289 5.415 21.97 14.017 24.445 24.309 1.789 7.451-.076 15.054-5.102 20.892-5.026 5.799-12.032 9.101-19.343 9.101-10.737 0-20.637-6.951-27.833-19.547m47.633-50.807c-4.684-20.738-13.136-50.961-18.924-70.931 15.725 13.096 39.408 32.758 55.628 46.046 11.156 9.101 16.944 19.931 16.258 30.453-.456 7.642-4.454 14.363-10.927 18.434-4.265 2.65-9.062 4.07-13.898 4.07-13.631 0-24.178-10.445-28.137-28.072zm60.235-35.984c1.409-21.275 1.904-52.65 2.056-73.465 11.308 17.09 28.404 42.781 40.208 60.178 8.072 11.943 10.508 24.002 6.929 33.91-2.627 7.181-8.376 12.442-15.763 14.478-2.323.652-4.721.96-7.082.96-7.082 0-13.593-2.804-18.314-7.95-6.092-6.528-8.872-16.244-8.034-28.149m112.132-18.203c4.493 13.594 3.617 25.845-2.513 34.37-4.417 6.145-11.27 9.678-18.847 9.678h-.343c-8.453-.115-16.22-4.224-20.827-10.868-5.597-8.218-6.245-19.624-1.714-32.182 7.159-20.008 16.182-50.039 22.008-70.009 6.244 19.586 15.649 49.003 22.236 69.011zm175.109 108.181c-7.082 8.756-15.763 13.633-24.673 13.633-6.854 0-13.06-2.957-17.591-8.333-5.483-6.49-7.577-15.054-5.597-22.965 2.437-9.678 10.547-17.627 22.921-22.504 19.533-7.643 47.633-20.431 66.404-29.11-15.915 26.882-24.863 41.821-41.464 69.241m9.633 186.754c-4.417-5.223-6.282-11.828-5.254-18.741 1.675-11.022 10.242-22.159 25.7-22.159 6.207 0 12.832 1.882 19.685 5.53 18.657 9.87 46.985 23.042 65.795 31.568-20.104 3.571-50.26 8.948-70.82 12.75-14.964 2.765-27.948-.576-35.068-8.987m34.611-58.18c-4.646 1.613-9.139 2.42-13.441 2.42-13.517 0-23.759-8.334-25.434-20.662-1.067-7.604 1.104-15.13 5.863-20.66 5.293-6.145 13.212-9.333 22.922-9.333 3.198 0 6.549.346 10.052 1.037 20.713 4.186 51.516 8.68 71.962 11.444-8.186 4.11-18.124 9.102-28.328 14.21-13.517 6.759-26.12 12.98-43.596 21.544zM514.019-218.398a487.61 487.61 0 012.018-1.69c.343-.269.647-.537.952-.768 16.791-12.903 40.512-33.257 56.123-46.89-5.292 19.854-13.136 49.732-18.352 70.162-5.483 21.506-18.619 29.187-29.09 29.187-4.493 0-8.948-1.383-12.793-3.994-7.082-4.685-11.385-12.328-11.689-20.507-.267-8.91 4.188-17.781 12.679-25.385l.152-.153v.038zM162.659 12.135c5.292-2.035 10.395-3.072 15.306-3.072 13.479 0 23.721 8.295 25.435 20.66 1.028 7.605-1.105 15.132-5.902 20.662-5.293 6.106-13.174 9.332-22.921 9.332-3.161 0-6.549-.346-9.976-1.076-20.713-4.147-51.516-8.64-71.963-11.405 14.545-7.335 34.953-17.55 52.049-26.306a5992.308 5992.308 0 0117.972-8.833m197.04 228.729a235.87 235.87 0 01-2.97 4.569c-12.336 17.128-28.67 42.167-39.446 59.026-.495-20.546-1.256-51.46-1.942-72.543-.418-12.481 2.894-23.081 9.367-29.801 4.569-4.762 10.471-7.374 16.753-7.374 2.361 0 4.76.346 7.082 1.076 8.072 2.534 14.355 8.679 16.906 16.398 2.551 7.796 1.218 16.667-3.694 25.576l-2.056 3.073zm331.218-111.293c-20.256-2.381-50.678-5.99-71.467-8.256-14.24-1.536-24.94-7.489-30.042-16.706-3.693-6.682-3.96-14.477-.685-21.467 4.341-9.255 13.098-14.977 22.883-14.977 6.397 0 12.87 2.343 19.114 6.874l3.427 3.072a655.36 655.36 0 016.473 5.838c15.001 14.478 35.981 33.103 50.335 45.661M794.977-2.535c.039 11.56-4.378 22.505-12.45 30.723-8.11 8.218-18.847 12.711-30.232 12.711-5.483 0-10.928-1.075-16.334-3.11-1.714-.807-3.96-1.805-6.587-2.996-31.641-15.323-46.072-22.235-75.352-36.214a146.287 146.287 0 003.541-1.69c10.281-5.3 23.302-11.866 35.943-18.28 10.89-5.453 22.465-11.213 37.619-18.855 6.968-3.457 14.05-5.223 21.17-5.223 23.416 0 42.568 19.24 42.721 42.896m-16.677-111.254c3.883 12.981 1.408 27.343-6.702 38.288-8.148 11.022-20.865 17.397-34.915 17.397-1.904 0-3.845-.154-5.787-.346-.533-.077-1.105-.154-1.676-.23-.304 0-.647-.077-.952-.154-36.514-6.03-52.201-8.525-85.25-13.748.723-.615 1.446-1.267 2.17-1.92 3.046-2.919 6.435-6.068 9.937-9.37 13.708-12.635 24.559-22.774 39.789-37.021 5.788-5.377 10.7-9.908 14.05-13.019 2.399-1.958 4.874-3.687 7.463-5.107 2.018-.845 3.998-1.729 5.902-2.765 4.797-1.805 9.823-2.765 14.963-2.765 18.733 0 35.563 12.634 41.008 30.722m-46.491-101.038c8.11 12.557 9.177 28.264 2.856 41.897-3.884 8.372-10.09 14.939-17.972 19.317-1.979.806-3.883 1.728-5.787 2.727a46.385 46.385 0 01-6.549 1.997c-2.361.384-5.673.883-9.709 1.497-33.507 4.109-49.346 6.183-80.872 10.254a48.365 48.365 0 002.056-3.303c14.126-24.155 37.466-63.134 45.271-76.153 8.605-11.406 20.98-17.857 34.687-17.857 14.583 0 28.062 7.373 35.981 19.662m-73.066-84.295c11.27 9.755 16.677 24.501 14.43 39.363-2.018 13.096-9.709 24.156-21.36 31.068-2.97 1.421-7.577 3.572-13.174 6.183-28.976 12.597-43.559 19.01-72.001 31.568 8.453-31.529 12.87-48.695 22.046-84.372 5.369-20.814 21.931-34.255 42.226-34.255a42.612 42.612 0 0127.871 10.407m-111.371-63.98c6.092 0 11.956 1.306 17.553 3.841 13.555 6.183 22.845 18.779 24.825 33.679 2.056 15.208-4.036 29.955-16.601 40.439-28.252 23.579-40.436 33.871-65.604 55.146l-.799.692v-1.306c0-1.037 0-2.112-.038-3.188 0-.576 0-1.152-.077-1.728-.647-28.879-1.18-46.621-2.246-80.992-.533-16.628 6.359-27.419 12.146-33.449 8.072-8.372 19.266-13.134 30.841-13.134zm-130.37-9.908c8.072-11.213 21.017-17.934 34.687-17.934 1.979 0 3.959.154 5.939.423 14.735 2.035 27.186 11.482 33.24 25.269 5.521 12.404 4.798 26.306-1.789 38.787-1.485 2.343-3.427 5.453-5.788 9.14-17.819 26.728-26.691 40.131-42.835 64.671 0 .038 0 .115-.076.153-.799 1.075-1.485 2.151-2.208 3.226-9.786-31.106-15.307-47.965-26.729-82.874-4.798-14.708-2.856-29.224 5.521-40.822m-103.565 8.641c5.939-13.826 18.276-23.388 32.973-25.615a43.765 43.765 0 016.359-.461c13.554 0 26.538 6.644 34.572 17.742 8.377 11.483 10.395 25.922 5.787 40.554-11.194 35.638-15.915 50.922-25.853 83.219-16.029-23.963-25.739-38.134-42.073-62.098-3.998-6.029-7.272-10.906-9.329-14.017-7.005-12.558-7.957-26.69-2.474-39.324m-98.311 40.63c1.827-14.939 10.966-27.65 24.482-33.948 5.712-2.65 11.728-3.994 17.972-3.994 11.461 0 22.693 4.723 30.651 12.98 5.863 5.991 12.717 16.628 12.374 33.18-.799 37.366-1.028 53.38-1.523 87.214-24.977-20.815-38.608-31.952-67.013-55.147-12.641-10.369-18.847-25.077-16.981-40.285m-68.726 27.228a42.511 42.511 0 0128.213-10.715c20.066 0 36.591 13.288 42.112 33.833 9.709 36.099 13.935 51.537 22.921 84.103-29.775-12.865-46.033-19.701-79.692-33.871-15.039-6.375-25.129-18.664-27.566-33.795-2.437-14.862 2.817-29.647 14.012-39.555zm-72.496 85.446c7.92-12.557 21.436-20.084 36.248-20.084 14.811 0 29.089 8.141 37.656 22.273 19.419 31.837 27.834 45.47 45.539 74.157-32.212-3.917-49.651-5.838-85.937-9.831-16.22-1.805-29.28-10.753-35.905-24.578-6.473-13.595-5.597-29.225 2.399-41.937zM28.177-108.604c5.254-18.433 22.16-31.298 41.16-31.298 10.965 0 21.512 4.262 30.383 12.366 27.529 25.038 39.332 35.676 64.424 58.18-32.022 5.453-49.308 8.564-85.213 15.016a52.94 52.94 0 01-9.062.806c-13.897 0-26.577-6.26-34.687-17.128-8.224-10.983-10.737-24.808-7.044-37.942M13.062 2.535c-.038-11.56 4.378-22.505 12.45-30.723 8.11-8.218 18.848-12.711 30.232-12.711 6.93 0 13.86 1.69 20.675 4.992 33.278 16.168 47.709 23.042 77.826 37.443-1.066.46-2.132.999-3.236 1.536-3.732 1.92-7.806 3.994-12.07 6.183-20.294 9.985-35.601 17.704-62.025 30.953-6.968 3.495-14.05 5.261-21.17 5.261-23.416 0-42.568-19.24-42.72-42.896M29.7 113.827c-3.884-13.019-1.371-27.343 6.7-38.288 8.149-11.06 20.866-17.397 34.916-17.397 2.741 0 5.597.23 8.415.691 36.59 6.068 52.277 8.564 85.403 13.787-23.988 22.043-36.857 34.064-63.586 59.141-3.16 2.918-6.473 5.338-9.976 7.296a63.709 63.709 0 00-5.902 2.727c-4.797 1.843-9.861 2.804-14.963 2.804-18.733 0-35.563-12.635-41.007-30.723m46.528 101.038c-8.11-12.596-9.176-28.264-2.856-41.897 3.884-8.372 10.09-14.939 17.972-19.355a52.604 52.604 0 005.787-2.727 49.571 49.571 0 0111.842-2.919c36.819-4.531 52.544-6.567 85.822-10.868-16.906 27.919-25.93 43.127-44.663 74.694-8.567 14.44-22.35 22.696-37.923 22.696-14.583 0-28.062-7.335-35.981-19.624zm73.105 84.218c-11.271-9.793-16.677-24.501-14.431-39.401 2.323-15.131 12.222-27.612 27.262-34.064 34.039-14.747 48.584-21.198 79.311-34.754-8.453 31.567-12.869 48.695-22.046 84.371-5.368 20.853-21.931 34.294-42.225 34.294-10.204 0-20.104-3.725-27.871-10.407m111.294 64.018c-6.092 0-11.956-1.306-17.553-3.841-13.555-6.183-22.845-18.779-24.825-33.718-2.056-15.207 4.036-29.916 16.601-40.438 28.557-23.81 40.741-34.102 66.403-55.838.724 32.719 1.257 50.423 2.399 87.213.533 16.667-6.358 27.42-12.146 33.488-8.072 8.372-19.266 13.134-30.841 13.134m130.37 9.908c-8.072 11.213-21.017 17.934-34.686 17.934-1.98 0-3.96-.154-5.94-.423-14.735-2.073-27.186-11.482-33.24-25.269-6.206-14.017-4.531-29.839 4.607-43.511 19.837-29.685 28.709-43.165 45.729-68.971.342-.5.723-1.037 1.104-1.536l1.256-1.844c9.824 31.03 15.307 47.889 26.729 82.797 4.798 14.67 2.856 29.148-5.521 40.823m103.566-8.68c-5.94 13.787-18.277 23.388-32.974 25.615a43.902 43.902 0 01-6.358.461c-13.555 0-26.539-6.644-34.573-17.742-8.338-11.483-10.394-25.922-5.787-40.554 11.194-35.638 15.915-50.922 25.853-83.257 18.162 27.15 28.138 41.705 48.813 72.005 9.252 13.518 11.08 29.417 5.026 43.472zm98.348-40.63c-1.827 14.939-10.965 27.65-24.482 33.91-5.711 2.688-11.727 4.032-17.972 4.032-11.46 0-22.693-4.762-30.65-12.98-5.864-6.029-12.718-16.629-12.375-33.18.8-37.366 1.028-53.38 1.523-87.214 25.016 20.815 38.647 31.952 67.013 55.147 12.641 10.331 18.847 25.039 16.981 40.285m68.689-27.305a42.516 42.516 0 01-28.214 10.715c-20.066 0-36.591-13.288-42.112-33.872-9.709-36.06-13.935-51.46-22.921-84.064 29.775 12.865 46.033 19.701 79.692 33.872 15.039 6.336 25.129 18.664 27.566 33.794 2.437 14.862-2.817 29.609-14.011 39.517m72.533-85.331c-7.919 12.557-21.436 20.046-36.248 20.046-14.811 0-29.089-8.103-37.656-22.235-19.419-31.875-27.833-45.508-45.538-74.157 32.135 3.879 49.574 5.838 85.784 9.793h.152c16.22 1.843 29.28 10.753 35.905 24.616 6.473 13.557 5.597 29.225-2.399 41.937zm45.615-102.537c-5.255 18.434-22.16 31.299-41.16 31.299-9.481 0-18.581-3.188-26.653-9.294a1057.723 1057.723 0 01-6.891-5.952c-23.341-21.237-35.258-31.99-55.819-50.423-1.142-1.152-2.323-2.266-3.389-3.341-.609-.576-1.18-1.114-1.751-1.652 31.717-5.376 49.003-8.525 84.756-14.9h.114a49.44 49.44 0 019.062-.845c13.897 0 26.577 6.26 34.687 17.128 8.224 10.945 10.737 24.808 7.044 37.942" fill="#82C83C"/></svg>