<svg width="24" height="24" fill="none" xmlns="http://www.w3.org/2000/svg"><path d="M12 2.4c-5.744 0-10.4 3.94-10.4 8.8 0 2.695 1.434 5.103 3.689 6.717.057 1.23-.133 2.926-1.828 3.708l-.004.002a.4.4 0 00.143.773l.028-.001h.006c1.947-.013 3.6-1.065 4.74-2.177a1.548 1.548 0 011.363-.433c.728.139 1.485.211 2.263.211 5.744 0 10.4-3.94 10.4-8.8 0-4.86-4.656-8.8-10.4-8.8zm0 4.188c.16 0 .322.091.384.275l.926 2.742 2.894.034a.405.405 0 01.238.73l-2.322 1.728.862 2.763a.406.406 0 01-.621.451L12 13.638 9.639 15.31a.406.406 0 01-.622-.451l.862-2.763-2.322-1.728a.405.405 0 01.238-.73l2.894-.034.926-2.742A.398.398 0 0112 6.588z" fill="#82C83C"/></svg>