<svg width="88" height="24" fill="none" xmlns="http://www.w3.org/2000/svg"><path d="M6.306 6.974l1.15 3.404 3.594.042a.323.323 0 01.189.582l-2.883 2.146 1.07 3.43a.323.323 0 01-.494.36L6 14.858l-2.931 2.08a.323.323 0 01-.495-.36l1.07-3.43-2.882-2.146a.323.323 0 01.189-.582l3.593-.042 1.15-3.405a.323.323 0 01.612 0z" fill="#82C83C" opacity=".2"/><path d="M20.357 6.136l1.341 3.972 4.193.049c.36.004.51.464.22.679l-3.363 2.503 1.25 4.002a.377.377 0 01-.578.42L20 15.335l-3.42 2.425a.377.377 0 01-.578-.42l1.25-4.002-3.364-2.503a.377.377 0 01.22-.679l4.193-.048 1.341-3.972a.377.377 0 01.715 0z" fill="#82C83C" opacity=".4"/><path d="M36.408 5.298l1.534 4.54 4.79.055a.43.43 0 01.253.776L39.14 13.53l1.428 4.574a.43.43 0 01-.66.48L36 15.812l-3.909 2.77a.43.43 0 01-.66-.479l1.428-4.573-3.844-2.861a.43.43 0 01.252-.776l4.791-.056 1.534-4.54a.43.43 0 01.816.001z" fill="#82C83C" opacity=".6"/><path d="M54.459 4.46l1.725 5.108 5.39.062a.484.484 0 01.283.873l-4.324 3.218 1.606 5.146a.484.484 0 01-.743.54L54 16.287l-4.398 3.118a.485.485 0 01-.743-.54l1.607-5.145-4.325-3.219a.484.484 0 01.284-.873l5.39-.062L53.54 4.46c.149-.44.77-.44.919 0z" fill="#82C83C" opacity=".8"/><path d="M76.612 1.947l2.3 6.81 7.186.083c.619.007.875.795.379 1.164l-5.766 4.291 2.142 6.861c.184.59-.486 1.077-.99.72L76 17.717l-5.863 4.156c-.504.358-1.175-.13-.99-.719l2.14-6.86-5.765-4.292c-.496-.369-.24-1.157.379-1.164l7.186-.083 2.3-6.81c.198-.585 1.027-.585 1.225.001z" fill="#82C83C"/></svg>