<svg width="60" height="60" fill="none" xmlns="http://www.w3.org/2000/svg"><g clip-path="url(#clip0_947_7977)"><path d="M30 0c-4.575 0-7.547 1.28-9.788 2.475-2.24 1.195-3.684 2.175-5.737 2.175-5.47 0-8.578-.844-10.537-1.313-.98-.234-1.697-.557-2.7-.15-.502.202-.896.708-1.05 1.163C.033 4.805 0 5.245 0 5.738c0 2.371.54 6.112 3.6 9.45v4.425c0 1.307.52 4.27 3.712 5.887.947.478 2.091.919 3.375.75.15-.019.296-.07.45-.113.099.249.211.526.375.788.685 1.12 2.068 2.306 4.425 2.85 1.196.277 2.19.295 3.038.038a3.662 3.662 0 001.087-.525c.849 1.035 2.494 1.912 5.138 1.912 2.278 0 3.872-.74 4.8-1.725.928.984 2.522 1.725 4.8 1.725 2.644 0 4.29-.877 5.138-1.912.314.23.68.398 1.087.524.848.258 1.842.24 3.038-.037 2.357-.544 3.74-1.73 4.424-2.85.165-.262.277-.54.375-.788.155.043.3.094.45.113 1.285.169 2.429-.272 3.376-.75 3.192-1.617 3.712-4.58 3.712-5.887v-4.425c3.06-3.338 3.6-7.079 3.6-9.45 0-.493-.033-.933-.188-1.388-.154-.455-.548-.96-1.05-1.162-1.003-.408-1.72-.085-2.7.15-1.959.468-5.067 1.312-10.537 1.312-2.053 0-3.53-.98-5.775-2.175C37.505 1.28 34.575 0 30 0zm0 2.4c4.148 0 6.506 1.045 8.625 2.175 2.119 1.13 4.083 2.475 6.9 2.475 5.723 0 9.21-.938 11.1-1.388.74-.178.923-.15.975-.187.01.098 0 .103 0 .263 0 2.09-.384 5.174-3.113 8.024-.046.052-.098.099-.15.15-.239.244-.473.474-.75.713-2.587 2.231-6.946 4.266-14.137 5.212-2.695.357-5.784.558-9.338.563h-.225c-3.506-.005-6.553-.216-9.224-.563-.038-.004-.076.005-.113 0-7.19-.946-11.55-2.98-14.138-5.212-.248-.216-.454-.422-.675-.637a1.138 1.138 0 00-.15-.15C2.795 10.968 2.4 7.847 2.4 5.738c0-.16-.01-.165 0-.263.052.038.234.01.975.188 1.89.45 5.377 1.387 11.1 1.387 2.817 0 4.753-1.345 6.862-2.475C23.447 3.445 25.852 2.4 30 2.4zM6 17.325c1.308.947 2.906 1.79 4.8 2.55v3.113c0 .52-.103.726-.15.787-.047.06-.07.09-.263.113-.384.051-1.33-.174-2.024-.526C6.07 22.206 6 20.49 6 19.613v-2.287zm48 0v2.288c0 .876-.07 2.592-2.362 3.75-.694.351-1.641.576-2.026.524-.192-.023-.215-.051-.262-.112-.047-.06-.15-.267-.15-.787v-3.113c1.894-.76 3.492-1.603 4.8-2.55zm-40.8 3.413a42.04 42.04 0 006 1.35v3.487c0 .375-.075 1.106-.337 1.5a.984.984 0 01-.6.45c-.333.103-.896.136-1.8-.075-1.843-.427-2.56-1.167-2.926-1.762-.365-.596-.337-.976-.337-.976v-3.974zm33.6 0v3.974s.028.38-.337.976c-.366.595-1.083 1.335-2.925 1.762-.905.21-1.468.178-1.8.075a.984.984 0 01-.6-.45c-.263-.394-.338-1.125-.338-1.5v-3.488c2.26-.342 4.233-.81 6-1.35zm-25.2 1.65c2.175.239 4.57.38 7.2.412v3.225c0 .37-.038 1.05-.413 1.613-.375.562-1.054 1.162-3.187 1.162-2.156 0-2.91-.586-3.262-1.012-.352-.427-.338-.713-.338-.713v-1.05c.005-.192 0-.356 0-.45v-3.188zm16.8 0v4.687s.014.286-.337.713c-.352.426-1.107 1.012-3.263 1.012-2.133 0-2.812-.6-3.187-1.163-.375-.562-.413-1.242-.413-1.612V22.8c2.63-.033 5.025-.173 7.2-.413zM6.112 38.7c-.609.037-1.335.272-1.837.862-.478.563-.66 1.313-.675 2.138-.113-.066-.272-.164-.375-.225-.502-.295-.84-.548-1.313-.712-.239-.08-.585-.211-1.162.075-.286.14-.534.43-.637.675a1.302 1.302 0 00-.113.562c0 3.112 2.31 7.397 7.162 11.137C12.014 56.953 19.495 60 30 60s17.986-3.047 22.837-6.788C57.69 49.472 60 45.188 60 42.075c0-.155-.01-.319-.112-.563a1.447 1.447 0 00-.638-.675c-.577-.285-.923-.154-1.163-.075-.473.165-.81.418-1.312.713-.103.06-.262.16-.375.225-.014-.825-.197-1.575-.675-2.138-.502-.59-1.228-.825-1.837-.862-1.215-.08-2.288.328-3.075.487a4.868 4.868 0 00-2.925 1.8c-.929-.759-2.377-1.171-4.463-.974-1.987.187-3.31 1.13-4.05 2.137-.938-.773-2.428-1.35-4.575-1.35-2.278 0-3.872.74-4.8 1.725-.928-.984-2.522-1.725-4.8-1.725-2.147 0-3.637.577-4.575 1.35-.74-1.008-2.063-1.95-4.05-2.137-2.086-.197-3.534.215-4.462.974a4.868 4.868 0 00-2.925-1.8c-.788-.159-1.861-.567-3.076-.487zm.188 2.4c.417-.028 1.425.248 2.438.45 1.19.24 1.532.75 1.8 1.463.248.66.262 1.448.262 2.025-1.064-.38-2.077-.746-2.925-1.125a38.227 38.227 0 01-1.875-.9v-1.2c0-.535.112-.675.112-.675s-.018-.024.188-.038zm47.4 0c.206.014.188.038.188.038s.112.14.112.675v1.2a40.1 40.1 0 01-1.875.9c-.848.38-1.86.745-2.925 1.125 0-.577.014-1.365.262-2.025.268-.713.61-1.224 1.8-1.463 1.013-.202 2.02-.478 2.438-.45zm-38.588 1.275a8.17 8.17 0 011.238.038c1.598.15 2.17.787 2.512 1.387.333.581.338 1.055.338 1.088v2.287a50.658 50.658 0 01-6-1.35v-1.8c0-.356.047-.792.3-1.087.192-.22.59-.511 1.613-.563zm29.776 0c1.021.052 1.42.342 1.612.563.253.295.3.73.3 1.087v1.8c-1.758.51-3.736.98-6 1.35v-2.25s.014-.06 0-.188c.014-.164.08-.482.338-.937.342-.6.914-1.237 2.512-1.387a8.343 8.343 0 011.238-.038zM25.2 43.2c2.133 0 2.813.6 3.188 1.162.374.563.412 1.243.412 1.613v1.987c-2.63-.042-5.02-.187-7.2-.45v-2.624c0-.047.019-.286.337-.675.352-.427 1.107-1.013 3.263-1.013zm9.6 0c2.156 0 2.91.586 3.263 1.012.318.39.337.629.337.675v2.626c-2.184.262-4.57.407-7.2.45v-1.988c0-.37.038-1.05.413-1.613.375-.562 1.054-1.162 3.187-1.162zm-31.65.938c.984.576 1.978 1.2 3.75 1.987C11.503 48.173 18.91 50.4 30 50.4c3.54 0 6.67-.262 9.487-.637.085-.01.179.009.263 0a1.25 1.25 0 00.225-.038c.038-.005.075-.033.112-.038 5.715-.815 9.98-2.212 13.013-3.562 1.772-.788 2.766-1.41 3.75-1.987-.731 2.043-2.198 4.673-5.475 7.2C46.965 54.736 40.045 57.6 30 57.6s-16.964-2.864-21.375-6.263c-3.277-2.526-4.744-5.156-5.475-7.2z" fill="#82C83C"/></g><defs><clipPath id="clip0_947_7977"><path fill="#fff" d="M0 0h60v60H0z"/></clipPath></defs></svg>