<svg width="60" height="60" fill="none" xmlns="http://www.w3.org/2000/svg"><path d="M23.494 2.4c-5.66 0-10.368 1.77-13.639 4.913C6.585 10.455 4.8 14.933 4.8 20.1c0 3.812 1.41 6.782 2.967 9.565 1.557 2.782 3.253 5.423 4.181 8.794v-.007c1.072 3.988 1.832 8.553 3.01 12.236.588 1.842 1.273 3.474 2.261 4.742.988 1.267 2.41 2.17 4.088 2.17 1.64 0 3.15-.617 4.137-1.81.987-1.191 1.436-2.834 1.436-4.78 0-4.784.967-11.12 1.946-16.592.165-.786.665-1.02 1.214-1.02.55 0 .998.198 1.127.978l.002.01v.009c.98 5.362 1.95 11.823 1.95 16.614 0 1.947.45 3.59 1.437 4.782.987 1.192 2.496 1.809 4.137 1.809 1.683 0 3.103-.913 4.09-2.189.986-1.276 1.67-2.917 2.259-4.765 1.177-3.694 1.94-8.259 3.01-12.187.927-3.37 2.624-6.012 4.18-8.794 1.556-2.781 2.967-5.751 2.968-9.56.055-5.167-1.703-9.648-4.96-12.79C46.981 4.17 42.274 2.4 36.614 2.4c-2.459 0-4.63.331-6.56.961-1.93-.63-4.102-.961-6.56-.961zm0 2.4c2.41 0 4.46.318 6.159.921l.4.143.401-.143c1.699-.603 3.75-.921 6.16-.921 5.164 0 9.205 1.584 11.96 4.242 2.755 2.658 4.277 6.425 4.226 11.044v.014c0 3.228-1.158 5.703-2.663 8.393-1.504 2.69-3.361 5.549-4.401 9.328v.003c-1.117 4.1-1.887 8.666-2.98 12.093-.545 1.714-1.18 3.131-1.872 4.024-.69.894-1.305 1.259-2.191 1.259-1.093 0-1.771-.316-2.288-.94-.516-.623-.886-1.677-.886-3.25 0-5.104-.997-11.613-1.985-17.028-.309-1.86-1.94-2.983-3.494-2.983a3.677 3.677 0 00-3.565 2.936l-.005.017-.002.016C25.48 39.489 24.48 45.9 24.48 51.009c0 1.574-.37 2.628-.886 3.251-.516.623-1.194.94-2.287.94-.89 0-1.507-.362-2.196-1.247-.69-.884-1.323-2.29-1.868-3.996-1.091-3.412-1.861-7.977-2.977-12.129l-.002-.002v-.005c-.885-3.215-2.351-5.752-3.699-8.097A13.24 13.24 0 0013.2 30c.702 0 1.385-.072 2.058-.178l1.029 3.344a1.2 1.2 0 002.294-.705l-.991-3.227a13.255 13.255 0 006.918-5.66l2 1.094a1.2 1.2 0 101.153-2.105l-2.107-1.153c.538-1.437.846-2.987.846-4.61 0-1.249-.179-2.454-.504-3.6H28.8a1.2 1.2 0 100-2.4h-3.856a13.255 13.255 0 00-5.514-5.625 21.962 21.962 0 014.064-.375zM15.71 6.302a10.8 10.8 0 016.466 4.498H20.4a1.202 1.202 0 00-1.217 1.2 1.2 1.2 0 001.217 1.2h2.983a10.787 10.787 0 01.047 7.05l-3.138-1.718a1.2 1.2 0 10-1.153 2.105l3.274 1.79a10.778 10.778 0 01-5.529 4.517l-.77-2.51a1.2 1.2 0 10-2.295.705l.728 2.37c-.442.055-.89.091-1.347.091a10.72 10.72 0 01-4.28-.898C7.906 24.654 7.2 22.603 7.2 20.1c0-4.622 1.55-8.395 4.32-11.055 1.169-1.124 2.578-2.041 4.19-2.743z" fill="#82C83C"/></svg>