<svg width="60" height="60" fill="none" xmlns="http://www.w3.org/2000/svg"><path d="M30 2.4C14.771 2.4 2.4 14.771 2.4 30c0 15.229 12.371 27.6 27.6 27.6 15.23 0 27.6-12.371 27.6-27.6C57.6 14.771 45.23 2.4 30 2.4zm0 2.4c13.932 0 25.2 11.268 25.2 25.2 0 13.932-11.268 25.2-25.2 25.2C16.07 55.2 4.8 43.932 4.8 30 4.8 16.068 16.07 4.8 30 4.8zm0 12c-3.897 0-7.2 2.897-7.2 6.6 0 2.198 1.169 4.107 2.93 5.3-2.452 1.352-4.13 3.824-4.13 6.7 0 4.353 3.83 7.8 8.4 7.8 4.571 0 8.4-3.447 8.4-7.8 0-2.876-1.677-5.348-4.13-6.7 1.762-1.194 2.93-3.102 2.93-5.3 0-3.703-3.302-6.6-7.2-6.6zm0 2.4c2.73 0 4.8 1.938 4.8 4.2 0 2.262-2.07 4.2-4.8 4.2s-4.8-1.938-4.8-4.2c0-2.262 2.07-4.2 4.8-4.2zM30 30c3.382 0 6 2.462 6 5.4s-2.618 5.4-6 5.4-6-2.462-6-5.4 2.618-5.4 6-5.4z" fill="#82C83C"/></svg>