<svg width="60" height="60" fill="none" xmlns="http://www.w3.org/2000/svg"><path d="M24 4.92c-9.96.24-16.8 6.6-16.8 16.2 0 4.08 1.68 7.08 3.36 9.96 1.2 2.04 2.28 4.08 3 6.6.48 1.56.84 3.36 1.2 5.04 1.44 6.36 2.76 12.36 7.44 12.36 4.44 0 5.04-4.44 5.16-5.88.48-4.8.84-6.6 1.8-11.4.109-.76.686-.827.888-.834a11.893 11.893 0 001.854 5.477c.359 1.94.613 3.7.858 6.396.36 4.92 2.999 5.88 5.159 5.88 3.204 0 4.831-2.924 6.037-6.895a11.958 11.958 0 005.625-2.545l7.212 7.212 1.697-1.697-7.212-7.212A11.932 11.932 0 0054 36c0-3.014-1.135-5.77-2.988-7.884C52.022 26.02 52.8 23.758 52.8 21v-.239c0-.36-.12-.601-.12-.961s-.119-.72-.119-1.2C51.48 10.2 45 4.92 35.76 4.92c-2.16 0-4.08.241-5.88.841-1.8-.6-3.84-.841-5.88-.841zm.119 2.641c1.7 0 3.392.288 4.926.687.077.053.147.117.235.152 1.92.72 3.719 2.04 5.039 3.6.24.24.6.361.96.361.24 0 .6-.121.72-.241.48-.36.6-1.2.12-1.68a17.059 17.059 0 00-2.974-2.7c.867-.12 1.772-.179 2.735-.179 8.04 0 13.56 4.44 14.4 11.52 0 .36.12.598.12.958s-.001.72.119 1.08c0 1.993-.512 3.657-1.299 5.33A11.912 11.912 0 0042 24c-6.07 0-11.113 4.571-11.886 10.44-1.678.001-2.994 1.082-3.354 2.76-.96 4.8-1.32 6.84-1.8 11.64-.36 3.48-1.56 3.721-2.76 3.721-2.64 0-3.84-5.281-5.04-10.441-.36-1.68-.72-3.479-1.2-5.159-.84-2.76-2.041-5.04-3.241-7.08-1.68-2.88-3.12-5.401-3.12-8.761 0-8.28 5.64-13.559 14.52-13.559zM41.999 26.4c3.171 0 5.989 1.563 7.74 3.952-1.3 2.362-2.593 4.734-3.42 7.687-.639 2.341-1.18 4.683-1.714 7.024-.057.073-.114.15-.175.211A9.506 9.506 0 0142 45.6c-5.28 0-9.6-4.32-9.6-9.6 0-5.28 4.32-9.6 9.6-9.6zm9.12 6.623c.308.939.48 1.939.48 2.977 0 3.287-1.674 6.201-4.211 7.934.415-1.782.842-3.584 1.33-5.295.554-2.03 1.465-3.847 2.4-5.616zM34.806 45.572a11.908 11.908 0 006.617 2.398c-.868 2.648-1.942 4.591-3.504 4.591-1.32 0-2.519-.482-2.759-3.722a88.655 88.655 0 00-.354-3.267z" fill="#82C83C"/></svg>