<svg width="60" height="60" fill="none" xmlns="http://www.w3.org/2000/svg"><path d="M57.262 33.775a4.046 4.046 0 001.532-.99A4.122 4.122 0 0060 29.815a4.157 4.157 0 00-2.83-3.933c.34-.25.642-.554.904-.897a4.208 4.208 0 00.642-3.71 4.19 4.19 0 00-3.734-2.969 3.77 3.77 0 00.433-.739 4.175 4.175 0 00-.276-4.052 4.143 4.143 0 00-3.484-1.9c-.328 0-.655.04-.957.118.105-.277.184-.567.223-.87A4.132 4.132 0 0049.52 7.06a4.117 4.117 0 00-2.698-1.003c-.747 0-1.454.198-2.07.554a3.536 3.536 0 00-.026-.91c-.197-1.439-1.088-2.666-2.41-3.26a4 4 0 00-1.704-.37 4.18 4.18 0 00-2.987 1.267c-.013.013-.026.04-.039.053a4.881 4.881 0 00-.288-.91A4.127 4.127 0 0033.497 0a4.136 4.136 0 00-3.68 2.27 3.372 3.372 0 00-.315-.515A4.16 4.16 0 0026.148.04c-.21 0-.406.013-.615.04a4.124 4.124 0 00-3.197 2.467c-.13.29-.223.594-.275.898l-.026-.027a4.135 4.135 0 00-2.974-1.253c-.603 0-1.192.132-1.742.395-1.31.608-2.188 1.835-2.371 3.287-.04.303-.04.607 0 .91a4.1 4.1 0 00-2.044-.527 4.166 4.166 0 00-4.1 4.857c.052.316.13.607.248.897a4.491 4.491 0 00-.943-.105 4.147 4.147 0 00-3.51 1.94 4.175 4.175 0 00-.237 4.052c.131.29.302.54.485.778a4.163 4.163 0 00-3.76 3.023 4.133 4.133 0 00.682 3.669c.262.343.563.647.903.884a4.04 4.04 0 00-1.532.99A4.522 4.522 0 000 30.198a4.169 4.169 0 002.83 3.933c-.34.25-.642.554-.904.898a4.187 4.187 0 003.091 6.665c-.17.224-.314.475-.432.739a4.175 4.175 0 00.275 4.052 4.143 4.143 0 003.485 1.9c.327 0 .655-.04.956-.118a3.938 3.938 0 00-.222.857 4.167 4.167 0 004.1 4.818c.747 0 1.454-.198 2.07-.554-.026.303-.026.607.026.91.197 1.439 1.087 2.666 2.41 3.26.538.251 1.114.37 1.704.37 1.126 0 2.2-.462 2.986-1.267.014-.013.027-.04.04-.053.065.304.157.607.288.91a4.127 4.127 0 003.8 2.482 4.136 4.136 0 003.68-2.27c.092.185.197.356.315.515a4.16 4.16 0 003.353 1.715c.21 0 .407-.013.616-.04a4.124 4.124 0 003.197-2.467c.13-.29.222-.594.275-.898 0 0 .013.027.026.027a4.135 4.135 0 002.974 1.254 4.2 4.2 0 001.742-.383c1.31-.607 2.188-1.835 2.371-3.287.04-.303.04-.607 0-.91a4.1 4.1 0 002.044.527 4.175 4.175 0 002.738-1.029 4.177 4.177 0 001.362-3.828 3.938 3.938 0 00-.249-.897c.302.08.63.119.944.119a4.147 4.147 0 003.51-1.94 4.175 4.175 0 00.236-4.052 3.89 3.89 0 00-.484-.779 4.197 4.197 0 003.76-3.022 4.14 4.14 0 00-.682-3.67 4.113 4.113 0 00-.904-.884M33.288 12.156c.079-.119.157-.225.223-.343.917-1.28 2.174-3.208 2.987-4.501.039 1.478.104 3.682.157 5.24v.343c0 .845-.25 1.544-.694 2.02a1.728 1.728 0 01-1.245.554c-.17 0-.34-.027-.51-.08a1.874 1.874 0 01-1.259-1.214c-.196-.607-.078-1.307.328-1.993l.013-.026zm17.673 8.17c-.865.805-1.992 1.847-2.948 2.745-.314.29-.655.607-1.035.95-.563.449-1.153.686-1.73.686-.72 0-1.322-.396-1.61-1.042a1.925 1.925 0 01.078-1.756c.367-.633 1.114-1.03 2.096-1.121 1.559-.133 3.852-.45 5.371-.674-.078.066-.144.146-.222.212zm-22.297 25.42a1.699 1.699 0 011.401-.726h.027a1.86 1.86 0 011.545.805c.42.607.472 1.452.131 2.389-.524 1.478-1.192 3.722-1.624 5.2-.472-1.452-1.166-3.63-1.664-5.121-.34-1.003-.275-1.914.184-2.547zm5.03 2.389c-.602-.885-.799-1.769-.537-2.508a1.716 1.716 0 011.166-1.082 1.96 1.96 0 01.537-.08c.524 0 1.009.212 1.35.581.445.475.654 1.201.602 2.086-.092 1.583-.105 3.906-.105 5.45a546.777 546.777 0 00-3.026-4.447m11.227-7.457c.773 1.372 2.004 3.339 2.843 4.645a618.752 618.752 0 00-4.926-2.085c-.982-.41-1.624-1.056-1.795-1.821a1.712 1.712 0 01.393-1.545 1.9 1.9 0 011.428-.66c.813 0 1.546.528 2.07 1.465m-3.668 3.696c.354 1.544.983 3.775 1.415 5.266-1.166-.963-2.922-2.428-4.14-3.405-.825-.673-1.257-1.478-1.205-2.257.04-.567.328-1.069.812-1.372a1.932 1.932 0 011.035-.304c1.009 0 1.795.779 2.083 2.085m1.677-6.137h-.092c-.812 0-1.598.356-2.148.99a2.676 2.676 0 00-.642 2.23 2.603 2.603 0 00-.878-.145c-.537 0-1.074.159-1.546.449a2.744 2.744 0 00-1.27 2.138 2.92 2.92 0 00-1.494-.409c-.262 0-.537.04-.799.106-.8.224-1.428.778-1.742 1.53a2.892 2.892 0 00-2.227-1.082h-.04c-.851 0-1.624.383-2.135 1.07a2.86 2.86 0 00-1.756-1.505 2.683 2.683 0 00-2.319.356 2.897 2.897 0 00-1.27-2.112 2.659 2.659 0 00-1.494-.462c-.327 0-.628.066-.93.172a2.909 2.909 0 00-.668-2.297 2.696 2.696 0 00-2.03-.963 2.931 2.931 0 000-2.35 2.688 2.688 0 00-2.03-1.596c.523-.62.759-1.452.641-2.284a2.666 2.666 0 00-1.245-1.927c.721-.422 1.232-1.161 1.363-2.072a2.685 2.685 0 00-.616-2.164c-.04-.04-.078-.093-.118-.132a2.866 2.866 0 001.756-1.544 2.688 2.688 0 00-.053-2.429h.105a2.84 2.84 0 002.162-1.016c.537-.62.76-1.439.629-2.23.262.078.524.105.773.105.537 0 1.074-.159 1.545-.449a2.667 2.667 0 001.258-2.072c.445.29.982.449 1.533.449.262 0 .524-.04.773-.106.851-.224 1.506-.832 1.82-1.663.525.62 1.31.99 2.162 1.003h.04c.877 0 1.663-.41 2.174-1.109a2.871 2.871 0 001.795 1.584c.262.08.537.119.799.119a2.61 2.61 0 001.546-.501 2.903 2.903 0 001.284 2.098 2.6 2.6 0 001.48.449c.34 0 .655-.066.97-.185a2.939 2.939 0 00.654 2.336 2.68 2.68 0 002.044.964h.079a2.922 2.922 0 00-.027 2.454 2.668 2.668 0 001.913 1.558l-.013.013c-.537.62-.773 1.465-.668 2.31a2.71 2.71 0 001.27 1.953c-.707.423-1.204 1.162-1.349 2.06a2.68 2.68 0 00.616 2.177c.026.04.066.066.092.105-.773.225-1.415.78-1.782 1.558a2.68 2.68 0 00.079 2.481m-21.826 4.105c.341 0 .669.105.957.303.524.357.838.924.864 1.532.027.739-.406 1.478-1.179 2.072-1.244.95-3.013 2.455-4.179 3.458.393-1.479.996-3.683 1.389-5.2.42-1.584 1.389-2.152 2.162-2.152m-1.926-.779c-.184.713-.786 1.307-1.703 1.663-1.454.568-3.564 1.531-4.965 2.178a903.935 903.935 0 002.75-4.62c.577-.976 1.376-1.544 2.202-1.544.51 0 .97.225 1.31.62.406.476.563 1.123.419 1.703m-2.712-3.497c-.38.633-1.126 1.03-2.109 1.095-1.559.12-3.851.423-5.371.634 1.127-1.03 2.816-2.56 3.956-3.616.642-.594 1.336-.911 2.005-.911a1.72 1.72 0 011.624 1.056c.249.58.21 1.24-.092 1.755m-3.157-8.54c-.458 0-.943-.131-1.454-.409-1.389-.725-3.498-1.702-4.886-2.336 1.493-.264 3.733-.673 5.253-.95 1.113-.211 2.07.04 2.607.66.327.383.471.884.393 1.386-.118.818-.76 1.65-1.913 1.65zm3.026-5.754c-.327.686-.97 1.109-1.703 1.109-.629 0-1.284-.304-1.873-.898-1.127-1.108-2.856-2.64-4.022-3.656 1.507.185 3.76.45 5.306.607 1.06.12 1.847.555 2.227 1.241a1.72 1.72 0 01.052 1.597m-1.14-4.434c-.786-1.373-2.043-3.326-2.882-4.62 1.402.58 3.511 1.452 4.952 2.033.983.396 1.638 1.042 1.821 1.808.131.554 0 1.122-.38 1.544a1.87 1.87 0 01-1.44.673c-.8 0-1.534-.515-2.07-1.452m3.537-3.761c-.341-1.545-.983-3.788-1.402-5.266 1.166.976 2.921 2.428 4.126 3.418.826.673 1.258 1.478 1.206 2.257a1.735 1.735 0 01-.813 1.372 1.932 1.932 0 01-1.034.304c-1.01 0-1.795-.779-2.084-2.085zm4.48-2.666c.105-1.584.144-3.907.157-5.451a533.04 533.04 0 002.987 4.46c.603.885.786 1.783.51 2.522a1.698 1.698 0 01-1.165 1.069c-.17.053-.354.066-.524.066a1.836 1.836 0 01-1.362-.594c-.446-.489-.655-1.201-.59-2.086m8.319-1.346c.327 1.003.262 1.914-.184 2.548a1.733 1.733 0 01-1.401.725h-.027a1.894 1.894 0 01-1.546-.805c-.419-.607-.458-1.451-.13-2.389.537-1.478 1.205-3.708 1.637-5.2a572.775 572.775 0 001.65 5.121zm12.995 8.038c-.524.647-1.166 1.016-1.834 1.016-.51 0-.97-.224-1.31-.62a1.936 1.936 0 01-.419-1.703c.183-.712.786-1.306 1.703-1.663 1.454-.567 3.537-1.517 4.926-2.164a487.769 487.769 0 01-3.079 5.134m.734 13.845a1.714 1.714 0 01-.393-1.386c.118-.818.76-1.65 1.912-1.65.459 0 .957.146 1.468.41 1.388.739 3.484 1.702 4.886 2.349-1.493.264-3.733.66-5.266.95-1.114.212-2.07-.04-2.607-.66m2.58-4.329c-.34.12-.68.185-.995.185-1.009 0-1.769-.62-1.886-1.53a1.923 1.923 0 01.432-1.532c.393-.449.982-.7 1.703-.7.236 0 .485.027.747.08 1.532.303 3.825.646 5.344.844-.602.304-1.349.674-2.109 1.056a431.1 431.1 0 01-3.235 1.597zm-9.667-15.35s.104-.079.144-.118c.026-.027.052-.04.065-.053 1.245-.963 3.013-2.468 4.166-3.484a426.138 426.138 0 00-1.362 5.213c-.407 1.597-1.39 2.165-2.162 2.165-.328 0-.668-.106-.956-.29a1.878 1.878 0 01-.865-1.519c-.013-.66.315-1.32.943-1.887l.026-.027zM12.079 30.912a3.296 3.296 0 011.14-.225c.995 0 1.755.62 1.886 1.531a1.923 1.923 0 01-.433 1.531c-.393.45-.982.7-1.703.7-.235 0-.484-.026-.746-.08-1.533-.303-3.826-.633-5.345-.844a546.465 546.465 0 003.864-1.953c.406-.198.852-.41 1.336-.66zm14.633 16.973c-.079.119-.144.224-.223.343-.917 1.267-2.122 3.128-2.934 4.382-.04-1.518-.092-3.815-.145-5.385-.026-.924.21-1.716.695-2.204a1.69 1.69 0 011.244-.541c.17 0 .354.026.524.079a1.931 1.931 0 011.258 1.214c.183.58.092 1.24-.275 1.9l-.157.225.013-.013zm24.602-8.262c-1.506-.172-3.76-.45-5.306-.608-1.06-.118-1.847-.554-2.227-1.24-.275-.489-.288-1.07-.052-1.597.328-.687.97-1.109 1.703-1.109.472 0 .956.172 1.415.515l.249.224c.17.145.327.29.485.436 1.113 1.069 2.672 2.455 3.733 3.392m7.73-9.807a3.25 3.25 0 01-.93 2.284 3.154 3.154 0 01-2.24.95 3.61 3.61 0 01-1.22-.224c-.13-.066-.287-.132-.484-.225-2.345-1.135-3.42-1.65-5.594-2.692.092-.04.17-.08.262-.119.76-.396 1.73-.884 2.673-1.36.812-.409 1.663-.83 2.79-1.398a3.581 3.581 0 011.572-.383c1.742 0 3.157 1.425 3.17 3.18m-1.231-8.275a3.227 3.227 0 01-.498 2.838 3.182 3.182 0 01-2.594 1.293c-.144 0-.288 0-.432-.026-.04 0-.079 0-.118-.013h-.066a581.557 581.557 0 00-6.327-1.017 1.49 1.49 0 00.157-.145c.223-.21.472-.448.734-.7 1.022-.936 1.82-1.689 2.96-2.744.433-.396.8-.74 1.049-.964a4.61 4.61 0 01.55-.383c.144-.066.301-.132.432-.21a3.207 3.207 0 011.114-.212c1.388 0 2.646.937 3.039 2.283zm-3.459-7.496c.603.937.682 2.098.21 3.101a3.15 3.15 0 01-1.336 1.439l-.432.198a2.943 2.943 0 01-.485.145c-.17.026-.42.066-.72.105-2.49.304-3.669.462-6 .766.052-.08.104-.158.156-.25a447.363 447.363 0 013.367-5.65c.642-.844 1.56-1.32 2.581-1.32a3.15 3.15 0 012.673 1.466M48.93 7.813a3.2 3.2 0 011.074 2.917c-.144.977-.72 1.795-1.585 2.31l-.982.462a718.533 718.533 0 00-5.345 2.35c.628-2.337.956-3.617 1.637-6.257.393-1.544 1.624-2.547 3.131-2.547.76 0 1.493.277 2.07.779m-8.28-4.765c.446 0 .891.092 1.31.29a3.225 3.225 0 011.848 2.495c.157 1.135-.302 2.217-1.232 2.996-2.096 1.755-3 2.508-4.873 4.091-.026.014-.04.04-.066.053v-.462a822.427 822.427 0 00-.17-6.005c-.04-1.24.472-2.033.904-2.481a3.2 3.2 0 012.293-.977m-9.695-.726a3.195 3.195 0 012.581-1.333c.144 0 .288 0 .446.026 1.1.146 2.017.858 2.475 1.875.407.924.354 1.953-.13 2.877-.105.171-.25.41-.433.673-1.323 1.98-1.978 2.983-3.183 4.791-.066.08-.105.158-.17.238-.734-2.31-1.14-3.564-1.979-6.15-.353-1.096-.21-2.165.406-3.023m-7.703.66a3.192 3.192 0 012.45-1.9c.157-.027.315-.04.472-.04 1.008 0 1.965.488 2.567 1.32.616.857.773 1.926.433 3.009-.839 2.64-1.18 3.774-1.926 6.176-1.192-1.781-1.913-2.824-3.131-4.606-.301-.449-.537-.805-.694-1.043-.524-.937-.59-1.98-.184-2.916M15.97 5.992a3.181 3.181 0 011.821-2.52c.42-.199.878-.291 1.337-.291.851 0 1.69.356 2.279.963.432.449.943 1.24.917 2.468-.066 2.772-.079 3.96-.118 6.468a541.048 541.048 0 00-4.978-4.092c-.943-.765-1.402-1.86-1.258-2.983m-5.11 2.006a3.14 3.14 0 012.096-.791c1.494 0 2.712.99 3.131 2.507a737.12 737.12 0 001.703 6.243 515.687 515.687 0 00-5.921-2.508c-1.114-.475-1.86-1.385-2.044-2.507a3.186 3.186 0 011.035-2.93m-5.384 6.322a3.17 3.17 0 012.699-1.492c1.1 0 2.161.607 2.803 1.65 1.441 2.363 2.07 3.379 3.38 5.504a420.15 420.15 0 00-6.38-.726c-1.205-.132-2.175-.805-2.672-1.822a3.185 3.185 0 01.183-3.114m-3.406 7.602c.393-1.373 1.65-2.323 3.052-2.323.813 0 1.599.317 2.254.924a574.33 574.33 0 004.781 4.316c-2.384.409-3.668.633-6.327 1.108-.223.04-.459.067-.668.067-1.035 0-1.979-.463-2.581-1.268a3.182 3.182 0 01-.524-2.81m-1.1 8.235c0-.858.327-1.663.93-2.283a3.154 3.154 0 012.24-.95c.51 0 1.035.118 1.532.369 2.476 1.201 3.538 1.703 5.778 2.785l-.236.119c-.275.145-.577.29-.904.462-1.507.739-2.646 1.32-4.611 2.296a3.426 3.426 0 01-1.572.396c-1.743 0-3.158-1.425-3.17-3.18M2.2 38.46a3.228 3.228 0 01.498-2.837 3.182 3.182 0 012.594-1.294c.21 0 .419.013.628.053 2.712.449 3.878.633 6.34 1.03-1.78 1.636-2.737 2.533-4.715 4.381a4.559 4.559 0 01-.734.541c-.144.066-.301.132-.432.198a3.207 3.207 0 01-1.114.212 3.19 3.19 0 01-3.039-2.284m3.432 7.497a3.218 3.218 0 01-.21-3.115 3.15 3.15 0 011.337-1.439c.144-.052.288-.118.432-.197.275-.106.577-.185.878-.212 2.738-.33 3.904-.488 6.38-.805a467.083 467.083 0 00-3.315 5.544c-.628 1.069-1.663 1.689-2.816 1.689a3.165 3.165 0 01-2.673-1.452m5.41 6.23a3.2 3.2 0 01-1.073-2.917c.17-1.122.904-2.046 2.017-2.534a924.468 924.468 0 005.895-2.574 636.18 636.18 0 00-1.637 6.256c-.393 1.544-1.625 2.547-3.131 2.547-.76 0-1.494-.277-2.07-.778zm8.267 4.751c-.445 0-.89-.092-1.31-.29-1.009-.462-1.69-1.4-1.847-2.508-.157-1.135.301-2.217 1.232-2.996a620.64 620.64 0 004.925-4.144c.053 2.428.092 3.748.184 6.467.039 1.24-.472 2.033-.904 2.481a3.2 3.2 0 01-2.293.977m9.708.752a3.195 3.195 0 01-2.581 1.333c-.144 0-.289 0-.446-.026a3.2 3.2 0 01-2.476-1.874c-.458-1.043-.34-2.218.341-3.234 1.467-2.204 2.135-3.207 3.393-5.12l.079-.12c.026-.04.065-.092.091-.132.734 2.31 1.14 3.55 1.978 6.138.354 1.095.21 2.164-.406 3.022m7.716-.633a3.192 3.192 0 01-2.45 1.9c-.157.026-.314.04-.47.04a3.176 3.176 0 01-2.569-1.32c-.615-.858-.773-1.927-.432-3.01.838-2.639 1.18-3.774 1.926-6.176 1.35 2.02 2.083 3.088 3.629 5.345.694 1.003.825 2.178.366 3.22zm7.31-3.01a3.18 3.18 0 01-1.82 2.521 3.14 3.14 0 01-1.337.304c-.851 0-1.69-.357-2.28-.964-.431-.449-.942-1.24-.916-2.468.065-2.771.078-3.96.118-6.467a542.712 542.712 0 004.978 4.091c.943.766 1.402 1.861 1.258 2.983zm5.11-2.019a3.14 3.14 0 01-2.096.792c-1.494 0-2.712-.99-3.131-2.508-.721-2.68-1.035-3.814-1.704-6.243 2.215.95 3.42 1.465 5.922 2.508 1.113.475 1.86 1.386 2.044 2.508a3.186 3.186 0 01-1.035 2.93m5.384-6.322a3.17 3.17 0 01-2.699 1.491c-1.1 0-2.161-.594-2.803-1.65-1.441-2.362-2.07-3.379-3.38-5.503 2.384.29 3.681.435 6.367.725 1.205.133 2.174.806 2.672 1.822a3.185 3.185 0 01-.183 3.115m3.406-7.616c-.393 1.373-1.65 2.323-3.053 2.323-.707 0-1.375-.237-1.978-.686-.13-.106-.301-.264-.51-.436-1.73-1.57-2.62-2.375-4.154-3.748l-.248-.25c-.04-.04-.092-.08-.131-.12 2.358-.396 3.641-.633 6.288-1.108.222-.04.458-.066.668-.066 1.035 0 1.978.462 2.58 1.267.616.818.8 1.834.525 2.811" fill="#fff"/><path d="M38.62 30.211c0-4.79-3.865-8.684-8.62-8.684-4.756 0-8.62 3.893-8.62 8.684 0 4.791 3.864 8.685 8.62 8.685 4.755 0 8.62-3.894 8.62-8.685z" fill="#fff"/></svg>