<svg width="60" height="60" fill="none" xmlns="http://www.w3.org/2000/svg"><path d="M23.352 2.398a1.2 1.2 0 00-.225.016c-5.494.077-10.072 1.826-13.27 4.898C6.584 10.455 4.8 14.932 4.8 20.1c0 1.038.11 2.012.29 2.932l.193.968H22.8v27.6a1.2 1.2 0 00.45.938l6 4.8a1.2 1.2 0 001.5 0l6-4.8a1.201 1.201 0 00.45-.938V24h17.517l.19-.968c.18-.918.29-1.89.29-2.925.056-5.167-1.7-9.65-4.957-12.792C46.983 4.17 42.275 2.4 36.615 2.4c-2.459 0-4.63.331-6.56.96-1.93-.629-4.102-.96-6.56-.96l-.043.002a1.197 1.197 0 00-.1-.004zM36.615 4.8c5.164 0 9.205 1.584 11.96 4.242 2.755 2.658 4.277 6.425 4.226 11.044l-.003.007v.007c0 .528-.088 1.007-.15 1.5H7.351c-.061-.493-.15-.972-.15-1.5 0-4.622 1.55-8.395 4.32-11.056 2.744-2.636 6.741-4.212 11.84-4.24 4.255.322 7.97 2.251 10.596 5.3a1.202 1.202 0 002.122-.687 1.199 1.199 0 00-.303-.879 17.704 17.704 0 00-3.74-3.262c1.35-.309 2.869-.476 4.579-.476zM25.2 24h9.6v6.31l-9.6 2.878V24zm9.6 8.813v8.296l-9.6 2.878v-8.296l9.6-2.879zm0 10.8v7.41l-4.8 3.84-4.8-3.84v-4.532l9.6-2.879z" fill="#82C83C"/></svg>