<svg width="60" height="60" fill="none" xmlns="http://www.w3.org/2000/svg"><path d="M30 2.4C14.771 2.4 2.4 14.771 2.4 30c0 15.229 12.371 27.6 27.6 27.6 15.23 0 27.6-12.371 27.6-27.6C57.6 14.771 45.23 2.4 30 2.4zm0 2.4c13.932 0 25.2 11.268 25.2 25.2 0 13.932-11.268 25.2-25.2 25.2C16.07 55.2 4.8 43.932 4.8 30 4.8 16.068 16.07 4.8 30 4.8zm0 12c-4 0-6.33 2.177-7.373 4.263C21.584 23.15 21.6 25.2 21.6 25.2v9.6c0 4.625 3.775 8.4 8.4 8.4s8.4-3.775 8.4-8.4-3.775-8.4-8.4-8.4a8.372 8.372 0 00-6 2.538V25.2s.017-1.55.774-3.063C25.53 20.623 26.8 19.2 30 19.2s4.47 1.423 5.227 2.937A7.843 7.843 0 0136 25.2h2.4s.017-2.05-1.026-4.137C36.33 18.977 34 16.8 30 16.8zm0 12c3.328 0 6 2.672 6 6s-2.672 6-6 6-6-2.672-6-6 2.672-6 6-6z" fill="#82C83C"/></svg>