<svg width="60" height="60" fill="none" xmlns="http://www.w3.org/2000/svg"><path d="M30 2.4C14.771 2.4 2.4 14.771 2.4 30c0 15.229 12.371 27.6 27.6 27.6 15.23 0 27.6-12.371 27.6-27.6C57.6 14.771 45.23 2.4 30 2.4zm0 2.4c13.932 0 25.2 11.268 25.2 25.2 0 13.932-11.268 25.2-25.2 25.2C16.07 55.2 4.8 43.932 4.8 30 4.8 16.068 16.07 4.8 30 4.8zm-7.2 12v2.4h12.865c-3.781 3.584-6.007 8.464-7.338 12.863-1.62 5.35-1.927 9.916-1.927 11.137h2.4c0-.729.294-5.388 1.824-10.444 1.51-4.992 4.228-10.434 8.86-13.556h.116v-.082l.057-.04-.057-.087V16.8H22.8z" fill="#82C83C"/></svg>