<svg width="60" height="60" fill="none" xmlns="http://www.w3.org/2000/svg"><g clip-path="url(#clip0_947_7996)"><path d="M60 22.8c0-.103-.035-.196-.059-.292-.234-2.58-1.249-4.79-2.983-6.441-2.045-1.947-4.943-2.878-8.38-2.878l-8.378.003c-3.396.019-6.266 1.046-8.296 2.973-.764.725-1.393 1.46-1.879 2.385-.48-.924-1.104-1.659-1.866-2.385-2.045-1.946-4.943-2.975-8.38-2.975l-8.378.003c-3.396.019-6.266.949-8.295 2.875C1.074 17.989 0 20.675 0 23.828c0 2.381.908 4.182 1.837 5.824l.474.82c.827 1.423 1.683 2.893 2.194 4.724.3 1.102.559 2.25.812 3.368.347 1.536.676 2.987 1.084 4.248.409 1.258.872 2.222 1.38 2.867.419.528 1.116 1.231 2.328 1.231 1.017 0 1.79-.33 2.364-1.014.383-.457.84-1.312.84-2.798 0-3.12.636-7.082 1.217-10.319l.018-.079c.236-1.13 1.906-1.16 2.103.001.83 4.488 1.234 7.889 1.234 10.397 0 1.484.457 2.341.84 2.796.572.684 1.345 1.016 2.365 1.016 1.212 0 1.91-.709 2.33-1.244.508-.652.972-1.621 1.378-2.88.402-1.25.726-2.678 1.072-4.193.256-1.13.522-2.3.823-3.393.512-1.833 1.368-3.304 2.195-4.726l.474-.82c.218-.386.434-.78.638-1.189.204.408.42.803.638 1.188l.474.821c.827 1.422 1.683 2.892 2.194 4.723.3 1.102.56 2.25.812 3.369.347 1.536.676 2.986 1.084 4.248.41 1.257.872 2.22 1.38 2.866.419.528 1.116 1.232 2.328 1.232 1.018 0 1.79-.332 2.364-1.014.383-.458.84-1.313.84-2.799 0-3.12.636-7.082 1.217-10.319l.018-.079c.237-1.13 1.908-1.16 2.103.001.83 4.488 1.234 7.89 1.234 10.397 0 1.485.457 2.341.84 2.796.572.684 1.345 1.017 2.365 1.017 1.212 0 1.91-.71 2.33-1.245.508-.651.973-1.621 1.378-2.88.402-1.249.726-2.678 1.072-4.193.257-1.13.522-2.3.823-3.393.512-1.833 1.368-3.304 2.195-4.726l.474-.82c.929-1.641 1.837-3.442 1.837-5.82.004-.3-.012-.593-.029-.886.006-.053.029-.097.029-.149zm-26.446-4.992c1.58-1.499 3.882-2.2 6.653-2.216l8.37-.003c2.81 0 5.136.702 6.726 2.217 1.047.994 1.739 2.284 2.069 3.794H49.2v-2.4c0-.664-.536-1.2-1.2-1.2h-7.2c-.664 0-1.2.536-1.2 1.2v2.4h-8.148c.347-1.505 1.05-2.796 2.102-3.792zM42 20.4h4.8v4.8H42v-4.8zM4.754 17.808c1.58-1.499 3.882-2.2 6.653-2.216l8.37-.003c2.81 0 5.136.702 6.726 2.217 1.047.994 1.739 2.284 2.069 3.794H20.4v-2.4c0-.664-.536-1.2-1.2-1.2H12c-.664 0-1.2.536-1.2 1.2v2.4H2.652c.347-1.505 1.05-2.796 2.102-3.792zM13.2 20.4H18v4.8h-4.8v-4.8zm13.614 8.864c-.862 1.481-1.837 3.16-2.432 5.295-.318 1.148-.59 2.346-.852 3.505-.332 1.46-.645 2.837-1.016 3.984-.418 1.298-.796 1.897-.982 2.136-.256.325-.333.325-.44.325-.394 0-.468-.086-.526-.158-.135-.161-.279-.575-.279-1.254 0-2.657-.417-6.2-1.27-10.813-.275-1.631-1.731-2.862-3.39-2.862a3.517 3.517 0 00-3.413 2.725l-.026.111c-.592 3.275-1.274 7.468-1.274 10.838 0 .68-.143 1.094-.277 1.254-.063.074-.132.158-.526.158-.116 0-.192 0-.445-.32-.185-.236-.56-.826-.98-2.12-.375-1.154-.69-2.552-1.025-4.03-.25-1.102-.505-2.231-.798-3.32l-.045-.168c-.594-2.128-1.57-3.807-2.43-5.287l-.46-.797C2.994 26.825 2.454 25.548 2.414 24H10.8v2.4c0 .664.536 1.2 1.2 1.2h7.2c.664 0 1.2-.536 1.2-1.2V24h8.384c-.04 1.548-.58 2.825-1.51 4.469l-.46.795zm28.8 0c-.862 1.481-1.837 3.16-2.432 5.295-.318 1.148-.59 2.346-.852 3.505-.332 1.46-.645 2.837-1.016 3.984-.418 1.298-.796 1.897-.982 2.136-.256.325-.333.325-.44.325-.394 0-.468-.086-.526-.158-.135-.161-.279-.575-.279-1.254 0-2.657-.417-6.2-1.27-10.813-.275-1.631-1.731-2.862-3.39-2.862a3.517 3.517 0 00-3.413 2.725l-.026.111c-.592 3.275-1.274 7.468-1.274 10.838 0 .68-.143 1.094-.277 1.254-.063.074-.132.158-.526.158-.116 0-.192 0-.445-.32-.185-.236-.56-.826-.98-2.12-.375-1.154-.69-2.552-1.025-4.03-.25-1.102-.505-2.231-.798-3.32l-.045-.168c-.594-2.128-1.57-3.807-2.43-5.287l-.46-.797c-.932-1.642-1.472-2.92-1.511-4.468H39.6v2.4c0 .663.536 1.2 1.2 1.2H48c.664 0 1.2-.537 1.2-1.2v-2.4h8.384c-.04 1.548-.58 2.824-1.51 4.468l-.46.798z" fill="#82C83C"/></g><defs><clipPath id="clip0_947_7996"><path fill="#fff" d="M0 0h60v60H0z"/></clipPath></defs></svg>