<svg width="60" height="60" fill="none" xmlns="http://www.w3.org/2000/svg"><path d="M40.92 4.8c-.36 0-9-.479-15 5.161-3.72 3.48-5.52 8.399-5.52 14.639v6.12c-.48.72-1.2 2.04-1.2 4.2 0 3.48 3 5.16 4.32 5.76.2.537.555 1.441 1.035 2.52h-3.454c-.532-1.328-1.593-2.4-3.101-2.4-.729 0-1.305.404-1.875.783-.617-1.106-1.58-1.983-2.925-1.983-.932 0-1.758.41-2.4 1-.642-.59-1.468-1-2.4-1-1.272 0-2.392.68-3.033 1.688A3.539 3.539 0 003.6 40.8 3.618 3.618 0 000 44.4v2.4c0 1.974 1.626 3.6 3.6 3.6a3.54 3.54 0 001.767-.487C6.008 50.92 7.128 51.6 8.4 51.6c.932 0 1.758-.41 2.4-1 .642.59 1.468 1 2.4 1 0 1.974 1.626 3.6 3.6 3.6 1.974 0 3.6-1.626 3.6-3.6a3.54 3.54 0 00-.487-1.767c1.007-.641 1.687-1.761 1.687-3.033v-1.2h11.798c.13.021.262.021.392 0h5.81a1.2 1.2 0 100-2.4h-4.308c.421-.677 1.04-1.2 1.908-1.2H42c.328 0 .638.066.921.185a1.201 1.201 0 001.573-.644c.18-.432.597-.741 1.106-.741.678 0 1.2.522 1.2 1.2 0 .678-.522 1.2-1.2 1.2a1.2 1.2 0 00-1.2 1.2c0 1.34-1.06 2.4-2.4 2.4h-1.2a1.203 1.203 0 00-1.124.737A1.2 1.2 0 0040.8 49.2H42c.17.002.339-.033.495-.1 2.133-.233 3.797-1.84 4.15-3.936C48.056 44.676 49.2 43.568 49.2 42c0-1.974-1.626-3.6-3.6-3.6-1.104 0-1.986.6-2.648 1.392-.318-.067-.616-.192-.952-.192h-4.8c-2.212 0-4.009 1.552-4.556 3.6H27.26c-1.046-2.163-1.58-3.803-1.58-3.839l-.24-.6-.6-.241s-3.24-1.08-3.24-3.6c0-1.92.84-2.88.84-2.88l.36-.36V24.6c0-5.52 1.68-9.839 4.8-12.839C32.04 7.561 38.4 7.2 40.2 7.2l2.52 2.4h.36c5.28.6 10.56 2.28 12.96 10.68.24 1.2.36 2.76.36 4.32v7.08l.36.36s.84.96.84 2.88c0 2.52-3.24 3.6-3.24 3.6l-.6.241-.24.6C53.52 39.481 48.84 54 39.6 54c-4.02 0-7.212-2.82-9.504-6h-2.988c2.664 4.152 6.768 8.4 12.492 8.4 9.96 0 15-12.84 16.08-15.72C57 40.08 60 38.4 60 34.92c0-2.16-.72-3.6-1.2-4.2V24.6c0-1.8-.12-3.36-.36-4.8v-.12C55.32 8.88 47.52 7.68 43.8 7.2l-2.4-2.4h-.48zm2.28 10.922c-.361 0-.722.24-.96.478-5.04 6-15.84 6.723-15.962 6.722-.477 0-.956.356-1.078.956l-1.2 7.2c-.122.723.36 1.322.96 1.444a1.25 1.25 0 001.44-.961l1.078-6.359c2.761-.238 10.682-1.563 15.6-6.363 2.883 3.721 6.961 5.64 8.644 6.24L52.8 31.56c.122.6.6.96 1.2.96.828 0 1.2-.719 1.078-1.319l-1.2-7.2c-.116-.478-.356-.84-.839-.963 0 0-5.878-1.917-8.878-6.717-.239-.361-.6-.6-.961-.6zM33 31.2a1.8 1.8 0 10.001 3.601A1.8 1.8 0 0033 31.2zm13.2 0a1.8 1.8 0 10.001 3.601A1.8 1.8 0 0046.2 31.2zM8.4 42c.678 0 1.2.522 1.2 1.2V48c0 .678-.522 1.2-1.2 1.2A1.18 1.18 0 017.2 48v-4.8c0-.678.522-1.2 1.2-1.2zm4.8 0c.678 0 1.2.522 1.2 1.2V48c0 .678-.522 1.2-1.2 1.2A1.18 1.18 0 0112 48v-4.8c0-.678.522-1.2 1.2-1.2zm-9.6 1.2c.678 0 1.2.522 1.2 1.2v2.4c0 .678-.522 1.2-1.2 1.2a1.18 1.18 0 01-1.2-1.2v-2.4c0-.678.522-1.2 1.2-1.2zm14.4 0c.664 0 1.165.507 1.186 1.165-.002.075.002.15.014.225v2.21c0 .678-.522 1.2-1.2 1.2a1.18 1.18 0 01-1.2-1.2v-2.4c0-.678.522-1.2 1.2-1.2zm-1.2 7.2c.678 0 1.2.522 1.2 1.2 0 .678-.522 1.2-1.2 1.2a1.18 1.18 0 01-1.2-1.2c0-.678.522-1.2 1.2-1.2z" fill="#82C83C"/></svg>