<svg width="60" height="60" fill="none" xmlns="http://www.w3.org/2000/svg"><path d="M25.276 9.612c-1.504 0-3.3.362-4.777 1.57a6.2 6.2 0 00-1.488 1.814 7.214 7.214 0 00-1.097-.855c-1.307-.83-2.855-1.327-4.315-1.327-1.46 0-2.707.704-3.307 1.737-.045.077-.069.16-.108.239-.062-.037-.12-.092-.183-.124-1.012-.523-2.05-.633-2.8-.633-1.42 0-2.72.428-3.589 1.383C2.744 14.37 2.4 15.69 2.4 17.19c0 .03 0 .061.003.092.25 3.313.863 5.47 1.676 6.907.812 1.436 1.913 2.21 3.04 2.22 1.879.016 3.13-1.059 3.888-2.016 2.823 2.46 6.494 2.107 7.8 1.889.054.033.094.065.152.096.32.168.78.36 1.442.541 1.322.364 3.448.692 6.9.692 1.157 0 2.07-.452 2.7-1.03a3.944 3.944 0 002.7 1.03c3.452 0 5.577-.328 6.9-.692.66-.182 1.12-.373 1.44-.541.06-.032.1-.065.156-.099 1.306.218 4.965.57 7.785-1.877.736.944 1.947 1.997 3.762 1.997 1.082 0 2.305-.695 3.148-2.126.843-1.43 1.449-3.592 1.706-6.991.002-.03.003-.061.002-.092 0-1.501-.343-2.82-1.211-3.775-.868-.955-2.169-1.383-3.589-1.383-.75 0-1.787.11-2.8.633-.063.032-.121.087-.183.124-.04-.079-.063-.162-.108-.24-.6-1.032-1.846-1.738-3.307-1.738-1.46 0-3.008.498-4.315 1.329a7.24 7.24 0 00-1.097.855 6.2 6.2 0 00-1.488-1.812c-1.478-1.208-3.273-1.572-4.777-1.572A5.978 5.978 0 0030 11.934a5.977 5.977 0 00-4.724-2.322zm0 2.4c1.985 0 3.524 1.51 3.524 3.349v8.452s-.014.385-.201.745-.334.654-1.299.654c-3.297 0-5.222-.321-6.262-.607-.344-.095-.468-.16-.637-.232v-7.06c0-2.334.712-3.53 1.619-4.272.907-.742 2.15-1.029 3.256-1.03zm9.45 0c1.104 0 2.348.287 3.255 1.029s1.62 1.94 1.62 4.272v7.06c-.17.072-.294.137-.638.232-1.04.286-2.965.607-6.263.607-.964 0-1.111-.295-1.298-.654a1.97 1.97 0 01-.2-.722c0-.013-.001-.017-.002-.023V15.36c.002-1.838 1.542-3.35 3.525-3.35zm11.676 1.2c.859 0 1.01.165 1.23.543.22.379.369 1.167.369 2.154v5.977c-1.94 2.37-4.841 2.156-6 1.992V15.91c0-.466.46-1.163 1.373-1.743.914-.58 2.17-.954 3.028-.954zm-32.803.002c.86 0 2.114.374 3.028.954.914.58 1.373 1.275 1.373 1.741v7.969c-1.159.164-4.06.379-6-1.992v-5.974c0-.988.149-1.776.368-2.154.22-.378.372-.544 1.23-.544zM7.2 14.433c.45 0 1.212.114 1.7.365.487.252.7.42.7 1.074v6.267c-.129.25-.999 1.883-2.46 1.87-.003 0-.425-.032-.973-1-.544-.961-1.122-2.8-1.36-5.843.007-1.114.254-1.775.582-2.136.332-.365.831-.597 1.811-.597zm45.6 0c.98 0 1.48.232 1.812.597.328.361.575 1.022.581 2.136-.244 3.134-.829 4.97-1.37 5.89-.547.927-.906.944-1.079.944-1.31 0-2.207-1.61-2.343-1.863v-6.265c0-.655.213-.822.7-1.074.488-.25 1.25-.365 1.7-.365zM9.834 32.412c-1.128 0-2.482.339-3.734 1.06-1.253.72-2.475 1.975-2.494 3.726-.013 1.21-.038 3.383.427 5.386.232 1.001.581 1.979 1.226 2.796.644.816 1.688 1.432 2.887 1.432 1.994 0 3.64-1.115 4.655-2.726.28.846.671 1.658 1.254 2.35a4.38 4.38 0 003.347 1.576 4.38 4.38 0 003.346-1.575 5.99 5.99 0 00.668-1.01c.247.694.558 1.357.982 1.945.745 1.033 1.953 1.84 3.401 1.84 1.449 0 2.659-.807 3.403-1.84.327-.454.583-.955.8-1.477.217.522.472 1.023.799 1.477.745 1.033 1.954 1.84 3.403 1.84 1.448 0 2.656-.807 3.4-1.84.425-.588.736-1.251.983-1.946.192.355.404.697.668 1.01a4.38 4.38 0 003.346 1.576 4.38 4.38 0 003.347-1.575c.583-.693.974-1.505 1.254-2.351 1.015 1.61 2.661 2.726 4.655 2.726 1.198 0 2.243-.616 2.887-1.432.645-.817.994-1.795 1.226-2.796.465-2.003.44-4.176.427-5.386-.02-1.75-1.242-3.007-2.494-3.727-1.252-.72-2.606-1.06-3.733-1.06a4.547 4.547 0 00-3.141 1.231c-.24.228-.45.494-.638.783a3.501 3.501 0 00-.738-.4c-1.173-.448-2.351-.413-3.052-.413-.7 0-1.878-.035-3.051.412a3.619 3.619 0 00-1.144.727 3.616 3.616 0 00-1.155-.731c-1.172-.442-2.351-.408-3.052-.408-.7 0-1.875-.034-3.047.407a3.617 3.617 0 00-1.15.727 3.615 3.615 0 00-1.151-.727c-1.172-.441-2.348-.407-3.047-.407-.701 0-1.88-.034-3.052.407-.401.152-.8.404-1.155.732a3.618 3.618 0 00-1.144-.727c-1.173-.447-2.351-.412-3.052-.412-.7 0-1.878-.035-3.051.412-.25.096-.5.235-.738.401a4.264 4.264 0 00-.636-.783c-.872-.83-2.015-1.23-3.142-1.23zm0 2.4a2.16 2.16 0 011.488.57c.39.37.68.91.68 1.83 0 2.26-.42 4.18-1.111 5.411-.692 1.232-1.488 1.789-2.745 1.789-.486 0-.7-.135-1.003-.518-.302-.383-.586-1.056-.771-1.854-.37-1.597-.379-3.625-.366-4.814.007-.65.456-1.194 1.29-1.674.833-.48 1.98-.74 2.538-.74zm40.335 0c.558 0 1.705.26 2.539.74.833.48 1.281 1.024 1.289 1.674.013 1.189.005 3.217-.366 4.814-.185.798-.469 1.47-.77 1.854-.303.383-.518.518-1.004.518-1.258 0-2.053-.557-2.745-1.789-.691-1.232-1.11-3.152-1.11-5.411 0-.92.289-1.46.68-1.83.39-.372.93-.57 1.488-.57zm-32.767 1.2c.7 0 1.621.036 2.198.255.576.22.802.299.802 1.212 0 1.105-.017 3.352-.488 5.198-.236.924-.59 1.724-1.003 2.215-.413.492-.799.72-1.51.72-.71 0-1.096-.228-1.509-.72-.413-.491-.767-1.291-1.003-2.215-.471-1.846-.488-4.093-.488-5.198 0-.913.226-.992.802-1.212.576-.22 1.498-.255 2.199-.255zm8.402 0c.7 0 1.62.035 2.198.253.578.218.8.292.8 1.188 0 1.093-.013 3.656-.497 5.838-.243 1.092-.614 2.072-1.05 2.677-.437.605-.805.844-1.456.844-.65 0-1.017-.239-1.453-.844-.436-.605-.806-1.585-1.048-2.677-.484-2.182-.497-4.744-.497-5.838 0-.896.221-.97.8-1.188.578-.218 1.502-.253 2.203-.253zm8.395 0c.7 0 1.625.035 2.203.253.579.218.8.292.8 1.188v.026c0 1.103-.016 3.641-.497 5.812-.242 1.092-.612 2.072-1.048 2.677-.436.605-.802.844-1.453.844-.652 0-1.02-.239-1.456-.844-.436-.605-.807-1.586-1.05-2.677-.484-2.182-.496-4.744-.496-5.838 0-.896.22-.97.799-1.188.578-.218 1.498-.253 2.198-.253zm8.402 0c.7 0 1.622.036 2.199.255.576.22.801.299.801 1.212 0 1.105-.016 3.352-.487 5.198-.236.924-.59 1.724-1.003 2.215-.413.492-.799.72-1.51.72-.71 0-1.096-.228-1.509-.72-.413-.491-.767-1.291-1.003-2.215-.471-1.846-.488-4.093-.488-5.198 0-.913.226-.992.802-1.212.576-.22 1.498-.255 2.198-.255z" fill="#82C83C"/></svg>