<svg width="60" height="60" fill="none" xmlns="http://www.w3.org/2000/svg"><g clip-path="url(#clip0_947_8005)"><path d="M53.499 60a4.597 4.597 0 01-4.592-4.597V24.836h-1.253a.662.662 0 01-.656-.657c0-.358.298-.657.656-.657h1.312l.895-10.447-.239-.06c-1.014-.418-1.67-1.373-1.67-2.448v-7.94C47.952 1.194 49.145 0 50.577 0h5.845c1.43 0 2.624 1.194 2.624 2.627v7.82c0 1.075-.656 2.09-1.67 2.449l-.239.06.895 10.447h1.312c.358 0 .656.299.656.657a.662.662 0 01-.656.656h-1.252v30.627c0 2.627-2.088 4.657-4.593 4.657zm-3.22-4.597a3.209 3.209 0 003.22 3.224c1.79 0 3.22-1.433 3.22-3.224V30.687h-6.44v24.716zm0-28.06h6.44v-2.567h-6.44v2.567zm.059-3.88h6.322l-.835-10.388h-4.592l-.895 10.388zM53.201 11.7h3.22a1.26 1.26 0 001.253-1.253V7.164l-4.473 4.537zm-3.877-1.014l.06.179c.179.477.656.835 1.193.835h.715l6.442-6.447V2.269l-8.41 8.418zm-.06-4.836v2.985l7.456-7.463h-2.982L49.264 5.85zm1.313-4.478a1.26 1.26 0 00-1.253 1.254V3.94l2.565-2.567h-1.313zM36.919 60a4.597 4.597 0 01-4.593-4.597V24.836h-1.252a.662.662 0 01-.657-.657c0-.358.299-.657.657-.657h1.312l.894-10.985-.119-.12c-.537-.536-.835-1.193-.835-1.91v-7.88C32.326 1.194 33.519 0 34.95 0h3.877c1.431 0 2.624 1.194 2.624 2.627v7.82c0 .717-.298 1.434-.835 1.911l-.119.12.895 10.985h1.312c.358 0 .656.298.656.656a.662.662 0 01-.656.657H41.45v30.627c0 2.567-2.028 4.597-4.532 4.597zm-3.28-4.597a3.209 3.209 0 003.22 3.224c1.79 0 3.22-1.433 3.22-3.224V30.687h-6.44v24.716zm0-28.06h6.44v-2.567h-6.44v2.567zm.059-3.88h6.322l-.835-10.388h-4.593l-.894 10.388zM35.606 11.7h3.221a1.26 1.26 0 001.253-1.253V7.164l-4.474 4.537zm-1.968-4.895v3.642c0 .179.06.358.18.597l.178.358 6.084-6.09V2.687c0-.538-.299-1.015-.835-1.194l-.18-.06-5.427 5.373zm1.312-5.433a1.26 1.26 0 00-1.252 1.254v2.269l3.519-3.523H34.95zM21.292 60a4.597 4.597 0 01-4.592-4.597V32.657h-1.253a.662.662 0 01-.656-.657v-3.94c0-.358.298-.657.656-.657h3.221V15.045h-1.252c-.18 0-.418-.12-.537-.239-.12-.18-.18-.358-.12-.597L19.622.537A.699.699 0 0120.278 0h1.969a.7.7 0 01.656.537l2.922 13.672c.06.18 0 .418-.12.597-.118.18-.297.239-.536.239h-1.253v12.298h3.221c.358 0 .656.299.656.657v3.94a.662.662 0 01-.656.657h-1.252v22.806A4.597 4.597 0 0121.292 60zm-3.22-4.597a3.209 3.209 0 003.22 3.224c1.79 0 3.22-1.433 3.22-3.224V38.508h-6.44v16.895zm0-20.239h6.44v-2.567h-6.44v2.567zm-1.969-3.88h10.378v-2.568H16.103v2.568zm3.877-3.94h2.565v-12.3H19.98v12.3zm-1.79-13.672h6.144L21.71 1.373h-.895l-2.624 12.299zM5.667 60a4.597 4.597 0 01-4.592-4.597V31.94c0-.358.298-.656.656-.656h1.252v-4.478H.716a.728.728 0 01-.537-.239A.964.964 0 010 26.03L3.877.597C3.937.299 4.235 0 4.533 0H6.5c.358 0 .596.239.656.597l3.877 25.433a.48.48 0 01-.18.537c-.118.18-.297.239-.536.239H8.29v4.478h1.253c.358 0 .656.298.656.656v23.463C10.259 57.97 8.17 60 5.666 60zm-3.22-4.597a3.209 3.209 0 003.22 3.224c1.79 0 3.22-1.433 3.22-3.224V38.508h-6.44v16.895zm0-20.239h6.44v-2.567h-6.44v2.567zm1.908-3.88h2.564v-4.478H4.354v4.478zm1.312-10.747c.358 0 .656.299.656.657v4.239h3.4L6.918 7.104l-.596.06v10.15a.662.662 0 01-.656.656.662.662 0 01-.656-.657V7.104l-.596-.06-2.804 18.33h3.4v-4.24c-.06-.298.239-.597.656-.597zM53.499 56.12a.662.662 0 01-.656-.656c0-.358.298-.657.656-.657.358 0 .656.299.656.657 0 .298-.298.656-.656.656zm-16.58 0a.662.662 0 01-.657-.656c0-.358.299-.657.657-.657.357 0 .656.299.656.657 0 .298-.299.656-.657.656zm-15.627 0a.662.662 0 01-.656-.656c0-.358.298-.657.656-.657.358 0 .656.299.656.657 0 .298-.298.656-.656.656zm-15.626 0a.662.662 0 01-.656-.656c0-.358.298-.657.656-.657.358 0 .656.299.656.657 0 .298-.298.656-.656.656z" fill="#fff"/></g><defs><clipPath id="clip0_947_8005"><path fill="#fff" d="M0 0h60v60H0z"/></clipPath></defs></svg>