<svg width="60" height="60" fill="none" xmlns="http://www.w3.org/2000/svg"><path d="M23.352 2.398a1.2 1.2 0 00-.225.016c-5.494.077-10.072 1.826-13.27 4.898C6.584 10.455 4.8 14.932 4.8 20.1c0 3.812 1.41 6.782 2.967 9.565 1.556 2.782 3.253 5.423 4.181 8.794v-.008c1.072 3.99 1.832 8.554 3.01 12.237.588 1.842 1.273 3.474 2.261 4.742.988 1.267 2.41 2.17 4.088 2.17 1.64 0 3.15-.618 4.137-1.81.987-1.191 1.436-2.834 1.436-4.78 0-4.784.967-11.12 1.946-16.592.165-.786.665-1.02 1.214-1.02.55 0 .998.198 1.127.978l.002.01v.008c.98 5.363 1.95 11.824 1.95 16.615 0 1.947.45 3.59 1.437 4.782.987 1.192 2.496 1.809 4.137 1.809 1.682 0 3.103-.913 4.09-2.19.986-1.275 1.67-2.916 2.259-4.764 1.177-3.694 1.94-8.259 3.01-12.188.927-3.37 2.624-6.01 4.18-8.793 1.556-2.782 2.967-5.751 2.968-9.56.054-5.167-1.703-9.648-4.96-12.79C46.982 4.17 42.275 2.4 36.615 2.4c-2.459 0-4.63.331-6.56.96-1.93-.629-4.102-.96-6.56-.96l-.043.002a1.197 1.197 0 00-.1-.004zM36.615 4.8c5.164 0 9.205 1.584 11.96 4.242 2.755 2.658 4.277 6.425 4.226 11.044v.014c0 3.228-1.158 5.703-2.663 8.393-1.504 2.69-3.361 5.549-4.401 9.328v.002c-1.117 4.101-1.887 8.667-2.98 12.094-.545 1.714-1.18 3.131-1.872 4.024-.69.894-1.305 1.259-2.191 1.259-1.093 0-1.771-.317-2.288-.94-.516-.623-.886-1.677-.886-3.25 0-5.104-.997-11.613-1.985-17.028-.308-1.86-1.94-2.984-3.494-2.984a3.677 3.677 0 00-3.565 2.937l-.005.017-.002.016C25.48 39.489 24.48 45.9 24.48 51.009c0 1.574-.37 2.628-.886 3.251-.516.623-1.194.94-2.287.94-.89 0-1.507-.363-2.196-1.247-.69-.884-1.323-2.29-1.868-3.996-1.091-3.412-1.861-7.977-2.977-12.129l-.002-.002v-.005c-1.04-3.78-2.897-6.638-4.402-9.328C8.358 25.803 7.2 23.328 7.2 20.1c0-4.622 1.55-8.395 4.32-11.056 2.744-2.636 6.741-4.212 11.84-4.24 4.255.322 7.97 2.251 10.596 5.3a1.202 1.202 0 002.122-.687 1.199 1.199 0 00-.303-.879 17.704 17.704 0 00-3.74-3.262c1.35-.309 2.869-.476 4.579-.476zM19.2 13.2a3.6 3.6 0 100 7.2 3.6 3.6 0 000-7.2z" fill="#82C83C"/></svg>