<svg width="20" height="20" fill="none" xmlns="http://www.w3.org/2000/svg"><path d="M14.655 2.658a.667.667 0 00-.656.675v11.724L12.47 13.53a.666.666 0 10-.942.942l2.608 2.608a.666.666 0 001.058.003l.003-.004 2.607-2.607a.67.67 0 00.01-.952.668.668 0 00-.953.01l-1.529 1.528V3.333a.667.667 0 00-.677-.675zm-11.323.009a.667.667 0 100 1.333H10a.667.667 0 100-1.333H3.332zm0 2.666a.667.667 0 100 1.334h5.334a.667.667 0 100-1.334H3.332zm0 2.667a.667.667 0 100 1.333h4a.667.667 0 100-1.333h-4zm0 2.667a.665.665 0 00-.624.924.666.666 0 00.624.409h3.334a.668.668 0 00.624-.924.666.666 0 00-.624-.41H3.332zm0 2.666a.668.668 0 00-.624.924.668.668 0 00.624.41h2a.668.668 0 00.625-.924.668.668 0 00-.625-.41h-2zm0 2.667a.667.667 0 100 1.333H4a.665.665 0 00.625-.924A.666.666 0 004 16h-.667z" fill="#82C83C"/></svg>