<svg width="123" height="128" fill="none" xmlns="http://www.w3.org/2000/svg"><path opacity=".1" d="M106.197 115.118c2.669-8.101 15.175-88.84 16.721-104.749.467-4.818-1.073-8.02-4.089-9.45-3.647-1.734-9.048-.867-15.313 1.368C94.922 5.35-14.942 51.493-21.289 54.165-27.31 56.693-33 59.45-33 63.445c0 2.81 1.685 4.388 6.329 6.03 4.833 1.704 17.004 5.355 24.19 7.315 6.922 1.89 14.803.25 19.22-2.466 4.682-2.877 58.711-38.64 62.592-41.773 3.874-3.133 6.965.88 3.798 4.02-3.167 3.133-40.256 38.74-45.146 43.67-5.937 5.986-1.722 12.19 2.26 14.674 4.549 2.833 37.264 24.541 42.192 28.023 4.928 3.483 9.925 5.062 14.5 5.062 4.574 0 6.984-5.96 9.262-12.882z" fill="#fff"/></svg>