<svg width="17" height="19" fill="none" xmlns="http://www.w3.org/2000/svg"><path d="M1.333 0C.597 0 0 .597 0 1.333V16c0 .737.597 1.333 1.333 1.333h10.448l-3.74-3.74a1.338 1.338 0 01-.374-.732l-.317-1.985A1.333 1.333 0 018.878 9.35l1.983.318c.277.045.533.175.731.374l1.741 1.74V5a.666.666 0 00-.195-.471L8.805.195A.666.666 0 008.333 0h-7zM8 1.27l4.064 4.063H8.667A.667.667 0 018 4.667V1.27zm.667 9.397l.316 1.984 4.379 4.378 1.667-1.667-4.38-4.378-1.982-.317zm7.304 5.638l-1.666 1.666.35.35a1.179 1.179 0 001.667-1.666l-.35-.35z" fill="#82C83C"/></svg>