<svg width="16" height="16" fill="none" xmlns="http://www.w3.org/2000/svg"><path d="M8 1.6c-3.83 0-6.934 2.627-6.934 5.867 0 1.796.957 3.402 2.46 4.478.038.82-.089 1.95-1.219 2.472h-.002a.266.266 0 00.095.516h.023c1.298-.009 2.4-.71 3.16-1.452.241-.235.577-.35.908-.288.486.092.99.14 1.509.14 3.83 0 6.933-2.626 6.933-5.866C14.933 4.227 11.83 1.6 8 1.6zm0 2.792c.107 0 .215.06.256.183l.618 1.828 1.929.023a.27.27 0 01.158.487L9.413 8.065l.575 1.841a.27.27 0 01-.414.301L8 9.092l-1.574 1.115a.27.27 0 01-.415-.3l.575-1.842-1.548-1.152a.27.27 0 01.159-.487l1.929-.023.617-1.828A.265.265 0 018 4.392z" fill="#82C83C"/></svg>