<svg width="20" height="20" fill="none" xmlns="http://www.w3.org/2000/svg"><path d="M9.999 2C5.212 2 1.332 5.283 1.332 9.333c0 2.246 1.196 4.253 3.074 5.598.048 1.024-.11 2.438-1.523 3.09l-.003.001a.334.334 0 00.119.645l.023-.002h.005c1.623-.01 3-.887 3.95-1.813a1.29 1.29 0 011.136-.361 10.13 10.13 0 001.886.176c4.786 0 8.666-3.284 8.666-7.334S14.785 2 10 2zm0 3.49c.134 0 .268.076.32.229l.772 2.285 2.412.029a.337.337 0 01.197.608l-1.934 1.44.718 2.302a.338.338 0 01-.518.376L10 11.365l-1.97 1.394a.338.338 0 01-.518-.376l.719-2.302-1.935-1.44a.337.337 0 01.198-.608l2.411-.029.772-2.285a.332.332 0 01.32-.23z" fill="#fff"/></svg>