<svg width="20" height="20" fill="none" xmlns="http://www.w3.org/2000/svg"><path d="M3.333 4C2.597 4 2 4.597 2 5.333v8c0 .737.597 1.334 1.333 1.334h13.334c.736 0 1.333-.597 1.333-1.334v-8C18 4.597 17.403 4 16.667 4H3.333zm5.334 2.667c.136 0 .255.05.36.12l3.338 2.003c.178.12.302.313.302.543a.653.653 0 01-.302.543L9.027 11.88a.648.648 0 01-.36.121.667.667 0 01-.667-.667v-4c0-.368.299-.666.667-.666zm-2 9.333a.667.667 0 100 1.333h6.666a.665.665 0 00.625-.924.666.666 0 00-.625-.409H6.667z" fill="#C5C5CC"/></svg>