<svg width="48" height="48" viewBox="0 0 48 48" fill="none" xmlns="http://www.w3.org/2000/svg">
<path d="M8.63984 3.84033C6.00421 3.84033 3.83984 6.0047 3.83984 8.64033V39.3603C3.83984 41.996 6.00421 44.1603 8.63984 44.1603H39.3598C41.9955 44.1603 44.1598 41.996 44.1598 39.3603V8.64033C44.1598 6.0047 41.9955 3.84033 39.3598 3.84033H8.63984ZM8.63984 5.76033H39.3598C40.9482 5.76033 42.2398 7.05197 42.2398 8.64033V39.3603C42.2398 40.9487 40.9482 42.2403 39.3598 42.2403H8.63984C7.05148 42.2403 5.75984 40.9487 5.75984 39.3603V8.64033C5.75984 7.05197 7.05148 5.76033 8.63984 5.76033ZM23.9998 9.41658L23.1036 11.7528L20.158 19.4272L9.47422 20.0085L17.7317 26.7547L15.0617 37.0935L23.9998 31.2885L32.938 37.0935L30.268 26.7547L38.5255 20.0085L27.8417 19.4272L23.9998 9.41658ZM23.9998 14.7772L26.4936 21.2778L33.4723 21.6566L28.1005 26.046L29.8461 32.7941L23.9998 28.9991L18.1536 32.7941L19.8992 26.046L14.5273 21.6566L21.5061 21.2778L23.9998 14.7772Z" fill="#82C83C"/>
</svg>
