<svg width="48" height="48" viewBox="0 0 48 48" fill="none" xmlns="http://www.w3.org/2000/svg">
<path d="M13.4399 1.91992C11.9199 1.91992 10.6577 2.52449 9.84181 3.44242C9.02587 4.36036 8.63993 5.54659 8.63993 6.71992C8.63993 7.89325 9.02587 9.07949 9.84181 9.99742C10.6577 10.9154 11.9199 11.5199 13.4399 11.5199C14.9599 11.5199 16.2221 10.9154 17.0381 9.99742C17.854 9.07949 18.2399 7.89325 18.2399 6.71992C18.2399 5.54659 17.854 4.36036 17.0381 3.44242C16.2221 2.52449 14.9599 1.91992 13.4399 1.91992ZM33.5999 1.91992C32.0799 1.91992 30.8177 2.52449 30.0018 3.44242C29.1859 4.36036 28.7999 5.54659 28.7999 6.71992C28.7999 7.89325 29.1859 9.07949 30.0018 9.99742C30.8177 10.9154 32.0799 11.5199 33.5999 11.5199C35.1199 11.5199 36.3821 10.9154 37.1981 9.99742C38.014 9.07949 38.3999 7.89325 38.3999 6.71992C38.3999 5.54659 38.014 4.36036 37.1981 3.44242C36.3821 2.52449 35.1199 1.91992 33.5999 1.91992ZM13.4399 3.83992C14.4799 3.83992 15.1377 4.19536 15.6018 4.71742C16.0659 5.23949 16.3199 5.97325 16.3199 6.71992C16.3199 7.46659 16.0659 8.20036 15.6018 8.72242C15.1377 9.24449 14.4799 9.59992 13.4399 9.59992C12.3999 9.59992 11.7421 9.24449 11.2781 8.72242C10.814 8.20036 10.5599 7.46659 10.5599 6.71992C10.5599 5.97325 10.814 5.23949 11.2781 4.71742C11.7421 4.19536 12.3999 3.83992 13.4399 3.83992ZM33.5999 3.83992C34.6399 3.83992 35.2978 4.19536 35.7618 4.71742C36.2259 5.23949 36.4799 5.97325 36.4799 6.71992C36.4799 7.46659 36.2259 8.20036 35.7618 8.72242C35.2978 9.24449 34.6399 9.59992 33.5999 9.59992C32.5599 9.59992 31.9021 9.24449 31.4381 8.72242C30.974 8.20036 30.7199 7.46659 30.7199 6.71992C30.7199 5.97325 30.974 5.23949 31.4381 4.71742C31.9021 4.19536 32.5599 3.83992 33.5999 3.83992ZM9.11993 12.4799C6.20793 12.4799 3.83993 14.8479 3.83993 17.7599V29.7599C3.83815 29.8909 3.86319 30.0208 3.91349 30.1417C3.96379 30.2626 4.0383 30.372 4.13243 30.463C4.47912 31.6644 5.41343 32.6399 6.71993 32.6399C7.0578 32.6399 7.37761 32.5689 7.67993 32.4599V43.4887C7.67993 44.8504 8.79918 46.0799 10.2712 46.0799H11.9043C12.5292 46.0799 13.0985 45.7949 13.5618 45.3974C14.0055 45.7719 14.529 46.0799 15.1687 46.0799H16.7999C18.1617 46.0799 19.3912 44.9607 19.3912 43.4887V37.3218C19.6378 37.3914 19.8924 37.4399 20.1599 37.4399V43.6799C20.1599 45.0079 21.2319 46.0799 22.5599 46.0799H25.4399C26.7679 46.0799 27.8399 45.0079 27.8399 43.6799V37.4399C28.2129 37.4399 28.4716 37.1721 28.7999 37.0405V43.1999C28.7999 44.7796 30.1003 46.0799 31.6799 46.0799C32.426 46.0799 33.086 45.7519 33.5999 45.2793C34.1138 45.7519 34.7738 46.0799 35.5199 46.0799C37.0996 46.0799 38.3999 44.7796 38.3999 43.1999V35.5199H40.8956C41.6102 35.5199 42.0379 35.1594 42.3431 34.8543C42.3878 34.8096 42.428 34.7606 42.4631 34.708C42.8189 34.1743 42.8152 33.4766 42.6918 32.983C42.6859 32.959 42.679 32.9353 42.6712 32.9118L42.2587 31.6743C42.2847 31.675 42.3093 31.6799 42.3356 31.6799C43.3047 31.6799 44.1801 31.1875 44.6493 30.4368C45.1176 29.6875 45.1964 28.7217 44.8724 27.8099V27.8043C44.4927 26.6644 43.8244 24.5645 43.1549 22.4605C43.1537 22.4562 43.1525 22.4518 43.1512 22.4474C42.097 19.2849 41.0418 16.0237 41.0418 16.0237C41.031 15.9918 41.0184 15.9605 41.0043 15.9299C40.8043 15.4799 40.4295 14.6474 39.7237 13.8974C39.0178 13.1475 37.9119 12.4799 36.4799 12.4799H34.5599H30.7199C29.2479 12.4799 28.1391 13.2233 27.4499 13.9124C27.3578 14.0009 27.2842 14.1068 27.2336 14.2241C27.1829 14.3413 27.1561 14.4675 27.1548 14.5952C27.1535 14.7229 27.1777 14.8496 27.226 14.9679C27.2743 15.0861 27.3457 15.1936 27.436 15.2839C27.5263 15.3742 27.6337 15.4456 27.752 15.4939C27.8702 15.5421 27.9969 15.5663 28.1246 15.565C28.2524 15.5637 28.3785 15.537 28.4958 15.4863C28.613 15.4356 28.719 15.3621 28.8074 15.2699C29.2703 14.8071 29.8879 14.3999 30.7199 14.3999H34.5599H36.4799C37.3519 14.3999 37.8788 14.7396 38.3249 15.2137C38.7642 15.6804 39.0517 16.2741 39.2362 16.6874C39.2591 16.7582 40.2825 19.9164 41.3287 23.0549C41.9993 25.1625 42.6692 27.2677 43.0574 28.4324C43.0592 28.4387 43.0611 28.4449 43.0631 28.4512C43.2169 28.8818 43.1526 29.2094 43.0218 29.4187C42.891 29.6279 42.7104 29.7599 42.3356 29.7599C41.8982 29.7599 41.6004 29.4511 41.5312 29.2087C41.5283 29.1974 41.5251 29.1861 41.5218 29.1749L40.2731 25.3349C40.2724 25.3324 40.2718 25.3299 40.2712 25.3274L39.5024 23.0249C39.4972 23.0092 39.4916 22.9935 39.4856 22.978L38.6212 20.7693C38.6193 20.7649 38.6175 20.7605 38.6156 20.7562C38.606 20.7307 38.5954 20.7057 38.5837 20.6812C38.5771 20.6673 38.5703 20.6535 38.5631 20.6399C38.5606 20.6362 38.5581 20.6324 38.5556 20.6287C38.4359 20.419 38.2416 20.2622 38.0114 20.1894C37.7813 20.1166 37.5321 20.1331 37.3136 20.2358C37.0952 20.3384 36.9233 20.5195 36.8324 20.7432C36.7415 20.9668 36.7382 21.2164 36.8231 21.4424L40.8318 33.4705C40.8668 33.5974 40.8681 33.6019 40.8581 33.5999H37.4399H34.5599H33.5999H30.7199V27.8399C30.7199 25.7185 29.0013 23.9999 26.8799 23.9999H21.1199C18.9985 23.9999 17.2799 25.7185 17.2799 27.8399V34.5599C17.2799 34.9115 17.3536 35.2448 17.4712 35.5574V43.4887C17.4712 43.9367 17.1662 44.1599 16.7999 44.1599H15.1687C14.7207 44.1599 14.4956 43.8549 14.4956 43.4887C14.4934 43.3489 14.4608 43.2114 14.3999 43.0855V31.3912C14.4017 31.264 14.3782 31.1377 14.3308 31.0196C14.2834 30.9016 14.2129 30.7941 14.1236 30.7035C14.0343 30.6129 13.9278 30.541 13.8105 30.4919C13.6931 30.4428 13.5672 30.4175 13.4399 30.4175C13.3127 30.4175 13.1868 30.4428 13.0694 30.4919C12.952 30.541 12.8456 30.6129 12.7563 30.7035C12.6669 30.7941 12.5965 30.9016 12.5491 31.0196C12.5016 31.1377 12.4781 31.264 12.4799 31.3912V43.5843C12.4095 43.9137 12.2184 44.1599 11.9043 44.1599H10.2712C9.82318 44.1599 9.59993 43.8549 9.59993 43.4887V29.7599V20.1599C9.60169 20.0315 9.57766 19.904 9.52926 19.785C9.48086 19.666 9.40908 19.558 9.31816 19.4672C9.22725 19.3765 9.11905 19.3049 8.99997 19.2567C8.8809 19.2086 8.75337 19.1848 8.62493 19.1868C8.37065 19.1908 8.12834 19.2955 7.95117 19.4779C7.774 19.6604 7.67645 19.9056 7.67993 20.1599V29.7599C7.67993 30.2923 7.2523 30.7199 6.71993 30.7199C6.18757 30.7199 5.75993 30.2923 5.75993 29.7599V17.7599C5.75993 15.8719 7.23193 14.3999 9.11993 14.3999H17.7599C18.5279 14.3999 19.1956 14.6293 19.6987 14.9887C19.801 15.0663 19.9178 15.1226 20.0423 15.1543C20.1667 15.1859 20.2962 15.1923 20.4232 15.173C20.5501 15.1537 20.6719 15.1092 20.7814 15.042C20.8908 14.9748 20.9856 14.8864 21.0603 14.7819C21.1349 14.6774 21.1878 14.559 21.2159 14.4337C21.244 14.3084 21.2466 14.1787 21.2237 14.0523C21.2007 13.926 21.1527 13.8055 21.0824 13.6981C21.0121 13.5906 20.9209 13.4984 20.8143 13.4268C19.9734 12.8261 18.9119 12.4799 17.7599 12.4799H9.11993ZM23.9999 15.3599C22.7999 15.3599 21.7778 15.8445 21.1218 16.5824C20.4659 17.3204 20.1599 18.2666 20.1599 19.1999C20.1599 20.1333 20.4659 21.0795 21.1218 21.8174C21.7778 22.5554 22.7999 23.0399 23.9999 23.0399C25.1999 23.0399 26.2221 22.5554 26.8781 21.8174C27.534 21.0795 27.8399 20.1333 27.8399 19.1999C27.8399 18.2666 27.534 17.3204 26.8781 16.5824C26.2221 15.8445 25.1999 15.3599 23.9999 15.3599ZM23.9999 17.2799C24.7199 17.2799 25.1377 17.5154 25.4418 17.8574C25.7459 18.1995 25.9199 18.6933 25.9199 19.1999C25.9199 19.7066 25.7459 20.2004 25.4418 20.5424C25.1377 20.8845 24.7199 21.1199 23.9999 21.1199C23.2799 21.1199 22.8621 20.8845 22.5581 20.5424C22.254 20.2004 22.0799 19.7066 22.0799 19.1999C22.0799 18.6933 22.254 18.1995 22.5581 17.8574C22.8621 17.5154 23.2799 17.2799 23.9999 17.2799ZM21.1199 25.9199H26.8799C28.0225 25.9199 28.7999 26.6973 28.7999 27.8399V34.5599C28.7999 35.0923 28.3723 35.5199 27.8399 35.5199H26.8799C26.6253 35.5199 26.3812 35.6211 26.2011 35.8011C26.0211 35.9812 25.92 36.2253 25.9199 36.4799V43.6799C25.9199 43.8879 25.6479 44.1599 25.4399 44.1599H22.5599C22.3519 44.1599 22.0799 43.8879 22.0799 43.6799V36.4799C22.0799 36.2253 21.9788 35.9812 21.7987 35.8011C21.6187 35.6211 21.3745 35.5199 21.1199 35.5199H20.1599C19.8355 35.5199 19.5647 35.3501 19.3912 35.1055V29.7599C19.3938 29.5486 19.3265 29.3423 19.1999 29.173V27.8399C19.1999 26.6973 19.9773 25.9199 21.1199 25.9199ZM30.7199 35.5199H32.6399V43.1999C32.6399 43.7323 32.2123 44.1599 31.6799 44.1599C31.1476 44.1599 30.7199 43.7323 30.7199 43.1999V35.5199ZM34.5599 35.5199H36.4799V43.1999C36.4799 43.7323 36.0523 44.1599 35.5199 44.1599C34.9876 44.1599 34.5599 43.7323 34.5599 43.1999V35.5199Z" fill="#82C83C"/>
</svg>
