<svg width="48" height="48" viewBox="0 0 48 48" fill="none" xmlns="http://www.w3.org/2000/svg">
<path d="M9.59891 3.84033C5.90891 3.84033 2.87891 6.87033 2.87891 10.5603V13.4403C2.87891 13.9691 3.31016 14.4003 3.83891 14.4003H8.63891V43.2003C8.63891 43.7291 9.07016 44.1603 9.59891 44.1603H23.0389V42.2403H10.5589V14.4003H28.7989C29.3277 14.4003 29.7589 13.9691 29.7589 13.4403V10.5603C29.7589 7.91658 31.9152 5.76033 34.5589 5.76033C34.5889 5.76033 34.6189 5.76033 34.6489 5.76033C37.2514 5.80908 39.3589 7.94658 39.3589 10.5603V42.2403H34.5589V44.1603H40.3189C40.8477 44.1603 41.2789 43.7291 41.2789 43.2003V10.5603C41.2789 6.91908 38.3314 3.91908 34.7089 3.84033C34.6602 3.84033 34.6077 3.84033 34.5589 3.84033H9.59891ZM9.59891 5.76033H29.9089C28.6452 6.98283 27.8389 8.67408 27.8389 10.5603V12.4803H4.79891V10.5603C4.79891 7.91658 6.95516 5.76033 9.59891 5.76033ZM15.3589 17.2803V19.2003H34.5589V17.2803H15.3589ZM15.3589 23.0403V24.9603H34.5589V23.0403H15.3589ZM28.7989 28.8003C28.0564 28.8003 27.4452 29.2128 26.9989 29.7903C26.3314 29.6441 25.6114 29.6778 25.0189 30.1503C24.4302 30.6228 24.2764 31.3503 24.2989 32.0403C23.6764 32.3816 23.1627 32.8953 23.0389 33.6303C22.9189 34.3578 23.2452 35.0028 23.6989 35.5203C23.4289 36.2028 23.4027 36.9641 23.7589 37.5603C23.8227 37.6691 23.9164 37.7403 23.9989 37.8303V46.0803C23.9952 46.4441 24.1977 46.7778 24.5239 46.9428C24.8464 47.1078 25.2364 47.0778 25.5289 46.8603L28.7989 44.4003L32.0689 46.8603C32.3614 47.0778 32.7514 47.1078 33.0739 46.9428C33.4002 46.7778 33.6027 46.4441 33.5989 46.0803V37.8303C33.6814 37.7403 33.7752 37.6691 33.8389 37.5603C34.2552 36.8666 34.1652 36.1578 33.8989 35.5203C34.3527 35.0028 34.6789 34.3578 34.5589 33.6303C34.4352 32.8953 33.9214 32.3816 33.2989 32.0403C33.3214 31.3503 33.1677 30.6228 32.5789 30.1503C31.9864 29.6778 31.2664 29.6441 30.5989 29.7903C30.1639 29.2391 29.5527 28.8003 28.7989 28.8003ZM30.7189 29.9703C30.7602 30.0003 30.8389 30.0603 30.8089 30.0303L30.7789 30.0603C30.7602 30.0303 30.7377 30.0003 30.7189 29.9703ZM28.7989 30.7203C29.1064 30.7203 29.1364 30.7766 29.2189 31.0203C29.2677 31.1666 29.3502 31.3016 29.4589 31.4103C29.5077 31.4591 29.5677 31.5228 29.8189 31.6503C30.0702 31.7778 30.2802 31.7703 30.3289 31.7703C30.5052 31.7778 30.6852 31.7366 30.8389 31.6503C30.9814 31.5641 31.2402 31.5378 31.3789 31.6503C31.5402 31.7816 31.5402 31.8266 31.4389 32.1303C31.4014 32.2353 31.3789 32.3478 31.3789 32.4603C31.3789 32.5916 31.4464 32.6103 31.4989 32.7303C31.5327 33.1616 31.8514 33.5216 32.2789 33.6003C32.4289 33.6266 32.6127 33.8103 32.6389 33.9603C32.6652 34.1253 32.5714 34.3241 32.4289 34.4103C32.1514 34.5866 31.9789 34.8903 31.9789 35.2203V35.5203C31.9752 35.7228 32.0389 35.9253 32.1589 36.0903C32.1852 36.1278 32.2264 36.5103 32.1889 36.5703C32.1027 36.7128 31.9039 36.8066 31.7389 36.7803C31.3864 36.7166 31.0264 36.8553 30.8089 37.1403C30.8089 37.1516 30.8089 37.1591 30.8089 37.1703C30.7752 37.1966 30.7902 37.1928 30.7489 37.2303C30.7377 37.2416 30.7302 37.2191 30.7189 37.2303C30.5277 37.4103 30.4227 37.6578 30.4189 37.9203C30.4189 38.1753 30.4189 38.1791 30.2089 38.2503C30.1677 38.2691 30.1264 38.2878 30.0889 38.3103C30.0814 38.3066 30.1077 38.3103 30.0589 38.3103C29.9952 38.3103 29.8077 38.2391 29.6689 38.1003C29.4852 37.9203 29.2339 37.8228 28.9789 37.8303H28.6189C28.3639 37.8228 28.1127 37.9203 27.9289 38.1003C27.7714 38.2578 27.5989 38.3216 27.3889 38.2503C27.2727 38.1866 27.1789 38.0553 27.1789 37.9203C27.1789 37.7366 27.0889 37.4891 26.9689 37.3203C26.8602 37.1666 26.7627 37.0916 26.6989 37.0503C26.4777 36.8291 26.1664 36.7278 25.8589 36.7803C25.6939 36.8066 25.4952 36.7128 25.4089 36.5703C25.2964 36.3791 25.2589 36.3078 25.4089 36.1203C25.5439 35.9516 25.6189 35.7378 25.6189 35.5203V35.2203C25.6189 34.8903 25.4464 34.5866 25.1689 34.4103C25.0264 34.3241 24.9327 34.1253 24.9589 33.9603C24.9852 33.8103 25.1689 33.6266 25.3189 33.6003C25.7464 33.5216 26.0652 33.1616 26.0989 32.7303C26.1514 32.6103 26.2189 32.5916 26.2189 32.4603C26.2189 32.3478 26.1964 32.2353 26.1589 32.1303C26.0577 31.8266 26.0577 31.7816 26.2189 31.6503C26.3577 31.5378 26.6164 31.5641 26.7589 31.6503C27.0552 31.8228 27.4227 31.8228 27.7189 31.6503C27.7302 31.6503 27.7377 31.6503 27.7489 31.6503C27.7602 31.6391 27.7677 31.6316 27.7789 31.6203C27.7977 31.6128 27.8202 31.6016 27.8389 31.5903C28.0902 31.4853 28.2889 31.2791 28.3789 31.0203C28.4277 30.8703 28.6489 30.7203 28.7989 30.7203ZM25.9189 39.4203C26.1364 39.6978 26.3989 39.9191 26.7289 40.0503C26.7402 40.0616 26.7477 40.0691 26.7589 40.0803C27.4864 40.3241 28.1877 40.1103 28.7689 39.7503C28.7764 39.7466 28.7914 39.7541 28.7989 39.7503H28.9789C29.3202 39.9491 29.6239 40.2303 30.0589 40.2303C30.2239 40.2303 30.5539 40.1591 30.8389 40.0503C30.8539 40.0353 30.8802 40.0278 30.8989 40.0203C30.9177 40.0128 30.9402 40.0316 30.9589 40.0203V39.9903C31.2552 39.8666 31.4914 39.6791 31.6789 39.4503V44.1603L29.3689 42.4203C29.0314 42.1691 28.5664 42.1691 28.2289 42.4203L25.9189 44.1603V39.4203Z" fill="#82C83C"/>
</svg>
