<svg width="48" height="48" viewBox="0 0 48 48" fill="none" xmlns="http://www.w3.org/2000/svg">
<path d="M25.7288 4.80005C21.4491 4.80005 18.3261 6.50092 16.6706 9.0113C16.3305 9.52702 16.0683 10.0772 15.8569 10.6444L15.6487 10.1757C15.4567 9.79167 15.1684 9.60005 14.7844 9.60005C11.6164 9.60005 9.12 10.848 7.68 12.96C6.432 14.784 6.24075 17.0877 7.00875 19.2957C6.81675 19.6797 6.624 20.3524 6.72 21.0244C6.912 22.5604 7.48875 23.232 7.96875 23.52C8.25675 24.672 8.83275 25.9193 9.40875 26.5913C9.40875 27.2633 9.40725 27.936 9.31125 28.8C8.92725 29.568 7.68 30.144 6.24 30.72C3.744 31.776 0.288 33.12 0 37.44C0 37.728 0.09675 38.0168 0.28875 38.2088C0.48075 38.4008 0.672 38.4957 0.96 38.4957H6.915C6.76795 39.0443 6.66435 39.6295 6.62625 40.2619C6.61834 40.3926 6.63724 40.5236 6.68181 40.6467C6.72638 40.7698 6.79567 40.8826 6.88541 40.9779C6.97515 41.0733 7.08346 41.1493 7.20366 41.2012C7.32386 41.2532 7.45342 41.28 7.58437 41.28H40.4156C40.5466 41.28 40.6761 41.2532 40.7963 41.2012C40.9165 41.1493 41.0248 41.0733 41.1146 40.9779C41.2043 40.8826 41.2736 40.7698 41.3182 40.6467C41.3628 40.5236 41.3817 40.3926 41.3737 40.2619C41.3334 39.5924 41.2206 38.9757 41.0588 38.4H47.04C47.328 38.4 47.5192 38.3037 47.7113 38.0157C47.9032 37.8237 48 37.6324 48 37.3444C47.712 33.0244 44.3516 31.6804 41.8556 30.6244C40.5116 30.0484 39.1684 29.4724 38.7844 28.7044C38.6884 27.9364 38.6887 27.2637 38.6887 26.4957C39.2647 25.8237 39.8392 24.576 40.0312 23.52C40.5112 23.232 41.088 22.5604 41.28 21.0244C41.376 20.3524 41.2792 19.7757 40.9912 19.2957C41.5672 17.8557 41.5687 15.3597 40.6087 13.5357C39.8407 11.9997 38.5916 11.1364 37.0556 10.9444L36.6712 10.1757C36.5752 9.79167 36.1927 9.60005 35.8088 9.60005C34.3188 9.60005 33.0068 9.77819 31.8637 10.125C31.5247 9.3662 31.0749 8.64992 30.4556 8.05505C29.6392 7.27077 28.4904 6.80643 27.1762 6.6563L26.6044 5.37005C26.529 5.20064 26.4063 5.05666 26.2509 4.95551C26.0955 4.85436 25.9142 4.80037 25.7288 4.80005ZM25.1306 6.77817L25.6181 7.8788C25.6936 8.0485 25.8166 8.19267 25.9724 8.29385C26.1281 8.39502 26.3099 8.44884 26.4956 8.4488C27.6893 8.4488 28.4905 8.82999 29.1262 9.44067C29.762 10.0514 30.2158 10.934 30.4762 11.9119C30.7367 12.8899 30.7996 13.9522 30.7106 14.8444C30.6217 15.7367 30.3381 16.4614 30.1631 16.68C30.0723 16.7935 30.0084 16.9261 29.9762 17.0679C29.9441 17.2096 29.9445 17.3568 29.9776 17.4984C30.0106 17.64 30.0754 17.7722 30.167 17.885C30.2585 17.9979 30.3745 18.0885 30.5062 18.15C30.5094 18.1507 30.5212 18.153 30.5437 18.2063C30.5987 18.3361 30.6525 18.6148 30.6244 18.9882C30.4956 19.811 30.2747 20.2894 30.12 20.4957C30.0423 20.5993 29.9906 20.6334 29.9737 20.6438C29.7513 20.6611 29.5419 20.7554 29.3814 20.9104C29.2209 21.0654 29.1194 21.2715 29.0944 21.4932C29.0148 22.2098 28.7294 23.1294 28.3969 23.8482C28.2306 24.2075 28.0513 24.5214 27.9037 24.7275C27.7562 24.9337 27.5934 25.0084 27.75 24.9413C27.5773 25.0155 27.4302 25.1387 27.3269 25.2956C27.2235 25.4526 27.1686 25.6365 27.1687 25.8244C27.1687 27.0724 27.1684 28.0668 27.2662 29.535C27.2722 29.6306 27.2924 29.7248 27.3263 29.8144C27.8412 31.1662 29.0172 31.9809 30.2831 32.6082C31.549 33.2355 32.9855 33.7163 34.335 34.3013C35.6844 34.8863 36.9301 35.5673 37.8356 36.4988C38.5373 37.2206 38.9767 38.1785 39.2269 39.36H8.77312C9.02326 38.1785 9.46271 37.2206 10.1644 36.4988C11.0699 35.5673 12.3155 34.8863 13.665 34.3013C15.0144 33.7163 16.451 33.2355 17.7169 32.6082C18.9828 31.9809 20.1588 31.1662 20.6737 29.8144C20.707 29.7266 20.7272 29.6344 20.7337 29.5407C20.8323 28.161 20.8312 27.0724 20.8312 25.8244C20.8314 25.6365 20.7765 25.4526 20.6731 25.2956C20.5698 25.1387 20.4227 25.0155 20.25 24.9413C20.3812 24.9975 20.2158 24.916 20.0606 24.7144C19.9055 24.5128 19.7186 24.2103 19.5431 23.8594C19.1922 23.1576 18.8891 22.2504 18.81 21.4988C18.7885 21.2956 18.7027 21.1046 18.5651 20.9535C18.4275 20.8024 18.2453 20.6992 18.045 20.6588C17.9514 20.6401 17.4428 20.6554 17.2762 19.0163C17.2092 18.279 17.5634 18.0523 17.5238 18.0788C17.7116 17.954 17.8495 17.767 17.9132 17.5506C17.977 17.3343 17.9626 17.1024 17.8725 16.8957C16.8365 14.5216 17.0012 11.9984 18.2738 10.0688C19.4726 8.25085 21.7157 6.93003 25.1306 6.77817ZM14.2087 11.52L14.4956 12.3844C14.684 12.7611 14.9662 12.951 15.3394 12.9582C15.233 14.3267 15.4381 15.7437 15.9412 17.1057C15.5721 17.6044 15.278 18.2476 15.3637 19.1907C15.3644 19.1938 15.365 19.1969 15.3656 19.2C15.5344 20.8881 16.2927 21.6888 17.0306 22.1232C17.1865 23.0403 17.4462 23.9593 17.8256 24.7182C18.0462 25.1593 18.2841 25.552 18.54 25.8844C18.637 26.0104 18.7978 26.0846 18.9019 26.1957C18.901 27.2097 18.895 28.1294 18.825 29.2032C18.5502 29.833 17.91 30.3685 16.8638 30.8869C15.7747 31.4266 14.3484 31.9118 12.9019 32.5388C11.4553 33.1658 9.97172 33.9424 8.78625 35.1619C8.35776 35.6027 7.97523 36.1069 7.65375 36.6713H2.01562C2.68762 34.3673 4.70325 33.504 6.91125 32.64C8.73525 31.872 10.5596 31.1033 11.1356 29.4713C11.2316 29.3753 11.2312 29.2804 11.2312 29.1844C11.3272 27.9364 11.3287 27.1688 11.3287 26.2088C11.3287 25.9208 11.2324 25.632 10.9444 25.44C10.6564 25.248 9.98325 23.9033 9.79125 22.7513C9.69525 22.2713 9.31275 21.9848 8.92875 21.8888C8.92875 21.7928 8.736 21.5033 8.64 20.8313C8.64 20.5433 8.63962 20.3517 8.73563 20.2557C9.02362 20.0637 9.21637 19.4884 9.02437 19.1044C8.25637 17.3764 8.35125 15.4557 9.31125 14.0157C10.2712 12.4797 12.0007 11.616 14.2087 11.52ZM35.2313 11.52L35.6156 12.2888C35.7116 12.6728 36.096 12.8644 36.48 12.8644C37.632 12.8644 38.4956 13.344 38.9756 14.4C39.7436 16.032 39.5513 18.3353 39.0713 18.9113C38.8792 19.1993 38.784 19.4877 38.88 19.7757C38.976 19.9677 39.0724 20.1597 39.2644 20.2557V20.7357C39.1684 21.4077 39.0716 21.6953 38.9756 21.7913C38.4956 21.7913 38.1112 22.1757 38.1112 22.6557C38.0152 23.7117 37.3433 24.9593 37.1512 25.1513C36.8633 25.3433 36.6712 25.6317 36.6712 26.0157C36.6712 27.0717 36.6727 27.9353 36.7687 28.9913C36.8647 29.0873 36.8644 29.184 36.8644 29.28C37.5364 31.008 39.2647 31.6808 41.0887 32.4488C43.2007 33.3128 45.3127 34.176 45.8887 36.48H40.32C40.2898 36.48 40.2666 36.493 40.2375 36.495C39.9388 36.0032 39.5963 35.5554 39.2137 35.1619C38.0283 33.9424 36.5447 33.1658 35.0981 32.5388C33.6516 31.9118 32.2253 31.4266 31.1362 30.8869C30.0913 30.3691 29.4523 29.8339 29.1769 29.205C29.1061 28.0556 29.0988 27.1834 29.0981 26.175C29.2016 26.0574 29.3716 25.9764 29.4656 25.845C29.7111 25.5022 29.933 25.0991 30.1388 24.6544C30.4978 23.8784 30.7444 22.97 30.8906 22.0819C31.1468 21.925 31.4564 21.9144 31.6556 21.6488C32.0742 21.0907 32.3726 20.3168 32.5331 19.2469C32.5362 19.2283 32.5387 19.2095 32.5406 19.1907C32.6007 18.5295 32.519 17.9477 32.3119 17.4582C32.2603 17.3364 32.0907 17.2967 32.0212 17.1825C32.329 16.554 32.5398 15.853 32.6213 15.0357C32.7175 14.0706 32.6658 13.0019 32.445 11.94C33.2653 11.7185 34.2208 11.5922 35.2313 11.52Z" fill="#82C83C"/>
</svg>
