<svg width="48" height="48" viewBox="0 0 48 48" fill="none" xmlns="http://www.w3.org/2000/svg">
<path d="M23.9971 1.89014C23.5171 1.89014 23.0333 2.01389 22.6058 2.26514C22.5983 2.26514 22.5946 2.26889 22.5871 2.27264C22.5871 2.27264 17.5358 5.34764 12.477 8.49389C9.94955 10.0689 7.42205 11.6589 5.50955 12.9001C4.55705 13.5226 3.7583 14.0551 3.18455 14.4601C2.8958 14.6664 2.6633 14.8351 2.47955 14.9851C2.38955 15.0601 2.3108 15.1276 2.22455 15.2176C2.17955 15.2626 2.13455 15.3114 2.07455 15.3976C2.0183 15.4839 1.9058 15.5926 1.88705 15.9376C1.8533 16.5376 2.02955 16.5676 2.11955 16.7101C2.2058 16.8526 2.30705 16.9801 2.4233 17.1301C2.65955 17.4226 2.96705 17.7714 3.33455 18.1689C3.4658 18.3076 3.6608 18.5026 3.80705 18.6564C3.80705 21.8401 3.81455 28.4926 3.8183 30.0301C3.23705 30.3751 2.87705 31.0014 2.87705 31.6801C2.87705 31.9014 2.9183 32.1226 2.9933 32.3326C2.34455 32.8576 1.91705 33.6414 1.91705 34.5301C1.91705 35.6626 2.5058 36.6264 3.0158 37.4739C3.5258 38.3251 4.0358 38.9851 4.0358 38.9851C4.2158 39.2214 4.49705 39.3601 4.7933 39.3601C5.08955 39.3601 5.3708 39.2251 5.55455 38.9926C5.55455 38.9926 6.06455 38.3401 6.5783 37.4964C7.09205 36.6489 7.67705 35.6739 7.67705 34.5301C7.67705 33.6414 7.24955 32.8576 6.6008 32.3326C6.6758 32.1226 6.71705 31.9014 6.71705 31.6801C6.71705 31.0126 6.3683 30.3939 5.80205 30.0451C5.80205 28.8001 5.79455 24.3826 5.7908 20.7039C5.8658 20.7789 5.9258 20.8464 6.00455 20.9214C7.7858 22.7064 9.3008 24.1614 9.56705 24.4201C8.6033 24.9301 7.67705 26.1414 7.67705 28.0539C7.67705 30.0226 8.8958 31.8939 10.8008 32.4339C12.0271 35.5426 13.587 38.8051 15.6533 41.3851C17.7758 44.0364 20.5058 46.0089 23.8358 46.0689C23.8883 46.0764 23.9371 46.0801 23.9896 46.0801H23.9933C23.9971 46.0801 23.9971 46.0801 24.0008 46.0801C24.0046 46.0801 24.0083 46.0801 24.0121 46.0801C24.0496 46.0801 24.0908 46.0764 24.1321 46.0689C27.4733 46.0201 30.2108 44.0439 32.3408 41.3851C34.4071 38.8051 35.9671 35.5426 37.1933 32.4339C39.0983 31.8939 40.3171 30.0226 40.3171 28.0539C40.3171 26.1414 39.3908 24.9301 38.4271 24.4201C38.6933 24.1614 40.2083 22.7064 41.9933 20.9214C42.9571 19.9539 43.9246 18.9639 44.6596 18.1689C45.0271 17.7714 45.3346 17.4226 45.5708 17.1301C45.6871 16.9801 45.7883 16.8526 45.8783 16.7101C45.9646 16.5676 46.1408 16.5376 46.1071 15.9376C46.0883 15.5889 45.9758 15.4801 45.9158 15.3939C45.8596 15.3114 45.8146 15.2626 45.7696 15.2176C45.6833 15.1276 45.6046 15.0601 45.5108 14.9851C45.3308 14.8351 45.0983 14.6664 44.8096 14.4601C44.2358 14.0551 43.4371 13.5226 42.4808 12.9001C40.5721 11.6589 38.0446 10.0689 35.5171 8.49389C30.4583 5.34764 25.4071 2.27264 25.4071 2.27264C25.3996 2.26889 25.3958 2.26514 25.3883 2.26514C24.9608 2.01389 24.4771 1.89014 23.9971 1.89014ZM23.9971 3.87014C24.1321 3.87014 24.2671 3.90764 24.3908 3.97889C24.4096 3.99014 29.4308 7.04264 34.4671 10.1776C36.9908 11.7489 39.5146 13.3389 41.4008 14.5651C42.3458 15.1801 43.1296 15.7051 43.6658 16.0801C43.7183 16.1176 43.7333 16.1326 43.7783 16.1664C43.6096 16.3651 43.4483 16.5564 43.2008 16.8226C42.4996 17.5839 41.5471 18.5589 40.5871 19.5189C39.0308 21.0789 37.9996 22.0689 37.4671 22.5789V18.2401C37.4671 17.8951 37.2908 17.5764 36.9946 17.3964C36.9946 17.3964 32.0033 14.3701 23.9971 14.3701C15.9908 14.3701 10.9996 17.3964 10.9996 17.3964C10.7033 17.5764 10.527 17.8951 10.527 18.2401V22.5789C9.99455 22.0689 8.9633 21.0789 7.40705 19.5189C6.75455 18.8701 6.19955 18.2851 5.62955 17.6889C5.56205 17.5801 5.4683 17.4864 5.3633 17.4151C5.18705 17.2276 4.9433 16.9914 4.78955 16.8264C4.5458 16.5564 4.38455 16.3614 4.21205 16.1664C4.2608 16.1289 4.2758 16.1176 4.3283 16.0801C4.86455 15.7014 5.6483 15.1764 6.5933 14.5651C8.47955 13.3351 11.0033 11.7489 13.5271 10.1776C18.5633 7.04264 23.5846 3.99014 23.6033 3.97889C23.7271 3.90764 23.8621 3.87014 23.9971 3.87014ZM23.9971 16.3501C30.9496 16.3501 34.8758 18.5289 35.4871 18.8814V22.6951C33.9758 22.1926 30.2746 21.0901 23.9971 21.0901C17.7196 21.0901 14.0183 22.1926 12.507 22.6951V18.8814C13.1183 18.5289 17.0446 16.3501 23.9971 16.3501ZM23.9971 23.0701C30.1321 23.0701 34.2083 24.2739 35.5171 24.7201V26.0289L36.5821 25.9164C36.5821 25.9164 37.0546 25.8789 37.4971 26.0964C37.9433 26.3101 38.3971 26.6214 38.3971 28.0539C38.3971 29.4001 37.5271 30.6076 36.3796 30.7239L35.7908 30.7839L35.5808 31.3351C34.3733 34.4626 32.7908 37.7476 30.8408 40.1851C28.8908 42.6189 26.6558 44.1601 24.0008 44.1601C23.9971 44.1601 23.9971 44.1601 23.9933 44.1601C21.3383 44.1601 19.1033 42.6189 17.1533 40.1851C15.2033 37.7476 13.6208 34.4626 12.4133 31.3351L12.2033 30.7839L11.6146 30.7239C10.467 30.6076 9.59705 29.4001 9.59705 28.0539C9.59705 26.6214 10.0508 26.3101 10.497 26.0964C10.9396 25.8789 11.412 25.9164 11.412 25.9164L12.477 26.0289V24.7201C13.7858 24.2739 17.8621 23.0701 23.9971 23.0701ZM4.79705 33.6001C5.3483 33.6001 5.75705 34.0164 5.75705 34.5301C5.75705 34.8039 5.38205 35.7601 4.9358 36.4951C4.8683 36.6076 4.8683 36.5926 4.8008 36.6939C4.7333 36.5851 4.72955 36.6001 4.6583 36.4839C4.2083 35.7414 3.83705 34.7664 3.83705 34.5301C3.83705 34.0164 4.2458 33.6001 4.79705 33.6001Z" fill="#82C83C"/>
</svg>
