<svg width="30" height="30" viewBox="0 0 30 30" fill="none" xmlns="http://www.w3.org/2000/svg">
<path d="M12.0092 8.99023C12.2081 8.99029 12.4025 9.04967 12.5675 9.16078C12.7325 9.27189 12.8607 9.42969 12.9355 9.61401C13.0104 9.79832 13.0286 10.0008 12.9878 10.1955C12.947 10.3902 12.849 10.5683 12.7065 10.707L9.41349 14H22.9994C23.1319 13.9981 23.2635 14.0226 23.3865 14.072C23.5094 14.1214 23.6214 14.1948 23.7157 14.2878C23.8101 14.3809 23.885 14.4918 23.9362 14.614C23.9873 14.7363 24.0137 14.8675 24.0137 15C24.0137 15.1325 23.9873 15.2637 23.9362 15.386C23.885 15.5082 23.8101 15.6191 23.7157 15.7122C23.6214 15.8052 23.5094 15.8786 23.3865 15.928C23.2635 15.9774 23.1319 16.0019 22.9994 16H9.41349L12.7065 19.293C12.8024 19.3851 12.8791 19.4955 12.9318 19.6176C12.9846 19.7397 13.0125 19.8712 13.0139 20.0042C13.0152 20.1373 12.99 20.2692 12.9397 20.3924C12.8894 20.5156 12.8151 20.6275 12.721 20.7216C12.6269 20.8156 12.515 20.89 12.3918 20.9403C12.2687 20.9906 12.1367 21.0158 12.0036 21.0144C11.8706 21.0131 11.7392 20.9852 11.617 20.9324C11.4949 20.8796 11.3845 20.803 11.2924 20.707L6.38029 15.7949C6.25817 15.7019 6.15911 15.5819 6.0908 15.4444C6.02249 15.3069 5.98676 15.1555 5.98639 15.0019C5.98601 14.8484 6.02099 14.6968 6.08862 14.559C6.15625 14.4211 6.25472 14.3007 6.37638 14.207C6.37833 14.2057 6.38029 14.2044 6.38224 14.2031L11.2924 9.29297C11.3856 9.19717 11.497 9.12103 11.6201 9.06903C11.7433 9.01704 11.8756 8.99024 12.0092 8.99023Z" fill="white"/>
</svg>
