<svg width="30" height="30" viewBox="0 0 30 30" fill="none" xmlns="http://www.w3.org/2000/svg">
<path d="M17.9908 8.99023C17.7919 8.99029 17.5975 9.04967 17.4325 9.16078C17.2675 9.27189 17.1393 9.42969 17.0645 9.61401C16.9896 9.79832 16.9714 10.0008 17.0122 10.1955C17.053 10.3902 17.151 10.5683 17.2935 10.707L20.5865 14H7.00057C6.86806 13.9981 6.7365 14.0226 6.61353 14.072C6.49056 14.1214 6.37864 14.1948 6.28427 14.2878C6.1899 14.3809 6.11496 14.4918 6.06382 14.614C6.01267 14.7363 5.98633 14.8675 5.98633 15C5.98633 15.1325 6.01267 15.2637 6.06382 15.386C6.11496 15.5082 6.1899 15.6191 6.28427 15.7122C6.37864 15.8052 6.49056 15.8786 6.61353 15.928C6.7365 15.9774 6.86806 16.0019 7.00057 16H20.5865L17.2935 19.293C17.1976 19.3851 17.1209 19.4955 17.0682 19.6176C17.0154 19.7397 16.9875 19.8712 16.9861 20.0042C16.9848 20.1373 17.01 20.2692 17.0603 20.3924C17.1106 20.5156 17.1849 20.6275 17.279 20.7216C17.3731 20.8156 17.485 20.89 17.6082 20.9403C17.7313 20.9906 17.8633 21.0158 17.9964 21.0144C18.1294 21.0131 18.2608 20.9852 18.383 20.9324C18.5051 20.8796 18.6155 20.803 18.7076 20.707L23.6197 15.7949C23.7418 15.7019 23.8409 15.5819 23.9092 15.4444C23.9775 15.3069 24.0132 15.1555 24.0136 15.0019C24.014 14.8484 23.979 14.6968 23.9114 14.559C23.8437 14.4211 23.7453 14.3007 23.6236 14.207C23.6217 14.2057 23.6197 14.2044 23.6178 14.2031L18.7076 9.29297C18.6144 9.19717 18.503 9.12103 18.3799 9.06903C18.2567 9.01704 18.1244 8.99024 17.9908 8.99023Z" fill="white"/>
</svg>
