<svg width="19" height="13" viewBox="0 0 19 13" fill="none" xmlns="http://www.w3.org/2000/svg">
<path d="M12.0045 0C11.8055 5.24045e-05 11.6111 0.0594309 11.4461 0.170545C11.2811 0.281658 11.153 0.439459 11.0781 0.623771C11.0033 0.808083 10.9851 1.01053 11.0259 1.20523C11.0667 1.39994 11.1646 1.57805 11.3072 1.7168L14.6002 5.00977H1.01424C0.88173 5.00789 0.750167 5.03237 0.627199 5.08179C0.504231 5.1312 0.39231 5.20456 0.29794 5.29761C0.203571 5.39065 0.128635 5.50152 0.077487 5.62378C0.0263393 5.74604 0 5.87724 0 6.00977C0 6.14229 0.0263393 6.27349 0.077487 6.39575C0.128635 6.51801 0.203571 6.62888 0.29794 6.72193C0.39231 6.81497 0.504231 6.88833 0.627199 6.93775C0.750167 6.98716 0.88173 7.01164 1.01424 7.00977H14.6002L11.3072 10.3027C11.2112 10.3949 11.1346 10.5052 11.0818 10.6274C11.029 10.7495 11.0012 10.8809 10.9998 11.014C10.9984 11.147 11.0237 11.279 11.0739 11.4022C11.1242 11.5254 11.1986 11.6373 11.2927 11.7313C11.3868 11.8254 11.4987 11.8998 11.6218 11.9501C11.745 12.0004 11.877 12.0256 12.01 12.0242C12.1431 12.0229 12.2745 11.995 12.3966 11.9422C12.5188 11.8894 12.6291 11.8128 12.7213 11.7168L17.6334 6.80469C17.7555 6.71162 17.8546 6.59168 17.9229 6.45416C17.9912 6.31665 18.0269 6.16525 18.0273 6.01171C18.0277 5.85816 17.9927 5.70659 17.925 5.56874C17.8574 5.43089 17.759 5.31047 17.6373 5.2168C17.6353 5.21549 17.6334 5.21419 17.6314 5.21289L12.7213 0.302734C12.6281 0.20694 12.5166 0.130795 12.3935 0.0787983C12.2704 0.0268015 12.1381 7.76379e-06 12.0045 0Z" fill="#43434A"/>
</svg>
