<svg width="280" height="280" viewBox="0 0 280 280" fill="none" xmlns="http://www.w3.org/2000/svg">
<g opacity="0.2">
<path d="M354.06 280.001C354.06 239.095 320.908 205.943 280.001 205.943C239.094 205.943 205.942 239.095 205.942 280.001C205.943 320.907 239.094 354.057 280.001 354.057V364L277.831 363.971C233.157 362.839 197.16 326.842 196.028 282.169L196 280.001C196 233.604 233.604 196 280.001 196L282.169 196.029C327.564 197.178 364 234.329 364 280.001L363.974 282.169C362.824 327.563 325.673 364 280.001 364V354.057C320.908 354.057 354.06 320.907 354.06 280.001Z" fill="white"/>
<path d="M534.376 315.186C539.733 313.243 544.615 310.129 548.731 305.951C556.068 298.525 560.052 288.65 559.999 278.19C559.894 261.103 548.837 246.597 533.611 241.46C536.804 239.144 539.654 236.323 542.055 233.076C549.338 223.175 551.581 210.266 548.098 198.502C543.401 182.878 529.283 171.779 513.318 170.821C514.875 168.692 516.247 166.403 517.381 163.981C523.108 151.658 522.131 137.498 514.795 126.133C507.644 115.034 495.452 108.38 482.284 108.38C479.197 108.38 476.215 108.753 473.338 109.445C474.315 106.863 475.054 104.175 475.476 101.38C477.508 87.9392 472.652 74.6578 462.44 65.8213C455.447 59.7528 446.501 56.4258 437.265 56.4258C430.272 56.4258 423.648 58.289 417.922 61.6692C418.159 58.8745 418.106 56.0266 417.737 53.1787C415.942 39.6844 407.551 28.3194 395.306 22.73C390.266 20.4144 384.935 19.27 379.42 19.27C368.97 19.27 358.837 23.6084 351.554 31.1407C351.422 31.3004 351.263 31.4601 351.131 31.6198C350.577 28.7452 349.706 25.8973 348.492 23.1559C342.977 10.7529 331.735 2.23574 318.435 0.372622C316.667 0.106462 314.847 0 313.078 0C300.728 0 289.012 6.06844 281.728 16.1825C280.567 17.8061 279.565 19.5095 278.667 21.2395C277.797 19.5627 276.82 17.9392 275.685 16.3954C268.428 6.36121 256.712 0.346008 244.441 0.346008C242.541 0.346008 240.588 0.505703 238.688 0.771863C225.415 2.79468 214.278 11.4183 208.895 23.8745C207.708 26.616 206.863 29.4373 206.335 32.2319C206.283 32.1521 206.203 32.0722 206.124 31.9924C198.894 24.5399 188.787 20.2548 178.416 20.2548C172.769 20.2548 167.306 21.4791 162.16 23.9011C149.969 29.597 141.709 41.0684 140.046 54.5627C139.703 57.4106 139.677 60.2319 139.941 63C134.294 59.8061 127.855 58.0494 120.888 58.0494C111.52 58.0494 102.442 61.4829 95.3964 67.711C85.2895 76.6274 80.5395 89.9886 82.7297 103.403C83.2047 106.331 83.9964 109.125 85.0784 111.76C82.202 111.095 79.2464 110.722 76.2381 110.722C62.8589 110.722 50.6408 117.509 43.4894 128.875C36.2853 140.319 35.4936 154.479 41.3255 166.722C42.5922 169.384 44.1228 171.833 45.8908 174.042C29.5825 174.947 15.3325 186.285 10.82 202.255C7.44219 214.152 9.73802 226.635 17.1533 236.536C19.5811 239.757 22.4575 242.551 25.6241 244.814C20.2672 246.73 15.3852 249.871 11.2686 254.049C3.93246 261.475 -0.0522602 271.35 0.000517621 281.81C0.106073 298.871 11.163 313.403 26.3894 318.54C23.1964 320.855 20.3464 323.677 17.945 326.924C10.6616 336.798 8.41858 349.734 11.9019 361.471C16.5991 377.095 30.7172 388.221 46.6825 389.179C45.1255 391.281 43.7533 393.57 42.6186 396.019C36.8922 408.342 37.8686 422.475 45.2047 433.84C52.3561 444.966 64.5478 451.62 77.7158 451.62C80.8033 451.62 83.7853 451.247 86.6617 450.555C85.6853 453.137 84.9464 455.825 84.5242 458.593C82.4922 472.034 87.3478 485.342 97.5603 494.179C104.553 500.247 113.499 503.574 122.735 503.574C129.728 503.574 136.352 501.711 142.078 498.331C141.841 501.125 141.894 503.973 142.263 506.821C144.058 520.289 152.449 531.681 164.694 537.27C169.734 539.559 175.065 540.73 180.58 540.73C191.03 540.73 201.163 536.392 208.446 528.859C208.578 528.7 208.737 528.54 208.869 528.38C209.423 531.255 210.294 534.103 211.508 536.844C217.023 549.247 228.265 557.764 241.565 559.627C243.333 559.867 245.153 560 246.922 560C259.272 560 270.988 553.932 278.272 543.791C279.433 542.194 280.435 540.491 281.333 538.734C282.203 540.411 283.18 542.061 284.315 543.605C291.572 553.639 303.288 559.627 315.559 559.627C317.459 559.627 319.412 559.494 321.312 559.202C334.585 557.205 345.748 548.582 351.105 536.099C352.292 533.357 353.137 530.563 353.665 527.741C353.717 527.821 353.797 527.928 353.876 527.981C361.106 535.433 371.213 539.719 381.584 539.719C387.231 539.719 392.694 538.494 397.84 536.099C410.031 530.376 418.291 518.932 419.954 505.437C420.297 502.563 420.323 499.741 420.059 497C425.706 500.194 432.145 501.951 439.112 501.951C448.48 501.951 457.558 498.517 464.604 492.289C474.711 483.346 479.461 470.011 477.27 456.597C476.795 453.669 476.004 450.848 474.922 448.213C477.798 448.905 480.754 449.278 483.762 449.278C497.141 449.278 509.359 442.49 516.511 431.125C523.741 419.681 524.506 405.521 518.674 393.278C517.408 390.616 515.877 388.167 514.109 385.958C530.418 385.027 544.668 373.688 549.18 357.719C552.558 345.848 550.262 333.365 542.847 323.464C540.419 320.217 537.543 317.449 534.376 315.186ZM310.651 113.171C311.39 112.08 312.076 111.015 312.762 109.977C321.365 98.0532 333.002 80.0076 340.681 67.9506C341.051 81.7909 341.631 102.392 342.159 116.924C342.185 117.962 342.212 119.027 342.238 120.118C342.159 127.97 339.916 134.597 335.773 138.935C332.606 142.262 328.49 144.072 324.109 144.072C322.499 144.072 320.863 143.833 319.28 143.327C313.659 141.597 309.279 137.365 307.51 132.015C305.637 126.346 306.719 119.852 310.545 113.331L310.651 113.171ZM475.555 189.506C467.48 196.985 456.951 206.753 448.058 215.11C445.076 217.852 441.909 220.753 438.426 223.947C433.148 228.179 427.633 230.414 422.302 230.414C415.573 230.414 409.926 226.768 407.261 220.726C404.859 215.323 405.149 209.202 407.999 204.331C411.483 198.369 418.423 194.696 427.58 193.897C442.147 192.646 463.495 189.639 477.64 187.563C476.927 188.202 476.241 188.867 475.555 189.506ZM267.452 427C270.513 422.715 275.263 420.293 280.515 420.293H280.726C286.584 420.346 291.967 423.167 295.16 427.798C299.092 433.468 299.515 441.373 296.401 450.076C291.466 463.943 285.265 484.783 281.227 498.624C276.873 485.076 270.328 464.688 265.737 450.821C262.597 441.399 263.203 432.909 267.452 427ZM314.451 449.304C308.777 441.08 307.035 432.749 309.463 425.855C311.258 420.852 315.216 417.179 320.283 415.741C321.945 415.262 323.66 415.023 325.349 415.023C330.231 415.023 334.717 416.966 337.99 420.479C342.212 424.977 344.165 431.684 343.663 439.909C342.792 454.654 342.634 476.399 342.634 490.825C334.691 479.034 322.71 461.335 314.451 449.331M419.109 379.677C426.26 392.532 437.845 410.924 445.577 423.034C432.567 417.471 412.987 409.141 399.581 403.551C390.424 399.719 384.434 393.703 382.798 386.544C381.611 381.38 382.956 376.137 386.466 372.118C389.949 368.179 394.779 365.916 399.766 365.916C407.287 365.916 414.148 370.814 419.109 379.65M385.015 414.145C388.287 428.517 394.198 449.437 398.209 463.278C387.31 454.228 370.897 440.654 359.602 431.445C351.897 425.137 347.859 417.658 348.308 410.338C348.624 405.042 351.395 400.411 355.881 397.563C358.837 395.7 362.162 394.715 365.513 394.715C374.96 394.715 382.27 401.954 385.015 414.145ZM400.611 356.894C400.347 356.894 400.056 356.894 399.792 356.894C392.245 356.894 384.909 360.274 379.763 366.129C374.644 371.958 372.533 379.464 373.747 386.996C370.976 386.065 368.179 385.639 365.54 385.639C360.473 385.639 355.512 387.103 351.105 389.871C344.138 394.289 339.81 401.529 339.309 409.806V409.886C335.192 407.304 330.442 405.92 325.376 405.92C322.869 405.92 320.335 406.266 317.908 406.958C310.492 409.061 304.608 414.224 301.626 421.251C296.665 414.996 289.038 411.27 280.858 411.163H280.541C272.624 411.163 265.394 414.783 260.591 421.091C257.398 414.437 251.513 409.3 244.23 407.011C241.749 406.24 239.216 405.84 236.683 405.84C231.616 405.84 226.76 407.411 222.591 410.312C221.799 402.433 217.445 395.167 210.69 390.589C206.494 387.741 201.691 386.251 196.73 386.251C193.721 386.251 190.819 386.81 188.101 387.821C189.183 380.289 186.94 372.437 181.846 366.395C177.07 360.726 170.183 357.506 162.899 357.452C165.934 350.665 165.96 342.681 162.899 335.574C159.416 327.536 152.37 322.08 143.899 320.669C148.781 314.867 150.971 307.122 149.916 299.376C148.86 291.631 144.559 285.243 138.358 281.357C145.087 277.365 149.863 270.471 151.13 261.954C152.238 254.555 150.206 247.342 145.377 241.7C145.034 241.274 144.665 240.875 144.295 240.502C151.367 238.319 157.331 233.209 160.683 226.023C164.14 218.677 163.928 210.426 160.181 203.319C160.498 203.346 160.841 203.373 161.158 203.373C168.81 203.373 176.199 199.913 181.371 193.924C186.438 188.068 188.47 180.536 187.203 173.057C189.658 173.749 192.085 174.095 194.381 174.095C199.448 174.095 204.409 172.631 208.79 169.863C215.624 165.551 219.899 158.525 220.559 150.487C224.781 153.202 229.663 154.665 234.888 154.665C237.342 154.665 239.797 154.346 242.145 153.681C250.035 151.525 256.21 145.882 259.087 138.19C264.022 143.992 271.358 147.452 279.195 147.559H279.538C287.666 147.559 295.081 143.753 299.858 137.152C302.972 144.205 309.067 149.662 316.667 152.004C319.122 152.776 321.629 153.148 324.109 153.148C329.334 153.148 334.269 151.525 338.517 148.49C339.335 156.342 343.742 163.608 350.498 168.133C354.667 170.928 359.444 172.392 364.352 172.392C367.492 172.392 370.527 171.806 373.377 170.688C372.137 178.354 374.38 186.392 379.526 192.513C384.329 198.209 391.269 201.456 398.605 201.456C398.842 201.456 399.08 201.43 399.317 201.43C395.861 208.483 395.729 216.947 399.027 224.373C402.379 231.985 408.949 237.228 416.866 238.905C416.84 238.905 416.787 238.985 416.734 239.038C411.694 244.867 409.477 252.692 410.533 260.57C411.615 268.422 416.022 274.89 422.381 278.776C415.784 282.768 411.087 289.582 409.847 297.966C408.712 305.392 410.744 312.631 415.573 318.247C415.837 318.567 416.127 318.886 416.417 319.179C409.266 321.308 403.249 326.471 399.845 333.711C396.336 341.19 396.599 349.654 400.611 356.867M196.703 395.354C199.87 395.354 202.958 396.338 205.649 398.148C210.505 401.449 213.487 406.772 213.671 412.414C213.856 419.308 209.924 426.202 202.615 431.791C190.977 440.681 174.458 454.707 163.612 464.103C167.333 450.342 172.848 429.688 176.516 415.528C180.395 400.703 189.473 395.407 196.677 395.407M178.812 388.247C177.123 394.928 171.502 400.437 162.926 403.818C149.309 409.167 129.649 418.11 116.613 424.152C123.923 411.935 134.874 393.57 142.237 380.981C147.594 371.825 155.062 366.555 162.715 366.555C167.465 366.555 171.792 368.605 174.906 372.331C178.706 376.829 180.158 382.764 178.785 388.274M153.716 355.563C150.18 361.471 143.213 365.118 134.03 365.81C119.463 366.954 98.0617 369.749 83.8908 371.745C94.3936 362.19 110.148 347.817 120.809 337.916C126.852 332.327 133.291 329.399 139.466 329.399C146.301 329.399 151.948 333.072 154.613 339.221C156.935 344.624 156.619 350.745 153.716 355.589M124.398 275.981C120.096 275.981 115.558 274.703 110.808 272.202C97.8506 265.361 78.2172 256.312 65.1547 250.403C79.0881 247.928 99.9881 244.148 114.212 241.487C124.583 239.517 133.581 241.833 138.542 247.662C141.603 251.255 142.923 255.859 142.21 260.65C141.049 268.289 135.138 276.008 124.371 276.008M152.528 222.163C149.52 228.551 143.451 232.544 136.642 232.544C130.758 232.544 124.688 229.643 119.12 224.133C108.644 213.833 92.4409 199.46 81.6478 190.011C95.6867 191.688 116.771 194.163 131.18 195.734C141.049 196.798 148.465 200.924 152.001 207.312C154.587 211.943 154.771 217.346 152.502 222.19M141.867 180.722C134.584 167.947 122.841 149.662 114.977 137.605C128.039 143.061 147.699 151.205 161.158 156.662C170.367 160.414 176.384 166.376 178.099 173.51C179.34 178.673 178.046 183.943 174.563 187.989C171.08 192.008 166.224 194.297 161.158 194.297C153.716 194.297 146.855 189.479 141.867 180.749M174.88 145.536C171.634 131.163 165.776 110.217 161.765 96.3764C172.663 105.452 189.077 119.08 200.319 128.289C208.051 134.597 212.062 142.103 211.587 149.395C211.27 154.692 208.499 159.35 204.013 162.171C201.058 164.008 197.733 164.992 194.381 164.992C184.934 164.992 177.624 157.753 174.88 145.536ZM216.627 120.597C217.603 105.852 217.946 84.1065 218.052 69.6806C225.89 81.5247 237.738 99.3308 245.919 111.388C251.513 119.665 253.202 128.023 250.722 134.89C248.901 139.867 244.916 143.513 239.797 144.924C238.187 145.376 236.524 145.589 234.888 145.589C229.98 145.589 225.467 143.646 222.195 140.08C217.973 135.555 216.046 128.821 216.627 120.57M294.342 107.954C297.456 117.376 296.849 125.867 292.601 131.776C289.54 136.034 284.79 138.483 279.538 138.483H279.301C273.442 138.403 268.059 135.555 264.866 130.951C260.987 125.255 260.538 117.35 263.678 108.646C268.64 94.7795 274.894 73.9658 278.931 60.1255C283.259 73.6996 289.777 94.0874 294.342 107.954ZM415.705 182.932C410.797 189 404.78 192.38 398.605 192.38C393.855 192.38 389.554 190.331 386.413 186.605C382.613 182.106 381.162 176.171 382.534 170.688C384.223 163.981 389.844 158.471 398.42 155.091C411.958 149.795 431.433 140.932 444.442 134.916C433.412 153.548 427.211 163.901 415.705 182.905M422.381 312.338C419.32 308.719 418.027 304.141 418.74 299.35C419.901 291.711 425.838 283.992 436.552 283.992C440.854 283.992 445.445 285.297 450.195 287.825C463.126 294.665 482.759 303.795 495.795 309.703C481.862 312.179 460.962 315.905 446.712 318.54C436.341 320.456 427.342 318.141 422.408 312.312M446.395 271.989C443.176 273.106 440.062 273.665 437.08 273.665C427.712 273.665 420.613 267.89 419.452 259.346C418.713 254.076 420.217 248.859 423.516 245.027C427.184 240.768 432.673 238.559 439.402 238.559C441.619 238.559 443.941 238.798 446.369 239.278C460.724 242.179 482.073 245.293 496.244 247.209C490.57 250.057 483.683 253.517 476.611 257.057C467.242 261.741 458.508 266.053 446.395 271.989ZM356.251 128.635C356.726 128.236 357.201 127.836 357.649 127.464C357.887 127.278 358.098 127.091 358.309 126.932C369.947 117.989 386.387 103.882 397.206 94.4335C393.538 108.194 388.102 128.901 384.487 143.061C380.687 157.966 371.583 163.289 364.326 163.289C361.212 163.289 358.124 162.331 355.459 160.521C350.551 157.274 347.569 151.977 347.358 146.308C347.173 140.133 350.26 133.985 356.145 128.715L356.251 128.608V128.635ZM112.734 288.411C116.402 287 119.938 286.281 123.342 286.281C132.684 286.281 139.783 292.03 140.97 300.601C141.683 305.871 140.205 311.087 136.88 314.92C133.212 319.152 127.749 321.388 120.994 321.388C118.803 321.388 116.455 321.148 114.08 320.643C99.7242 317.768 78.3756 314.654 64.2047 312.738C74.2853 307.654 88.4297 300.574 100.278 294.506C104.105 292.616 108.169 290.62 112.734 288.384M249.297 446.909C248.61 448 247.924 449.038 247.238 450.076C238.688 461.947 227.367 479.3 219.899 490.985C219.556 476.745 219.028 455.319 218.553 440.707C218.263 432.057 220.559 424.711 225.045 420.053C228.212 416.753 232.302 414.943 236.656 414.943C238.292 414.943 239.955 415.182 241.565 415.688C247.159 417.445 251.513 421.703 253.281 427.053C255.049 432.456 254.126 438.605 250.722 444.779L249.297 446.909ZM478.854 369.776C464.815 368.125 443.73 365.624 429.322 364.053C419.452 362.989 412.037 358.863 408.501 352.475C405.941 347.844 405.756 342.441 408.026 337.597C411.034 331.182 417.104 327.217 423.885 327.217C428.319 327.217 432.805 328.84 437.133 331.981L439.508 334.11C441.091 335.521 442.569 336.852 443.994 338.156C454.391 348.19 468.931 361.099 478.88 369.802M550.974 278.243C551.001 286.255 547.94 293.84 542.345 299.536C536.724 305.232 529.283 308.346 521.393 308.346C517.593 308.346 513.819 307.601 510.072 306.19C508.884 305.631 507.327 304.939 505.506 304.114C483.577 293.494 473.576 288.703 453.283 279.015C454.101 278.643 454.919 278.243 455.737 277.844C462.862 274.171 471.887 269.62 480.648 265.175C488.195 261.395 496.218 257.403 506.72 252.106C511.549 249.711 516.458 248.487 521.393 248.487C537.622 248.487 550.895 261.821 551.001 278.217M539.443 201.11C542.134 210.106 540.419 220.061 534.798 227.646C529.151 235.285 520.337 239.703 510.599 239.703C509.28 239.703 507.934 239.597 506.588 239.464C506.219 239.411 505.823 239.357 505.427 239.304C505.216 239.304 504.979 239.251 504.768 239.198C479.461 235.019 468.588 233.289 445.683 229.669C446.184 229.243 446.686 228.791 447.187 228.338C449.298 226.316 451.647 224.133 454.074 221.844C463.574 213.087 471.095 206.061 481.651 196.186C485.662 192.46 489.066 189.319 491.388 187.163C493.051 185.806 494.766 184.608 496.561 183.624C497.959 183.038 499.331 182.426 500.651 181.707C503.976 180.456 507.459 179.791 511.022 179.791C524.005 179.791 535.669 188.548 539.443 201.084M507.222 131.057C512.843 139.76 513.581 150.646 509.201 160.095C506.509 165.897 502.208 170.449 496.745 173.483C495.373 174.042 494.054 174.681 492.734 175.373C491.283 175.932 489.752 176.411 488.195 176.757C486.559 177.023 484.263 177.369 481.466 177.795C458.244 180.643 447.266 182.08 425.416 184.901C425.917 184.156 426.392 183.411 426.841 182.612C436.631 165.871 452.808 138.856 458.217 129.833C464.181 121.928 472.758 117.456 482.258 117.456C492.365 117.456 501.706 122.567 507.195 131.084M456.555 72.6616C464.366 79.4221 468.113 89.6426 466.556 99.943C465.158 109.019 459.827 116.684 451.752 121.475C449.694 122.46 446.501 123.951 442.622 125.76C422.54 134.49 412.433 138.935 392.72 147.639C398.579 125.787 401.64 113.89 407.999 89.1635C411.72 74.7376 423.199 65.422 437.265 65.422C444.337 65.422 451.198 67.9772 456.581 72.635M379.394 28.2928C383.616 28.2928 387.68 29.1977 391.559 30.9544C400.954 35.2395 407.392 43.9696 408.765 54.2966C410.19 64.8365 405.967 75.057 397.259 82.3232C377.679 98.6654 369.234 105.798 351.791 120.544C351.606 120.703 351.422 120.863 351.237 121.023C351.237 120.703 351.237 120.411 351.237 120.118C351.237 119.399 351.237 118.654 351.21 117.909C351.21 117.509 351.21 117.11 351.158 116.711C350.709 96.6958 350.34 84.3992 349.601 60.5779C349.231 49.0532 354.008 41.5741 358.019 37.3954C363.613 31.5932 371.372 28.2928 379.394 28.2928ZM289.038 21.4259C294.633 13.654 303.605 8.9962 313.078 8.9962C314.451 8.9962 315.823 9.10266 317.195 9.28897C327.408 10.6996 336.037 17.2471 340.233 26.8023C344.059 35.3992 343.558 45.0342 338.992 53.6844C337.963 55.308 336.617 57.4639 334.981 60.019C322.631 78.5437 316.483 87.8327 305.294 104.84C305.294 104.867 305.294 104.92 305.241 104.947C304.687 105.692 304.212 106.437 303.71 107.183C296.928 85.6236 293.102 73.9392 285.185 49.7452C281.86 39.5513 283.206 29.4905 289.012 21.4525M217.234 27.4411C221.351 17.8593 229.901 11.2319 240.087 9.68821C241.538 9.47528 243.016 9.36882 244.494 9.36882C253.888 9.36882 262.887 13.9734 268.455 21.6654C274.26 29.6236 275.659 39.6312 272.466 49.7719C264.708 74.4715 261.435 85.0646 254.548 107.449C243.438 90.8403 236.709 81.019 225.388 64.4106C222.617 60.2319 220.348 56.8517 218.923 54.6958C214.067 45.9924 213.408 36.1977 217.208 27.4411M149.071 55.6008C150.338 45.2471 156.671 36.4373 166.04 32.0722C169.998 30.2357 174.167 29.3042 178.495 29.3042C186.438 29.3042 194.223 32.5779 199.738 38.3004C203.802 42.4525 208.552 49.8251 208.315 61.2966C207.76 87.1939 207.602 98.2928 207.259 121.741C189.948 107.316 180.501 99.597 160.815 83.5209C152.053 76.3346 147.752 66.1407 149.045 55.6008M101.413 74.4715C106.823 69.6806 113.763 67.0456 120.967 67.0456C134.874 67.0456 146.327 76.2548 150.153 90.4943C156.883 115.513 159.812 126.213 166.04 148.783C145.403 139.867 134.135 135.129 110.808 125.308C100.384 120.89 93.3909 112.373 91.702 101.886C90.0131 91.5855 93.6547 81.3384 101.413 74.4715ZM51.1686 133.692C56.6575 124.989 66.0256 119.772 76.2908 119.772C86.5561 119.772 96.452 125.414 102.389 135.209C115.848 157.274 121.68 166.722 133.951 186.605C111.626 183.89 99.5395 182.559 74.3908 179.791C63.1492 178.54 54.0978 172.338 49.5061 162.757C45.02 153.335 45.6269 142.502 51.1686 133.692ZM19.5283 204.73C23.17 191.954 34.8867 183.038 48.0547 183.038C55.6547 183.038 62.9645 185.992 69.1131 191.608C88.1922 208.962 96.3728 216.335 113.763 231.932C91.57 235.711 79.5895 237.867 54.7047 242.338C52.5672 242.711 50.4561 242.897 48.4242 242.897C38.7922 242.897 30.0047 238.559 24.3839 231.027C18.6839 223.414 16.9422 213.833 19.5019 204.73M9.05191 281.757C9.02552 273.745 12.0866 266.16 17.6811 260.464C23.3019 254.768 30.7436 251.654 38.6339 251.654C43.4367 251.654 48.2394 252.825 52.9631 255.114C76.027 266.319 86.0284 271.084 106.902 281.065C106.163 281.384 105.424 281.757 104.659 282.129C102.073 283.46 99.2492 284.897 96.2936 286.414C82.2284 293.335 71.62 298.684 53.3061 307.867C48.4769 310.289 43.5686 311.513 38.6339 311.513C22.4047 311.513 9.13108 298.179 9.02552 281.783M20.5839 358.89C17.8922 349.867 19.6339 339.939 25.2283 332.354C30.8755 324.688 39.6894 320.297 49.4269 320.297C51.3269 320.297 53.3061 320.456 55.2589 320.776C80.6186 324.981 91.4908 326.711 114.449 330.331C97.8242 345.608 88.9047 353.939 70.3797 371.319C68.1895 373.342 65.8936 375.019 63.4658 376.376C62.0672 376.935 60.695 377.574 59.3756 378.266C56.0506 379.544 52.5408 380.209 49.0047 380.209C36.0214 380.209 24.3575 371.452 20.5839 358.916M52.8311 428.943C47.2103 420.213 46.4714 409.354 50.8519 399.905C53.5436 394.103 57.845 389.551 63.3075 386.49C64.6533 385.958 65.9992 385.319 67.3186 384.601C69.8783 383.616 72.6492 382.924 75.5256 382.578C101.044 379.437 111.942 378.027 135.006 375.046C123.289 394.395 117.035 404.935 104.052 426.814C98.1145 436.821 88.5617 442.544 77.7686 442.544C67.6617 442.544 58.32 437.46 52.8311 428.943ZM103.498 487.312C95.6867 480.525 91.9395 470.331 93.4964 460.004C95.1061 449.517 101.967 440.867 112.391 436.395C135.983 426.175 146.063 421.703 167.359 412.308C161.501 434.186 158.44 446.057 152.08 470.783C148.359 485.236 136.88 494.551 122.814 494.551C115.742 494.551 108.881 491.97 103.498 487.338M180.633 531.707C176.41 531.707 172.346 530.802 168.467 529.046C159.073 524.76 152.634 516.03 151.262 505.677C149.837 495.137 154.059 484.943 162.767 477.65C182.559 461.148 191.003 454.015 208.79 438.951C209.291 461.627 209.66 473.897 210.452 499.395C210.821 510.947 206.045 518.399 202.034 522.605C196.44 528.407 188.681 531.707 180.659 531.707M271.015 538.574C265.42 546.346 256.448 551.004 246.974 551.004C245.602 551.004 244.23 550.897 242.858 550.711C232.645 549.274 224.016 542.753 219.82 533.198C215.519 523.483 216.68 512.517 223.013 503.042C236.762 482.468 242.91 473.125 254.706 455.24C254.944 454.893 255.208 454.521 255.472 454.175C255.762 453.749 256.052 453.323 256.342 452.897C263.151 474.403 266.951 486.087 274.867 510.281C278.192 520.449 276.847 530.483 271.041 538.574M342.819 532.559C338.702 542.114 330.152 548.768 319.966 550.312C318.515 550.525 317.037 550.631 315.559 550.631C306.165 550.631 297.166 546.027 291.598 538.335C285.819 530.376 284.394 520.369 287.587 510.228C295.345 485.529 298.617 474.935 305.505 452.525C318.092 471.342 325.006 481.43 339.335 502.43C345.748 511.798 347.015 522.817 342.819 532.559ZM410.981 504.399C409.715 514.753 403.381 523.563 394.013 527.901C390.055 529.764 385.885 530.696 381.558 530.696C373.615 530.696 365.83 527.395 360.315 521.7C356.251 517.521 351.501 510.175 351.738 498.703C352.292 472.806 352.451 461.707 352.794 438.259C370.131 452.684 379.579 460.403 399.238 476.479C407.999 483.639 412.301 493.833 411.008 504.399M458.613 485.475C453.204 490.266 446.263 492.901 439.059 492.901C425.152 492.901 413.699 483.692 409.873 469.426C403.144 444.433 400.215 433.76 393.987 411.163C414.623 420.08 425.891 424.817 449.219 434.639C459.642 439.03 466.636 447.574 468.324 458.061C470.013 468.361 466.372 478.582 458.613 485.449M508.884 426.308C503.395 435.011 494.027 440.202 483.762 440.202C473.497 440.202 463.601 434.586 457.663 424.791C444.205 402.7 438.373 393.251 426.102 373.395C448.374 376.084 460.461 377.441 485.556 380.182H485.662C496.904 381.46 505.955 387.635 510.547 397.243C515.033 406.639 514.426 417.498 508.884 426.308ZM540.498 355.243C536.856 368.019 525.14 376.935 511.972 376.935C505.401 376.935 499.094 374.726 493.499 370.494C492.286 369.456 490.649 368.046 488.723 366.369C472.547 351.65 464.287 344.198 450.037 331.422C449.245 330.624 448.427 329.852 447.688 329.106C447.266 328.707 446.87 328.335 446.474 327.962C468.456 324.236 480.437 322.053 505.216 317.635H505.295C507.433 317.236 509.544 317.049 511.576 317.049C521.208 317.049 529.995 321.388 535.616 328.92C541.316 336.506 543.058 346.114 540.498 355.217" fill="white"/>
</g>
</svg>
