<svg width="39" height="34" viewBox="0 0 39 34" fill="none" xmlns="http://www.w3.org/2000/svg">
<g opacity="0.2">
<path d="M10.3156 17.0002C10.3156 11.3026 5.69796 6.68493 0.000179291 6.68487C-5.69765 6.68487 -10.3152 11.3025 -10.3152 17.0002C-10.3151 22.6978 -5.69759 27.3151 0.000179291 27.3151V28.7L-0.302078 28.696C-6.52452 28.5383 -11.5384 23.5245 -11.696 17.3021L-11.7 17.0002C-11.7 10.5377 -6.46232 5.3 0.000179291 5.3L0.30204 5.30398C6.62494 5.46411 11.7 10.6387 11.7 17.0002L11.6964 17.3021C11.5362 23.6249 6.36164 28.6999 0.000179291 28.7V27.3151C5.6979 27.3151 10.3155 22.6977 10.3156 17.0002Z" fill="#82C83C"/>
<path d="M35.4309 21.9009C36.1771 21.6303 36.8571 21.1966 37.4305 20.6145C38.4523 19.5802 39.0073 18.2048 38.9999 16.7479C38.9852 14.3679 37.4452 12.3474 35.3243 11.6319C35.7691 11.3094 36.166 10.9164 36.5005 10.4642C37.515 9.08508 37.8274 7.28707 37.3422 5.64848C36.688 3.47234 34.7215 1.92643 32.4978 1.79296C32.7147 1.49639 32.9058 1.17757 33.0638 0.840208C33.8614 -0.876236 33.7254 -2.84848 32.7036 -4.43147C31.7075 -5.97738 30.0094 -6.90418 28.1753 -6.90418C27.7452 -6.90418 27.3299 -6.85228 26.9293 -6.75589C27.0653 -7.11549 27.1682 -7.48992 27.227 -7.87918C27.51 -9.75133 26.8337 -11.6012 25.4112 -12.832C24.4372 -13.6773 23.1912 -14.1407 21.9047 -14.1407C20.9307 -14.1407 20.0081 -13.8812 19.2105 -13.4104C19.2436 -13.7996 19.2362 -14.1963 19.1848 -14.593C18.9348 -16.4725 17.766 -18.0555 16.0605 -18.834C15.3585 -19.1566 14.616 -19.316 13.8478 -19.316C12.3923 -19.316 10.9809 -18.7117 9.96638 -17.6625C9.94801 -17.6403 9.92595 -17.6181 9.90757 -17.5958C9.83039 -17.9962 9.70909 -18.3929 9.54001 -18.7747C8.77181 -20.5023 7.20601 -21.6886 5.35351 -21.9481C5.10724 -21.9852 4.85363 -22 4.60736 -22C2.88718 -22 1.25521 -21.1548 0.240749 -19.746C0.0790215 -19.5199 -0.0606461 -19.2826 -0.185616 -19.0416C-0.306911 -19.2752 -0.442909 -19.5013 -0.600964 -19.7164C-1.61175 -21.114 -3.24372 -21.9518 -4.95287 -21.9518C-5.21751 -21.9518 -5.4895 -21.9296 -5.75415 -21.8925C-7.60297 -21.6107 -9.15408 -20.4096 -9.9039 -18.6746C-10.0693 -18.2928 -10.1869 -17.8998 -10.2604 -17.5106C-10.2678 -17.5217 -10.2788 -17.5328 -10.2898 -17.5439C-11.2969 -18.5819 -12.7047 -19.1788 -14.1492 -19.1788C-14.9358 -19.1788 -15.6966 -19.0083 -16.4134 -18.6709C-18.1115 -17.8776 -19.262 -16.2798 -19.4935 -14.4002C-19.5413 -14.0035 -19.545 -13.6106 -19.5082 -13.225C-20.2948 -13.6699 -21.1917 -13.9145 -22.162 -13.9145C-23.4669 -13.9145 -24.7313 -13.4363 -25.7126 -12.5688C-27.1204 -11.3269 -27.782 -9.46588 -27.4769 -7.59743C-27.4108 -7.18964 -27.3005 -6.80038 -27.1498 -6.43337C-27.5504 -6.52605 -27.9621 -6.57795 -28.3811 -6.57795C-30.2447 -6.57795 -31.9465 -5.6326 -32.9425 -4.04962C-33.946 -2.45551 -34.0562 -0.483271 -33.2439 1.22205C-33.0675 1.59277 -32.8543 1.93384 -32.6081 2.24154C-34.8796 2.36758 -36.8644 3.94686 -37.4929 6.1712C-37.9634 7.82833 -37.6436 9.56701 -36.6108 10.9461C-36.2726 11.3947 -35.872 11.7839 -35.4309 12.099C-36.1771 12.366 -36.8571 12.8034 -37.4304 13.3855C-38.4523 14.4198 -39.0073 15.7952 -38.9999 17.2521C-38.9852 19.6284 -37.4452 21.6526 -35.3243 22.3681C-35.7691 22.6906 -36.166 23.0836 -36.5005 23.5358C-37.515 24.9112 -37.8274 26.7129 -37.3422 28.3478C-36.688 30.524 -34.7215 32.0736 -32.4978 32.207C-32.7147 32.4999 -32.9058 32.8187 -33.0638 33.1598C-33.8614 34.8762 -33.7254 36.8448 -32.7036 38.4278C-31.7075 39.9774 -30.0094 40.9042 -28.1753 40.9042C-27.7452 40.9042 -27.3299 40.8523 -26.9293 40.7559C-27.0653 41.1155 -27.1682 41.4899 -27.227 41.8755C-27.51 43.7476 -26.8337 45.6012 -25.4112 46.832C-24.4372 47.6773 -23.1912 48.1407 -21.9047 48.1407C-20.9307 48.1407 -20.0081 47.8812 -19.2105 47.4104C-19.2436 47.7996 -19.2362 48.1963 -19.1848 48.593C-18.9348 50.4688 -17.766 52.0555 -16.0605 52.834C-15.3585 53.1528 -14.616 53.316 -13.8478 53.316C-12.3923 53.316 -10.9808 52.7117 -9.96638 51.6625C-9.94801 51.6403 -9.92595 51.6181 -9.90758 51.5958C-9.83039 51.9962 -9.70909 52.3929 -9.54001 52.7747C-8.77181 54.5023 -7.20601 55.6886 -5.35351 55.9481C-5.10724 55.9815 -4.85363 56 -4.60736 56C-2.88718 56 -1.25522 55.1548 -0.240753 53.7423C-0.0790253 53.5199 0.0606499 53.2826 0.185619 53.0379C0.306915 53.2715 0.442913 53.5013 0.600964 53.7163C1.61175 55.114 3.24372 55.9481 4.95287 55.9481C5.21751 55.9481 5.4895 55.9296 5.75415 55.8888C7.60297 55.6107 9.15775 54.4096 9.9039 52.6709C10.0693 52.2891 10.1869 51.8998 10.2604 51.5068C10.2678 51.518 10.2788 51.5328 10.2898 51.5402C11.2969 52.5782 12.7047 53.1751 14.1492 53.1751C14.9358 53.1751 15.6966 53.0046 16.4134 52.6709C18.1115 51.8739 19.262 50.2797 19.4935 48.4002C19.5413 47.9998 19.545 47.6068 19.5082 47.225C20.2948 47.6699 21.1917 47.9145 22.162 47.9145C23.4669 47.9145 24.7313 47.4363 25.7126 46.5688C27.1204 45.3232 27.782 43.4659 27.4769 41.5974C27.4108 41.1896 27.3005 40.7967 27.1498 40.4296C27.5504 40.526 27.9621 40.5779 28.3811 40.5779C30.2447 40.5779 31.9465 39.6326 32.9425 38.0496C33.9497 36.4555 34.0563 34.4833 33.2439 32.7779C33.0675 32.4072 32.8543 32.0662 32.6081 31.7585C34.8796 31.6287 36.8644 30.0494 37.4929 27.8251C37.9634 26.1717 37.6436 24.433 36.6108 23.0539C36.2726 22.6016 35.872 22.2161 35.4309 21.9009ZM4.26921 -6.23688C4.37212 -6.38888 4.46769 -6.53717 4.56326 -6.68175C5.7615 -8.34259 7.38243 -10.8561 8.45203 -12.5355C8.50349 -10.6077 8.58436 -7.73831 8.65787 -5.71416C8.66155 -5.56958 8.66522 -5.42129 8.6689 -5.2693C8.65787 -4.17567 8.34544 -3.25257 7.76837 -2.64829C7.3273 -2.18489 6.75391 -1.9328 6.14376 -1.9328C5.91955 -1.9328 5.69166 -1.96616 5.47112 -2.0366C4.68822 -2.27757 4.07808 -2.86702 3.83181 -3.61217C3.57084 -4.40181 3.72154 -5.30637 4.2545 -6.21464L4.26921 -6.23688ZM27.238 4.39543C26.1133 5.43716 24.6467 6.79772 23.408 7.96179C22.9927 8.34363 22.5516 8.74772 22.0664 9.19258C21.3313 9.78203 20.5631 10.0934 19.8207 10.0934C18.8834 10.0934 18.0968 9.58555 17.7256 8.74401C17.3911 7.99144 17.4315 7.13878 17.8285 6.46036C18.3137 5.62994 19.2803 5.11834 20.5558 5.00713C22.5847 4.83289 25.5583 4.41397 27.5284 4.12481C27.4291 4.21378 27.3336 4.30646 27.238 4.39543ZM-1.74775 37.475C-1.32138 36.8781 -0.659771 36.5408 0.0716743 36.5408H0.101078C0.917061 36.5482 1.66689 36.9412 2.11163 37.5862C2.65929 38.3759 2.71811 39.4769 2.28439 40.6892C1.59705 42.6206 0.73328 45.5234 0.170914 47.4511C-0.435558 45.5642 -1.34711 42.7244 -1.98666 40.793C-2.42406 39.4806 -2.33952 38.298 -1.74775 37.475ZM4.7985 40.5816C4.00824 39.4361 3.76565 38.2758 4.10381 37.3156C4.35375 36.6186 4.90508 36.107 5.6108 35.9068C5.84236 35.8401 6.08128 35.8067 6.31651 35.8067C6.9965 35.8067 7.62135 36.0774 8.07713 36.5667C8.66522 37.1932 8.93721 38.1275 8.86738 39.273C8.74608 41.3268 8.72403 44.3556 8.72403 46.3649C7.61768 44.7226 5.94896 42.2573 4.7985 40.5854M19.3759 30.8835C20.372 32.6741 21.9856 35.2358 23.0625 36.9226C21.2505 36.1478 18.5232 34.9874 16.656 34.2089C15.3805 33.6751 14.5462 32.8373 14.3183 31.84C14.1529 31.1208 14.3403 30.3905 14.8292 29.8307C15.3144 29.282 15.987 28.9669 16.6817 28.9669C17.7292 28.9669 18.6849 29.649 19.3759 30.8798M14.627 35.6844C15.0828 37.6863 15.9062 40.6002 16.4648 42.5279C14.9468 41.2675 12.6606 39.3768 11.0874 38.0941C10.0142 37.2155 9.4518 36.1738 9.51428 35.1543C9.55839 34.4165 9.94433 33.7715 10.5692 33.3748C10.9809 33.1153 11.444 32.9781 11.9108 32.9781C13.2266 32.9781 14.2448 33.9865 14.627 35.6844ZM16.7993 27.7102C16.7626 27.7102 16.7221 27.7102 16.6854 27.7102C15.6342 27.7102 14.6123 28.181 13.8956 28.9966C13.1825 29.8085 12.8885 30.8539 13.0576 31.903C12.6716 31.7733 12.282 31.714 11.9145 31.714C11.2087 31.714 10.5177 31.9179 9.9039 32.3034C8.93354 32.9188 8.33074 33.9272 8.26091 35.0801V35.0913C7.68751 34.7317 7.02591 34.5389 6.32019 34.5389C5.97101 34.5389 5.61815 34.5871 5.28 34.6835C4.24715 34.9763 3.42749 35.6955 3.01215 36.6742C2.32114 35.803 1.25889 35.284 0.119457 35.2692H0.0753479C-1.02733 35.2692 -2.03444 35.7734 -2.7034 36.652C-3.14815 35.7252 -3.96781 35.0097 -4.98227 34.6909C-5.32778 34.5834 -5.68064 34.5278 -6.0335 34.5278C-6.73921 34.5278 -7.41552 34.7465 -7.99626 35.1506C-8.10653 34.0532 -8.713 33.0412 -9.65396 32.4035C-10.2384 32.0068 -10.9073 31.7992 -11.5984 31.7992C-12.0174 31.7992 -12.4217 31.8771 -12.8003 32.018C-12.6496 30.9688 -12.962 29.8752 -13.6714 29.0336C-14.3367 28.244 -15.296 27.7954 -16.3105 27.788C-15.8878 26.8427 -15.8841 25.7305 -16.3105 24.7407C-16.7956 23.6211 -17.777 22.8611 -18.9569 22.6646C-18.2769 21.8565 -17.9718 20.7777 -18.1189 19.6989C-18.2659 18.6201 -18.865 17.7303 -19.7288 17.1891C-18.7915 16.633 -18.1262 15.6728 -17.9498 14.4865C-17.7954 13.4559 -18.0784 12.4512 -18.7511 11.6653C-18.7988 11.606 -18.8503 11.5504 -18.9018 11.4985C-17.9167 11.1945 -17.086 10.4827 -16.6192 9.48175C-16.1377 8.45856 -16.1671 7.30931 -16.6891 6.31948C-16.6449 6.32319 -16.5972 6.3269 -16.5531 6.3269C-15.4871 6.3269 -14.458 5.84496 -13.7375 5.01083C-13.0318 4.19525 -12.7488 3.1461 -12.9252 2.10437C-12.5834 2.20076 -12.2453 2.24895 -11.9255 2.24895C-11.2198 2.24895 -10.5287 2.04506 -9.9186 1.6595C-8.96662 1.05893 -8.37118 0.0802269 -8.27929 -1.03935C-7.69119 -0.661217 -7.0112 -0.457319 -6.28344 -0.457319C-5.9416 -0.457319 -5.59977 -0.501808 -5.27264 -0.594488C-4.17364 -0.894773 -3.31355 -1.6807 -2.91291 -2.75209C-2.22557 -1.94392 -1.20376 -1.46198 -0.112106 -1.44715H-0.0643234C1.06776 -1.44715 2.10061 -1.97728 2.76589 -2.89668C3.19961 -1.91426 4.04867 -1.15428 5.10725 -0.828043C5.44908 -0.720533 5.79825 -0.668631 6.14376 -0.668631C6.87153 -0.668631 7.55887 -0.894772 8.15064 -1.31739C8.26458 -0.223764 8.8784 0.788307 9.81936 1.41854C10.4001 1.80779 11.0654 2.01169 11.749 2.01169C12.1864 2.01169 12.6091 1.93013 13.0061 1.77443C12.8333 2.84211 13.1458 3.96169 13.8625 4.81435C14.5315 5.6077 15.4982 6.05998 16.52 6.05998C16.5531 6.05998 16.5861 6.05627 16.6192 6.05627C16.1377 7.03869 16.1193 8.21758 16.5788 9.2519C17.0456 10.3122 17.9608 11.0425 19.0635 11.276C19.0598 11.276 19.0525 11.2872 19.0451 11.2946C18.3431 12.1065 18.0343 13.1964 18.1813 14.2937C18.332 15.3874 18.9459 16.2882 19.8317 16.8295C18.9128 17.3855 18.2585 18.3346 18.0858 19.5024C17.9277 20.5367 18.2107 21.5451 18.8834 22.3273C18.9201 22.3718 18.9606 22.4163 19.001 22.457C18.0049 22.7536 17.1669 23.4728 16.6927 24.4812C16.2039 25.5229 16.2406 26.7018 16.7993 27.7065M-11.602 33.0671C-11.161 33.0671 -10.7309 33.2043 -10.356 33.4564C-9.67969 33.9161 -9.26435 34.6575 -9.23862 35.4434C-9.21289 36.4036 -9.76055 37.3638 -10.7787 38.1423C-12.3996 39.3805 -14.7006 41.3342 -16.2112 42.6429C-15.693 40.7262 -14.9248 37.8494 -14.4139 35.8772C-13.8735 33.8123 -12.6091 33.0745 -11.6057 33.0745M-14.0941 32.0773C-14.3293 33.0078 -15.1122 33.7752 -16.3068 34.246C-18.2034 34.9912 -20.9417 36.2368 -22.7575 37.0783C-21.7393 35.3767 -20.2139 32.8187 -19.1885 31.0652C-18.4423 29.7899 -17.4021 29.0559 -16.3362 29.0559C-15.6746 29.0559 -15.0718 29.3413 -14.6381 29.8604C-14.1088 30.4869 -13.9066 31.3136 -14.0978 32.081M-17.5896 27.5248C-18.0821 28.3478 -19.0525 28.8557 -20.3316 28.9521C-22.3605 29.1115 -25.3414 29.5008 -27.3152 29.7788C-25.8523 28.4479 -23.658 26.446 -22.173 25.0669C-21.3313 24.2884 -20.4345 23.8806 -19.5744 23.8806C-18.6224 23.8806 -17.8358 24.3922 -17.4646 25.2486C-17.1411 26.0011 -17.1853 26.8538 -17.5896 27.5285M-21.6732 16.4402C-22.2723 16.4402 -22.9045 16.2623 -23.5661 15.9138C-25.3708 14.961 -28.1055 13.7006 -29.9249 12.8776C-27.9842 12.5328 -25.0731 12.0064 -23.0919 11.6356C-21.6474 11.3613 -20.3941 11.6838 -19.703 12.4957C-19.2767 12.9962 -19.0929 13.6375 -19.1921 14.3048C-19.3539 15.3688 -20.1772 16.4439 -21.6768 16.4439M-17.755 8.9442C-18.174 9.83393 -19.0194 10.39 -19.9677 10.39C-20.7873 10.39 -21.6327 9.98593 -22.4083 9.21854C-23.8675 7.78384 -26.1243 5.78194 -27.6276 4.46587C-25.6722 4.69943 -22.7354 5.0442 -20.7285 5.26293C-19.3539 5.41122 -18.321 5.98584 -17.8285 6.87557C-17.4683 7.52063 -17.4425 8.27319 -17.7586 8.94791M-19.2399 3.17205C-20.2544 1.39258 -21.89 -1.15428 -22.9853 -2.83365C-21.1659 -2.07367 -18.4276 -0.939259 -16.5531 -0.179277C-15.2703 0.343441 -14.4322 1.17386 -14.1933 2.16739C-14.0206 2.8866 -14.2007 3.62062 -14.6859 4.18412C-15.171 4.74391 -15.8473 5.06273 -16.5531 5.06273C-17.5896 5.06273 -18.5452 4.39173 -19.2399 3.17576M-14.6417 -1.7289C-15.0938 -3.7308 -15.9098 -6.64839 -16.4685 -8.57614C-14.9505 -7.31198 -12.6643 -5.41388 -11.0985 -4.13118C-10.0215 -3.25257 -9.46283 -2.20713 -9.52899 -1.19135C-9.57309 -0.453613 -9.95903 0.195152 -10.5839 0.588118C-10.9956 0.843916 -11.4587 0.981083 -11.9255 0.981083C-13.2413 0.981083 -14.2595 -0.0272808 -14.6417 -1.7289ZM-8.82695 -5.20257C-8.69095 -7.25637 -8.64317 -10.2852 -8.62847 -12.2945C-7.53681 -10.6448 -5.88647 -8.16464 -4.74704 -6.48527C-3.96781 -5.33232 -3.73257 -4.16825 -4.07808 -3.21179C-4.33169 -2.51854 -4.88671 -2.01065 -5.59977 -1.81417C-5.82399 -1.75114 -6.05555 -1.72148 -6.28344 -1.72148C-6.96709 -1.72148 -7.59562 -1.99211 -8.0514 -2.48888C-8.63949 -3.11911 -8.90781 -4.05704 -8.82695 -5.20627M1.99768 -6.9635C2.43141 -5.65114 2.34687 -4.46854 1.7551 -3.64553C1.32873 -3.05238 0.667122 -2.71131 -0.0643234 -2.71131H-0.0974045C-0.913387 -2.72243 -1.66321 -3.11911 -2.10796 -3.76046C-2.64827 -4.5538 -2.71075 -5.65485 -2.27336 -6.86711C-1.58234 -8.79858 -0.711227 -11.6976 -0.148861 -13.6254C0.453938 -11.7347 1.36181 -8.89496 1.99768 -6.9635ZM18.9018 3.47975C18.2181 4.325 17.3801 4.79582 16.52 4.79582C15.8584 4.79582 15.2592 4.51036 14.8218 3.99135C14.2926 3.36483 14.0904 2.53812 14.2815 1.77443C14.5168 0.840208 15.2997 0.072813 16.4942 -0.398005C18.3798 -1.13574 21.0924 -2.37025 22.9045 -3.20808C21.3681 -0.613024 20.5043 0.829088 18.9018 3.47605M19.8317 21.5043C19.4053 21.0001 19.2252 20.3624 19.3245 19.6951C19.4862 18.6312 20.3132 17.5561 21.8055 17.5561C22.4046 17.5561 23.0442 17.7377 23.7058 18.0899C25.5068 19.0427 28.2415 20.3143 30.0572 21.1373C28.1165 21.482 25.2054 22.001 23.2206 22.3681C21.7761 22.635 20.5227 22.3124 19.8354 21.5006M23.1765 15.8841C22.7281 16.0398 22.2943 16.1177 21.879 16.1177C20.5742 16.1177 19.5854 15.3132 19.4237 14.1232C19.3208 13.3892 19.5303 12.6625 19.9897 12.1287C20.5006 11.5355 21.2652 11.2278 22.2024 11.2278C22.5112 11.2278 22.8346 11.2612 23.1728 11.3279C25.1723 11.732 28.1459 12.1658 30.1197 12.4327C29.3294 12.8294 28.3701 13.3113 27.385 13.8044C26.0802 14.4568 24.8636 15.0574 23.1765 15.8841ZM10.6206 -4.08299C10.6868 -4.13859 10.753 -4.1942 10.8154 -4.2461C10.8485 -4.27205 10.8779 -4.298 10.9073 -4.32025C12.5283 -5.56588 14.8182 -7.5307 16.3252 -8.84677C15.8143 -6.93013 15.0571 -4.04591 14.5535 -2.07367C14.0242 0.00237465 12.7562 0.74382 11.7454 0.74382C11.3117 0.74382 10.8816 0.610359 10.5104 0.358269C9.82671 -0.0940132 9.41137 -0.831749 9.38196 -1.62139C9.35623 -2.48146 9.78628 -3.33783 10.6059 -4.07186L10.6206 -4.08669V-4.08299ZM-23.2978 18.1715C-22.7869 17.975 -22.2943 17.8749 -21.8202 17.8749C-20.519 17.8749 -19.5303 18.6757 -19.3649 19.8694C-19.2656 20.6034 -19.4715 21.33 -19.9346 21.8639C-20.4455 22.4533 -21.2064 22.7647 -22.1473 22.7647C-22.4524 22.7647 -22.7795 22.7314 -23.1103 22.6609C-25.1098 22.2606 -28.0834 21.8268 -30.0572 21.5599C-28.6531 20.8518 -26.683 19.8657 -25.0327 19.0204C-24.4997 18.7572 -23.9337 18.4792 -23.2978 18.1678M-4.27656 40.248C-4.37212 40.4 -4.46769 40.5446 -4.56326 40.6892C-5.75415 42.3426 -7.33098 44.7597 -8.37117 46.3872C-8.41896 44.4038 -8.49247 41.4195 -8.55863 39.3842C-8.59906 38.1794 -8.27928 37.1562 -7.65443 36.5074C-7.21336 36.0477 -6.64364 35.7956 -6.03717 35.7956C-5.80928 35.7956 -5.57772 35.829 -5.35351 35.8994C-4.57428 36.1441 -3.96781 36.7373 -3.72154 37.4824C-3.47528 38.235 -3.60392 39.0913 -4.07808 39.9514L-4.27656 40.248ZM27.6975 29.5045C25.7421 29.2746 22.8052 28.9261 20.7984 28.7074C19.4237 28.5591 18.3909 27.9845 17.8983 27.0948C17.5418 26.4497 17.5161 25.6971 17.8322 25.0224C18.2512 24.129 19.0966 23.5766 20.0412 23.5766C20.6587 23.5766 21.2835 23.8028 21.8863 24.2402L22.2171 24.5368C22.4377 24.7333 22.6435 24.9186 22.842 25.1003C24.2902 26.4979 26.3154 28.2959 27.7011 29.5082M37.7429 16.7553C37.7465 17.8712 37.3202 18.9278 36.541 19.7211C35.758 20.5144 34.7215 20.9482 33.6225 20.9482C33.0932 20.9482 32.5676 20.8444 32.0457 20.6479C31.8803 20.5701 31.6634 20.4737 31.4098 20.3587C28.3554 18.8796 26.9623 18.2123 24.1358 16.8628C24.2498 16.8109 24.3637 16.7553 24.4776 16.6997C25.47 16.1881 26.7271 15.5542 27.9474 14.9351C28.9986 14.4086 30.116 13.8526 31.5789 13.1148C32.2515 12.7812 32.9352 12.6106 33.6225 12.6106C35.883 12.6106 37.7318 14.468 37.7466 16.7516M36.1366 6.01179C36.5116 7.26483 36.2726 8.65133 35.4897 9.70789C34.7032 10.7719 33.4755 11.3873 32.1192 11.3873C31.9354 11.3873 31.748 11.3724 31.5605 11.3539C31.5091 11.3465 31.4539 11.3391 31.3988 11.3316C31.3694 11.3316 31.3363 11.3242 31.3069 11.3168C27.782 10.7348 26.2677 10.4938 23.0772 9.98964C23.1471 9.93032 23.2169 9.8673 23.2867 9.80428C23.5808 9.52253 23.9079 9.21853 24.2461 8.89971C25.5693 7.68003 26.6168 6.70133 28.0871 5.32595C28.6458 4.80694 29.1199 4.36949 29.4434 4.0692C29.6749 3.88013 29.9138 3.71331 30.1638 3.57614C30.3586 3.49458 30.5497 3.40931 30.7335 3.30922C31.1966 3.13498 31.6818 3.0423 32.178 3.0423C33.9864 3.0423 35.611 4.26197 36.1366 6.00808M31.6487 -3.74563C32.4316 -2.53337 32.5345 -1.01711 31.9244 0.298954C31.5495 1.10713 30.9504 1.74106 30.1895 2.16369C29.9984 2.24154 29.8146 2.33051 29.6308 2.4269C29.4287 2.50475 29.2155 2.57148 28.9986 2.61967C28.7707 2.65675 28.451 2.70494 28.0613 2.76426C24.8268 3.16093 23.2978 3.36112 20.2544 3.75409C20.3242 3.65029 20.3904 3.54648 20.4529 3.43527C21.8165 1.10342 24.0697 -2.65941 24.8232 -3.91616C25.6538 -5.01721 26.8484 -5.64002 28.1716 -5.64002C29.5794 -5.64002 30.8805 -4.92823 31.6451 -3.74192M24.5916 -11.8793C25.6796 -10.9376 26.2015 -9.51407 25.9846 -8.07937C25.7898 -6.81521 25.0474 -5.74753 23.9226 -5.08023C23.6359 -4.94306 23.1912 -4.73546 22.6509 -4.48337C19.8537 -3.2674 18.446 -2.64829 15.7003 -1.43603C16.5163 -4.47966 16.9427 -6.13679 17.8285 -9.5808C18.3467 -11.5901 19.9456 -12.8876 21.9047 -12.8876C22.8898 -12.8876 23.8454 -12.5318 24.5953 -11.883M13.8441 -18.0592C14.4322 -18.0592 14.9983 -17.9332 15.5386 -17.6885C16.8471 -17.0916 17.7439 -15.8757 17.9351 -14.4373C18.1336 -12.9692 17.5455 -11.5456 16.3325 -10.5336C13.6052 -8.25732 12.429 -7.26379 9.99947 -5.20998C9.97374 -5.18774 9.94801 -5.16549 9.92228 -5.14325C9.92228 -5.18774 9.92228 -5.22852 9.92228 -5.2693C9.92228 -5.36939 9.92228 -5.4732 9.9186 -5.577C9.9186 -5.63261 9.9186 -5.68822 9.91125 -5.74382C9.84876 -8.53166 9.7973 -10.2444 9.69439 -13.5624C9.64293 -15.1676 10.3082 -16.2093 10.8669 -16.7913C11.6461 -17.5995 12.7268 -18.0592 13.8441 -18.0592ZM1.25889 -19.0157C2.03812 -20.0982 3.28782 -20.747 4.60736 -20.747C4.79849 -20.747 4.98962 -20.7321 5.18076 -20.7062C6.60321 -20.5097 7.80513 -19.5977 8.38955 -18.2668C8.92251 -17.0694 8.85267 -15.7274 8.2168 -14.5225C8.07345 -14.2964 7.886 -13.9961 7.65811 -13.6402C5.93793 -11.06 5.08151 -9.76616 3.52306 -7.39724C3.52306 -7.39354 3.52306 -7.38612 3.51571 -7.38242C3.43852 -7.27861 3.37236 -7.17481 3.30252 -7.07101C2.35789 -10.0739 1.82494 -11.7013 0.722256 -15.0712C0.259132 -16.4911 0.446583 -17.8924 1.25521 -19.012M-8.74241 -18.1779C-8.16901 -19.5125 -6.97812 -20.4356 -5.55934 -20.6506C-5.35719 -20.6802 -5.15135 -20.6951 -4.94552 -20.6951C-3.637 -20.6951 -2.38363 -20.0537 -1.60807 -18.9823C-0.799442 -17.8739 -0.604633 -16.4799 -1.04938 -15.0675C-2.13001 -11.6272 -2.58578 -10.1517 -3.54511 -7.03394C-5.09254 -9.34724 -6.02982 -10.7152 -7.60665 -13.0285C-7.99259 -13.6106 -8.30869 -14.0814 -8.50717 -14.3817C-9.18348 -15.5939 -9.27537 -16.9582 -8.74609 -18.1779M-18.2365 -14.2556C-18.06 -15.6977 -17.1779 -16.9248 -15.8731 -17.5328C-15.3217 -17.7886 -14.741 -17.9183 -14.1382 -17.9183C-13.0318 -17.9183 -11.9475 -17.4624 -11.1793 -16.6653C-10.6133 -16.087 -9.95168 -15.0601 -9.98476 -13.4623C-10.062 -9.85513 -10.084 -8.30922 -10.1318 -5.04316C-12.543 -7.05247 -13.8588 -8.12757 -16.6008 -10.3667C-17.8211 -11.3677 -18.4203 -12.7875 -18.2402 -14.2556M-24.8746 -11.6272C-24.1211 -12.2945 -23.1544 -12.6615 -22.151 -12.6615C-20.2139 -12.6615 -18.6187 -11.3788 -18.0858 -9.39544C-17.1485 -5.91065 -16.7405 -4.42034 -15.8731 -1.27662C-18.7474 -2.51854 -20.3169 -3.17842 -23.5661 -4.54639C-25.018 -5.16179 -25.992 -6.3481 -26.2272 -7.80875C-26.4625 -9.24344 -25.9552 -10.6707 -24.8746 -11.6272ZM-31.8729 -3.37861C-31.1084 -4.59088 -29.8036 -5.31749 -28.3738 -5.31749C-26.944 -5.31749 -25.5656 -4.53156 -24.7386 -3.1673C-22.8641 -0.0940132 -22.0517 1.22205 -20.3426 3.99135C-23.4521 3.61321 -25.1356 3.42785 -28.6384 3.0423C-30.2042 2.86806 -31.465 2.00428 -32.1045 0.669676C-32.7294 -0.642681 -32.6448 -2.15152 -31.8729 -3.37861ZM-36.28 6.51597C-35.7728 4.7365 -34.1408 3.49458 -32.3067 3.49458C-31.2481 3.49458 -30.23 3.90608 -29.3735 4.68831C-26.7161 7.10542 -25.5766 8.13232 -23.1544 10.3048C-26.2456 10.8312 -27.9143 11.1315 -31.3804 11.7543C-31.6781 11.8062 -31.9722 11.8321 -32.2552 11.8321C-33.5968 11.8321 -34.8208 11.2278 -35.6037 10.1787C-36.3976 9.11844 -36.6402 7.78384 -36.2837 6.51597M-37.7392 17.2447C-37.7429 16.1288 -37.3165 15.0722 -36.5373 14.2789C-35.7544 13.4855 -34.7179 13.0518 -33.6189 13.0518C-32.9499 13.0518 -32.2809 13.2149 -31.623 13.5337C-28.4105 15.0945 -27.0175 15.7581 -24.1101 17.1483C-24.213 17.1928 -24.3159 17.2447 -24.4225 17.2966C-24.7827 17.4819 -25.176 17.6821 -25.5877 17.8934C-27.5468 18.8573 -29.0244 19.6025 -31.5752 20.8815C-32.2479 21.2188 -32.9315 21.3894 -33.6189 21.3894C-35.8793 21.3894 -37.7282 19.532 -37.7429 17.2484M-36.133 27.9882C-36.5079 26.7315 -36.2653 25.3487 -35.4861 24.2921C-34.6995 23.2244 -33.4718 22.6127 -32.1155 22.6127C-31.8509 22.6127 -31.5752 22.635 -31.3032 22.6795C-27.771 23.2652 -26.2566 23.5062 -23.0589 24.0104C-25.3745 26.1383 -26.6168 27.2987 -29.1971 29.7195C-29.5022 30.0012 -29.822 30.2348 -30.1601 30.4239C-30.3549 30.5017 -30.5461 30.5907 -30.7298 30.6871C-31.193 30.865 -31.6818 30.9577 -32.1743 30.9577C-33.9827 30.9577 -35.6074 29.738 -36.133 27.9919M-31.6414 37.7456C-32.4243 36.5297 -32.5272 35.0171 -31.9171 33.701C-31.5421 32.8929 -30.943 32.2589 -30.1822 31.8326C-29.9947 31.7585 -29.8073 31.6695 -29.6235 31.5694C-29.2669 31.4322 -28.881 31.3358 -28.4804 31.2876C-24.9261 30.8502 -23.408 30.6537 -20.1956 30.2385C-21.8275 32.9337 -22.6987 34.4017 -24.507 37.449C-25.3341 38.843 -26.6646 39.64 -28.1679 39.64C-29.5757 39.64 -30.8769 38.9319 -31.6414 37.7456ZM-24.5842 45.8756C-25.6722 44.9302 -26.1941 43.5104 -25.9773 42.072C-25.7531 40.6113 -24.7974 39.4065 -23.3456 38.7836C-20.0596 37.3601 -18.6555 36.7373 -15.6893 35.4286C-16.5053 38.4759 -16.9316 40.1294 -17.8175 43.5734C-18.3357 45.5864 -19.9346 46.8839 -21.8937 46.8839C-22.8788 46.8839 -23.8344 46.5243 -24.5842 45.8793M-13.8405 52.0592C-14.4286 52.0592 -14.9946 51.9332 -15.5349 51.6885C-16.8434 51.0916 -17.7403 49.8757 -17.9314 48.4336C-18.1299 46.9655 -17.5418 45.5456 -16.3288 44.5298C-13.5721 42.2314 -12.396 41.2378 -9.9186 39.1395C-9.84876 42.2981 -9.79731 44.0071 -9.68704 47.5586C-9.63558 49.1676 -10.3009 50.2056 -10.8596 50.7913C-11.6388 51.5995 -12.7194 52.0592 -13.8368 52.0592M-1.25154 53.0157C-2.03077 54.0982 -3.28047 54.747 -4.60001 54.747C-4.79114 54.747 -4.98227 54.7321 -5.1734 54.7062C-6.59586 54.506 -7.79778 53.5977 -8.3822 52.2668C-8.98132 50.9137 -8.8196 49.3863 -7.93745 48.0665C-6.02246 45.2009 -5.16605 43.8996 -3.52306 41.4084C-3.48998 41.3602 -3.45322 41.3083 -3.41647 41.2601C-3.37604 41.2008 -3.33561 41.1414 -3.29517 41.0821C-2.34687 44.0776 -1.81758 45.705 -0.714905 49.0749C-0.251778 50.4911 -0.439232 51.8887 -1.24786 53.0157M8.74976 52.1778C8.17637 53.5087 6.98547 54.4355 5.56669 54.6506C5.36454 54.6802 5.1587 54.6951 4.95287 54.6951C3.64436 54.6951 2.39098 54.0537 1.61543 52.9823C0.810471 51.8739 0.611988 50.4799 1.05674 49.0675C2.13736 45.6272 2.59313 44.1517 3.55246 41.0302C5.30573 43.6512 6.26873 45.0563 8.26458 47.9813C9.15775 49.2862 9.33418 50.821 8.74976 52.1778ZM18.2438 48.2556C18.0674 49.6977 17.1853 50.9248 15.8804 51.5291C15.3291 51.7886 14.7483 51.9183 14.1455 51.9183C13.0392 51.9183 11.9549 51.4586 11.1867 50.6653C10.6206 50.0833 9.95903 49.0601 9.99211 47.4623C10.0693 43.8551 10.0914 42.3092 10.1391 39.0432C12.554 41.0525 13.8699 42.1276 16.6082 44.3667C17.8285 45.364 18.4276 46.7838 18.2475 48.2556M24.8783 45.6198C24.1248 46.2871 23.1581 46.6541 22.1547 46.6541C20.2176 46.6541 18.6224 45.3714 18.0895 43.3843C17.1522 39.9032 16.7442 38.4166 15.8767 35.2692C18.7511 36.5111 20.3205 37.171 23.5698 38.539C25.0216 39.1507 25.9957 40.3407 26.2309 41.8013C26.4661 43.236 25.9589 44.6596 24.8783 45.6161M31.8803 37.3786C31.1158 38.5909 29.8109 39.3138 28.3811 39.3138C26.9513 39.3138 25.573 38.5316 24.746 37.1673C22.8714 34.0903 22.0591 32.7742 20.3499 30.0086C23.4521 30.3831 25.1356 30.5721 28.6311 30.954H28.6458C30.2116 31.1319 31.4723 31.992 32.1119 33.3303C32.7367 34.639 32.6522 36.1515 31.8803 37.3786ZM36.2837 27.4803C35.7764 29.2598 34.1445 30.5017 32.3103 30.5017C31.3951 30.5017 30.5166 30.194 29.7374 29.6046C29.5683 29.46 29.3405 29.2635 29.0721 29.0299C26.819 26.9798 25.6685 25.9418 23.6837 24.1624C23.5734 24.0511 23.4595 23.9436 23.3566 23.8398C23.2978 23.7842 23.2426 23.7323 23.1875 23.6804C26.2493 23.1614 27.918 22.8574 31.3694 22.242H31.3804C31.6781 22.1864 31.9722 22.1605 32.2552 22.1605C33.5968 22.1605 34.8208 22.7647 35.6037 23.8139C36.3976 24.8704 36.6402 26.2087 36.2837 27.4766" fill="#82C83C"/>
</g>
</svg>
