<svg width="326" height="326" viewBox="0 0 326 326" fill="none" xmlns="http://www.w3.org/2000/svg">
<path d="M206.114 163.001C206.114 139.188 186.815 119.888 163.001 119.888C139.187 119.888 119.888 139.188 119.888 163.001C119.888 186.814 139.187 206.112 163.001 206.112V211.9L161.737 211.883C135.731 211.224 114.775 190.269 114.117 164.262L114.1 163.001C114.1 135.991 135.991 114.1 163.001 114.1L164.262 114.117C190.689 114.786 211.9 136.413 211.9 163.001L211.885 164.262C211.216 190.689 189.588 211.9 163.001 211.9V206.112C186.814 206.112 206.113 186.814 206.114 163.001Z" fill="#82C83C"/>
<path d="M311.083 183.483C314.202 182.352 317.044 180.54 319.44 178.107C323.711 173.784 326.03 168.036 326 161.946C325.938 151.999 319.502 143.555 310.638 140.564C312.496 139.216 314.156 137.574 315.553 135.684C319.793 129.92 321.099 122.405 319.071 115.556C316.337 106.461 308.118 100 298.824 99.4424C299.731 98.2029 300.529 96.8703 301.19 95.4604C304.523 88.2865 303.955 80.0435 299.684 73.4275C295.521 66.9663 288.424 63.0928 280.758 63.0928C278.961 63.0928 277.225 63.3097 275.551 63.7125C276.119 62.2096 276.549 60.6447 276.795 59.0178C277.978 51.1932 275.151 43.4615 269.206 38.3174C265.135 34.7847 259.927 32.8479 254.551 32.8479C250.48 32.8479 246.624 33.9325 243.29 35.9003C243.428 34.2734 243.398 32.6155 243.183 30.9576C242.138 23.102 237.253 16.4859 230.125 13.2321C227.191 11.8841 224.087 11.2179 220.877 11.2179C214.793 11.2179 208.894 13.7434 204.654 18.1283C204.578 18.2213 204.485 18.3143 204.409 18.4072C204.086 16.7338 203.579 15.0759 202.872 13.48C199.662 6.2597 193.117 1.30152 185.375 0.216919C184.346 0.0619763 183.286 0 182.256 0C175.067 0 168.246 3.5327 164.006 9.42053C163.33 10.3657 162.747 11.3573 162.224 12.3644C161.717 11.3883 161.149 10.4432 160.488 9.54448C156.264 3.70314 149.443 0.201426 142.3 0.201426C141.193 0.201426 140.057 0.294392 138.951 0.449335C131.223 1.6269 124.741 6.64705 121.607 13.8984C120.915 15.4943 120.424 17.1367 120.117 18.7636C120.086 18.7171 120.04 18.6706 119.994 18.6241C115.785 14.2857 109.901 11.7912 103.864 11.7912C100.576 11.7912 97.3961 12.5039 94.4005 13.9139C87.3032 17.2297 82.4948 23.9077 81.527 31.7633C81.3273 33.4212 81.312 35.0636 81.4656 36.675C78.1781 34.8157 74.4297 33.7931 70.3741 33.7931C64.9206 33.7931 59.636 35.7918 55.5343 39.4175C49.6507 44.6081 46.8855 52.3862 48.1605 60.1953C48.437 61.8997 48.8979 63.5266 49.5278 65.0605C47.8533 64.6732 46.1327 64.4563 44.3814 64.4563C36.5929 64.4563 29.4802 68.4073 25.3171 75.0234C21.1232 81.6859 20.6623 89.9289 24.0574 97.0563C24.7948 98.6057 25.6858 100.031 26.715 101.317C17.2212 101.844 8.92569 108.445 6.29877 117.741C4.33242 124.667 5.66892 131.934 9.98567 137.698C11.399 139.573 13.0735 141.2 14.9169 142.517C11.7984 143.632 8.95641 145.46 6.55992 147.893C2.28926 152.216 -0.0304229 157.964 0.00030133 164.054C0.0617498 173.985 6.49847 182.445 15.3624 185.436C13.5036 186.784 11.8445 188.426 10.4465 190.316C6.2066 196.065 4.90082 203.595 6.92861 210.428C9.66307 219.523 17.8818 226 27.1759 226.558C26.2695 227.782 25.4707 229.114 24.8101 230.54C21.4765 237.713 22.0449 245.941 26.3156 252.557C30.4787 259.034 37.576 262.907 45.2417 262.907C47.0391 262.907 48.775 262.69 50.4495 262.287C49.8811 263.79 49.4509 265.355 49.2052 266.967C48.0223 274.791 50.8489 282.539 56.794 287.683C60.865 291.215 66.0728 293.152 71.4495 293.152C75.5205 293.152 79.3763 292.067 82.7099 290.1C82.5717 291.727 82.6024 293.384 82.8175 295.042C83.8621 302.882 88.7472 309.514 95.8752 312.768C98.8094 314.1 101.913 314.782 105.123 314.782C111.207 314.782 117.106 312.257 121.346 307.872C121.422 307.779 121.515 307.686 121.591 307.593C121.914 309.266 122.421 310.924 123.128 312.52C126.338 319.74 132.883 324.698 140.625 325.783C141.654 325.923 142.714 326 143.744 326C150.933 326 157.754 322.467 161.994 316.564C162.67 315.634 163.253 314.643 163.776 313.62C164.283 314.596 164.851 315.557 165.512 316.456C169.736 322.297 176.557 325.783 183.7 325.783C184.807 325.783 185.943 325.706 187.049 325.535C194.777 324.373 201.275 319.353 204.393 312.086C205.085 310.49 205.576 308.863 205.883 307.221C205.914 307.267 205.96 307.329 206.006 307.36C210.215 311.699 216.099 314.193 222.136 314.193C225.424 314.193 228.604 313.481 231.6 312.086C238.697 308.755 243.505 302.092 244.473 294.237C244.673 292.563 244.688 290.921 244.534 289.325C247.822 291.184 251.57 292.207 255.626 292.207C261.079 292.207 266.364 290.208 270.466 286.583C276.349 281.376 279.115 273.614 277.839 265.805C277.563 264.1 277.102 262.458 276.472 260.924C278.147 261.327 279.867 261.544 281.619 261.544C289.407 261.544 296.52 257.593 300.683 250.977C304.892 244.314 305.338 236.071 301.943 228.944C301.205 227.394 300.314 225.969 299.285 224.683C308.779 224.14 317.074 217.54 319.701 208.243C321.668 201.333 320.331 194.066 316.014 188.302C314.601 186.412 312.927 184.8 311.083 183.483ZM180.843 65.8817C181.273 65.2465 181.673 64.6267 182.072 64.0224C187.08 57.081 193.855 46.5759 198.325 39.5569C198.54 47.614 198.878 59.6066 199.185 68.0664C199.201 68.6707 199.216 69.2905 199.232 69.9258C199.185 74.4966 197.88 78.3547 195.468 80.8802C193.624 82.817 191.228 83.8706 188.678 83.8706C187.741 83.8706 186.788 83.7312 185.866 83.4368C182.594 82.4297 180.044 79.9661 179.015 76.8517C177.924 73.5514 178.554 69.7708 180.782 65.9747L180.843 65.8817ZM276.841 110.319C272.14 114.673 266.011 120.36 260.834 125.225C259.098 126.821 257.254 128.51 255.226 130.369C252.154 132.833 248.943 134.134 245.84 134.134C241.923 134.134 238.635 132.011 237.084 128.494C235.686 125.349 235.855 121.785 237.514 118.95C239.542 115.479 243.582 113.341 248.913 112.876C257.393 112.148 269.82 110.397 278.055 109.188C277.64 109.56 277.24 109.948 276.841 110.319ZM155.695 248.575C157.477 246.08 160.243 244.67 163.3 244.67H163.422C166.833 244.701 169.967 246.344 171.826 249.04C174.114 252.34 174.36 256.942 172.548 262.009C169.675 270.081 166.065 282.213 163.714 290.27C161.18 282.384 157.37 270.515 154.697 262.442C152.869 256.957 153.222 252.015 155.695 248.575ZM183.055 261.559C179.752 256.771 178.738 251.922 180.152 247.909C181.196 244.996 183.501 242.858 186.45 242.021C187.418 241.742 188.417 241.603 189.4 241.603C192.242 241.603 194.853 242.734 196.758 244.779C199.216 247.397 200.353 251.302 200.061 256.09C199.554 264.674 199.462 277.332 199.462 285.73C194.838 278.866 187.864 268.563 183.055 261.575M243.981 221.026C248.145 228.51 254.888 239.216 259.39 246.266C251.816 243.028 240.417 238.178 232.613 234.925C227.283 232.693 223.796 229.192 222.843 225.024C222.152 222.018 222.935 218.965 224.978 216.626C227.006 214.333 229.818 213.016 232.721 213.016C237.099 213.016 241.093 215.867 243.981 221.011M224.134 241.091C226.038 249.458 229.48 261.637 231.815 269.694C225.47 264.426 215.915 256.524 209.34 251.163C204.854 247.49 202.504 243.136 202.765 238.876C202.949 235.792 204.562 233.096 207.174 231.438C208.894 230.354 210.83 229.78 212.781 229.78C218.281 229.78 222.536 233.995 224.134 241.091ZM233.213 207.763C233.059 207.763 232.89 207.763 232.736 207.763C228.343 207.763 224.072 209.731 221.076 213.14C218.096 216.533 216.867 220.902 217.574 225.287C215.961 224.745 214.333 224.497 212.796 224.497C209.847 224.497 206.959 225.349 204.393 226.96C200.338 229.532 197.818 233.747 197.526 238.566V238.612C195.13 237.109 192.365 236.304 189.415 236.304C187.956 236.304 186.481 236.505 185.068 236.908C180.751 238.132 177.325 241.138 175.589 245.228C172.701 241.587 168.262 239.418 163.499 239.356H163.315C158.706 239.356 154.497 241.463 151.701 245.135C149.842 241.262 146.417 238.271 142.177 236.939C140.733 236.489 139.258 236.257 137.783 236.257C134.834 236.257 132.007 237.171 129.58 238.86C129.119 234.274 126.584 230.044 122.651 227.379C120.209 225.721 117.413 224.853 114.525 224.853C112.774 224.853 111.084 225.179 109.501 225.767C110.131 221.382 108.826 216.812 105.861 213.294C103.08 209.994 99.0706 208.119 94.8306 208.088C96.5973 204.137 96.6126 199.489 94.8306 195.352C92.8028 190.673 88.7011 187.496 83.7699 186.675C86.6119 183.298 87.887 178.789 87.2725 174.28C86.658 169.771 84.154 166.052 80.5439 163.79C84.4612 161.466 87.2417 157.453 87.9791 152.495C88.6243 148.187 87.4414 143.988 84.6302 140.704C84.4305 140.456 84.2154 140.223 84.0003 140.006C88.1174 138.736 91.5892 135.761 93.5402 131.578C95.5527 127.301 95.4298 122.498 93.2483 118.361C93.4327 118.376 93.6324 118.392 93.8167 118.392C98.2717 118.392 102.573 116.378 105.584 112.891C108.534 109.483 109.717 105.098 108.979 100.744C110.408 101.147 111.821 101.348 113.158 101.348C116.107 101.348 118.995 100.496 121.545 98.8846C125.524 96.3745 128.013 92.284 128.397 87.6048C130.855 89.1852 133.697 90.0374 136.738 90.0374C138.167 90.0374 139.596 89.8514 140.963 89.4641C145.556 88.209 149.151 84.9242 150.826 80.4464C153.698 83.8241 157.969 85.8384 162.531 85.9004H162.731C167.463 85.9004 171.779 83.6847 174.56 79.8421C176.373 83.9481 179.921 87.1244 184.346 88.4879C185.774 88.9373 187.234 89.1542 188.678 89.1542C191.719 89.1542 194.592 88.209 197.065 86.4427C197.542 91.0135 200.107 95.2434 204.04 97.8775C206.467 99.5044 209.248 100.357 212.105 100.357C213.933 100.357 215.7 100.016 217.359 99.3649C216.637 103.827 217.943 108.507 220.938 112.07C223.734 115.386 227.774 117.276 232.045 117.276C232.183 117.276 232.322 117.261 232.46 117.261C230.447 121.367 230.371 126.294 232.291 130.617C234.242 135.048 238.067 138.101 242.676 139.077C242.66 139.077 242.63 139.123 242.599 139.154C239.665 142.548 238.374 147.103 238.989 151.689C239.619 156.26 242.184 160.025 245.886 162.287C242.046 164.611 239.311 168.578 238.589 173.459C237.929 177.782 239.112 181.996 241.923 185.265C242.076 185.451 242.245 185.637 242.414 185.808C238.251 187.047 234.749 190.053 232.767 194.268C230.724 198.621 230.878 203.549 233.213 207.748M114.509 230.152C116.353 230.152 118.15 230.726 119.717 231.779C122.544 233.7 124.28 236.799 124.387 240.084C124.495 244.097 122.206 248.11 117.951 251.364C111.176 256.539 101.559 264.705 95.2454 270.174C97.4115 262.163 100.622 250.14 102.757 241.897C105.016 233.267 110.3 230.183 114.494 230.183M104.094 226.015C103.111 229.904 99.8387 233.112 94.846 235.079C86.9191 238.194 75.4744 243.4 67.8855 246.917C72.1408 239.805 78.5161 229.114 82.8021 221.785C85.9206 216.455 90.2681 213.387 94.7231 213.387C97.4883 213.387 100.008 214.581 101.82 216.75C104.033 219.368 104.877 222.823 104.079 226.031M89.4846 206.988C87.4261 210.428 83.3705 212.551 78.0245 212.954C69.5446 213.62 57.0859 215.247 48.8365 216.409C54.9506 210.846 64.1218 202.479 70.3281 196.716C73.846 193.462 77.5943 191.757 81.1891 191.757C85.1679 191.757 88.4553 193.896 90.0069 197.475C91.3588 200.62 91.1744 204.184 89.4846 207.004M72.4173 160.66C69.9133 160.66 67.271 159.917 64.5058 158.46C56.963 154.478 45.5336 149.21 37.9294 145.77C46.0406 144.329 58.2073 142.129 66.4875 140.58C72.5248 139.433 77.7633 140.781 80.6514 144.174C82.4334 146.266 83.2015 148.947 82.7867 151.736C82.1108 156.183 78.6697 160.676 72.4019 160.676M88.7933 129.331C87.042 133.05 83.5088 135.374 79.5453 135.374C76.1196 135.374 72.5863 133.685 69.3449 130.477C63.2461 124.481 53.8138 116.114 47.5307 110.614C55.7033 111.59 67.9777 113.031 76.3654 113.945C82.1108 114.565 86.4276 116.966 88.4861 120.685C89.9916 123.381 90.0991 126.526 88.7779 129.346M82.587 105.206C78.3471 97.769 71.5109 87.1244 66.933 80.1055C74.5373 83.2818 85.9821 88.0231 93.8167 91.1994C99.1781 93.3841 102.681 96.8548 103.679 101.007C104.401 104.013 103.648 107.081 101.621 109.436C99.5929 111.776 96.7663 113.108 93.8167 113.108C89.4846 113.108 85.4905 110.304 82.587 105.222M101.805 84.7228C99.9155 76.3559 96.5051 64.1619 94.1701 56.1048C100.515 61.3884 110.07 69.3215 116.614 74.6825C121.115 78.3547 123.45 82.724 123.174 86.9695C122.989 90.0528 121.376 92.7644 118.765 94.4067C117.044 95.4759 115.109 96.0491 113.158 96.0491C107.658 96.0491 103.403 91.8347 101.805 84.7228ZM126.108 70.2047C126.676 61.6208 126.876 48.962 126.937 40.5641C131.5 47.459 138.398 57.8247 143.16 64.8436C146.417 69.6624 147.4 74.5276 145.956 78.5251C144.896 81.4225 142.576 83.5452 139.596 84.3664C138.659 84.6298 137.691 84.7538 136.738 84.7538C133.881 84.7538 131.254 83.6227 129.349 81.5465C126.891 78.9124 125.77 74.9924 126.108 70.1892M171.349 62.8449C173.162 68.3298 172.809 73.2725 170.335 76.7123C168.553 79.1913 165.788 80.6168 162.731 80.6168H162.593C159.183 80.5703 156.049 78.9124 154.19 76.2319C151.932 72.9162 151.67 68.3144 153.499 63.2477C156.387 55.1752 160.027 43.0587 162.378 35.0016C164.897 42.9037 168.692 54.7723 171.349 62.8449ZM242 106.492C239.142 110.025 235.64 111.993 232.045 111.993C229.28 111.993 226.776 110.8 224.948 108.631C222.736 106.012 221.891 102.557 222.689 99.3649C223.673 95.4604 226.945 92.253 231.937 90.2853C239.818 87.2019 251.156 82.0423 258.729 78.5406C252.308 89.3866 248.698 95.4139 242 106.477M245.886 181.826C244.104 179.718 243.352 177.053 243.766 174.264C244.442 169.817 247.899 165.324 254.136 165.324C256.64 165.324 259.313 166.083 262.078 167.555C269.605 171.537 281.035 176.852 288.624 180.292C280.512 181.733 268.346 183.902 260.05 185.436C254.013 186.551 248.774 185.203 245.902 181.81M259.866 158.336C257.992 158.987 256.179 159.312 254.443 159.312C248.989 159.312 244.857 155.95 244.181 150.976C243.751 147.909 244.627 144.872 246.547 142.64C248.682 140.161 251.878 138.875 255.795 138.875C257.085 138.875 258.437 139.015 259.85 139.294C268.207 140.983 280.635 142.795 288.885 143.911C285.582 145.569 281.572 147.583 277.455 149.644C272.002 152.371 266.917 154.881 259.866 158.336ZM207.389 74.8839C207.665 74.6515 207.942 74.4191 208.203 74.2022C208.341 74.0937 208.464 73.9853 208.587 73.8923C215.362 68.6862 224.932 60.4742 231.231 54.9738C229.096 62.9843 225.931 75.0389 223.826 83.2818C221.614 91.9586 216.314 95.0575 212.09 95.0575C210.277 95.0575 208.48 94.4997 206.928 93.4461C204.071 91.5558 202.335 88.4724 202.212 85.1722C202.104 81.5775 203.902 77.9983 207.327 74.9304L207.389 74.8684V74.8839ZM65.6272 167.896C67.7626 167.075 69.8211 166.657 71.8028 166.657C77.241 166.657 81.3734 170.003 82.0647 174.993C82.4795 178.06 81.6192 181.097 79.6836 183.329C77.5482 185.792 74.3683 187.094 70.4356 187.094C69.1605 187.094 67.7933 186.954 66.4107 186.66C58.0537 184.986 45.6258 183.174 37.3763 182.058C43.2447 179.099 51.4787 174.977 58.3763 171.444C60.6038 170.344 62.9696 169.182 65.6272 167.881M145.126 260.165C144.727 260.8 144.327 261.404 143.928 262.009C138.951 268.919 132.36 279.021 128.013 285.823C127.813 277.534 127.506 265.061 127.229 256.555C127.06 251.519 128.397 247.242 131.008 244.531C132.852 242.61 135.233 241.556 137.768 241.556C138.72 241.556 139.688 241.696 140.625 241.99C143.882 243.013 146.417 245.492 147.446 248.606C148.475 251.751 147.937 255.331 145.956 258.925L145.126 260.165ZM278.761 215.262C270.589 214.302 258.314 212.845 249.927 211.931C244.181 211.311 239.864 208.91 237.806 205.191C236.316 202.495 236.208 199.35 237.529 196.53C239.281 192.796 242.814 190.487 246.762 190.487C249.343 190.487 251.954 191.432 254.474 193.26L255.856 194.5C256.778 195.321 257.638 196.096 258.468 196.855C264.521 202.696 272.985 210.211 278.777 215.278M320.746 161.977C320.761 166.641 318.979 171.057 315.722 174.373C312.45 177.689 308.118 179.501 303.525 179.501C301.313 179.501 299.116 179.068 296.935 178.246C296.243 177.921 295.337 177.518 294.277 177.038C281.511 170.856 275.689 168.067 263.875 162.427C264.352 162.21 264.828 161.977 265.304 161.745C269.452 159.607 274.706 156.957 279.806 154.37C284.199 152.169 288.869 149.845 294.984 146.762C297.795 145.367 300.652 144.655 303.525 144.655C312.973 144.655 320.7 152.417 320.761 161.962M314.033 117.075C315.6 122.312 314.601 128.107 311.329 132.523C308.041 136.97 302.91 139.542 297.242 139.542C296.474 139.542 295.69 139.48 294.907 139.402C294.692 139.371 294.461 139.34 294.231 139.309C294.108 139.309 293.97 139.278 293.847 139.247C279.115 136.815 272.785 135.808 259.451 133.7C259.743 133.452 260.035 133.189 260.327 132.926C261.556 131.748 262.923 130.477 264.336 129.145C269.867 124.047 274.245 119.957 280.39 114.208C282.725 112.039 284.706 110.211 286.058 108.956C287.026 108.166 288.025 107.468 289.069 106.895C289.883 106.554 290.682 106.198 291.45 105.78C293.386 105.051 295.414 104.664 297.488 104.664C305.046 104.664 311.836 109.762 314.033 117.059M295.275 76.2939C298.548 81.3605 298.978 87.6977 296.428 93.1982C294.861 96.576 292.357 99.2255 289.177 100.992C288.378 101.317 287.61 101.689 286.842 102.092C285.997 102.417 285.106 102.696 284.199 102.898C283.247 103.053 281.91 103.254 280.282 103.502C266.763 105.16 260.373 105.996 247.653 107.639C247.945 107.205 248.221 106.771 248.483 106.306C254.182 96.5605 263.599 80.8337 266.748 75.5812C270.22 70.9794 275.213 68.3763 280.743 68.3763C286.627 68.3763 292.065 71.3512 295.26 76.3094M265.78 42.2994C270.327 46.235 272.509 52.1848 271.602 58.1811C270.788 63.4646 267.685 67.927 262.984 70.716C261.786 71.2893 259.927 72.1569 257.669 73.2105C245.978 78.2927 240.095 80.8802 228.619 85.9469C232.03 73.226 233.812 66.3001 237.514 51.9059C239.68 43.508 246.363 38.085 254.551 38.085C258.668 38.085 262.662 39.5724 265.796 42.2839M220.861 16.4704C223.319 16.4704 225.685 16.9972 227.943 18.0199C233.412 20.5144 237.161 25.5966 237.959 31.6084C238.789 37.7441 236.331 43.6939 231.262 47.9239C219.863 57.4374 214.947 61.5898 204.793 70.1737C204.685 70.2666 204.578 70.3596 204.47 70.4526C204.47 70.2666 204.47 70.0962 204.47 69.9258C204.47 69.5074 204.47 69.0736 204.455 68.6397C204.455 68.4073 204.455 68.1749 204.424 67.9425C204.163 56.2908 203.948 49.1324 203.518 35.265C203.303 28.556 206.083 24.2021 208.418 21.7695C211.675 18.3917 216.191 16.4704 220.861 16.4704ZM168.262 12.4729C171.518 7.94857 176.741 5.23707 182.256 5.23707C183.055 5.23707 183.854 5.29905 184.653 5.40751C190.598 6.22871 195.621 10.0403 198.064 15.6028C200.292 20.6074 200 26.2163 197.342 31.252C196.743 32.1971 195.959 33.4522 195.007 34.9396C187.818 45.7237 184.238 51.1312 177.725 61.032C177.725 61.0475 177.725 61.0785 177.694 61.094C177.371 61.5278 177.095 61.9617 176.803 62.3955C172.855 49.8452 170.627 43.0432 166.019 28.9588C164.083 23.0245 164.866 17.1677 168.246 12.4884M126.461 15.9746C128.858 10.3967 133.835 6.53859 139.765 5.63992C140.61 5.51597 141.47 5.45399 142.33 5.45399C147.799 5.45399 153.038 8.13451 156.279 12.6124C159.659 17.2452 160.473 23.071 158.614 28.9743C154.098 43.353 152.193 49.5198 148.183 62.5505C141.716 52.882 137.798 47.1646 131.208 37.4962C129.595 35.0636 128.274 33.0958 127.444 31.8408C124.618 26.7741 124.234 21.0722 126.446 15.9746M86.7809 32.3676C87.5183 26.3403 91.2052 21.2117 96.6587 18.6706C98.963 17.6015 101.39 17.0592 103.91 17.0592C108.534 17.0592 113.065 18.965 116.276 22.2963C118.642 24.7134 121.407 29.0053 121.269 35.6834C120.946 50.7593 120.854 57.2204 120.654 70.8709C110.577 62.473 105.077 57.9797 93.617 48.6211C88.5168 44.4376 86.0128 38.5033 86.7655 32.3676M59.0369 43.353C62.1861 40.5641 66.2264 39.0301 70.4202 39.0301C78.5161 39.0301 85.1832 44.3912 87.4107 52.6806C91.3281 67.2452 93.0333 73.474 96.6587 86.6131C84.6455 81.4225 78.0859 78.6645 64.5058 72.9471C58.4378 70.3751 54.3668 65.4169 53.3836 59.3122C52.4005 53.3159 54.5204 47.3506 59.0369 43.353ZM29.7874 77.8278C32.9828 72.7612 38.4363 69.7243 44.4122 69.7243C50.388 69.7243 56.1488 73.0091 59.6053 78.711C67.44 91.5558 70.835 97.0563 77.9784 108.631C64.982 107.05 57.9462 106.275 43.3061 104.664C36.7618 103.936 31.4926 100.326 28.8196 94.7476C26.2081 89.2626 26.5614 82.9565 29.7874 77.8278ZM11.3683 119.182C13.4882 111.745 20.309 106.554 27.9747 106.554C32.399 106.554 36.6543 108.274 40.2337 111.543C51.3405 121.646 56.1027 125.938 66.2264 135.017C53.3068 137.217 46.3324 138.473 31.846 141.076C30.6016 141.292 29.3727 141.401 28.1898 141.401C22.5826 141.401 17.467 138.875 14.1949 134.49C10.8767 130.059 9.86278 124.481 11.3529 119.182M5.26951 164.023C5.25414 159.359 7.03615 154.943 10.2929 151.627C13.565 148.311 17.8972 146.499 22.4904 146.499C25.2863 146.499 28.0822 147.18 30.8321 148.513C44.2586 155.036 50.0808 157.809 62.2322 163.62C61.8021 163.806 61.3719 164.023 60.9264 164.24C59.421 165.014 57.7772 165.851 56.0567 166.734C47.8686 170.763 41.6931 173.877 31.0318 179.223C28.2205 180.633 25.3632 181.345 22.4904 181.345C13.0427 181.345 5.31559 173.583 5.25414 164.038M11.9827 208.925C10.4158 203.673 11.4297 197.893 14.6865 193.477C17.974 189.015 23.1049 186.458 28.7735 186.458C29.8796 186.458 31.0318 186.551 32.1686 186.737C46.9316 189.185 53.2607 190.192 66.6258 192.3C56.9477 201.193 51.7553 206.043 40.9711 216.161C39.696 217.338 38.3595 218.315 36.9462 219.105C36.132 219.43 35.3332 219.802 34.5651 220.205C32.6294 220.949 30.5863 221.336 28.5277 221.336C20.9696 221.336 14.1795 216.238 11.9827 208.941M30.7553 249.706C27.4831 244.624 27.053 238.302 29.6031 232.802C31.17 229.424 33.6741 226.775 36.854 224.993C37.6375 224.683 38.4209 224.311 39.1891 223.893C40.6792 223.319 42.2922 222.916 43.9667 222.715C58.8218 220.887 65.1664 220.065 78.5929 218.33C71.7721 229.594 68.1313 235.73 60.5731 248.467C57.1166 254.292 51.5556 257.624 45.2725 257.624C39.3888 257.624 33.9506 254.664 30.7553 249.706ZM60.2505 283.685C55.7033 279.734 53.5219 273.8 54.4283 267.788C55.3654 261.683 59.3595 256.648 65.4275 254.044C79.1613 248.095 85.0296 245.492 97.4268 240.022C94.0164 252.758 92.2344 259.669 88.5322 274.063C86.3661 282.477 79.6836 287.9 71.4956 287.9C67.3785 287.9 63.3844 286.397 60.2505 283.701M105.154 309.53C102.696 309.53 100.33 309.003 98.072 307.98C92.6031 305.486 88.8548 300.403 88.0559 294.376C87.2264 288.24 89.6843 282.306 94.7538 278.061C106.275 268.454 111.191 264.302 121.545 255.532C121.837 268.733 122.052 275.876 122.513 290.719C122.728 297.444 119.948 301.782 117.613 304.231C114.356 307.608 109.839 309.53 105.169 309.53M157.769 313.527C154.512 318.051 149.289 320.763 143.774 320.763C142.975 320.763 142.177 320.701 141.378 320.592C135.433 319.756 130.409 315.96 127.967 310.397C125.463 304.742 126.139 298.358 129.826 292.842C137.829 280.865 141.409 275.427 148.275 265.014C148.414 264.813 148.567 264.596 148.721 264.395C148.89 264.147 149.059 263.899 149.228 263.651C153.191 276.17 155.403 282.972 160.012 297.057C161.948 302.975 161.164 308.817 157.785 313.527M199.57 310.025C197.173 315.588 192.196 319.461 186.266 320.36C185.421 320.484 184.561 320.546 183.7 320.546C178.232 320.546 172.993 317.865 169.752 313.388C166.387 308.755 165.558 302.929 167.417 297.026C171.933 282.647 173.838 276.48 177.847 263.434C185.175 274.388 189.2 280.261 197.542 292.486C201.275 297.94 202.012 304.354 199.57 310.025ZM239.25 293.632C238.512 299.66 234.826 304.788 229.372 307.314C227.068 308.398 224.64 308.941 222.121 308.941C217.497 308.941 212.965 307.019 209.755 303.704C207.389 301.271 204.624 296.995 204.762 290.317C205.085 275.241 205.177 268.78 205.376 255.129C215.469 263.527 220.969 268.02 232.414 277.379C237.514 281.547 240.018 287.481 239.265 293.632M266.978 282.616C263.829 285.405 259.789 286.939 255.595 286.939C247.499 286.939 240.832 281.578 238.605 273.273C234.687 258.724 232.982 252.511 229.357 239.356C241.37 244.546 247.929 247.304 261.51 253.022C267.578 255.578 271.649 260.552 272.632 266.657C273.615 272.653 271.495 278.603 266.978 282.6M296.243 248.172C293.048 253.239 287.594 256.26 281.619 256.26C275.643 256.26 269.882 252.991 266.425 247.289C258.591 234.429 255.196 228.928 248.052 217.369C261.018 218.934 268.054 219.725 282.663 221.321H282.725C289.269 222.064 294.538 225.659 297.211 231.252C299.823 236.722 299.469 243.044 296.243 248.172ZM314.647 206.802C312.527 214.24 305.706 219.43 298.041 219.43C294.215 219.43 290.544 218.144 287.287 215.681C286.581 215.076 285.628 214.255 284.507 213.279C275.09 204.711 270.281 200.372 261.986 192.935C261.525 192.47 261.049 192.021 260.619 191.587C260.373 191.355 260.142 191.138 259.912 190.921C272.709 188.752 279.683 187.481 294.108 184.909H294.154C295.398 184.677 296.627 184.568 297.81 184.568C303.417 184.568 308.533 187.094 311.805 191.479C315.123 195.894 316.137 201.488 314.647 206.787" fill="#82C83C"/>
</svg>
