<svg width="326" height="163" viewBox="0 0 326 163" fill="none" xmlns="http://www.w3.org/2000/svg">
<path d="M206.114 0.000839233C206.114 -23.8123 186.815 -43.1117 163.001 -43.112C139.187 -43.112 119.888 -23.8125 119.888 0.000839233C119.888 23.8138 139.187 43.112 163.001 43.112V48.9L161.737 48.8834C135.731 48.2244 114.775 27.269 114.117 1.2625L114.1 0.000839233C114.1 -27.009 135.991 -48.9 163.001 -48.9L164.262 -48.8834C190.689 -48.2141 211.9 -26.587 211.9 0.000839233L211.885 1.2625C211.216 27.6885 189.588 48.8997 163.001 48.9V43.112C186.814 43.1117 206.113 23.8136 206.114 0.000839233Z" fill="#82C83C"/>
<path d="M311.083 20.4835C314.202 19.3524 317.044 17.5395 319.44 15.1069C323.711 10.784 326.03 5.03564 326 -1.05362C325.938 -11.001 319.502 -19.4453 310.638 -22.4357C312.496 -23.7838 314.156 -25.4261 315.553 -27.3164C319.793 -33.0803 321.099 -40.5951 319.071 -47.4435C316.337 -56.5387 308.118 -62.9998 298.824 -63.5576C299.73 -64.7971 300.529 -66.1297 301.19 -67.5396C304.523 -74.7135 303.955 -82.9565 299.684 -89.5725C295.521 -96.0337 288.424 -99.9072 280.758 -99.9072C278.961 -99.9072 277.225 -99.6903 275.551 -99.2875C276.119 -100.79 276.549 -102.355 276.795 -103.982C277.978 -111.807 275.151 -119.538 269.206 -124.683C265.135 -128.215 259.927 -130.152 254.551 -130.152C250.48 -130.152 246.624 -129.067 243.29 -127.1C243.428 -128.727 243.398 -130.385 243.183 -132.042C242.138 -139.898 237.253 -146.514 230.125 -149.768C227.191 -151.116 224.087 -151.782 220.877 -151.782C214.793 -151.782 208.894 -149.257 204.654 -144.872C204.578 -144.779 204.485 -144.686 204.409 -144.593C204.086 -146.266 203.579 -147.924 202.872 -149.52C199.662 -156.74 193.117 -161.698 185.375 -162.783C184.346 -162.938 183.286 -163 182.256 -163C175.067 -163 168.246 -159.467 164.006 -153.579C163.33 -152.634 162.747 -151.643 162.224 -150.636C161.717 -151.612 161.149 -152.557 160.488 -153.456C156.264 -159.297 149.443 -162.799 142.3 -162.799C141.193 -162.799 140.057 -162.706 138.951 -162.551C131.223 -161.373 124.741 -156.353 121.607 -149.102C120.915 -147.506 120.424 -145.863 120.117 -144.236C120.086 -144.283 120.04 -144.329 119.994 -144.376C115.785 -148.714 109.901 -151.209 103.864 -151.209C100.576 -151.209 97.3961 -150.496 94.4005 -149.086C87.3032 -145.77 82.4949 -139.092 81.527 -131.237C81.3273 -129.579 81.312 -127.936 81.4656 -126.325C78.1781 -128.184 74.4297 -129.207 70.3741 -129.207C64.9206 -129.207 59.636 -127.208 55.5343 -123.583C49.6507 -118.392 46.8855 -110.614 48.1605 -102.805C48.437 -101.1 48.8979 -99.4734 49.5278 -97.9395C47.8533 -98.3268 46.1327 -98.5437 44.3814 -98.5437C36.5929 -98.5437 29.4802 -94.5927 25.3171 -87.9766C21.1232 -81.3141 20.6623 -73.0711 24.0574 -65.9437C24.7948 -64.3943 25.6858 -62.9688 26.715 -61.6828C17.2212 -61.156 8.92569 -54.5554 6.29877 -45.2588C4.33242 -38.3329 5.66892 -31.0661 9.98567 -25.3022C11.399 -23.4274 13.0735 -21.8005 14.9169 -20.4835C11.7984 -19.3679 8.95641 -17.5396 6.55992 -15.1069C2.28926 -10.784 -0.0304229 -5.03564 0.00030133 1.0536C0.0617498 10.9855 6.49848 19.4453 15.3624 22.4357C13.5036 23.7837 11.8445 25.4261 10.4465 27.3165C6.20659 33.0648 4.90082 40.595 6.92861 47.428C9.66307 56.5232 17.8818 62.9998 27.1759 63.5576C26.2695 64.7817 25.4707 66.1141 24.8101 67.5396C21.4765 74.7135 22.0449 82.941 26.3156 89.557C30.4787 96.0336 37.576 99.9072 45.2417 99.9072C47.0391 99.9072 48.775 99.6903 50.4495 99.2874C49.8811 100.79 49.4509 102.355 49.2052 103.967C48.0223 111.791 50.8489 119.539 56.794 124.683C60.865 128.215 66.0728 130.152 71.4495 130.152C75.5205 130.152 79.3763 129.067 82.7099 127.1C82.5717 128.727 82.6024 130.384 82.8175 132.042C83.8621 139.883 88.7472 146.514 95.8753 149.768C98.8094 151.1 101.913 151.782 105.123 151.782C111.207 151.782 117.106 149.257 121.346 144.872C121.422 144.779 121.515 144.686 121.591 144.593C121.914 146.266 122.421 147.924 123.128 149.52C126.338 156.74 132.883 161.698 140.625 162.783C141.654 162.923 142.714 163 143.744 163C150.933 163 157.754 159.467 161.994 153.564C162.67 152.634 163.253 151.643 163.776 150.62C164.283 151.596 164.851 152.557 165.512 153.456C169.736 159.297 176.557 162.783 183.7 162.783C184.807 162.783 185.943 162.706 187.049 162.535C194.777 161.373 201.275 156.353 204.393 149.086C205.085 147.49 205.576 145.863 205.883 144.221C205.914 144.267 205.96 144.329 206.006 144.36C210.215 148.699 216.099 151.193 222.136 151.193C225.424 151.193 228.604 150.481 231.6 149.086C238.697 145.755 243.505 139.092 244.473 131.237C244.673 129.563 244.688 127.921 244.534 126.325C247.822 128.184 251.57 129.207 255.626 129.207C261.079 129.207 266.364 127.208 270.466 123.583C276.349 118.376 279.115 110.614 277.839 102.805C277.563 101.1 277.102 99.4579 276.472 97.924C278.147 98.3268 279.867 98.5437 281.619 98.5437C289.407 98.5437 296.52 94.5927 300.683 87.9766C304.892 81.3141 305.338 73.0711 301.943 65.9437C301.205 64.3943 300.314 62.9688 299.285 61.6828C308.779 61.1405 317.074 54.5399 319.701 45.2433C321.668 38.3329 320.331 31.0661 316.014 25.3022C314.601 23.4119 312.927 21.8005 311.083 20.4835ZM180.843 -97.1182C181.273 -97.7535 181.673 -98.3733 182.072 -98.9776C187.08 -105.919 193.855 -116.424 198.325 -123.443C198.54 -115.386 198.878 -103.393 199.185 -94.9336C199.201 -94.3293 199.216 -93.7095 199.232 -93.0742C199.185 -88.5034 197.88 -84.6453 195.468 -82.1198C193.624 -80.183 191.228 -79.1294 188.678 -79.1294C187.741 -79.1294 186.788 -79.2688 185.867 -79.5632C182.594 -80.5703 180.044 -83.0339 179.015 -86.1483C177.924 -89.4486 178.554 -93.2292 180.782 -97.0253L180.843 -97.1182ZM276.841 -52.6806C272.14 -48.3267 266.011 -42.6403 260.834 -37.7751C259.098 -36.1792 257.254 -34.4903 255.226 -32.631C252.154 -30.1674 248.943 -28.8659 245.84 -28.8659C241.923 -28.8659 238.635 -30.9886 237.084 -34.5058C235.686 -37.6511 235.855 -41.2148 237.514 -44.0503C239.542 -47.521 243.582 -49.6592 248.913 -50.1241C257.393 -50.8523 269.82 -52.6031 278.055 -53.8117C277.64 -53.4398 277.24 -53.0525 276.841 -52.6806ZM155.695 85.575C157.477 83.0804 160.243 81.6704 163.3 81.6704H163.422C166.833 81.7014 169.967 83.3438 171.826 86.0398C174.115 89.3401 174.36 93.9419 172.548 99.0086C169.675 107.081 166.065 119.213 163.714 127.27C161.18 119.384 157.37 107.515 154.697 99.4424C152.869 93.9574 153.222 89.0147 155.695 85.575ZM183.055 98.5592C179.752 93.7715 178.738 88.9218 180.152 84.9087C181.196 81.9958 183.501 79.8576 186.45 79.0209C187.418 78.742 188.417 78.6026 189.4 78.6026C192.242 78.6026 194.853 79.7336 196.758 81.7789C199.216 84.3974 200.353 88.302 200.061 93.0897C199.554 101.674 199.462 114.332 199.462 122.73C194.838 115.866 187.864 105.563 183.055 98.5747M243.981 58.0261C248.145 65.5099 254.888 76.2164 259.39 83.2663C251.816 80.028 240.417 75.1783 232.613 71.9245C227.283 69.6933 223.796 66.1916 222.843 62.0237C222.152 59.0178 222.935 55.9654 224.978 53.6257C227.006 51.3326 229.818 50.0156 232.721 50.0156C237.099 50.0156 241.093 52.8665 243.981 58.0107M224.134 78.0913C226.038 86.4582 229.48 98.6367 231.815 106.694C225.47 101.426 215.915 93.5236 209.34 88.1626C204.854 84.4904 202.504 80.1365 202.765 75.8756C202.949 72.7922 204.562 70.0962 207.174 68.4383C208.894 67.3537 210.83 66.7804 212.781 66.7804C218.281 66.7804 222.536 70.9949 224.134 78.0913ZM233.213 44.763C233.059 44.763 232.89 44.763 232.736 44.763C228.343 44.763 224.072 46.7308 221.076 50.1395C218.096 53.5328 216.867 57.9022 217.574 62.2871C215.961 61.7448 214.333 61.4969 212.796 61.4969C209.847 61.4969 206.959 62.349 204.393 63.9604C200.338 66.5325 197.818 70.7469 197.526 75.5657V75.6122C195.13 74.1092 192.365 73.3035 189.415 73.3035C187.956 73.3035 186.481 73.5049 185.068 73.9078C180.751 75.1318 177.325 78.1378 175.589 82.2282C172.701 78.5871 168.262 76.4179 163.499 76.3559H163.315C158.706 76.3559 154.497 78.4631 151.701 82.1353C149.842 78.2617 146.417 75.2713 142.177 73.9388C140.733 73.4895 139.258 73.257 137.783 73.257C134.834 73.257 132.007 74.1712 129.58 75.8601C129.119 71.2738 126.584 67.0438 122.651 64.3788C120.209 62.7209 117.413 61.8532 114.525 61.8532C112.774 61.8532 111.084 62.1786 109.501 62.7674C110.131 58.3825 108.826 53.8117 105.861 50.2945C103.08 46.9942 99.0706 45.1194 94.8306 45.0884C96.5973 41.1374 96.6126 36.4891 94.8306 32.3521C92.8028 27.6728 88.7011 24.4965 83.7699 23.6753C86.6119 20.2975 87.887 15.7887 87.2725 11.2798C86.658 6.77101 84.154 3.05237 80.5439 0.790207C84.4612 -1.53394 87.2417 -5.54697 87.9791 -10.5051C88.6243 -14.8125 87.4414 -19.0115 84.6302 -22.2963C84.4305 -22.5442 84.2154 -22.7766 84.0003 -22.9935C88.1174 -24.2641 91.5892 -27.239 93.5402 -31.4224C95.5527 -35.6989 95.4297 -40.5021 93.2483 -44.6391C93.4327 -44.6236 93.6324 -44.6081 93.8167 -44.6081C98.2717 -44.6081 102.573 -46.6223 105.584 -50.1086C108.534 -53.5173 109.717 -57.9022 108.979 -62.2561C110.408 -61.8532 111.821 -61.6518 113.158 -61.6518C116.107 -61.6518 118.995 -62.504 121.545 -64.1154C125.524 -66.6255 128.013 -70.716 128.397 -75.3952C130.855 -73.8148 133.697 -72.9626 136.738 -72.9626C138.167 -72.9626 139.596 -73.1486 140.963 -73.5359C145.556 -74.791 149.151 -78.0758 150.826 -82.5536C153.698 -79.1759 157.969 -77.1616 162.531 -77.0996H162.731C167.463 -77.0996 171.779 -79.3153 174.56 -83.1579C176.373 -79.0519 179.921 -75.8756 184.346 -74.5121C185.774 -74.0627 187.234 -73.8458 188.678 -73.8458C191.719 -73.8458 194.592 -74.791 197.065 -76.5573C197.542 -71.9865 200.107 -67.7566 204.04 -65.1225C206.467 -63.4956 209.248 -62.6434 212.105 -62.6434C213.933 -62.6434 215.7 -62.9843 217.359 -63.6351C216.637 -59.1727 217.943 -54.4934 220.938 -50.9298C223.734 -47.614 227.774 -45.7237 232.045 -45.7237C232.183 -45.7237 232.322 -45.7392 232.46 -45.7392C230.447 -41.6332 230.371 -36.706 232.291 -32.3831C234.242 -27.9517 238.067 -24.8993 242.676 -23.9232C242.66 -23.9232 242.63 -23.8767 242.599 -23.8457C239.665 -20.4525 238.374 -15.8972 238.989 -11.3108C239.619 -6.74002 242.184 -2.97491 245.886 -0.712738C242.046 1.6114 239.311 5.57794 238.589 10.4586C237.929 14.7816 239.112 18.996 241.923 22.2653C242.076 22.4512 242.245 22.6372 242.414 22.8076C238.251 24.0471 234.749 27.0531 232.767 31.2675C230.724 35.6214 230.878 40.5486 233.213 44.7475M114.509 67.1523C116.353 67.1523 118.15 67.7256 119.717 68.7792C122.544 70.7005 124.28 73.7993 124.387 77.0841C124.495 81.0972 122.206 85.1102 117.951 88.364C111.176 93.5391 101.559 101.705 95.2454 107.174C97.4115 99.1635 100.622 87.1399 102.757 78.8969C105.016 70.2666 110.3 67.1833 114.494 67.1833M104.094 63.0153C103.111 66.9044 99.8387 70.1117 94.846 72.0795C86.9191 75.1938 75.4744 80.3999 67.8855 83.9171C72.1408 76.8052 78.5161 66.1142 82.8021 58.7854C85.9206 53.4553 90.2681 50.3875 94.7231 50.3875C97.4883 50.3875 100.008 51.5805 101.82 53.7497C104.033 56.3682 104.877 59.8235 104.079 63.0308M89.4846 43.9883C87.4261 47.428 83.3705 49.5508 78.0245 49.9536C69.5446 50.6199 57.0859 52.2468 48.8365 53.4088C54.9506 47.8464 64.1218 39.4794 70.3281 33.7156C73.846 30.4618 77.5943 28.7574 81.1891 28.7574C85.1679 28.7574 88.4554 30.8956 90.0069 34.4748C91.3588 37.6201 91.1744 41.1838 89.4846 44.0038M72.4173 -2.33963C69.9133 -2.33963 67.271 -3.08336 64.5058 -4.53983C56.963 -8.52187 45.5336 -13.7899 37.9294 -17.2297C46.0406 -18.6706 58.2073 -20.8708 66.4875 -22.4202C72.5248 -23.5668 77.7633 -22.2188 80.6514 -18.8256C82.4334 -16.7338 83.2015 -14.0533 82.7867 -11.2644C82.1108 -6.81749 78.6697 -2.32414 72.4019 -2.32414M88.7933 -33.6691C87.042 -29.9505 83.5088 -27.6263 79.5453 -27.6263C76.1196 -27.6263 72.5863 -29.3152 69.3449 -32.5225C63.2461 -38.5188 53.8138 -46.8857 47.5307 -52.3862C55.7033 -51.4101 67.9777 -49.9691 76.3654 -49.0549C82.1108 -48.4352 86.4276 -46.0336 88.4861 -42.3149C89.9916 -39.6189 90.0991 -36.4736 88.7779 -33.6536M82.587 -57.7937C78.3471 -65.231 71.5109 -75.8756 66.933 -82.8945C74.5373 -79.7182 85.9821 -74.9769 93.8167 -71.8006C99.1781 -69.6159 102.681 -66.1451 103.679 -61.9927C104.401 -58.9868 103.648 -55.9189 101.621 -53.5638C99.5929 -51.2242 96.7663 -49.8916 93.8167 -49.8916C89.4846 -49.8916 85.4905 -52.6961 82.587 -57.7782M101.805 -78.2772C99.9155 -86.6441 96.5051 -98.8381 94.1701 -106.895C100.515 -101.612 110.07 -93.6785 116.614 -88.3175C121.115 -84.6453 123.45 -80.276 123.174 -76.0305C122.989 -72.9472 121.376 -70.2356 118.765 -68.5933C117.044 -67.5241 115.109 -66.9509 113.158 -66.9509C107.658 -66.9509 103.403 -71.1653 101.805 -78.2772ZM126.108 -92.7953C126.676 -101.379 126.876 -114.038 126.937 -122.436C131.5 -115.541 138.398 -105.175 143.16 -98.1564C146.417 -93.3376 147.4 -88.4724 145.956 -84.4749C144.896 -81.5775 142.576 -79.4548 139.596 -78.6336C138.659 -78.3702 137.691 -78.2462 136.738 -78.2462C133.881 -78.2462 131.254 -79.3773 129.349 -81.4535C126.891 -84.0876 125.77 -88.0076 126.108 -92.8108M171.349 -100.155C173.162 -94.6702 172.809 -89.7275 170.335 -86.2877C168.553 -83.8087 165.788 -82.3832 162.731 -82.3832H162.593C159.183 -82.4297 156.049 -84.0876 154.19 -86.7681C151.932 -90.0838 151.67 -94.6856 153.499 -99.7523C156.387 -107.825 160.027 -119.941 162.378 -127.998C164.897 -120.096 168.692 -108.228 171.349 -100.155ZM242 -56.5077C239.142 -52.975 235.64 -51.0072 232.045 -51.0072C229.28 -51.0072 226.776 -52.2003 224.948 -54.3695C222.736 -56.988 221.891 -60.4433 222.689 -63.6351C223.673 -67.5396 226.945 -70.747 231.937 -72.7147C239.818 -75.7981 251.156 -80.9577 258.729 -84.4594C252.308 -73.6134 248.698 -67.5861 242 -56.5232M245.886 18.8256C244.104 16.7184 243.352 14.0533 243.766 11.2643C244.442 6.81749 247.899 2.32414 254.136 2.32414C256.64 2.32414 259.313 3.08336 262.078 4.55533C269.605 8.53735 281.035 13.8519 288.624 17.2916C280.512 18.7326 268.346 20.9018 260.05 22.4357C254.013 23.5513 248.774 22.2033 245.902 18.8101M259.866 -4.66377C257.992 -4.01302 256.179 -3.68765 254.443 -3.68765C248.989 -3.68765 244.857 -7.04991 244.181 -12.0236C243.751 -15.0914 244.627 -18.1283 246.547 -20.3595C248.682 -22.8386 251.878 -24.1246 255.795 -24.1246C257.085 -24.1246 258.437 -23.9852 259.85 -23.7063C268.207 -22.0174 280.635 -20.2046 288.885 -19.089C285.582 -17.4311 281.572 -15.4168 277.455 -13.3561C272.002 -10.6291 266.917 -8.119 259.866 -4.66377ZM207.389 -88.1161C207.665 -88.3485 207.942 -88.5809 208.203 -88.7978C208.341 -88.9063 208.464 -89.0147 208.587 -89.1077C215.362 -94.3138 224.932 -102.526 231.231 -108.026C229.096 -100.016 225.931 -87.9611 223.826 -79.7182C221.614 -71.0414 216.314 -67.9425 212.09 -67.9425C210.277 -67.9425 208.48 -68.5003 206.928 -69.5539C204.071 -71.4442 202.335 -74.5276 202.212 -77.8279C202.104 -81.4225 203.902 -85.0017 207.327 -88.0696L207.389 -88.1316V-88.1161ZM65.6273 4.89619C67.7626 4.075 69.8211 3.65666 71.8028 3.65666C77.241 3.65666 81.3734 7.00342 82.0647 11.9926C82.4795 15.0605 81.6192 18.0973 79.6836 20.3285C77.5482 22.7921 74.3683 24.0936 70.4356 24.0936C69.1605 24.0936 67.7933 23.9542 66.4107 23.6598C58.0537 21.9864 45.6258 20.1736 37.3763 19.058C43.2447 16.0986 51.4787 11.9771 58.3763 8.4444C60.6038 7.3443 62.9696 6.18222 65.6273 4.88069M145.126 97.1647C144.727 97.8 144.327 98.4043 143.928 99.0086C138.951 105.919 132.36 116.021 128.013 122.823C127.813 114.534 127.506 102.061 127.229 93.5546C127.06 88.5189 128.397 84.2425 131.008 81.531C132.852 79.6097 135.233 78.5561 137.768 78.5561C138.72 78.5561 139.688 78.6955 140.625 78.9899C143.882 80.0125 146.417 82.4916 147.446 85.606C148.475 88.7513 147.937 92.3305 145.956 95.9252L145.126 97.1647ZM278.761 52.2623C270.589 51.3016 258.314 49.8452 249.927 48.931C244.181 48.3112 239.864 45.9096 237.806 42.191C236.316 39.4949 236.208 36.3496 237.529 33.5296C239.281 29.7955 242.814 27.4869 246.762 27.4869C249.343 27.4869 251.954 28.432 254.474 30.2604L255.856 31.4999C256.778 32.3211 257.638 33.0958 258.468 33.855C264.521 39.6964 272.985 47.2111 278.777 52.2778M320.746 -1.02261C320.761 3.64116 318.979 8.05704 315.722 11.3728C312.45 14.6886 308.118 16.5014 303.525 16.5014C301.313 16.5014 299.116 16.0676 296.935 15.2464C296.243 14.921 295.337 14.5182 294.277 14.0378C281.511 7.85561 275.689 5.06664 263.875 -0.573288C264.352 -0.790207 264.828 -1.02261 265.304 -1.25504C269.452 -3.39325 274.706 -6.04277 279.806 -8.63033C284.199 -10.8305 288.87 -13.1546 294.984 -16.238C297.795 -17.6325 300.652 -18.3452 303.525 -18.3452C312.973 -18.3452 320.7 -10.5826 320.761 -1.03813M314.033 -45.9251C315.6 -40.688 314.601 -34.8932 311.329 -30.4773C308.041 -26.0304 302.91 -23.4584 297.242 -23.4584C296.474 -23.4584 295.69 -23.5203 294.907 -23.5978C294.692 -23.6288 294.461 -23.6598 294.231 -23.6908C294.108 -23.6908 293.97 -23.7218 293.847 -23.7528C279.115 -26.1854 272.785 -27.1925 259.451 -29.2997C259.743 -29.5476 260.035 -29.811 260.327 -30.0744C261.556 -31.252 262.923 -32.5225 264.336 -33.855C269.867 -38.9527 274.245 -43.0432 280.39 -48.7915C282.725 -50.9607 284.706 -52.7891 286.058 -54.0441C287.026 -54.8343 288.025 -55.5316 289.069 -56.1048C289.883 -56.4457 290.682 -56.8021 291.45 -57.2204C293.386 -57.9487 295.414 -58.336 297.488 -58.336C305.046 -58.336 311.836 -53.2384 314.033 -45.9406M295.275 -86.7061C298.548 -81.6395 298.978 -75.3023 296.428 -69.8018C294.861 -66.424 292.357 -63.7745 289.177 -62.0082C288.378 -61.6828 287.61 -61.3109 286.842 -60.9081C285.997 -60.5827 285.106 -60.3038 284.199 -60.1024C283.247 -59.9474 281.91 -59.746 280.282 -59.4981C266.763 -57.8402 260.373 -57.0035 247.653 -55.3611C247.945 -55.795 248.221 -56.2288 248.482 -56.6936C254.182 -66.4395 263.599 -82.1663 266.748 -87.4188C270.22 -92.0206 275.213 -94.6237 280.743 -94.6237C286.627 -94.6237 292.065 -91.6488 295.26 -86.6906M265.78 -120.701C270.327 -116.765 272.509 -110.815 271.602 -104.819C270.788 -99.5354 267.685 -95.073 262.984 -92.284C261.786 -91.7107 259.927 -90.8431 257.669 -89.7895C245.978 -84.7073 240.095 -82.1198 228.619 -77.0531C232.03 -89.774 233.812 -96.6999 237.514 -111.094C239.68 -119.492 246.363 -124.915 254.551 -124.915C258.668 -124.915 262.662 -123.428 265.796 -120.716M220.861 -146.53C223.319 -146.53 225.685 -146.003 227.943 -144.98C233.412 -142.486 237.161 -137.403 237.959 -131.392C238.789 -125.256 236.331 -119.306 231.262 -115.076C219.863 -105.563 214.947 -101.41 204.793 -92.8263C204.685 -92.7334 204.578 -92.6404 204.47 -92.5474C204.47 -92.7334 204.47 -92.9038 204.47 -93.0742C204.47 -93.4926 204.47 -93.9264 204.455 -94.3603C204.455 -94.5927 204.455 -94.8251 204.424 -95.0575C204.163 -106.709 203.948 -113.868 203.518 -127.735C203.303 -134.444 206.083 -138.798 208.418 -141.231C211.675 -144.608 216.191 -146.53 220.861 -146.53ZM168.262 -150.527C171.518 -155.051 176.741 -157.763 182.256 -157.763C183.055 -157.763 183.854 -157.701 184.653 -157.592C190.598 -156.771 195.621 -152.96 198.064 -147.397C200.292 -142.393 200 -136.784 197.342 -131.748C196.743 -130.803 195.959 -129.548 195.007 -128.06C187.818 -117.276 184.238 -111.869 177.725 -101.968C177.725 -101.952 177.725 -101.921 177.694 -101.906C177.371 -101.472 177.095 -101.038 176.803 -100.604C172.855 -113.155 170.627 -119.957 166.019 -134.041C164.083 -139.975 164.867 -145.832 168.246 -150.512M126.461 -147.025C128.858 -152.603 133.835 -156.461 139.765 -157.36C140.61 -157.484 141.47 -157.546 142.33 -157.546C147.799 -157.546 153.038 -154.865 156.279 -150.388C159.659 -145.755 160.473 -139.929 158.614 -134.026C154.098 -119.647 152.193 -113.48 148.183 -100.45C141.716 -110.118 137.798 -115.835 131.208 -125.504C129.595 -127.936 128.274 -129.904 127.444 -131.159C124.618 -136.226 124.234 -141.928 126.446 -147.025M86.7809 -130.632C87.5183 -136.66 91.2052 -141.788 96.6587 -144.329C98.963 -145.398 101.39 -145.941 103.91 -145.941C108.534 -145.941 113.065 -144.035 116.276 -140.704C118.642 -138.287 121.407 -133.995 121.269 -127.317C120.946 -112.241 120.854 -105.78 120.654 -92.1291C110.577 -100.527 105.077 -105.02 93.617 -114.379C88.5168 -118.562 86.0128 -124.497 86.7655 -130.632M59.0369 -119.647C62.1861 -122.436 66.2264 -123.97 70.4202 -123.97C78.5161 -123.97 85.1832 -118.609 87.4107 -110.319C91.3281 -95.7548 93.0333 -89.526 96.6587 -76.3869C84.6455 -81.5775 78.0859 -84.3355 64.5058 -90.0529C58.4378 -92.6249 54.3668 -97.5831 53.3836 -103.688C52.4005 -109.684 54.5204 -115.649 59.0369 -119.647ZM29.7874 -85.1721C32.9828 -90.2388 38.4363 -93.2757 44.4122 -93.2757C50.388 -93.2757 56.1488 -89.9909 59.6053 -84.289C67.44 -71.4442 70.835 -65.9437 77.9784 -54.3695C64.982 -55.9499 57.9462 -56.7246 43.3061 -58.336C36.7618 -59.0643 31.4926 -62.6744 28.8196 -68.2524C26.2081 -73.7374 26.5614 -80.0435 29.7874 -85.1721ZM11.3683 -43.8179C13.4882 -51.2551 20.309 -56.4457 27.9747 -56.4457C32.399 -56.4457 36.6543 -54.7259 40.2337 -51.4566C51.3405 -41.3543 56.1027 -37.0624 66.2264 -27.9827C53.3068 -25.7825 46.3324 -24.5275 31.846 -21.9244C30.6016 -21.7075 29.3727 -21.599 28.1898 -21.599C22.5826 -21.599 17.467 -24.1246 14.1949 -28.5095C10.8767 -32.9409 9.86278 -38.5188 11.3529 -43.8179M5.26951 1.02263C5.25414 -3.64116 7.03615 -8.05704 10.2929 -11.3728C13.565 -14.6886 17.8972 -16.5014 22.4904 -16.5014C25.2863 -16.5014 28.0822 -15.8197 30.8321 -14.4872C44.2585 -7.96407 50.0808 -5.1906 62.2322 0.619766C61.8021 0.805695 61.3719 1.02263 60.9264 1.23955C59.421 2.01427 57.7772 2.85095 56.0567 3.73413C47.8686 7.76265 41.6931 10.877 31.0318 16.2225C28.2205 17.6325 25.3632 18.3452 22.4904 18.3452C13.0427 18.3452 5.31559 10.5826 5.25414 1.03812M11.9827 45.9251C10.4158 40.6725 11.4297 34.8931 14.6865 30.4773C17.974 26.0149 23.1049 23.4584 28.7735 23.4584C29.8796 23.4584 31.0318 23.5513 32.1686 23.7373C46.9316 26.1854 53.2607 27.1925 66.6258 29.2997C56.9477 38.1935 51.7553 43.0431 40.9711 53.1609C39.696 54.3385 38.3595 55.3146 36.9462 56.1048C36.132 56.4302 35.3332 56.8021 34.5651 57.2049C32.6294 57.9487 30.5863 58.336 28.5277 58.336C20.9696 58.336 14.1795 53.2384 11.9827 45.9406M30.7553 86.7061C27.4831 81.624 27.053 75.3023 29.6031 69.8018C31.17 66.4241 33.6741 63.7745 36.854 61.9927C37.6375 61.6828 38.4209 61.3109 39.1891 60.8926C40.6792 60.3193 42.2922 59.9164 43.9667 59.715C58.8218 57.8867 65.1664 57.0655 78.5929 55.3301C71.7721 66.5945 68.1313 72.7302 60.5731 85.4665C57.1166 91.2924 51.5556 94.6237 45.2724 94.6237C39.3888 94.6237 33.9506 91.6643 30.7553 86.7061ZM60.2505 120.685C55.7033 116.734 53.5219 110.8 54.4283 104.788C55.3654 98.6832 59.3595 93.6475 65.4275 91.0445C79.1613 85.0947 85.0296 82.4916 97.4268 77.0222C94.0164 89.7585 92.2344 96.6689 88.5322 111.063C86.3661 119.477 79.6836 124.9 71.4956 124.9C67.3785 124.9 63.3844 123.397 60.2505 120.701M105.154 146.53C102.696 146.53 100.33 146.003 98.072 144.98C92.6031 142.486 88.8548 137.403 88.0559 131.376C87.2264 125.24 89.6843 119.306 94.7538 115.061C106.275 105.454 111.191 101.302 121.545 92.532C121.837 105.733 122.052 112.876 122.513 127.719C122.728 134.444 119.948 138.782 117.613 141.23C114.356 144.608 109.839 146.53 105.169 146.53M157.769 150.527C154.512 155.051 149.289 157.763 143.774 157.763C142.975 157.763 142.177 157.701 141.378 157.592C135.433 156.756 130.409 152.96 127.967 147.397C125.463 141.742 126.139 135.358 129.826 129.842C137.829 117.865 141.409 112.427 148.275 102.014C148.414 101.813 148.567 101.596 148.721 101.395C148.89 101.147 149.059 100.899 149.228 100.651C153.191 113.17 155.403 119.972 160.012 134.057C161.948 139.975 161.164 145.817 157.785 150.527M199.57 147.025C197.173 152.588 192.196 156.461 186.266 157.36C185.421 157.484 184.561 157.546 183.7 157.546C178.232 157.546 172.993 154.866 169.752 150.388C166.387 145.755 165.558 139.929 167.417 134.026C171.933 119.647 173.838 113.48 177.847 100.434C185.175 111.388 189.2 117.261 197.542 129.486C201.275 134.94 202.012 141.354 199.57 147.025ZM239.25 130.632C238.512 136.66 234.826 141.788 229.372 144.314C227.068 145.398 224.64 145.941 222.121 145.941C217.497 145.941 212.965 144.019 209.755 140.704C207.389 138.271 204.624 133.995 204.762 127.317C205.085 112.241 205.177 105.78 205.376 92.1291C215.469 100.527 220.969 105.02 232.414 114.379C237.514 118.547 240.018 124.481 239.265 130.632M266.978 119.616C263.829 122.405 259.789 123.939 255.595 123.939C247.499 123.939 240.832 118.578 238.605 110.273C234.687 95.7238 232.982 89.5105 229.357 76.3559C241.37 81.5465 247.929 84.3045 261.51 90.0219C267.578 92.5784 271.649 97.5521 272.632 103.657C273.615 109.653 271.495 115.603 266.978 119.6M296.243 85.1721C293.048 90.2388 287.594 93.2602 281.619 93.2602C275.643 93.2602 269.882 89.9909 266.425 84.289C258.591 71.4287 255.196 65.9282 248.052 54.3695C261.018 55.9344 268.054 56.7246 282.663 58.3205H282.725C289.269 59.0643 294.538 62.6589 297.211 68.2524C299.823 73.7219 299.469 80.0435 296.243 85.1721ZM314.647 43.8024C312.527 51.2396 305.706 56.4302 298.041 56.4302C294.215 56.4302 290.544 55.1442 287.287 52.6806C286.581 52.0763 285.628 51.2551 284.507 50.279C275.09 41.7106 270.281 37.3723 261.986 29.935C261.525 29.4702 261.049 29.0208 260.619 28.587C260.373 28.3546 260.142 28.1376 259.912 27.9207C272.709 25.7515 279.683 24.481 294.108 21.9089H294.154C295.398 21.6765 296.627 21.5681 297.81 21.5681C303.417 21.5681 308.533 24.0936 311.805 28.4785C315.123 32.8944 316.137 38.4878 314.647 43.7869" fill="#82C83C"/>
</svg>
