<svg width="142" height="142" viewBox="0 0 142 142" fill="none" xmlns="http://www.w3.org/2000/svg">
<g opacity="0.1">
<path d="M179.559 142.001C179.559 121.256 162.746 104.443 142.001 104.442C121.255 104.442 104.442 121.255 104.442 142.001C104.442 162.746 121.255 179.558 142.001 179.558V184.6L140.9 184.586C118.244 184.011 99.9883 165.756 99.4144 143.1L99.3999 142.001C99.3999 118.471 118.471 99.4 142.001 99.4L143.1 99.4145C166.122 99.9975 184.6 118.838 184.6 142.001L184.587 143.1C184.004 166.121 165.163 184.6 142.001 184.6V179.558C162.746 179.557 179.559 162.746 179.559 142.001Z" fill="#82C83C"/>
<path d="M271.005 159.844C273.722 158.859 276.198 157.28 278.285 155.161C282.006 151.395 284.026 146.387 284 141.082C283.946 132.416 278.339 125.06 270.617 122.455C272.236 121.28 273.681 119.85 274.899 118.203C278.593 113.182 279.731 106.635 277.964 100.669C275.582 92.7454 268.422 87.1167 260.325 86.6308C261.115 85.5509 261.811 84.3901 262.386 83.1618C265.29 76.9122 264.795 69.7312 261.075 63.9675C257.448 58.3388 251.265 54.9643 244.587 54.9643C243.021 54.9643 241.509 55.1532 240.05 55.5042C240.545 54.1949 240.92 52.8316 241.134 51.4143C242.165 44.5977 239.702 37.8622 234.523 33.3808C230.976 30.3032 226.44 28.616 221.756 28.616C218.209 28.616 214.85 29.5608 211.946 31.2751C212.066 29.8578 212.04 28.4135 211.852 26.9692C210.942 20.1257 206.686 14.362 200.477 11.5274C197.921 10.353 195.217 9.77262 192.42 9.77262C187.121 9.77262 181.982 11.9728 178.288 15.7928C178.221 15.8738 178.141 15.9548 178.074 16.0357C177.793 14.5779 177.351 13.1336 176.735 11.7433C173.938 5.45323 168.237 1.13384 161.492 0.188973C160.596 0.0539916 159.672 0 158.776 0C152.512 0 146.57 3.07756 142.877 8.20684C142.288 9.03023 141.779 9.89411 141.324 10.7715C140.883 9.9211 140.387 9.09772 139.812 8.31483C136.132 3.22604 130.19 0.175475 123.966 0.175475C123.003 0.175475 122.013 0.256464 121.049 0.391445C114.317 1.4173 108.67 5.79068 105.94 12.1078C105.337 13.4981 104.909 14.9289 104.642 16.3462C104.615 16.3057 104.575 16.2652 104.534 16.2247C100.868 12.4452 95.7419 10.2721 90.4824 10.2721C87.6184 10.2721 84.8481 10.893 82.2385 12.1213C76.0555 15.0099 71.8667 20.8276 71.0236 27.6711C70.8496 29.1154 70.8362 30.5462 70.97 31.95C68.1061 30.3302 64.8406 29.4394 61.3075 29.4394C56.5566 29.4394 51.9529 31.1806 48.3796 34.3392C43.2539 38.861 40.845 45.6371 41.9558 52.4401C42.1967 53.9249 42.5982 55.3422 43.1469 56.6785C41.6881 56.3411 40.1892 56.1521 38.6636 56.1521C31.8784 56.1521 25.6821 59.5941 22.0554 65.3578C18.4018 71.162 18.0003 78.343 20.958 84.5521C21.6003 85.9019 22.3765 87.1437 23.2732 88.2641C15.0025 88.723 7.77575 94.4732 5.48727 102.572C3.77425 108.606 4.93857 114.936 8.69918 119.958C9.93041 121.591 11.3891 123.008 12.9951 124.156C10.2784 125.127 7.80252 126.72 5.71478 128.839C1.99432 132.605 -0.0265034 137.613 0.000262508 142.918C0.0537943 151.57 5.66125 158.94 13.3832 161.545C11.7639 162.72 10.3185 164.15 9.10067 165.797C5.40697 170.805 4.26942 177.365 6.03597 183.318C8.41813 191.241 15.578 196.883 23.6747 197.369C22.8851 198.436 22.1892 199.596 21.6137 200.838C18.7096 207.088 19.2048 214.255 22.9252 220.019C26.552 225.661 32.7349 229.036 39.413 229.036C40.9788 229.036 42.4911 228.847 43.9499 228.496C43.4547 229.805 43.08 231.168 42.8658 232.572C41.8354 239.389 44.2978 246.138 49.477 250.619C53.0235 253.697 57.5603 255.384 62.2443 255.384C65.7908 255.384 69.1499 254.439 72.054 252.725C71.9336 254.142 71.9604 255.586 72.1477 257.031C73.0578 263.861 77.3135 269.638 83.5232 272.473C86.0794 273.633 88.7827 274.227 91.5798 274.227C96.8794 274.227 102.018 272.027 105.712 268.207C105.779 268.126 105.859 268.045 105.926 267.964C106.207 269.422 106.649 270.866 107.265 272.257C110.062 278.547 115.763 282.866 122.508 283.811C123.404 283.932 124.328 284 125.224 284C131.488 284 137.43 280.922 141.123 275.78C141.712 274.97 142.221 274.106 142.676 273.215C143.117 274.065 143.613 274.902 144.188 275.685C147.868 280.774 153.81 283.811 160.034 283.811C160.997 283.811 161.987 283.744 162.951 283.595C169.683 282.583 175.344 278.209 178.06 271.879C178.663 270.488 179.091 269.071 179.359 267.64C179.385 267.681 179.425 267.735 179.466 267.762C183.132 271.541 188.258 273.714 193.518 273.714C196.382 273.714 199.152 273.094 201.762 271.879C207.944 268.977 212.133 263.172 212.976 256.329C213.15 254.871 213.164 253.44 213.03 252.05C215.894 253.67 219.159 254.561 222.692 254.561C227.443 254.561 232.047 252.819 235.62 249.661C240.746 245.125 243.155 238.363 242.044 231.56C241.803 230.075 241.402 228.644 240.853 227.308C242.312 227.659 243.811 227.848 245.336 227.848C252.122 227.848 258.318 224.406 261.945 218.642C265.612 212.838 266 205.657 263.042 199.448C262.4 198.098 261.623 196.856 260.727 195.736C268.997 195.263 276.224 189.513 278.513 181.414C280.226 175.394 279.061 169.064 275.301 164.042C274.07 162.396 272.611 160.992 271.005 159.844ZM157.544 57.3939C157.919 56.8405 158.267 56.3006 158.615 55.7741C162.978 49.727 168.88 40.5753 172.774 34.4606C172.961 41.4797 173.256 51.9272 173.524 59.2971C173.537 59.8236 173.55 60.3635 173.564 60.9169C173.524 64.8989 172.386 68.2599 170.285 70.4601C168.679 72.1473 166.591 73.0652 164.37 73.0652C163.553 73.0652 162.723 72.9437 161.921 72.6873C159.07 71.8099 156.848 69.6637 155.952 66.9506C155.002 64.0755 155.55 60.7819 157.491 57.4749L157.544 57.3939ZM241.174 96.1065C237.079 99.8994 231.739 104.853 227.229 109.092C225.717 110.482 224.111 111.953 222.345 113.573C219.668 115.719 216.871 116.853 214.168 116.853C210.755 116.853 207.891 115.004 206.539 111.94C205.321 109.2 205.469 106.095 206.914 103.625C208.681 100.601 212.2 98.7386 216.844 98.3336C224.232 97.6992 235.058 96.174 242.232 95.1211C241.87 95.4451 241.522 95.7825 241.174 96.1065ZM135.636 216.55C137.189 214.377 139.598 213.148 142.261 213.148H142.368C145.339 213.175 148.069 214.606 149.689 216.955C151.683 219.83 151.897 223.839 150.318 228.253C147.815 235.285 144.67 245.854 142.622 252.873C140.414 246.003 137.095 235.663 134.767 228.631C133.174 223.852 133.482 219.547 135.636 216.55ZM159.471 227.861C156.594 223.69 155.711 219.466 156.942 215.97C157.852 213.432 159.86 211.569 162.429 210.84C163.272 210.597 164.142 210.476 164.999 210.476C167.474 210.476 169.75 211.461 171.409 213.243C173.55 215.524 174.541 218.926 174.286 223.097C173.845 230.575 173.764 241.602 173.764 248.918C169.736 242.939 163.66 233.963 159.471 227.875M212.548 192.55C216.175 199.07 222.05 208.397 225.971 214.539C219.373 211.718 209.443 207.493 202.645 204.658C198.001 202.714 194.963 199.664 194.133 196.033C193.531 193.414 194.214 190.755 195.993 188.717C197.76 186.719 200.209 185.572 202.738 185.572C206.553 185.572 210.032 188.056 212.548 192.537M195.257 210.03C196.917 217.319 199.915 227.929 201.949 234.948C196.422 230.359 188.098 223.475 182.37 218.804C178.462 215.605 176.414 211.812 176.642 208.1C176.802 205.414 178.208 203.065 180.483 201.621C181.982 200.676 183.668 200.177 185.367 200.177C190.159 200.177 193.866 203.848 195.257 210.03ZM203.167 180.996C203.033 180.996 202.886 180.996 202.752 180.996C198.924 180.996 195.204 182.71 192.594 185.68C189.998 188.636 188.927 192.442 189.543 196.262C188.138 195.79 186.719 195.574 185.381 195.574C182.811 195.574 180.295 196.316 178.06 197.72C174.527 199.961 172.332 203.632 172.078 207.83V207.871C169.99 206.561 167.582 205.859 165.012 205.859C163.741 205.859 162.456 206.035 161.225 206.386C157.464 207.452 154.48 210.071 152.967 213.634C150.451 210.462 146.584 208.573 142.435 208.519H142.274C138.259 208.519 134.593 210.354 132.157 213.553C130.538 210.179 127.553 207.574 123.859 206.413C122.601 206.021 121.317 205.819 120.032 205.819C117.462 205.819 115 206.615 112.885 208.087C112.484 204.091 110.276 200.406 106.85 198.085C104.722 196.64 102.286 195.884 99.7701 195.884C98.2445 195.884 96.7723 196.168 95.3939 196.681C95.9426 192.861 94.805 188.879 92.2221 185.815C89.7998 182.94 86.3069 181.306 82.6132 181.279C84.1522 177.837 84.1656 173.788 82.6132 170.184C80.8466 166.108 77.2734 163.34 72.9775 162.625C75.4533 159.682 76.5641 155.755 76.0288 151.827C75.4935 147.899 73.312 144.659 70.167 142.688C73.5797 140.664 76.002 137.168 76.6444 132.848C77.2065 129.096 76.176 125.438 73.7269 122.576C73.5529 122.36 73.3656 122.158 73.1782 121.969C76.7648 120.862 79.7894 118.27 81.489 114.626C83.2422 110.9 83.1351 106.716 81.2347 103.112C81.3953 103.125 81.5693 103.139 81.7299 103.139C85.611 103.139 89.3582 101.384 91.9812 98.3471C94.5508 95.3776 95.5813 91.5576 94.9389 87.7646C96.1835 88.1156 97.4147 88.2911 98.579 88.2911C101.149 88.2911 103.665 87.5487 105.886 86.1449C109.352 83.9582 111.52 80.3947 111.855 76.3182C113.996 77.6951 116.472 78.4375 119.122 78.4375C120.366 78.4375 121.611 78.2755 122.802 77.938C126.804 76.8447 129.935 73.9831 131.394 70.0821C133.897 73.0247 137.617 74.7795 141.592 74.8335H141.766C145.888 74.8335 149.648 72.9032 152.071 69.5557C153.65 73.1327 156.741 75.8998 160.596 77.0876C161.84 77.4791 163.112 77.6681 164.37 77.6681C167.019 77.6681 169.522 76.8447 171.677 75.3059C172.092 79.2878 174.326 82.9728 177.753 85.2675C179.867 86.6848 182.289 87.4272 184.779 87.4272C186.371 87.4272 187.91 87.1302 189.356 86.5633C188.727 90.4508 189.864 94.5272 192.474 97.6317C194.909 100.52 198.429 102.167 202.15 102.167C202.27 102.167 202.391 102.154 202.511 102.154C200.758 105.731 200.691 110.023 202.364 113.789C204.063 117.649 207.396 120.309 211.411 121.159C211.397 121.159 211.37 121.199 211.344 121.226C208.788 124.183 207.663 128.151 208.199 132.146C208.747 136.128 210.982 139.408 214.208 141.379C210.862 143.404 208.48 146.859 207.851 151.111C207.275 154.877 208.306 158.549 210.755 161.397C210.889 161.559 211.036 161.721 211.183 161.869C207.556 162.949 204.505 165.568 202.779 169.239C200.999 173.032 201.133 177.325 203.167 180.983M99.7567 200.501C101.363 200.501 102.928 201 104.294 201.918C106.756 203.592 108.268 206.291 108.362 209.153C108.456 212.649 106.462 216.145 102.755 218.98C96.8526 223.488 88.4749 230.602 82.9745 235.366C84.8615 228.388 87.6586 217.913 89.5188 210.732C91.4861 203.214 96.0898 200.528 99.7433 200.528M90.6831 196.897C89.8266 200.285 86.976 203.079 82.6266 204.793C75.721 207.506 65.7507 212.042 59.1395 215.106C62.8466 208.91 68.4005 199.596 72.1343 193.212C74.8511 188.568 78.6384 185.896 82.5195 185.896C84.9284 185.896 87.1232 186.935 88.7024 188.825C90.6296 191.106 91.3656 194.116 90.6697 196.91M77.9559 180.321C76.1626 183.318 72.6295 185.167 67.9722 185.518C60.5849 186.098 49.7313 187.516 42.5446 188.528C47.8711 183.682 55.8607 176.393 61.2674 171.372C64.3321 168.537 67.5975 167.052 70.7291 167.052C74.1953 167.052 77.0593 168.915 78.4109 172.033C79.5886 174.773 79.428 177.878 77.9559 180.335M63.0875 139.962C60.906 139.962 58.6042 139.314 56.1952 138.045C49.6242 134.576 39.6673 129.987 33.0428 126.99C40.109 125.735 50.7082 123.818 57.9216 122.468C63.1811 121.469 67.7447 122.644 70.2607 125.6C71.8131 127.422 72.4823 129.757 72.121 132.187C71.5321 136.061 68.5343 139.975 63.0741 139.975M77.3537 112.669C75.828 115.908 72.75 117.933 69.2972 117.933C66.3128 117.933 63.2347 116.462 60.4109 113.667C55.0978 108.444 46.8807 101.155 41.4071 96.3629C48.5268 97.2133 59.2198 98.4686 66.5269 99.265C71.5321 99.8049 75.2927 101.897 77.086 105.137C78.3976 107.485 78.4912 110.225 77.3403 112.682M71.947 91.6521C68.2533 85.173 62.2979 75.8998 58.3097 69.7852C64.9343 72.5523 74.9046 76.6827 81.7299 79.4498C86.4006 81.353 89.4519 84.3766 90.3218 87.9941C90.9508 90.6127 90.295 93.2854 88.5284 95.3371C86.7619 97.3753 84.2994 98.5361 81.7299 98.5361C77.9559 98.5361 74.4763 96.093 71.947 91.6656M88.689 73.8076C87.0429 66.5186 84.0719 55.8956 82.0377 48.8766C87.5649 53.4795 95.8891 60.3905 101.59 65.0608C105.511 68.2599 107.546 72.0663 107.305 75.7648C107.144 78.4509 105.739 80.8131 103.464 82.2439C101.965 83.1753 100.279 83.6747 98.579 83.6747C93.7879 83.6747 90.0809 80.0032 88.689 73.8076ZM109.861 61.1599C110.356 53.6819 110.53 42.654 110.584 35.338C114.558 41.3447 120.567 50.3749 124.716 56.4895C127.553 60.6875 128.41 64.9258 127.152 68.4084C126.228 70.9325 124.207 72.7817 121.611 73.4971C120.795 73.7266 119.952 73.8346 119.122 73.8346C116.633 73.8346 114.344 72.8492 112.685 71.0405C110.543 68.7458 109.566 65.3308 109.861 61.1464M149.274 54.7483C150.853 59.5266 150.545 63.8325 148.39 66.8291C146.838 68.9888 144.429 70.2306 141.766 70.2306H141.645C138.674 70.1901 135.944 68.7458 134.325 66.4106C132.358 63.522 132.13 59.5131 133.723 55.0992C136.239 48.0667 139.41 37.5112 141.458 30.4922C143.653 37.3762 146.958 47.7158 149.274 54.7483ZM210.822 92.7724C208.333 95.85 205.281 97.5643 202.15 97.5643C199.741 97.5643 197.559 96.5249 195.967 94.6352C194.04 92.354 193.304 89.3439 193.999 86.5633C194.856 83.1618 197.707 80.3677 202.056 78.6534C208.921 75.9673 218.798 71.4724 225.396 68.4219C219.802 77.8705 216.657 83.1213 210.822 92.7589M214.208 158.4C212.655 156.564 211.999 154.243 212.361 151.813C212.95 147.939 215.961 144.025 221.394 144.025C223.576 144.025 225.904 144.686 228.313 145.968C234.871 149.437 244.828 154.067 251.439 157.064C244.373 158.319 233.774 160.209 226.547 161.545C221.287 162.517 216.724 161.343 214.221 158.387M226.386 137.937C224.753 138.504 223.174 138.787 221.662 138.787C216.911 138.787 213.311 135.858 212.722 131.525C212.347 128.853 213.11 126.207 214.783 124.263C216.643 122.104 219.427 120.983 222.84 120.983C223.964 120.983 225.142 121.105 226.373 121.348C233.653 122.819 244.48 124.398 251.667 125.37C248.789 126.815 245.296 128.569 241.71 130.365C236.959 132.74 232.529 134.927 226.386 137.937ZM180.67 65.2363C180.911 65.0338 181.152 64.8314 181.379 64.6424C181.5 64.5479 181.607 64.4534 181.714 64.3724C187.616 59.8371 195.953 52.6831 201.44 47.8913C199.58 54.8698 196.823 65.3713 194.99 72.5523C193.063 80.1112 188.446 82.8108 184.765 82.8108C183.186 82.8108 181.62 82.3249 180.269 81.407C177.779 79.7603 176.267 77.0741 176.16 74.1991C176.066 71.0675 177.632 67.9494 180.616 65.2768L180.67 65.2228V65.2363ZM57.1722 146.265C59.0324 145.55 60.8258 145.186 62.5522 145.186C67.2897 145.186 70.8897 148.101 71.492 152.448C71.8533 155.12 71.1038 157.766 69.4176 159.709C67.5574 161.856 64.7871 162.99 61.3611 162.99C60.2503 162.99 59.0592 162.868 57.8547 162.612C50.5744 161.154 39.7476 159.575 32.561 158.603C37.6733 156.025 44.8465 152.434 50.8554 149.356C52.796 148.398 54.857 147.386 57.1722 146.252M126.429 226.647C126.081 227.2 125.733 227.726 125.385 228.253C121.049 234.273 115.308 243.074 111.52 248.999C111.346 241.778 111.079 230.912 110.838 223.502C110.691 219.115 111.855 215.389 114.13 213.027C115.736 211.353 117.81 210.435 120.019 210.435C120.848 210.435 121.691 210.557 122.508 210.813C125.345 211.704 127.553 213.864 128.45 216.577C129.346 219.317 128.878 222.435 127.152 225.567L126.429 226.647ZM242.847 187.529C235.727 186.692 225.034 185.423 217.727 184.627C212.722 184.087 208.962 181.995 207.168 178.755C205.87 176.407 205.776 173.667 206.927 171.21C208.453 167.957 211.531 165.946 214.971 165.946C217.219 165.946 219.494 166.769 221.689 168.362L222.893 169.442C223.696 170.157 224.446 170.832 225.168 171.493C230.441 176.582 237.815 183.129 242.861 187.543M279.423 141.109C279.436 145.172 277.884 149.019 275.047 151.908C272.196 154.796 268.422 156.375 264.421 156.375C262.493 156.375 260.58 155.998 258.679 155.282C258.077 154.999 257.287 154.648 256.364 154.229C245.243 148.844 240.171 146.414 229.879 141.501C230.294 141.312 230.709 141.109 231.124 140.907C234.737 139.044 239.314 136.736 243.757 134.482C247.585 132.565 251.653 130.54 256.98 127.854C259.429 126.639 261.918 126.018 264.421 126.018C272.651 126.018 279.383 132.781 279.436 141.096M273.574 101.992C274.939 106.554 274.07 111.602 271.219 115.449C268.355 119.323 263.885 121.564 258.947 121.564C258.278 121.564 257.595 121.51 256.913 121.442C256.725 121.415 256.525 121.388 256.324 121.361C256.217 121.361 256.096 121.334 255.989 121.307C243.155 119.188 237.641 118.311 226.025 116.475C226.279 116.259 226.533 116.03 226.788 115.8C227.858 114.774 229.049 113.667 230.281 112.507C235.098 108.066 238.913 104.502 244.266 99.4945C246.3 97.6047 248.026 96.012 249.204 94.9186C250.047 94.2302 250.917 93.6228 251.827 93.1234C252.536 92.8264 253.232 92.516 253.902 92.1515C255.588 91.5171 257.354 91.1796 259.161 91.1796C265.745 91.1796 271.661 95.6205 273.574 101.978M257.234 66.4646C260.084 70.8785 260.459 76.3992 258.238 81.1911C256.872 84.1337 254.691 86.4418 251.921 87.9806C251.225 88.2641 250.556 88.588 249.887 88.939C249.151 89.2224 248.374 89.4654 247.585 89.6409C246.755 89.7758 245.591 89.9513 244.172 90.1673C232.395 91.6116 226.828 92.3405 215.747 93.7713C216.001 93.3933 216.242 93.0154 216.469 92.6105C221.434 84.1202 229.638 70.4196 232.382 65.8437C235.406 61.8348 239.756 59.5671 244.574 59.5671C249.699 59.5671 254.437 62.1587 257.22 66.4781M231.539 36.8498C235.5 40.2783 237.4 45.4616 236.611 50.6854C235.901 55.2882 233.198 59.1757 229.103 61.6053C228.059 62.1047 226.44 62.8606 224.472 63.7785C214.288 68.2059 209.162 70.4601 199.165 74.874C202.136 63.792 203.689 57.7584 206.914 45.2186C208.801 37.9027 214.623 33.1783 221.756 33.1783C225.342 33.1783 228.822 34.4741 231.552 36.8363M192.407 14.3485C194.548 14.3485 196.609 14.8074 198.576 15.6983C203.341 17.8715 206.606 22.2989 207.302 27.5361C208.025 32.8814 205.883 38.0646 201.467 41.7496C191.537 50.0374 187.254 53.6549 178.408 61.1329C178.315 61.2139 178.221 61.2949 178.127 61.3759C178.127 61.2139 178.127 61.0654 178.127 60.9169C178.127 60.5525 178.127 60.1745 178.114 59.7966C178.114 59.5941 178.114 59.3916 178.087 59.1892C177.86 49.0386 177.672 42.8025 177.298 30.7217C177.11 24.877 179.532 21.084 181.567 18.9648C184.404 16.0222 188.338 14.3485 192.407 14.3485ZM146.584 10.866C149.421 6.92452 153.971 4.56236 158.776 4.56236C159.471 4.56236 160.167 4.61635 160.863 4.71084C166.042 5.42624 170.419 8.74677 172.547 13.5926C174.487 17.9525 174.233 22.8388 171.918 27.2257C171.396 28.049 170.713 29.1424 169.883 30.4382C163.62 39.8329 160.502 44.5437 154.828 53.169C154.828 53.1825 154.828 53.2095 154.801 53.223C154.52 53.6009 154.279 53.9789 154.025 54.3568C150.585 43.4234 148.645 37.4977 144.63 25.2279C142.944 20.0582 143.626 14.9559 146.57 10.8795M110.169 13.9165C112.256 9.05723 116.592 5.6962 121.758 4.91331C122.494 4.80532 123.244 4.75133 123.993 4.75133C128.758 4.75133 133.321 7.0865 136.145 10.9875C139.089 15.0234 139.799 20.0987 138.179 25.2414C134.245 37.7677 132.585 43.1399 129.092 54.4918C123.458 46.069 120.045 41.0882 114.304 32.6654C112.899 30.5462 111.748 28.8319 111.025 27.7386C108.563 23.3247 108.228 18.3574 110.155 13.9165M75.6005 28.1975C76.2429 22.9468 79.4548 18.4789 84.2057 16.2652C86.2132 15.3338 88.3277 14.8614 90.5225 14.8614C94.5508 14.8614 98.4987 16.5217 101.296 19.4238C103.357 21.5295 105.766 25.2684 105.645 31.0861C105.364 44.2198 105.284 49.8485 105.11 61.7403C96.3307 54.4243 91.5396 50.5099 81.5559 42.357C77.1128 38.7125 74.9314 33.5428 75.5871 28.1975M51.4309 37.7677C54.1744 35.338 57.6941 34.0017 61.3477 34.0017C68.4005 34.0017 74.2087 38.6721 76.1492 45.8935C79.5619 58.5817 81.0474 64.008 84.2057 75.4544C73.7403 70.9325 68.0258 68.5298 56.1952 63.549C50.909 61.3084 47.3625 56.989 46.506 51.6707C45.6495 46.447 47.4963 41.2502 51.4309 37.7677ZM25.9498 67.8009C28.7334 63.3871 33.4844 60.7414 38.6904 60.7414C43.8963 60.7414 48.9149 63.603 51.9261 68.5703C58.7514 79.7603 61.709 84.5521 67.9321 94.6352C56.6101 93.2584 50.4807 92.5835 37.7268 91.1796C32.0257 90.5452 27.4353 87.4002 25.1067 82.5409C22.8316 77.7625 23.1394 72.2688 25.9498 67.8009ZM9.90364 103.827C11.7505 97.3483 17.6925 92.8264 24.3706 92.8264C28.2249 92.8264 31.932 94.3247 35.0502 97.1728C44.7261 105.974 48.8748 109.713 57.6941 117.622C46.4391 119.539 40.3632 120.632 27.7431 122.9C26.6591 123.089 25.5885 123.184 24.558 123.184C19.6732 123.184 15.2167 120.983 12.3661 117.163C9.47539 113.303 8.59211 108.444 9.89026 103.827M4.59061 142.891C4.57723 138.828 6.12965 134.981 8.96684 132.092C11.8174 129.204 15.5914 127.625 19.5929 127.625C22.0286 127.625 24.4643 128.218 26.8598 129.379C38.5565 135.062 43.6287 137.478 54.2146 142.54C53.8399 142.702 53.4651 142.891 53.077 143.08C51.7655 143.755 50.3335 144.484 48.8346 145.253C41.7015 148.763 36.3216 151.476 27.0338 156.133C24.5847 157.361 22.0955 157.982 19.5929 157.982C11.3624 157.982 4.63076 151.219 4.57723 142.904M10.439 182.008C9.0739 177.432 9.95717 172.398 12.7944 168.551C15.6583 164.663 20.1282 162.436 25.0665 162.436C26.0301 162.436 27.0338 162.517 28.0241 162.679C40.8852 164.812 46.3989 165.689 58.0421 167.525C49.6108 175.273 45.0874 179.498 35.6926 188.312C34.5818 189.338 33.4175 190.188 32.1862 190.877C31.4769 191.16 30.781 191.484 30.1119 191.835C28.4256 192.483 26.6457 192.82 24.8524 192.82C18.268 192.82 12.3527 188.379 10.439 182.022M26.7929 217.535C23.9423 213.108 23.5676 207.601 25.7892 202.809C27.1543 199.866 29.3357 197.558 32.1059 196.006C32.7885 195.736 33.471 195.412 34.1402 195.048C35.4383 194.548 36.8435 194.197 38.3022 194.022C51.2436 192.429 56.7707 191.714 68.4674 190.202C62.5254 200.015 59.3536 205.36 52.7692 216.456C49.758 221.531 44.9134 224.433 39.4398 224.433C34.3141 224.433 29.5766 221.855 26.7929 217.535ZM52.4882 247.137C48.5268 243.695 46.6264 238.525 47.416 233.288C48.2324 227.969 51.712 223.582 56.9982 221.315C68.9626 216.132 74.0749 213.864 84.8749 209.099C81.9039 220.194 80.3515 226.215 77.1262 238.754C75.2392 246.084 69.4176 250.808 62.2845 250.808C58.6979 250.808 55.2183 249.499 52.4882 247.15M91.6065 269.652C89.4652 269.652 87.4043 269.193 85.437 268.302C80.6727 266.129 77.4072 261.701 76.7113 256.45C75.9886 251.105 78.1299 245.935 82.5463 242.237C92.5835 233.868 96.866 230.251 105.886 222.611C106.14 234.111 106.328 240.334 106.729 253.265C106.917 259.123 104.494 262.902 102.46 265.035C99.6229 267.978 95.6883 269.652 91.6199 269.652M137.443 273.134C134.606 277.075 130.056 279.438 125.251 279.438C124.555 279.438 123.859 279.384 123.164 279.289C117.984 278.56 113.608 275.253 111.48 270.407C109.299 265.481 109.888 259.919 113.1 255.114C120.072 244.68 123.19 239.942 129.172 230.871C129.293 230.696 129.427 230.507 129.561 230.332C129.708 230.116 129.855 229.9 130.002 229.684C133.455 240.59 135.382 246.516 139.397 258.786C141.083 263.942 140.401 269.031 137.456 273.134M173.858 270.083C171.77 274.929 167.434 278.304 162.268 279.087C161.532 279.195 160.783 279.249 160.034 279.249C155.269 279.249 150.706 276.913 147.882 273.013C144.951 268.977 144.228 263.901 145.848 258.759C149.782 246.232 151.442 240.86 154.935 229.495C161.318 239.038 164.825 244.154 172.092 254.804C175.344 259.555 175.986 265.143 173.858 270.083ZM208.426 255.802C207.784 261.053 204.572 265.521 199.821 267.721C197.814 268.666 195.699 269.139 193.504 269.139C189.476 269.139 185.528 267.465 182.731 264.576C180.67 262.457 178.261 258.732 178.382 252.914C178.663 239.78 178.743 234.152 178.917 222.26C187.709 229.576 192.501 233.49 202.471 241.643C206.914 245.274 209.095 250.444 208.44 255.802M232.582 246.205C229.839 248.635 226.319 249.971 222.666 249.971C215.613 249.971 209.805 245.301 207.864 238.066C204.451 225.391 202.966 219.979 199.808 208.519C210.273 213.04 215.988 215.443 227.818 220.424C233.104 222.651 236.651 226.984 237.507 232.302C238.364 237.526 236.517 242.709 232.582 246.192M258.077 216.199C255.293 220.613 250.542 223.245 245.336 223.245C240.13 223.245 235.112 220.397 232.101 215.43C225.275 204.226 222.318 199.434 216.095 189.365C227.39 190.728 233.519 191.417 246.246 192.807H246.3C252.001 193.455 256.591 196.586 258.92 201.459C261.195 206.224 260.887 211.731 258.077 216.199ZM274.11 180.159C272.263 186.638 266.321 191.16 259.643 191.16C256.31 191.16 253.112 190.04 250.275 187.894C249.659 187.367 248.829 186.652 247.852 185.801C239.649 178.337 235.46 174.557 228.233 168.078C227.832 167.673 227.417 167.282 227.042 166.904C226.828 166.702 226.627 166.513 226.426 166.324C237.574 164.434 243.65 163.327 256.217 161.086H256.257C257.341 160.884 258.412 160.789 259.442 160.789C264.327 160.789 268.783 162.99 271.634 166.809C274.525 170.656 275.408 175.529 274.11 180.146" fill="#82C83C"/>
</g>
</svg>
