<svg width="6" height="9" viewBox="0 0 6 9" fill="none" xmlns="http://www.w3.org/2000/svg">
<path d="M0.58516 0C0.4693 2.93429e-05 0.356081 0.0333793 0.259978 0.0957862C0.163875 0.158193 0.0892553 0.246821 0.045658 0.35034C0.00206063 0.453858 -0.00853292 0.567563 0.0152317 0.676918C0.0389962 0.786273 0.0960386 0.886309 0.179067 0.964236L3.84414 4.49867L0.179067 8.03311C0.123171 8.08486 0.0785451 8.14685 0.0478025 8.21545C0.0170599 8.28404 0.000818627 8.35786 3.01566e-05 8.43258C-0.000758314 8.5073 0.0139219 8.58142 0.0432107 8.65061C0.0724995 8.71979 0.115808 8.78264 0.170601 8.83548C0.225393 8.88832 0.290568 8.93009 0.362307 8.95833C0.434047 8.98658 0.510909 9.00073 0.588393 8.99997C0.665877 8.99921 0.742425 8.98355 0.813554 8.9539C0.884683 8.92425 0.948963 8.88122 1.00263 8.82732L5.07948 4.89578C5.18867 4.79044 5.25 4.64761 5.25 4.49867C5.25 4.34974 5.18867 4.2069 5.07948 4.10157L1.00263 0.17003C0.948354 0.116228 0.883448 0.0734608 0.811745 0.0442569C0.740042 0.015053 0.662996 4.39054e-06 0.58516 0Z" fill="white"/>
</svg>
