<svg width="20" height="20" viewBox="0 0 20 20" fill="none" xmlns="http://www.w3.org/2000/svg">
<path d="M1.9994 4.66681C1.91106 4.66557 1.82335 4.68189 1.74138 4.71483C1.6594 4.74777 1.58478 4.79668 1.52187 4.85871C1.45896 4.92074 1.409 4.99465 1.3749 5.07616C1.3408 5.15766 1.32324 5.24513 1.32324 5.33348C1.32324 5.42183 1.3408 5.5093 1.3749 5.59081C1.409 5.67231 1.45896 5.74623 1.52187 5.80825C1.58478 5.87028 1.6594 5.91919 1.74138 5.95213C1.82335 5.98508 1.91106 6.0014 1.9994 6.00015H17.9994C18.0877 6.0014 18.1755 5.98508 18.2574 5.95213C18.3394 5.91919 18.414 5.87028 18.4769 5.80825C18.5399 5.74623 18.5898 5.67231 18.6239 5.59081C18.658 5.5093 18.6756 5.42183 18.6756 5.33348C18.6756 5.24513 18.658 5.15766 18.6239 5.07616C18.5898 4.99465 18.5399 4.92074 18.4769 4.85871C18.414 4.79668 18.3394 4.74777 18.2574 4.71483C18.1755 4.68189 18.0877 4.66557 17.9994 4.66681H1.9994ZM1.9994 9.33348C1.91106 9.33223 1.82335 9.34855 1.74138 9.3815C1.6594 9.41444 1.58478 9.46335 1.52187 9.52537C1.45896 9.5874 1.409 9.66132 1.3749 9.74282C1.3408 9.82433 1.32324 9.9118 1.32324 10.0001C1.32324 10.0885 1.3408 10.176 1.3749 10.2575C1.409 10.339 1.45896 10.4129 1.52187 10.4749C1.58478 10.537 1.6594 10.5859 1.74138 10.6188C1.82335 10.6517 1.91106 10.6681 1.9994 10.6668H17.9994C18.0877 10.6681 18.1755 10.6517 18.2574 10.6188C18.3394 10.5859 18.414 10.537 18.4769 10.4749C18.5399 10.4129 18.5898 10.339 18.6239 10.2575C18.658 10.176 18.6756 10.0885 18.6756 10.0001C18.6756 9.9118 18.658 9.82433 18.6239 9.74282C18.5898 9.66132 18.5399 9.5874 18.4769 9.52537C18.414 9.46335 18.3394 9.41444 18.2574 9.3815C18.1755 9.34855 18.0877 9.33223 17.9994 9.33348H1.9994ZM1.9994 14.0001C1.91106 13.9989 1.82335 14.0152 1.74138 14.0482C1.6594 14.0811 1.58478 14.13 1.52187 14.192C1.45896 14.2541 1.409 14.328 1.3749 14.4095C1.3408 14.491 1.32324 14.5785 1.32324 14.6668C1.32324 14.7552 1.3408 14.8426 1.3749 14.9241C1.409 15.0056 1.45896 15.0796 1.52187 15.1416C1.58478 15.2036 1.6594 15.2525 1.74138 15.2855C1.82335 15.3184 1.91106 15.3347 1.9994 15.3335H17.9994C18.0877 15.3347 18.1755 15.3184 18.2574 15.2855C18.3394 15.2525 18.414 15.2036 18.4769 15.1416C18.5399 15.0796 18.5898 15.0056 18.6239 14.9241C18.658 14.8426 18.6756 14.7552 18.6756 14.6668C18.6756 14.5785 18.658 14.491 18.6239 14.4095C18.5898 14.328 18.5399 14.2541 18.4769 14.192C18.414 14.13 18.3394 14.0811 18.2574 14.0482C18.1755 14.0152 18.0877 13.9989 17.9994 14.0001H1.9994Z" fill="white"/>
</svg>
