<svg width="36" height="36" viewBox="0 0 36 36" fill="none" xmlns="http://www.w3.org/2000/svg">
<path d="M8.64141 0C7.85391 0 7.20141 0.6525 7.20141 1.44V2.88H2.88141C2.11078 2.88 1.44141 3.45938 1.44141 4.28906V33.2691C1.44141 33.6825 1.68047 34.0819 1.97016 34.2872C2.25984 34.4897 2.57484 34.56 2.88141 34.56H33.1214C33.428 34.56 33.743 34.4897 34.0327 34.2872C34.3223 34.0819 34.5614 33.6825 34.5614 33.2691V4.28906C34.5614 3.53531 33.9511 2.88 33.1805 2.88H28.8014V1.44C28.8014 0.6525 28.1489 0 27.3614 0H25.9214C25.1339 0 24.4814 0.6525 24.4814 1.44V2.88H11.5214V1.44C11.5214 0.6525 10.8689 0 10.0814 0H8.64141ZM8.64141 1.44H10.0814V5.76H8.64141V1.44ZM25.9214 1.44H27.3614V5.76H25.9214V1.44ZM2.88141 4.32H7.20141V5.76C7.20141 6.5475 7.85391 7.2 8.64141 7.2H10.0814C10.8689 7.2 11.5214 6.5475 11.5214 5.76V4.32H24.4814V5.76C24.4814 6.5475 25.1339 7.2 25.9214 7.2H27.3614C28.1489 7.2 28.8014 6.5475 28.8014 5.76V4.32H33.1214V9.36H2.88141V4.32ZM2.88141 10.8H33.1214V33.12H2.88141V10.8ZM23.5477 14.8444L23.1567 15.4491L17.2927 24.5475L13.4452 21.0656L12.9108 20.5847L11.9461 21.6506L12.4777 22.1344L17.5852 26.7525L24.3661 16.2309L24.757 15.6263L23.5477 14.8444Z" fill="#C5C5CC"/>
</svg>
