<svg width="16" height="16" viewBox="0 0 16 16" fill="none" xmlns="http://www.w3.org/2000/svg">
<path d="M13 5.28032C13 5.12584 12.9555 4.97488 12.8723 4.84675C12.7891 4.71861 12.6709 4.61912 12.5329 4.56099C12.3949 4.50286 12.2432 4.48873 12.0974 4.52042C11.9516 4.55211 11.8183 4.62816 11.7144 4.73887L7.00177 9.62563L4.28919 6.73887C4.22018 6.66434 4.13753 6.60484 4.04607 6.56385C3.95462 6.52286 3.85619 6.5012 3.75656 6.50015C3.65693 6.4991 3.5581 6.51867 3.46586 6.55772C3.37361 6.59678 3.28981 6.65452 3.21936 6.72758C3.14891 6.80063 3.09322 6.88753 3.05556 6.98319C3.0179 7.07884 2.99903 7.18132 3.00004 7.28463C3.00105 7.38795 3.02194 7.49001 3.06147 7.58485C3.10099 7.67969 3.15837 7.76539 3.23025 7.83695L6.4723 11.2728C6.61274 11.4183 6.80319 11.5001 7.00177 11.5001C7.20035 11.5001 7.3908 11.4183 7.53124 11.2728L12.7733 5.83695C12.845 5.76458 12.9021 5.67804 12.941 5.58244C12.9799 5.48683 13 5.3841 13 5.28032Z" fill="#82C83C"/>
</svg>
