<svg width="20" height="20" viewBox="0 0 20 20" fill="none" xmlns="http://www.w3.org/2000/svg">
<path d="M7.22527 2.5C7.03217 2.50005 6.84347 2.55563 6.6833 2.65964C6.52313 2.76366 6.39876 2.91137 6.3261 3.0839C6.25343 3.25643 6.23578 3.44594 6.27539 3.6282C6.31499 3.81046 6.41006 3.97718 6.54845 4.10706L12.6569 9.99779L6.54845 15.8885C6.45529 15.9748 6.38091 16.0781 6.32967 16.1924C6.27843 16.3067 6.25136 16.4298 6.25005 16.5543C6.24874 16.6788 6.2732 16.8024 6.32202 16.9177C6.37083 17.033 6.44301 17.1377 6.53433 17.2258C6.62566 17.3139 6.73428 17.3835 6.85385 17.4305C6.97341 17.4776 7.10152 17.5012 7.23066 17.5C7.3598 17.4987 7.48738 17.4726 7.60592 17.4232C7.72447 17.3738 7.8316 17.302 7.92105 17.2122L14.7158 10.6596C14.8978 10.4841 15 10.246 15 9.99779C15 9.74957 14.8978 9.51151 14.7158 9.33595L7.92105 2.78338C7.83059 2.69371 7.72241 2.62243 7.60291 2.57376C7.4834 2.52509 7.35499 2.50001 7.22527 2.5Z" fill="white"/>
</svg>
