<svg width="20" height="20" viewBox="0 0 20 20" fill="none" xmlns="http://www.w3.org/2000/svg">
<path d="M12.7747 2.5C12.9678 2.50005 13.1565 2.55563 13.3167 2.65964C13.4769 2.76366 13.6012 2.91137 13.6739 3.0839C13.7466 3.25643 13.7642 3.44594 13.7246 3.6282C13.685 3.81046 13.5899 3.97718 13.4516 4.10706L7.3431 9.99779L13.4516 15.8885C13.5447 15.9748 13.6191 16.0781 13.6703 16.1924C13.7216 16.3067 13.7486 16.4298 13.7499 16.5543C13.7513 16.6788 13.7268 16.8024 13.678 16.9177C13.6292 17.033 13.557 17.1377 13.4657 17.2258C13.3743 17.3139 13.2657 17.3835 13.1462 17.4305C13.0266 17.4776 12.8985 17.5012 12.7693 17.5C12.6402 17.4987 12.5126 17.4726 12.3941 17.4232C12.2755 17.3738 12.1684 17.302 12.079 17.2122L5.28419 10.6596C5.10222 10.4841 5 10.246 5 9.99779C5 9.74957 5.10222 9.51151 5.28419 9.33595L12.079 2.78338C12.1694 2.69371 12.2776 2.62243 12.3971 2.57376C12.5166 2.52509 12.645 2.50001 12.7747 2.5Z" fill="white"/>
</svg>
