<svg width="16" height="16" viewBox="0 0 16 16" fill="none" xmlns="http://www.w3.org/2000/svg">
<path d="M14 5.78021C14 5.62573 13.9555 5.47478 13.8723 5.34664C13.7891 5.2185 13.6709 5.11901 13.5329 5.06088C13.3949 5.00275 13.2432 4.98862 13.0974 5.02031C12.9516 5.052 12.8183 5.12805 12.7144 5.23876L8.00177 10.1255L3.28919 5.23876C3.22018 5.16423 3.13753 5.10473 3.04607 5.06374C2.95462 5.02275 2.85619 5.00109 2.75656 5.00004C2.65693 4.99899 2.5581 5.01856 2.46586 5.05761C2.37361 5.09667 2.28981 5.15441 2.21936 5.22747C2.14891 5.30052 2.09322 5.38742 2.05556 5.48308C2.0179 5.57873 1.99903 5.68121 2.00004 5.78452C2.00105 5.88784 2.02194 5.9899 2.06146 6.08474C2.10099 6.17958 2.15837 6.26528 2.23025 6.33684L7.4723 11.7726C7.61274 11.9182 7.80319 12 8.00177 12C8.20035 12 8.3908 11.9182 8.53124 11.7726L13.7733 6.33684C13.845 6.26447 13.9021 6.17793 13.941 6.08233C13.9799 5.98672 14 5.884 14 5.78021Z" fill="#82C83C"/>
</svg>
