<svg width="16" height="16" viewBox="0 0 16 16" fill="none" xmlns="http://www.w3.org/2000/svg">
<path d="M5.78021 2C5.62573 2.00004 5.47478 2.04451 5.34664 2.12772C5.2185 2.21092 5.11901 2.3291 5.06088 2.46712C5.00275 2.60514 4.98862 2.75675 5.02031 2.90256C5.052 3.04836 5.12805 3.18175 5.23876 3.28565L10.1255 7.99823L5.23876 12.7108C5.16423 12.7798 5.10473 12.8625 5.06374 12.9539C5.02275 13.0454 5.00109 13.1438 5.00004 13.2434C4.99899 13.3431 5.01856 13.4419 5.05762 13.5341C5.09667 13.6264 5.15441 13.7102 5.22747 13.7806C5.30052 13.8511 5.38742 13.9068 5.48308 13.9444C5.57873 13.9821 5.68121 14.001 5.78453 14C5.88784 13.9989 5.9899 13.9781 6.08474 13.9385C6.17958 13.899 6.26528 13.8416 6.33684 13.7698L11.7726 8.5277C11.9182 8.38726 12 8.19681 12 7.99823C12 7.79965 11.9182 7.60921 11.7726 7.46876L6.33684 2.22671C6.26447 2.15497 6.17793 2.09795 6.08233 2.05901C5.98672 2.02007 5.884 2.00001 5.78021 2Z" fill="#82C83C"/>
</svg>
