<svg width="36" height="36" viewBox="0 0 36 36" fill="none" xmlns="http://www.w3.org/2000/svg">
<g clip-path="url(#clip0_3110_4238)">
<path d="M18.0014 1.43994C8.86965 1.43994 1.44141 8.86818 1.44141 17.9999C1.44141 27.1317 8.86965 34.5599 18.0014 34.5599C19.8784 34.5599 21.6815 34.2423 23.3648 33.6642C23.2504 33.2293 23.1553 32.7954 23.0667 32.3915C23.0559 32.3411 23.0431 32.2914 23.0316 32.241C21.4555 32.7998 19.7668 33.1199 18.0014 33.1199C9.66453 33.1199 2.88141 26.3368 2.88141 17.9999C2.88141 9.66306 9.66453 2.87994 18.0014 2.87994C26.3383 2.87994 33.1214 9.66306 33.1214 17.9999C33.1214 18.5889 33.0786 19.1678 33.0131 19.7395C33.5056 19.8835 33.9664 20.0818 34.3955 20.3273C34.5028 19.5662 34.5614 18.7898 34.5614 17.9999C34.5614 8.86818 27.1332 1.43994 18.0014 1.43994ZM17.9902 5.0301C17.7994 5.03308 17.6177 5.1116 17.4848 5.24843C17.352 5.38527 17.2788 5.56923 17.2814 5.75994V15.9721C16.4442 16.2696 15.8414 17.0606 15.8414 17.9999C15.8414 18.3326 15.9237 18.6438 16.058 18.9253L11.7323 23.2509C11.6632 23.3172 11.6081 23.3967 11.5701 23.4846C11.5321 23.5726 11.512 23.6672 11.511 23.763C11.51 23.8588 11.5282 23.9538 11.5644 24.0425C11.6006 24.1312 11.6541 24.2117 11.7219 24.2795C11.7896 24.3472 11.8702 24.4007 11.9589 24.437C12.0476 24.4732 12.1426 24.4913 12.2384 24.4903C12.3342 24.4894 12.4288 24.4693 12.5167 24.4313C12.6047 24.3933 12.6841 24.3381 12.7505 24.269L17.0761 19.9434C17.3576 20.0777 17.6687 20.1599 18.0014 20.1599C19.1944 20.1599 20.1614 19.193 20.1614 17.9999C20.1614 17.0606 19.5587 16.2696 18.7214 15.9721V5.75994C18.7227 5.66361 18.7047 5.568 18.6684 5.47876C18.6321 5.38953 18.5783 5.30848 18.5101 5.24042C18.4419 5.17237 18.3607 5.11869 18.2714 5.08256C18.1821 5.04643 18.0865 5.02859 17.9902 5.0301ZM27.4556 20.8785C27.4156 20.878 27.3756 20.8808 27.3361 20.887C25.8764 20.9218 24.619 21.4062 23.7333 22.2707C22.8137 23.1683 22.3214 24.4458 22.3214 25.8749C22.3214 26.9593 22.723 27.8116 23.1286 28.5482C23.5341 29.2849 23.9413 29.9326 24.1594 30.7378C24.4247 31.7426 24.6159 32.9235 24.93 33.9215C25.0873 34.4212 25.2704 34.8818 25.5727 35.2757C25.8749 35.6696 26.3774 35.9999 26.9452 35.9999C27.4605 35.9999 27.9907 35.7847 28.3219 35.3784C28.6531 34.9721 28.7803 34.4497 28.7803 33.8835C28.7803 32.9612 28.9798 31.7433 29.1614 30.5957C29.343 31.7368 29.5425 32.9604 29.5425 33.8835C29.5425 34.4497 29.6697 34.9721 30.0009 35.3784C30.3322 35.7847 30.8623 35.9999 31.3777 35.9999C31.948 35.9999 32.4502 35.666 32.7516 35.2701C33.053 34.8742 33.2357 34.4113 33.3928 33.9103C33.7067 32.909 33.8987 31.7271 34.1634 30.7378C34.3819 29.9326 34.7886 29.2847 35.1942 28.5482C35.5993 27.8128 35.9988 26.9612 36 25.8792C36.0143 24.4501 35.5293 23.1701 34.6134 22.2721C33.6966 21.3732 32.38 20.8799 30.8489 20.8799C30.2344 20.8799 29.6923 20.986 29.1797 21.1401C28.6721 20.9869 28.1333 20.8842 27.5273 20.8813C27.5035 20.8792 27.4796 20.8783 27.4556 20.8785ZM30.8489 22.3199C32.0776 22.3199 32.99 22.6955 33.6066 23.3001C34.2232 23.9047 34.5733 24.7623 34.5614 25.8679V25.8707V25.8749C34.5614 26.6144 34.308 27.1724 33.9328 27.8535C33.5576 28.5347 33.0582 29.3135 32.7741 30.3609H32.7727V30.3623C32.4805 31.4532 32.2833 32.6367 32.0189 33.4799C31.8867 33.9016 31.7319 34.2308 31.6055 34.3968C31.479 34.5629 31.4626 34.5599 31.3777 34.5599C31.196 34.5599 31.1683 34.5326 31.1161 34.4685C31.0639 34.4045 30.9825 34.2296 30.9825 33.8835C30.9825 32.5113 30.7243 30.8188 30.4706 29.4074C30.3627 28.7458 29.7455 28.2895 29.1713 28.2895C28.597 28.2895 27.9901 28.7246 27.8564 29.3793L27.8536 29.3878L27.8522 29.3976C27.5994 30.8352 27.3403 32.5072 27.3403 33.8835C27.3403 34.2296 27.2575 34.4045 27.2053 34.4685C27.1532 34.5326 27.1268 34.5599 26.9452 34.5599C26.8577 34.5599 26.8401 34.5633 26.7145 34.3996C26.589 34.236 26.4359 33.9092 26.3039 33.4898C26.0399 32.651 25.8416 31.4675 25.5502 30.3651L25.5488 30.3637V30.3609C25.265 29.3135 24.7651 28.5363 24.39 27.8549C24.0149 27.1736 23.7614 26.6144 23.7614 25.8749C23.7614 24.7676 24.1193 23.9075 24.7402 23.3015C25.3508 22.7055 26.2446 22.335 27.443 22.3228C28.4148 22.3996 29.2537 22.8408 29.8533 23.5476C29.9769 23.6932 30.1533 23.7838 30.3438 23.7994C30.5342 23.8149 30.723 23.7542 30.8686 23.6306C31.0142 23.5069 31.1048 23.3305 31.1204 23.1401C31.1359 22.9497 31.0752 22.7609 30.9516 22.6153C30.8675 22.5162 30.7769 22.423 30.6858 22.3312C30.7432 22.3296 30.7893 22.3199 30.8489 22.3199Z" fill="#C5C5CC"/>
</g>
<defs>
<clipPath id="clip0_3110_4238">
<rect width="36" height="36" fill="white"/>
</clipPath>
</defs>
</svg>
