<svg width="20" height="20" viewBox="0 0 20 20" fill="none" xmlns="http://www.w3.org/2000/svg">
<path d="M4.8101 3.8719C4.74852 3.80855 4.67496 3.75807 4.5937 3.7234C4.51244 3.68873 4.42509 3.67055 4.33675 3.66992C4.2484 3.6693 4.16081 3.68624 4.07906 3.71976C3.99732 3.75328 3.92305 3.80272 3.86058 3.86519C3.79811 3.92766 3.74867 4.00193 3.71515 4.08367C3.68163 4.16542 3.66469 4.25301 3.66531 4.34136C3.66594 4.4297 3.68412 4.51705 3.71879 4.59831C3.75346 4.67957 3.80394 4.75313 3.86729 4.81471L15.181 16.1284C15.2426 16.1918 15.3161 16.2422 15.3974 16.2769C15.4787 16.3116 15.566 16.3298 15.6544 16.3304C15.7427 16.331 15.8303 16.3141 15.912 16.2806C15.9938 16.247 16.0681 16.1976 16.1305 16.1351C16.193 16.0727 16.2424 15.9984 16.276 15.9167C16.3095 15.8349 16.3264 15.7473 16.3258 15.659C16.3252 15.5706 16.307 15.4833 16.2723 15.402C16.2376 15.3208 16.1872 15.2472 16.1238 15.1856L4.8101 3.8719Z" fill="white"/>
<path d="M3.87074 15.1856C3.80739 15.2472 3.75691 15.3208 3.72224 15.402C3.68757 15.4833 3.66939 15.5706 3.66876 15.659C3.66814 15.7473 3.68508 15.8349 3.7186 15.9167C3.75212 15.9984 3.80156 16.0727 3.86403 16.1351C3.9265 16.1976 4.00077 16.2471 4.08251 16.2806C4.16426 16.3141 4.25185 16.331 4.3402 16.3304C4.42854 16.3298 4.51589 16.3116 4.59715 16.2769C4.67841 16.2423 4.75197 16.1918 4.81355 16.1284L16.1273 4.81472C16.1906 4.75314 16.2411 4.67958 16.2758 4.59832C16.3104 4.51706 16.3286 4.42971 16.3292 4.34137C16.3299 4.25302 16.3129 4.16543 16.2794 4.08368C16.2459 4.00194 16.1964 3.92767 16.134 3.8652C16.0715 3.80273 15.9972 3.75329 15.9155 3.71977C15.8337 3.68625 15.7462 3.66931 15.6578 3.66993C15.5695 3.67056 15.4821 3.68874 15.4009 3.72341C15.3196 3.75809 15.246 3.80856 15.1845 3.87191L3.87074 15.1856Z" fill="white"/>
</svg>
