<svg width="20" height="20" viewBox="0 0 20 20" fill="none" xmlns="http://www.w3.org/2000/svg">
<path d="M8.66571 18.6667C8.29771 18.6667 7.99904 18.3681 7.99904 18.0001V14.9649L6.56154 12.3556C6.50161 12.4506 6.41862 12.529 6.32027 12.5834C6.22193 12.6378 6.11143 12.6665 5.99904 12.6667H1.99904C1.90752 12.6668 1.81697 12.648 1.73303 12.6115C1.64909 12.575 1.57356 12.5217 1.51114 12.4547C1.44872 12.3878 1.40075 12.3087 1.37022 12.2224C1.33969 12.1361 1.32725 12.0445 1.33368 11.9532L2.00034 2.61987C2.01222 2.45154 2.08749 2.29397 2.21097 2.17895C2.33445 2.06393 2.49696 2.00001 2.66571 2.00008H5.99904C6.17585 2.0001 6.34541 2.07034 6.47043 2.19536C6.59545 2.32038 6.66569 2.48994 6.66571 2.66675H7.76467C8.00133 2.26342 8.42405 2.00008 8.90139 2.00008H15.3324C16.069 2.00008 16.6657 2.59675 16.6657 3.33342C16.6657 3.58342 16.593 3.81441 16.473 4.01441C17.327 4.08707 17.999 4.79408 17.999 5.66675C17.999 6.09342 17.834 6.47885 17.5707 6.77352C18.2087 7.00752 18.6657 7.61408 18.6657 8.33342C18.6657 8.88142 18.3973 9.36275 17.9899 9.66675C18.3979 9.97075 18.6657 10.4521 18.6657 11.0001C18.6657 11.9207 17.9197 12.6667 16.999 12.6667H11.0095C11.1821 13.4414 11.3324 14.2747 11.3324 14.6667C11.3324 16.1941 10.1231 18.6667 9.30243 18.6667H8.66571ZM2.71519 11.3334H5.33237V3.33342H3.2868L2.71519 11.3334Z" fill="#F14346"/>
</svg>
