<svg width="16" height="16" viewBox="0 0 16 16" fill="none" xmlns="http://www.w3.org/2000/svg">
<g clip-path="url(#clip0_947_9307)">
<path d="M7.99961 1.6001C5.73828 1.6001 4.79961 3.05076 4.79961 4.8001C4.79961 5.3921 5.0819 5.98447 5.0819 5.98447C4.9699 6.04847 4.78403 6.25618 4.82669 6.61885C4.91736 7.30685 5.21073 7.47785 5.40273 7.49385C5.47207 8.12851 6.15961 8.94943 6.39961 9.06676V10.1334C6.39844 10.1369 6.39561 10.1393 6.3944 10.1428C6.21803 10.1647 6.06067 10.2688 5.98086 10.4303L5.81419 10.7657C4.4979 11.5038 1.59961 11.3208 1.59961 14.4001H7.46628V11.2001C7.46628 10.3201 8.18628 9.6001 9.06628 9.6001H9.59961V9.06676C9.83961 8.94943 10.5272 8.12851 10.5965 7.49385C10.7885 7.47785 11.0819 7.30685 11.1725 6.61885C11.2152 6.25085 11.0293 6.04847 10.9173 5.98447C10.9173 5.98447 11.1996 5.44543 11.1996 4.8001C11.1996 3.5041 10.6929 2.4001 9.59961 2.4001C9.59961 2.4001 9.22094 1.6001 7.99961 1.6001ZM11.7329 9.6001C11.1436 9.6001 10.6663 10.0774 10.6663 10.6668H9.06628C8.77294 10.6668 8.53294 10.9068 8.53294 11.2001V13.3334C8.53294 13.6268 8.77294 13.8668 9.06628 13.8668H11.1996C11.1996 13.5734 11.4396 13.3334 11.7329 13.3334H12.7996C13.0929 13.3334 13.3329 13.5734 13.3329 13.8668H15.4663C15.7596 13.8668 15.9996 13.6268 15.9996 13.3334V11.2001C15.9996 10.9068 15.7596 10.6668 15.4663 10.6668H13.8663C13.8663 10.0774 13.3889 9.6001 12.7996 9.6001H11.7329ZM8.53294 14.8376V15.4668C8.53294 15.7601 8.77294 16.0001 9.06628 16.0001H15.4663C15.7596 16.0001 15.9996 15.7601 15.9996 15.4668V14.8376C15.8343 14.9016 15.6529 14.9334 15.4663 14.9334H9.06628C8.87961 14.9334 8.69828 14.9016 8.53294 14.8376Z" fill="#82C83C"/>
</g>
<defs>
<clipPath id="clip0_947_9307">
<rect width="16" height="16" fill="white"/>
</clipPath>
</defs>
</svg>
