<svg width="16" height="11" viewBox="0 0 16 11" fill="none" xmlns="http://www.w3.org/2000/svg">
<path d="M8 0C3.2 0 0.105208 5.01771 0.105208 5.01771V5.03229C0.0439202 5.11913 0 5.21904 0 5.33333C0 5.43579 0.0363124 5.526 0.0864583 5.60729V5.62396C0.0864583 5.62396 2.66667 10.6667 8 10.6667C13.3333 10.6667 15.9135 5.62396 15.9135 5.62396V5.60729C15.9637 5.526 16 5.43579 16 5.33333C16 5.21904 15.9561 5.11913 15.8948 5.03229V5.01771C15.8948 5.01771 12.8 0 8 0ZM8 1.6C10.0619 1.6 11.7333 3.27147 11.7333 5.33333C11.7333 7.3952 10.0619 9.06667 8 9.06667C5.93813 9.06667 4.26667 7.3952 4.26667 5.33333C4.26667 3.27147 5.93813 1.6 8 1.6ZM8 3.73333C7.11627 3.73333 6.4 4.4496 6.4 5.33333C6.4 6.21707 7.11627 6.93333 8 6.93333C8.88373 6.93333 9.6 6.21707 9.6 5.33333C9.6 4.4496 8.88373 3.73333 8 3.73333Z" fill="#82C83C"/>
</svg>
