<svg width="32" height="32" viewBox="0 0 32 32" fill="none" xmlns="http://www.w3.org/2000/svg">
<path d="M10.6648 3.20068C6.54851 3.20068 3.2002 6.5521 3.2002 10.6694V21.3361C3.2002 25.4524 6.55161 28.8007 10.6689 28.8007H21.3356C25.4519 28.8007 28.8002 25.4493 28.8002 21.3319V10.6653C28.8002 6.549 25.4488 3.20068 21.3314 3.20068H10.6648ZM23.4669 7.46735C24.0557 7.46735 24.5335 7.94522 24.5335 8.53402C24.5335 9.12282 24.0557 9.60068 23.4669 9.60068C22.8781 9.60068 22.4002 9.12282 22.4002 8.53402C22.4002 7.94522 22.8781 7.46735 23.4669 7.46735ZM16.0002 9.60068C19.5298 9.60068 22.4002 12.4711 22.4002 16.0007C22.4002 19.5303 19.5298 22.4007 16.0002 22.4007C12.4706 22.4007 9.6002 19.5303 9.6002 16.0007C9.6002 12.4711 12.4706 9.60068 16.0002 9.60068ZM16.0002 11.734C14.8686 11.734 13.7834 12.1835 12.9832 12.9837C12.1831 13.7839 11.7335 14.8691 11.7335 16.0007C11.7335 17.1323 12.1831 18.2175 12.9832 19.0177C13.7834 19.8178 14.8686 20.2674 16.0002 20.2674C17.1318 20.2674 18.217 19.8178 19.0172 19.0177C19.8173 18.2175 20.2669 17.1323 20.2669 16.0007C20.2669 14.8691 19.8173 13.7839 19.0172 12.9837C18.217 12.1835 17.1318 11.734 16.0002 11.734Z" fill="white"/>
</svg>
