<svg width="32" height="32" viewBox="0 0 32 32" fill="none" xmlns="http://www.w3.org/2000/svg">
<path d="M16.0012 1.27979C24.1312 1.27979 30.7212 7.86986 30.7212 15.9998C30.7212 24.1297 24.1312 30.7198 16.0012 30.7198C7.87133 30.7198 1.28125 24.1297 1.28125 15.9998C1.28125 7.86986 7.87133 1.27979 16.0012 1.27979ZM21.079 21.9998C21.3497 21.1691 22.6182 12.89 22.775 11.2587C22.8224 10.7646 22.6662 10.4363 22.3603 10.2897C21.9904 10.1118 21.4425 10.2007 20.807 10.4299C19.9353 10.7441 8.79165 15.4756 8.14781 15.7495C7.53725 16.0087 6.95997 16.2916 6.95997 16.7012C6.95997 16.9892 7.13085 17.1511 7.60189 17.3195C8.09213 17.4942 9.32669 17.8686 10.0556 18.0695C10.7577 18.2635 11.5571 18.0951 12.0051 17.8167C12.48 17.5217 17.9603 13.8545 18.3539 13.5332C18.7468 13.2119 19.0604 13.6235 18.7392 13.9454C18.4179 14.2667 14.656 17.9179 14.16 18.4235C13.5577 19.0372 13.9853 19.6734 14.3891 19.9281C14.8505 20.2187 18.1689 22.4446 18.6688 22.8017C19.1686 23.1588 19.6755 23.3207 20.1395 23.3207C20.6035 23.3207 20.848 22.7095 21.079 21.9998Z" fill="white"/>
</svg>
