<svg width="32" height="32" viewBox="0 0 32 32" fill="none" xmlns="http://www.w3.org/2000/svg">
<path d="M27.0573 8.87462C26.621 7.31835 25.7581 6.08635 24.4919 5.21489C22.8941 4.11409 21.0562 3.72369 19.469 3.48689C17.2727 3.15942 15.2834 3.11355 13.389 3.34502C11.6119 3.56262 10.2743 3.91035 9.05299 4.47142C6.66046 5.57009 5.22473 7.34929 4.78633 9.75782C4.57299 10.9269 4.43006 11.984 4.34686 12.992C4.15486 15.3226 4.32873 17.3856 4.87913 19.297C5.41459 21.1605 6.35113 22.4928 7.74206 23.3674C8.09726 23.5904 8.54953 23.7514 8.98899 23.9072C9.20873 23.985 9.41993 24.0618 9.60446 24.1429V27.9082C9.60446 28.401 10.0034 28.8 10.4962 28.8C10.7287 28.8 10.9517 28.7093 11.1181 28.5472L14.5922 25.168C14.7437 24.9952 14.7437 24.9952 14.8994 24.992C16.0866 24.9685 17.2994 24.9226 18.5047 24.8576C19.965 24.7776 21.6567 24.6368 23.2503 23.9722C24.7085 23.3632 25.773 22.3968 26.4119 21.1008C27.0786 19.7482 27.4754 18.2826 27.6237 16.6218C27.8839 13.7013 27.6983 11.1669 27.0573 8.87462ZM21.0082 19.9893C20.6594 20.56 20.1367 20.9546 19.5223 21.2106C19.0733 21.3984 18.6146 21.3589 18.1719 21.1712C14.4557 19.5989 11.5426 17.12 9.61619 13.5584C9.21939 12.8245 8.94313 12.0256 8.62633 11.2501C8.56126 11.0901 8.56659 10.9034 8.53779 10.7296C8.56553 9.47622 9.52659 8.77115 10.4973 8.55782C10.8685 8.47569 11.197 8.60689 11.4722 8.87035C12.2338 9.59782 12.8365 10.4405 13.2898 11.3856C13.4882 11.8005 13.3986 12.1674 13.0605 12.4757C12.9911 12.5397 12.9175 12.5994 12.8418 12.656C12.0706 13.2362 11.9575 13.6746 12.3682 14.5482C13.0679 16.0341 14.2295 17.0314 15.7325 17.6501C16.1282 17.8133 16.5015 17.7322 16.8045 17.4112C16.845 17.3685 16.8909 17.3269 16.9207 17.2778C17.5138 16.289 18.3725 16.3872 19.1661 16.9514C19.6877 17.3216 20.1933 17.712 20.7095 18.0896C21.4925 18.6666 21.4861 19.2085 21.0082 19.9893ZM16.5495 9.75249C16.3501 9.75249 16.1495 9.76849 15.9533 9.80155C15.6205 9.85809 15.3069 9.63302 15.2514 9.30022C15.1959 8.96849 15.4199 8.65382 15.7527 8.59835C16.0141 8.55569 16.2829 8.53329 16.5495 8.53329C19.1895 8.53329 21.3378 10.6816 21.3378 13.3216C21.3378 13.5893 21.3154 13.8581 21.2717 14.1194C21.2215 14.417 20.9634 14.6282 20.6711 14.6282C20.6381 14.6282 20.6039 14.6261 20.5698 14.6197C20.2381 14.5632 20.0141 14.2496 20.0695 13.9178C20.1026 13.7237 20.1186 13.5232 20.1186 13.3226C20.1186 11.3536 18.5175 9.75249 16.5495 9.75249ZM19.2045 13.7141C19.2045 14.0501 18.9314 14.3232 18.5954 14.3232C18.2594 14.3232 17.9863 14.0501 17.9863 13.7141C17.9863 12.7061 17.1661 11.8858 16.1581 11.8858C15.8221 11.8858 15.549 11.6128 15.549 11.2768C15.549 10.9408 15.8221 10.6677 16.1581 10.6677C17.837 10.6666 19.2045 12.0341 19.2045 13.7141ZM23.3069 14.4576C23.2429 14.7413 22.9922 14.9322 22.7127 14.9322C22.6679 14.9322 22.6221 14.9269 22.5773 14.9173C22.2487 14.8426 22.0429 14.5162 22.1175 14.1888C22.2061 13.7994 22.2509 13.3973 22.2509 12.9941C22.2509 10.0309 19.8402 7.61915 16.8759 7.61915C16.4717 7.61915 16.0706 7.66395 15.6813 7.75249C15.3549 7.82822 15.0263 7.62129 14.9527 7.29275C14.8781 6.96422 15.0839 6.63782 15.4125 6.56422C15.8903 6.45435 16.3831 6.39995 16.8781 6.39995C20.5133 6.39995 23.4711 9.35782 23.4711 12.993C23.4711 13.488 23.4157 13.9808 23.3069 14.4576Z" fill="white"/>
</svg>
