<svg width="32" height="32" viewBox="0 0 32 32" fill="none" xmlns="http://www.w3.org/2000/svg">
<path d="M15.9995 4.26709C11.5344 4.26709 5.73906 5.38584 5.73906 5.38584L5.72448 5.40251C3.69085 5.72775 2.13281 7.47522 2.13281 9.60042V16.0004V16.0025V22.4004V22.4025C2.1348 23.4175 2.49854 24.3985 3.15873 25.1694C3.81892 25.9403 4.73231 26.4507 5.7349 26.6088L5.73906 26.615C5.73906 26.615 11.5344 27.7358 15.9995 27.7358C20.4645 27.7358 26.2599 26.615 26.2599 26.615L26.262 26.6129C27.2656 26.4552 28.1801 25.9444 28.8408 25.1726C29.5015 24.4008 29.8651 23.4185 29.8661 22.4025V22.4004V16.0025V16.0004V9.60042C29.8647 8.58509 29.5011 7.60357 28.8409 6.83222C28.1807 6.06086 27.267 5.55024 26.2641 5.39209L26.2599 5.38584C26.2599 5.38584 20.4645 4.26709 15.9995 4.26709ZM12.7995 11.0921L21.3328 16.0004L12.7995 20.9088V11.0921Z" fill="white"/>
</svg>
