<svg width="24" height="24" viewBox="0 0 24 24" fill="none" xmlns="http://www.w3.org/2000/svg">
<g clip-path="url(#clip0_989_55816)">
<path d="M12.0009 0.959961C18.0984 0.959961 23.0409 5.90252 23.0409 12C23.0409 18.0974 18.0984 23.04 12.0009 23.04C5.9035 23.04 0.960938 18.0974 0.960938 12C0.960938 5.90252 5.9035 0.959961 12.0009 0.959961ZM15.8093 16.5C16.0123 15.8769 16.9637 9.66764 17.0813 8.44412C17.1168 8.07356 16.9997 7.82732 16.7702 7.7174C16.4928 7.58396 16.0819 7.65068 15.6053 7.82252C14.9515 8.0582 6.59374 11.6068 6.11086 11.8123C5.65294 12.0067 5.21998 12.2188 5.21998 12.526C5.21998 12.742 5.34814 12.8635 5.70142 12.9897C6.0691 13.1208 6.99502 13.4016 7.54174 13.5523C8.0683 13.6977 8.66782 13.5715 9.00382 13.3627C9.35998 13.1414 13.4702 10.391 13.7654 10.15C14.0601 9.90908 14.2953 10.2177 14.0544 10.4592C13.8134 10.7001 10.992 13.4385 10.62 13.8177C10.1683 14.278 10.4889 14.7552 10.7918 14.9462C11.1379 15.1641 13.6267 16.8336 14.0016 17.1014C14.3765 17.3692 14.7566 17.4907 15.1046 17.4907C15.4526 17.4907 15.636 17.0323 15.8093 16.5Z" fill="#82C83C"/>
</g>
<defs>
<clipPath id="clip0_989_55816">
<rect width="24" height="24" fill="white"/>
</clipPath>
</defs>
</svg>
