<svg width="17" height="15" viewBox="0 0 17 15" fill="none" xmlns="http://www.w3.org/2000/svg">
<path d="M0.676162 6.66716e-05C0.58782 -0.00118269 0.500112 0.0151382 0.418133 0.0480807C0.336154 0.0810232 0.26154 0.12993 0.198627 0.19196C0.135714 0.25399 0.0857563 0.327905 0.0516578 0.409409C0.0175594 0.490914 0 0.578383 0 0.666733C0 0.755083 0.0175594 0.842552 0.0516578 0.924057C0.0857563 1.00556 0.135714 1.07948 0.198627 1.14151C0.26154 1.20354 0.336154 1.25244 0.418133 1.28539C0.500112 1.31833 0.58782 1.33465 0.676162 1.3334H1.21002L6.00949 7.3334H10.0095L14.809 1.3334H15.3428C15.4312 1.33465 15.5189 1.31833 15.6009 1.28539C15.6828 1.25244 15.7575 1.20354 15.8204 1.14151C15.8833 1.07948 15.9332 1.00556 15.9673 0.924057C16.0014 0.842552 16.019 0.755083 16.019 0.666733C16.019 0.578383 16.0014 0.490914 15.9673 0.409409C15.9332 0.327905 15.8833 0.25399 15.8204 0.19196C15.7575 0.12993 15.6828 0.0810232 15.6009 0.0480807C15.5189 0.0151382 15.4312 -0.00118269 15.3428 6.66716e-05H0.676162ZM6.00949 8.66673V14.6667L10.0095 13.3334V8.66673H6.00949Z" fill="#82C83C"/>
</svg>
