<svg width="36" height="36" viewBox="0 0 36 36" fill="none" xmlns="http://www.w3.org/2000/svg">
<path d="M22.4551 2.33997C22.2751 2.3709 22.1147 2.46653 22.0051 2.60997L8.28006 19.71C8.10568 19.9265 8.07193 20.2218 8.19287 20.4722C8.31381 20.7225 8.56693 20.88 8.84256 20.88H16.3801L12.7801 32.715C12.6479 33.0553 12.7913 33.4378 13.1119 33.6093C13.4326 33.7809 13.8291 33.6881 14.0401 33.39L27.7201 16.29C27.8944 16.0734 27.9282 15.7781 27.8072 15.5278C27.6863 15.2775 27.4332 15.12 27.1576 15.12H19.8901L23.2426 3.26247C23.3072 3.04028 23.2622 2.7984 23.1188 2.61559C22.9754 2.43278 22.7532 2.33153 22.5226 2.33997C22.5001 2.33997 22.4776 2.33997 22.4551 2.33997ZM20.9026 6.27747L18.2251 15.6375C18.1604 15.8568 18.2054 16.0931 18.3404 16.2731C18.4782 16.4559 18.6947 16.5628 18.9226 16.56H25.6501L15.2551 29.5875L18.0676 20.3625C18.1322 20.1431 18.0872 19.9068 17.9522 19.7268C17.8144 19.544 17.5979 19.4372 17.3701 19.44H10.3501L20.9026 6.27747Z" fill="#C5C5CC"/>
</svg>
