<svg width="24" height="21" viewBox="0 0 24 21" fill="none" xmlns="http://www.w3.org/2000/svg">
<path d="M9.99571 0C7.79071 0 5.99571 1.795 5.99571 4C5.99571 6.205 7.79071 8 9.99571 8C12.2007 8 13.9957 6.206 13.9957 4C13.9957 1.794 12.2007 0 9.99571 0ZM3.95274 2.98828C3.75642 2.99776 3.56725 3.06487 3.40885 3.18124C3.25045 3.29761 3.12985 3.45807 3.06212 3.64258L0.114854 11.3262C0.109346 11.3397 0.104137 11.3534 0.0992291 11.3672C-0.323841 12.6344 0.661665 14 1.99767 14H7.84142C7.99633 14.5229 8.1277 14.9663 8.18907 15.166L9.83946 21H18.1383L16.4938 15.252L19.1012 15.4297L21.9547 20.1543L22.1012 20.4473C22.1599 20.5648 22.2412 20.6695 22.3404 20.7556C22.4396 20.8417 22.5548 20.9074 22.6794 20.9489C22.8041 20.9905 22.9356 21.0071 23.0666 20.9978C23.1977 20.9884 23.3256 20.9534 23.4431 20.8947C23.5605 20.8359 23.6653 20.7546 23.7514 20.6554C23.8374 20.5562 23.9031 20.441 23.9446 20.3163C23.9861 20.1917 24.0027 20.0601 23.9934 19.9291C23.9841 19.7981 23.949 19.6702 23.8902 19.5527L20.8902 13.5527C20.7833 13.34 20.6039 13.1724 20.3844 13.0801C20.3844 13.0801 20.3134 13.0513 20.3121 13.0508H20.3102C20.1867 13.0006 14.4629 10.6741 13.4488 10.2754C12.9988 10.0974 12.5087 10 11.9957 10C11.8146 10 11.6332 10.0254 11.4527 10.0625L3.41564 11L4.93321 4.3457C4.99278 4.19053 5.01274 4.02296 4.99127 3.85813C4.96981 3.69331 4.9076 3.53644 4.81027 3.40169C4.71295 3.26695 4.58358 3.15859 4.43385 3.08641C4.28413 3.01423 4.11878 2.9805 3.95274 2.98828Z" fill="#82C83C"/>
</svg>
