<svg width="21" height="26" viewBox="0 0 21 26" fill="none" xmlns="http://www.w3.org/2000/svg">
<path d="M8.5 0C7.83696 0 7.20107 0.263392 6.73223 0.732233C6.26339 1.20107 6 1.83696 6 2.5C6 3.16304 6.26339 3.79893 6.73223 4.26777C7.20107 4.73661 7.83696 5 8.5 5C8.8283 5 9.15339 4.93534 9.45671 4.8097C9.76002 4.68406 10.0356 4.49991 10.2678 4.26777C10.4999 4.03562 10.6841 3.76002 10.8097 3.45671C10.9353 3.15339 11 2.8283 11 2.5C11 1.83696 10.7366 1.20107 10.2678 0.732233C9.79893 0.263392 9.16304 0 8.5 0ZM6.48828 7C5.84628 7 5.22108 7.20589 4.70508 7.58789L2.53125 9.19531C2.12625 9.49431 1.8038 9.89066 1.5918 10.3477L0.123047 13.5156L0.125 13.5176C0.0432895 13.6653 0.000287523 13.8312 0 14C0 14.2652 0.105357 14.5196 0.292893 14.7071C0.48043 14.8946 0.734784 15 1 15C1.19854 15.0001 1.3926 14.941 1.55747 14.8304C1.72234 14.7198 1.85055 14.5626 1.92578 14.3789L3.48047 11.2969L5 10.25L5.00391 14.4199C5.00218 14.4466 5.00087 14.4733 5 14.5C5.00035 14.5397 5.00166 14.5795 5.00391 14.6191V14.6211C5.02198 14.9869 5.12022 15.3443 5.29167 15.668C5.46312 15.9916 5.7036 16.2737 5.99609 16.4941L6 16.5L6.0293 16.5176C6.1309 16.592 6.23797 16.6586 6.34961 16.7168L9.83203 18.877L12.0645 24.3535C12.0682 24.3627 12.0721 24.3718 12.0762 24.3809L12.1074 24.457L12.1113 24.4551C12.195 24.6188 12.3223 24.7564 12.479 24.8525C12.6358 24.9486 12.8161 24.9997 13 25C13.2652 25 13.5196 24.8946 13.7071 24.7071C13.8946 24.5196 14 24.2652 14 24C13.9997 23.8841 13.9792 23.7691 13.9395 23.6602H13.9414L12.4395 18.1699C12.3695 17.9129 12.2499 17.6729 12.0859 17.4629L9.99609 14.7969V14.5801C9.99782 14.5534 9.99913 14.5267 10 14.5C9.99947 14.4642 9.99817 14.4284 9.99609 14.3926L10 10.2305L14.1719 14.5605C14.2635 14.6959 14.3869 14.8067 14.5312 14.8833C14.6756 14.9599 14.8366 15 15 15C15.2652 15 15.5196 14.8946 15.7071 14.7071C15.8946 14.5196 16 14.2652 16 14C15.9999 13.8456 15.9641 13.6933 15.8953 13.555C15.8265 13.4168 15.7266 13.2963 15.6035 13.2031L10.5957 7.6582C10.2167 7.2392 9.67733 7 9.11133 7H6.48828ZM16.7188 15.9902C16.6016 15.9947 16.4871 16.0266 16.3845 16.0834C16.2818 16.1401 16.194 16.2201 16.1279 16.317C16.0618 16.4138 16.0193 16.5249 16.0039 16.6411C15.9885 16.7573 16.0005 16.8756 16.0391 16.9863L18.5391 24.4863C18.5664 24.5842 18.6133 24.6754 18.6769 24.7546C18.7406 24.8337 18.8196 24.8991 18.9093 24.9468C18.999 24.9945 19.0974 25.0235 19.1986 25.032C19.2998 25.0405 19.4017 25.0284 19.4981 24.9964C19.5945 24.9643 19.6834 24.913 19.7593 24.8456C19.8353 24.7782 19.8968 24.6961 19.9401 24.6042C19.9834 24.5123 20.0075 24.4126 20.0111 24.3111C20.0147 24.2096 19.9976 24.1084 19.9609 24.0137L17.4609 16.5137C17.4115 16.3573 17.3121 16.2214 17.1781 16.1269C17.044 16.0323 16.8827 15.9843 16.7188 15.9902ZM4.67188 17.9863L4.38281 19.5742L2.12305 23.5215C2.04265 23.6682 2.00035 23.8327 2 24C2 24.2652 2.10536 24.5196 2.29289 24.7071C2.48043 24.8946 2.73478 25 3 25C3.18763 24.9997 3.37138 24.9466 3.53025 24.8468C3.68913 24.7469 3.81672 24.6044 3.89844 24.4355L6.60352 20.6543L6.9375 19.3691L4.67188 17.9863Z" fill="#82C83C"/>
</svg>
