<svg width="16" height="25" viewBox="0 0 16 25" fill="none" xmlns="http://www.w3.org/2000/svg">
<path d="M8.5 0C7.83696 0 7.20107 0.263392 6.73223 0.732233C6.26339 1.20107 6 1.83696 6 2.5C6 3.16304 6.26339 3.79893 6.73223 4.26777C7.20107 4.73661 7.83696 5 8.5 5C9.16304 5 9.79893 4.73661 10.2678 4.26777C10.7366 3.79893 11 3.16304 11 2.5C11 1.83696 10.7366 1.20107 10.2678 0.732233C9.79893 0.263392 9.16304 0 8.5 0ZM8.5 7C7.83696 7 7.20107 7.26339 6.73223 7.73223C6.26339 8.20107 6 8.83696 6 9.5V12C2.69814 12 0 14.6981 0 18C0 21.3019 2.69814 24 6 24C9.30186 24 12 21.3019 12 18C12 17.9011 11.9892 17.8048 11.9844 17.707L13.4453 18.1641L14 23C13.9981 23.1325 14.0226 23.2641 14.072 23.387C14.1214 23.51 14.1948 23.6219 14.2878 23.7163C14.3809 23.8107 14.4918 23.8856 14.614 23.9368C14.7363 23.9879 14.8675 24.0142 15 24.0142C15.1325 24.0142 15.2637 23.9879 15.386 23.9368C15.5082 23.8856 15.6191 23.8107 15.7122 23.7163C15.8052 23.6219 15.8786 23.51 15.928 23.387C15.9774 23.2641 16.0019 23.1325 16 23V16C16.0001 15.7901 15.9341 15.5854 15.8115 15.415C15.6888 15.2447 15.5156 15.1172 15.3164 15.0508L11 13.6113V9.5C11 8.83696 10.7366 8.20107 10.2678 7.73223C9.79893 7.26339 9.16304 7 8.5 7ZM6 14C6.88618 14 7.69495 14.2919 8.35547 14.7734C9.35037 15.4987 10 16.6652 10 18C10 20.221 8.22098 22 6 22C3.77902 22 2 20.221 2 18C2 15.779 3.77902 14 6 14Z" fill="#82C83C"/>
</svg>
