<svg width="20" height="20" viewBox="0 0 20 20" fill="none" xmlns="http://www.w3.org/2000/svg">
<path d="M8.66571 1.33325C8.29771 1.33325 7.99904 1.63192 7.99904 1.99992V5.03507L6.56154 7.64445C6.50161 7.54937 6.41862 7.47099 6.32027 7.41658C6.22193 7.36217 6.11143 7.33351 5.99904 7.33325H1.99904C1.90752 7.33321 1.81697 7.35202 1.73303 7.3885C1.64909 7.42498 1.57356 7.47835 1.51114 7.54528C1.44872 7.61222 1.40075 7.69129 1.37022 7.77757C1.33969 7.86385 1.32725 7.95549 1.33368 8.04679L2.00034 17.3801C2.01222 17.5485 2.08749 17.706 2.21097 17.821C2.33445 17.9361 2.49696 18 2.66571 17.9999H5.99904C6.17585 17.9999 6.34541 17.9297 6.47043 17.8046C6.59545 17.6796 6.66569 17.5101 6.66571 17.3333H7.76467C8.00133 17.7366 8.42405 17.9999 8.90139 17.9999H15.3324C16.069 17.9999 16.6657 17.4033 16.6657 16.6666C16.6657 16.4166 16.593 16.1856 16.473 15.9856C17.327 15.9129 17.999 15.2059 17.999 14.3333C17.999 13.9066 17.834 13.5211 17.5707 13.2265C18.2087 12.9925 18.6657 12.3859 18.6657 11.6666C18.6657 11.1186 18.3973 10.6373 17.9899 10.3333C18.3979 10.0293 18.6657 9.54792 18.6657 8.99992C18.6657 8.07925 17.9197 7.33325 16.999 7.33325H11.0095C11.1821 6.55859 11.3324 5.72525 11.3324 5.33325C11.3324 3.80592 10.1231 1.33325 9.30243 1.33325H8.66571ZM2.71519 8.66658H5.33237V16.6666H3.2868L2.71519 8.66658Z" fill="#82C83C"/>
</svg>
