<svg width="15" height="18" viewBox="0 0 15 18" fill="none" xmlns="http://www.w3.org/2000/svg">
<path d="M7.33333 0C3.28333 0 0 3.28333 0 7.33333C0 12.156 4.768 14.4647 5.36533 15.002C5.97533 15.5507 6.47933 16.7807 6.68267 17.478C6.78133 17.8167 7.05867 17.988 7.33333 17.9953C7.60867 17.9873 7.88533 17.816 7.984 17.478C8.18733 16.7807 8.69133 15.5513 9.30133 15.002C9.89867 14.4647 14.6667 12.156 14.6667 7.33333C14.6667 3.28333 11.3833 0 7.33333 0ZM7.33333 9.33333C6.22867 9.33333 5.33333 8.438 5.33333 7.33333C5.33333 6.22867 6.22867 5.33333 7.33333 5.33333C8.438 5.33333 9.33333 6.22867 9.33333 7.33333C9.33333 8.438 8.438 9.33333 7.33333 9.33333Z" fill="white"/>
</svg>
