<svg width="186" height="51" viewBox="0 0 186 51" fill="none" xmlns="http://www.w3.org/2000/svg">
<path d="M143.229 16.9327C145.991 11.6053 151.356 12.5081 153.057 13.126C155.278 13.9347 156.787 15.6117 157.443 17.7427C157.736 18.6396 157.812 19.6844 157.817 20.5065C157.806 20.8406 157.825 21.1751 157.81 21.5198H146.006C146.021 21.8594 145.983 23.8661 148.612 25.071C150.223 25.704 151.765 25.5432 152.841 25.0415C153.894 24.5929 154.576 23.7775 154.63 23.7135C155.37 24.4289 156.083 25.123 156.802 25.8202C156.624 25.9971 156.459 26.1771 156.278 26.3434C155.26 27.28 154.089 27.9389 152.738 28.2624C151.518 28.6377 149.278 28.7795 147.103 27.9252C144.777 27.0006 143.315 25.3147 142.703 22.8982C142.448 21.8946 142.409 20.8742 142.485 19.8477C142.56 18.8319 142.789 17.854 143.229 16.9327ZM103.978 12.6567C106.407 12.6567 108.238 13.3352 109.281 14.6869V13.0061H112.89V23.4719C112.89 23.8531 112.896 24.2363 113.006 24.6069C113.151 25.1043 113.452 25.3359 113.972 25.3404C114.159 25.3419 114.671 25.2959 114.755 25.2883V25.4204L114.758 25.4239V28.0781C114.758 28.0781 114.144 28.3437 113.402 28.4032C112.762 28.455 112.188 28.4424 111.557 28.2519C110.597 27.9621 109.959 27.1456 109.655 26.2165C108.534 27.6321 106.776 28.5073 104.207 28.5075C100.228 28.5075 96.8634 25.2652 96.8631 20.5743C96.8631 15.8831 100.491 12.6569 103.978 12.6567ZM67.6984 12.6497C70.6853 12.6588 72.499 14.9178 72.5173 14.9407L70.3839 16.9275C70.3839 16.9275 69.6534 16.1887 68.455 15.8394C66.9959 15.4919 66.238 15.7543 65.8132 16.1036C65.2767 16.5108 65.1222 17.5204 65.9075 18.0086C66.4852 18.4007 68.6829 19.0847 69.5086 19.3853C70.242 19.6552 70.9394 19.9949 71.572 20.463C72.6466 21.2609 73.1821 22.3301 73.1882 23.6665C73.1927 24.6334 72.9637 25.5318 72.3985 26.3295C71.9674 26.9367 71.4057 27.3879 70.7438 27.7235C69.0946 28.5855 66.8449 28.5102 66.2517 28.4675C65.0747 28.3851 64.0323 28.0608 62.9914 27.4871C61.4528 26.5516 60.8978 25.5763 60.8825 25.549L63.077 23.531C63.077 23.531 63.9577 24.7763 65.607 25.2188C66.4264 25.4247 68.2879 25.703 69.3303 24.7408C70.0029 24.0466 69.9814 23.0969 68.9023 22.5767C68.4299 22.3158 65.7728 21.4122 64.9658 21.1009C62.6749 20.2801 62.0444 18.5594 61.9588 17.6228C61.8809 16.7824 61.9839 15.9725 62.3659 15.2084C62.771 14.3891 63.4008 13.7874 64.1987 13.3572C65.2914 12.77 66.4713 12.6467 67.6984 12.6497ZM80.2225 12.9991L80.2208 13.0008H83.2819V16.2565H80.2208C80.2207 16.3051 80.2095 22.0113 80.2278 23.1729C80.2538 24.8846 80.9301 25.4676 82.639 25.2831C82.8392 25.2617 83.04 25.2427 83.3029 25.2153V28.165C81.2335 28.7737 78.1949 28.4336 77.2697 26.5363C76.8509 25.6789 76.6798 24.8254 76.6355 23.8734C76.5595 21.6854 76.5932 16.3292 76.5936 16.2704H74.6279V13.0043H76.5936V7.13959H80.2225V12.9991ZM182.544 13.0008H185.626V16.2565H182.542C182.542 16.31 182.531 22.0119 182.549 23.1729C182.575 24.8844 183.251 25.4675 184.96 25.2831C185.16 25.2617 185.361 25.2427 185.624 25.2153V28.165C183.554 28.7737 180.516 28.4337 179.591 26.5363C179.172 25.6789 179.001 24.8254 178.956 23.8734C178.85 21.6287 178.914 16.3329 178.915 16.2704H176.949V13.0043H178.915V7.16045H182.544V13.0008ZM164.075 15.0085C165.593 12.9384 167.553 12.4338 169.74 12.7801C172.492 13.2181 174.182 15.1943 174.286 18.0573C174.298 19.946 174.28 21.2982 174.286 22.8878C174.286 23.1563 174.28 23.5927 174.286 23.8612C174.312 25.109 174.744 25.4113 176.009 25.1979L176.007 28.1511C174.182 28.8453 171.908 28.1995 171.202 26.7258C170.921 26.1387 170.774 25.4436 170.746 24.7894C170.678 23.1587 170.717 21.5199 170.706 19.8877C170.705 19.5308 170.694 19.1705 170.657 18.8152C170.471 16.9875 169.356 15.937 167.586 15.9141C165.77 15.8897 164.305 17.0923 164.142 18.8239C164.052 19.7789 164.079 21.7093 164.079 21.7093L164.075 28.1372H160.534V12.9939H164.075V15.0085ZM59.96 28.165H56.0409L54.1994 23.9898H44.9233L43.2478 28.1581H39.2676L47.8272 7.15523H51.5383L59.96 28.165ZM90.4211 14.6556C91.9466 11.9264 95.862 12.794 95.862 12.794V16.1748H95.8602C95.8602 16.1748 94.6056 15.9725 93.774 16.0653C91.6218 16.2713 90.2407 17.8542 90.2376 20.0267C90.2316 22.6885 90.2375 28.0579 90.2376 28.1337H86.6873V13.0008H90.2079V15.0154C90.3071 14.8403 90.3829 14.712 90.4211 14.6556ZM129.552 7.1813C134.713 7.1813 137.451 9.74264 138.658 11.5825C139.378 12.6793 139.842 13.8822 140.088 15.1667C140.467 17.1606 140.423 19.1475 139.882 21.1079C139.093 23.8858 137.146 26.286 134.013 27.3828C132.593 27.8908 131.122 28.1171 129.62 28.1233C127.063 28.1355 121.811 28.1285 121.81 28.1285V7.17957C121.812 7.17956 127.02 7.17368 129.552 7.1813ZM104.981 15.9645C102.465 15.9646 100.429 18.0354 100.429 20.5847C100.429 23.1338 102.466 25.2013 104.981 25.2014C107.497 25.2014 109.532 23.1353 109.532 20.5847C109.532 18.0339 107.497 15.9645 104.981 15.9645ZM125.581 10.5778L125.582 24.7355C125.582 24.7355 128.45 24.7585 129.837 24.7112C133.67 24.5784 135.336 22.3713 135.854 21.2834C136.2 20.5573 137.031 17.7165 136.172 14.8851C135.616 13.0925 134.457 11.8511 132.702 11.1722C131.666 10.7712 130.586 10.6033 129.484 10.5865C128.224 10.5651 125.581 10.5778 125.581 10.5778ZM46.1482 20.8506H53.1091L49.6269 11.8432L46.1482 20.8506ZM151.787 15.9628C150.447 15.5158 147.685 15.3029 146.352 18.146C146.237 18.4221 146.164 18.6621 146.112 18.9977H154.167C154.161 18.6149 154.073 18.1728 153.919 17.8418C153.486 16.9052 152.751 16.2893 151.787 15.9628Z" fill="#43434A"/>
<rect y="0.00012207" width="36" height="36" rx="18" fill="white"/>
<path d="M17.9982 0.00012207C27.9374 0.00012207 36 8.05978 36 18.0001C36 27.9405 27.9389 36.0001 17.9982 36.0001C8.05794 35.9997 1.51517e-07 27.9402 0 18.0001C0 8.06005 8.05948 0.000562536 17.9982 0.00012207ZM19.9143 1.80012C19.1997 1.80012 18.5216 2.15186 18.1002 2.73704C18.0331 2.83087 17.9745 2.92886 17.9227 3.02883C17.8724 2.93204 17.8159 2.83847 17.7504 2.74934C17.3307 2.16898 16.6531 1.81969 15.9434 1.81946C15.8334 1.81946 15.7193 1.82867 15.6094 1.84407C14.8415 1.96119 14.1981 2.46118 13.8867 3.18176C13.818 3.34036 13.7678 3.50348 13.7373 3.66516C13.7343 3.6606 13.7295 3.65566 13.725 3.6511C13.3067 3.22016 12.7217 2.97258 12.1219 2.97258C11.7954 2.97269 11.4789 3.0435 11.1814 3.18352C10.4765 3.51319 9.99967 4.1767 9.90351 4.95715C9.88368 5.1219 9.88122 5.2857 9.89648 5.44583C9.56978 5.26105 9.19737 5.15932 8.79434 5.1593C8.25233 5.1593 7.72718 5.35794 7.31953 5.71829C6.7351 6.23399 6.46011 7.00618 6.58652 7.78196C6.61401 7.95135 6.65928 8.11466 6.72188 8.26711C6.55555 8.22866 6.3843 8.20559 6.21035 8.20559C5.43649 8.20578 4.72909 8.59937 4.31543 9.25676C3.89895 9.91883 3.8533 10.7388 4.19063 11.447C4.26369 11.6004 4.35242 11.7414 4.4543 11.8689C3.51108 11.9215 2.68681 12.5782 2.42578 13.5019C2.23037 14.1902 2.36421 14.9119 2.79316 15.4847C2.93354 15.6709 3.09876 15.8337 3.28184 15.9646C2.97217 16.0755 2.69015 16.2574 2.45215 16.499C2.02773 16.9286 1.79695 17.5004 1.8 18.1056C1.80643 19.0924 2.44681 19.9337 3.32754 20.2308C3.14307 20.3646 2.97768 20.5267 2.83887 20.7142C2.41747 21.2855 2.28753 22.0355 2.48906 22.7146C2.76107 23.6181 3.57833 24.2623 4.50176 24.3177C4.41171 24.4393 4.33184 24.5716 4.26621 24.7132C3.93505 25.4261 3.99124 26.2442 4.41563 26.9017C4.82944 27.545 5.53488 27.93 6.29648 27.93C6.47481 27.93 6.64713 27.9084 6.81328 27.8685C6.75697 28.0175 6.71464 28.1728 6.69023 28.3325C6.57267 29.1102 6.85347 29.8814 7.44434 30.3927C7.84889 30.7437 8.36731 30.9359 8.90156 30.9359C9.30584 30.9358 9.68843 30.8271 10.0195 30.6318C10.0058 30.7935 10.0087 30.9592 10.0301 31.124C10.134 31.9029 10.6208 32.562 11.3291 32.8853C11.6206 33.0176 11.9295 33.0857 12.2484 33.0857C12.8528 33.0855 13.4391 32.834 13.8604 32.3984C13.868 32.3892 13.8774 32.3794 13.885 32.3702C13.917 32.5366 13.9677 32.7021 14.0379 32.8607C14.3571 33.578 15.007 34.0713 15.7764 34.179C15.8785 34.1929 15.9836 34.2001 16.0857 34.2001C16.8003 34.2001 17.4784 33.8482 17.8998 33.2615C17.9668 33.1692 18.0255 33.0711 18.0773 32.9697C18.1276 33.0665 18.1841 33.1617 18.2496 33.2509C18.6693 33.8313 19.3469 34.1788 20.0566 34.179C20.1666 34.179 20.2807 34.1714 20.3906 34.1544C21.1584 34.0388 21.8034 33.5388 22.1133 32.8167C22.1819 32.6582 22.2322 32.4965 22.2627 32.3333C22.2657 32.3379 22.2704 32.3443 22.275 32.3474C22.6933 32.7784 23.2782 33.0259 23.8781 33.0259C24.2046 33.0258 24.5211 32.9552 24.8186 32.8167C25.5235 32.4855 26.0003 31.8235 26.0965 31.0431C26.1163 30.8768 26.1188 30.713 26.1035 30.5544C26.4302 30.7392 26.8026 30.8409 27.2057 30.8409C27.7477 30.8409 28.2728 30.6423 28.6805 30.282C29.2649 29.7647 29.5399 28.9941 29.4135 28.2183C29.386 28.0492 29.3406 27.8854 29.2781 27.7331C29.4443 27.7731 29.6158 27.7947 29.7896 27.7947C30.5635 27.7945 31.2709 27.4009 31.6846 26.7435C32.1026 26.0814 32.1467 25.2614 31.8094 24.5532C31.7363 24.3998 31.6476 24.2588 31.5457 24.1314C32.4889 24.0772 33.3132 23.4203 33.5742 22.4966C33.7696 21.8099 33.6358 21.0883 33.2068 20.5156C33.0665 20.3278 32.9012 20.1665 32.7182 20.0357C33.0278 19.9232 33.3099 19.7429 33.5479 19.5013C33.9723 19.0717 34.2031 18.4998 34.2 17.8947C34.1936 16.9063 33.5532 16.0666 32.6725 15.7695C32.8569 15.6357 33.0223 15.4736 33.1611 15.2861C33.5824 14.7134 33.7122 13.9662 33.5109 13.2857C33.2392 12.3817 32.4219 11.738 31.4982 11.6825C31.5883 11.5594 31.6682 11.4271 31.7338 11.287C32.0649 10.5743 32.0085 9.75594 31.5844 9.09856C31.1706 8.45641 30.4654 8.07024 29.7035 8.07024C29.5252 8.07024 29.3529 8.09185 29.1867 8.13176C29.2431 7.98267 29.2854 7.8273 29.3098 7.66594C29.4273 6.88828 29.1465 6.1188 28.5557 5.60754C28.1511 5.25659 27.6327 5.06438 27.0984 5.06438C26.6942 5.06446 26.3116 5.17312 25.9805 5.36848C25.9942 5.20679 25.9913 5.04107 25.9699 4.87629C25.866 4.09576 25.3792 3.43828 24.6709 3.11497C24.3794 2.98112 24.0705 2.91458 23.7516 2.91458C23.1472 2.91474 22.5609 3.16623 22.1396 3.60188C22.132 3.61107 22.1226 3.62081 22.115 3.63C22.083 3.46369 22.0323 3.29819 21.9621 3.13958C21.6429 2.42223 20.993 1.92899 20.2236 1.82122C20.1215 1.80586 20.0164 1.80014 19.9143 1.80012ZM17.7029 31.3243C17.895 31.9124 17.8172 32.4929 17.4814 32.9609L17.3496 33.1208C17.0259 33.4734 16.5687 33.6798 16.0893 33.6798C16.0099 33.6798 15.9296 33.673 15.8502 33.6622C15.2598 33.5788 14.7604 33.2022 14.5178 32.6497C14.2689 32.0877 14.3359 31.4524 14.7023 30.9042C15.4976 29.7141 15.8535 29.1737 16.5357 28.1392C16.5495 28.1192 16.5662 28.0977 16.5814 28.0777C16.5981 28.0532 16.614 28.0283 16.6307 28.0038C17.0245 29.248 17.2449 29.9246 17.7029 31.3243ZM21.433 30.8691C21.804 31.4111 21.8779 32.0492 21.6352 32.6128C21.397 33.1656 20.9008 33.5501 20.3115 33.6394C20.2278 33.6516 20.1419 33.6587 20.0566 33.6587C19.5135 33.6585 18.9935 33.3914 18.6715 32.9468C18.3372 32.4864 18.2548 31.9075 18.4395 31.3208C18.8882 29.8921 19.0765 29.2787 19.4748 27.9827C20.203 29.0713 20.6041 29.6542 21.433 30.8691ZM13.9764 30.6933C13.9977 31.3613 13.7215 31.7929 13.4895 32.0363C13.1658 32.372 12.7161 32.5636 12.252 32.5636L12.0691 32.5531C11.8895 32.5335 11.7153 32.4851 11.5471 32.4089C11.0036 32.161 10.6316 31.6561 10.5521 31.0572C10.4697 30.4477 10.7133 29.8583 11.2166 29.4364C12.3615 28.4818 12.8509 28.0684 13.8797 27.197C13.9087 28.5086 13.9306 29.2185 13.9764 30.6933ZM24.8994 29.3679C25.406 29.7821 25.6545 30.3721 25.5797 30.9833L25.5375 31.2031C25.411 31.7052 25.071 32.1223 24.5971 32.3421C24.3682 32.4498 24.1266 32.5038 23.8764 32.5038C23.4168 32.5038 22.965 32.3131 22.6459 31.9835C22.4109 31.7416 22.1365 31.3159 22.1502 30.6529C22.1822 29.1551 22.1919 28.513 22.2117 27.1566C23.2148 27.9912 23.762 28.4378 24.8994 29.3679ZM18.0422 26.1177C18.3811 26.1208 18.6924 26.284 18.8771 26.5519C19.1044 26.8799 19.1293 27.337 18.9492 27.8404C18.6637 28.6427 18.3039 29.8486 18.0703 30.6493C17.8184 29.8655 17.4412 28.6848 17.1756 27.8825C16.9941 27.3376 17.0283 26.8462 17.274 26.5044C17.4511 26.2568 17.7262 26.1177 18.0299 26.1177H18.0422ZM10.5996 29.0374C10.3843 29.8736 9.71886 30.4138 8.90508 30.4138C8.49616 30.4136 8.10016 30.2632 7.78887 29.9954L7.62891 29.839C7.28611 29.455 7.13019 28.9377 7.20879 28.4152C7.30189 27.8086 7.69942 27.3081 8.30215 27.0493C9.6671 26.458 10.2517 26.199 11.4838 25.6554C11.1449 26.9209 10.9674 27.6075 10.5996 29.0374ZM27.791 26.9474C28.3938 27.2015 28.799 27.6961 28.8967 28.3027C28.9942 28.8983 28.7828 29.4893 28.3342 29.8864L28.2129 29.9866C27.9207 30.2015 27.5669 30.3171 27.2021 30.3171C26.3979 30.3169 25.7361 29.785 25.5146 28.9601C25.1253 27.5141 24.9556 26.896 24.5953 25.5886C25.7891 26.1044 26.4414 26.3792 27.791 26.9474ZM15.4916 25.8083C15.5863 25.8083 15.6832 25.8213 15.7764 25.8505C16.1 25.9522 16.3526 26.1984 16.4549 26.5079C16.5572 26.8205 16.5024 27.1772 16.3055 27.5345L16.2229 27.6575C16.1833 27.7203 16.1446 27.7806 16.1051 27.8404C15.6106 28.5269 14.9551 29.5304 14.523 30.2064C14.5032 29.3828 14.4732 28.1441 14.4457 27.299C14.4289 26.7987 14.5608 26.3731 14.8201 26.1036C15.0032 25.9129 15.2399 25.8085 15.4916 25.8083ZM20.6244 25.8118C20.9066 25.812 21.1665 25.9251 21.3557 26.1282C21.5996 26.3884 21.7115 26.7762 21.6826 27.2515C21.6322 28.1045 21.6246 29.3629 21.6246 30.1976C21.165 29.5154 20.4712 28.4909 19.9934 27.7964L19.8809 27.6171C19.6436 27.2007 19.5823 26.7883 19.7051 26.4394C19.8089 26.1499 20.0377 25.9372 20.3309 25.854C20.427 25.8263 20.5267 25.8118 20.6244 25.8118ZM13.3172 24.6851C13.4519 24.706 13.5819 24.7578 13.6986 24.8363C13.9791 25.0271 14.1518 25.3346 14.1627 25.6607C14.1734 26.0595 13.9457 26.4588 13.5229 26.7822C12.8495 27.2965 11.8933 28.1089 11.2658 28.6525C11.4811 27.8564 11.8007 26.661 12.0129 25.8417C12.2372 24.9846 12.7616 24.6785 13.1783 24.6781L13.3172 24.6851ZM22.9482 24.6376C23.4943 24.638 23.9162 25.0563 24.075 25.7609C24.2643 26.5922 24.6076 27.8025 24.8396 28.6032C24.2092 28.0797 23.2589 27.2956 22.6055 26.7628C22.1597 26.3979 21.9256 25.9646 21.9516 25.5411C21.9699 25.2347 22.1315 24.9659 22.391 24.8011C22.5618 24.6937 22.7547 24.6376 22.9482 24.6376ZM7.82051 26.4939C7.47708 27.0727 6.92424 27.4042 6.3 27.4044C5.71524 27.4044 5.17441 27.1097 4.85684 26.6169C4.53193 26.112 4.48942 25.4847 4.74258 24.9382C4.89831 24.6025 5.14724 24.3383 5.46328 24.1613C5.54099 24.1305 5.61912 24.0938 5.69531 24.0523C5.84332 23.9954 6.00362 23.9545 6.16992 23.9345C7.64612 23.7528 8.27739 23.671 9.61172 23.4986C8.93392 24.6179 8.57148 25.2284 7.82051 26.4939ZM29.8934 23.7956H29.8986C30.549 23.8695 31.0726 24.2277 31.3383 24.7835C31.5978 25.3271 31.564 25.956 31.2434 26.4657C30.9259 26.9691 30.3833 27.2689 29.7896 27.2691C29.196 27.2691 28.6233 26.9441 28.2797 26.3779C27.501 25.0997 27.1632 24.5524 26.4533 23.4036C27.7418 23.5592 28.4415 23.637 29.8934 23.7956ZM11.2148 23.0081C11.4894 23.0083 11.7397 23.1267 11.9197 23.3421C12.1395 23.6024 12.2241 23.9462 12.1447 24.265L12.099 24.4038C11.9648 24.7267 11.6613 24.9919 11.2271 25.1632C10.4393 25.4727 9.30072 25.9914 8.54648 26.3409C8.96939 25.6341 9.6041 24.5715 10.0301 23.8431C10.34 23.3134 10.7721 23.0081 11.2148 23.0081ZM24.9293 22.9712C25.3644 22.9712 25.762 23.2545 26.049 23.7657L26.3988 24.3739C26.7829 25.02 27.2445 25.7503 27.5801 26.2759C26.8275 25.9541 25.6943 25.4725 24.9188 25.1491C24.3892 24.9275 24.0433 24.5788 23.9484 24.1648C23.8798 23.8661 23.9565 23.5623 24.1594 23.3298C24.3609 23.1019 24.6407 22.9712 24.9293 22.9712ZM19.1496 9.73489C19.3298 10.143 19.682 10.4589 20.1217 10.5945C20.2636 10.6391 20.4089 10.6613 20.5523 10.6613C20.8545 10.6612 21.1398 10.566 21.3855 10.3906C21.4329 10.8447 21.6875 11.266 22.0781 11.5279C22.3192 11.6894 22.5959 11.7738 22.8797 11.774C23.0611 11.774 23.237 11.74 23.4018 11.6755C23.33 12.1189 23.461 12.5835 23.7586 12.9376C24.0365 13.2672 24.4381 13.4562 24.8625 13.4562C24.876 13.4562 24.8895 13.4545 24.9029 13.4544C24.7031 13.8624 24.6963 14.352 24.8871 14.7816C25.081 15.2219 25.4609 15.5248 25.9189 15.6218C25.9175 15.6218 25.9149 15.6275 25.9119 15.6306C25.6205 15.9676 25.4908 16.4196 25.5516 16.8751C25.6141 17.3293 25.8693 17.705 26.2371 17.9298C25.856 18.1608 25.5847 18.5545 25.5129 19.039C25.4472 19.4686 25.564 19.8883 25.8434 20.2132C25.8586 20.2317 25.8758 20.2508 25.8926 20.2677C25.479 20.391 25.1315 20.6892 24.9346 21.1079C24.7315 21.5407 24.7464 22.0301 24.9785 22.4474C24.9633 22.4474 24.9463 22.4491 24.9311 22.4491C24.4945 22.4491 24.0704 22.6449 23.7727 22.9835C23.4765 23.3208 23.3544 23.7553 23.4246 24.1911C23.2643 24.1372 23.1009 24.112 22.9482 24.112C22.6554 24.1122 22.368 24.1964 22.1133 24.3564C21.7106 24.6119 21.4605 25.031 21.4312 25.5095V25.5148C21.1934 25.3656 20.9189 25.2864 20.6262 25.2863C20.4813 25.2863 20.3341 25.306 20.1938 25.346C19.7649 25.4676 19.4241 25.7659 19.2516 26.1722C18.9645 25.8103 18.5225 25.5948 18.0492 25.5886H18.0316C17.5736 25.5886 17.1546 25.7984 16.8768 26.1634C16.6921 25.7785 16.3523 25.4803 15.9311 25.3478C15.7875 25.3031 15.6399 25.281 15.4934 25.281C15.2004 25.2811 14.9189 25.3716 14.6777 25.5394C14.6319 25.0838 14.381 24.6634 13.9904 24.3986C13.7477 24.2338 13.4689 24.1472 13.1818 24.1472C13.0079 24.1472 12.8398 24.1801 12.6826 24.2386C12.7452 23.8028 12.6151 23.3489 12.3205 22.9993C12.0443 22.6715 11.6466 22.484 11.2254 22.4808C11.4007 22.0882 11.4024 21.6261 11.2254 21.2152C11.0238 20.7502 10.6151 20.4354 10.125 20.3538C10.4074 20.0182 10.534 19.5696 10.473 19.1216C10.412 18.6736 10.1637 18.3041 9.80508 18.0792C10.1944 17.8482 10.4701 17.4488 10.5434 16.956C10.6075 16.5279 10.4905 16.11 10.2111 15.7835C10.1914 15.759 10.1691 15.7364 10.1479 15.715C10.557 15.5887 10.9032 15.2923 11.0971 14.8765C11.2967 14.4516 11.2839 13.9743 11.0672 13.5634C11.0853 13.5649 11.1053 13.5669 11.1234 13.5669C11.5662 13.5669 11.9949 13.3667 12.2941 13.0202C12.5872 12.6815 12.7049 12.2453 12.6316 11.8126C12.7735 11.8526 12.9138 11.8724 13.0465 11.8724C13.3395 11.8724 13.6263 11.7881 13.8797 11.6281C14.2751 11.3786 14.5236 10.9716 14.5617 10.5066C14.8058 10.6634 15.0876 10.7491 15.3896 10.7491C15.5316 10.7491 15.6739 10.7296 15.8098 10.6911C16.2662 10.5664 16.6242 10.2397 16.7906 9.79465C17.0761 10.1304 17.5008 10.3317 17.9543 10.3378H17.9736C18.4437 10.3377 18.8733 10.1167 19.1496 9.73489ZM4.65996 20.331C4.76981 20.331 4.88457 20.3406 4.99746 20.3591C6.46449 20.6024 7.09347 20.7034 8.42168 20.9128C7.46004 21.7965 6.94276 22.2787 5.87109 23.2841C5.74465 23.4008 5.61219 23.4975 5.47207 23.5759C5.39115 23.6082 5.3111 23.6448 5.23477 23.6849C5.04249 23.7587 4.83982 23.7974 4.63535 23.7974C3.88417 23.7974 3.21013 23.2905 2.9918 22.5652L2.94434 22.3665C2.86376 21.9009 2.97584 21.4128 3.25898 21.0288C3.58572 20.5853 4.09658 20.331 4.65996 20.331ZM31.398 20.1429C31.9551 20.1429 32.4633 20.3947 32.7885 20.8302C33.1183 21.2691 33.2196 21.8258 33.0715 22.3525L32.9713 22.6197C32.6899 23.2135 32.0875 23.6093 31.4209 23.6093C31.0409 23.6092 30.6757 23.4813 30.3521 23.2366C30.282 23.1766 30.1875 23.0945 30.0762 22.9976C29.1405 22.1463 28.6625 21.7148 27.8385 20.9761C27.7927 20.9299 27.7441 20.8839 27.7014 20.8407C27.6772 20.8179 27.6538 20.7971 27.6311 20.7757C28.9029 20.5601 29.597 20.4337 31.0307 20.1781H31.0342C31.1578 20.155 31.2806 20.1429 31.398 20.1429ZM9.86836 20.8583C10.2637 20.8583 10.5913 21.0705 10.7455 21.4261C10.8799 21.7387 10.8607 22.0933 10.6928 22.3736C10.4879 22.7145 10.0842 22.9242 9.55371 22.9642C8.71094 23.0304 7.47294 23.1933 6.65332 23.3087C7.26096 22.7559 8.17224 21.9234 8.78906 21.3505C9.13846 21.0274 9.51132 20.8586 9.86836 20.8583ZM26.325 20.7318C26.5814 20.7318 26.8411 20.8261 27.0914 21.0077L27.2285 21.1308C27.3201 21.2124 27.4062 21.2891 27.4887 21.3646C28.0902 21.9451 28.9311 22.6927 29.5066 23.1962L26.6396 22.864C26.0686 22.8024 25.6401 22.5621 25.4355 22.1925C25.2876 21.9247 25.2763 21.613 25.4074 21.3329C25.5815 20.9618 25.9326 20.7318 26.325 20.7318ZM18 13.4052C15.4037 13.4056 13.2996 15.511 13.2996 18.1073C13.3 20.7033 15.4039 22.8074 18 22.8077C20.5964 22.8077 22.7017 20.7036 22.7021 18.1073C22.7021 15.5108 20.5966 13.4052 18 13.4052ZM8.93672 18.364C9.47693 18.3642 9.88753 18.6963 9.95625 19.1919C9.99747 19.4968 9.91125 19.7981 9.71895 20.0198C9.50672 20.2647 9.19047 20.3943 8.79961 20.3943C8.6732 20.3942 8.53761 20.3812 8.40059 20.3521C7.57001 20.1858 6.33414 20.0059 5.51426 19.895C6.09749 19.6009 6.91701 19.1897 7.60254 18.8386C7.82366 18.7294 8.05946 18.6145 8.32324 18.4853L8.47969 18.4325C8.63611 18.3864 8.7889 18.364 8.93672 18.364ZM27.058 18.2304C27.3068 18.2305 27.5726 18.3074 27.8473 18.4536C28.5954 18.8494 29.7317 19.3775 30.4857 19.7193C29.6796 19.8625 28.4696 20.0783 27.6451 20.2308C27.0455 20.3415 26.5243 20.2074 26.2389 19.8704L26.1246 19.7052C26.0305 19.5292 25.997 19.328 26.0279 19.1198C26.0951 18.6779 26.4381 18.2304 27.058 18.2304ZM4.03594 16.3601C4.31349 16.3602 4.59089 16.4282 4.86387 16.5605C6.19828 17.2088 6.77805 17.4842 7.98574 18.0616C7.94311 18.0801 7.89981 18.1017 7.85566 18.1232C7.70604 18.2002 7.54151 18.2832 7.37051 18.371C6.5572 18.7712 5.94382 19.0811 4.88496 19.612C4.60578 19.7521 4.32121 19.8229 4.03594 19.823C3.09714 19.823 2.32846 19.0522 2.32207 18.1038L2.33086 17.9298C2.36805 17.5306 2.53969 17.1583 2.82305 16.8698C3.14825 16.5403 3.57944 16.3601 4.03594 16.3601ZM31.9658 16.1773C32.9046 16.1773 33.6733 16.9481 33.6797 17.8964L33.6709 18.0704C33.6337 18.4697 33.462 18.8419 33.1787 19.1304C32.8535 19.4599 32.4223 19.6402 31.9658 19.6402C31.7463 19.6401 31.5284 19.5968 31.3119 19.5154C31.2432 19.483 31.1518 19.4436 31.0465 19.3958C29.778 18.7815 29.1988 18.5044 28.0248 17.9439C28.072 17.9224 28.12 17.8984 28.1672 17.8753C28.5794 17.6628 29.1018 17.3994 29.6086 17.1423C30.0451 16.9237 30.5094 16.6928 31.1168 16.3864C31.396 16.2479 31.6805 16.1773 31.9658 16.1773ZM8.40762 15.7712C9.00764 15.6573 9.52859 15.7926 9.81563 16.1298C9.99244 16.3376 10.0694 16.6035 10.0283 16.8804C9.96117 17.3222 9.61896 17.7695 8.99648 17.7698L8.8084 17.754C8.61657 17.7265 8.41698 17.657 8.21074 17.5484C7.46135 17.1528 6.32612 16.6298 5.57051 16.288C6.37658 16.1448 7.58494 15.9252 8.40762 15.7712ZM27.2232 15.6025C27.3513 15.6025 27.4856 15.617 27.6258 15.6447C28.4564 15.8125 29.6923 15.9926 30.5121 16.1034C30.1838 16.2682 29.784 16.4682 29.3748 16.673C28.8331 16.9438 28.3278 17.1929 27.6275 17.5361C27.4413 17.6007 27.2604 17.6345 27.0879 17.6345C26.546 17.6344 26.1355 17.299 26.0684 16.8048C26.0257 16.5 26.1131 16.1986 26.3039 15.9769C26.5161 15.7306 26.834 15.6025 27.2232 15.6025ZM4.58086 12.3909C5.02038 12.3911 5.44343 12.5619 5.79902 12.8866C6.90243 13.8903 7.37545 14.3172 8.38125 15.2193C7.09797 15.4378 6.40471 15.5619 4.96582 15.8204C4.84225 15.842 4.71943 15.8538 4.60195 15.8538C4.04479 15.8538 3.53674 15.6022 3.21152 15.1665C2.88188 14.7263 2.7807 14.1725 2.92852 13.646L3.03047 13.3788C3.31186 12.7851 3.91436 12.3909 4.58086 12.3909ZM31.3664 12.2029C32.1175 12.2029 32.7916 12.7098 33.01 13.4351L33.0574 13.6337C33.1381 14.0985 33.0255 14.5875 32.741 14.9714C32.4143 15.413 31.9049 15.6693 31.3418 15.6693C31.2655 15.6693 31.1876 15.6629 31.1098 15.6552C31.0885 15.6521 31.0657 15.6495 31.043 15.6464C31.0308 15.6464 31.0165 15.6425 31.0043 15.6394C29.5402 15.3976 28.9106 15.2969 27.5854 15.0874C27.6143 15.0628 27.6443 15.038 27.6732 15.0118C27.7954 14.8948 27.9318 14.7681 28.0723 14.6357C28.6218 14.1292 29.056 13.7215 29.6666 13.1503C29.8986 12.9348 30.0965 12.753 30.2309 12.6282C30.3268 12.5499 30.4261 12.4812 30.5297 12.4243C30.6106 12.3905 30.6907 12.3552 30.767 12.3136C30.9592 12.2414 31.1605 12.2029 31.3664 12.2029ZM9.39023 13.124C9.96102 13.1856 10.3898 13.426 10.5943 13.7954C10.7436 14.0632 10.7537 14.375 10.6225 14.655L10.5521 14.7851C10.363 15.0773 10.0499 15.2544 9.70488 15.2544C9.3647 15.2541 9.01425 15.086 8.69238 14.7675C8.08625 14.1716 7.1477 13.3402 6.52324 12.7935C7.33549 12.8905 8.55661 13.0331 9.39023 13.124ZM29.315 12.7636C28.848 13.1961 28.2386 13.762 27.7242 14.2454C27.5517 14.404 27.3668 14.5722 27.1652 14.757C26.8601 15.0015 26.5417 15.1313 26.2336 15.1314C25.8443 15.1314 25.5177 14.9201 25.3635 14.5706C25.2245 14.258 25.2408 13.9032 25.4057 13.6214C25.6072 13.277 26.0086 13.0648 26.5377 13.0185C27.3804 12.9461 28.6162 12.7712 29.4346 12.6511C29.3936 12.6878 29.3545 12.7269 29.315 12.7636ZM11.1234 10.8634C11.6563 11.0805 12.0051 11.4263 12.1043 11.839C12.176 12.1377 12.1019 12.4434 11.9004 12.6775C11.6989 12.9099 11.4165 13.0413 11.1234 13.0413C10.6931 13.041 10.2956 12.7622 10.0072 12.2573L9.65039 11.6527C9.26024 11.0107 8.79274 10.2844 8.45156 9.76126C9.20705 10.0768 10.3448 10.5477 11.1234 10.8634ZM25.8521 12.3822L25.7414 12.5087C25.4799 12.7809 25.1748 12.9305 24.8625 12.9306C24.5879 12.9306 24.3393 12.8119 24.1576 12.5966C23.9378 12.3364 23.8532 11.9927 23.9326 11.6755C24.0304 11.2875 24.3558 10.9693 24.852 10.7738C25.6352 10.4673 26.7624 9.95455 27.515 9.60657C26.877 10.6843 26.5176 11.283 25.8521 12.3822ZM6.21387 8.72942C6.80763 8.72942 7.38027 9.05598 7.72383 9.62239C8.50249 10.899 8.84024 11.4463 9.5502 12.5966C8.2588 12.4396 7.55931 12.3629 6.10488 12.2029C5.45447 12.1305 4.92914 11.7711 4.66348 11.2167C4.4041 10.6717 4.4396 10.0441 4.76016 9.5345C5.07774 9.03117 5.62012 8.72945 6.21387 8.72942ZM29.7018 8.59583C30.2865 8.59583 30.8274 8.89231 31.1449 9.38508L31.2557 9.57668C31.4782 10.0419 31.4824 10.5838 31.2609 11.062C31.1052 11.3977 30.8563 11.6617 30.5402 11.8372C30.4609 11.8695 30.3845 11.9062 30.3082 11.9462C30.2244 11.9785 30.1362 12.0071 30.0463 12.0271C29.9516 12.0425 29.8179 12.0622 29.6561 12.0868C28.3126 12.2516 27.677 12.3349 26.4129 12.4982C26.4417 12.4553 26.4697 12.4123 26.4955 12.3663C27.0619 11.3977 27.9983 9.83329 28.3113 9.31125C28.6563 8.85428 29.1524 8.59592 29.7018 8.59583ZM13.3893 9.22336C13.8364 9.58821 14.0687 10.0215 14.0414 10.4433C14.0231 10.7497 13.8633 11.0201 13.6037 11.1833C13.4328 11.2895 13.2403 11.3468 13.0465 11.3468C12.4999 11.3468 12.0768 10.9269 11.918 10.22C11.7302 9.3885 11.3906 8.17654 11.1586 7.3759C11.7892 7.90102 12.7388 8.69055 13.3893 9.22336ZM24.0451 10.0777C23.8253 10.9391 23.2993 11.248 22.8797 11.2484C22.6995 11.2484 22.5206 11.1913 22.3664 11.0866C22.0826 10.8989 21.9095 10.5935 21.8971 10.2657C21.8864 9.90871 22.065 9.55275 22.4051 9.24797L22.4121 9.24094C22.4392 9.21814 22.4674 9.19542 22.493 9.17414C22.5062 9.16371 22.5181 9.15326 22.5299 9.14426C23.2032 8.62685 24.1557 7.81008 24.7816 7.2634C24.5694 8.05954 24.2543 9.25842 24.0451 10.0777ZM8.79961 5.67961C9.60387 5.67996 10.2658 6.21306 10.4871 7.03665C10.8763 8.48364 11.0462 9.1026 11.4064 10.4081C10.2126 9.8923 9.56036 9.61755 8.21074 9.04934C7.60819 8.79376 7.20298 8.30204 7.10508 7.69583C7.00736 7.09987 7.2187 6.50582 7.66758 6.10852C7.98054 5.83145 8.38289 5.67961 8.79961 5.67961ZM27.0984 5.58469C27.5076 5.58469 27.9049 5.73356 28.2164 6.00305L28.3729 6.1595C28.7161 6.5429 28.8718 7.0617 28.793 7.58333C28.7118 8.10803 28.4038 8.55082 27.9369 8.82786C27.818 8.88476 27.6336 8.97117 27.4096 9.07571C26.2477 9.58078 25.6619 9.83781 24.5215 10.3413C24.8603 9.07759 25.0378 8.38937 25.4057 6.9593C25.6209 6.12482 26.2849 5.58489 27.0984 5.58469ZM16.0277 8.24426C16.3514 8.72318 16.449 9.20751 16.3055 9.60481C16.2001 9.89237 15.9702 10.1032 15.6744 10.1849C15.5813 10.2111 15.4843 10.2236 15.3896 10.2236C15.1058 10.2235 14.8441 10.1117 14.6549 9.9054C14.4106 9.64361 14.2996 9.2525 14.3332 8.77512L14.3701 8.07551C14.3998 7.32245 14.4112 6.45698 14.4158 5.83079C14.8692 6.51589 15.5544 7.54668 16.0277 8.24426ZM21.5965 8.56419C21.598 8.62424 21.6002 8.68738 21.6018 8.75051C21.5971 9.20436 21.4668 9.58772 21.2273 9.8386C21.0442 10.031 20.8057 10.1356 20.5523 10.1357C20.4594 10.1357 20.3643 10.1226 20.2729 10.0935C19.9476 9.99339 19.6931 9.74734 19.5908 9.43782C19.4827 9.10995 19.5454 8.73383 19.7666 8.35676L19.7736 8.34797C19.8163 8.28503 19.8553 8.22329 19.8949 8.1634C20.3925 7.47378 21.0661 6.42993 21.5104 5.73235C21.5317 6.53284 21.566 7.72371 21.5965 8.56419ZM18.8297 8.04563C19.0098 8.59046 18.9749 9.08192 18.7295 9.42376C18.5525 9.67005 18.2773 9.81212 17.9736 9.81223H17.9596C17.6206 9.80761 17.3094 9.6427 17.1246 9.37629C16.9002 9.04676 16.8744 8.58958 17.0561 8.08606C17.3431 7.28376 17.7049 6.07954 17.9385 5.27883C18.1888 6.06406 18.5656 7.24338 18.8297 8.04563ZM12.1271 3.49641C12.5867 3.49641 13.0368 3.68564 13.3559 4.01672C13.591 4.25697 13.8671 4.68379 13.8533 5.34739C13.8213 6.84514 13.8116 7.48729 13.7918 8.84368C12.7902 8.00904 12.2431 7.56246 11.1041 6.63235C10.5973 6.21657 10.349 5.62668 10.4238 5.01692L10.466 4.79719C10.5926 4.29489 10.9323 3.87743 11.4064 3.65637C11.6354 3.55013 11.8768 3.49642 12.1271 3.49641ZM23.7498 3.43665C23.9941 3.43665 24.2303 3.4897 24.4547 3.59133C24.998 3.83927 25.3702 4.34406 25.4496 4.94133C25.5321 5.55114 25.2872 6.14339 24.7834 6.56379C23.6511 7.5088 23.1627 7.92222 22.1537 8.77512C22.1433 8.7841 22.1325 8.79251 22.1221 8.80149V8.75051C22.1221 8.709 22.1218 8.66524 22.1203 8.62219C22.1203 8.59909 22.1199 8.57498 22.1168 8.55188C22.0909 7.3944 22.0699 6.68297 22.0271 5.3052C22.0058 4.63849 22.282 4.20577 22.5141 3.96399C22.8375 3.62849 23.286 3.43688 23.7498 3.43665ZM15.9451 2.34153C16.4886 2.34153 17.0099 2.60847 17.332 3.05344C17.6679 3.5138 17.7487 4.09282 17.5641 4.67942C17.1152 6.10847 16.9254 6.72243 16.527 8.0175C15.8842 7.05659 15.4944 6.4876 14.8395 5.52668C14.6793 5.28512 14.5492 5.08884 14.4668 4.96418C14.1859 4.46066 14.1468 3.89402 14.3666 3.38743L14.4703 3.18879C14.7325 2.74286 15.1747 2.43915 15.6902 2.36086C15.774 2.34857 15.8598 2.34156 15.9451 2.34153ZM20.1516 2.33801C20.7424 2.41963 21.243 2.79768 21.4857 3.35051C21.7071 3.84783 21.6777 4.40577 21.4137 4.90618C21.3542 4.99993 21.2761 5.12435 21.1816 5.2718C20.4671 6.34356 20.1116 6.88237 19.4643 7.86633C19.4642 7.86787 19.4631 7.87015 19.4607 7.87161C19.4287 7.91472 19.4001 7.95857 19.3711 8.00168C18.9787 6.75435 18.7586 6.07745 18.3006 4.67766C18.1084 4.08799 18.1862 3.5061 18.5221 3.04114L18.6539 2.87942C18.9776 2.52695 19.4349 2.32043 19.9143 2.32043C19.9934 2.32046 20.0724 2.32728 20.1516 2.33801Z" fill="#82C83C"/>
<path d="M4.02642 48V39.516H5.58642L8.17842 44.184L10.7344 39.516H12.2584V48H11.2144V40.572L8.39442 45.792H7.91442L5.07042 40.572V48H4.02642ZM14.9026 45.216C14.9266 45.496 14.9826 45.756 15.0706 45.996C15.1666 46.228 15.2946 46.432 15.4546 46.608C15.6146 46.784 15.8106 46.924 16.0426 47.028C16.2826 47.124 16.5586 47.172 16.8706 47.172C17.0226 47.172 17.1786 47.16 17.3386 47.136C17.5066 47.104 17.6626 47.056 17.8066 46.992C17.9506 46.92 18.0786 46.828 18.1906 46.716C18.3026 46.604 18.3866 46.468 18.4426 46.308H19.4866C19.4146 46.612 19.2906 46.876 19.1146 47.1C18.9466 47.324 18.7426 47.508 18.5026 47.652C18.2706 47.796 18.0106 47.904 17.7226 47.976C17.4346 48.04 17.1426 48.072 16.8466 48.072C16.3426 48.072 15.9026 47.992 15.5266 47.832C15.1586 47.672 14.8506 47.452 14.6026 47.172C14.3546 46.884 14.1706 46.544 14.0506 46.152C13.9306 45.752 13.8706 45.316 13.8706 44.844C13.8706 44.372 13.9346 43.94 14.0626 43.548C14.1986 43.148 14.3906 42.804 14.6386 42.516C14.8866 42.228 15.1906 42.004 15.5506 41.844C15.9106 41.684 16.3386 41.604 16.8346 41.604C17.3386 41.604 17.7746 41.704 18.1426 41.904C18.5106 42.104 18.8066 42.368 19.0306 42.696C19.2546 43.016 19.4106 43.364 19.4986 43.74C19.5946 44.116 19.6346 44.464 19.6186 44.784C19.6186 44.856 19.6146 44.928 19.6066 45C19.6066 45.072 19.6026 45.144 19.5946 45.216H14.9026ZM18.5866 44.328C18.5706 43.792 18.4026 43.356 18.0826 43.02C17.7626 42.684 17.3346 42.516 16.7986 42.516C16.5026 42.516 16.2426 42.564 16.0186 42.66C15.7946 42.756 15.6066 42.888 15.4546 43.056C15.3026 43.224 15.1826 43.42 15.0946 43.644C15.0066 43.86 14.9506 44.088 14.9266 44.328H18.5866ZM22.0095 50.28H20.9895V41.676H21.9615L22.0095 42.648C22.2255 42.304 22.5175 42.048 22.8855 41.88C23.2615 41.704 23.6655 41.612 24.0975 41.604C24.5855 41.604 24.9975 41.688 25.3335 41.856C25.6775 42.016 25.9615 42.244 26.1855 42.54C26.4175 42.828 26.5895 43.172 26.7015 43.572C26.8135 43.964 26.8695 44.388 26.8695 44.844C26.8695 45.308 26.8135 45.736 26.7015 46.128C26.5895 46.52 26.4175 46.86 26.1855 47.148C25.9535 47.436 25.6615 47.664 25.3095 47.832C24.9575 47.992 24.5375 48.072 24.0495 48.072C23.5695 48.072 23.1615 47.996 22.8255 47.844C22.4895 47.692 22.2175 47.492 22.0095 47.244V50.28ZM23.9655 47.172C24.3095 47.172 24.5975 47.112 24.8295 46.992C25.0695 46.864 25.2615 46.696 25.4055 46.488C25.5575 46.272 25.6655 46.024 25.7295 45.744C25.8015 45.464 25.8415 45.164 25.8495 44.844C25.8495 44.524 25.8135 44.224 25.7415 43.944C25.6775 43.656 25.5695 43.408 25.4175 43.2C25.2655 42.992 25.0655 42.828 24.8175 42.708C24.5775 42.58 24.2855 42.516 23.9415 42.516C23.5335 42.516 23.1815 42.628 22.8855 42.852C22.5895 43.068 22.3655 43.344 22.2135 43.68C22.1255 43.864 22.0655 44.056 22.0335 44.256C22.0015 44.448 21.9855 44.648 21.9855 44.856C21.9855 45.096 22.0015 45.32 22.0335 45.528C22.0655 45.728 22.1255 45.92 22.2135 46.104C22.3655 46.408 22.5855 46.664 22.8735 46.872C23.1695 47.072 23.5335 47.172 23.9655 47.172ZM28.9769 45.216C29.0009 45.496 29.0569 45.756 29.1449 45.996C29.2409 46.228 29.3689 46.432 29.5289 46.608C29.6889 46.784 29.8849 46.924 30.1169 47.028C30.3569 47.124 30.6329 47.172 30.9449 47.172C31.0969 47.172 31.2529 47.16 31.4129 47.136C31.5809 47.104 31.7369 47.056 31.8809 46.992C32.0249 46.92 32.1529 46.828 32.2649 46.716C32.3769 46.604 32.4609 46.468 32.5169 46.308H33.5609C33.4889 46.612 33.3649 46.876 33.1889 47.1C33.0209 47.324 32.8169 47.508 32.5769 47.652C32.3449 47.796 32.0849 47.904 31.7969 47.976C31.5089 48.04 31.2169 48.072 30.9209 48.072C30.4169 48.072 29.9769 47.992 29.6009 47.832C29.2329 47.672 28.9249 47.452 28.6769 47.172C28.4289 46.884 28.2449 46.544 28.1249 46.152C28.0049 45.752 27.9449 45.316 27.9449 44.844C27.9449 44.372 28.0089 43.94 28.1369 43.548C28.2729 43.148 28.4649 42.804 28.7129 42.516C28.9609 42.228 29.2649 42.004 29.6249 41.844C29.9849 41.684 30.4129 41.604 30.9089 41.604C31.4129 41.604 31.8489 41.704 32.2169 41.904C32.5849 42.104 32.8809 42.368 33.1049 42.696C33.3289 43.016 33.4849 43.364 33.5729 43.74C33.6689 44.116 33.7089 44.464 33.6929 44.784C33.6929 44.856 33.6889 44.928 33.6809 45C33.6809 45.072 33.6769 45.144 33.6689 45.216H28.9769ZM32.6609 44.328C32.6449 43.792 32.4769 43.356 32.1569 43.02C31.8369 42.684 31.4089 42.516 30.8729 42.516C30.5769 42.516 30.3169 42.564 30.0929 42.66C29.8689 42.756 29.6809 42.888 29.5289 43.056C29.3769 43.224 29.2569 43.42 29.1689 43.644C29.0809 43.86 29.0249 44.088 29.0009 44.328H32.6609ZM38.1986 48V45.276H37.1426L35.4986 48H34.3106L36.3626 44.688L34.4906 41.676H35.5826L37.2506 44.412H38.1986V41.676H39.2186V44.412H40.1666L41.8346 41.676H42.9266L41.0546 44.688L43.1066 48H41.9186L40.2746 45.276H39.2186V48H38.1986ZM48.1223 47.196C47.9863 47.38 47.8303 47.528 47.6543 47.64C47.4783 47.752 47.2943 47.84 47.1023 47.904C46.9183 47.968 46.7303 48.012 46.5383 48.036C46.3543 48.06 46.1703 48.072 45.9863 48.072C45.6903 48.072 45.4103 48.036 45.1463 47.964C44.8823 47.892 44.6423 47.776 44.4263 47.616C44.2183 47.456 44.0503 47.256 43.9223 47.016C43.8023 46.776 43.7423 46.504 43.7423 46.2C43.7423 45.84 43.8063 45.54 43.9343 45.3C44.0703 45.052 44.2503 44.852 44.4743 44.7C44.6983 44.548 44.9543 44.444 45.2423 44.388C45.5383 44.324 45.8503 44.292 46.1783 44.292H48.0383C48.0383 43.756 47.9223 43.332 47.6903 43.02C47.4583 42.7 47.0663 42.532 46.5143 42.516C46.1783 42.516 45.8823 42.572 45.6263 42.684C45.3703 42.796 45.1943 42.98 45.0983 43.236H44.0063C44.0623 42.948 44.1743 42.704 44.3423 42.504C44.5103 42.296 44.7103 42.128 44.9423 42C45.1743 41.864 45.4263 41.764 45.6983 41.7C45.9703 41.636 46.2423 41.604 46.5143 41.604C46.9863 41.604 47.3823 41.684 47.7023 41.844C48.0303 41.996 48.2943 42.2 48.4943 42.456C48.6943 42.704 48.8343 43.008 48.9143 43.368C48.9943 43.728 49.0343 44.132 49.0343 44.58V48H48.1823L48.1223 47.196ZM46.9223 45.144C46.7303 45.144 46.5063 45.144 46.2503 45.144C46.0023 45.144 45.7623 45.172 45.5303 45.228C45.2983 45.276 45.1103 45.376 44.9663 45.528C44.8303 45.68 44.7623 45.88 44.7623 46.128C44.7623 46.312 44.7983 46.468 44.8703 46.596C44.9423 46.724 45.0383 46.832 45.1583 46.92C45.2863 47.008 45.4303 47.072 45.5903 47.112C45.7503 47.152 45.9143 47.172 46.0823 47.172C46.6823 47.172 47.1543 47.028 47.4983 46.74C47.8503 46.444 48.0303 46.016 48.0383 45.456V45.144H46.9223ZM56.5489 48.072C56.0449 48.072 55.6089 47.992 55.2409 47.832C54.8729 47.672 54.5689 47.448 54.3289 47.16C54.0889 46.872 53.9089 46.532 53.7889 46.14C53.6689 45.748 53.6089 45.32 53.6089 44.856C53.6089 44.408 53.6729 43.988 53.8009 43.596C53.9289 43.196 54.1169 42.852 54.3649 42.564C54.6129 42.268 54.9249 42.036 55.3009 41.868C55.6769 41.692 56.1329 41.604 56.6689 41.604C56.9889 41.604 57.2729 41.64 57.5209 41.712C57.7689 41.776 58.0009 41.884 58.2169 42.036C58.4409 42.18 58.6329 42.372 58.7929 42.612C58.9529 42.852 59.0689 43.144 59.1409 43.488H58.0969C57.9769 43.136 57.7849 42.884 57.5209 42.732C57.2649 42.58 56.9609 42.508 56.6089 42.516C56.2649 42.516 55.9609 42.584 55.6969 42.72C55.4409 42.848 55.2329 43.02 55.0729 43.236C54.9209 43.452 54.8089 43.704 54.7369 43.992C54.6649 44.272 54.6289 44.56 54.6289 44.856C54.6289 45.168 54.6649 45.464 54.7369 45.744C54.8169 46.024 54.9329 46.272 55.0849 46.488C55.2449 46.696 55.4489 46.864 55.6969 46.992C55.9449 47.112 56.2409 47.172 56.5849 47.172C56.7529 47.172 56.9169 47.156 57.0769 47.124C57.2449 47.092 57.3969 47.04 57.5329 46.968C57.6769 46.888 57.8009 46.784 57.9049 46.656C58.0089 46.528 58.0849 46.372 58.1329 46.188H59.1889C59.1249 46.516 59.0089 46.8 58.8409 47.04C58.6809 47.272 58.4809 47.468 58.2409 47.628C58.0009 47.78 57.7369 47.892 57.4489 47.964C57.1609 48.036 56.8609 48.072 56.5489 48.072ZM65.1497 41.676V42.576H62.9777V48H61.9577V42.576H59.7857V41.676H65.1497ZM68.8439 41.604C69.3479 41.604 69.7839 41.684 70.1519 41.844C70.5199 42.004 70.8279 42.228 71.0759 42.516C71.3319 42.804 71.5199 43.148 71.6399 43.548C71.7679 43.94 71.8319 44.372 71.8319 44.844C71.8319 45.316 71.7679 45.752 71.6399 46.152C71.5199 46.544 71.3319 46.884 71.0759 47.172C70.8279 47.452 70.5159 47.672 70.1399 47.832C69.7639 47.992 69.3239 48.072 68.8199 48.072C68.3159 48.072 67.8759 47.992 67.4999 47.832C67.1319 47.672 66.8199 47.452 66.5639 47.172C66.3159 46.884 66.1279 46.544 65.9999 46.152C65.8799 45.752 65.8199 45.316 65.8199 44.844C65.8199 44.372 65.8799 43.94 65.9999 43.548C66.1279 43.148 66.3159 42.804 66.5639 42.516C66.8199 42.228 67.1359 42.004 67.5119 41.844C67.8879 41.684 68.3319 41.604 68.8439 41.604ZM68.8199 47.172C69.1639 47.172 69.4599 47.112 69.7079 46.992C69.9639 46.872 70.1719 46.708 70.3319 46.5C70.4999 46.284 70.6199 46.036 70.6919 45.756C70.7719 45.476 70.8119 45.172 70.8119 44.844C70.8119 44.524 70.7719 44.224 70.6919 43.944C70.6199 43.656 70.4999 43.408 70.3319 43.2C70.1719 42.984 69.9639 42.816 69.7079 42.696C69.4599 42.576 69.1639 42.516 68.8199 42.516C68.4759 42.516 68.1799 42.576 67.9319 42.696C67.6839 42.816 67.4759 42.984 67.3079 43.2C67.1479 43.408 67.0279 43.656 66.9479 43.944C66.8759 44.224 66.8399 44.524 66.8399 44.844C66.8399 45.172 66.8759 45.476 66.9479 45.756C67.0279 46.036 67.1479 46.284 67.3079 46.5C67.4759 46.708 67.6839 46.872 67.9319 46.992C68.1799 47.112 68.4759 47.172 68.8199 47.172ZM73.1966 41.676H74.5646L76.6166 44.844L78.6326 41.676H79.9766V48H78.9686V42.804L76.7366 46.38H76.4486L74.2046 42.804V48H73.1966V41.676ZM85.7512 47.196C85.6152 47.38 85.4592 47.528 85.2832 47.64C85.1072 47.752 84.9232 47.84 84.7312 47.904C84.5472 47.968 84.3592 48.012 84.1672 48.036C83.9832 48.06 83.7992 48.072 83.6152 48.072C83.3192 48.072 83.0392 48.036 82.7752 47.964C82.5112 47.892 82.2712 47.776 82.0552 47.616C81.8472 47.456 81.6792 47.256 81.5512 47.016C81.4312 46.776 81.3712 46.504 81.3712 46.2C81.3712 45.84 81.4352 45.54 81.5632 45.3C81.6992 45.052 81.8792 44.852 82.1032 44.7C82.3272 44.548 82.5832 44.444 82.8712 44.388C83.1672 44.324 83.4792 44.292 83.8072 44.292H85.6672C85.6672 43.756 85.5512 43.332 85.3192 43.02C85.0872 42.7 84.6952 42.532 84.1432 42.516C83.8072 42.516 83.5112 42.572 83.2552 42.684C82.9992 42.796 82.8232 42.98 82.7272 43.236H81.6352C81.6912 42.948 81.8032 42.704 81.9712 42.504C82.1392 42.296 82.3392 42.128 82.5712 42C82.8032 41.864 83.0552 41.764 83.3272 41.7C83.5992 41.636 83.8712 41.604 84.1432 41.604C84.6152 41.604 85.0112 41.684 85.3312 41.844C85.6592 41.996 85.9232 42.2 86.1232 42.456C86.3232 42.704 86.4632 43.008 86.5432 43.368C86.6232 43.728 86.6632 44.132 86.6632 44.58V48H85.8112L85.7512 47.196ZM84.5512 45.144C84.3592 45.144 84.1352 45.144 83.8792 45.144C83.6312 45.144 83.3912 45.172 83.1592 45.228C82.9272 45.276 82.7392 45.376 82.5952 45.528C82.4592 45.68 82.3912 45.88 82.3912 46.128C82.3912 46.312 82.4272 46.468 82.4992 46.596C82.5712 46.724 82.6672 46.832 82.7872 46.92C82.9152 47.008 83.0592 47.072 83.2192 47.112C83.3792 47.152 83.5432 47.172 83.7112 47.172C84.3112 47.172 84.7832 47.028 85.1272 46.74C85.4792 46.444 85.6592 46.016 85.6672 45.456V45.144H84.5512ZM92.9115 41.676V42.576H90.7395V48H89.7195V42.576H87.5475V41.676H92.9115ZM96.6056 41.604C97.1096 41.604 97.5456 41.684 97.9136 41.844C98.2816 42.004 98.5896 42.228 98.8376 42.516C99.0936 42.804 99.2816 43.148 99.4016 43.548C99.5296 43.94 99.5936 44.372 99.5936 44.844C99.5936 45.316 99.5296 45.752 99.4016 46.152C99.2816 46.544 99.0936 46.884 98.8376 47.172C98.5896 47.452 98.2776 47.672 97.9016 47.832C97.5256 47.992 97.0856 48.072 96.5816 48.072C96.0776 48.072 95.6376 47.992 95.2616 47.832C94.8936 47.672 94.5816 47.452 94.3256 47.172C94.0776 46.884 93.8896 46.544 93.7616 46.152C93.6416 45.752 93.5816 45.316 93.5816 44.844C93.5816 44.372 93.6416 43.94 93.7616 43.548C93.8896 43.148 94.0776 42.804 94.3256 42.516C94.5816 42.228 94.8976 42.004 95.2736 41.844C95.6496 41.684 96.0936 41.604 96.6056 41.604ZM96.5816 47.172C96.9256 47.172 97.2216 47.112 97.4696 46.992C97.7256 46.872 97.9336 46.708 98.0936 46.5C98.2616 46.284 98.3816 46.036 98.4536 45.756C98.5336 45.476 98.5736 45.172 98.5736 44.844C98.5736 44.524 98.5336 44.224 98.4536 43.944C98.3816 43.656 98.2616 43.408 98.0936 43.2C97.9336 42.984 97.7256 42.816 97.4696 42.696C97.2216 42.576 96.9256 42.516 96.5816 42.516C96.2376 42.516 95.9416 42.576 95.6936 42.696C95.4456 42.816 95.2376 42.984 95.0696 43.2C94.9096 43.408 94.7896 43.656 94.7096 43.944C94.6376 44.224 94.6016 44.524 94.6016 44.844C94.6016 45.172 94.6376 45.476 94.7096 45.756C94.7896 46.036 94.9096 46.284 95.0696 46.5C95.2376 46.708 95.4456 46.872 95.6936 46.992C95.9416 47.112 96.2376 47.172 96.5816 47.172ZM101.488 45.036C101.528 44.46 101.556 43.9 101.572 43.356C101.596 42.812 101.612 42.252 101.62 41.676H106.012V48H104.992V42.576H102.616L102.508 45.06C102.492 45.38 102.456 45.74 102.4 46.14C102.344 46.54 102.228 46.904 102.052 47.232C101.916 47.464 101.732 47.652 101.5 47.796C101.268 47.94 101 48.012 100.696 48.012H100.324V47.112C100.644 47.112 100.9 46.976 101.092 46.704C101.204 46.544 101.292 46.312 101.356 46.008C101.42 45.704 101.464 45.38 101.488 45.036ZM110.399 41.604C110.903 41.604 111.339 41.684 111.707 41.844C112.075 42.004 112.383 42.228 112.631 42.516C112.887 42.804 113.075 43.148 113.195 43.548C113.323 43.94 113.387 44.372 113.387 44.844C113.387 45.316 113.323 45.752 113.195 46.152C113.075 46.544 112.887 46.884 112.631 47.172C112.383 47.452 112.071 47.672 111.695 47.832C111.319 47.992 110.879 48.072 110.375 48.072C109.871 48.072 109.431 47.992 109.055 47.832C108.687 47.672 108.375 47.452 108.119 47.172C107.871 46.884 107.683 46.544 107.555 46.152C107.435 45.752 107.375 45.316 107.375 44.844C107.375 44.372 107.435 43.94 107.555 43.548C107.683 43.148 107.871 42.804 108.119 42.516C108.375 42.228 108.691 42.004 109.067 41.844C109.443 41.684 109.887 41.604 110.399 41.604ZM110.375 47.172C110.719 47.172 111.015 47.112 111.263 46.992C111.519 46.872 111.727 46.708 111.887 46.5C112.055 46.284 112.175 46.036 112.247 45.756C112.327 45.476 112.367 45.172 112.367 44.844C112.367 44.524 112.327 44.224 112.247 43.944C112.175 43.656 112.055 43.408 111.887 43.2C111.727 42.984 111.519 42.816 111.263 42.696C111.015 42.576 110.719 42.516 110.375 42.516C110.031 42.516 109.735 42.576 109.487 42.696C109.239 42.816 109.031 42.984 108.863 43.2C108.703 43.408 108.583 43.656 108.503 43.944C108.431 44.224 108.395 44.524 108.395 44.844C108.395 45.172 108.431 45.476 108.503 45.756C108.583 46.036 108.703 46.284 108.863 46.5C109.031 46.708 109.239 46.872 109.487 46.992C109.735 47.112 110.031 47.172 110.375 47.172ZM114.751 48V41.676H119.119V42.576H115.771V48H114.751ZM120.788 39.36C120.98 39.36 121.144 39.424 121.28 39.552C121.416 39.672 121.484 39.832 121.484 40.032C121.484 40.232 121.416 40.396 121.28 40.524C121.144 40.652 120.98 40.716 120.788 40.716C120.588 40.716 120.424 40.652 120.296 40.524C120.168 40.396 120.104 40.232 120.104 40.032C120.104 39.832 120.168 39.672 120.296 39.552C120.424 39.424 120.588 39.36 120.788 39.36ZM120.284 48V41.676H121.304V48H120.284ZM125.869 40.056C126.205 40.056 126.473 39.992 126.673 39.864C126.881 39.736 126.985 39.512 126.985 39.192H127.921C127.905 39.768 127.713 40.188 127.345 40.452C126.985 40.716 126.489 40.848 125.857 40.848C125.225 40.848 124.729 40.716 124.369 40.452C124.017 40.188 123.833 39.768 123.817 39.192H124.753C124.761 39.512 124.865 39.736 125.065 39.864C125.265 39.992 125.533 40.056 125.869 40.056ZM123.997 48H123.001V41.676H124.021V46.524C124.077 46.412 124.153 46.292 124.249 46.164C124.345 46.028 124.421 45.924 124.477 45.852L127.537 41.676H128.545V48H127.525V43.152C127.461 43.272 127.389 43.388 127.309 43.5C127.237 43.604 127.169 43.696 127.105 43.776L123.997 48ZM137.14 44.604C137.548 44.732 137.832 44.932 137.992 45.204C138.152 45.476 138.232 45.8 138.232 46.176C138.224 46.512 138.144 46.8 137.992 47.04C137.848 47.28 137.656 47.476 137.416 47.628C137.176 47.78 136.904 47.892 136.6 47.964C136.296 48.036 135.984 48.072 135.664 48.072C135.36 48.072 135.052 48.044 134.74 47.988C134.436 47.932 134.16 47.836 133.912 47.7C133.664 47.564 133.456 47.384 133.288 47.16C133.128 46.936 133.04 46.652 133.024 46.308H134.02C134.052 46.476 134.128 46.616 134.248 46.728C134.368 46.832 134.508 46.92 134.668 46.992C134.836 47.056 135.008 47.104 135.184 47.136C135.368 47.16 135.532 47.172 135.676 47.172C135.844 47.172 136.016 47.16 136.192 47.136C136.376 47.112 136.544 47.064 136.696 46.992C136.848 46.92 136.972 46.82 137.068 46.692C137.164 46.556 137.212 46.384 137.212 46.176C137.212 46.008 137.176 45.856 137.104 45.72C137.032 45.576 136.92 45.468 136.768 45.396C136.632 45.332 136.476 45.296 136.3 45.288C136.124 45.272 135.96 45.264 135.808 45.264H134.68V44.364H135.604C135.756 44.364 135.912 44.352 136.072 44.328C136.232 44.296 136.376 44.244 136.504 44.172C136.64 44.1 136.748 44.008 136.828 43.896C136.916 43.776 136.964 43.608 136.972 43.392C136.972 43.224 136.932 43.084 136.852 42.972C136.78 42.86 136.68 42.772 136.552 42.708C136.432 42.636 136.292 42.588 136.132 42.564C135.98 42.532 135.828 42.516 135.676 42.516C135.532 42.516 135.38 42.528 135.22 42.552C135.06 42.568 134.912 42.608 134.776 42.672C134.64 42.728 134.524 42.808 134.428 42.912C134.332 43.016 134.272 43.152 134.248 43.32H133.24C133.248 43 133.324 42.732 133.468 42.516C133.62 42.292 133.812 42.116 134.044 41.988C134.276 41.852 134.532 41.756 134.812 41.7C135.1 41.636 135.384 41.604 135.664 41.604C135.944 41.604 136.22 41.632 136.492 41.688C136.772 41.744 137.02 41.84 137.236 41.976C137.452 42.104 137.628 42.276 137.764 42.492C137.9 42.708 137.968 42.976 137.968 43.296C137.968 43.584 137.9 43.84 137.764 44.064C137.628 44.288 137.42 44.468 137.14 44.604ZM144.739 45.036C144.955 44.852 145.191 44.652 145.447 44.436C145.711 44.212 145.955 43.972 146.179 43.716C146.411 43.46 146.607 43.192 146.767 42.912C146.927 42.624 147.011 42.312 147.019 41.976C147.035 41.464 146.887 41.072 146.575 40.8C146.263 40.52 145.851 40.38 145.339 40.38C144.931 40.38 144.575 40.464 144.271 40.632C143.967 40.8 143.767 41.044 143.671 41.364H142.555C142.611 41.036 142.727 40.752 142.903 40.512C143.087 40.264 143.307 40.06 143.563 39.9C143.827 39.74 144.115 39.62 144.427 39.54C144.739 39.46 145.059 39.42 145.387 39.42C145.779 39.42 146.139 39.476 146.467 39.588C146.795 39.692 147.079 39.848 147.319 40.056C147.559 40.264 147.743 40.524 147.871 40.836C148.007 41.14 148.075 41.488 148.075 41.88C148.075 42.272 148.015 42.624 147.895 42.936C147.783 43.248 147.627 43.536 147.427 43.8C147.235 44.064 147.015 44.312 146.767 44.544C146.519 44.776 146.263 45.008 145.999 45.24L143.851 47.052H148.171V48H142.339V47.136L144.739 45.036ZM156.083 43.764C156.083 44.308 156.027 44.84 155.915 45.36C155.811 45.88 155.631 46.344 155.375 46.752C155.119 47.152 154.779 47.476 154.355 47.724C153.931 47.972 153.403 48.096 152.771 48.096C152.131 48.096 151.599 47.972 151.175 47.724C150.751 47.476 150.411 47.152 150.155 46.752C149.899 46.344 149.719 45.888 149.615 45.384C149.511 44.88 149.459 44.34 149.459 43.764C149.459 43.188 149.511 42.648 149.615 42.144C149.719 41.632 149.899 41.176 150.155 40.776C150.411 40.376 150.751 40.052 151.175 39.804C151.599 39.548 152.131 39.42 152.771 39.42C153.403 39.42 153.931 39.544 154.355 39.792C154.779 40.04 155.119 40.368 155.375 40.776C155.631 41.184 155.811 41.648 155.915 42.168C156.027 42.688 156.083 43.22 156.083 43.764ZM150.527 43.764C150.527 44.148 150.555 44.54 150.611 44.94C150.667 45.34 150.775 45.704 150.935 46.032C151.095 46.36 151.319 46.628 151.607 46.836C151.903 47.044 152.291 47.148 152.771 47.148C153.243 47.148 153.623 47.044 153.911 46.836C154.207 46.628 154.435 46.36 154.595 46.032C154.755 45.704 154.863 45.34 154.919 44.94C154.975 44.54 155.003 44.148 155.003 43.764C155.003 43.388 154.975 43 154.919 42.6C154.863 42.2 154.755 41.836 154.595 41.508C154.435 41.172 154.207 40.9 153.911 40.692C153.623 40.476 153.243 40.368 152.771 40.368C152.291 40.368 151.903 40.476 151.607 40.692C151.319 40.9 151.095 41.172 150.935 41.508C150.775 41.836 150.667 42.2 150.611 42.6C150.555 43 150.527 43.388 150.527 43.764ZM164.064 43.764C164.064 44.308 164.008 44.84 163.896 45.36C163.792 45.88 163.612 46.344 163.356 46.752C163.1 47.152 162.76 47.476 162.336 47.724C161.912 47.972 161.384 48.096 160.752 48.096C160.112 48.096 159.58 47.972 159.156 47.724C158.732 47.476 158.392 47.152 158.136 46.752C157.88 46.344 157.7 45.888 157.596 45.384C157.492 44.88 157.44 44.34 157.44 43.764C157.44 43.188 157.492 42.648 157.596 42.144C157.7 41.632 157.88 41.176 158.136 40.776C158.392 40.376 158.732 40.052 159.156 39.804C159.58 39.548 160.112 39.42 160.752 39.42C161.384 39.42 161.912 39.544 162.336 39.792C162.76 40.04 163.1 40.368 163.356 40.776C163.612 41.184 163.792 41.648 163.896 42.168C164.008 42.688 164.064 43.22 164.064 43.764ZM158.508 43.764C158.508 44.148 158.536 44.54 158.592 44.94C158.648 45.34 158.756 45.704 158.916 46.032C159.076 46.36 159.3 46.628 159.588 46.836C159.884 47.044 160.272 47.148 160.752 47.148C161.224 47.148 161.604 47.044 161.892 46.836C162.188 46.628 162.416 46.36 162.576 46.032C162.736 45.704 162.844 45.34 162.9 44.94C162.956 44.54 162.984 44.148 162.984 43.764C162.984 43.388 162.956 43 162.9 42.6C162.844 42.2 162.736 41.836 162.576 41.508C162.416 41.172 162.188 40.9 161.892 40.692C161.604 40.476 161.224 40.368 160.752 40.368C160.272 40.368 159.884 40.476 159.588 40.692C159.3 40.9 159.076 41.172 158.916 41.508C158.756 41.836 158.648 42.2 158.592 42.6C158.536 43 158.508 43.388 158.508 43.764ZM166.44 43.788C166.712 43.372 167.056 43.068 167.472 42.876C167.888 42.684 168.328 42.588 168.792 42.588C169.224 42.588 169.604 42.656 169.932 42.792C170.268 42.928 170.556 43.112 170.796 43.344C171.036 43.576 171.224 43.856 171.36 44.184C171.496 44.512 171.564 44.876 171.564 45.276C171.564 45.7 171.492 46.084 171.348 46.428C171.204 46.772 171.004 47.068 170.748 47.316C170.492 47.564 170.184 47.756 169.824 47.892C169.472 48.028 169.088 48.096 168.672 48.096C168.08 48.096 167.58 47.992 167.172 47.784C166.764 47.568 166.432 47.284 166.176 46.932C165.92 46.572 165.732 46.156 165.612 45.684C165.5 45.212 165.44 44.716 165.432 44.196C165.432 43.548 165.48 42.96 165.576 42.432C165.672 41.896 165.844 41.408 166.092 40.968C166.348 40.52 166.696 40.152 167.136 39.864C167.576 39.568 168.136 39.42 168.816 39.42C169.12 39.42 169.412 39.46 169.692 39.54C169.972 39.62 170.228 39.74 170.46 39.9C170.692 40.052 170.896 40.244 171.072 40.476C171.248 40.708 171.384 40.972 171.48 41.268H170.388C170.244 40.972 170.024 40.748 169.728 40.596C169.432 40.444 169.124 40.368 168.804 40.368C168.348 40.368 167.968 40.476 167.664 40.692C167.36 40.908 167.116 41.184 166.932 41.52C166.756 41.856 166.628 42.228 166.548 42.636C166.476 43.036 166.44 43.42 166.44 43.788ZM170.496 45.384C170.496 45.12 170.452 44.88 170.364 44.664C170.276 44.44 170.152 44.248 169.992 44.088C169.84 43.92 169.652 43.792 169.428 43.704C169.204 43.608 168.96 43.56 168.696 43.56C168.44 43.56 168.196 43.604 167.964 43.692C167.74 43.772 167.54 43.892 167.364 44.052C167.188 44.204 167.044 44.392 166.932 44.616C166.828 44.84 166.776 45.088 166.776 45.36C166.776 45.616 166.824 45.852 166.92 46.068C167.016 46.284 167.148 46.472 167.316 46.632C167.484 46.792 167.68 46.92 167.904 47.016C168.136 47.104 168.384 47.148 168.648 47.148C168.912 47.148 169.156 47.104 169.38 47.016C169.612 46.92 169.808 46.796 169.968 46.644C170.136 46.484 170.264 46.296 170.352 46.08C170.448 45.864 170.496 45.632 170.496 45.384ZM177.271 50.28H176.251V41.676H177.223L177.271 42.648C177.487 42.304 177.779 42.048 178.147 41.88C178.523 41.704 178.927 41.612 179.359 41.604C179.847 41.604 180.259 41.688 180.595 41.856C180.939 42.016 181.223 42.244 181.447 42.54C181.679 42.828 181.851 43.172 181.963 43.572C182.075 43.964 182.131 44.388 182.131 44.844C182.131 45.308 182.075 45.736 181.963 46.128C181.851 46.52 181.679 46.86 181.447 47.148C181.215 47.436 180.923 47.664 180.571 47.832C180.219 47.992 179.799 48.072 179.311 48.072C178.831 48.072 178.423 47.996 178.087 47.844C177.751 47.692 177.479 47.492 177.271 47.244V50.28ZM179.227 47.172C179.571 47.172 179.859 47.112 180.091 46.992C180.331 46.864 180.523 46.696 180.667 46.488C180.819 46.272 180.927 46.024 180.991 45.744C181.063 45.464 181.103 45.164 181.111 44.844C181.111 44.524 181.075 44.224 181.003 43.944C180.939 43.656 180.831 43.408 180.679 43.2C180.527 42.992 180.327 42.828 180.079 42.708C179.839 42.58 179.547 42.516 179.203 42.516C178.795 42.516 178.443 42.628 178.147 42.852C177.851 43.068 177.627 43.344 177.475 43.68C177.387 43.864 177.327 44.056 177.295 44.256C177.263 44.448 177.247 44.648 177.247 44.856C177.247 45.096 177.263 45.32 177.295 45.528C177.327 45.728 177.387 45.92 177.475 46.104C177.627 46.408 177.847 46.664 178.135 46.872C178.431 47.072 178.795 47.172 179.227 47.172Z" fill="#43434A"/>
</svg>
