<svg width="186" height="51" viewBox="0 0 186 51" fill="none" xmlns="http://www.w3.org/2000/svg">
<path d="M143.229 16.9328C145.991 11.6053 151.356 12.5082 153.057 13.1261C155.278 13.9347 156.787 15.6117 157.443 17.7428C157.736 18.6396 157.812 19.6845 157.817 20.5065C157.806 20.8406 157.825 21.1751 157.81 21.5199H146.006C146.021 21.8594 145.983 23.8662 148.612 25.0711C150.223 25.7041 151.765 25.5432 152.841 25.0415C153.894 24.593 154.576 23.7776 154.63 23.7135C155.37 24.429 156.083 25.1231 156.802 25.8202C156.624 25.9972 156.459 26.1772 156.278 26.3434C155.26 27.2801 154.089 27.939 152.738 28.2624C151.518 28.6377 149.278 28.7796 147.103 27.9252C144.777 27.0007 143.315 25.3148 142.703 22.8983C142.448 21.8947 142.409 20.8742 142.485 19.8477C142.56 18.8319 142.789 17.854 143.229 16.9328ZM103.978 12.6567C106.407 12.6567 108.238 13.3353 109.281 14.687V13.0061H112.89V23.4719C112.89 23.8532 112.896 24.2364 113.006 24.607C113.151 25.1043 113.452 25.3359 113.972 25.3405C114.159 25.342 114.671 25.296 114.755 25.2884V25.4205L114.758 25.4239V28.0782C114.758 28.0782 114.144 28.3437 113.402 28.4032C112.762 28.455 112.188 28.4425 111.557 28.252C110.597 27.9621 109.959 27.1457 109.655 26.2166C108.534 27.6321 106.776 28.5073 104.207 28.5075C100.228 28.5075 96.8634 25.2652 96.8631 20.5743C96.8631 15.8832 100.491 12.6569 103.978 12.6567ZM67.6984 12.6498C70.6853 12.6589 72.499 14.9179 72.5173 14.9408L70.3839 16.9275C70.3839 16.9275 69.6534 16.1888 68.455 15.8394C66.9959 15.4919 66.238 15.7544 65.8132 16.1036C65.2767 16.5109 65.1222 17.5204 65.9075 18.0087C66.4852 18.4007 68.6829 19.0848 69.5086 19.3854C70.242 19.6553 70.9394 19.995 71.572 20.4631C72.6466 21.261 73.1821 22.3302 73.1882 23.6666C73.1927 24.6335 72.9637 25.5319 72.3985 26.3295C71.9674 26.9367 71.4057 27.388 70.7438 27.7236C69.0946 28.5855 66.8449 28.5103 66.2517 28.4675C65.0747 28.3852 64.0323 28.0608 62.9914 27.4872C61.4528 26.5516 60.8978 25.5763 60.8825 25.5491L63.077 23.531C63.077 23.531 63.9577 24.7764 65.607 25.2188C66.4264 25.4248 68.2879 25.7031 69.3303 24.7408C70.0029 24.0467 69.9814 23.097 68.9023 22.5767C68.4299 22.3159 65.7728 21.4122 64.9658 21.101C62.6749 20.2801 62.0444 18.5595 61.9588 17.6228C61.8809 16.7824 61.9839 15.9726 62.3659 15.2084C62.771 14.3892 63.4008 13.7875 64.1987 13.3572C65.2914 12.77 66.4713 12.6468 67.6984 12.6498ZM80.2225 12.9992L80.2208 13.0009H83.2819V16.2566H80.2208C80.2207 16.3052 80.2095 22.0113 80.2278 23.1729C80.2538 24.8846 80.9301 25.4677 82.639 25.2831C82.8392 25.2618 83.04 25.2428 83.3029 25.2153V28.1651C81.2335 28.7738 78.1949 28.4337 77.2697 26.5364C76.8509 25.679 76.6798 24.8254 76.6355 23.8734C76.5595 21.6855 76.5932 16.3292 76.5936 16.2705H74.6279V13.0044H76.5936V7.13965H80.2225V12.9992ZM182.544 13.0009H185.626V16.2566H182.542C182.542 16.31 182.531 22.012 182.549 23.1729C182.575 24.8845 183.251 25.4676 184.96 25.2831C185.16 25.2618 185.361 25.2428 185.624 25.2153V28.1651C183.554 28.7738 180.516 28.4338 179.591 26.5364C179.172 25.679 179.001 24.8254 178.956 23.8734C178.85 21.6288 178.914 16.333 178.915 16.2705H176.949V13.0044H178.915V7.16051H182.544V13.0009ZM164.075 15.0085C165.593 12.9385 167.553 12.4339 169.74 12.7802C172.492 13.2182 174.182 15.1943 174.286 18.0574C174.298 19.946 174.28 21.2983 174.286 22.8879C174.286 23.1563 174.28 23.5928 174.286 23.8613C174.312 25.109 174.744 25.4114 176.009 25.198L176.007 28.1512C174.182 28.8453 171.908 28.1996 171.202 26.7259C170.921 26.1387 170.774 25.4437 170.746 24.7895C170.678 23.1588 170.717 21.5199 170.706 19.8877C170.705 19.5309 170.694 19.1705 170.657 18.8152C170.471 16.9876 169.356 15.937 167.586 15.9142C165.77 15.8898 164.305 17.0924 164.142 18.8239C164.052 19.779 164.079 21.7094 164.079 21.7094L164.075 28.1373H160.534V12.994H164.075V15.0085ZM59.96 28.1651H56.0409L54.1994 23.9899H44.9233L43.2478 28.1581H39.2676L47.8272 7.15529H51.5383L59.96 28.1651ZM90.4211 14.6557C91.9466 11.9265 95.862 12.7941 95.862 12.7941V16.1749H95.8602C95.8602 16.1749 94.6056 15.9725 93.774 16.0654C91.6218 16.2713 90.2407 17.8543 90.2376 20.0268C90.2316 22.6886 90.2375 28.0579 90.2376 28.1338H86.6873V13.0009H90.2079V15.0155C90.3071 14.8404 90.3829 14.7121 90.4211 14.6557ZM129.552 7.18137C134.713 7.18137 137.451 9.7427 138.658 11.5825C139.378 12.6794 139.842 13.8823 140.088 15.1667C140.467 17.1607 140.423 19.1475 139.882 21.1079C139.093 23.8859 137.146 26.286 134.013 27.3829C132.593 27.8909 131.122 28.1172 129.62 28.1234C127.063 28.1356 121.811 28.1286 121.81 28.1286V7.17963C121.812 7.17962 127.02 7.17374 129.552 7.18137ZM104.981 15.9646C102.465 15.9646 100.429 18.0355 100.429 20.5847C100.429 23.1338 102.466 25.2014 104.981 25.2014C107.497 25.2014 109.532 23.1354 109.532 20.5847C109.532 18.0339 107.497 15.9646 104.981 15.9646ZM125.581 10.5778L125.582 24.7356C125.582 24.7356 128.45 24.7586 129.837 24.7113C133.67 24.5784 135.336 22.3714 135.854 21.2835C136.2 20.5573 137.031 17.7165 136.172 14.8851C135.616 13.0925 134.457 11.8512 132.702 11.1723C131.666 10.7712 130.586 10.6033 129.484 10.5865C128.224 10.5652 125.581 10.5778 125.581 10.5778ZM46.1482 20.8507H53.1091L49.6269 11.8433L46.1482 20.8507ZM151.787 15.9628C150.447 15.5159 147.685 15.3029 146.352 18.146C146.237 18.4222 146.164 18.6621 146.112 18.9978H154.167C154.161 18.615 154.073 18.1728 153.919 17.8418C153.486 16.9053 152.751 16.2894 151.787 15.9628Z" fill="white"/>
<rect width="36" height="36" rx="18" fill="white"/>
<path d="M17.9982 0C27.9374 0 36 8.05966 36 18C36 27.9403 27.9389 36 17.9982 36C8.05794 35.9996 1.51517e-07 27.9401 0 18C0 8.05993 8.05948 0.000440466 17.9982 0ZM19.9143 1.8C19.1997 1.8 18.5216 2.15174 18.1002 2.73691C18.0331 2.83074 17.9745 2.92874 17.9227 3.02871C17.8724 2.93192 17.8159 2.83834 17.7504 2.74922C17.3307 2.16886 16.6531 1.81957 15.9434 1.81934C15.8334 1.81934 15.7193 1.82855 15.6094 1.84395C14.8415 1.96107 14.1981 2.46106 13.8867 3.18164C13.818 3.34024 13.7678 3.50336 13.7373 3.66504C13.7343 3.66048 13.7295 3.65554 13.725 3.65098C13.3067 3.22004 12.7217 2.97246 12.1219 2.97246C11.7954 2.97257 11.4789 3.04337 11.1814 3.1834C10.4765 3.51307 9.99967 4.17658 9.90351 4.95703C9.88368 5.12177 9.88122 5.28558 9.89648 5.4457C9.56978 5.26093 9.19737 5.1592 8.79434 5.15918C8.25233 5.15918 7.72718 5.35782 7.31953 5.71816C6.7351 6.23387 6.46011 7.00605 6.58652 7.78184C6.61401 7.95123 6.65928 8.11454 6.72188 8.26699C6.55555 8.22854 6.3843 8.20547 6.21035 8.20547C5.43649 8.20566 4.72909 8.59925 4.31543 9.25664C3.89895 9.91871 3.8533 10.7387 4.19063 11.4469C4.26369 11.6003 4.35242 11.7413 4.4543 11.8687C3.51108 11.9214 2.68681 12.5781 2.42578 13.5018C2.23037 14.1901 2.36421 14.9117 2.79316 15.4846C2.93354 15.6708 3.09876 15.8336 3.28184 15.9645C2.97217 16.0754 2.69015 16.2572 2.45215 16.4988C2.02773 16.9285 1.79695 17.5003 1.8 18.1055C1.80643 19.0922 2.44681 19.9335 3.32754 20.2307C3.14307 20.3644 2.97768 20.5265 2.83887 20.7141C2.41747 21.2854 2.28753 22.0353 2.48906 22.7145C2.76107 23.618 3.57833 24.2622 4.50176 24.3176C4.41171 24.4392 4.33184 24.5715 4.26621 24.7131C3.93505 25.426 3.99124 26.2441 4.41563 26.9016C4.82944 27.5449 5.53488 27.9299 6.29648 27.9299C6.47481 27.9299 6.64713 27.9083 6.81328 27.8684C6.75697 28.0174 6.71464 28.1727 6.69023 28.3324C6.57267 29.1101 6.85347 29.8813 7.44434 30.3926C7.84889 30.7435 8.36731 30.9357 8.90156 30.9357C9.30584 30.9357 9.68843 30.827 10.0195 30.6316C10.0058 30.7933 10.0087 30.9591 10.0301 31.1238C10.134 31.9028 10.6208 32.5618 11.3291 32.8852C11.6206 33.0175 11.9295 33.0855 12.2484 33.0855C12.8528 33.0854 13.4391 32.8339 13.8604 32.3982C13.868 32.389 13.8774 32.3793 13.885 32.3701C13.917 32.5364 13.9677 32.7019 14.0379 32.8605C14.3571 33.5779 15.007 34.0711 15.7764 34.1789C15.8785 34.1927 15.9836 34.2 16.0857 34.2C16.8003 34.2 17.4784 33.848 17.8998 33.2613C17.9668 33.1691 18.0255 33.071 18.0773 32.9695C18.1276 33.0664 18.1841 33.1616 18.2496 33.2508C18.6693 33.8311 19.3469 34.1787 20.0566 34.1789C20.1666 34.1789 20.2807 34.1712 20.3906 34.1543C21.1584 34.0387 21.8034 33.5387 22.1133 32.8166C22.1819 32.6581 22.2322 32.4964 22.2627 32.3332C22.2657 32.3378 22.2704 32.3442 22.275 32.3473C22.6933 32.7783 23.2782 33.0258 23.8781 33.0258C24.2046 33.0257 24.5211 32.9551 24.8186 32.8166C25.5235 32.4854 26.0003 31.8234 26.0965 31.043C26.1163 30.8767 26.1188 30.7129 26.1035 30.5543C26.4302 30.7391 26.8026 30.8408 27.2057 30.8408C27.7477 30.8408 28.2728 30.6422 28.6805 30.2818C29.2649 29.7646 29.5399 28.9939 29.4135 28.2182C29.386 28.0491 29.3406 27.8852 29.2781 27.733C29.4443 27.7729 29.6158 27.7945 29.7896 27.7945C30.5635 27.7943 31.2709 27.4007 31.6846 26.7434C32.1026 26.0813 32.1467 25.2613 31.8094 24.5531C31.7363 24.3997 31.6476 24.2587 31.5457 24.1313C32.4889 24.077 33.3132 23.4202 33.5742 22.4965C33.7696 21.8098 33.6358 21.0882 33.2068 20.5154C33.0665 20.3277 32.9012 20.1664 32.7182 20.0355C33.0278 19.9231 33.3099 19.7428 33.5479 19.5012C33.9723 19.0715 34.2031 18.4997 34.2 17.8945C34.1936 16.9062 33.5532 16.0665 32.6725 15.7693C32.8569 15.6356 33.0223 15.4735 33.1611 15.2859C33.5824 14.7133 33.7122 13.966 33.5109 13.2855C33.2392 12.3816 32.4219 11.7379 31.4982 11.6824C31.5883 11.5593 31.6682 11.427 31.7338 11.2869C32.0649 10.5742 32.0085 9.75582 31.5844 9.09844C31.1706 8.45629 30.4654 8.07012 29.7035 8.07012C29.5252 8.07012 29.3529 8.09173 29.1867 8.13164C29.2431 7.98255 29.2854 7.82718 29.3098 7.66582C29.4273 6.88816 29.1465 6.11868 28.5557 5.60742C28.1511 5.25647 27.6327 5.06426 27.0984 5.06426C26.6942 5.06434 26.3116 5.173 25.9805 5.36836C25.9942 5.20667 25.9913 5.04094 25.9699 4.87617C25.866 4.09564 25.3792 3.43816 24.6709 3.11484C24.3794 2.981 24.0705 2.91445 23.7516 2.91445C23.1472 2.91462 22.5609 3.16611 22.1396 3.60176C22.132 3.61095 22.1226 3.62069 22.115 3.62988C22.083 3.46357 22.0323 3.29807 21.9621 3.13945C21.6429 2.42211 20.993 1.92886 20.2236 1.82109C20.1215 1.80574 20.0164 1.80002 19.9143 1.8ZM17.7029 31.3242C17.895 31.9122 17.8172 32.4928 17.4814 32.9607L17.3496 33.1207C17.0259 33.4733 16.5687 33.6797 16.0893 33.6797C16.0099 33.6797 15.9296 33.6729 15.8502 33.6621C15.2598 33.5787 14.7604 33.2021 14.5178 32.6496C14.2689 32.0875 14.3359 31.4523 14.7023 30.9041C15.4976 29.714 15.8535 29.1735 16.5357 28.1391C16.5495 28.119 16.5662 28.0976 16.5814 28.0775C16.5981 28.0531 16.614 28.0281 16.6307 28.0037C17.0245 29.2479 17.2449 29.9245 17.7029 31.3242ZM21.433 30.8689C21.804 31.411 21.8779 32.0491 21.6352 32.6127C21.397 33.1655 20.9008 33.5499 20.3115 33.6393C20.2278 33.6515 20.1419 33.6586 20.0566 33.6586C19.5135 33.6584 18.9935 33.3913 18.6715 32.9467C18.3372 32.4863 18.2548 31.9074 18.4395 31.3207C18.8882 29.892 19.0765 29.2786 19.4748 27.9826C20.203 29.0712 20.6041 29.6541 21.433 30.8689ZM13.9764 30.6932C13.9977 31.3612 13.7215 31.7928 13.4895 32.0361C13.1658 32.3718 12.7161 32.5635 12.252 32.5635L12.0691 32.5529C11.8895 32.5334 11.7153 32.485 11.5471 32.4088C11.0036 32.1609 10.6316 31.656 10.5521 31.057C10.4697 30.4475 10.7133 29.8582 11.2166 29.4363C12.3615 28.4817 12.8509 28.0683 13.8797 27.1969C13.9087 28.5085 13.9306 29.2184 13.9764 30.6932ZM24.8994 29.3678C25.406 29.782 25.6545 30.372 25.5797 30.9832L25.5375 31.2029C25.411 31.7051 25.071 32.1222 24.5971 32.342C24.3682 32.4497 24.1266 32.5036 23.8764 32.5037C23.4168 32.5037 22.965 32.3129 22.6459 31.9834C22.4109 31.7415 22.1365 31.3157 22.1502 30.6527C22.1822 29.155 22.1919 28.5128 22.2117 27.1564C23.2148 27.991 23.762 28.4377 24.8994 29.3678ZM18.0422 26.1176C18.3811 26.1207 18.6924 26.2839 18.8771 26.5518C19.1044 26.8797 19.1293 27.3369 18.9492 27.8402C18.6637 28.6425 18.3039 29.8485 18.0703 30.6492C17.8184 29.8654 17.4412 28.6847 17.1756 27.8824C16.9941 27.3375 17.0283 26.8461 17.274 26.5043C17.4511 26.2567 17.7262 26.1176 18.0299 26.1176H18.0422ZM10.5996 29.0373C10.3843 29.8735 9.71886 30.4137 8.90508 30.4137C8.49616 30.4135 8.10016 30.2631 7.78887 29.9953L7.62891 29.8389C7.28611 29.4549 7.13019 28.9376 7.20879 28.415C7.30189 27.8085 7.69942 27.308 8.30215 27.0492C9.6671 26.4579 10.2517 26.1989 11.4838 25.6553C11.1449 26.9208 10.9674 27.6074 10.5996 29.0373ZM27.791 26.9473C28.3938 27.2014 28.799 27.696 28.8967 28.3025C28.9942 28.8982 28.7828 29.4892 28.3342 29.8863L28.2129 29.9865C27.9207 30.2014 27.5669 30.317 27.2021 30.317C26.3979 30.3167 25.7361 29.7849 25.5146 28.96C25.1253 27.514 24.9556 26.8959 24.5953 25.5885C25.7891 26.1043 26.4414 26.3791 27.791 26.9473ZM15.4916 25.8082C15.5863 25.8082 15.6832 25.8211 15.7764 25.8504C16.1 25.952 16.3526 26.1983 16.4549 26.5078C16.5572 26.8204 16.5024 27.1771 16.3055 27.5344L16.2229 27.6574C16.1833 27.7202 16.1446 27.7805 16.1051 27.8402C15.6106 28.5268 14.9551 29.5302 14.523 30.2063C14.5032 29.3826 14.4732 28.144 14.4457 27.2988C14.4289 26.7986 14.5608 26.373 14.8201 26.1035C15.0032 25.9127 15.2399 25.8084 15.4916 25.8082ZM20.6244 25.8117C20.9066 25.8119 21.1665 25.925 21.3557 26.1281C21.5996 26.3883 21.7115 26.776 21.6826 27.2514C21.6322 28.1044 21.6246 29.3628 21.6246 30.1975C21.165 29.5153 20.4712 28.4908 19.9934 27.7963L19.8809 27.617C19.6436 27.2006 19.5823 26.7882 19.7051 26.4393C19.8089 26.1498 20.0377 25.9371 20.3309 25.8539C20.427 25.8262 20.5267 25.8117 20.6244 25.8117ZM13.3172 24.685C13.4519 24.7059 13.5819 24.7577 13.6986 24.8361C13.9791 25.027 14.1518 25.3345 14.1627 25.6605C14.1734 26.0593 13.9457 26.4587 13.5229 26.782C12.8495 27.2964 11.8933 28.1087 11.2658 28.6523C11.4811 27.8563 11.8007 26.6608 12.0129 25.8416C12.2372 24.9844 12.7616 24.6783 13.1783 24.6779L13.3172 24.685ZM22.9482 24.6375C23.4943 24.6379 23.9162 25.0561 24.075 25.7607C24.2643 26.5921 24.6076 27.8024 24.8396 28.6031C24.2092 28.0796 23.2589 27.2955 22.6055 26.7627C22.1597 26.3977 21.9256 25.9645 21.9516 25.541C21.9699 25.2346 22.1315 24.9657 22.391 24.801C22.5618 24.6936 22.7547 24.6375 22.9482 24.6375ZM7.82051 26.4937C7.47708 27.0726 6.92424 27.4041 6.3 27.4043C5.71524 27.4043 5.17441 27.1096 4.85684 26.6168C4.53193 26.1119 4.48942 25.4845 4.74258 24.9381C4.89831 24.6024 5.14724 24.3382 5.46328 24.1611C5.54099 24.1304 5.61912 24.0936 5.69531 24.0521C5.84332 23.9952 6.00362 23.9544 6.16992 23.9344C7.64612 23.7527 8.27739 23.6709 9.61172 23.4984C8.93392 24.6178 8.57148 25.2283 7.82051 26.4937ZM29.8934 23.7955H29.8986C30.549 23.8694 31.0726 24.2276 31.3383 24.7834C31.5978 25.327 31.564 25.9559 31.2434 26.4656C30.9259 26.9689 30.3833 27.2688 29.7896 27.2689C29.196 27.2689 28.6233 26.944 28.2797 26.3777C27.501 25.0996 27.1632 24.5523 26.4533 23.4035C27.7418 23.559 28.4415 23.6369 29.8934 23.7955ZM11.2148 23.008C11.4894 23.0082 11.7397 23.1266 11.9197 23.342C12.1395 23.6022 12.2241 23.9461 12.1447 24.2648L12.099 24.4037C11.9648 24.7266 11.6613 24.9918 11.2271 25.1631C10.4393 25.4726 9.30072 25.9913 8.54648 26.3408C8.96939 25.634 9.6041 24.5714 10.0301 23.843C10.34 23.3132 10.7721 23.008 11.2148 23.008ZM24.9293 22.9711C25.3644 22.9711 25.762 23.2544 26.049 23.7656L26.3988 24.3738C26.7829 25.0199 27.2445 25.7501 27.5801 26.2758C26.8275 25.954 25.6943 25.4724 24.9188 25.149C24.3892 24.9274 24.0433 24.5787 23.9484 24.1646C23.8798 23.866 23.9565 23.5622 24.1594 23.3297C24.3609 23.1018 24.6407 22.9711 24.9293 22.9711ZM19.1496 9.73477C19.3298 10.1428 19.682 10.4588 20.1217 10.5943C20.2636 10.639 20.4089 10.6611 20.5523 10.6611C20.8545 10.6611 21.1398 10.5659 21.3855 10.3904C21.4329 10.8445 21.6875 11.2659 22.0781 11.5277C22.3192 11.6893 22.5959 11.7737 22.8797 11.7738C23.0611 11.7738 23.237 11.7399 23.4018 11.6754C23.33 12.1188 23.461 12.5834 23.7586 12.9375C24.0365 13.267 24.4381 13.4561 24.8625 13.4561C24.876 13.456 24.8895 13.4543 24.9029 13.4543C24.7031 13.8623 24.6963 14.3519 24.8871 14.7814C25.081 15.2218 25.4609 15.5247 25.9189 15.6217C25.9175 15.6217 25.9149 15.6274 25.9119 15.6305C25.6205 15.9675 25.4908 16.4195 25.5516 16.875C25.6141 17.3292 25.8693 17.7048 26.2371 17.9297C25.856 18.1606 25.5847 18.5544 25.5129 19.0389C25.4472 19.4685 25.564 19.8882 25.8434 20.2131C25.8586 20.2316 25.8758 20.2506 25.8926 20.2676C25.479 20.3908 25.1315 20.6891 24.9346 21.1078C24.7315 21.5405 24.7464 22.0299 24.9785 22.4473C24.9633 22.4473 24.9463 22.449 24.9311 22.449C24.4945 22.449 24.0704 22.6447 23.7727 22.9834C23.4765 23.3206 23.3544 23.7552 23.4246 24.191C23.2643 24.1371 23.1009 24.1119 22.9482 24.1119C22.6554 24.1121 22.368 24.1962 22.1133 24.3562C21.7106 24.6117 21.4605 25.0309 21.4312 25.5094V25.5146C21.1934 25.3655 20.9189 25.2863 20.6262 25.2861C20.4813 25.2861 20.3341 25.3059 20.1938 25.3459C19.7649 25.4675 19.4241 25.7657 19.2516 26.1721C18.9645 25.8102 18.5225 25.5946 18.0492 25.5885H18.0316C17.5736 25.5885 17.1546 25.7983 16.8768 26.1633C16.6921 25.7784 16.3523 25.4801 15.9311 25.3477C15.7875 25.303 15.6399 25.2809 15.4934 25.2809C15.2004 25.2809 14.9189 25.3715 14.6777 25.5393C14.6319 25.0837 14.381 24.6633 13.9904 24.3984C13.7477 24.2337 13.4689 24.1471 13.1818 24.1471C13.0079 24.1471 12.8398 24.18 12.6826 24.2385C12.7452 23.8027 12.6151 23.3488 12.3205 22.9992C12.0443 22.6713 11.6466 22.4839 11.2254 22.4807C11.4007 22.0881 11.4024 21.626 11.2254 21.215C11.0238 20.75 10.6151 20.4353 10.125 20.3537C10.4074 20.0181 10.534 19.5695 10.473 19.1215C10.412 18.6735 10.1637 18.304 9.80508 18.0791C10.1944 17.8481 10.4701 17.4486 10.5434 16.9559C10.6075 16.5278 10.4905 16.1099 10.2111 15.7834C10.1914 15.7589 10.1691 15.7363 10.1479 15.7148C10.557 15.5886 10.9032 15.2921 11.0971 14.8764C11.2967 14.4515 11.2839 13.9742 11.0672 13.5633C11.0853 13.5648 11.1053 13.5668 11.1234 13.5668C11.5662 13.5668 11.9949 13.3666 12.2941 13.0201C12.5872 12.6814 12.7049 12.2452 12.6316 11.8125C12.7735 11.8524 12.9138 11.8723 13.0465 11.8723C13.3395 11.8722 13.6263 11.7879 13.8797 11.6279C14.2751 11.3785 14.5236 10.9715 14.5617 10.5064C14.8058 10.6633 15.0876 10.749 15.3896 10.749C15.5316 10.749 15.6739 10.7295 15.8098 10.691C16.2662 10.5663 16.6242 10.2395 16.7906 9.79453C17.0761 10.1302 17.5008 10.3315 17.9543 10.3377H17.9736C18.4437 10.3376 18.8733 10.1166 19.1496 9.73477ZM4.65996 20.3309C4.76981 20.3309 4.88457 20.3405 4.99746 20.359C6.46449 20.6023 7.09347 20.7033 8.42168 20.9127C7.46004 21.7964 6.94276 22.2785 5.87109 23.284C5.74465 23.4007 5.61219 23.4974 5.47207 23.5758C5.39115 23.6081 5.3111 23.6447 5.23477 23.6848C5.04249 23.7586 4.83982 23.7973 4.63535 23.7973C3.88417 23.7973 3.21013 23.2903 2.9918 22.565L2.94434 22.3664C2.86376 21.9008 2.97584 21.4127 3.25898 21.0287C3.58572 20.5852 4.09658 20.3309 4.65996 20.3309ZM31.398 20.1428C31.9551 20.1428 32.4633 20.3946 32.7885 20.8301C33.1183 21.269 33.2196 21.8257 33.0715 22.3523L32.9713 22.6195C32.6899 23.2134 32.0875 23.6092 31.4209 23.6092C31.0409 23.6091 30.6757 23.4812 30.3521 23.2365C30.282 23.1765 30.1875 23.0944 30.0762 22.9975C29.1405 22.1461 28.6625 21.7147 27.8385 20.976C27.7927 20.9298 27.7441 20.8837 27.7014 20.8406C27.6772 20.8177 27.6538 20.797 27.6311 20.7756C28.9029 20.56 29.597 20.4336 31.0307 20.1779H31.0342C31.1578 20.1548 31.2806 20.1428 31.398 20.1428ZM9.86836 20.8582C10.2637 20.8582 10.5913 21.0704 10.7455 21.426C10.8799 21.7386 10.8607 22.0932 10.6928 22.3734C10.4879 22.7144 10.0842 22.9241 9.55371 22.9641C8.71094 23.0303 7.47294 23.1931 6.65332 23.3086C7.26096 22.7558 8.17224 21.9232 8.78906 21.3504C9.13846 21.0272 9.51132 20.8584 9.86836 20.8582ZM26.325 20.7316C26.5814 20.7317 26.8411 20.826 27.0914 21.0076L27.2285 21.1307C27.3201 21.2123 27.4062 21.289 27.4887 21.3645C28.0902 21.945 28.9311 22.6926 29.5066 23.1961L26.6396 22.8639C26.0686 22.8023 25.6401 22.562 25.4355 22.1924C25.2876 21.9246 25.2763 21.6129 25.4074 21.3328C25.5815 20.9617 25.9326 20.7316 26.325 20.7316ZM18 13.4051C15.4037 13.4055 13.2996 15.5109 13.2996 18.1072C13.3 20.7032 15.4039 22.8072 18 22.8076C20.5964 22.8076 22.7017 20.7034 22.7021 18.1072C22.7021 15.5107 20.5966 13.4051 18 13.4051ZM8.93672 18.3639C9.47693 18.3641 9.88753 18.6961 9.95625 19.1918C9.99747 19.4967 9.91125 19.798 9.71895 20.0197C9.50672 20.2646 9.19047 20.3941 8.79961 20.3941C8.6732 20.3941 8.53761 20.3811 8.40059 20.352C7.57001 20.1856 6.33414 20.0058 5.51426 19.8949C6.09749 19.6008 6.91701 19.1896 7.60254 18.8385C7.82366 18.7293 8.05946 18.6143 8.32324 18.4852L8.47969 18.4324C8.63611 18.3862 8.7889 18.3639 8.93672 18.3639ZM27.058 18.2303C27.3068 18.2303 27.5726 18.3073 27.8473 18.4535C28.5954 18.8492 29.7317 19.3774 30.4857 19.7191C29.6796 19.8624 28.4696 20.0782 27.6451 20.2307C27.0455 20.3413 26.5243 20.2073 26.2389 19.8703L26.1246 19.7051C26.0305 19.5291 25.997 19.3279 26.0279 19.1197C26.0951 18.6778 26.4381 18.2303 27.058 18.2303ZM4.03594 16.36C4.31349 16.3601 4.59089 16.4281 4.86387 16.5604C6.19828 17.2087 6.77805 17.4841 7.98574 18.0615C7.94311 18.08 7.89981 18.1015 7.85566 18.123C7.70604 18.2 7.54151 18.2831 7.37051 18.3709C6.5572 18.771 5.94382 19.081 4.88496 19.6119C4.60578 19.7519 4.32121 19.8227 4.03594 19.8229C3.09714 19.8229 2.32846 19.0521 2.32207 18.1037L2.33086 17.9297C2.36805 17.5304 2.53969 17.1582 2.82305 16.8697C3.14825 16.5402 3.57944 16.36 4.03594 16.36ZM31.9658 16.1771C32.9046 16.1771 33.6733 16.9479 33.6797 17.8963L33.6709 18.0703C33.6337 18.4695 33.462 18.8418 33.1787 19.1303C32.8535 19.4598 32.4223 19.64 31.9658 19.64C31.7463 19.64 31.5284 19.5967 31.3119 19.5152C31.2432 19.4829 31.1518 19.4434 31.0465 19.3957C29.778 18.7814 29.1988 18.5042 28.0248 17.9438C28.072 17.9222 28.12 17.8982 28.1672 17.8752C28.5794 17.6627 29.1018 17.3993 29.6086 17.1422C30.0451 16.9236 30.5094 16.6926 31.1168 16.3863C31.396 16.2478 31.6805 16.1772 31.9658 16.1771ZM8.40762 15.7711C9.00764 15.6571 9.52859 15.7924 9.81563 16.1297C9.99244 16.3375 10.0694 16.6034 10.0283 16.8803C9.96117 17.3221 9.61896 17.7694 8.99648 17.7697L8.8084 17.7539C8.61657 17.7264 8.41698 17.6569 8.21074 17.5482C7.46135 17.1526 6.32612 16.6297 5.57051 16.2879C6.37658 16.1447 7.58494 15.925 8.40762 15.7711ZM27.2232 15.6023C27.3513 15.6024 27.4856 15.6169 27.6258 15.6445C28.4564 15.8124 29.6923 15.9925 30.5121 16.1033C30.1838 16.2681 29.784 16.468 29.3748 16.6729C28.8331 16.9437 28.3278 17.1928 27.6275 17.5359C27.4413 17.6006 27.2604 17.6344 27.0879 17.6344C26.546 17.6342 26.1355 17.2989 26.0684 16.8047C26.0257 16.4999 26.1131 16.1984 26.3039 15.9768C26.5161 15.7304 26.834 15.6023 27.2232 15.6023ZM4.58086 12.3908C5.02038 12.391 5.44343 12.5617 5.79902 12.8865C6.90243 13.8901 7.37545 14.3171 8.38125 15.2191C7.09797 15.4377 6.40471 15.5618 4.96582 15.8203C4.84225 15.8419 4.71943 15.8537 4.60195 15.8537C4.04479 15.8537 3.53674 15.602 3.21152 15.1664C2.88188 14.7262 2.7807 14.1723 2.92852 13.6459L3.03047 13.3787C3.31186 12.785 3.91436 12.3908 4.58086 12.3908ZM31.3664 12.2027C32.1175 12.2028 32.7916 12.7097 33.01 13.435L33.0574 13.6336C33.1381 14.0984 33.0255 14.5874 32.741 14.9713C32.4143 15.4129 31.9049 15.6691 31.3418 15.6691C31.2655 15.6691 31.1876 15.6628 31.1098 15.6551C31.0885 15.652 31.0657 15.6493 31.043 15.6463C31.0308 15.6463 31.0165 15.6423 31.0043 15.6393C29.5402 15.3975 28.9106 15.2967 27.5854 15.0873C27.6143 15.0627 27.6443 15.0378 27.6732 15.0117C27.7954 14.8947 27.9318 14.768 28.0723 14.6355C28.6218 14.129 29.056 13.7214 29.6666 13.1502C29.8986 12.9347 30.0965 12.7528 30.2309 12.6281C30.3268 12.5498 30.4261 12.4811 30.5297 12.4242C30.6106 12.3903 30.6907 12.3551 30.767 12.3135C30.9592 12.2412 31.1605 12.2027 31.3664 12.2027ZM9.39023 13.1238C9.96102 13.1855 10.3898 13.4258 10.5943 13.7953C10.7436 14.0631 10.7537 14.3748 10.6225 14.6549L10.5521 14.785C10.363 15.0772 10.0499 15.2543 9.70488 15.2543C9.3647 15.254 9.01425 15.0858 8.69238 14.7674C8.08625 14.1714 7.1477 13.34 6.52324 12.7934C7.33549 12.8904 8.55661 13.033 9.39023 13.1238ZM29.315 12.7635C28.848 13.196 28.2386 13.7619 27.7242 14.2453C27.5517 14.4039 27.3668 14.572 27.1652 14.7568C26.8601 15.0013 26.5417 15.1311 26.2336 15.1313C25.8443 15.1313 25.5177 14.92 25.3635 14.5705C25.2245 14.2579 25.2408 13.9031 25.4057 13.6213C25.6072 13.2768 26.0086 13.0647 26.5377 13.0184C27.3804 12.946 28.6162 12.7711 29.4346 12.651C29.3936 12.6877 29.3545 12.7267 29.315 12.7635ZM11.1234 10.8633C11.6563 11.0804 12.0051 11.4262 12.1043 11.8389C12.176 12.1376 12.1019 12.4433 11.9004 12.6773C11.6989 12.9098 11.4165 13.0412 11.1234 13.0412C10.6931 13.0409 10.2956 12.7621 10.0072 12.2572L9.65039 11.6525C9.26024 11.0105 8.79274 10.2842 8.45156 9.76113C9.20705 10.0767 10.3448 10.5476 11.1234 10.8633ZM25.8521 12.382L25.7414 12.5086C25.4799 12.7808 25.1748 12.9304 24.8625 12.9305C24.5879 12.9305 24.3393 12.8118 24.1576 12.5965C23.9378 12.3362 23.8532 11.9926 23.9326 11.6754C24.0304 11.2874 24.3558 10.9692 24.852 10.7736C25.6352 10.4672 26.7624 9.95443 27.515 9.60645C26.877 10.6842 26.5176 11.2829 25.8521 12.382ZM6.21387 8.7293C6.80763 8.7293 7.38027 9.05586 7.72383 9.62227C8.50249 10.8989 8.84024 11.4462 9.5502 12.5965C8.2588 12.4394 7.55931 12.3628 6.10488 12.2027C5.45447 12.1304 4.92914 11.771 4.66348 11.2166C4.4041 10.6715 4.4396 10.044 4.76016 9.53437C5.07774 9.03105 5.62012 8.72933 6.21387 8.7293ZM29.7018 8.5957C30.2865 8.5957 30.8274 8.89219 31.1449 9.38496L31.2557 9.57656C31.4782 10.0417 31.4824 10.5837 31.2609 11.0619C31.1052 11.3976 30.8563 11.6616 30.5402 11.8371C30.4609 11.8694 30.3845 11.9061 30.3082 11.9461C30.2244 11.9784 30.1362 12.0069 30.0463 12.027C29.9516 12.0424 29.8179 12.0621 29.6561 12.0867C28.3126 12.2515 27.677 12.3348 26.4129 12.498C26.4417 12.4552 26.4697 12.4121 26.4955 12.3662C27.0619 11.3976 27.9983 9.83317 28.3113 9.31113C28.6563 8.85415 29.1524 8.5958 29.7018 8.5957ZM13.3893 9.22324C13.8364 9.58808 14.0687 10.0214 14.0414 10.4432C14.0231 10.7496 13.8633 11.02 13.6037 11.1832C13.4328 11.2894 13.2403 11.3467 13.0465 11.3467C12.4999 11.3467 12.0768 10.9267 11.918 10.2199C11.7302 9.38837 11.3906 8.17642 11.1586 7.37578C11.7892 7.9009 12.7388 8.69043 13.3893 9.22324ZM24.0451 10.0775C23.8253 10.939 23.2993 11.2478 22.8797 11.2482C22.6995 11.2482 22.5206 11.1912 22.3664 11.0865C22.0826 10.8988 21.9095 10.5934 21.8971 10.2656C21.8864 9.90859 22.065 9.55263 22.4051 9.24785L22.4121 9.24082C22.4392 9.21802 22.4674 9.1953 22.493 9.17402C22.5062 9.16359 22.5181 9.15314 22.5299 9.14414C23.2032 8.62673 24.1557 7.80995 24.7816 7.26328C24.5694 8.05942 24.2543 9.2583 24.0451 10.0775ZM8.79961 5.67949C9.60387 5.67984 10.2658 6.21293 10.4871 7.03652C10.8763 8.48352 11.0462 9.10248 11.4064 10.408C10.2126 9.89218 9.56036 9.61742 8.21074 9.04922C7.60819 8.79364 7.20298 8.30192 7.10508 7.6957C7.00736 7.09975 7.2187 6.5057 7.66758 6.1084C7.98054 5.83133 8.38289 5.67949 8.79961 5.67949ZM27.0984 5.58457C27.5076 5.58457 27.9049 5.73344 28.2164 6.00293L28.3729 6.15938C28.7161 6.54278 28.8718 7.06158 28.793 7.5832C28.7118 8.10791 28.4038 8.5507 27.9369 8.82773C27.818 8.88464 27.6336 8.97104 27.4096 9.07559C26.2477 9.58066 25.6619 9.83769 24.5215 10.3412C24.8603 9.07747 25.0378 8.38924 25.4057 6.95918C25.6209 6.12469 26.2849 5.58477 27.0984 5.58457ZM16.0277 8.24414C16.3514 8.72306 16.449 9.20739 16.3055 9.60469C16.2001 9.89225 15.9702 10.1031 15.6744 10.1848C15.5813 10.2109 15.4843 10.2234 15.3896 10.2234C15.1058 10.2234 14.8441 10.1115 14.6549 9.90527C14.4106 9.64349 14.2996 9.25238 14.3332 8.775L14.3701 8.07539C14.3998 7.32233 14.4112 6.45686 14.4158 5.83066C14.8692 6.51577 15.5544 7.54656 16.0277 8.24414ZM21.5965 8.56406C21.598 8.62412 21.6002 8.68725 21.6018 8.75039C21.5971 9.20424 21.4668 9.5876 21.2273 9.83848C21.0442 10.0309 20.8057 10.1355 20.5523 10.1355C20.4594 10.1355 20.3643 10.1225 20.2729 10.0934C19.9476 9.99326 19.6931 9.74722 19.5908 9.4377C19.4827 9.10983 19.5454 8.7337 19.7666 8.35664L19.7736 8.34785C19.8163 8.28491 19.8553 8.22316 19.8949 8.16328C20.3925 7.47366 21.0661 6.42981 21.5104 5.73223C21.5317 6.53272 21.566 7.72358 21.5965 8.56406ZM18.8297 8.04551C19.0098 8.59034 18.9749 9.08179 18.7295 9.42363C18.5525 9.66993 18.2773 9.812 17.9736 9.81211H17.9596C17.6206 9.80749 17.3094 9.64258 17.1246 9.37617C16.9002 9.04663 16.8744 8.58946 17.0561 8.08594C17.3431 7.28364 17.7049 6.07942 17.9385 5.27871C18.1888 6.06394 18.5656 7.24325 18.8297 8.04551ZM12.1271 3.49629C12.5867 3.49629 13.0368 3.68552 13.3559 4.0166C13.591 4.25685 13.8671 4.68367 13.8533 5.34727C13.8213 6.84502 13.8116 7.48717 13.7918 8.84355C12.7902 8.00892 12.2431 7.56234 11.1041 6.63223C10.5973 6.21645 10.349 5.62656 10.4238 5.0168L10.466 4.79707C10.5926 4.29477 10.9323 3.87731 11.4064 3.65625C11.6354 3.55 11.8768 3.4963 12.1271 3.49629ZM23.7498 3.43652C23.9941 3.43652 24.2303 3.48958 24.4547 3.59121C24.998 3.83914 25.3702 4.34394 25.4496 4.94121C25.5321 5.55102 25.2872 6.14327 24.7834 6.56367C23.6511 7.50868 23.1627 7.9221 22.1537 8.775C22.1433 8.78398 22.1325 8.79239 22.1221 8.80137V8.75039C22.1221 8.70888 22.1218 8.66512 22.1203 8.62207C22.1203 8.59897 22.1199 8.57486 22.1168 8.55176C22.0909 7.39428 22.0699 6.68284 22.0271 5.30508C22.0058 4.63837 22.282 4.20565 22.5141 3.96387C22.8375 3.62837 23.286 3.43675 23.7498 3.43652ZM15.9451 2.34141C16.4886 2.34141 17.0099 2.60835 17.332 3.05332C17.6679 3.51367 17.7487 4.09269 17.5641 4.6793C17.1152 6.10835 16.9254 6.72231 16.527 8.01738C15.8842 7.05647 15.4944 6.48747 14.8395 5.52656C14.6793 5.28499 14.5492 5.08872 14.4668 4.96406C14.1859 4.46054 14.1468 3.89389 14.3666 3.3873L14.4703 3.18867C14.7325 2.74274 15.1747 2.43903 15.6902 2.36074C15.774 2.34845 15.8598 2.34143 15.9451 2.34141ZM20.1516 2.33789C20.7424 2.41951 21.243 2.79756 21.4857 3.35039C21.7071 3.84771 21.6777 4.40565 21.4137 4.90605C21.3542 4.99981 21.2761 5.12423 21.1816 5.27168C20.4671 6.34344 20.1116 6.88224 19.4643 7.86621C19.4642 7.86774 19.4631 7.87003 19.4607 7.87148C19.4287 7.9146 19.4001 7.95844 19.3711 8.00156C18.9787 6.75422 18.7586 6.07733 18.3006 4.67754C18.1084 4.08787 18.1862 3.50598 18.5221 3.04102L18.6539 2.8793C18.9776 2.52683 19.4349 2.32031 19.9143 2.32031C19.9934 2.32033 20.0724 2.32716 20.1516 2.33789Z" fill="#82C83C"/>
<path opacity="0.6" d="M4.02642 48V39.516H5.58642L8.17842 44.184L10.7344 39.516H12.2584V48H11.2144V40.572L8.39442 45.792H7.91442L5.07042 40.572V48H4.02642ZM14.9026 45.216C14.9266 45.496 14.9826 45.756 15.0706 45.996C15.1666 46.228 15.2946 46.432 15.4546 46.608C15.6146 46.784 15.8106 46.924 16.0426 47.028C16.2826 47.124 16.5586 47.172 16.8706 47.172C17.0226 47.172 17.1786 47.16 17.3386 47.136C17.5066 47.104 17.6626 47.056 17.8066 46.992C17.9506 46.92 18.0786 46.828 18.1906 46.716C18.3026 46.604 18.3866 46.468 18.4426 46.308H19.4866C19.4146 46.612 19.2906 46.876 19.1146 47.1C18.9466 47.324 18.7426 47.508 18.5026 47.652C18.2706 47.796 18.0106 47.904 17.7226 47.976C17.4346 48.04 17.1426 48.072 16.8466 48.072C16.3426 48.072 15.9026 47.992 15.5266 47.832C15.1586 47.672 14.8506 47.452 14.6026 47.172C14.3546 46.884 14.1706 46.544 14.0506 46.152C13.9306 45.752 13.8706 45.316 13.8706 44.844C13.8706 44.372 13.9346 43.94 14.0626 43.548C14.1986 43.148 14.3906 42.804 14.6386 42.516C14.8866 42.228 15.1906 42.004 15.5506 41.844C15.9106 41.684 16.3386 41.604 16.8346 41.604C17.3386 41.604 17.7746 41.704 18.1426 41.904C18.5106 42.104 18.8066 42.368 19.0306 42.696C19.2546 43.016 19.4106 43.364 19.4986 43.74C19.5946 44.116 19.6346 44.464 19.6186 44.784C19.6186 44.856 19.6146 44.928 19.6066 45C19.6066 45.072 19.6026 45.144 19.5946 45.216H14.9026ZM18.5866 44.328C18.5706 43.792 18.4026 43.356 18.0826 43.02C17.7626 42.684 17.3346 42.516 16.7986 42.516C16.5026 42.516 16.2426 42.564 16.0186 42.66C15.7946 42.756 15.6066 42.888 15.4546 43.056C15.3026 43.224 15.1826 43.42 15.0946 43.644C15.0066 43.86 14.9506 44.088 14.9266 44.328H18.5866ZM22.0095 50.28H20.9895V41.676H21.9615L22.0095 42.648C22.2255 42.304 22.5175 42.048 22.8855 41.88C23.2615 41.704 23.6655 41.612 24.0975 41.604C24.5855 41.604 24.9975 41.688 25.3335 41.856C25.6775 42.016 25.9615 42.244 26.1855 42.54C26.4175 42.828 26.5895 43.172 26.7015 43.572C26.8135 43.964 26.8695 44.388 26.8695 44.844C26.8695 45.308 26.8135 45.736 26.7015 46.128C26.5895 46.52 26.4175 46.86 26.1855 47.148C25.9535 47.436 25.6615 47.664 25.3095 47.832C24.9575 47.992 24.5375 48.072 24.0495 48.072C23.5695 48.072 23.1615 47.996 22.8255 47.844C22.4895 47.692 22.2175 47.492 22.0095 47.244V50.28ZM23.9655 47.172C24.3095 47.172 24.5975 47.112 24.8295 46.992C25.0695 46.864 25.2615 46.696 25.4055 46.488C25.5575 46.272 25.6655 46.024 25.7295 45.744C25.8015 45.464 25.8415 45.164 25.8495 44.844C25.8495 44.524 25.8135 44.224 25.7415 43.944C25.6775 43.656 25.5695 43.408 25.4175 43.2C25.2655 42.992 25.0655 42.828 24.8175 42.708C24.5775 42.58 24.2855 42.516 23.9415 42.516C23.5335 42.516 23.1815 42.628 22.8855 42.852C22.5895 43.068 22.3655 43.344 22.2135 43.68C22.1255 43.864 22.0655 44.056 22.0335 44.256C22.0015 44.448 21.9855 44.648 21.9855 44.856C21.9855 45.096 22.0015 45.32 22.0335 45.528C22.0655 45.728 22.1255 45.92 22.2135 46.104C22.3655 46.408 22.5855 46.664 22.8735 46.872C23.1695 47.072 23.5335 47.172 23.9655 47.172ZM28.9769 45.216C29.0009 45.496 29.0569 45.756 29.1449 45.996C29.2409 46.228 29.3689 46.432 29.5289 46.608C29.6889 46.784 29.8849 46.924 30.1169 47.028C30.3569 47.124 30.6329 47.172 30.9449 47.172C31.0969 47.172 31.2529 47.16 31.4129 47.136C31.5809 47.104 31.7369 47.056 31.8809 46.992C32.0249 46.92 32.1529 46.828 32.2649 46.716C32.3769 46.604 32.4609 46.468 32.5169 46.308H33.5609C33.4889 46.612 33.3649 46.876 33.1889 47.1C33.0209 47.324 32.8169 47.508 32.5769 47.652C32.3449 47.796 32.0849 47.904 31.7969 47.976C31.5089 48.04 31.2169 48.072 30.9209 48.072C30.4169 48.072 29.9769 47.992 29.6009 47.832C29.2329 47.672 28.9249 47.452 28.6769 47.172C28.4289 46.884 28.2449 46.544 28.1249 46.152C28.0049 45.752 27.9449 45.316 27.9449 44.844C27.9449 44.372 28.0089 43.94 28.1369 43.548C28.2729 43.148 28.4649 42.804 28.7129 42.516C28.9609 42.228 29.2649 42.004 29.6249 41.844C29.9849 41.684 30.4129 41.604 30.9089 41.604C31.4129 41.604 31.8489 41.704 32.2169 41.904C32.5849 42.104 32.8809 42.368 33.1049 42.696C33.3289 43.016 33.4849 43.364 33.5729 43.74C33.6689 44.116 33.7089 44.464 33.6929 44.784C33.6929 44.856 33.6889 44.928 33.6809 45C33.6809 45.072 33.6769 45.144 33.6689 45.216H28.9769ZM32.6609 44.328C32.6449 43.792 32.4769 43.356 32.1569 43.02C31.8369 42.684 31.4089 42.516 30.8729 42.516C30.5769 42.516 30.3169 42.564 30.0929 42.66C29.8689 42.756 29.6809 42.888 29.5289 43.056C29.3769 43.224 29.2569 43.42 29.1689 43.644C29.0809 43.86 29.0249 44.088 29.0009 44.328H32.6609ZM38.1986 48V45.276H37.1426L35.4986 48H34.3106L36.3626 44.688L34.4906 41.676H35.5826L37.2506 44.412H38.1986V41.676H39.2186V44.412H40.1666L41.8346 41.676H42.9266L41.0546 44.688L43.1066 48H41.9186L40.2746 45.276H39.2186V48H38.1986ZM48.1223 47.196C47.9863 47.38 47.8303 47.528 47.6543 47.64C47.4783 47.752 47.2943 47.84 47.1023 47.904C46.9183 47.968 46.7303 48.012 46.5383 48.036C46.3543 48.06 46.1703 48.072 45.9863 48.072C45.6903 48.072 45.4103 48.036 45.1463 47.964C44.8823 47.892 44.6423 47.776 44.4263 47.616C44.2183 47.456 44.0503 47.256 43.9223 47.016C43.8023 46.776 43.7423 46.504 43.7423 46.2C43.7423 45.84 43.8063 45.54 43.9343 45.3C44.0703 45.052 44.2503 44.852 44.4743 44.7C44.6983 44.548 44.9543 44.444 45.2423 44.388C45.5383 44.324 45.8503 44.292 46.1783 44.292H48.0383C48.0383 43.756 47.9223 43.332 47.6903 43.02C47.4583 42.7 47.0663 42.532 46.5143 42.516C46.1783 42.516 45.8823 42.572 45.6263 42.684C45.3703 42.796 45.1943 42.98 45.0983 43.236H44.0063C44.0623 42.948 44.1743 42.704 44.3423 42.504C44.5103 42.296 44.7103 42.128 44.9423 42C45.1743 41.864 45.4263 41.764 45.6983 41.7C45.9703 41.636 46.2423 41.604 46.5143 41.604C46.9863 41.604 47.3823 41.684 47.7023 41.844C48.0303 41.996 48.2943 42.2 48.4943 42.456C48.6943 42.704 48.8343 43.008 48.9143 43.368C48.9943 43.728 49.0343 44.132 49.0343 44.58V48H48.1823L48.1223 47.196ZM46.9223 45.144C46.7303 45.144 46.5063 45.144 46.2503 45.144C46.0023 45.144 45.7623 45.172 45.5303 45.228C45.2983 45.276 45.1103 45.376 44.9663 45.528C44.8303 45.68 44.7623 45.88 44.7623 46.128C44.7623 46.312 44.7983 46.468 44.8703 46.596C44.9423 46.724 45.0383 46.832 45.1583 46.92C45.2863 47.008 45.4303 47.072 45.5903 47.112C45.7503 47.152 45.9143 47.172 46.0823 47.172C46.6823 47.172 47.1543 47.028 47.4983 46.74C47.8503 46.444 48.0303 46.016 48.0383 45.456V45.144H46.9223ZM56.5489 48.072C56.0449 48.072 55.6089 47.992 55.2409 47.832C54.8729 47.672 54.5689 47.448 54.3289 47.16C54.0889 46.872 53.9089 46.532 53.7889 46.14C53.6689 45.748 53.6089 45.32 53.6089 44.856C53.6089 44.408 53.6729 43.988 53.8009 43.596C53.9289 43.196 54.1169 42.852 54.3649 42.564C54.6129 42.268 54.9249 42.036 55.3009 41.868C55.6769 41.692 56.1329 41.604 56.6689 41.604C56.9889 41.604 57.2729 41.64 57.5209 41.712C57.7689 41.776 58.0009 41.884 58.2169 42.036C58.4409 42.18 58.6329 42.372 58.7929 42.612C58.9529 42.852 59.0689 43.144 59.1409 43.488H58.0969C57.9769 43.136 57.7849 42.884 57.5209 42.732C57.2649 42.58 56.9609 42.508 56.6089 42.516C56.2649 42.516 55.9609 42.584 55.6969 42.72C55.4409 42.848 55.2329 43.02 55.0729 43.236C54.9209 43.452 54.8089 43.704 54.7369 43.992C54.6649 44.272 54.6289 44.56 54.6289 44.856C54.6289 45.168 54.6649 45.464 54.7369 45.744C54.8169 46.024 54.9329 46.272 55.0849 46.488C55.2449 46.696 55.4489 46.864 55.6969 46.992C55.9449 47.112 56.2409 47.172 56.5849 47.172C56.7529 47.172 56.9169 47.156 57.0769 47.124C57.2449 47.092 57.3969 47.04 57.5329 46.968C57.6769 46.888 57.8009 46.784 57.9049 46.656C58.0089 46.528 58.0849 46.372 58.1329 46.188H59.1889C59.1249 46.516 59.0089 46.8 58.8409 47.04C58.6809 47.272 58.4809 47.468 58.2409 47.628C58.0009 47.78 57.7369 47.892 57.4489 47.964C57.1609 48.036 56.8609 48.072 56.5489 48.072ZM65.1497 41.676V42.576H62.9777V48H61.9577V42.576H59.7857V41.676H65.1497ZM68.8439 41.604C69.3479 41.604 69.7839 41.684 70.1519 41.844C70.5199 42.004 70.8279 42.228 71.0759 42.516C71.3319 42.804 71.5199 43.148 71.6399 43.548C71.7679 43.94 71.8319 44.372 71.8319 44.844C71.8319 45.316 71.7679 45.752 71.6399 46.152C71.5199 46.544 71.3319 46.884 71.0759 47.172C70.8279 47.452 70.5159 47.672 70.1399 47.832C69.7639 47.992 69.3239 48.072 68.8199 48.072C68.3159 48.072 67.8759 47.992 67.4999 47.832C67.1319 47.672 66.8199 47.452 66.5639 47.172C66.3159 46.884 66.1279 46.544 65.9999 46.152C65.8799 45.752 65.8199 45.316 65.8199 44.844C65.8199 44.372 65.8799 43.94 65.9999 43.548C66.1279 43.148 66.3159 42.804 66.5639 42.516C66.8199 42.228 67.1359 42.004 67.5119 41.844C67.8879 41.684 68.3319 41.604 68.8439 41.604ZM68.8199 47.172C69.1639 47.172 69.4599 47.112 69.7079 46.992C69.9639 46.872 70.1719 46.708 70.3319 46.5C70.4999 46.284 70.6199 46.036 70.6919 45.756C70.7719 45.476 70.8119 45.172 70.8119 44.844C70.8119 44.524 70.7719 44.224 70.6919 43.944C70.6199 43.656 70.4999 43.408 70.3319 43.2C70.1719 42.984 69.9639 42.816 69.7079 42.696C69.4599 42.576 69.1639 42.516 68.8199 42.516C68.4759 42.516 68.1799 42.576 67.9319 42.696C67.6839 42.816 67.4759 42.984 67.3079 43.2C67.1479 43.408 67.0279 43.656 66.9479 43.944C66.8759 44.224 66.8399 44.524 66.8399 44.844C66.8399 45.172 66.8759 45.476 66.9479 45.756C67.0279 46.036 67.1479 46.284 67.3079 46.5C67.4759 46.708 67.6839 46.872 67.9319 46.992C68.1799 47.112 68.4759 47.172 68.8199 47.172ZM73.1966 41.676H74.5646L76.6166 44.844L78.6326 41.676H79.9766V48H78.9686V42.804L76.7366 46.38H76.4486L74.2046 42.804V48H73.1966V41.676ZM85.7512 47.196C85.6152 47.38 85.4592 47.528 85.2832 47.64C85.1072 47.752 84.9232 47.84 84.7312 47.904C84.5472 47.968 84.3592 48.012 84.1672 48.036C83.9832 48.06 83.7992 48.072 83.6152 48.072C83.3192 48.072 83.0392 48.036 82.7752 47.964C82.5112 47.892 82.2712 47.776 82.0552 47.616C81.8472 47.456 81.6792 47.256 81.5512 47.016C81.4312 46.776 81.3712 46.504 81.3712 46.2C81.3712 45.84 81.4352 45.54 81.5632 45.3C81.6992 45.052 81.8792 44.852 82.1032 44.7C82.3272 44.548 82.5832 44.444 82.8712 44.388C83.1672 44.324 83.4792 44.292 83.8072 44.292H85.6672C85.6672 43.756 85.5512 43.332 85.3192 43.02C85.0872 42.7 84.6952 42.532 84.1432 42.516C83.8072 42.516 83.5112 42.572 83.2552 42.684C82.9992 42.796 82.8232 42.98 82.7272 43.236H81.6352C81.6912 42.948 81.8032 42.704 81.9712 42.504C82.1392 42.296 82.3392 42.128 82.5712 42C82.8032 41.864 83.0552 41.764 83.3272 41.7C83.5992 41.636 83.8712 41.604 84.1432 41.604C84.6152 41.604 85.0112 41.684 85.3312 41.844C85.6592 41.996 85.9232 42.2 86.1232 42.456C86.3232 42.704 86.4632 43.008 86.5432 43.368C86.6232 43.728 86.6632 44.132 86.6632 44.58V48H85.8112L85.7512 47.196ZM84.5512 45.144C84.3592 45.144 84.1352 45.144 83.8792 45.144C83.6312 45.144 83.3912 45.172 83.1592 45.228C82.9272 45.276 82.7392 45.376 82.5952 45.528C82.4592 45.68 82.3912 45.88 82.3912 46.128C82.3912 46.312 82.4272 46.468 82.4992 46.596C82.5712 46.724 82.6672 46.832 82.7872 46.92C82.9152 47.008 83.0592 47.072 83.2192 47.112C83.3792 47.152 83.5432 47.172 83.7112 47.172C84.3112 47.172 84.7832 47.028 85.1272 46.74C85.4792 46.444 85.6592 46.016 85.6672 45.456V45.144H84.5512ZM92.9115 41.676V42.576H90.7395V48H89.7195V42.576H87.5475V41.676H92.9115ZM96.6056 41.604C97.1096 41.604 97.5456 41.684 97.9136 41.844C98.2816 42.004 98.5896 42.228 98.8376 42.516C99.0936 42.804 99.2816 43.148 99.4016 43.548C99.5296 43.94 99.5936 44.372 99.5936 44.844C99.5936 45.316 99.5296 45.752 99.4016 46.152C99.2816 46.544 99.0936 46.884 98.8376 47.172C98.5896 47.452 98.2776 47.672 97.9016 47.832C97.5256 47.992 97.0856 48.072 96.5816 48.072C96.0776 48.072 95.6376 47.992 95.2616 47.832C94.8936 47.672 94.5816 47.452 94.3256 47.172C94.0776 46.884 93.8896 46.544 93.7616 46.152C93.6416 45.752 93.5816 45.316 93.5816 44.844C93.5816 44.372 93.6416 43.94 93.7616 43.548C93.8896 43.148 94.0776 42.804 94.3256 42.516C94.5816 42.228 94.8976 42.004 95.2736 41.844C95.6496 41.684 96.0936 41.604 96.6056 41.604ZM96.5816 47.172C96.9256 47.172 97.2216 47.112 97.4696 46.992C97.7256 46.872 97.9336 46.708 98.0936 46.5C98.2616 46.284 98.3816 46.036 98.4536 45.756C98.5336 45.476 98.5736 45.172 98.5736 44.844C98.5736 44.524 98.5336 44.224 98.4536 43.944C98.3816 43.656 98.2616 43.408 98.0936 43.2C97.9336 42.984 97.7256 42.816 97.4696 42.696C97.2216 42.576 96.9256 42.516 96.5816 42.516C96.2376 42.516 95.9416 42.576 95.6936 42.696C95.4456 42.816 95.2376 42.984 95.0696 43.2C94.9096 43.408 94.7896 43.656 94.7096 43.944C94.6376 44.224 94.6016 44.524 94.6016 44.844C94.6016 45.172 94.6376 45.476 94.7096 45.756C94.7896 46.036 94.9096 46.284 95.0696 46.5C95.2376 46.708 95.4456 46.872 95.6936 46.992C95.9416 47.112 96.2376 47.172 96.5816 47.172ZM101.488 45.036C101.528 44.46 101.556 43.9 101.572 43.356C101.596 42.812 101.612 42.252 101.62 41.676H106.012V48H104.992V42.576H102.616L102.508 45.06C102.492 45.38 102.456 45.74 102.4 46.14C102.344 46.54 102.228 46.904 102.052 47.232C101.916 47.464 101.732 47.652 101.5 47.796C101.268 47.94 101 48.012 100.696 48.012H100.324V47.112C100.644 47.112 100.9 46.976 101.092 46.704C101.204 46.544 101.292 46.312 101.356 46.008C101.42 45.704 101.464 45.38 101.488 45.036ZM110.399 41.604C110.903 41.604 111.339 41.684 111.707 41.844C112.075 42.004 112.383 42.228 112.631 42.516C112.887 42.804 113.075 43.148 113.195 43.548C113.323 43.94 113.387 44.372 113.387 44.844C113.387 45.316 113.323 45.752 113.195 46.152C113.075 46.544 112.887 46.884 112.631 47.172C112.383 47.452 112.071 47.672 111.695 47.832C111.319 47.992 110.879 48.072 110.375 48.072C109.871 48.072 109.431 47.992 109.055 47.832C108.687 47.672 108.375 47.452 108.119 47.172C107.871 46.884 107.683 46.544 107.555 46.152C107.435 45.752 107.375 45.316 107.375 44.844C107.375 44.372 107.435 43.94 107.555 43.548C107.683 43.148 107.871 42.804 108.119 42.516C108.375 42.228 108.691 42.004 109.067 41.844C109.443 41.684 109.887 41.604 110.399 41.604ZM110.375 47.172C110.719 47.172 111.015 47.112 111.263 46.992C111.519 46.872 111.727 46.708 111.887 46.5C112.055 46.284 112.175 46.036 112.247 45.756C112.327 45.476 112.367 45.172 112.367 44.844C112.367 44.524 112.327 44.224 112.247 43.944C112.175 43.656 112.055 43.408 111.887 43.2C111.727 42.984 111.519 42.816 111.263 42.696C111.015 42.576 110.719 42.516 110.375 42.516C110.031 42.516 109.735 42.576 109.487 42.696C109.239 42.816 109.031 42.984 108.863 43.2C108.703 43.408 108.583 43.656 108.503 43.944C108.431 44.224 108.395 44.524 108.395 44.844C108.395 45.172 108.431 45.476 108.503 45.756C108.583 46.036 108.703 46.284 108.863 46.5C109.031 46.708 109.239 46.872 109.487 46.992C109.735 47.112 110.031 47.172 110.375 47.172ZM114.751 48V41.676H119.119V42.576H115.771V48H114.751ZM120.788 39.36C120.98 39.36 121.144 39.424 121.28 39.552C121.416 39.672 121.484 39.832 121.484 40.032C121.484 40.232 121.416 40.396 121.28 40.524C121.144 40.652 120.98 40.716 120.788 40.716C120.588 40.716 120.424 40.652 120.296 40.524C120.168 40.396 120.104 40.232 120.104 40.032C120.104 39.832 120.168 39.672 120.296 39.552C120.424 39.424 120.588 39.36 120.788 39.36ZM120.284 48V41.676H121.304V48H120.284ZM125.869 40.056C126.205 40.056 126.473 39.992 126.673 39.864C126.881 39.736 126.985 39.512 126.985 39.192H127.921C127.905 39.768 127.713 40.188 127.345 40.452C126.985 40.716 126.489 40.848 125.857 40.848C125.225 40.848 124.729 40.716 124.369 40.452C124.017 40.188 123.833 39.768 123.817 39.192H124.753C124.761 39.512 124.865 39.736 125.065 39.864C125.265 39.992 125.533 40.056 125.869 40.056ZM123.997 48H123.001V41.676H124.021V46.524C124.077 46.412 124.153 46.292 124.249 46.164C124.345 46.028 124.421 45.924 124.477 45.852L127.537 41.676H128.545V48H127.525V43.152C127.461 43.272 127.389 43.388 127.309 43.5C127.237 43.604 127.169 43.696 127.105 43.776L123.997 48ZM137.14 44.604C137.548 44.732 137.832 44.932 137.992 45.204C138.152 45.476 138.232 45.8 138.232 46.176C138.224 46.512 138.144 46.8 137.992 47.04C137.848 47.28 137.656 47.476 137.416 47.628C137.176 47.78 136.904 47.892 136.6 47.964C136.296 48.036 135.984 48.072 135.664 48.072C135.36 48.072 135.052 48.044 134.74 47.988C134.436 47.932 134.16 47.836 133.912 47.7C133.664 47.564 133.456 47.384 133.288 47.16C133.128 46.936 133.04 46.652 133.024 46.308H134.02C134.052 46.476 134.128 46.616 134.248 46.728C134.368 46.832 134.508 46.92 134.668 46.992C134.836 47.056 135.008 47.104 135.184 47.136C135.368 47.16 135.532 47.172 135.676 47.172C135.844 47.172 136.016 47.16 136.192 47.136C136.376 47.112 136.544 47.064 136.696 46.992C136.848 46.92 136.972 46.82 137.068 46.692C137.164 46.556 137.212 46.384 137.212 46.176C137.212 46.008 137.176 45.856 137.104 45.72C137.032 45.576 136.92 45.468 136.768 45.396C136.632 45.332 136.476 45.296 136.3 45.288C136.124 45.272 135.96 45.264 135.808 45.264H134.68V44.364H135.604C135.756 44.364 135.912 44.352 136.072 44.328C136.232 44.296 136.376 44.244 136.504 44.172C136.64 44.1 136.748 44.008 136.828 43.896C136.916 43.776 136.964 43.608 136.972 43.392C136.972 43.224 136.932 43.084 136.852 42.972C136.78 42.86 136.68 42.772 136.552 42.708C136.432 42.636 136.292 42.588 136.132 42.564C135.98 42.532 135.828 42.516 135.676 42.516C135.532 42.516 135.38 42.528 135.22 42.552C135.06 42.568 134.912 42.608 134.776 42.672C134.64 42.728 134.524 42.808 134.428 42.912C134.332 43.016 134.272 43.152 134.248 43.32H133.24C133.248 43 133.324 42.732 133.468 42.516C133.62 42.292 133.812 42.116 134.044 41.988C134.276 41.852 134.532 41.756 134.812 41.7C135.1 41.636 135.384 41.604 135.664 41.604C135.944 41.604 136.22 41.632 136.492 41.688C136.772 41.744 137.02 41.84 137.236 41.976C137.452 42.104 137.628 42.276 137.764 42.492C137.9 42.708 137.968 42.976 137.968 43.296C137.968 43.584 137.9 43.84 137.764 44.064C137.628 44.288 137.42 44.468 137.14 44.604ZM144.739 45.036C144.955 44.852 145.191 44.652 145.447 44.436C145.711 44.212 145.955 43.972 146.179 43.716C146.411 43.46 146.607 43.192 146.767 42.912C146.927 42.624 147.011 42.312 147.019 41.976C147.035 41.464 146.887 41.072 146.575 40.8C146.263 40.52 145.851 40.38 145.339 40.38C144.931 40.38 144.575 40.464 144.271 40.632C143.967 40.8 143.767 41.044 143.671 41.364H142.555C142.611 41.036 142.727 40.752 142.903 40.512C143.087 40.264 143.307 40.06 143.563 39.9C143.827 39.74 144.115 39.62 144.427 39.54C144.739 39.46 145.059 39.42 145.387 39.42C145.779 39.42 146.139 39.476 146.467 39.588C146.795 39.692 147.079 39.848 147.319 40.056C147.559 40.264 147.743 40.524 147.871 40.836C148.007 41.14 148.075 41.488 148.075 41.88C148.075 42.272 148.015 42.624 147.895 42.936C147.783 43.248 147.627 43.536 147.427 43.8C147.235 44.064 147.015 44.312 146.767 44.544C146.519 44.776 146.263 45.008 145.999 45.24L143.851 47.052H148.171V48H142.339V47.136L144.739 45.036ZM156.083 43.764C156.083 44.308 156.027 44.84 155.915 45.36C155.811 45.88 155.631 46.344 155.375 46.752C155.119 47.152 154.779 47.476 154.355 47.724C153.931 47.972 153.403 48.096 152.771 48.096C152.131 48.096 151.599 47.972 151.175 47.724C150.751 47.476 150.411 47.152 150.155 46.752C149.899 46.344 149.719 45.888 149.615 45.384C149.511 44.88 149.459 44.34 149.459 43.764C149.459 43.188 149.511 42.648 149.615 42.144C149.719 41.632 149.899 41.176 150.155 40.776C150.411 40.376 150.751 40.052 151.175 39.804C151.599 39.548 152.131 39.42 152.771 39.42C153.403 39.42 153.931 39.544 154.355 39.792C154.779 40.04 155.119 40.368 155.375 40.776C155.631 41.184 155.811 41.648 155.915 42.168C156.027 42.688 156.083 43.22 156.083 43.764ZM150.527 43.764C150.527 44.148 150.555 44.54 150.611 44.94C150.667 45.34 150.775 45.704 150.935 46.032C151.095 46.36 151.319 46.628 151.607 46.836C151.903 47.044 152.291 47.148 152.771 47.148C153.243 47.148 153.623 47.044 153.911 46.836C154.207 46.628 154.435 46.36 154.595 46.032C154.755 45.704 154.863 45.34 154.919 44.94C154.975 44.54 155.003 44.148 155.003 43.764C155.003 43.388 154.975 43 154.919 42.6C154.863 42.2 154.755 41.836 154.595 41.508C154.435 41.172 154.207 40.9 153.911 40.692C153.623 40.476 153.243 40.368 152.771 40.368C152.291 40.368 151.903 40.476 151.607 40.692C151.319 40.9 151.095 41.172 150.935 41.508C150.775 41.836 150.667 42.2 150.611 42.6C150.555 43 150.527 43.388 150.527 43.764ZM164.064 43.764C164.064 44.308 164.008 44.84 163.896 45.36C163.792 45.88 163.612 46.344 163.356 46.752C163.1 47.152 162.76 47.476 162.336 47.724C161.912 47.972 161.384 48.096 160.752 48.096C160.112 48.096 159.58 47.972 159.156 47.724C158.732 47.476 158.392 47.152 158.136 46.752C157.88 46.344 157.7 45.888 157.596 45.384C157.492 44.88 157.44 44.34 157.44 43.764C157.44 43.188 157.492 42.648 157.596 42.144C157.7 41.632 157.88 41.176 158.136 40.776C158.392 40.376 158.732 40.052 159.156 39.804C159.58 39.548 160.112 39.42 160.752 39.42C161.384 39.42 161.912 39.544 162.336 39.792C162.76 40.04 163.1 40.368 163.356 40.776C163.612 41.184 163.792 41.648 163.896 42.168C164.008 42.688 164.064 43.22 164.064 43.764ZM158.508 43.764C158.508 44.148 158.536 44.54 158.592 44.94C158.648 45.34 158.756 45.704 158.916 46.032C159.076 46.36 159.3 46.628 159.588 46.836C159.884 47.044 160.272 47.148 160.752 47.148C161.224 47.148 161.604 47.044 161.892 46.836C162.188 46.628 162.416 46.36 162.576 46.032C162.736 45.704 162.844 45.34 162.9 44.94C162.956 44.54 162.984 44.148 162.984 43.764C162.984 43.388 162.956 43 162.9 42.6C162.844 42.2 162.736 41.836 162.576 41.508C162.416 41.172 162.188 40.9 161.892 40.692C161.604 40.476 161.224 40.368 160.752 40.368C160.272 40.368 159.884 40.476 159.588 40.692C159.3 40.9 159.076 41.172 158.916 41.508C158.756 41.836 158.648 42.2 158.592 42.6C158.536 43 158.508 43.388 158.508 43.764ZM166.44 43.788C166.712 43.372 167.056 43.068 167.472 42.876C167.888 42.684 168.328 42.588 168.792 42.588C169.224 42.588 169.604 42.656 169.932 42.792C170.268 42.928 170.556 43.112 170.796 43.344C171.036 43.576 171.224 43.856 171.36 44.184C171.496 44.512 171.564 44.876 171.564 45.276C171.564 45.7 171.492 46.084 171.348 46.428C171.204 46.772 171.004 47.068 170.748 47.316C170.492 47.564 170.184 47.756 169.824 47.892C169.472 48.028 169.088 48.096 168.672 48.096C168.08 48.096 167.58 47.992 167.172 47.784C166.764 47.568 166.432 47.284 166.176 46.932C165.92 46.572 165.732 46.156 165.612 45.684C165.5 45.212 165.44 44.716 165.432 44.196C165.432 43.548 165.48 42.96 165.576 42.432C165.672 41.896 165.844 41.408 166.092 40.968C166.348 40.52 166.696 40.152 167.136 39.864C167.576 39.568 168.136 39.42 168.816 39.42C169.12 39.42 169.412 39.46 169.692 39.54C169.972 39.62 170.228 39.74 170.46 39.9C170.692 40.052 170.896 40.244 171.072 40.476C171.248 40.708 171.384 40.972 171.48 41.268H170.388C170.244 40.972 170.024 40.748 169.728 40.596C169.432 40.444 169.124 40.368 168.804 40.368C168.348 40.368 167.968 40.476 167.664 40.692C167.36 40.908 167.116 41.184 166.932 41.52C166.756 41.856 166.628 42.228 166.548 42.636C166.476 43.036 166.44 43.42 166.44 43.788ZM170.496 45.384C170.496 45.12 170.452 44.88 170.364 44.664C170.276 44.44 170.152 44.248 169.992 44.088C169.84 43.92 169.652 43.792 169.428 43.704C169.204 43.608 168.96 43.56 168.696 43.56C168.44 43.56 168.196 43.604 167.964 43.692C167.74 43.772 167.54 43.892 167.364 44.052C167.188 44.204 167.044 44.392 166.932 44.616C166.828 44.84 166.776 45.088 166.776 45.36C166.776 45.616 166.824 45.852 166.92 46.068C167.016 46.284 167.148 46.472 167.316 46.632C167.484 46.792 167.68 46.92 167.904 47.016C168.136 47.104 168.384 47.148 168.648 47.148C168.912 47.148 169.156 47.104 169.38 47.016C169.612 46.92 169.808 46.796 169.968 46.644C170.136 46.484 170.264 46.296 170.352 46.08C170.448 45.864 170.496 45.632 170.496 45.384ZM177.271 50.28H176.251V41.676H177.223L177.271 42.648C177.487 42.304 177.779 42.048 178.147 41.88C178.523 41.704 178.927 41.612 179.359 41.604C179.847 41.604 180.259 41.688 180.595 41.856C180.939 42.016 181.223 42.244 181.447 42.54C181.679 42.828 181.851 43.172 181.963 43.572C182.075 43.964 182.131 44.388 182.131 44.844C182.131 45.308 182.075 45.736 181.963 46.128C181.851 46.52 181.679 46.86 181.447 47.148C181.215 47.436 180.923 47.664 180.571 47.832C180.219 47.992 179.799 48.072 179.311 48.072C178.831 48.072 178.423 47.996 178.087 47.844C177.751 47.692 177.479 47.492 177.271 47.244V50.28ZM179.227 47.172C179.571 47.172 179.859 47.112 180.091 46.992C180.331 46.864 180.523 46.696 180.667 46.488C180.819 46.272 180.927 46.024 180.991 45.744C181.063 45.464 181.103 45.164 181.111 44.844C181.111 44.524 181.075 44.224 181.003 43.944C180.939 43.656 180.831 43.408 180.679 43.2C180.527 42.992 180.327 42.828 180.079 42.708C179.839 42.58 179.547 42.516 179.203 42.516C178.795 42.516 178.443 42.628 178.147 42.852C177.851 43.068 177.627 43.344 177.475 43.68C177.387 43.864 177.327 44.056 177.295 44.256C177.263 44.448 177.247 44.648 177.247 44.856C177.247 45.096 177.263 45.32 177.295 45.528C177.327 45.728 177.387 45.92 177.475 46.104C177.627 46.408 177.847 46.664 178.135 46.872C178.431 47.072 178.795 47.172 179.227 47.172Z" fill="white"/>
</svg>
