<svg width="16" height="16" viewBox="0 0 16 16" fill="none" xmlns="http://www.w3.org/2000/svg">
<path d="M12.5332 2.13336C12.0916 2.13336 11.7332 2.49176 11.7332 2.93336V2.99482L5.86654 4.80003V10.1334L11.7332 11.9386V12C11.7332 12.4416 12.0916 12.8 12.5332 12.8C12.9748 12.8 13.3332 12.4416 13.3332 12V2.93336C13.3332 2.49176 12.9748 2.13336 12.5332 2.13336ZM4.79987 4.90628L1.49362 5.23753C0.948553 5.29193 0.533203 5.75072 0.533203 6.29899V8.6344C0.533203 9.18267 0.948553 9.64146 1.49362 9.69586L2.78945 9.82607L3.40299 13.4229C3.44619 13.6795 3.66826 13.8667 3.92799 13.8667H4.26654C4.56094 13.8667 4.79987 13.6278 4.79987 13.3334L4.79779 10.0271H4.79987V4.90628ZM14.3999 6.13336V8.80003L14.6582 8.73545C15.1329 8.61651 15.4665 8.19014 15.4665 7.70107V7.23336C15.4665 6.74376 15.1329 6.31688 14.6582 6.19795L14.3999 6.13336Z" fill="#82C83C"/>
</svg>
