<svg width="24" height="24" viewBox="0 0 24 24" fill="none" xmlns="http://www.w3.org/2000/svg">
<path d="M16.9802 14.3111C16.6554 14.1207 16.2562 14.1247 15.933 14.3167L14.2962 15.2919C13.9298 15.5103 13.4722 15.4847 13.1362 15.2223C12.5554 14.7687 11.6202 14.0055 10.8066 13.1919C9.993 12.3783 9.2298 11.4431 8.7762 10.8623C8.5138 10.5263 8.4882 10.0687 8.7066 9.70233L9.6818 8.06553C9.8746 7.74233 9.8762 7.33993 9.6858 7.01513L7.2842 2.91273C7.0514 2.51593 6.589 2.32073 6.1418 2.43033C5.7074 2.53593 5.1434 2.79353 4.5522 3.38553C2.701 5.23673 1.7178 8.35913 8.6794 15.3207C15.641 22.2823 18.7626 21.2999 20.6146 19.4479C21.2074 18.8551 21.4642 18.2903 21.5706 17.8551C21.6786 17.4087 21.4866 16.9495 21.0906 16.7175C20.1018 16.1391 17.969 14.8903 16.9802 14.3111Z" fill="white"/>
</svg>
