<svg width="24" height="24" viewBox="0 0 24 24" fill="none" xmlns="http://www.w3.org/2000/svg">
<path d="M8.8002 3.19995C7.0002 3.19995 5.54838 3.90376 4.60176 4.9687C3.65514 6.03365 3.2002 7.42217 3.2002 8.79995C3.2002 10.8634 3.56895 12.1773 3.96582 13.1375C4.36269 14.0976 4.70842 14.6373 4.80801 15.3156V15.3171C4.94775 16.2672 5.12892 17.5048 5.52988 18.5875C5.73037 19.1288 5.98314 19.64 6.3752 20.0609C6.76725 20.4818 7.35089 20.8 8.0002 20.8C9.00812 20.8 9.82506 20.2508 10.2846 19.5734C10.7441 18.896 10.9574 18.1196 11.1424 17.3984C11.3274 16.6772 11.4836 15.999 11.6611 15.6C11.7499 15.4004 11.8398 15.2828 11.8877 15.2406C11.9356 15.1984 11.921 15.2 12.0002 15.2C12.0794 15.2 12.0648 15.1984 12.1127 15.2406C12.1606 15.2828 12.2505 15.4004 12.3393 15.6C12.5168 15.999 12.673 16.6772 12.858 17.3984C13.043 18.1196 13.2563 18.896 13.7158 19.5734C14.1753 20.2508 14.9923 20.8 16.0002 20.8C16.6495 20.8 17.2331 20.4818 17.6252 20.0609C18.0173 19.64 18.27 19.1288 18.4705 18.5875C18.8715 17.5048 19.0526 16.2672 19.1924 15.3171V15.3156C19.292 14.6373 19.6377 14.0976 20.0346 13.1375C20.4314 12.1774 20.8002 10.8634 20.8002 8.79995C20.8002 7.42217 20.3453 6.03365 19.3986 4.9687C18.452 3.90376 17.0002 3.19995 15.2002 3.19995C13.9113 3.19995 13.0058 3.41678 12.4033 3.65776C12.1371 3.76425 12.1379 3.80602 11.9752 3.91245C11.4845 3.65289 10.4939 3.19995 8.8002 3.19995ZM8.8002 4.79995C10.6037 4.79995 11.5518 5.46245 11.5518 5.46245C11.7057 5.56662 11.8911 5.61393 12.0762 5.59625C12.2612 5.57858 12.4344 5.49701 12.5658 5.36558C12.5658 5.36558 12.5995 5.30116 12.9971 5.14214C13.3946 4.98312 14.0891 4.79995 15.2002 4.79995C16.6002 4.79995 17.5484 5.29615 18.2018 6.0312C18.8551 6.76626 19.2002 7.77773 19.2002 8.79995C19.2002 9.82226 19.107 10.579 18.9705 11.2H15.8377C15.4726 9.83486 14.2751 8.79995 12.8002 8.79995H11.2002C9.72532 8.79995 8.52778 9.83486 8.1627 11.2H5.02988C4.8934 10.579 4.8002 9.82226 4.8002 8.79995C4.8002 7.77773 5.14525 6.76626 5.79863 6.0312C6.45201 5.29615 7.4002 4.79995 8.8002 4.79995ZM11.2002 10.4H12.8002C13.6935 10.4 14.4002 11.1066 14.4002 12C14.4002 12.2121 14.4845 12.4156 14.6345 12.5656C14.7846 12.7156 14.988 12.7999 15.2002 12.8H18.4314C18.1122 13.5061 17.7444 14.1556 17.608 15.0843C17.4694 16.0268 17.283 17.1875 16.9705 18.0312C16.8142 18.4533 16.6241 18.7869 16.4533 18.9703C16.2826 19.1536 16.1845 19.2 16.0002 19.2C15.4813 19.2 15.2936 19.0491 15.0408 18.6765C14.7881 18.3039 14.5821 17.6803 14.408 17.0015C14.2339 16.3227 14.0914 15.6009 13.8018 14.95C13.6569 14.6245 13.4714 14.3046 13.1721 14.0406C13.012 13.8994 12.7624 13.8822 12.5455 13.8046C12.3959 13.6703 12.2012 13.5972 12.0002 13.6C11.7997 13.5976 11.6056 13.6707 11.4564 13.8046C11.239 13.8822 10.9887 13.8991 10.8283 14.0406C10.529 14.3046 10.3435 14.6245 10.1986 14.95C9.90894 15.6009 9.76649 16.3227 9.59238 17.0015C9.41827 17.6803 9.21234 18.3039 8.95957 18.6765C8.70681 19.0491 8.51908 19.2 8.0002 19.2C7.8159 19.2 7.71781 19.1536 7.54707 18.9703C7.37633 18.7869 7.1862 18.4533 7.02988 18.0312C6.71741 17.1875 6.53102 16.0268 6.39238 15.0843V15.0828C6.25581 14.1549 5.88811 13.5057 5.56895 12.8H8.8002C9.01236 12.7999 9.21583 12.7156 9.36586 12.5656C9.51588 12.4156 9.60017 12.2121 9.6002 12C9.6002 11.1066 10.3069 10.4 11.2002 10.4Z" fill="white"/>
</svg>
