<svg width="24" height="24" viewBox="0 0 24 24" fill="none" xmlns="http://www.w3.org/2000/svg">
<path d="M19.2003 8.79995L21.1315 6.86875C21.7563 6.24395 21.7563 5.23115 21.1315 4.60635L19.3939 2.86875C18.7691 2.24395 17.7563 2.24395 17.1315 2.86875L15.2003 4.79995L19.2003 8.79995ZM13.6003 6.39995L4.20826 15.7919C6.30906 15.5415 4.82426 17.5463 5.60026 18.3999C6.28346 19.1511 8.42346 17.8143 8.20826 19.7919L17.6003 10.3999L13.6003 6.39995ZM3.46266 21.5551L3.45066 21.5495C2.96666 21.7207 2.22906 21.3375 2.45066 20.5495L2.44506 20.5375L3.20026 18.3999L5.60026 20.7999L3.46266 21.5551Z" fill="white"/>
</svg>
