<svg width="24" height="24" viewBox="0 0 24 24" fill="none" xmlns="http://www.w3.org/2000/svg">
<path d="M16.8004 1.6001C13.7076 1.6001 11.2004 4.1073 11.2004 7.2001C11.2004 10.8833 14.8413 12.5959 15.2973 13.0063C15.7629 13.4255 16.1475 14.2657 16.3035 14.7985C16.3787 15.0569 16.5908 15.1882 16.8004 15.1938C17.0108 15.1882 17.2221 15.0569 17.2973 14.7985C17.4525 14.2665 17.8371 13.4255 18.3035 13.0063C18.7595 12.5959 22.4004 10.8833 22.4004 7.2001C22.4004 4.1073 19.8932 1.6001 16.8004 1.6001ZM3.2707 4.0126C2.8088 3.99489 2.40039 4.36462 2.40039 4.85322V18.5954C2.40039 19.3098 2.87337 19.9385 3.55977 20.1345L8.51602 21.5501C8.70242 21.6029 8.89837 21.6029 9.08477 21.5501L14.0035 20.1454C14.2731 20.0686 14.5573 20.0633 14.8301 20.1313L20.5566 21.5642C21.0862 21.697 21.6004 21.2949 21.6004 20.7485V12.5142L20.0004 13.7907V19.7751L15.2004 18.5751V16.0407L13.6004 13.7907V18.597L9.60039 19.7407V7.0251L9.60977 7.02197C9.62417 6.43077 9.71017 5.85904 9.85977 5.31104L9.23008 5.46885C8.95808 5.53685 8.67235 5.53159 8.40195 5.45479L3.47227 4.04541C3.40517 4.02631 3.33669 4.01513 3.2707 4.0126ZM16.8004 5.6001C17.6844 5.6001 18.4004 6.3161 18.4004 7.2001C18.4004 8.0841 17.6844 8.8001 16.8004 8.8001C15.9164 8.8001 15.2004 8.0841 15.2004 7.2001C15.2004 6.3161 15.9164 5.6001 16.8004 5.6001ZM4.00039 5.86104L8.00039 7.00322V19.7392L4.00039 18.597V5.86104Z" fill="white"/>
</svg>
