<svg width="16" height="16" viewBox="0 0 16 16" fill="none" xmlns="http://www.w3.org/2000/svg">
<path d="M7.99922 0C12.4166 0 16 3.58207 16 8C16 12.4179 12.4173 16 7.99922 16C3.58131 15.9998 6.73409e-08 12.4178 0 8C0 3.58219 3.58199 0.000195763 7.99922 0ZM8.85078 0.8C8.53321 0.8 8.23182 0.95633 8.04453 1.21641C8.01472 1.25811 7.98867 1.30166 7.96562 1.34609C7.94328 1.30308 7.91816 1.26149 7.88906 1.22187C7.70252 0.963937 7.40136 0.808696 7.08594 0.808594C7.03708 0.808594 6.98636 0.812687 6.9375 0.819531C6.59624 0.871587 6.31028 1.0938 6.17188 1.41406C6.14134 1.48455 6.11904 1.55705 6.10547 1.62891C6.10411 1.62688 6.10201 1.62468 6.1 1.62266C5.91408 1.43113 5.6541 1.32109 5.3875 1.32109C5.24241 1.32114 5.10175 1.35261 4.96953 1.41484C4.65622 1.56136 4.4443 1.85626 4.40156 2.20312C4.39275 2.27634 4.39165 2.34915 4.39844 2.42031C4.25323 2.33819 4.08772 2.29298 3.90859 2.29297C3.6677 2.29297 3.4343 2.38125 3.25312 2.54141C2.99338 2.77061 2.87116 3.1138 2.92734 3.45859C2.93956 3.53388 2.95968 3.60646 2.9875 3.67422C2.91358 3.65713 2.83747 3.64687 2.76016 3.64687C2.41622 3.64696 2.10182 3.82189 1.91797 4.11406C1.73287 4.40831 1.71258 4.77276 1.8625 5.0875C1.89497 5.15569 1.93441 5.21836 1.97969 5.275C1.56048 5.29841 1.19414 5.59026 1.07812 6.00078C0.991274 6.30669 1.05076 6.62744 1.24141 6.88203C1.30379 6.96479 1.37723 7.03716 1.45859 7.09531C1.32097 7.1446 1.19562 7.22544 1.08984 7.33281C0.901211 7.52376 0.798643 7.77791 0.8 8.04688C0.802857 8.48544 1.08747 8.85935 1.47891 8.99141C1.39692 9.05086 1.32341 9.12291 1.26172 9.20625C1.07443 9.46017 1.01668 9.79349 1.10625 10.0953C1.22714 10.4969 1.59037 10.7832 2.00078 10.8078C1.96076 10.8619 1.92526 10.9206 1.89609 10.9836C1.74891 11.3004 1.77388 11.664 1.9625 11.9562C2.14642 12.2422 2.45995 12.4133 2.79844 12.4133C2.87769 12.4133 2.95428 12.4037 3.02813 12.3859C3.0031 12.4522 2.98428 12.5212 2.97344 12.5922C2.92119 12.9378 3.04599 13.2806 3.30859 13.5078C3.4884 13.6638 3.7188 13.7492 3.95625 13.7492C4.13593 13.7492 4.30597 13.7009 4.45312 13.6141C4.44702 13.6859 4.44831 13.7596 4.45781 13.8328C4.50401 14.179 4.72036 14.4719 5.03516 14.6156C5.16471 14.6744 5.302 14.7047 5.44375 14.7047C5.71237 14.7046 5.97293 14.5928 6.16016 14.3992C6.16354 14.3951 6.16772 14.3908 6.17109 14.3867C6.18534 14.4606 6.20785 14.5342 6.23906 14.6047C6.38092 14.9235 6.66979 15.1427 7.01172 15.1906C7.05709 15.1968 7.10384 15.2 7.14922 15.2C7.46679 15.2 7.76818 15.0436 7.95547 14.7828C7.98526 14.7418 8.01134 14.6982 8.03437 14.6531C8.05673 14.6962 8.08182 14.7385 8.11094 14.7781C8.29748 15.0361 8.59864 15.1905 8.91406 15.1906C8.96292 15.1906 9.01364 15.1872 9.0625 15.1797C9.40375 15.1283 9.6904 14.9061 9.82812 14.5852C9.85864 14.5147 9.88097 14.4428 9.89453 14.3703C9.89589 14.3724 9.89797 14.3752 9.9 14.3766C10.0859 14.5681 10.3459 14.6781 10.6125 14.6781C10.7576 14.6781 10.8982 14.6467 11.0305 14.5852C11.3438 14.438 11.5557 14.1437 11.5984 13.7969C11.6073 13.723 11.6083 13.6502 11.6016 13.5797C11.7468 13.6618 11.9123 13.707 12.0914 13.707C12.3323 13.707 12.5657 13.6187 12.7469 13.4586C13.0066 13.2287 13.1288 12.8862 13.0727 12.5414C13.0605 12.4662 13.0402 12.3934 13.0125 12.3258C13.0864 12.3435 13.1626 12.3531 13.2398 12.3531C13.5838 12.353 13.8982 12.1781 14.082 11.8859C14.2678 11.5917 14.2874 11.2272 14.1375 10.9125C14.105 10.8443 14.0656 10.7816 14.0203 10.725C14.4395 10.7009 14.8059 10.409 14.9219 9.99844C15.0087 9.69323 14.9492 9.37254 14.7586 9.11797C14.6962 9.03452 14.6228 8.96284 14.5414 8.90469C14.679 8.85472 14.8044 8.77456 14.9102 8.66719C15.0988 8.47624 15.2014 8.22209 15.2 7.95312C15.1971 7.51388 14.9125 7.14065 14.5211 7.00859C14.6031 6.94914 14.6766 6.87709 14.7383 6.79375C14.9255 6.53922 14.9832 6.20712 14.8937 5.90469C14.773 5.50294 14.4098 5.21683 13.9992 5.19219C14.0392 5.13745 14.0747 5.07867 14.1039 5.01641C14.2511 4.69962 14.226 4.33592 14.0375 4.04375C13.8536 3.75835 13.5402 3.58672 13.2016 3.58672C13.1223 3.58672 13.0457 3.59632 12.9719 3.61406C12.9969 3.5478 13.0157 3.47875 13.0266 3.40703C13.0788 3.0614 12.954 2.71941 12.6914 2.49219C12.5116 2.33621 12.2812 2.25078 12.0437 2.25078C11.8641 2.25082 11.694 2.29911 11.5469 2.38594C11.553 2.31407 11.5517 2.24042 11.5422 2.16719C11.496 1.82028 11.2796 1.52807 10.9648 1.38437C10.8353 1.32489 10.698 1.29531 10.5562 1.29531C10.2876 1.29539 10.0271 1.40716 9.83984 1.60078C9.83646 1.60487 9.83228 1.6092 9.82891 1.61328C9.81466 1.53936 9.79215 1.46581 9.76094 1.39531C9.61908 1.07649 9.3302 0.857273 8.98828 0.809375C8.94291 0.80255 8.89616 0.800008 8.85078 0.8ZM7.86797 13.9219C7.95334 14.1832 7.91876 14.4412 7.76953 14.6492L7.71094 14.7203C7.56708 14.877 7.36386 14.9687 7.15078 14.9688C7.1155 14.9688 7.07982 14.9657 7.04453 14.9609C6.78212 14.9239 6.56019 14.7565 6.45234 14.5109C6.34174 14.2611 6.37152 13.9788 6.53437 13.7352C6.88784 13.2062 7.046 12.966 7.34922 12.5062C7.35533 12.4974 7.36275 12.4878 7.36953 12.4789C7.37693 12.468 7.384 12.457 7.39141 12.4461C7.56646 12.9991 7.66441 13.2998 7.86797 13.9219ZM9.52578 13.7195C9.69067 13.9604 9.72352 14.244 9.61562 14.4945C9.50976 14.7402 9.28926 14.9111 9.02734 14.9508C8.99013 14.9562 8.95195 14.9594 8.91406 14.9594C8.67266 14.9593 8.44156 14.8406 8.29844 14.643C8.14985 14.4384 8.11324 14.181 8.19531 13.9203C8.39476 13.2853 8.47845 13.0127 8.65547 12.4367C8.9791 12.9205 9.15736 13.1796 9.52578 13.7195ZM6.21172 13.6414C6.22121 13.9383 6.09843 14.1301 5.99531 14.2383C5.85146 14.3875 5.6516 14.4727 5.44531 14.4727L5.36406 14.468C5.28424 14.4593 5.2068 14.4378 5.13203 14.4039C4.89049 14.2937 4.72514 14.0693 4.68984 13.8031C4.65322 13.5322 4.76147 13.2703 4.98516 13.0828C5.49402 12.6585 5.71151 12.4748 6.16875 12.0875C6.18164 12.6704 6.19137 12.9859 6.21172 13.6414ZM11.0664 13.0523C11.2916 13.2364 11.402 13.4987 11.3687 13.7703L11.35 13.868C11.2938 14.0912 11.1427 14.2765 10.932 14.3742C10.8303 14.4221 10.7229 14.4461 10.6117 14.4461C10.4075 14.4461 10.2067 14.3613 10.0648 14.2148C9.96042 14.1073 9.83843 13.9181 9.84453 13.6234C9.85877 12.9578 9.86306 12.6724 9.87187 12.0695C10.3177 12.4405 10.5609 12.639 11.0664 13.0523ZM8.01875 11.6078C8.16936 11.6092 8.30775 11.6817 8.38984 11.8008C8.49084 11.9465 8.50192 12.1497 8.42188 12.3734C8.29498 12.73 8.13507 13.266 8.03125 13.6219C7.91929 13.2735 7.75167 12.7488 7.63359 12.3922C7.55292 12.15 7.56813 11.9316 7.67734 11.7797C7.75606 11.6696 7.87833 11.6078 8.01328 11.6078H8.01875ZM4.71094 12.9055C4.61526 13.2771 4.31949 13.5172 3.95781 13.5172C3.77607 13.5171 3.60007 13.4503 3.46172 13.3312L3.39062 13.2617C3.23827 13.0911 3.16897 12.8611 3.20391 12.6289C3.24528 12.3593 3.42196 12.1369 3.68984 12.0219C4.29649 11.7591 4.5563 11.6439 5.10391 11.4023C4.9533 11.9648 4.87439 12.27 4.71094 12.9055ZM12.3516 11.9766C12.6195 12.0895 12.7996 12.3093 12.843 12.5789C12.8863 12.8436 12.7923 13.1063 12.593 13.2828L12.5391 13.3273C12.4092 13.4228 12.2519 13.4742 12.0898 13.4742C11.7324 13.4741 11.4383 13.2377 11.3398 12.8711C11.1668 12.2284 11.0914 11.9537 10.9312 11.3727C11.4618 11.6019 11.7517 11.724 12.3516 11.9766ZM6.88516 11.4703C6.92723 11.4703 6.97033 11.4761 7.01172 11.4891C7.15556 11.5342 7.26782 11.6437 7.31328 11.7812C7.35875 11.9202 7.33441 12.0787 7.24687 12.2375L7.21016 12.2922C7.1926 12.3201 7.17537 12.3469 7.15781 12.3734C6.93803 12.6786 6.64673 13.1245 6.45469 13.425C6.44587 13.059 6.43252 12.5084 6.42031 12.1328C6.41285 11.9105 6.47147 11.7213 6.58672 11.6016C6.66808 11.5168 6.7733 11.4704 6.88516 11.4703ZM9.16641 11.4719C9.29183 11.4719 9.40733 11.5222 9.49141 11.6125C9.5998 11.7281 9.64956 11.9005 9.63672 12.1117C9.61433 12.4908 9.61094 13.0501 9.61094 13.4211C9.40669 13.1179 9.09833 12.6626 8.88594 12.3539L8.83594 12.2742C8.73049 12.0892 8.70324 11.9059 8.75781 11.7508C8.80396 11.6221 8.90565 11.5276 9.03594 11.4906C9.07867 11.4783 9.123 11.4719 9.16641 11.4719ZM5.91875 10.9711C5.97863 10.9804 6.03641 11.0034 6.08828 11.0383C6.21295 11.1231 6.2897 11.2598 6.29453 11.4047C6.29928 11.5819 6.19807 11.7594 6.01016 11.9031C5.71091 12.1317 5.28592 12.4928 5.00703 12.7344C5.1027 12.3806 5.24474 11.8493 5.33906 11.4852C5.43874 11.1042 5.67184 10.9682 5.85703 10.968L5.91875 10.9711ZM10.1992 10.95C10.4419 10.9502 10.6294 11.1361 10.7 11.4492C10.7841 11.8187 10.9367 12.3566 11.0398 12.7125C10.7596 12.4798 10.3373 12.1313 10.0469 11.8945C9.84874 11.7323 9.74472 11.5398 9.75625 11.3516C9.76439 11.2154 9.8362 11.0959 9.95156 11.0227C10.0275 10.9749 10.1132 10.95 10.1992 10.95ZM3.47578 11.775C3.32315 12.0323 3.07744 12.1796 2.8 12.1797C2.54011 12.1797 2.29974 12.0487 2.15859 11.8297C2.01419 11.6053 1.9953 11.3265 2.10781 11.0836C2.17703 10.9344 2.28766 10.817 2.42812 10.7383C2.46266 10.7246 2.49739 10.7083 2.53125 10.6898C2.59703 10.6645 2.66827 10.6464 2.74219 10.6375C3.39828 10.5568 3.67884 10.5204 4.27187 10.4438C3.97063 10.9412 3.80955 11.2126 3.47578 11.775ZM13.2859 10.5758H13.2883C13.5773 10.6086 13.81 10.7678 13.9281 11.0148C14.0435 11.2564 14.0284 11.536 13.8859 11.7625C13.7448 11.9862 13.5037 12.1194 13.2398 12.1195C12.976 12.1195 12.7214 11.9751 12.5687 11.7234C12.2227 11.1554 12.0726 10.9121 11.757 10.4016C12.3297 10.4707 12.6407 10.5053 13.2859 10.5758ZM4.98438 10.2258C5.1064 10.2259 5.21765 10.2785 5.29766 10.3742C5.39535 10.4899 5.43294 10.6427 5.39766 10.7844L5.37734 10.8461C5.3177 10.9896 5.1828 11.1075 4.98984 11.1836C4.6397 11.3212 4.13365 11.5517 3.79844 11.707C3.98639 11.3929 4.26849 10.9206 4.45781 10.5969C4.59556 10.3614 4.78759 10.2258 4.98438 10.2258ZM11.0797 10.2094C11.2731 10.2094 11.4498 10.3353 11.5773 10.5625L11.7328 10.8328C11.9035 11.1199 12.1087 11.4445 12.2578 11.6781C11.9233 11.5351 11.4197 11.3211 11.075 11.1773C10.8396 11.0788 10.6859 10.9239 10.6437 10.7398C10.6132 10.6071 10.6473 10.4721 10.7375 10.3687C10.8271 10.2675 10.9514 10.2094 11.0797 10.2094ZM8.51094 4.32656C8.59101 4.50793 8.74754 4.64837 8.94297 4.70859C9.00605 4.72843 9.07061 4.73828 9.13437 4.73828C9.26868 4.73825 9.39548 4.69596 9.50469 4.61797C9.52571 4.81979 9.6389 5.00708 9.8125 5.12344C9.91963 5.19524 10.0426 5.23275 10.1687 5.23281C10.2494 5.23281 10.3276 5.21774 10.4008 5.18906C10.3689 5.38612 10.4271 5.5926 10.5594 5.75C10.6829 5.89646 10.8614 5.98047 11.05 5.98047C11.056 5.98046 11.062 5.9797 11.068 5.97969C10.9791 6.16103 10.9761 6.37863 11.0609 6.56953C11.1471 6.76525 11.316 6.89985 11.5195 6.94297C11.5189 6.94297 11.5177 6.94551 11.5164 6.94687C11.3869 7.09666 11.3292 7.29755 11.3562 7.5C11.3841 7.70185 11.4975 7.86882 11.6609 7.96875C11.4915 8.07139 11.371 8.24639 11.3391 8.46172C11.3099 8.65264 11.3618 8.83919 11.4859 8.98359C11.4927 8.99181 11.5003 9.00028 11.5078 9.00781C11.324 9.06259 11.1695 9.19516 11.082 9.38125C10.9918 9.57357 10.9984 9.79109 11.1016 9.97656C11.0948 9.97656 11.0872 9.97734 11.0805 9.97734C10.8864 9.97734 10.6979 10.0643 10.5656 10.2148C10.434 10.3647 10.3797 10.5579 10.4109 10.7516C10.3397 10.7276 10.2671 10.7164 10.1992 10.7164C10.0691 10.7165 9.94134 10.7539 9.82812 10.825C9.64914 10.9386 9.538 11.1248 9.525 11.3375V11.3398C9.41927 11.2736 9.29729 11.2384 9.16719 11.2383C9.10278 11.2383 9.03738 11.2471 8.975 11.2648C8.78438 11.3189 8.63295 11.4514 8.55625 11.632C8.42868 11.4712 8.23223 11.3754 8.02187 11.3727H8.01406C7.81049 11.3727 7.62428 11.4659 7.50078 11.6281C7.41869 11.4571 7.26769 11.3245 7.08047 11.2656C7.01668 11.2458 6.95108 11.2359 6.88594 11.2359C6.75572 11.236 6.6306 11.2762 6.52344 11.3508C6.50305 11.1483 6.39155 10.9615 6.21797 10.8438C6.11008 10.7705 5.98617 10.732 5.85859 10.732C5.7813 10.7321 5.70656 10.7467 5.63672 10.7727C5.66454 10.579 5.60673 10.3772 5.47578 10.2219C5.35301 10.0762 5.17627 9.99284 4.98906 9.99141C5.06698 9.81694 5.06774 9.61155 4.98906 9.42891C4.89948 9.22223 4.71781 9.08237 4.5 9.04609C4.62551 8.89693 4.68178 8.69755 4.65469 8.49844C4.62755 8.29934 4.5172 8.13509 4.35781 8.03516C4.53085 7.9325 4.65336 7.75495 4.68594 7.53594C4.71444 7.34567 4.66246 7.15994 4.53828 7.01484C4.5295 7.00396 4.51961 6.99391 4.51016 6.98438C4.69201 6.92825 4.84585 6.79651 4.93203 6.61172C5.02077 6.4229 5.01505 6.21076 4.91875 6.02812C4.92679 6.0288 4.93569 6.02967 4.94375 6.02969C5.14054 6.02969 5.33106 5.94071 5.46406 5.78672C5.59431 5.63616 5.64663 5.4423 5.61406 5.25C5.67709 5.26775 5.73947 5.27656 5.79844 5.27656C5.92866 5.27655 6.05615 5.23909 6.16875 5.16797C6.3445 5.05709 6.45491 4.87622 6.47188 4.66953C6.58036 4.73924 6.70562 4.77732 6.83984 4.77734C6.90295 4.77734 6.96617 4.76867 7.02656 4.75156C7.22944 4.69612 7.38854 4.55091 7.4625 4.35312C7.58939 4.50233 7.77815 4.59179 7.97969 4.59453H7.98828C8.19722 4.59448 8.38815 4.49625 8.51094 4.32656ZM2.07109 9.03594C2.11992 9.03594 2.17092 9.04023 2.22109 9.04844C2.87311 9.15656 3.15265 9.20146 3.74297 9.29453C3.31557 9.68729 3.08567 9.90157 2.60938 10.3484C2.55318 10.4003 2.49431 10.4433 2.43203 10.4781C2.39607 10.4925 2.36049 10.5088 2.32656 10.5266C2.24111 10.5594 2.15103 10.5766 2.06016 10.5766C1.7263 10.5766 1.42672 10.3513 1.32969 10.0289L1.30859 9.94063C1.27278 9.7337 1.3226 9.51675 1.44844 9.34609C1.59365 9.14898 1.8207 9.03594 2.07109 9.03594ZM13.9547 8.95234C14.2023 8.95234 14.4281 9.06427 14.5727 9.25781C14.7192 9.45287 14.7643 9.70031 14.6984 9.93437L14.6539 10.0531C14.5289 10.3171 14.2611 10.493 13.9648 10.493C13.796 10.4929 13.6336 10.4361 13.4898 10.3273C13.4587 10.3007 13.4167 10.2642 13.3672 10.2211C12.9514 9.84273 12.7389 9.65099 12.3727 9.32266C12.3523 9.30212 12.3307 9.28166 12.3117 9.2625C12.301 9.25233 12.2906 9.2431 12.2805 9.23359C12.8457 9.13778 13.1542 9.08158 13.7914 8.96797H13.793C13.8479 8.95771 13.9025 8.95235 13.9547 8.95234ZM4.38594 9.27031C4.56164 9.27031 4.70722 9.36463 4.77578 9.52266C4.8355 9.66159 4.82699 9.81919 4.75234 9.94375C4.66129 10.0953 4.48189 10.1885 4.24609 10.2062C3.87153 10.2357 3.32131 10.3081 2.95703 10.3594C3.22709 10.1137 3.63211 9.74366 3.90625 9.48906C4.06154 9.34544 4.22725 9.27042 4.38594 9.27031ZM11.7 9.21406C11.814 9.21408 11.9294 9.25598 12.0406 9.33672L12.1016 9.39141C12.1423 9.42768 12.1805 9.46178 12.2172 9.49531C12.4845 9.75333 12.8583 10.0856 13.1141 10.3094L11.8398 10.1617C11.5861 10.1343 11.3956 10.0275 11.3047 9.86328C11.2389 9.74426 11.2339 9.60574 11.2922 9.48125C11.3695 9.31631 11.5256 9.21406 11.7 9.21406ZM8 5.95781C6.84608 5.95798 5.91094 6.89374 5.91094 8.04766C5.91112 9.20142 6.8462 10.1365 8 10.1367C9.15395 10.1367 10.0897 9.20153 10.0898 8.04766C10.0898 6.89363 9.15406 5.95781 8 5.95781ZM3.97187 8.16172C4.21197 8.16181 4.39446 8.30939 4.425 8.52969C4.44332 8.66518 4.405 8.79911 4.31953 8.89766C4.22521 9.00648 4.08465 9.06406 3.91094 9.06406C3.85476 9.06404 3.79449 9.05827 3.73359 9.04531C3.36445 8.9714 2.81517 8.89147 2.45078 8.84219C2.71 8.71146 3.07423 8.5287 3.37891 8.37266C3.47718 8.32412 3.58198 8.27304 3.69922 8.21562L3.76875 8.19219C3.83827 8.17166 3.90618 8.16172 3.97187 8.16172ZM12.0258 8.10234C12.1363 8.10238 12.2545 8.13657 12.3766 8.20156C12.7091 8.37744 13.2141 8.61216 13.5492 8.76406C13.1909 8.82771 12.6531 8.92365 12.2867 8.99141C12.0202 9.0406 11.7886 8.981 11.6617 8.83125L11.6109 8.75781C11.5691 8.67959 11.5542 8.59018 11.568 8.49766C11.5978 8.30123 11.7503 8.10234 12.0258 8.10234ZM1.79375 7.27109C1.91711 7.27114 2.04039 7.30138 2.16172 7.36016C2.75479 7.64829 3.01247 7.77069 3.54922 8.02734C3.53027 8.03553 3.51102 8.04513 3.49141 8.05469C3.42491 8.08891 3.35178 8.12583 3.27578 8.16484C2.91431 8.34269 2.6417 8.48045 2.17109 8.71641C2.04702 8.77864 1.92054 8.81011 1.79375 8.81016C1.37651 8.81016 1.03487 8.46758 1.03203 8.04609L1.03594 7.96875C1.05246 7.7913 1.12875 7.62588 1.25469 7.49766C1.39922 7.3512 1.59086 7.27109 1.79375 7.27109ZM14.207 7.18984C14.6243 7.18984 14.9659 7.53242 14.9688 7.95391L14.9648 8.03125C14.9483 8.20868 14.872 8.37413 14.7461 8.50234C14.6016 8.64881 14.4099 8.72891 14.207 8.72891C14.1095 8.72888 14.0126 8.70963 13.9164 8.67344C13.8859 8.65906 13.8453 8.64153 13.7984 8.62031C13.2346 8.34728 12.9772 8.2241 12.4555 7.975C12.4765 7.96544 12.4978 7.95477 12.5187 7.94453C12.7019 7.8501 12.9341 7.73303 13.1594 7.61875C13.3534 7.52159 13.5597 7.41895 13.8297 7.28281C13.9538 7.22125 14.0802 7.18988 14.207 7.18984ZM3.73672 7.00937C4.0034 6.95873 4.23493 7.01886 4.3625 7.16875C4.44109 7.26109 4.4753 7.37927 4.45703 7.50234C4.42719 7.69869 4.27509 7.89751 3.99844 7.89766L3.91484 7.89062C3.82959 7.87838 3.74088 7.8475 3.64922 7.79922C3.31616 7.6234 2.81161 7.39097 2.47578 7.23906C2.83404 7.17542 3.37109 7.07779 3.73672 7.00937ZM12.0992 6.93437C12.1561 6.9344 12.2158 6.94083 12.2781 6.95312C12.6473 7.02772 13.1966 7.10776 13.5609 7.15703C13.415 7.23026 13.2373 7.31913 13.0555 7.41016C12.8147 7.53054 12.5901 7.64123 12.2789 7.79375C12.1961 7.82249 12.1157 7.8375 12.0391 7.8375C11.7982 7.83744 11.6158 7.6884 11.5859 7.46875C11.567 7.33328 11.6058 7.1993 11.6906 7.10078C11.7849 6.99131 11.9262 6.93437 12.0992 6.93437ZM2.03594 5.50703C2.23128 5.50709 2.4193 5.58299 2.57734 5.72734C3.06775 6.17339 3.27798 6.36314 3.725 6.76406C3.15466 6.86119 2.84654 6.91634 2.20703 7.03125C2.15211 7.04082 2.09753 7.04609 2.04531 7.04609C1.79768 7.04609 1.57188 6.93424 1.42734 6.74062C1.28084 6.54497 1.23587 6.29882 1.30156 6.06484L1.34687 5.94609C1.47194 5.68222 1.73972 5.50703 2.03594 5.50703ZM13.9406 5.42344C14.2745 5.42347 14.5741 5.64876 14.6711 5.97109L14.6922 6.05937C14.7281 6.26594 14.678 6.4833 14.5516 6.65391C14.4063 6.85016 14.18 6.96406 13.9297 6.96406C13.8958 6.96406 13.8612 6.96123 13.8266 6.95781C13.8171 6.95645 13.807 6.95527 13.7969 6.95391C13.7914 6.95391 13.7851 6.95215 13.7797 6.95078C13.129 6.84333 12.8491 6.79855 12.2602 6.70547C12.273 6.69454 12.2864 6.68348 12.2992 6.67188C12.3535 6.61986 12.4141 6.56355 12.4766 6.50469C12.7208 6.27957 12.9138 6.0984 13.1852 5.84453C13.2883 5.74873 13.3762 5.66793 13.4359 5.6125C13.4786 5.57769 13.5227 5.54714 13.5687 5.52187C13.6047 5.50682 13.6403 5.49114 13.6742 5.47266C13.7596 5.44055 13.8491 5.42344 13.9406 5.42344ZM4.17344 5.83281C4.42712 5.86022 4.61769 5.96704 4.70859 6.13125C4.77494 6.25027 4.7794 6.38882 4.72109 6.51328L4.68984 6.57109C4.60578 6.70099 4.4666 6.77969 4.31328 6.77969C4.16209 6.77956 4.00633 6.70482 3.86328 6.56328C3.59389 6.29841 3.17675 5.9289 2.89922 5.68594C3.26022 5.72905 3.80294 5.79243 4.17344 5.83281ZM13.0289 5.67266C12.8213 5.8649 12.5505 6.1164 12.3219 6.33125C12.2452 6.40174 12.163 6.47646 12.0734 6.55859C11.9378 6.66726 11.7963 6.72495 11.6594 6.725C11.4864 6.725 11.3412 6.63111 11.2727 6.47578C11.2109 6.33685 11.2181 6.17915 11.2914 6.05391C11.381 5.90082 11.5594 5.80653 11.7945 5.78594C12.1691 5.75377 12.7183 5.67604 13.082 5.62266C13.0638 5.63897 13.0464 5.65633 13.0289 5.67266ZM4.94375 4.82812C5.18057 4.92463 5.33558 5.0783 5.37969 5.26172C5.41156 5.39448 5.37862 5.53035 5.28906 5.63437C5.19949 5.73768 5.07401 5.79609 4.94375 5.79609C4.75251 5.79596 4.57584 5.67202 4.44766 5.44766L4.28906 5.17891C4.11566 4.89358 3.90788 4.57077 3.75625 4.33828C4.09202 4.47854 4.59769 4.68782 4.94375 4.82812ZM11.4898 5.50313L11.4406 5.55937C11.3244 5.68035 11.1888 5.74682 11.05 5.74687C10.9279 5.74687 10.8175 5.69412 10.7367 5.59844C10.639 5.48277 10.6014 5.33005 10.6367 5.18906C10.6802 5.01663 10.8248 4.87519 11.0453 4.78828C11.3934 4.65208 11.8944 4.42419 12.2289 4.26953C11.9453 4.74853 11.7856 5.01461 11.4898 5.50313ZM2.76172 3.87969C3.02561 3.87969 3.28012 4.02483 3.43281 4.27656C3.77888 4.84394 3.929 5.08718 4.24453 5.59844C3.67058 5.52864 3.35969 5.49459 2.71328 5.42344C2.42421 5.39127 2.19073 5.23154 2.07266 4.98516C1.95738 4.74291 1.97315 4.46399 2.11562 4.2375C2.25677 4.0138 2.49783 3.8797 2.76172 3.87969ZM13.2008 3.82031C13.4607 3.82031 13.701 3.95208 13.8422 4.17109L13.8914 4.25625C13.9903 4.463 13.9922 4.70387 13.8937 4.91641C13.8245 5.0656 13.7139 5.18291 13.5734 5.26094C13.5382 5.2753 13.5042 5.2916 13.4703 5.30937C13.4331 5.32372 13.3938 5.33642 13.3539 5.34531C13.3118 5.35216 13.2524 5.36092 13.1805 5.37187C12.5834 5.4451 12.3009 5.48214 11.7391 5.55469C11.7519 5.53562 11.7643 5.5165 11.7758 5.49609C12.0275 5.0656 12.4437 4.3703 12.5828 4.13828C12.7361 3.93518 12.9566 3.82035 13.2008 3.82031ZM5.95078 4.09922C6.14953 4.26137 6.25276 4.45394 6.24062 4.64141C6.23248 4.7776 6.16145 4.89777 6.04609 4.97031C5.97013 5.0175 5.88457 5.04296 5.79844 5.04297C5.55551 5.04297 5.36745 4.85633 5.29687 4.54219C5.2134 4.17261 5.0625 3.63396 4.95937 3.27812C5.23962 3.51151 5.66171 3.86241 5.95078 4.09922ZM10.6867 4.47891C10.589 4.86176 10.3553 4.99904 10.1687 4.99922C10.0887 4.99922 10.0092 4.97388 9.94063 4.92734C9.8145 4.8439 9.73755 4.70817 9.73203 4.5625C9.72728 4.40382 9.80668 4.24561 9.95781 4.11016L9.96094 4.10703C9.97299 4.0969 9.98549 4.0868 9.99687 4.07734C10.0028 4.07271 10.008 4.06806 10.0133 4.06406C10.3125 3.8341 10.7358 3.47109 11.0141 3.22812C10.9197 3.58197 10.7797 4.1148 10.6867 4.47891ZM3.91094 2.52422C4.26839 2.52437 4.56258 2.7613 4.66094 3.12734C4.83391 3.77045 4.90943 4.04554 5.06953 4.62578C4.53894 4.39652 4.24905 4.27441 3.64922 4.02187C3.38142 3.90828 3.20133 3.68974 3.15781 3.42031C3.11438 3.15545 3.20831 2.89142 3.40781 2.71484C3.54691 2.5917 3.72573 2.52422 3.91094 2.52422ZM12.0437 2.48203C12.2256 2.48203 12.4022 2.5482 12.5406 2.66797L12.6102 2.7375C12.7627 2.9079 12.8319 3.13848 12.7969 3.37031C12.7608 3.60351 12.6239 3.80031 12.4164 3.92344C12.3635 3.94873 12.2816 3.98713 12.182 4.03359C11.6657 4.25807 11.4053 4.37231 10.8984 4.59609C11.049 4.03443 11.1279 3.72855 11.2914 3.09297C11.3871 2.72209 11.6822 2.48212 12.0437 2.48203ZM7.12344 3.66406C7.26729 3.87691 7.31066 4.09217 7.24687 4.26875C7.20004 4.39655 7.09787 4.49027 6.96641 4.52656C6.92501 4.5382 6.88192 4.54375 6.83984 4.54375C6.71368 4.54371 6.59739 4.49402 6.51328 4.40234C6.40471 4.28599 6.35538 4.11217 6.37031 3.9L6.38672 3.58906C6.39993 3.25437 6.40499 2.86972 6.40703 2.59141C6.60852 2.8959 6.91308 3.35403 7.12344 3.66406ZM9.59844 3.80625C9.59912 3.83294 9.6001 3.861 9.60078 3.88906C9.59869 4.09077 9.5408 4.26115 9.43437 4.37266C9.35298 4.45817 9.24696 4.50465 9.13437 4.50469C9.09305 4.50469 9.05081 4.4989 9.01016 4.48594C8.86562 4.44145 8.7525 4.3321 8.70703 4.19453C8.65897 4.04881 8.68682 3.88165 8.78516 3.71406L8.78828 3.71016C8.80722 3.68218 8.8246 3.65474 8.84219 3.62812C9.06332 3.32162 9.36269 2.85769 9.56016 2.54766C9.56965 2.90343 9.58487 3.4327 9.59844 3.80625ZM8.36875 3.57578C8.44878 3.81793 8.43331 4.03635 8.32422 4.18828C8.24553 4.29774 8.12325 4.36089 7.98828 4.36094H7.98203C7.83139 4.35888 7.69304 4.28559 7.61094 4.16719C7.51121 4.02073 7.49972 3.81754 7.58047 3.59375C7.70804 3.23717 7.86884 2.70197 7.97266 2.34609C8.08392 2.69508 8.25137 3.21922 8.36875 3.57578ZM5.38984 1.55391C5.59409 1.55391 5.79412 1.63801 5.93594 1.78516C6.04043 1.89193 6.16314 2.08163 6.15703 2.37656C6.14279 3.04223 6.13851 3.32763 6.12969 3.93047C5.68454 3.55952 5.44137 3.36104 4.93516 2.94766C4.70991 2.76287 4.59957 2.50069 4.63281 2.22969L4.65156 2.13203C4.70781 1.90879 4.8588 1.72325 5.06953 1.625C5.17131 1.57778 5.27857 1.55391 5.38984 1.55391ZM10.5555 1.52734C10.664 1.52734 10.769 1.55092 10.8687 1.59609C11.1102 1.70629 11.2756 1.93064 11.3109 2.19609C11.3476 2.46712 11.2388 2.73034 11.0148 2.91719C10.5116 3.33719 10.2945 3.52093 9.84609 3.9C9.84148 3.90399 9.83665 3.90773 9.83203 3.91172V3.88906C9.83203 3.87061 9.83193 3.85116 9.83125 3.83203C9.83125 3.82176 9.83104 3.81105 9.82969 3.80078C9.81816 3.28634 9.80884 2.97015 9.78984 2.35781C9.78034 2.0615 9.90311 1.86918 10.0062 1.76172C10.15 1.61261 10.3493 1.52745 10.5555 1.52734ZM7.08672 1.04062C7.32827 1.04062 7.55994 1.15927 7.70312 1.35703C7.85238 1.56163 7.8883 1.81898 7.80625 2.07969C7.60675 2.71482 7.52242 2.98769 7.34531 3.56328C7.05963 3.13621 6.88642 2.88332 6.59531 2.45625C6.52412 2.34889 6.46631 2.26165 6.42969 2.20625C6.30486 1.98246 6.28745 1.73062 6.38516 1.50547L6.43125 1.41719C6.54778 1.21899 6.74432 1.08401 6.97344 1.04922C7.01067 1.04376 7.04881 1.04064 7.08672 1.04062ZM8.95625 1.03906C9.21886 1.07534 9.44133 1.24336 9.54922 1.48906C9.64759 1.71009 9.63453 1.95807 9.51719 2.18047C9.49077 2.22214 9.45602 2.27743 9.41406 2.34297C9.0965 2.81931 8.93848 3.05877 8.65078 3.49609C8.65077 3.49677 8.65026 3.49779 8.64922 3.49844C8.63497 3.5176 8.62227 3.53709 8.60937 3.55625C8.43498 3.00188 8.33716 2.70104 8.13359 2.07891C8.04816 1.81683 8.08278 1.55821 8.23203 1.35156L8.29062 1.27969C8.43447 1.12303 8.63774 1.03125 8.85078 1.03125C8.88595 1.03126 8.92108 1.03429 8.95625 1.03906Z" fill="#82C83C"/>
</svg>
