<svg width="48" height="48" viewBox="0 0 48 48" fill="none" xmlns="http://www.w3.org/2000/svg">
<g clip-path="url(#clip0_1112_10670)">
<path d="M23.9977 0C37.2498 0 48 10.7462 48 24C48 37.2538 37.2519 48 23.9977 48C10.7439 47.9994 2.02023e-07 37.2534 0 24C0 10.7466 10.746 0.000587288 23.9977 0ZM26.5523 2.4C25.5996 2.4 24.6955 2.86899 24.1336 3.64922C24.0442 3.77432 23.966 3.90499 23.8969 4.03828C23.8298 3.90923 23.7545 3.78446 23.6672 3.66563C23.1076 2.89181 22.2041 2.42609 21.2578 2.42578C21.1112 2.42578 20.9591 2.43806 20.8125 2.45859C19.7887 2.61476 18.9309 3.28141 18.5156 4.24219C18.424 4.45365 18.3571 4.67115 18.3164 4.88672C18.3123 4.88064 18.306 4.87405 18.3 4.86797C17.7422 4.29338 16.9623 3.96328 16.1625 3.96328C15.7272 3.96343 15.3053 4.05783 14.9086 4.24453C13.9687 4.68409 13.3329 5.56877 13.2047 6.60938C13.1782 6.82903 13.175 7.04744 13.1953 7.26094C12.7597 7.01457 12.2632 6.87893 11.7258 6.87891C11.0031 6.87891 10.3029 7.14376 9.75938 7.62422C8.98013 8.31183 8.61348 9.34141 8.78203 10.3758C8.81867 10.6016 8.87904 10.8194 8.9625 11.0227C8.74073 10.9714 8.5124 10.9406 8.28047 10.9406C7.24866 10.9409 6.30545 11.4657 5.75391 12.3422C5.1986 13.2249 5.13774 14.3183 5.5875 15.2625C5.68492 15.4671 5.80322 15.6551 5.93906 15.825C4.68144 15.8952 3.58241 16.7708 3.23438 18.0023C2.97382 18.9201 3.15228 19.8823 3.72422 20.6461C3.91138 20.8944 4.13168 21.1115 4.37578 21.2859C3.9629 21.4338 3.58686 21.6763 3.26953 21.9984C2.70363 22.5713 2.39593 23.3337 2.4 24.1406C2.40857 25.4563 3.26241 26.578 4.43672 26.9742C4.19076 27.1526 3.97024 27.3687 3.78516 27.6188C3.2233 28.3805 3.05004 29.3805 3.31875 30.2859C3.68143 31.4906 4.7711 32.3495 6.00234 32.4234C5.88229 32.5856 5.77579 32.7619 5.68828 32.9508C5.24674 33.9013 5.32165 34.9921 5.8875 35.8688C6.43926 36.7265 7.37984 37.2398 8.39531 37.2398C8.63308 37.2398 8.86284 37.211 9.08438 37.1578C9.0093 37.3565 8.95285 37.5636 8.92031 37.7766C8.76356 38.8134 9.13796 39.8418 9.92578 40.5234C10.4652 40.9914 11.1564 41.2477 11.8688 41.2477C12.4078 41.2476 12.9179 41.1027 13.3594 40.8422C13.3411 41.0578 13.3449 41.2787 13.3734 41.4984C13.512 42.5371 14.1611 43.4158 15.1055 43.8469C15.4941 44.0233 15.906 44.1141 16.3313 44.1141C17.1371 44.1138 17.9188 43.7785 18.4805 43.1977C18.4906 43.1854 18.5032 43.1724 18.5133 43.1602C18.556 43.3819 18.6235 43.6026 18.7172 43.8141C19.1428 44.7705 20.0094 45.4282 21.0352 45.5719C21.1713 45.5903 21.3115 45.6 21.4477 45.6C22.4004 45.6 23.3046 45.1307 23.8664 44.3484C23.9558 44.2254 24.034 44.0947 24.1031 43.9594C24.1702 44.0885 24.2455 44.2155 24.3328 44.3344C24.8925 45.1082 25.7959 45.5716 26.7422 45.5719C26.8888 45.5719 27.0409 45.5616 27.1875 45.5391C28.2113 45.3849 29.0712 44.7183 29.4844 43.7555C29.5759 43.5441 29.6429 43.3285 29.6836 43.1109C29.6877 43.1171 29.6939 43.1256 29.7 43.1297C30.2578 43.7044 31.0376 44.0344 31.8375 44.0344C32.2728 44.0342 32.6948 43.9401 33.0914 43.7555C34.0313 43.3139 34.6671 42.4312 34.7953 41.3906C34.8218 41.1689 34.825 40.9505 34.8047 40.7391C35.2403 40.9854 35.7368 41.1211 36.2742 41.1211C36.9969 41.1211 37.6971 40.8562 38.2406 40.3758C39.0199 39.6861 39.3865 38.6586 39.218 37.6242C39.1814 37.3987 39.1208 37.1803 39.0375 36.9773C39.2591 37.0306 39.4878 37.0594 39.7195 37.0594C40.7513 37.0591 41.6945 36.5343 42.2461 35.6578C42.8034 34.7751 42.8623 33.6817 42.4125 32.7375C42.3151 32.5329 42.1968 32.3449 42.0609 32.175C43.3186 32.1027 44.4176 31.2269 44.7656 29.9953C45.0261 29.0797 44.8477 28.1176 44.2758 27.3539C44.0886 27.1036 43.8683 26.8885 43.6242 26.7141C44.0371 26.5642 44.4131 26.3237 44.7305 26.0016C45.2964 25.4287 45.6041 24.6663 45.6 23.8594C45.5914 22.5416 44.7376 21.422 43.5633 21.0258C43.8092 20.8474 44.0298 20.6313 44.2148 20.3813C44.7765 19.6177 44.9496 18.6214 44.6813 17.7141C44.3189 16.5088 43.2293 15.6505 41.9977 15.5766C42.1177 15.4124 42.2242 15.236 42.3117 15.0492C42.7532 14.0989 42.678 13.0078 42.1125 12.1313C41.5608 11.2751 40.6205 10.7602 39.6047 10.7602C39.3669 10.7602 39.1372 10.789 38.9156 10.8422C38.9907 10.6434 39.0472 10.4362 39.0797 10.2211C39.2364 9.18421 38.862 8.15824 38.0742 7.47656C37.5348 7.00863 36.8436 6.75234 36.1313 6.75234C35.5922 6.75245 35.0821 6.89734 34.6406 7.15781C34.6589 6.94222 34.6551 6.72126 34.6266 6.50156C34.488 5.46085 33.8389 4.58422 32.8945 4.15313C32.5059 3.97467 32.094 3.88594 31.6688 3.88594C30.8629 3.88616 30.0812 4.22147 29.5195 4.80234C29.5094 4.8146 29.4968 4.82759 29.4867 4.83984C29.444 4.61809 29.3765 4.39742 29.2828 4.18594C28.8572 3.22948 27.9906 2.57182 26.9648 2.42813C26.8287 2.40765 26.6885 2.40002 26.5523 2.4ZM23.6039 41.7656C23.86 42.5496 23.7563 43.3237 23.3086 43.9477L23.1328 44.1609C22.7013 44.6311 22.0916 44.9062 21.4523 44.9062C21.3465 44.9062 21.2395 44.8972 21.1336 44.8828C20.3464 44.7716 19.6806 44.2695 19.357 43.5328C19.0252 42.7834 19.1146 41.9364 19.6031 41.2055C20.6635 39.6186 21.138 38.898 22.0477 37.5188C22.066 37.4921 22.0882 37.4634 22.1086 37.4367C22.1308 37.4041 22.152 37.3709 22.1742 37.3383C22.6994 38.9972 22.9932 39.8993 23.6039 41.7656ZM28.5773 41.1586C29.072 41.8813 29.1706 42.7321 28.8469 43.4836C28.5293 44.2207 27.8678 44.7333 27.082 44.8523C26.9704 44.8687 26.8559 44.8781 26.7422 44.8781C26.018 44.8778 25.3247 44.5218 24.8953 43.9289C24.4495 43.3151 24.3397 42.5431 24.5859 41.7609C25.1843 39.856 25.4354 39.0381 25.9664 37.3102C26.9373 38.7616 27.4721 39.5388 28.5773 41.1586ZM18.6352 40.9242C18.6636 41.8149 18.2953 42.3904 17.9859 42.7148C17.5544 43.1624 16.9548 43.418 16.3359 43.418L16.0922 43.4039C15.8527 43.3779 15.6204 43.3133 15.3961 43.2117C14.6715 42.8811 14.1754 42.208 14.0695 41.4094C13.9597 40.5967 14.2844 39.811 14.9555 39.2484C16.4821 37.9756 17.1345 37.4243 18.5063 36.2625C18.5449 38.0113 18.5741 38.9578 18.6352 40.9242ZM33.1992 39.157C33.8747 39.7093 34.206 40.496 34.1063 41.3109L34.05 41.6039C33.8813 42.2735 33.428 42.8296 32.7961 43.1227C32.491 43.2663 32.1688 43.3382 31.8352 43.3383C31.2224 43.3383 30.62 43.0839 30.1945 42.6445C29.8813 42.322 29.5153 41.7543 29.5336 40.8703C29.5763 38.8733 29.5892 38.0171 29.6156 36.2086C30.953 37.3214 31.6826 37.9169 33.1992 39.157ZM24.0563 34.8234C24.5081 34.8276 24.9233 35.0452 25.1695 35.4023C25.4725 35.8396 25.5057 36.4492 25.2656 37.1203C24.8849 38.19 24.4052 39.7979 24.0938 40.8656C23.7579 39.8205 23.255 38.2463 22.9008 37.1766C22.6588 36.45 22.7044 35.7947 23.032 35.3391C23.2682 35.0089 23.635 34.8234 24.0398 34.8234H24.0563ZM14.1328 38.7164C13.8458 39.8313 12.9585 40.5516 11.8734 40.5516C11.3282 40.5514 10.8002 40.3508 10.3852 39.9938L10.1719 39.7852C9.71481 39.2732 9.50692 38.5834 9.61172 37.8867C9.73586 37.078 10.2659 36.4107 11.0695 36.0656C12.8895 35.2772 13.6689 34.9318 15.3117 34.207C14.8599 35.8943 14.6232 36.8099 14.1328 38.7164ZM37.0547 35.9297C37.8584 36.2686 38.3987 36.928 38.5289 37.7367C38.6589 38.5309 38.377 39.3189 37.7789 39.8484L37.6172 39.982C37.2275 40.2685 36.7558 40.4227 36.2695 40.4227C35.1972 40.4223 34.3148 39.7132 34.0195 38.6133C33.5004 36.6853 33.2742 35.8612 32.7938 34.118C34.3855 34.8057 35.2552 35.1721 37.0547 35.9297ZM20.6555 34.4109C20.7817 34.4109 20.911 34.4282 21.0352 34.4672C21.4667 34.6027 21.8035 34.9311 21.9398 35.3438C22.0762 35.7606 22.0032 36.2362 21.7406 36.7125L21.6305 36.8766C21.5778 36.9603 21.5261 37.0406 21.4734 37.1203C20.8141 38.0358 19.9402 39.3736 19.3641 40.275C19.3376 39.1769 19.2976 37.5253 19.2609 36.3984C19.2386 35.7315 19.4144 35.164 19.7602 34.8047C20.0042 34.5503 20.3199 34.4112 20.6555 34.4109ZM27.4992 34.4156C27.8755 34.4158 28.222 34.5667 28.4742 34.8375C28.7994 35.1844 28.9487 35.7014 28.9102 36.3352C28.843 37.4725 28.8328 39.1504 28.8328 40.2633C28.2201 39.3537 27.295 37.9877 26.6578 37.0617L26.5078 36.8227C26.1915 36.2675 26.1097 35.7176 26.2734 35.2523C26.4119 34.8663 26.717 34.5828 27.1078 34.4719C27.236 34.435 27.369 34.4156 27.4992 34.4156ZM17.7563 32.9133C17.9359 32.9412 18.1092 33.0102 18.2648 33.1148C18.6389 33.3693 18.8691 33.7793 18.8836 34.2141C18.8978 34.7458 18.5942 35.2782 18.0305 35.7094C17.1327 36.3952 15.8578 37.4783 15.0211 38.2031C15.3081 37.1417 15.7342 35.5478 16.0172 34.4555C16.3162 33.3126 17.0155 32.9045 17.5711 32.9039L17.7563 32.9133ZM30.5977 32.85C31.3258 32.8505 31.8882 33.4082 32.1 34.3477C32.3524 35.4561 32.8101 37.0698 33.1195 38.1375C32.2789 37.4395 31.0118 36.394 30.1406 35.6836C29.5462 35.197 29.2342 34.6193 29.2688 34.0547C29.2932 33.6461 29.5086 33.2877 29.8547 33.068C30.0824 32.9247 30.3396 32.85 30.5977 32.85ZM10.4273 35.325C9.96944 36.0968 9.23232 36.5388 8.4 36.5391C7.62032 36.5391 6.89921 36.1461 6.47578 35.4891C6.04257 34.8159 5.98589 33.9794 6.32344 33.2508C6.53108 32.8032 6.86298 32.451 7.28438 32.2148C7.38799 32.1738 7.49216 32.1249 7.59375 32.0695C7.7911 31.9936 8.00482 31.9392 8.22656 31.9125C10.1948 31.6703 11.0365 31.5612 12.8156 31.3313C11.9119 32.8238 11.4286 33.6377 10.4273 35.325ZM39.8578 31.7273H39.8648C40.732 31.8259 41.4301 32.3034 41.7844 33.0445C42.1304 33.7693 42.0853 34.6079 41.6578 35.2875C41.2345 35.9586 40.5111 36.3583 39.7195 36.3586C38.9279 36.3586 38.1643 35.9254 37.7063 35.1703C36.6681 33.4662 36.2177 32.7363 35.2711 31.2047C36.989 31.412 37.922 31.5159 39.8578 31.7273ZM14.9531 30.6773C15.3192 30.6776 15.6529 30.8354 15.893 31.1227C16.1861 31.4696 16.2988 31.9281 16.193 32.3531L16.132 32.5383C15.9531 32.9687 15.5484 33.3224 14.9695 33.5508C13.9191 33.9635 12.401 34.655 11.3953 35.1211C11.9592 34.1787 12.8055 32.7618 13.3734 31.7906C13.7867 31.0843 14.3628 30.6773 14.9531 30.6773ZM33.2391 30.6281C33.8192 30.6281 34.3493 31.0058 34.732 31.6875L35.1984 32.4984C35.7106 33.3598 36.326 34.3335 36.7734 35.0344C35.77 34.6053 34.2591 33.9632 33.225 33.532C32.5189 33.2365 32.0577 32.7716 31.9313 32.2195C31.8397 31.8213 31.9419 31.4163 32.2125 31.1063C32.4812 30.8024 32.8543 30.6281 33.2391 30.6281ZM25.5328 12.9797C25.773 13.5238 26.2426 13.9451 26.8289 14.1258C27.0182 14.1853 27.2118 14.2148 27.4031 14.2148C27.806 14.2148 28.1864 14.0879 28.5141 13.8539C28.5771 14.4594 28.9167 15.0212 29.4375 15.3703C29.7589 15.5857 30.1279 15.6983 30.5063 15.6984C30.7482 15.6984 30.9827 15.6532 31.2023 15.5672C31.1067 16.1584 31.2814 16.7778 31.6781 17.25C32.0486 17.6894 32.5841 17.9414 33.15 17.9414C33.168 17.9414 33.1859 17.9391 33.2039 17.9391C32.9374 18.4831 32.9284 19.1359 33.1828 19.7086C33.4414 20.2957 33.9479 20.6996 34.5586 20.8289C34.5566 20.8289 34.5532 20.8365 34.5492 20.8406C34.1607 21.29 33.9877 21.8927 34.0688 22.5C34.1522 23.1056 34.4924 23.6065 34.9828 23.9062C34.4746 24.2142 34.113 24.7392 34.0172 25.3852C33.9297 25.9579 34.0854 26.5176 34.4578 26.9508C34.4782 26.9754 34.501 27.0009 34.5234 27.0234C33.972 27.1878 33.5086 27.5855 33.2461 28.1438C32.9753 28.7207 32.9953 29.3733 33.3047 29.9297C33.2844 29.9297 33.2617 29.932 33.2414 29.932C32.6593 29.932 32.0938 30.193 31.6969 30.6445C31.3019 31.0942 31.1392 31.6736 31.2328 32.2547C31.0191 32.1828 30.8012 32.1492 30.5977 32.1492C30.2072 32.1494 29.824 32.2617 29.4844 32.475C28.9474 32.8157 28.614 33.3745 28.575 34.0125V34.0195C28.2578 33.8207 27.8919 33.7151 27.5016 33.7148C27.3083 33.7148 27.1121 33.7412 26.925 33.7945C26.3531 33.9567 25.8989 34.3543 25.6688 34.8961C25.286 34.4136 24.6967 34.1262 24.0656 34.118H24.0422C23.4315 34.118 22.8728 34.3978 22.5023 34.8844C22.2561 34.3712 21.8031 33.9735 21.2414 33.7969C21.0501 33.7373 20.8532 33.7078 20.6578 33.7078C20.2672 33.7079 19.8918 33.8287 19.5703 34.0523C19.5092 33.4449 19.1746 32.8844 18.6539 32.5312C18.3302 32.3116 17.9585 32.1961 17.5758 32.1961C17.3439 32.1962 17.1197 32.24 16.9102 32.318C16.9936 31.7369 16.8202 31.1317 16.4273 30.6656C16.059 30.2285 15.5288 29.9785 14.9672 29.9742C15.2009 29.4508 15.2032 28.8346 14.9672 28.2867C14.6985 27.6667 14.1534 27.2471 13.5 27.1383C13.8765 26.6908 14.0454 26.0927 13.9641 25.4953C13.8827 24.898 13.5516 24.4053 13.0734 24.1055C13.5925 23.7975 13.9601 23.2648 14.0578 22.6078C14.1433 22.037 13.9874 21.4798 13.6148 21.0445C13.5885 21.0119 13.5588 20.9817 13.5305 20.9531C14.076 20.7848 14.5376 20.3895 14.7961 19.8352C15.0623 19.2687 15.0452 18.6323 14.7563 18.0844C14.7804 18.0864 14.8071 18.089 14.8313 18.0891C15.4216 18.0891 15.9932 17.8221 16.3922 17.3602C16.7829 16.9085 16.9399 16.3269 16.8422 15.75C17.0313 15.8033 17.2184 15.8297 17.3953 15.8297C17.786 15.8297 18.1685 15.7173 18.5063 15.5039C19.0335 15.1713 19.3647 14.6287 19.4156 14.0086C19.7411 14.2177 20.1169 14.332 20.5195 14.332C20.7089 14.332 20.8985 14.306 21.0797 14.2547C21.6883 14.0884 22.1656 13.6527 22.3875 13.0594C22.7682 13.507 23.3345 13.7754 23.9391 13.7836H23.9648C24.5917 13.7834 25.1644 13.4888 25.5328 12.9797ZM6.21328 27.1078C6.35975 27.1078 6.51276 27.1207 6.66328 27.1453C8.61932 27.4697 9.45796 27.6044 11.2289 27.8836C9.94671 29.0619 9.25702 29.7047 7.82813 31.0453C7.65954 31.2009 7.48292 31.3299 7.29609 31.4344C7.1882 31.4775 7.08147 31.5263 6.97969 31.5797C6.72332 31.6781 6.4531 31.7297 6.18047 31.7297C5.1789 31.7297 4.28017 31.0538 3.98906 30.0867L3.92578 29.8219C3.81835 29.2011 3.96779 28.5502 4.34531 28.0383C4.78096 27.447 5.4621 27.1078 6.21328 27.1078ZM41.8641 26.857C42.6068 26.857 43.2843 27.1928 43.718 27.7734C44.1577 28.3586 44.2928 29.1009 44.0953 29.8031L43.9617 30.1594C43.5866 30.9512 42.7833 31.4789 41.8945 31.4789C41.3879 31.4788 40.9009 31.3083 40.4695 30.982C40.376 30.902 40.25 30.7925 40.1016 30.6633C38.8541 29.5282 38.2166 28.953 37.118 27.968C37.0569 27.9064 36.9922 27.845 36.9352 27.7875C36.9029 27.757 36.8717 27.7293 36.8414 27.7008C38.5372 27.4133 39.4627 27.2447 41.3742 26.9039H41.3789C41.5437 26.8731 41.7074 26.8571 41.8641 26.857ZM13.1578 27.8109C13.6849 27.8109 14.1217 28.0939 14.3273 28.568C14.5065 28.9848 14.481 29.4576 14.257 29.8313C13.9839 30.2859 13.4457 30.5654 12.7383 30.6188C11.6146 30.7071 9.96392 30.9242 8.87109 31.0781C9.68127 30.341 10.8963 29.231 11.7188 28.4672C12.1846 28.0363 12.6818 27.8112 13.1578 27.8109ZM35.1 27.6422C35.4419 27.6423 35.7881 27.7679 36.1219 28.0102L36.3047 28.1742C36.4268 28.283 36.5416 28.3853 36.6516 28.4859C37.4536 29.26 38.5748 30.2568 39.3422 30.9281L35.5195 30.4852C34.7582 30.403 34.1869 30.0826 33.9141 29.5898C33.7169 29.2328 33.7017 28.8172 33.8766 28.4438C34.1086 27.9489 34.5768 27.6422 35.1 27.6422ZM24 17.8734C20.5383 17.874 17.7328 20.6812 17.7328 24.143C17.7334 27.6043 20.5386 30.4096 24 30.4102C27.4619 30.4102 30.269 27.6046 30.2695 24.143C30.2695 20.6809 27.4622 17.8734 24 17.8734ZM11.9156 24.4852C12.6359 24.4854 13.1834 24.9282 13.275 25.5891C13.33 25.9955 13.215 26.3973 12.9586 26.693C12.6756 27.0194 12.254 27.1922 11.7328 27.1922C11.5643 27.1921 11.3835 27.1748 11.2008 27.1359C10.0934 26.9142 8.44552 26.6744 7.35234 26.5266C8.12999 26.1344 9.22268 25.5861 10.1367 25.118C10.4316 24.9724 10.7459 24.8191 11.0977 24.6469L11.3063 24.5766C11.5148 24.515 11.7185 24.4852 11.9156 24.4852ZM36.0773 24.307C36.409 24.3071 36.7634 24.4097 37.1297 24.6047C38.1272 25.1323 39.6422 25.8365 40.6477 26.2922C39.5728 26.4831 37.9594 26.771 36.8602 26.9742C36.0606 27.1218 35.3658 26.943 34.9852 26.4938L34.8328 26.2734C34.7073 26.0388 34.6626 25.7705 34.7039 25.493C34.7935 24.9037 35.2508 24.307 36.0773 24.307ZM5.38125 21.8133C5.75132 21.8134 6.12118 21.9042 6.48516 22.0805C8.26437 22.9449 9.03741 23.3121 10.6477 24.082C10.5908 24.1066 10.5331 24.1354 10.4742 24.1641C10.2747 24.2667 10.0553 24.3775 9.82734 24.4945C8.74294 25.0281 7.9251 25.4413 6.51328 26.1492C6.14105 26.3359 5.76162 26.4303 5.38125 26.4305C4.12952 26.4305 3.10462 25.4027 3.09609 24.1383L3.10781 23.9062C3.15739 23.3739 3.38625 22.8776 3.76406 22.493C4.19767 22.0536 4.77258 21.8133 5.38125 21.8133ZM42.6211 21.5695C43.8728 21.5695 44.8977 22.5973 44.9062 23.8617L44.8945 24.0938C44.845 24.626 44.616 25.1224 44.2383 25.507C43.8047 25.9464 43.2298 26.1867 42.6211 26.1867C42.3284 26.1866 42.0379 26.1289 41.7492 26.0203C41.6576 25.9772 41.5358 25.9246 41.3953 25.8609C39.7039 25.0419 38.9317 24.6723 37.3664 23.925C37.4294 23.8963 37.4933 23.8643 37.5563 23.8336C38.1058 23.5503 38.8024 23.1991 39.4781 22.8563C40.0602 22.5648 40.6792 22.2569 41.4891 21.8484C41.8614 21.6637 42.2406 21.5696 42.6211 21.5695ZM11.2102 21.0281C12.0102 20.8762 12.7048 21.0566 13.0875 21.5063C13.3233 21.7833 13.4259 22.1378 13.3711 22.507C13.2816 23.0961 12.8253 23.6925 11.9953 23.693L11.7445 23.6719C11.4888 23.6352 11.2226 23.5425 10.9477 23.3977C9.94847 22.8702 8.43483 22.1729 7.42734 21.7172C8.50211 21.5263 10.1133 21.2334 11.2102 21.0281ZM36.2977 20.8031C36.4684 20.8032 36.6474 20.8225 36.8344 20.8594C37.9418 21.0832 39.5898 21.3233 40.6828 21.4711C40.2451 21.6908 39.712 21.9574 39.1664 22.2305C38.4442 22.5916 37.7705 22.9237 36.8367 23.3813C36.5884 23.4675 36.3472 23.5125 36.1172 23.5125C35.3947 23.5123 34.8474 23.0652 34.7578 22.4062C34.701 21.9999 34.8175 21.5979 35.0719 21.3023C35.3548 20.9739 35.7786 20.8031 36.2977 20.8031ZM6.10781 16.5211C6.69384 16.5213 7.25791 16.749 7.73203 17.182C9.20324 18.5202 9.83394 19.0894 11.175 20.2922C9.46397 20.5836 8.53961 20.749 6.62109 21.0938C6.45633 21.1225 6.29258 21.1383 6.13594 21.1383C5.39305 21.1383 4.71565 20.8027 4.28203 20.2219C3.84251 19.6349 3.7076 18.8965 3.90469 18.1945L4.04063 17.8383C4.41582 17.0467 5.21915 16.5211 6.10781 16.5211ZM41.8219 16.2703C42.8234 16.2704 43.7222 16.9463 44.0133 17.9133L44.0766 18.1781C44.1842 18.7978 44.0339 19.4499 43.6547 19.9617C43.219 20.5505 42.5399 20.8922 41.7891 20.8922C41.6873 20.8922 41.5835 20.8837 41.4797 20.8734C41.4514 20.8694 41.4209 20.8658 41.3906 20.8617C41.3743 20.8617 41.3554 20.8565 41.3391 20.8523C39.3869 20.53 38.5474 20.3956 36.7805 20.1164C36.8191 20.0836 36.8591 20.0504 36.8977 20.0156C37.0605 19.8596 37.2424 19.6906 37.4297 19.5141C38.1624 18.8387 38.7413 18.2952 39.5555 17.5336C39.8648 17.2462 40.1287 17.0038 40.3078 16.8375C40.4358 16.7331 40.5681 16.6414 40.7063 16.5656C40.8141 16.5205 40.9209 16.4734 41.0227 16.418C41.2789 16.3216 41.5473 16.2703 41.8219 16.2703ZM12.5203 17.4984C13.2814 17.5807 13.8531 17.9011 14.1258 18.3938C14.3248 18.7508 14.3382 19.1665 14.1633 19.5398L14.0695 19.7133C13.8173 20.103 13.3998 20.3391 12.9398 20.3391C12.4863 20.3387 12.019 20.1145 11.5898 19.6898C10.7817 18.8952 9.53026 17.7867 8.69766 17.0578C9.78066 17.1872 11.4088 17.3773 12.5203 17.4984ZM39.0867 17.018C38.4641 17.5947 37.6515 18.3492 36.9656 18.9938C36.7356 19.2052 36.489 19.4294 36.2203 19.6758C35.8135 20.0018 35.389 20.1749 34.9781 20.175C34.4591 20.175 34.0236 19.8933 33.818 19.4273C33.6327 19.0105 33.6544 18.5375 33.8742 18.1617C34.1429 17.7025 34.6781 17.4196 35.3836 17.3578C36.5072 17.2613 38.1549 17.0281 39.2461 16.868C39.1915 16.9169 39.1393 16.969 39.0867 17.018ZM14.8313 14.4844C15.5417 14.7739 16.0067 15.2349 16.1391 15.7852C16.2347 16.1834 16.1359 16.5911 15.8672 16.9031C15.5985 17.213 15.222 17.3883 14.8313 17.3883C14.2575 17.3879 13.7275 17.0161 13.343 16.343L12.8672 15.5367C12.347 14.6807 11.7237 13.7123 11.2688 13.0148C12.2761 13.4356 13.7931 14.0635 14.8313 14.4844ZM34.4695 16.5094L34.3219 16.6781C33.9732 17.041 33.5664 17.2405 33.15 17.2406C32.7838 17.2406 32.4524 17.0824 32.2102 16.7953C31.917 16.4483 31.8043 15.9902 31.9102 15.5672C32.0405 15.0499 32.4744 14.6256 33.1359 14.3648C34.1802 13.9562 35.6832 13.2726 36.6867 12.8086C35.8359 14.2456 35.3568 15.0438 34.4695 16.5094ZM8.28516 11.6391C9.07684 11.6391 9.84036 12.0745 10.2984 12.8297C11.3367 14.5318 11.787 15.2615 12.7336 16.7953C11.0117 16.5859 10.0791 16.4838 8.13984 16.2703C7.27263 16.1738 6.57218 15.6946 6.21797 14.9555C5.87213 14.2287 5.91946 13.392 6.34688 12.7125C6.77032 12.0414 7.49349 11.6391 8.28516 11.6391ZM39.6023 11.4609C40.382 11.4609 41.1031 11.8562 41.5266 12.5133L41.6742 12.7688C41.9709 13.389 41.9766 14.1116 41.6813 14.7492C41.4736 15.1968 41.1417 15.5487 40.7203 15.7828C40.6145 15.8259 40.5126 15.8748 40.4109 15.9281C40.2992 15.9711 40.1815 16.0093 40.0617 16.0359C39.9355 16.0565 39.7572 16.0828 39.5414 16.1156C37.7502 16.3353 36.9027 16.4464 35.2172 16.6641C35.2557 16.6069 35.2929 16.5495 35.3273 16.4883C36.0826 15.1968 37.3311 13.1109 37.7484 12.4148C38.2084 11.8055 38.8699 11.4611 39.6023 11.4609ZM17.8523 12.2977C18.4486 12.7841 18.7583 13.3618 18.7219 13.9242C18.6974 14.3328 18.4844 14.6933 18.1383 14.9109C17.9104 15.0525 17.6537 15.1289 17.3953 15.1289C16.6665 15.1289 16.1023 14.569 15.8906 13.6266C15.6402 12.5178 15.1875 10.9019 14.8781 9.83438C15.7189 10.5345 16.9851 11.5872 17.8523 12.2977ZM32.0602 13.4367C31.7671 14.5853 31.0658 14.9971 30.5063 14.9977C30.2661 14.9977 30.0275 14.9216 29.8219 14.782C29.4435 14.5317 29.2127 14.1245 29.1961 13.6875C29.1819 13.2115 29.42 12.7368 29.8734 12.3305L29.8828 12.3211C29.919 12.2907 29.9565 12.2604 29.9906 12.232C30.0083 12.2181 30.0241 12.2042 30.0398 12.1922C30.9376 11.5023 32.2075 10.4133 33.0422 9.68438C32.7592 10.7459 32.3391 12.3444 32.0602 13.4367ZM11.7328 7.57266C12.8052 7.57312 13.6877 8.28391 13.9828 9.38203C14.5017 11.3114 14.7283 12.1366 15.2086 13.8773C13.6168 13.1896 12.7471 12.8232 10.9477 12.0656C10.1443 11.7249 9.60398 11.0692 9.47344 10.2609C9.34315 9.46634 9.62494 8.67427 10.2234 8.14453C10.6407 7.77511 11.1772 7.57266 11.7328 7.57266ZM36.1313 7.44609C36.6768 7.44609 37.2066 7.64459 37.6219 8.00391L37.8305 8.2125C38.2881 8.7237 38.4958 9.41543 38.3906 10.1109C38.2825 10.8105 37.8717 11.4009 37.2492 11.7703C37.0906 11.8462 36.8448 11.9614 36.5461 12.1008C34.997 12.7742 34.2159 13.1169 32.6953 13.7883C33.147 12.1033 33.3838 11.1857 33.8742 9.27891C34.1612 8.16626 35.0465 7.44636 36.1313 7.44609ZM21.3703 10.9922C21.8019 11.6307 21.932 12.2765 21.7406 12.8063C21.6001 13.1897 21.2936 13.4708 20.8992 13.5797C20.775 13.6146 20.6457 13.6313 20.5195 13.6313C20.1411 13.6311 19.7922 13.4821 19.5398 13.207C19.2141 12.858 19.0662 12.3365 19.1109 11.7L19.1602 10.7672C19.1998 9.7631 19.215 8.60915 19.2211 7.77422C19.8256 8.68769 20.7393 10.0621 21.3703 10.9922ZM28.7953 11.4188C28.7973 11.4988 28.8003 11.583 28.8023 11.6672C28.7961 12.2723 28.6224 12.7835 28.3031 13.118C28.0589 13.3745 27.7409 13.5139 27.4031 13.5141C27.2792 13.5141 27.1524 13.4967 27.0305 13.4578C26.5969 13.3244 26.2575 12.9963 26.1211 12.5836C25.9769 12.1464 26.0605 11.6449 26.3555 11.1422L26.3648 11.1305C26.4217 11.0465 26.4738 10.9642 26.5266 10.8844C27.19 9.96488 28.0881 8.57308 28.6805 7.64297C28.709 8.71029 28.7546 10.2981 28.7953 11.4188ZM25.1063 10.7273C25.3463 11.4538 25.2999 12.1091 24.9727 12.5648C24.7366 12.8932 24.3698 13.0827 23.9648 13.0828H23.9461C23.4942 13.0767 23.0791 12.8568 22.8328 12.5016C22.5336 12.0622 22.4992 11.4526 22.7414 10.7812C23.1241 9.71152 23.6065 8.1059 23.918 7.03828C24.2518 8.08525 24.7541 9.65767 25.1063 10.7273ZM16.1695 4.66172C16.7823 4.66172 17.3823 4.91402 17.8078 5.35547C18.1213 5.6758 18.4894 6.2449 18.4711 7.12969C18.4284 9.12669 18.4155 9.98289 18.3891 11.7914C17.0536 10.6786 16.3241 10.0831 14.8055 8.84297C14.1297 8.2886 13.7987 7.50208 13.8984 6.68906L13.9547 6.39609C14.1234 5.72636 14.5764 5.16974 15.2086 4.875C15.5139 4.73334 15.8357 4.66173 16.1695 4.66172ZM31.6664 4.58203C31.9921 4.58203 32.307 4.65277 32.6063 4.78828C33.3307 5.11886 33.8269 5.79192 33.9328 6.58828C34.0427 7.40136 33.7163 8.19103 33.0445 8.75156C31.5348 10.0116 30.8836 10.5628 29.5383 11.7C29.5244 11.712 29.5099 11.7232 29.4961 11.7352V11.6672C29.4961 11.6118 29.4958 11.5535 29.4938 11.4961C29.4938 11.4653 29.4931 11.4331 29.4891 11.4023C29.4545 9.85903 29.4265 8.91046 29.3695 7.07344C29.341 6.18449 29.7093 5.60754 30.0188 5.28516C30.4501 4.83782 31.0479 4.58234 31.6664 4.58203ZM21.2602 3.12188C21.9848 3.12188 22.6798 3.4778 23.1094 4.07109C23.5572 4.6849 23.6649 5.45693 23.4188 6.23906C22.8203 8.14446 22.5673 8.96308 22.0359 10.6898C21.1789 9.40863 20.6593 8.64997 19.7859 7.36875C19.5724 7.04666 19.3989 6.78496 19.2891 6.61875C18.9146 5.94739 18.8624 5.19186 19.1555 4.51641L19.2938 4.25156C19.6434 3.65698 20.233 3.25204 20.9203 3.14766C21.032 3.13127 21.1464 3.12191 21.2602 3.12188ZM26.8688 3.11719C27.6566 3.22601 28.324 3.73008 28.6477 4.46719C28.9428 5.13027 28.9036 5.8742 28.5516 6.54141C28.4723 6.66641 28.3681 6.8323 28.2422 7.02891C27.2895 8.45792 26.8155 9.17632 25.9523 10.4883C25.9523 10.4903 25.9508 10.4934 25.9477 10.4953C25.9049 10.5528 25.8668 10.6113 25.8281 10.6688C25.3049 9.00563 25.0115 8.10311 24.4008 6.23672C24.1445 5.45049 24.2483 4.67464 24.6961 4.05469L24.8719 3.83906C25.3034 3.3691 25.9132 3.09375 26.5523 3.09375C26.6578 3.09378 26.7633 3.10288 26.8688 3.11719Z" fill="#82C83C"/>
</g>
<defs>
<clipPath id="clip0_1112_10670">
<rect width="48" height="48" fill="white"/>
</clipPath>
</defs>
</svg>
