<svg width="20" height="20" viewBox="0 0 20 20" fill="none" xmlns="http://www.w3.org/2000/svg">
<g opacity="0.4">
<path d="M3.9974 2.6665C3.26073 2.6665 2.66406 3.26317 2.66406 3.99984V15.9998C2.66406 16.7365 3.26073 17.3332 3.9974 17.3332H15.9974C16.7341 17.3332 17.3307 16.7365 17.3307 15.9998V3.99984C17.3307 3.26317 16.7341 2.6665 15.9974 2.6665H3.9974ZM7.28646 5.99984H10.7904C12.509 5.99984 13.6732 7.11971 13.6732 8.83838C13.6738 10.5404 12.448 11.6548 10.668 11.6548H9.32031V13.9998H7.28646V5.99984ZM9.32161 7.56364V10.1196H10.2409C11.1056 10.1196 11.6159 9.67559 11.6159 8.84359C11.6159 8.00092 11.1119 7.56364 10.2526 7.56364H9.32161Z" fill="#7F7F86"/>
</g>
</svg>
