<svg width="24" height="24" viewBox="0 0 24 24" fill="none" xmlns="http://www.w3.org/2000/svg">
<path d="M5.6 2.3999C4.716 2.3999 4 3.1159 4 3.9999V20.7999C4 21.6839 4.716 22.3999 5.6 22.3999H18.4C19.284 22.3999 20 21.6839 20 20.7999V8.3999C20 8.1879 19.916 7.98468 19.7656 7.83428L14.5656 2.63428C14.4152 2.48388 14.212 2.3999 14 2.3999H5.6ZM13.6 3.92334L18.4766 8.7999H14.4C13.9584 8.7999 13.6 8.4415 13.6 7.9999V3.92334ZM11.2625 9.84053C11.6969 9.84053 12.0611 10.0241 12.2875 10.3577C12.4699 10.6249 12.5578 10.9685 12.5578 11.4093C12.5578 12.1653 12.2194 13.3521 11.6922 14.6233C11.9466 15.2001 12.2434 15.7713 12.5594 16.2905C13.2938 16.2953 14.3034 16.3622 15.1266 16.639C16.3114 17.0358 16.5609 17.6887 16.5609 18.1671C16.5601 18.8559 16.0014 19.5999 14.7734 19.5999C13.8654 19.5999 12.8533 18.6787 11.9797 17.4171C11.3429 17.4379 10.738 17.5001 10.1828 17.5937C9.16521 19.2585 8.01201 20.5608 7.13281 20.5608C6.16641 20.5608 5.84063 19.6062 5.84063 19.1702C5.84063 17.7998 7.57386 16.9897 9.48906 16.5937C9.85066 15.9769 10.2007 15.3099 10.5031 14.6483C10.0575 13.5435 9.78281 12.4632 9.78281 11.6608C9.78281 11.152 9.88735 10.7399 10.0938 10.4327C10.3513 10.0503 10.7673 9.84053 11.2625 9.84053ZM11.2609 10.9593C11.0873 10.9593 11.0483 11.0185 11.0219 11.0577C10.9771 11.1241 10.9016 11.2912 10.9016 11.6608C10.9016 12.0704 10.9834 12.5496 11.125 13.0624C11.3346 12.408 11.4543 11.8125 11.4375 11.3405C11.4247 10.9597 11.3329 10.9593 11.2609 10.9593ZM13.3641 17.4437C13.8785 18.0741 14.3815 18.4796 14.7719 18.4796C15.2327 18.4796 15.4391 18.3223 15.4391 18.1655C15.4399 18.0183 15.1775 17.8351 14.7703 17.6983C14.4007 17.5743 13.9177 17.4885 13.3641 17.4437ZM8.59844 17.9796C7.58644 18.3212 6.95938 18.7655 6.95938 19.1687C6.95938 19.1687 7.00485 19.4405 7.13125 19.4405C7.43525 19.4189 7.98884 18.8388 8.59844 17.9796Z" fill="white"/>
</svg>
