<svg width="24" height="24" viewBox="0 0 24 24" fill="none" xmlns="http://www.w3.org/2000/svg">
<path d="M12.8011 2.39949C12.6951 2.39799 12.5898 2.41758 12.4915 2.45711C12.3931 2.49664 12.3035 2.55533 12.228 2.62977C12.1525 2.7042 12.0926 2.7929 12.0517 2.89071C12.0108 2.98851 11.9897 3.09347 11.9897 3.19949C11.9897 3.30551 12.0108 3.41048 12.0517 3.50828C12.0926 3.60609 12.1525 3.69479 12.228 3.76922C12.3035 3.84366 12.3931 3.90235 12.4915 3.94188C12.5898 3.98141 12.6951 4.00099 12.8011 3.99949C16.7872 3.99949 20.0011 7.21342 20.0011 11.1995C19.9996 11.3055 20.0192 11.4108 20.0587 11.5091C20.0982 11.6075 20.1569 11.697 20.2314 11.7725C20.3058 11.848 20.3945 11.908 20.4923 11.9489C20.5901 11.9898 20.6951 12.0109 20.8011 12.0109C20.9071 12.0109 21.0121 11.9898 21.1099 11.9489C21.2077 11.908 21.2964 11.848 21.3708 11.7725C21.4452 11.697 21.5039 11.6075 21.5435 11.5091C21.583 11.4108 21.6026 11.3055 21.6011 11.1995C21.6011 6.34877 17.6518 2.39949 12.8011 2.39949ZM6.19171 4.00262C6.09137 3.99431 5.98922 4.00262 5.88702 4.02762C5.49022 4.12442 4.97546 4.35949 4.43546 4.89949C2.74506 6.58989 1.84821 9.43957 8.20421 15.7964C14.5602 22.1532 17.4099 21.2563 19.1011 19.5651C19.6427 19.0235 19.8777 18.508 19.9745 18.1104C20.0729 17.7032 19.8971 17.2841 19.5355 17.0729C18.6331 16.5449 16.6855 15.4033 15.7823 14.8745C15.4855 14.7009 15.1213 14.704 14.8261 14.8792L13.3323 15.7698C12.9979 15.969 12.5802 15.9465 12.273 15.7073C11.7426 15.2929 10.8896 14.595 10.1464 13.8526C9.4032 13.1094 8.70531 12.2565 8.29171 11.7261C8.05251 11.4197 8.02921 11.0011 8.22921 10.6667L9.11984 9.17293C9.29584 8.87773 9.29656 8.51036 9.12296 8.21356L6.92921 4.46824C6.76961 4.19704 6.49272 4.02756 6.19171 4.00262ZM12.8011 5.59949C12.6951 5.59799 12.5898 5.61758 12.4915 5.65711C12.3931 5.69664 12.3035 5.75533 12.228 5.82977C12.1525 5.9042 12.0926 5.9929 12.0517 6.09071C12.0108 6.18851 11.9897 6.29347 11.9897 6.39949C11.9897 6.50551 12.0108 6.61048 12.0517 6.70828C12.0926 6.80609 12.1525 6.89479 12.228 6.96922C12.3035 7.04366 12.3931 7.10235 12.4915 7.14188C12.5898 7.18141 12.6951 7.20099 12.8011 7.19949C15.02 7.19949 16.8011 8.98056 16.8011 11.1995C16.7996 11.3055 16.8192 11.4108 16.8587 11.5091C16.8982 11.6075 16.9569 11.697 17.0314 11.7725C17.1058 11.848 17.1945 11.908 17.2923 11.9489C17.3901 11.9898 17.4951 12.0109 17.6011 12.0109C17.7071 12.0109 17.8121 11.9898 17.9099 11.9489C18.0077 11.908 18.0964 11.848 18.1708 11.7725C18.2452 11.697 18.3039 11.6075 18.3435 11.5091C18.383 11.4108 18.4026 11.3055 18.4011 11.1995C18.4011 8.11603 15.8846 5.59949 12.8011 5.59949ZM12.8011 8.79949C12.6951 8.79799 12.5898 8.81758 12.4915 8.85711C12.3931 8.89664 12.3035 8.95533 12.228 9.02977C12.1525 9.1042 12.0926 9.1929 12.0517 9.2907C12.0108 9.38851 11.9897 9.49347 11.9897 9.59949C11.9897 9.70551 12.0108 9.81048 12.0517 9.90828C12.0926 10.0061 12.1525 10.0948 12.228 10.1692C12.3035 10.2437 12.3931 10.3023 12.4915 10.3419C12.5898 10.3814 12.6951 10.401 12.8011 10.3995C13.2531 10.3995 13.6011 10.7475 13.6011 11.1995C13.5996 11.3055 13.6192 11.4108 13.6587 11.5091C13.6982 11.6075 13.7569 11.697 13.8314 11.7725C13.9058 11.848 13.9945 11.908 14.0923 11.9489C14.1901 11.9898 14.2951 12.0109 14.4011 12.0109C14.5071 12.0109 14.6121 11.9898 14.7099 11.9489C14.8077 11.908 14.8964 11.848 14.9708 11.7725C15.0452 11.697 15.1039 11.6075 15.1435 11.5091C15.183 11.4108 15.2026 11.3055 15.2011 11.1995C15.2011 9.88352 14.1171 8.79949 12.8011 8.79949Z" fill="#82C83C"/>
</svg>
