<svg width="24" height="24" viewBox="0 0 24 24" fill="none" xmlns="http://www.w3.org/2000/svg">
<path d="M19 12C19 11.7807 18.8822 11.5969 18.7147 11.4972L18.718 11.4913L7.86345 5.1085L7.85255 5.11433C7.76418 5.04783 7.66218 5 7.54545 5C7.24436 5 7 5.26133 7 5.58333C7 5.58392 7.00055 5.5845 7.00055 5.58567L7 12V18.4143C7 18.4155 7 18.4161 7 18.4167C7 18.7387 7.24436 19 7.54545 19C7.66218 19 7.76418 18.9522 7.85309 18.8857L7.86345 18.8915L18.718 12.5087L18.7147 12.5028C18.8822 12.4031 19 12.2193 19 12Z" fill="white"/>
</svg>
