<svg width="404" height="188" viewBox="0 0 404 188" fill="none" xmlns="http://www.w3.org/2000/svg">
<path d="M510.859 0.0020752C510.859 -59.0194 463.025 -106.854 404.002 -106.854C344.978 -106.854 297.145 -59.0198 297.145 0.0020752C297.146 59.0231 344.979 106.854 404.002 106.854V121.2L400.871 121.159C336.413 119.525 284.474 67.587 282.841 3.12912L282.8 0.0020752C282.8 -66.9424 337.057 -121.2 404.002 -121.2L407.129 -121.159C472.628 -119.5 525.2 -65.8966 525.2 0.0020752L525.163 3.12912C523.503 68.6267 469.9 121.199 404.002 121.2V106.854C463.024 106.854 510.858 59.0227 510.859 0.0020752Z" fill="#82C83C"/>
<path d="M771.028 50.7688C778.757 47.9654 785.801 43.4722 791.741 37.443C802.326 26.7285 808.075 12.481 807.999 -2.61142C807.847 -27.2662 791.893 -48.1958 769.924 -55.6076C774.531 -58.9487 778.643 -63.0194 782.108 -67.7046C792.617 -81.9905 795.853 -100.616 790.827 -117.59C784.05 -140.133 763.68 -156.147 740.644 -157.529C742.89 -160.602 744.87 -163.904 746.508 -167.399C754.77 -185.179 753.361 -205.61 742.776 -222.008C732.458 -238.022 714.867 -247.623 695.867 -247.623C691.412 -247.623 687.11 -247.085 682.96 -246.087C684.368 -249.812 685.434 -253.69 686.044 -257.723C688.975 -277.116 681.97 -296.279 667.234 -309.029C657.144 -317.785 644.237 -322.586 630.911 -322.586C620.82 -322.586 611.264 -319.897 603.001 -315.02C603.344 -319.052 603.268 -323.162 602.735 -327.271C600.146 -346.741 588.038 -363.139 570.371 -371.204C563.098 -374.545 555.407 -376.196 547.449 -376.196C532.371 -376.196 517.75 -369.937 507.242 -359.068C507.051 -358.838 506.823 -358.608 506.632 -358.377C505.833 -362.525 504.576 -366.634 502.825 -370.589C494.867 -388.485 478.647 -400.774 459.457 -403.462C456.906 -403.846 454.279 -404 451.728 -404C433.908 -404 417.003 -395.244 406.494 -380.651C404.819 -378.308 403.372 -375.851 402.077 -373.354C400.821 -375.774 399.412 -378.116 397.775 -380.344C387.304 -394.822 370.398 -403.501 352.693 -403.501C349.952 -403.501 347.134 -403.27 344.393 -402.886C325.241 -399.968 309.173 -387.525 301.406 -369.552C299.692 -365.597 298.474 -361.526 297.712 -357.494C297.636 -357.609 297.522 -357.724 297.408 -357.84C286.975 -368.592 272.392 -374.775 257.429 -374.775C249.281 -374.775 241.399 -373.009 233.974 -369.514C216.383 -361.296 204.466 -344.744 202.067 -325.274C201.572 -321.165 201.534 -317.094 201.915 -313.1C193.767 -317.708 184.476 -320.243 174.424 -320.243C160.907 -320.243 147.81 -315.289 137.643 -306.303C123.061 -293.438 116.207 -274.159 119.367 -254.804C120.053 -250.58 121.195 -246.548 122.756 -242.746C118.606 -243.706 114.341 -244.243 110.001 -244.243C90.6964 -244.243 73.0675 -234.451 62.749 -218.052C52.3545 -201.539 51.2122 -181.109 59.6269 -163.443C61.4545 -159.603 63.6628 -156.07 66.2139 -152.883C42.6833 -151.577 22.1226 -135.217 15.6117 -112.175C10.738 -95.0091 14.0506 -76.9981 24.7498 -62.7122C28.2527 -58.0654 32.4029 -54.0331 36.972 -50.7688C29.2427 -48.0038 22.1987 -43.4723 16.259 -37.443C5.67398 -26.7285 -0.075404 -12.481 0.000746854 2.61139C0.153049 27.2278 16.1066 48.1958 38.0762 55.6076C33.469 58.9486 29.3569 63.0194 25.892 67.7046C15.3832 81.9521 12.1468 100.616 17.1728 117.552C23.9502 140.094 44.3205 156.147 67.3562 157.529C65.1097 160.563 63.1298 163.866 61.4926 167.399C53.2302 185.179 54.639 205.571 65.2239 221.97C75.5424 238.022 93.1332 247.623 112.133 247.623C116.588 247.623 120.89 247.085 125.04 246.087C123.632 249.812 122.566 253.691 121.956 257.684C119.025 277.078 126.03 296.279 140.766 309.029C150.856 317.785 163.763 322.586 177.09 322.586C187.18 322.586 196.736 319.897 204.999 315.02C204.656 319.052 204.732 323.162 205.265 327.271C207.854 346.703 219.962 363.139 237.629 371.204C244.902 374.506 252.593 376.196 260.551 376.196C275.629 376.196 290.25 369.936 300.759 359.068C300.949 358.838 301.177 358.608 301.368 358.377C302.167 362.525 303.424 366.634 305.175 370.589C313.133 388.485 329.353 400.774 348.543 403.462C351.094 403.808 353.721 404 356.272 404C374.092 404 390.997 395.244 401.506 380.613C403.181 378.308 404.628 375.851 405.923 373.316C407.179 375.735 408.588 378.116 410.225 380.344C420.696 394.822 437.602 403.462 455.307 403.462C458.048 403.462 460.866 403.27 463.607 402.848C482.759 399.968 498.865 387.525 506.594 369.514C508.308 365.559 509.526 361.526 510.288 357.456C510.364 357.571 510.478 357.724 510.592 357.801C521.025 368.554 535.608 374.737 550.571 374.737C558.719 374.737 566.601 372.97 574.026 369.514C591.617 361.257 603.534 344.744 605.933 325.274C606.428 321.126 606.466 317.055 606.085 313.1C614.233 317.708 623.524 320.243 633.576 320.243C647.093 320.243 660.19 315.289 670.357 306.303C684.94 293.399 691.793 274.159 688.633 254.804C687.948 250.58 686.805 246.509 685.244 242.707C689.394 243.706 693.659 244.243 697.999 244.243C717.304 244.243 734.933 234.451 745.251 218.052C755.684 201.539 756.788 181.109 748.373 163.443C746.546 159.603 744.337 156.07 741.786 152.882C765.317 151.538 785.878 135.179 792.388 112.137C797.262 95.0091 793.949 76.9981 783.25 62.7122C779.747 58.027 775.597 54.0331 771.028 50.7688ZM448.225 -240.71C449.291 -242.285 450.281 -243.821 451.271 -245.319C463.683 -262.523 480.474 -288.56 491.554 -305.957C492.087 -285.987 492.925 -256.263 493.687 -235.295C493.725 -233.798 493.763 -232.262 493.801 -230.687C493.687 -219.358 490.45 -209.796 484.472 -203.536C479.903 -198.736 473.964 -196.124 467.643 -196.124C465.32 -196.124 462.96 -196.47 460.675 -197.2C452.565 -199.696 446.245 -205.802 443.694 -213.521C440.99 -221.701 442.551 -231.071 448.072 -240.48L448.225 -240.71ZM686.158 -130.57C674.507 -119.779 659.315 -105.685 646.483 -93.6266C642.181 -89.6711 637.612 -85.4852 632.586 -80.8768C624.971 -74.7707 617.013 -71.5449 609.322 -71.5449C599.613 -71.5449 591.464 -76.8061 587.619 -85.5236C584.154 -93.3194 584.573 -102.152 588.685 -109.18C593.711 -117.782 603.725 -123.082 616.937 -124.234C637.954 -126.039 668.757 -130.378 689.166 -133.374C688.138 -132.452 687.148 -131.492 686.158 -130.57ZM385.895 212.1C390.312 205.917 397.165 202.422 404.742 202.422H405.047C413.5 202.499 421.267 206.57 425.874 213.252C431.548 221.432 432.157 232.838 427.664 245.395C420.544 265.403 411.596 295.473 405.771 315.443C399.488 295.895 390.045 266.479 383.42 246.471C378.889 232.876 379.765 220.625 385.895 212.1ZM453.708 244.282C445.521 232.415 443.008 220.395 446.511 210.449C449.1 203.229 454.812 197.929 462.122 195.855C464.521 195.164 466.996 194.819 469.433 194.819C476.477 194.819 482.949 197.622 487.671 202.691C493.763 209.181 496.58 218.859 495.857 230.725C494.6 252.001 494.372 283.376 494.372 304.19C482.911 287.178 465.625 261.64 453.708 244.32M604.715 143.819C615.033 162.368 631.748 188.905 642.904 206.378C624.133 198.352 595.881 186.332 576.539 178.267C563.327 172.737 554.684 164.058 552.323 153.727C550.609 146.277 552.551 138.712 557.615 132.913C562.641 127.229 569.609 123.965 576.805 123.965C587.657 123.965 597.556 131.031 604.715 143.781M555.521 193.551C560.242 214.289 568.771 244.474 574.559 264.443C558.834 251.386 535.151 231.801 518.855 218.513C507.737 209.412 501.911 198.62 502.558 188.06C503.015 180.417 507.013 173.735 513.486 169.626C517.75 166.938 522.548 165.517 527.383 165.517C541.014 165.517 551.561 175.963 555.521 193.551ZM578.024 110.946C577.643 110.946 577.224 110.946 576.843 110.946C565.954 110.946 555.369 115.824 547.944 124.272C540.558 132.682 537.511 143.512 539.263 154.38C535.265 153.036 531.229 152.422 527.422 152.422C520.111 152.422 512.953 154.534 506.594 158.528C496.542 164.903 490.298 175.348 489.575 187.292V187.407C483.635 183.682 476.781 181.685 469.471 181.685C465.854 181.685 462.198 182.184 458.695 183.182C447.996 186.216 439.505 193.667 435.203 203.805C428.045 194.78 417.041 189.404 405.237 189.25H404.781C393.358 189.25 382.925 194.473 375.996 203.574C371.388 193.974 362.898 186.562 352.389 183.259C348.81 182.146 345.154 181.57 341.499 181.57C334.189 181.57 327.183 183.835 321.167 188.021C320.025 176.654 313.742 166.17 303.995 159.565C297.941 155.456 291.011 153.305 283.853 153.305C279.512 153.305 275.324 154.111 271.402 155.571C272.963 144.703 269.727 133.374 262.378 124.656C255.487 116.476 245.549 111.83 235.04 111.753C239.419 101.96 239.457 90.4391 235.04 80.1855C230.014 68.5878 219.848 60.7152 207.626 58.6798C214.67 50.308 217.83 39.1327 216.307 27.9574C214.784 16.7821 208.578 7.56537 199.63 1.95853C209.339 -3.80191 216.231 -13.7483 218.059 -26.0373C219.658 -36.7133 216.726 -47.1205 209.758 -55.262C209.263 -55.8764 208.73 -56.4525 208.197 -56.9901C218.401 -60.1392 227.006 -67.5125 231.842 -77.8814C236.83 -88.4806 236.525 -100.386 231.119 -110.639C231.575 -110.601 232.07 -110.562 232.527 -110.562C243.569 -110.562 254.23 -115.555 261.693 -124.195C269.004 -132.644 271.935 -143.512 270.108 -154.303C273.649 -153.305 277.152 -152.806 280.464 -152.806C287.775 -152.806 294.933 -154.918 301.253 -158.912C311.115 -165.133 317.283 -175.271 318.235 -186.869C324.327 -182.952 331.371 -180.84 338.91 -180.84C342.451 -180.84 345.992 -181.301 349.381 -182.261C360.765 -185.371 369.675 -193.513 373.825 -204.611C380.945 -196.24 391.53 -191.247 402.839 -191.094H403.334C415.061 -191.094 425.76 -196.585 432.652 -206.109C437.145 -195.932 445.94 -188.06 456.906 -184.68C460.447 -183.567 464.064 -183.029 467.643 -183.029C475.182 -183.029 482.302 -185.371 488.432 -189.749C489.613 -178.421 495.971 -167.937 505.718 -161.408C511.734 -157.376 518.626 -155.264 525.708 -155.264C530.239 -155.264 534.618 -156.108 538.73 -157.721C536.94 -146.661 540.177 -135.064 547.601 -126.231C554.531 -118.013 564.545 -113.327 575.13 -113.327C575.473 -113.327 575.815 -113.366 576.158 -113.366C571.17 -103.189 570.98 -90.9768 575.739 -80.2624C580.575 -69.2791 590.056 -61.7137 601.478 -59.2943C601.44 -59.2943 601.364 -59.1791 601.288 -59.1023C594.015 -50.692 590.817 -39.4015 592.34 -28.0342C593.901 -16.7053 600.26 -7.37338 609.436 -1.76654C599.917 3.9939 593.14 13.8251 591.35 25.922C589.713 36.6365 592.645 47.0821 599.612 55.1852C599.993 55.646 600.412 56.1068 600.831 56.5293C590.513 59.6015 581.831 67.0517 576.92 77.4974C571.856 88.2886 572.236 100.501 578.024 110.908M283.815 166.439C288.384 166.439 292.839 167.86 296.723 170.471C303.728 175.233 308.031 182.914 308.297 191.055C308.564 201.002 302.891 210.948 292.344 219.013C275.553 231.839 251.717 252.078 236.068 265.634C241.437 245.779 249.395 215.979 254.687 195.548C260.284 174.158 273.382 166.516 283.777 166.516M258 156.185C255.563 165.824 247.453 173.774 235.078 178.651C215.431 186.37 187.065 199.273 168.256 207.991C178.803 190.364 194.604 163.866 205.227 145.701C212.957 132.49 223.732 124.887 234.774 124.887C241.627 124.887 247.872 127.844 252.365 133.22C257.848 139.71 259.942 148.274 257.962 156.224M221.79 109.026C216.688 117.552 206.636 122.813 193.386 123.811C172.368 125.463 141.489 129.495 121.043 132.375C136.197 118.589 158.928 97.8509 174.31 83.565C183.029 75.5003 192.32 71.276 201.229 71.276C211.091 71.276 219.239 76.5757 223.085 85.4467C226.435 93.2426 225.978 102.075 221.79 109.065M179.488 -5.79883C173.282 -5.79883 166.733 -7.64221 159.879 -11.2521C141.184 -21.1217 112.856 -34.1787 94.009 -42.7042C114.113 -46.2757 144.269 -51.7289 164.791 -55.5692C179.755 -58.411 192.739 -55.07 199.897 -46.6597C204.313 -41.4753 206.217 -34.8315 205.189 -27.919C203.514 -16.8973 194.985 -5.76047 179.45 -5.76047M220.077 -83.4498C215.736 -74.2331 206.979 -68.4727 197.155 -68.4727C188.664 -68.4727 179.907 -72.6585 171.873 -80.608C156.757 -95.4699 133.379 -116.208 117.806 -129.841C138.062 -127.421 168.484 -123.85 189.274 -121.584C203.514 -120.048 214.213 -114.095 219.315 -104.879C223.047 -98.1966 223.313 -90.4008 220.039 -83.4114M204.694 -143.243C194.185 -161.677 177.242 -188.06 165.895 -205.456C184.743 -197.584 213.109 -185.832 232.527 -177.96C245.816 -172.545 254.497 -163.943 256.972 -153.651C258.761 -146.2 256.896 -138.597 251.87 -132.759C246.844 -126.96 239.838 -123.658 232.527 -123.658C221.79 -123.658 211.89 -130.609 204.694 -143.205M252.327 -194.012C247.643 -214.75 239.191 -244.973 233.403 -264.943C249.128 -251.847 272.811 -232.185 289.031 -218.897C300.187 -209.796 305.975 -198.966 305.289 -188.444C304.833 -180.802 300.835 -174.081 294.362 -170.01C290.097 -167.36 285.3 -165.94 280.464 -165.94C266.833 -165.94 256.286 -176.385 252.327 -194.012ZM312.562 -229.996C313.971 -251.271 314.466 -282.646 314.618 -303.461C325.926 -286.371 343.022 -260.68 354.826 -243.283C362.898 -231.34 365.334 -219.281 361.755 -209.373C359.128 -202.192 353.379 -196.931 345.992 -194.895C343.669 -194.243 341.271 -193.935 338.91 -193.935C331.828 -193.935 325.317 -196.739 320.596 -201.885C314.504 -208.413 311.724 -218.129 312.562 -230.034M424.694 -248.237C429.187 -234.643 428.311 -222.392 422.181 -213.867C417.764 -207.722 410.911 -204.189 403.334 -204.189H402.991C394.538 -204.304 386.771 -208.413 382.164 -215.057C376.567 -223.275 375.919 -234.681 380.45 -247.239C387.609 -267.247 396.632 -297.278 402.458 -317.248C408.702 -297.662 418.107 -268.245 424.694 -248.237ZM599.803 -140.056C592.721 -131.3 584.04 -126.423 575.13 -126.423C568.276 -126.423 562.07 -129.38 557.539 -134.756C552.056 -141.246 549.962 -149.81 551.942 -157.721C554.379 -167.399 562.489 -175.348 574.863 -180.225C594.396 -187.868 622.496 -200.656 641.267 -209.335C625.352 -182.453 616.404 -167.514 599.803 -140.094M609.436 46.6597C605.019 41.4369 603.154 34.8315 604.182 27.919C605.857 16.8973 614.424 5.76044 629.882 5.76044C636.089 5.76044 642.714 7.64221 649.567 11.2905C668.224 21.1601 696.552 34.3323 715.362 42.8578C695.258 46.4293 665.102 51.8057 644.542 55.6076C629.578 58.3726 616.594 55.0315 609.474 46.6212M644.085 -11.5593C639.439 -9.94638 634.946 -9.13992 630.644 -9.13992C617.127 -9.13992 606.885 -17.4734 605.21 -29.8008C604.143 -37.4046 606.314 -44.9315 611.073 -50.4616C616.366 -56.6061 624.285 -59.7935 633.995 -59.7935C637.193 -59.7935 640.544 -59.4479 644.047 -58.7567C664.76 -54.5707 695.563 -50.0776 716.009 -47.3126C707.823 -43.2034 697.885 -38.211 687.681 -33.1034C674.164 -26.3445 661.561 -20.1232 644.085 -11.5593ZM514.019 -218.398C514.704 -218.974 515.39 -219.55 516.037 -220.088C516.38 -220.357 516.684 -220.625 516.989 -220.856C533.78 -233.759 557.501 -254.113 573.112 -267.746C567.82 -247.892 559.976 -218.014 554.76 -197.584C549.277 -176.078 536.141 -168.397 525.67 -168.397C521.177 -168.397 516.722 -169.78 512.877 -172.391C505.795 -177.076 501.492 -184.719 501.188 -192.898C500.921 -201.808 505.376 -210.679 513.867 -218.283L514.019 -218.436V-218.398ZM162.659 12.1353C167.951 10.1 173.054 9.06311 177.965 9.06311C191.444 9.06311 201.686 17.3582 203.4 29.7239C204.428 37.3278 202.295 44.8547 197.498 50.3847C192.205 56.4908 184.324 59.7167 174.577 59.7167C171.416 59.7167 168.028 59.3711 164.601 58.6414C143.888 54.4939 113.085 50.0008 92.6382 47.2357C107.183 39.9008 127.591 29.6855 144.687 20.9297C150.208 18.203 156.072 15.3228 162.659 12.097M359.699 240.826C358.709 242.4 357.719 243.898 356.729 245.395C344.393 262.523 328.059 287.562 317.283 304.421C316.788 283.875 316.027 252.961 315.341 231.878C314.923 219.397 318.235 208.797 324.708 202.077C329.277 197.315 335.179 194.703 341.461 194.703C343.822 194.703 346.221 195.049 348.543 195.779C356.615 198.313 362.898 204.458 365.449 212.177C368 219.973 366.667 228.844 361.755 237.753L359.699 240.826ZM690.917 129.533C670.661 127.152 640.239 123.543 619.45 121.277C605.21 119.741 594.51 113.788 589.408 104.571C585.715 97.8893 585.448 90.0935 588.723 83.1042C593.064 73.849 601.821 68.127 611.606 68.127C618.003 68.127 624.476 70.4696 630.72 75.0011L634.147 78.0734C636.431 80.1087 638.564 82.0289 640.62 83.9106C655.621 98.3886 676.601 117.014 690.955 129.572M794.977 -2.53458C795.016 9.02472 790.599 19.9696 782.527 28.1878C774.417 36.4061 763.68 40.8992 752.295 40.8992C746.812 40.8992 741.367 39.824 735.961 37.7886C734.247 36.9821 732.001 35.9836 729.374 34.7932C697.733 19.4703 683.302 12.5578 654.022 -1.4209C655.203 -1.95856 656.383 -2.53458 657.563 -3.11063C667.844 -8.41025 680.865 -14.9772 693.506 -21.3905C704.396 -26.8437 715.971 -32.6042 731.125 -40.2464C738.093 -43.7027 745.175 -45.4692 752.295 -45.4692C775.711 -45.4692 794.863 -26.2293 795.016 -2.57303M778.339 -113.827C782.222 -100.846 779.747 -86.4836 771.637 -75.5388C763.489 -64.5171 750.772 -58.1422 736.722 -58.1422C734.818 -58.1422 732.877 -58.2958 730.935 -58.4879C730.402 -58.5646 729.83 -58.6415 729.259 -58.7183C728.955 -58.7183 728.612 -58.7951 728.307 -58.8719C691.793 -64.9012 676.106 -67.3973 643.057 -72.6201C643.78 -73.2346 644.503 -73.8875 645.227 -74.5403C648.273 -77.4589 651.662 -80.608 655.164 -83.9107C668.872 -96.5453 679.723 -106.684 694.953 -120.931C700.741 -126.308 705.653 -130.839 709.003 -133.95C711.402 -135.908 713.877 -137.637 716.466 -139.057C718.484 -139.902 720.464 -140.786 722.368 -141.822C727.165 -143.627 732.191 -144.587 737.331 -144.587C756.064 -144.587 772.894 -131.953 778.339 -113.865M731.848 -214.903C739.958 -202.346 741.025 -186.639 734.704 -173.006C730.82 -164.634 724.614 -158.067 716.732 -153.689C714.753 -152.883 712.849 -151.961 710.945 -150.962C708.851 -150.156 706.643 -149.465 704.396 -148.965C702.035 -148.581 698.723 -148.082 694.687 -147.468C661.18 -143.359 645.341 -141.285 613.815 -137.214C614.538 -138.289 615.223 -139.365 615.871 -140.517C629.997 -164.672 653.337 -203.651 661.142 -216.67C669.747 -228.076 682.122 -234.527 695.829 -234.527C710.412 -234.527 723.891 -227.154 731.81 -214.865M658.744 -299.16C670.014 -289.405 675.421 -274.659 673.174 -259.797C671.156 -246.701 663.465 -235.641 651.814 -228.729C648.844 -227.308 644.237 -225.157 638.64 -222.546C609.664 -209.949 595.081 -203.536 566.639 -190.978C575.092 -222.507 579.509 -239.673 588.685 -275.35C594.054 -296.164 610.616 -309.605 630.911 -309.605C641.115 -309.605 651.014 -305.919 658.782 -299.198M547.411 -363.178C553.503 -363.178 559.367 -361.872 564.964 -359.337C578.519 -353.154 587.809 -340.558 589.789 -325.658C591.845 -310.45 585.753 -295.703 573.188 -285.219C544.936 -261.64 532.752 -251.348 507.584 -230.073C507.318 -229.842 507.051 -229.612 506.785 -229.381C506.785 -229.842 506.785 -230.265 506.785 -230.687C506.785 -231.724 506.785 -232.799 506.747 -233.875C506.747 -234.451 506.747 -235.027 506.67 -235.603C506.023 -264.482 505.49 -282.224 504.424 -316.595C503.891 -333.223 510.783 -344.014 516.57 -350.044C524.642 -358.416 535.836 -363.178 547.411 -363.178ZM417.041 -373.086C425.113 -384.299 438.058 -391.02 451.728 -391.02C453.707 -391.02 455.687 -390.866 457.667 -390.597C472.402 -388.562 484.853 -379.115 490.907 -365.328C496.428 -352.924 495.705 -339.022 489.118 -326.541C487.633 -324.198 485.691 -321.088 483.33 -317.401C465.511 -290.673 456.639 -277.27 440.495 -252.73C440.495 -252.692 440.495 -252.615 440.419 -252.577C439.62 -251.502 438.934 -250.426 438.211 -249.351C428.425 -280.457 422.904 -297.316 411.482 -332.225C406.684 -346.933 408.626 -361.449 417.003 -373.047M313.438 -364.406C319.377 -378.232 331.714 -387.794 346.411 -390.021C348.505 -390.329 350.637 -390.482 352.77 -390.482C366.324 -390.482 379.308 -383.838 387.342 -372.74C395.719 -361.257 397.737 -346.818 393.129 -332.186C381.935 -296.548 377.214 -281.264 367.276 -248.967C351.247 -272.93 341.537 -287.101 325.203 -311.065C321.205 -317.094 317.931 -321.971 315.874 -325.082C308.869 -337.64 307.917 -351.772 313.4 -364.406M215.089 -323.776C216.916 -338.715 226.055 -351.426 239.571 -357.724C245.283 -360.374 251.299 -361.718 257.543 -361.718C269.004 -361.718 280.236 -356.995 288.194 -348.738C294.057 -342.747 300.911 -332.11 300.568 -315.558C299.769 -278.192 299.54 -262.178 299.045 -228.344C274.068 -249.159 260.437 -260.296 232.032 -283.491C219.391 -293.86 213.185 -308.568 215.051 -323.776M146.325 -296.548C154.13 -303.461 164.144 -307.263 174.538 -307.263C194.604 -307.263 211.129 -293.975 216.65 -273.43C226.359 -237.331 230.585 -221.893 239.571 -189.327C209.796 -202.192 193.538 -209.028 159.879 -223.198C144.84 -229.573 134.75 -241.862 132.313 -256.993C129.876 -271.855 135.13 -286.64 146.325 -296.548ZM73.829 -211.102C81.7487 -223.659 95.2654 -231.186 110.077 -231.186C124.888 -231.186 139.166 -223.045 147.733 -208.913C167.152 -177.076 175.567 -163.443 193.272 -134.756C161.06 -138.673 143.621 -140.594 107.335 -144.587C91.1152 -146.392 78.0554 -155.34 71.4302 -169.165C64.9574 -182.76 65.8331 -198.39 73.829 -211.102ZM28.1766 -108.604C33.431 -127.037 50.3364 -139.902 69.3361 -139.902C80.3018 -139.902 90.8487 -135.64 99.7203 -127.536C127.249 -102.498 139.052 -91.8601 164.144 -69.3559C132.122 -63.9026 114.836 -60.7921 78.9311 -54.3403C75.847 -53.8027 72.8009 -53.5338 69.8691 -53.5338C55.9716 -53.5338 43.2925 -59.7936 35.1824 -70.6616C26.9581 -81.6449 24.4452 -95.47 28.1385 -108.604M13.0606 2.53461C13.0225 -9.02469 17.4393 -19.9696 25.5113 -28.1878C33.6213 -36.4061 44.3586 -40.8993 55.7432 -40.8993C62.6729 -40.8993 69.6026 -39.2095 76.4181 -35.9069C109.696 -19.7392 124.127 -12.865 154.244 1.5361C153.178 1.99695 152.112 2.53461 151.008 3.07227C147.276 4.9924 143.202 7.06616 138.938 9.25516C118.644 19.2399 103.337 26.9589 76.9131 40.208C69.9453 43.7026 62.8633 45.4692 55.7432 45.4692C32.3268 45.4692 13.1748 26.2292 13.0225 2.573M29.6996 113.827C25.8159 100.808 28.3289 86.4836 36.4009 75.5388C44.549 64.4787 57.2662 58.1422 71.316 58.1422C74.0574 58.1422 76.9131 58.3727 79.7307 58.8335C116.321 64.9012 132.008 67.3973 165.134 72.6201C141.146 94.6635 128.277 106.684 101.548 131.761C98.3876 134.679 95.0751 137.099 91.5721 139.057C89.5541 139.864 87.5742 140.786 85.6704 141.784C80.8729 143.627 75.8089 144.588 70.7068 144.588C51.9737 144.588 35.1444 131.953 29.6996 113.865M76.2277 214.903C68.1177 202.307 67.0516 186.639 73.3721 173.006C77.2558 164.634 83.4621 158.067 91.3437 153.651C93.2855 152.883 95.2274 151.961 97.1311 150.924C100.824 149.503 104.822 148.505 108.973 148.005C145.792 143.474 161.517 141.438 194.795 137.137C177.889 165.056 168.865 180.264 150.132 211.831C141.565 226.271 127.782 234.527 112.209 234.527C97.6261 234.527 84.1474 227.192 76.2277 214.903ZM149.333 299.121C138.062 289.328 132.656 274.62 134.902 259.72C137.225 244.589 147.124 232.108 162.164 225.656C196.203 210.909 210.748 204.458 241.475 190.902C233.022 222.469 228.606 239.597 219.429 275.273C214.061 296.126 197.498 309.567 177.204 309.567C167 309.567 157.1 305.842 149.333 299.16M260.627 363.178C254.535 363.178 248.671 361.872 243.074 359.337C229.519 353.154 220.229 340.558 218.249 325.619C216.193 310.412 222.285 295.703 234.85 285.181C263.407 261.371 275.591 251.079 301.253 229.343C301.977 262.062 302.51 279.766 303.652 316.556C304.185 333.223 297.294 343.976 291.506 350.044C283.434 358.416 272.24 363.178 260.665 363.178M391.035 373.086C382.963 384.299 370.018 391.02 356.349 391.02C354.369 391.02 352.389 390.866 350.409 390.597C335.674 388.524 323.223 379.115 317.169 365.328C310.963 351.311 312.638 335.489 321.776 321.817C341.613 292.132 350.485 278.652 367.505 252.846C367.847 252.346 368.228 251.809 368.609 251.31C369.028 250.695 369.447 250.081 369.865 249.466C379.689 280.496 385.172 297.355 396.594 332.263C401.392 346.933 399.45 361.411 391.073 373.086M494.639 364.406C488.699 378.193 476.362 387.794 461.665 390.021C459.571 390.328 457.439 390.482 455.307 390.482C441.752 390.482 428.768 383.838 420.734 372.74C412.396 361.257 410.34 346.818 414.947 332.186C426.141 296.548 430.862 281.264 440.8 248.929C458.962 276.079 468.938 290.634 489.613 320.934C498.865 334.452 500.693 350.351 494.639 364.406ZM592.987 323.776C591.16 338.715 582.022 351.426 568.505 357.686C562.794 360.374 556.778 361.718 550.533 361.718C539.073 361.718 527.84 356.956 519.883 348.738C514.019 342.709 507.165 332.109 507.508 315.558C508.308 278.192 508.536 262.178 509.031 228.344C534.047 249.159 547.678 260.296 576.044 283.491C588.685 293.822 594.891 308.53 593.025 323.776M661.714 296.471C653.908 303.384 643.894 307.186 633.5 307.186C613.434 307.186 596.909 293.898 591.388 273.314C581.679 237.254 577.453 221.854 568.467 189.25C598.242 202.115 614.5 208.951 648.159 223.122C663.198 229.458 673.288 241.786 675.725 256.916C678.162 271.778 672.908 286.525 661.714 296.433M734.247 211.102C726.328 223.659 712.811 231.148 697.999 231.148C683.188 231.148 668.91 223.045 660.343 208.913C640.924 177.038 632.51 163.405 614.805 134.756C646.94 138.635 664.379 140.594 700.589 144.549H700.741C716.961 146.392 730.021 155.302 736.646 169.165C743.119 182.722 742.243 198.39 734.247 211.102ZM779.862 108.565C774.607 126.999 757.702 139.864 738.702 139.864C729.221 139.864 720.121 136.676 712.049 130.57C710.298 129.073 707.937 127.037 705.158 124.618C681.817 103.381 669.9 92.6281 649.339 74.1947C648.197 73.0426 647.016 71.9289 645.95 70.8536C645.341 70.2775 644.77 69.7399 644.199 69.2023C675.916 63.8259 693.202 60.6768 728.955 54.3019H729.069C732.153 53.7258 735.199 53.457 738.131 53.457C752.028 53.457 764.708 59.7167 772.818 70.5848C781.042 81.5296 783.555 95.3931 779.862 108.527" fill="#82C83C"/>
</svg>
