<svg width="24" height="24" viewBox="0 0 24 24" fill="none" xmlns="http://www.w3.org/2000/svg">
<path d="M11.9996 2.40015C6.25561 2.40015 1.59961 6.34015 1.59961 11.2001C1.59961 13.8945 3.03427 16.3029 5.28867 17.9173C5.34623 19.1461 5.15583 20.8429 3.46055 21.6251L3.45742 21.6267C3.38168 21.6555 3.31647 21.7066 3.27043 21.7733C3.2244 21.84 3.1997 21.9191 3.19961 22.0001C3.19961 22.1062 3.24175 22.208 3.31677 22.283C3.39178 22.358 3.49352 22.4001 3.59961 22.4001C3.60916 22.4001 3.6182 22.3986 3.62773 22.3986C3.62982 22.3986 3.6319 22.3986 3.63398 22.3986C5.5812 22.3861 7.23423 21.3338 8.37461 20.222C8.73621 19.8692 9.24031 19.6956 9.73711 19.7892C10.4651 19.9276 11.222 20.0001 11.9996 20.0001C17.7436 20.0001 22.3996 16.0601 22.3996 11.2001C22.3996 6.34015 17.7436 2.40015 11.9996 2.40015ZM11.9996 6.58765C12.1606 6.58765 12.322 6.67905 12.384 6.86265L13.3105 9.60483L16.2043 9.63921C16.5923 9.64321 16.753 10.1369 16.4418 10.3689L14.1199 12.097L14.9824 14.8595C15.0984 15.2299 14.6773 15.5359 14.3605 15.3111L11.9996 13.6376L9.63867 15.3111C9.32187 15.5359 8.9016 15.2299 9.0168 14.8595L9.8793 12.097L7.55742 10.3689C7.24622 10.1377 7.40692 9.64401 7.79492 9.63921L10.6887 9.60483L11.6152 6.86265C11.6772 6.67905 11.8386 6.58765 11.9996 6.58765Z" fill="#82C83C"/>
</svg>
