<svg width="88" height="24" viewBox="0 0 88 24" fill="none" xmlns="http://www.w3.org/2000/svg">
<g opacity="0.2">
<path d="M6.30641 6.97361L7.45641 10.3784L11.0496 10.42C11.3588 10.4236 11.4868 10.8176 11.2388 11.002L8.35601 13.1476L9.42681 16.578C9.51881 16.8732 9.18401 17.1164 8.93161 16.9376L6.00041 14.8588L3.06881 16.9372C2.81681 17.116 2.48161 16.8724 2.57361 16.5776L3.64441 13.1472L0.761615 11.0016C0.513615 10.8172 0.641615 10.4232 0.950815 10.4196L4.54401 10.378L5.69401 6.97321C5.79321 6.68041 6.20761 6.68041 6.30641 6.97361Z" fill="#82C83C"/>
</g>
<g opacity="0.4">
<path d="M20.3568 6.136L21.6985 10.1083L25.8906 10.1568C26.2513 10.161 26.4006 10.6207 26.1113 10.8358L22.748 13.339L23.9973 17.3411C24.1046 17.6855 23.714 17.9693 23.4196 17.7607L19.9998 15.3354L16.5796 17.7602C16.2856 17.9688 15.8946 17.6846 16.0019 17.3407L17.2512 13.3385L13.8879 10.8353C13.5986 10.6202 13.7479 10.1605 14.1086 10.1563L18.3007 10.1078L19.6424 6.13554C19.7581 5.79394 20.2416 5.79394 20.3568 6.136Z" fill="#82C83C"/>
</g>
<g opacity="0.6">
<path d="M36.4082 5.29815L37.9416 9.83788L42.7325 9.89335C43.1448 9.89815 43.3154 10.4235 42.9848 10.6693L39.141 13.5301L40.5688 18.104C40.6914 18.4976 40.245 18.8219 39.9085 18.5835L36.0002 15.8117L32.0914 18.5829C31.7554 18.8213 31.3085 18.4965 31.4312 18.1035L32.8589 13.5296L29.0152 10.6688C28.6845 10.4229 28.8552 9.89762 29.2674 9.89282L34.0584 9.83735L35.5917 5.29762C35.724 4.90722 36.2765 4.90722 36.4082 5.29815Z" fill="#82C83C"/>
</g>
<g opacity="0.8">
<path d="M54.4586 4.4603L56.1836 9.5675L61.5734 9.6299C62.0372 9.6353 62.2292 10.2263 61.8572 10.5029L57.533 13.7213L59.1392 18.8669C59.2772 19.3097 58.775 19.6745 58.3964 19.4063L53.9996 16.2881L49.6022 19.4057C49.2242 19.6739 48.7214 19.3085 48.8594 18.8663L50.4656 13.7207L46.1414 10.5023C45.7694 10.2257 45.9614 9.6347 46.4252 9.6293L51.815 9.5669L53.54 4.4597C53.6888 4.0205 54.3104 4.0205 54.4586 4.4603Z" fill="#82C83C"/>
</g>
<path d="M76.6119 1.94722L78.9119 8.75682L86.0983 8.84002C86.7167 8.84722 86.9727 9.63522 86.4767 10.004L80.7111 14.2952L82.8527 21.156C83.0367 21.7464 82.3671 22.2328 81.8623 21.8752L75.9999 17.7176L70.1367 21.8744C69.6327 22.232 68.9623 21.7448 69.1463 21.1552L71.2879 14.2944L65.5223 10.0032C65.0263 9.63442 65.2823 8.84642 65.9007 8.83922L73.0871 8.75602L75.3871 1.94642C75.5855 1.36082 76.4143 1.36082 76.6119 1.94722Z" fill="#82C83C"/>
</svg>
