<svg width="24" height="24" viewBox="0 0 24 24" fill="none" xmlns="http://www.w3.org/2000/svg">
<path d="M10.3984 2.40002C5.98937 2.40002 2.39844 5.99096 2.39844 10.4C2.39844 14.8091 5.98937 18.4 10.3984 18.4C12.3158 18.4 14.0764 17.7192 15.4563 16.5891L20.2328 21.3657C20.3065 21.4424 20.3948 21.5037 20.4925 21.546C20.5902 21.5882 20.6954 21.6105 20.8018 21.6116C20.9082 21.6127 21.0138 21.5925 21.1124 21.5523C21.2109 21.512 21.3004 21.4525 21.3757 21.3773C21.451 21.302 21.5104 21.2125 21.5507 21.114C21.5909 21.0154 21.6111 20.9098 21.61 20.8034C21.6089 20.697 21.5866 20.5918 21.5444 20.4941C21.5021 20.3964 21.4408 20.3081 21.3641 20.2344L16.5875 15.4578C17.7176 14.078 18.3984 12.3173 18.3984 10.4C18.3984 5.99096 14.8075 2.40002 10.3984 2.40002ZM10.3984 4.00002C13.943 4.00002 16.7984 6.85549 16.7984 10.4C16.7984 13.9446 13.943 16.8 10.3984 16.8C6.8539 16.8 3.99844 13.9446 3.99844 10.4C3.99844 6.85549 6.8539 4.00002 10.3984 4.00002Z" fill="#82C83C"/>
</svg>
