<svg width="24" height="24" viewBox="0 0 24 24" fill="none" xmlns="http://www.w3.org/2000/svg">
<path d="M10.4004 2.40002C5.99132 2.40002 2.40039 5.99096 2.40039 10.4C2.40039 14.8091 5.99132 18.4 10.4004 18.4C12.3177 18.4 14.0783 17.7192 15.4582 16.5891L20.2348 21.3657C20.3085 21.4424 20.3968 21.5037 20.4945 21.546C20.5922 21.5882 20.6973 21.6105 20.8038 21.6116C20.9102 21.6127 21.0158 21.5925 21.1143 21.5523C21.2129 21.512 21.3024 21.4525 21.3776 21.3773C21.4529 21.302 21.5124 21.2125 21.5526 21.114C21.5929 21.0154 21.613 20.9098 21.6119 20.8034C21.6109 20.697 21.5886 20.5918 21.5463 20.4941C21.5041 20.3964 21.4428 20.3081 21.366 20.2344L16.5895 15.4578C17.7195 14.078 18.4004 12.3173 18.4004 10.4C18.4004 5.99096 14.8095 2.40002 10.4004 2.40002ZM10.4004 4.00002C13.9449 4.00002 16.8004 6.85549 16.8004 10.4C16.8004 13.9446 13.9449 16.8 10.4004 16.8C6.85586 16.8 4.00039 13.9446 4.00039 10.4C4.00039 6.85549 6.85586 4.00002 10.4004 4.00002Z" fill="white"/>
</svg>
