<svg width="60" height="60" viewBox="0 0 60 60" fill="none" xmlns="http://www.w3.org/2000/svg">
<path d="M30.0004 2.40002C14.7715 2.40002 2.40039 14.7712 2.40039 30C2.40039 45.2289 14.7715 57.6 30.0004 57.6C45.2292 57.6 57.6004 45.2289 57.6004 30C57.6004 14.7712 45.2292 2.40002 30.0004 2.40002ZM30.0004 4.80002C43.9322 4.80002 55.2004 16.0682 55.2004 30C55.2004 43.9318 43.9322 55.2 30.0004 55.2C16.0686 55.2 4.80039 43.9318 4.80039 30C4.80039 16.0682 16.0686 4.80002 30.0004 4.80002ZM30.0004 16.8C26.0004 16.8 23.6701 18.9771 22.627 21.0633C21.5838 23.1495 21.6004 25.2 21.6004 25.2V34.8C21.6004 39.425 25.3754 43.2 30.0004 43.2C34.6254 43.2 38.4004 39.425 38.4004 34.8C38.4004 30.175 34.6254 26.4 30.0004 26.4C27.6529 26.4 25.5275 27.3757 24.0004 28.9383V25.2C24.0004 25.2 24.0169 23.6505 24.7738 22.1367C25.5307 20.623 26.8004 19.2 30.0004 19.2C33.2004 19.2 34.4701 20.623 35.227 22.1367C35.9838 23.6505 36.0004 25.2 36.0004 25.2H38.4004C38.4004 25.2 38.4169 23.1495 37.3738 21.0633C36.3307 18.9771 34.0004 16.8 30.0004 16.8ZM30.0004 28.8C33.3283 28.8 36.0004 31.4721 36.0004 34.8C36.0004 38.1279 33.3283 40.8 30.0004 40.8C26.6725 40.8 24.0004 38.1279 24.0004 34.8C24.0004 31.4721 26.6725 28.8 30.0004 28.8Z" fill="#82C83C"/>
</svg>
