<svg width="60" height="60" viewBox="0 0 60 60" fill="none" xmlns="http://www.w3.org/2000/svg">
<g clip-path="url(#clip0_947_8005)">
<path d="M53.499 60C50.994 60 48.9066 57.9701 48.9066 55.403V24.8358H47.6541C47.2962 24.8358 46.998 24.5373 46.998 24.1791C46.998 23.8209 47.2962 23.5224 47.6541 23.5224H48.9662L49.8608 13.0746L49.6223 13.0149C48.6084 12.597 47.9523 11.6418 47.9523 10.5672V2.62687C47.9523 1.19403 49.1451 0 50.5765 0H56.4215C57.8529 0 59.0457 1.19403 59.0457 2.62687V10.4478C59.0457 11.5224 58.3897 12.5373 57.3757 12.8955L57.1372 12.9552L58.0318 23.403H59.3439C59.7018 23.403 60 23.7015 60 24.0597C60 24.4179 59.7018 24.7164 59.3439 24.7164H58.0915V55.3433C58.0915 57.9701 56.004 60 53.499 60ZM50.2783 55.403C50.2783 57.194 51.7097 58.6269 53.499 58.6269C55.2883 58.6269 56.7197 57.194 56.7197 55.403V30.6866H50.2783V55.403ZM50.2783 27.3433H56.7197V24.7761H50.2783V27.3433ZM50.338 23.4627H56.66L55.8251 13.0746H51.2326L50.338 23.4627ZM53.2008 11.7015H56.4215C57.1372 11.7015 57.674 11.1045 57.674 10.4478V7.16418L53.2008 11.7015ZM49.3241 10.6866L49.3837 10.8657C49.5626 11.3433 50.0398 11.7015 50.5765 11.7015H51.2922L57.7336 5.25373V2.26866L49.3241 10.6866ZM49.2644 5.85075V8.83582L56.7197 1.37313H53.7376L49.2644 5.85075ZM50.5765 1.37313C49.8608 1.37313 49.3241 1.97015 49.3241 2.62687V3.9403L51.8887 1.37313H50.5765ZM36.9185 60C34.4135 60 32.326 57.9701 32.326 55.403V24.8358H31.0736C30.7157 24.8358 30.4175 24.5373 30.4175 24.1791C30.4175 23.8209 30.7157 23.5224 31.0736 23.5224H32.3857L33.2803 12.5373L33.161 12.4179C32.6243 11.8806 32.326 11.2239 32.326 10.5075V2.62687C32.326 1.19403 33.5189 0 34.9503 0H38.827C40.2584 0 41.4513 1.19403 41.4513 2.62687V10.4478C41.4513 11.1642 41.1531 11.8806 40.6163 12.3582L40.497 12.4776L41.3917 23.4627H42.7038C43.0616 23.4627 43.3598 23.7612 43.3598 24.1194C43.3598 24.4776 43.0616 24.7761 42.7038 24.7761H41.4513V55.403C41.4513 57.9701 39.4235 60 36.9185 60ZM33.6382 55.403C33.6382 57.194 35.0696 58.6269 36.8588 58.6269C38.6481 58.6269 40.0795 57.194 40.0795 55.403V30.6866H33.6382V55.403ZM33.6382 27.3433H40.0795V24.7761H33.6382V27.3433ZM33.6978 23.4627H40.0199L39.1849 13.0746H38.8867H38.827H34.9503H34.8907H34.5924L33.6978 23.4627ZM35.6064 11.7015H38.827C39.5427 11.7015 40.0795 11.1045 40.0795 10.4478V7.16418L35.6064 11.7015ZM33.6382 6.80597V10.4478C33.6382 10.6269 33.6978 10.806 33.8171 11.0448L33.996 11.403L40.0795 5.31343V2.68657C40.0795 2.14925 39.7813 1.67164 39.2445 1.49254L39.0656 1.43284L33.6382 6.80597ZM34.9503 1.37313C34.2346 1.37313 33.6978 1.97015 33.6978 2.62687V4.89552L37.2167 1.37313H34.9503ZM21.2922 60C18.7873 60 16.6998 57.9701 16.6998 55.403V32.6567H15.4473C15.0895 32.6567 14.7913 32.3582 14.7913 32V28.0597C14.7913 27.7015 15.0895 27.403 15.4473 27.403H18.668V15.0448H17.4155C17.2366 15.0448 16.998 14.9254 16.8787 14.806C16.7594 14.6269 16.6998 14.4478 16.7594 14.209L19.6223 0.537314C19.6819 0.238807 19.9801 0 20.2783 0H22.2465C22.5447 0 22.8429 0.238807 22.9026 0.537314L25.8251 14.209C25.8847 14.3881 25.825 14.6269 25.7058 14.806C25.5865 14.9851 25.4076 15.0448 25.169 15.0448H23.9165V27.3433H27.1372C27.495 27.3433 27.7932 27.6418 27.7932 28V31.9403C27.7932 32.2985 27.495 32.597 27.1372 32.597H25.8847V55.403C25.8847 57.9701 23.7972 60 21.2922 60ZM18.0716 55.403C18.0716 57.194 19.503 58.6269 21.2922 58.6269C23.0815 58.6269 24.5129 57.194 24.5129 55.403V38.5075H18.0716V55.403ZM18.0716 35.1642H24.5129V32.597H18.0716V35.1642ZM16.1034 31.2836H26.4811V28.7164H16.1034V31.2836ZM19.9801 27.3433H22.5447V15.0448H19.9801V27.3433ZM18.1909 13.6716H24.334L21.7097 1.37313H20.8151L18.1909 13.6716ZM5.666 60C3.16103 60 1.07356 57.9701 1.07356 55.403V31.9403C1.07356 31.5821 1.37177 31.2836 1.72962 31.2836H2.98211V26.806H0.715705C0.536779 26.806 0.357852 26.7463 0.178926 26.5672C0.0596417 26.3881 0 26.209 0 26.0298L3.87674 0.597015C3.93638 0.298507 4.23459 0 4.5328 0H6.50099C6.85885 0 7.09741 0.238806 7.15706 0.597015L11.0338 26.0298C11.0934 26.209 11.0338 26.4478 10.8549 26.5672C10.7356 26.7463 10.5567 26.806 10.3181 26.806H8.29026V31.2836H9.54274C9.9006 31.2836 10.1988 31.5821 10.1988 31.9403V55.403C10.2584 57.9701 8.17097 60 5.666 60ZM2.44533 55.403C2.44533 57.194 3.87674 58.6269 5.666 58.6269C7.45527 58.6269 8.88668 57.194 8.88668 55.403V38.5075H2.44533V55.403ZM2.44533 35.1642H8.88668V32.597H2.44533V35.1642ZM4.35388 31.2836H6.91849V26.806H4.35388V31.2836ZM5.666 20.5373C6.02386 20.5373 6.32207 20.8358 6.32207 21.194V25.4328H9.72167L6.91849 7.10448L6.32207 7.16418V17.3134C6.32207 17.6716 6.02386 17.9701 5.666 17.9701C5.30815 17.9701 5.00994 17.6716 5.00994 17.3134V7.10448L4.41352 7.04478L1.61034 25.3731H5.00994V21.1343C4.9503 20.8358 5.24851 20.5373 5.666 20.5373ZM53.499 56.1194C53.1412 56.1194 52.8429 55.8209 52.8429 55.4627C52.8429 55.1045 53.1412 54.806 53.499 54.806C53.8569 54.806 54.1551 55.1045 54.1551 55.4627C54.1551 55.7612 53.8569 56.1194 53.499 56.1194ZM36.9185 56.1194C36.5606 56.1194 36.2624 55.8209 36.2624 55.4627C36.2624 55.1045 36.5606 54.806 36.9185 54.806C37.2763 54.806 37.5746 55.1045 37.5746 55.4627C37.5746 55.7612 37.2763 56.1194 36.9185 56.1194ZM21.2922 56.1194C20.9344 56.1194 20.6362 55.8209 20.6362 55.4627C20.6362 55.1045 20.9344 54.806 21.2922 54.806C21.6501 54.806 21.9483 55.1045 21.9483 55.4627C21.9483 55.7612 21.6501 56.1194 21.2922 56.1194ZM5.666 56.1194C5.30815 56.1194 5.00994 55.8209 5.00994 55.4627C5.00994 55.1045 5.30815 54.806 5.666 54.806C6.02386 54.806 6.32207 55.1045 6.32207 55.4627C6.32207 55.7612 6.02386 56.1194 5.666 56.1194Z" fill="white"/>
</g>
<defs>
<clipPath id="clip0_947_8005">
<rect width="60" height="60" fill="white"/>
</clipPath>
</defs>
</svg>
