<svg width="60" height="60" viewBox="0 0 60 60" fill="none" xmlns="http://www.w3.org/2000/svg">
<path d="M30.0004 2.40002C14.7715 2.40002 2.40039 14.7712 2.40039 30C2.40039 45.2289 14.7715 57.6 30.0004 57.6C45.2292 57.6 57.6004 45.2289 57.6004 30C57.6004 14.7712 45.2292 2.40002 30.0004 2.40002ZM30.0004 4.80002C43.9322 4.80002 55.2004 16.0682 55.2004 30C55.2004 43.9318 43.9322 55.2 30.0004 55.2C16.0686 55.2 4.80039 43.9318 4.80039 30C4.80039 16.0682 16.0686 4.80002 30.0004 4.80002ZM30.0004 16.8C26.103 16.8 22.8004 19.6971 22.8004 23.4C22.8004 25.5981 23.969 27.5065 25.7301 28.6992C23.2777 30.0516 21.6004 32.5244 21.6004 35.4C21.6004 39.7526 25.4295 43.2 30.0004 43.2C34.5713 43.2 38.4004 39.7526 38.4004 35.4C38.4004 32.5244 36.7231 30.0516 34.2707 28.6992C36.0317 27.5065 37.2004 25.5981 37.2004 23.4C37.2004 19.6971 33.8978 16.8 30.0004 16.8ZM30.0004 19.2C32.7304 19.2 34.8004 21.1383 34.8004 23.4C34.8004 25.6618 32.7304 27.6 30.0004 27.6C27.2704 27.6 25.2004 25.6618 25.2004 23.4C25.2004 21.1383 27.2704 19.2 30.0004 19.2ZM30.0004 30C33.3824 30 36.0004 32.4624 36.0004 35.4C36.0004 38.3376 33.3824 40.8 30.0004 40.8C26.6184 40.8 24.0004 38.3376 24.0004 35.4C24.0004 32.4624 26.6184 30 30.0004 30Z" fill="#82C83C"/>
</svg>
