<svg width="60" height="60" viewBox="0 0 60 60" fill="none" xmlns="http://www.w3.org/2000/svg">
<path d="M23.3516 2.39761C23.2762 2.396 23.2009 2.4015 23.1266 2.41402C17.6334 2.49051 13.0549 4.23994 9.85625 7.31246C6.58516 10.4546 4.80078 14.9326 4.80078 20.1C4.80078 21.1385 4.91033 22.1124 5.09141 23.032L5.28359 24H22.8008V51.6C22.8007 51.78 22.8411 51.9577 22.919 52.12C22.9969 52.2823 23.1103 52.4249 23.2508 52.5375L29.2508 57.3375C29.4636 57.5078 29.7281 57.6007 30.0008 57.6007C30.2734 57.6007 30.5379 57.5078 30.7508 57.3375L36.7508 52.5375C36.8913 52.4249 37.0047 52.2823 37.0826 52.12C37.1605 51.9577 37.2009 51.78 37.2008 51.6V24H54.718L54.9078 23.032C55.0885 22.1145 55.1979 21.1427 55.1984 20.107C55.2544 14.9397 53.4987 10.4579 50.2414 7.3148C46.9826 4.17026 42.2748 2.39996 36.6148 2.39996C34.156 2.39996 31.9849 2.73116 30.0547 3.36089C28.1245 2.73116 25.9534 2.39996 23.4945 2.39996C23.4801 2.39996 23.4667 2.40228 23.4523 2.4023C23.4188 2.39932 23.3852 2.39776 23.3516 2.39761ZM36.6148 4.79996C41.7789 4.79996 45.8203 6.38408 48.575 9.04214C51.3297 11.7002 52.8523 15.4666 52.8008 20.0859L52.7984 20.0929V20.1C52.7984 20.6284 52.7097 21.1067 52.6484 21.6H7.35078C7.28955 21.1067 7.20078 20.6284 7.20078 20.1C7.20078 15.4777 8.7506 11.705 11.5203 9.04449C14.2655 6.40757 18.2624 4.83243 23.3609 4.80464C27.6164 5.12641 31.3308 7.05525 33.957 10.1039C34.0588 10.2267 34.184 10.3281 34.3254 10.402C34.4668 10.4759 34.6215 10.5209 34.7804 10.5344C34.9394 10.5478 35.0995 10.5294 35.2512 10.4802C35.403 10.431 35.5435 10.3521 35.6644 10.248C35.7853 10.144 35.8842 10.0168 35.9554 9.87403C36.0266 9.73126 36.0686 9.57572 36.079 9.41652C36.0894 9.25732 36.0679 9.09765 36.0158 8.94684C35.9638 8.79604 35.8822 8.65713 35.7758 8.53824C34.6867 7.27398 33.4239 6.18275 32.0352 5.27574C33.3857 4.96744 34.905 4.79996 36.6148 4.79996ZM25.2008 24H34.8008V30.3093L25.2008 33.1875V24ZM34.8008 32.8125V41.1093L25.2008 43.9875V35.6906L34.8008 32.8125ZM34.8008 43.6125V51.0234L30.0008 54.8625L25.2008 51.0234V46.4906L34.8008 43.6125Z" fill="#82C83C"/>
</svg>
