<svg width="60" height="60" viewBox="0 0 60 60" fill="none" xmlns="http://www.w3.org/2000/svg">
<path d="M16.1832 3.59998C9.24681 3.59998 3.59961 9.24717 3.59961 16.1836V40.8C3.59964 41.1182 3.72608 41.4234 3.95112 41.6485C4.17615 41.8735 4.48136 41.9999 4.79961 42H15.5996V48.1594C14.4746 48.4567 13.4958 49.1525 12.8455 50.1175C12.1952 51.0825 11.9175 52.2509 12.0643 53.4053C12.211 54.5597 12.7721 55.6215 13.6432 56.3931C14.5142 57.1647 15.636 57.5936 16.7996 57.6C17.9664 57.5979 19.0924 57.1708 19.9672 56.3988C20.842 55.6267 21.4056 54.5624 21.5526 53.4049C21.6997 52.2475 21.4201 51.0761 20.7662 50.1098C20.1123 49.1435 19.1288 48.4485 17.9996 48.1547V42H28.7996C29.1179 41.9999 29.4231 41.8735 29.6481 41.6485C29.8731 41.4234 29.9996 41.1182 29.9996 40.8V33.6H56.3996V31.2H29.9996V21.6H56.3996V19.2H29.9996V16.1836C29.9996 9.24717 24.3524 3.59998 17.416 3.59998H16.1832ZM16.1832 5.99998H17.416C23.0556 5.99998 27.5996 10.544 27.5996 16.1836V39.6H5.99961V16.1836C5.99961 10.544 10.5436 5.99998 16.1832 5.99998Z" fill="#82C83C"/>
</svg>
