<svg width="60" height="60" viewBox="0 0 60 60" fill="none" xmlns="http://www.w3.org/2000/svg">
<path d="M23.3516 2.39761C23.2762 2.396 23.2009 2.4015 23.1266 2.41402C17.6334 2.49051 13.0549 4.23994 9.85625 7.31246C6.58516 10.4546 4.80078 14.9326 4.80078 20.1C4.80078 23.9121 6.21145 26.8823 7.76797 29.6648C9.32448 32.4473 11.0215 35.0883 11.9492 38.4585V38.4515C13.0211 42.4403 13.7809 47.0054 14.9586 50.6882C15.5475 52.5296 16.2322 54.1622 17.2203 55.4296C18.2084 56.6971 19.6293 57.6 21.3078 57.6C22.9482 57.6 24.4572 56.9824 25.4445 55.7906C26.4319 54.5987 26.8813 52.9561 26.8813 51.0093C26.8813 46.2262 27.8481 39.8895 28.8266 34.4179C28.992 33.6319 29.4917 33.3984 30.0406 33.3984C30.5911 33.3984 31.0387 33.5964 31.168 34.3757L31.1703 34.3851V34.3945C32.1491 39.7565 33.1203 46.2184 33.1203 51.0093C33.1203 52.9556 33.5698 54.5987 34.557 55.7906C35.5442 56.9825 37.0532 57.6 38.6938 57.6C40.3765 57.6 41.797 56.6866 42.7836 55.4109C43.7702 54.1352 44.4544 52.4936 45.043 50.646C46.2196 46.9523 46.9825 42.3872 48.0523 38.4585C48.9801 35.0882 50.6771 32.4474 52.2336 29.6648C53.7894 26.8834 55.1995 23.9138 55.2008 20.1046C55.2555 14.9384 53.4983 10.4574 50.2414 7.3148C46.9824 4.17029 42.2748 2.39996 36.6148 2.39996C34.156 2.39996 31.9849 2.73116 30.0547 3.36089C28.1245 2.73116 25.9534 2.39996 23.4945 2.39996C23.4801 2.39996 23.4667 2.40228 23.4523 2.4023C23.4188 2.39932 23.3852 2.39776 23.3516 2.39761ZM36.6148 4.79996C41.7789 4.79996 45.8202 6.38405 48.575 9.04214C51.3298 11.7002 52.8517 15.4666 52.8008 20.0859V20.0929V20.1C52.8008 21.0596 52.6889 21.9479 52.5055 22.8H39.6008V19.2C39.6007 18.8817 39.4743 18.5765 39.2493 18.3515C39.0242 18.1264 38.719 18 38.4008 18H21.6008C21.2825 18 20.9773 18.1264 20.7523 18.3515C20.5273 18.5765 20.4008 18.8817 20.4008 19.2V22.8H7.49609C7.31271 21.9479 7.20078 21.0598 7.20078 20.1C7.20078 15.4777 8.7506 11.705 11.5203 9.04449C14.2655 6.40757 18.2624 4.83243 23.3609 4.80464C27.6164 5.12641 31.3308 7.05525 33.957 10.1039C34.0588 10.2267 34.184 10.3281 34.3254 10.402C34.4668 10.4759 34.6215 10.5209 34.7804 10.5344C34.9394 10.5478 35.0995 10.5294 35.2512 10.4802C35.403 10.431 35.5435 10.3521 35.6644 10.248C35.7853 10.144 35.8842 10.0168 35.9554 9.87403C36.0266 9.73126 36.0686 9.57572 36.079 9.41652C36.0894 9.25732 36.0679 9.09765 36.0158 8.94684C35.9638 8.79604 35.8822 8.65713 35.7758 8.53824C34.6867 7.27398 33.4239 6.18275 32.0352 5.27574C33.3857 4.96744 34.905 4.79996 36.6148 4.79996ZM22.8008 20.4H37.2008V24C37.2008 24.3182 37.3273 24.6234 37.5523 24.8484C37.7773 25.0735 38.0825 25.1999 38.4008 25.2H51.7625C51.3165 26.3061 50.7599 27.3817 50.1383 28.4929C48.6336 31.1829 46.777 34.0417 45.7367 37.821V37.8234C44.6196 41.9241 43.8496 46.4897 42.7578 49.9171C42.2119 51.6309 41.5761 53.048 40.8852 53.9414C40.1942 54.8346 39.5802 55.2 38.6938 55.2C37.6007 55.2 36.9226 54.8835 36.4063 54.2601C35.8899 53.6367 35.5203 52.5827 35.5203 51.0093C35.5203 45.9058 34.5233 39.3973 33.5352 33.982C33.2265 32.1214 31.5947 30.9984 30.0406 30.9984C28.4866 30.9984 26.859 32.0865 26.4758 33.9351L26.4711 33.9515L26.4688 33.9679C25.4808 39.4894 24.4813 45.9003 24.4813 51.0093C24.4813 52.5834 24.1116 53.6369 23.5953 54.2601C23.0791 54.8833 22.401 55.2 21.3078 55.2C20.4171 55.2 19.8012 54.8375 19.1117 53.9531C18.4222 53.0687 17.7893 51.6631 17.2438 49.957C16.1526 46.5448 15.3829 41.9801 14.2672 37.8281L14.2648 37.8257V37.821C13.2246 34.0418 11.368 31.1827 9.86328 28.4929C9.24171 27.3818 8.68509 26.306 8.23906 25.2H21.6008C21.919 25.1999 22.2242 25.0735 22.4493 24.8484C22.6743 24.6234 22.8008 24.3182 22.8008 24V20.4Z" fill="#82C83C"/>
</svg>
