<svg width="60" height="60" viewBox="0 0 60 60" fill="none" xmlns="http://www.w3.org/2000/svg">
<path d="M57.2617 33.7747C57.8382 33.5636 58.3622 33.2336 58.7945 32.7849C59.5805 31.993 60.0128 30.9371 59.9997 29.8152C59.9997 27.9806 58.8076 26.4364 57.17 25.8821C57.5106 25.6313 57.812 25.3278 58.074 24.9846C58.86 23.9287 59.0958 22.5429 58.7159 21.2758C58.2181 19.5996 56.6984 18.4118 54.9823 18.3062C55.1526 18.0818 55.2967 17.8311 55.4146 17.5671C56.0303 16.2473 55.9255 14.7294 55.1395 13.5152C54.3666 12.3273 53.0696 11.6146 51.6548 11.6146C51.3273 11.6146 50.9998 11.6542 50.6984 11.7334C50.8032 11.4562 50.8819 11.1659 50.9212 10.8623C51.1439 9.42367 50.6198 7.99824 49.5194 7.06115C48.7727 6.41443 47.8164 6.05807 46.8207 6.05807C46.074 6.05807 45.3666 6.25605 44.7509 6.61241C44.7771 6.30884 44.7771 6.00528 44.7247 5.70172C44.5282 4.26309 43.6373 3.03564 42.3142 2.44171C41.7771 2.19094 41.2007 2.07215 40.6112 2.07215C39.4845 2.07215 38.4103 2.5341 37.6243 3.3392C37.6112 3.3524 37.5981 3.37879 37.585 3.39199C37.5195 3.08843 37.4278 2.78487 37.2968 2.4813C36.7072 1.14826 35.502 0.237571 34.0741 0.0395952C33.8907 0.0131984 33.6942 0 33.4977 0C32.1745 0 30.9169 0.646722 30.144 1.72899C30.0261 1.90057 29.9082 2.08535 29.8165 2.27013C29.7247 2.08535 29.6199 1.91377 29.502 1.75539C28.7291 0.686318 27.4715 0.0395952 26.1483 0.0395952C25.9387 0.0395952 25.7422 0.0527937 25.5326 0.0791905C24.1047 0.290365 22.9126 1.21425 22.3361 2.54729C22.2051 2.83766 22.1134 3.14122 22.061 3.44479C22.061 3.44479 22.0479 3.43159 22.0348 3.41839C21.2619 2.61329 20.1746 2.16454 19.061 2.16454C18.4584 2.16454 17.8689 2.29652 17.3187 2.56049C16.0087 3.16762 15.1309 4.39507 14.9475 5.8469C14.9082 6.15046 14.9082 6.45403 14.9475 6.75759C14.3449 6.41443 13.6506 6.22965 12.9039 6.22965C11.8951 6.22965 10.9257 6.59921 10.1659 7.25913C9.07856 8.20941 8.56764 9.64804 8.80345 11.0867C8.85585 11.4034 8.93445 11.6938 9.05236 11.9842C8.75105 11.9182 8.42354 11.8786 8.10913 11.8786C6.68119 11.8786 5.37115 12.6045 4.59823 13.8187C3.82531 15.0462 3.73361 16.564 4.36242 17.8707C4.49343 18.161 4.66373 18.4118 4.84714 18.6494C3.10479 18.7418 1.57204 19.956 1.08733 21.6718C0.720521 22.952 0.969428 24.2851 1.76855 25.341C2.03056 25.6841 2.33187 25.9877 2.67248 26.2253C2.09606 26.4364 1.57204 26.7664 1.13973 27.2151C0.419212 28.0334 0 29.0893 0 30.198C0 32.0194 1.19213 33.5768 2.82968 34.1311C2.48907 34.3819 2.18776 34.6854 1.92576 35.0286C1.13973 36.0845 0.903926 37.4703 1.28384 38.7242C1.78165 40.4004 3.30129 41.5882 5.01744 41.6938C4.84714 41.9182 4.70303 42.1689 4.58513 42.4329C3.96941 43.7528 4.07422 45.2706 4.86024 46.4848C5.63316 47.6727 6.9301 48.3854 8.34494 48.3854C8.67245 48.3854 8.99996 48.3458 9.30126 48.2666C9.19646 48.5438 9.11786 48.8341 9.07856 49.1245C8.85585 50.5631 9.37987 51.9886 10.4803 52.9388C11.227 53.5856 12.1833 53.9419 13.179 53.9419C13.9257 53.9419 14.6331 53.744 15.2488 53.3876C15.2226 53.6912 15.2226 53.9947 15.275 54.2983C15.4715 55.7369 16.3624 56.9644 17.6855 57.5583C18.2226 57.8091 18.799 57.9278 19.3886 57.9278C20.5152 57.9278 21.5894 57.4659 22.3754 56.6608C22.3885 56.6476 22.4016 56.6212 22.4147 56.608C22.4802 56.9116 22.5719 57.2151 22.7029 57.5187C23.2925 58.8517 24.4977 59.7624 25.9256 59.9604C26.109 59.9868 26.3055 60 26.5021 60C27.8252 60 29.0828 59.3533 29.8558 58.271C29.9737 58.0994 30.0916 57.9147 30.1833 57.7299C30.275 57.9147 30.3798 58.0862 30.4977 58.2446C31.2706 59.3137 32.5282 59.9604 33.8514 59.9604C34.061 59.9604 34.2575 59.9472 34.4671 59.9208C35.895 59.7096 37.0872 58.7857 37.6636 57.4527C37.7946 57.1623 37.8863 56.8588 37.9387 56.5552C37.9387 56.5552 37.9518 56.5816 37.9649 56.5816C38.7378 57.3867 39.8251 57.8355 40.9387 57.8355C41.5413 57.8355 42.1308 57.7035 42.681 57.4527C43.9911 56.8456 44.8688 55.6181 45.0522 54.1663C45.0915 53.8627 45.0915 53.5592 45.0522 53.2556C45.6548 53.5988 46.3491 53.7835 47.0958 53.7835C48.1046 53.7835 49.074 53.414 49.8338 52.7541C50.9212 51.7906 51.4321 50.3652 51.1963 48.9265C51.1439 48.6098 51.0653 48.3062 50.9474 48.029C51.2487 48.1082 51.5762 48.1478 51.8906 48.1478C53.3185 48.1478 54.6286 47.4219 55.4015 46.2077C56.1744 44.9802 56.2661 43.4624 55.6373 42.1557C55.5063 41.8654 55.336 41.6146 55.1526 41.377C56.8949 41.2714 58.4277 40.0572 58.9124 38.3546C59.2792 37.0876 59.0303 35.7413 58.2312 34.6854C57.9692 34.3423 57.6678 34.0387 57.3272 33.8011M33.288 12.1557C33.3667 12.037 33.4453 11.9314 33.5108 11.8126C34.4278 10.5323 35.6854 8.60537 36.4976 7.31192C36.5369 8.79014 36.6024 10.9943 36.6548 12.5517C36.6548 12.6573 36.6548 12.7761 36.6548 12.8949C36.6548 13.7396 36.4059 14.4391 35.9605 14.9142C35.6199 15.2706 35.1745 15.4685 34.716 15.4685C34.5457 15.4685 34.3754 15.4421 34.2051 15.3894C33.6025 15.2046 33.1308 14.7558 32.9474 14.1751C32.7509 13.568 32.8688 12.8685 33.2749 12.1821L33.288 12.1557ZM50.9605 20.3256C50.0958 21.1307 48.9692 22.1733 48.0129 23.0708C47.6985 23.3612 47.3579 23.678 46.9779 24.0211C46.4146 24.4699 45.8251 24.7074 45.2487 24.7074C44.5282 24.7074 43.9256 24.3115 43.6373 23.6648C43.3753 23.084 43.4146 22.4241 43.7159 21.9094C44.0828 21.2758 44.8295 20.8799 45.812 20.7875C47.371 20.6555 49.6635 20.3388 51.1832 20.1144C51.1046 20.1804 51.0391 20.2596 50.9605 20.3256ZM28.6636 45.7457C28.9911 45.2838 29.502 45.0198 30.0654 45.0198H30.0916C30.7204 45.0198 31.2968 45.3234 31.6374 45.8249C32.0566 46.432 32.109 47.2767 31.7684 48.2138C31.2444 49.692 30.5763 51.9358 30.144 53.414C29.6723 51.9622 28.978 49.7844 28.4802 48.293C28.1396 47.2899 28.2051 46.3792 28.6636 45.7457ZM33.6942 48.1346C33.0915 47.2503 32.895 46.366 33.157 45.6269C33.3535 45.0858 33.7728 44.703 34.323 44.5447C34.5064 44.4919 34.6898 44.4655 34.8601 44.4655C35.3841 44.4655 35.8688 44.6766 36.2094 45.0462C36.6548 45.5213 36.8645 46.2472 36.812 47.1315C36.7203 48.7154 36.7072 51.0383 36.7072 52.5825C35.8557 51.3154 34.5719 49.4281 33.6811 48.1346M44.9081 40.6775C45.681 42.0502 46.9124 44.0167 47.7509 45.3234C46.3622 44.7294 44.2531 43.8319 42.8251 43.238C41.8426 42.8289 41.2007 42.1821 41.0304 41.4166C40.8994 40.8623 41.0435 40.308 41.4234 39.8724C41.7902 39.4501 42.3142 39.2125 42.8513 39.2125C43.6635 39.2125 44.3972 39.7404 44.9212 40.6775M41.2531 44.3731C41.6068 45.9173 42.2356 48.1478 42.6679 49.6392C41.502 48.6758 39.7465 47.2107 38.5282 46.2341C37.7029 45.5609 37.2706 44.7558 37.323 43.9771C37.3623 43.4096 37.6505 42.9081 38.1352 42.6045C38.4496 42.4065 38.8033 42.3009 39.1701 42.3009C40.1788 42.3009 40.9649 43.0796 41.2531 44.3863M42.9299 38.249C42.9299 38.249 42.8644 38.249 42.8382 38.249C42.026 38.249 41.24 38.6054 40.6898 39.2389C40.1395 39.8592 39.9168 40.6643 40.0478 41.4694C39.7465 41.3638 39.4583 41.3242 39.1701 41.3242C38.633 41.3242 38.0959 41.4826 37.6243 41.773C36.8776 42.2481 36.419 43.0268 36.3535 43.9111C35.9081 43.6472 35.3972 43.502 34.8601 43.502C34.5981 43.502 34.323 43.5416 34.061 43.6076C33.2618 43.8319 32.633 44.3863 32.3186 45.1386C31.7815 44.4655 30.9693 44.0695 30.0916 44.0563H30.0523C29.2007 44.0563 28.4278 44.4391 27.9169 45.1254C27.5763 44.4127 26.9475 43.8583 26.1614 43.6208C25.8994 43.5416 25.6243 43.502 25.3492 43.502C24.8121 43.502 24.2881 43.6736 23.8427 43.9771C23.7641 43.1324 23.2925 42.3537 22.5719 41.8654C22.1265 41.5618 21.6025 41.4034 21.0785 41.4034C20.751 41.4034 20.4497 41.4694 20.1484 41.575C20.2663 40.7699 20.0305 39.9252 19.4803 39.2785C18.9693 38.6714 18.2357 38.3282 17.4497 38.315C17.7772 37.5891 17.7772 36.7312 17.4497 35.9657C17.0829 35.1078 16.3231 34.5271 15.4191 34.3687C15.9432 33.7484 16.179 32.9169 16.0611 32.0854C15.9432 31.2539 15.4846 30.5675 14.8165 30.1584C15.537 29.736 16.048 28.9969 16.179 28.0862C16.2969 27.2943 16.0742 26.5156 15.5632 25.9217C15.5239 25.8821 15.4846 25.8293 15.4453 25.7897C16.2052 25.5521 16.8471 25.011 17.2008 24.2455C17.5676 23.4536 17.5545 22.5825 17.1484 21.817C17.1877 21.817 17.2139 21.817 17.2532 21.817C18.0785 21.817 18.8645 21.4474 19.4148 20.8007C19.9519 20.1804 20.1746 19.3621 20.0436 18.5702C20.3056 18.6494 20.5676 18.6758 20.8165 18.6758C21.3536 18.6758 21.8907 18.5174 22.3623 18.227C23.096 17.7651 23.5545 17.0128 23.62 16.1549C24.0654 16.4452 24.6025 16.6036 25.1527 16.6036C25.4147 16.6036 25.6767 16.564 25.9256 16.498C26.7772 16.2736 27.4322 15.6665 27.7466 14.835C28.2706 15.4553 29.0566 15.8249 29.9082 15.8381H29.9475C30.8252 15.8381 31.6112 15.4289 32.1221 14.7294C32.4496 15.4817 33.1046 16.0625 33.9169 16.3132C34.1789 16.3924 34.454 16.432 34.716 16.432C35.2793 16.432 35.8033 16.2605 36.2618 15.9305C36.3535 16.7752 36.8251 17.5539 37.5457 18.029C37.9911 18.3326 38.502 18.4778 39.026 18.4778C39.3666 18.4778 39.681 18.4118 39.9954 18.293C39.8644 19.1113 40.1002 19.9692 40.6505 20.6291C41.1614 21.2363 41.9081 21.5926 42.6941 21.5926C42.7203 21.5926 42.7465 21.5926 42.7727 21.5926C42.4059 22.3449 42.3928 23.2556 42.7465 24.0475C43.1002 24.8658 43.8077 25.4201 44.6592 25.6049C44.6592 25.6049 44.6592 25.6049 44.6461 25.6181C44.109 26.2385 43.8731 27.0832 43.978 27.9278C44.0959 28.7725 44.5675 29.4589 45.2487 29.8812C44.5413 30.3036 44.0435 31.0427 43.8993 31.9402C43.7814 32.7321 43.9911 33.5108 44.5151 34.1179C44.5413 34.1575 44.5806 34.1839 44.6068 34.2235C43.8339 34.4479 43.1919 35.0022 42.8251 35.7809C42.4452 36.586 42.4714 37.4835 42.9037 38.2622M21.0785 42.3669C21.4191 42.3669 21.7466 42.4725 22.0348 42.6705C22.5588 43.0268 22.8733 43.5944 22.8995 44.2015C22.9257 44.9406 22.4933 45.6797 21.7204 46.2736C20.4759 47.2239 18.7073 48.7286 17.5414 49.7316C17.9344 48.2534 18.537 46.0493 18.93 44.5315C19.3493 42.9476 20.3187 42.3801 21.0916 42.3801M19.1658 41.6014C18.9824 42.3141 18.3798 42.9081 17.4628 43.2644C16.0087 43.8319 13.8995 44.7954 12.4978 45.4421C13.2838 44.1355 14.4497 42.1689 15.2488 40.8227C15.8253 39.846 16.6244 39.2785 17.4497 39.2785C17.9606 39.2785 18.4191 39.5029 18.7597 39.8988C19.1658 40.374 19.3231 41.0207 19.1789 41.6014M16.4672 38.1038C16.0873 38.7374 15.3405 39.1333 14.358 39.1993C12.7991 39.3181 10.5065 39.6216 8.98686 39.8328C10.1135 38.8033 11.8034 37.2723 12.9432 36.2165C13.5851 35.6225 14.2794 35.3058 14.9475 35.3058C15.6811 35.3058 16.2838 35.7017 16.572 36.3616C16.8209 36.9424 16.7816 37.6023 16.4803 38.117M13.3231 29.5777C12.8646 29.5777 12.3799 29.4457 11.8689 29.1685C10.4803 28.4426 8.37114 27.4659 6.9825 26.8324C8.47594 26.5684 10.7161 26.1593 12.2357 25.8821C13.3493 25.6709 14.3056 25.9217 14.8427 26.542C15.1702 26.9248 15.3143 27.4263 15.2357 27.9278C15.1178 28.7462 14.4759 29.5777 13.3231 29.5777ZM16.3493 23.8231C16.0218 24.5095 15.3798 24.9318 14.6462 24.9318C14.0174 24.9318 13.3624 24.6282 12.7729 24.0343C11.6462 22.9256 9.91698 21.3946 8.75105 20.3784C10.2576 20.5631 12.5109 20.8271 14.0567 20.9855C15.1178 21.1043 15.9039 21.5398 16.2838 22.2261C16.5589 22.7145 16.5851 23.2952 16.3362 23.8231M15.1964 19.3885C14.4104 18.0158 13.1528 16.0625 12.3144 14.769C13.7161 15.3498 15.8253 16.2209 17.2663 16.8016C18.2488 17.1975 18.9038 17.8443 19.0872 18.6098C19.2182 19.1641 19.0872 19.7316 18.7073 20.154C18.3405 20.5895 17.8165 20.8271 17.2663 20.8271C16.4672 20.8271 15.7335 20.3124 15.1964 19.3753M18.7335 15.6137C18.3929 14.0695 17.751 11.8258 17.3318 10.3476C18.4977 11.3242 20.2532 12.7761 21.4584 13.7659C22.2837 14.4391 22.716 15.2442 22.6636 16.0229C22.6243 16.5904 22.3361 17.0919 21.8514 17.3955C21.537 17.5935 21.1833 17.6991 20.8165 17.6991C19.8078 17.6991 19.0217 16.9204 18.7335 15.6137ZM23.2139 12.9476C23.3187 11.3638 23.358 9.04091 23.3711 7.4967C24.2095 8.76375 25.4802 10.6643 26.358 11.9578C26.9606 12.8421 27.144 13.7396 26.8689 14.4787C26.6724 15.0066 26.2532 15.4026 25.7029 15.5477C25.5326 15.6005 25.3492 15.6137 25.1789 15.6137C24.6549 15.6137 24.1702 15.4026 23.8165 15.0198C23.3711 14.5315 23.1615 13.8187 23.227 12.9344M31.5457 11.5882C31.8732 12.5913 31.8077 13.502 31.3623 14.1355C31.0348 14.5843 30.5239 14.8614 29.9606 14.8614H29.9344C29.3055 14.8614 28.7291 14.5447 28.3885 14.0563C27.9693 13.4492 27.93 12.6045 28.2575 11.6674C28.7946 10.1892 29.4627 7.95865 29.8951 6.46722C30.3536 7.91905 31.061 10.11 31.5457 11.5882ZM44.5413 19.626C44.0173 20.2728 43.3753 20.6423 42.7072 20.6423C42.1963 20.6423 41.7378 20.4179 41.3972 20.022C40.9911 19.5469 40.8339 18.9001 40.978 18.3194C41.1614 17.6067 41.764 17.0128 42.681 16.6564C44.1352 16.0889 46.2181 15.1386 47.6068 14.4919C46.4277 16.4848 45.7596 17.5935 44.5282 19.626M45.2618 33.4712C44.9343 33.0884 44.7902 32.5869 44.8688 32.0854C44.9867 31.267 45.6286 30.4355 46.7814 30.4355C47.2399 30.4355 47.7378 30.5807 48.2487 30.8447C49.6373 31.5838 51.7334 32.5473 53.1351 33.194C51.6417 33.458 49.4015 33.8539 47.8688 34.1443C46.7552 34.3555 45.7989 34.1047 45.2618 33.4844M47.8426 29.1553C47.502 29.2741 47.1613 29.3401 46.8469 29.3401C45.8382 29.3401 45.0784 28.7198 44.9605 27.8091C44.8819 27.2415 45.0391 26.6872 45.3928 26.278C45.7858 25.8293 46.3753 25.5785 47.0958 25.5785C47.3316 25.5785 47.5806 25.6049 47.8426 25.6577C49.3753 25.9613 51.6679 26.3044 53.1875 26.5024C52.5849 26.806 51.8382 27.1755 51.0784 27.5583C50.0696 28.0598 49.1395 28.5218 47.8426 29.1553ZM38.1745 13.8055C38.1745 13.8055 38.2793 13.7264 38.3186 13.6868C38.3448 13.6604 38.371 13.6472 38.3841 13.634C39.6286 12.6705 41.3972 11.1659 42.55 10.1496C42.157 11.6278 41.5675 13.8451 41.1876 15.363C40.7815 16.96 39.7989 17.5275 39.026 17.5275C38.6985 17.5275 38.3579 17.4219 38.0697 17.2371C37.5457 16.894 37.2182 16.3264 37.2051 15.7193C37.192 15.0594 37.5195 14.3995 38.1483 13.8319L38.1745 13.8055ZM12.0785 30.9107C12.4716 30.7655 12.8515 30.6863 13.2183 30.6863C14.2139 30.6863 14.9737 31.3066 15.1047 32.2173C15.1833 32.7849 15.0261 33.3392 14.6724 33.7483C14.2794 34.1971 13.6899 34.4479 12.9694 34.4479C12.7336 34.4479 12.4847 34.4215 12.2226 34.3687C10.6899 34.0651 8.39734 33.7352 6.8777 33.524C7.96503 32.9828 9.47157 32.2173 10.7423 31.5706C11.1484 31.3726 11.5938 31.1615 12.0785 30.9107ZM26.7117 47.8839C26.6331 48.0026 26.5676 48.1082 26.489 48.227C25.5719 49.4941 24.3667 51.355 23.5545 52.6089C23.5152 51.0911 23.4628 48.7945 23.4104 47.2239C23.3842 46.3 23.62 45.5081 24.1047 45.0198C24.4453 44.6634 24.8776 44.4787 25.3492 44.4787C25.5195 44.4787 25.7029 44.5051 25.8732 44.5579C26.4759 44.7426 26.9344 45.2046 27.1309 45.7721C27.3143 46.3528 27.2226 47.0128 26.8558 47.6727L26.6986 47.8971L26.7117 47.8839ZM51.3142 39.6216C49.8076 39.4501 47.5544 39.1729 46.0085 39.0145C44.9474 38.8957 44.1614 38.4602 43.7814 37.7739C43.5063 37.2855 43.4932 36.7048 43.729 36.1769C44.0566 35.4905 44.6985 35.0682 45.4321 35.0682C45.9037 35.0682 46.3884 35.2398 46.8469 35.5829L47.0958 35.8073C47.2661 35.9525 47.4234 36.0977 47.5806 36.2429C48.6941 37.3119 50.253 38.6978 51.3142 39.6348M59.0434 29.8284C59.0434 30.6863 58.7159 31.4914 58.1133 32.1117C57.5106 32.7189 56.7115 33.062 55.8731 33.062C55.467 33.062 55.0609 32.9828 54.6548 32.8377C54.5238 32.7717 54.3666 32.7057 54.17 32.6133C51.8251 31.4782 50.7509 30.9635 48.5762 29.9208C48.6679 29.8812 48.7465 29.8416 48.8382 29.802C49.598 29.4061 50.5674 28.9177 51.5107 28.4426C52.3229 28.0334 53.1744 27.6111 54.301 27.0436C54.812 26.7928 55.3491 26.6608 55.8731 26.6608C57.6154 26.6608 59.0303 28.0862 59.0434 29.8416M57.812 21.5662C58.1002 22.5297 57.9168 23.5988 57.3141 24.4039C56.7115 25.2222 55.7683 25.6973 54.7203 25.6973C54.5762 25.6973 54.4321 25.6973 54.2879 25.6709C54.2486 25.6709 54.2093 25.6709 54.17 25.6577C54.1438 25.6577 54.1176 25.6577 54.1045 25.6577C51.3928 25.209 50.2268 25.0242 47.7771 24.6414C47.8295 24.6018 47.8819 24.5491 47.9343 24.4963C48.157 24.2851 48.4059 24.0475 48.6679 23.7967C49.6897 22.8597 50.4888 22.1073 51.6286 21.0515C52.0609 20.6555 52.4277 20.3124 52.6766 20.088C52.86 19.9428 53.0434 19.8108 53.2268 19.7052C53.3709 19.6392 53.5281 19.5733 53.6591 19.4941C54.0128 19.3621 54.3928 19.2829 54.7727 19.2829C56.1613 19.2829 57.4189 20.22 57.812 21.5662ZM54.3535 14.0695C54.9561 15.0066 55.0347 16.1681 54.5631 17.1711C54.2748 17.7915 53.8163 18.2798 53.2268 18.6098C53.0827 18.6758 52.9386 18.7418 52.7945 18.8077C52.6373 18.8737 52.4801 18.9133 52.3098 18.9529C52.1395 18.9793 51.8906 19.0189 51.5893 19.0585C49.1002 19.3621 47.9212 19.5205 45.5893 19.824C45.6417 19.7448 45.6941 19.6656 45.7465 19.5733C46.7945 17.7783 48.5238 14.8878 49.1133 13.9243C49.7552 13.0796 50.6722 12.6045 51.6941 12.6045C52.7814 12.6045 53.777 13.1456 54.3666 14.0695M48.9299 7.81346C49.7683 8.53938 50.1744 9.63484 50.0041 10.7303C49.86 11.707 49.2836 12.5253 48.419 13.04C48.1963 13.1456 47.8557 13.304 47.4365 13.502C45.288 14.4391 44.2007 14.9142 42.0915 15.8513C42.7203 13.5152 43.0478 12.2349 43.729 9.59525C44.1221 8.05103 45.3535 7.04795 46.86 7.04795C47.6199 7.04795 48.3535 7.32512 48.9299 7.82666M40.6505 3.06203C41.0959 3.06203 41.5413 3.15442 41.9605 3.3524C42.9692 3.81434 43.6504 4.75143 43.8076 5.8469C43.9649 6.98196 43.5063 8.06423 42.5762 8.84294C40.4802 10.5983 39.5762 11.3506 37.7029 12.9344C37.6767 12.9476 37.6636 12.974 37.6374 12.9872C37.6374 12.9476 37.6374 12.9213 37.6374 12.8949C37.6374 12.8157 37.6374 12.7365 37.6374 12.6573C37.6374 12.6177 37.6374 12.5781 37.6374 12.5253C37.585 10.3872 37.5457 9.06731 37.4671 6.52002C37.4278 5.27937 37.9387 4.48746 38.371 4.03872C38.9736 3.41839 39.7989 3.06203 40.6636 3.06203M30.9693 2.33612C31.5719 1.50462 32.5282 1.00308 33.5501 1.00308C33.6942 1.00308 33.8383 1.00308 33.9955 1.02948C35.0959 1.17466 36.0129 1.88737 36.4714 2.90365C36.8776 3.82754 36.8251 4.85702 36.3404 5.78091C36.2356 5.95249 36.0915 6.19006 35.9081 6.45403C34.585 8.43379 33.93 9.43687 32.7247 11.2451C32.6592 11.3242 32.6199 11.4034 32.5544 11.4826C31.8208 9.1729 31.4147 7.91905 30.5763 5.33216C30.2226 4.23669 30.3667 3.16762 30.9824 2.30972M23.2794 2.96964C23.7248 1.94017 24.6418 1.24065 25.7291 1.06907C25.8863 1.04267 26.0435 1.02948 26.2007 1.02948C27.2095 1.02948 28.1658 1.51782 28.7684 2.34932C29.3841 3.20722 29.5413 4.27629 29.2007 5.35856C28.3623 7.99824 28.0217 9.1333 27.275 11.5354C26.0828 9.75363 25.3623 8.71095 24.144 6.92917C23.8427 6.48042 23.6069 6.12407 23.4497 5.88649C22.9257 4.94941 22.8602 3.90673 23.2663 2.96964M15.9694 5.99208C16.1004 4.88341 16.7816 3.94633 17.7903 3.47118C18.2095 3.27321 18.668 3.18082 19.1265 3.18082C19.9781 3.18082 20.8165 3.53718 21.406 4.1443C21.8383 4.59305 22.3492 5.38495 22.323 6.61241C22.2575 9.38407 22.2444 10.5719 22.2051 13.0796C20.3449 11.5354 19.3362 10.7039 17.227 8.98812C16.2838 8.22261 15.8253 7.12714 15.9694 6.00528M10.8602 8.01144C11.4366 7.4967 12.1833 7.21953 12.9563 7.21953C14.4497 7.21953 15.668 8.20941 16.0873 9.72723C16.8078 12.4065 17.1222 13.5548 17.7903 15.9701C15.5763 15.0198 14.3711 14.5051 11.8689 13.4624C10.7554 12.9872 10.0087 12.0766 9.82528 10.9547C9.64188 9.84602 10.0349 8.75055 10.8602 8.02464M5.47596 14.3467C6.06547 13.4096 7.0742 12.8553 8.17463 12.8553C9.27506 12.8553 10.3362 13.4624 10.9781 14.5051C12.4192 16.8676 13.048 17.8839 14.358 20.0088C11.9606 19.7184 10.6637 19.5733 7.97813 19.2829C6.77289 19.1509 5.80347 18.4778 5.30565 17.4615C4.82094 16.4584 4.88644 15.297 5.48906 14.3467M2.08296 21.949C2.47597 20.5763 3.73361 19.626 5.13535 19.626C5.94757 19.626 6.73359 19.9428 7.38861 20.5499C9.43227 22.4109 10.31 23.2028 12.1702 24.8658C9.78598 25.275 8.50214 25.4993 5.84277 25.9745C5.62006 26.0141 5.38425 26.0405 5.17465 26.0405C4.13972 26.0405 3.19649 25.5785 2.59387 24.7734C1.97816 23.9551 1.79475 22.9388 2.06986 21.9622M0.969428 30.198C0.969428 29.3401 1.29694 28.535 1.89955 27.9146C2.50217 27.3075 3.30129 26.9644 4.13972 26.9644C4.65063 26.9644 5.17465 27.0832 5.67246 27.3339C8.14843 28.535 9.20956 29.0365 11.4497 30.1188C11.3711 30.1584 11.2925 30.198 11.2139 30.2376C10.9388 30.3828 10.6375 30.5279 10.31 30.6995C8.80345 31.4386 7.66372 32.0194 5.69866 32.996C5.18775 33.26 4.65063 33.392 4.12662 33.392C2.38427 33.392 0.969428 31.9666 0.956327 30.2112M2.20086 38.4602C1.91265 37.4967 2.09606 36.4276 2.69868 35.6225C3.30129 34.8042 4.24452 34.3291 5.29255 34.3291C5.50216 34.3291 5.71176 34.3423 5.92137 34.3819C8.63315 34.8306 9.79908 35.0154 12.2619 35.4114C10.4803 37.048 9.52397 37.9454 7.54582 39.7932C7.31001 40.0044 7.0611 40.1892 6.81219 40.3344C6.66809 40.4004 6.51089 40.4663 6.37988 40.5323C6.02617 40.6643 5.64626 40.7435 5.26635 40.7435C3.87771 40.7435 2.62007 39.8064 2.22706 38.4602M5.65936 45.9569C5.05674 45.0198 4.97814 43.8583 5.44976 42.8421C5.73796 42.2217 6.19648 41.7334 6.78599 41.4034C6.9301 41.3506 7.0742 41.2846 7.21831 41.2055C7.49341 41.0999 7.79472 41.0207 8.09603 40.9943C10.834 40.6643 11.9999 40.5059 14.4759 40.1892C13.2183 42.2613 12.5502 43.3832 11.1615 45.7325C10.5327 46.8016 9.49777 47.4219 8.34494 47.4219C7.25761 47.4219 6.26198 46.8808 5.67246 45.9701M11.0829 52.1997C10.2445 51.4738 9.83838 50.3784 10.0087 49.2829C10.179 48.161 10.9126 47.2371 12.0261 46.7488C14.5545 45.6533 15.6418 45.1782 17.9213 44.1751C17.2925 46.5244 16.965 47.7915 16.2838 50.4311C15.8908 51.9754 14.6593 52.9784 13.1528 52.9784C12.393 52.9784 11.6593 52.7013 11.0829 52.1997ZM19.3493 56.9512C18.9038 56.9512 18.4584 56.8588 18.0392 56.6608C17.0305 56.1989 16.3493 55.2618 16.1921 54.1531C16.0349 53.018 16.4934 51.9358 17.4235 51.1571C19.5458 49.3885 20.4497 48.623 22.3492 47.0128C22.4016 49.4413 22.4409 50.7611 22.5326 53.48C22.5719 54.7206 22.061 55.5125 21.6287 55.9613C21.0261 56.5816 20.2008 56.938 19.3362 56.938M29.0435 57.6903C28.4409 58.5218 27.4846 59.0233 26.4628 59.0233C26.3187 59.0233 26.1745 59.0233 26.0173 58.9969C24.9169 58.8385 23.9999 58.139 23.5414 57.1227C23.0829 56.0801 23.2008 54.9054 23.882 53.8891C25.3492 51.685 26.0173 50.6819 27.275 48.7682C27.3012 48.7286 27.3274 48.689 27.3536 48.6494C27.3798 48.6098 27.4191 48.557 27.4453 48.5174C28.1789 50.8271 28.585 52.0678 29.4234 54.6546C29.7771 55.7501 29.633 56.8192 29.0173 57.6771M36.7334 57.0436C36.288 58.073 35.371 58.7725 34.2837 58.9441C34.1265 58.9705 33.9693 58.9837 33.8121 58.9837C32.8033 58.9837 31.847 58.4954 31.2444 57.6639C30.6287 56.806 30.4715 55.7369 30.8121 54.6546C31.6505 52.015 31.9911 50.8799 32.7378 48.4778C34.0872 50.4971 34.8208 51.5662 36.3666 53.8231C37.061 54.8262 37.192 56.0009 36.7334 57.0436ZM44.0435 54.0343C43.9125 55.143 43.2312 56.0801 42.2225 56.5552C41.8033 56.7532 41.3448 56.8588 40.8863 56.8588C40.0347 56.8588 39.1963 56.5024 38.6068 55.8953C38.1745 55.4465 37.6636 54.6546 37.6898 53.4272C37.7553 50.6555 37.7684 49.4677 37.8077 46.96C39.6679 48.5042 40.6767 49.3357 42.7858 51.0515C43.729 51.817 44.1876 52.9124 44.0435 54.0343ZM49.1526 52.015C48.5762 52.5297 47.8295 52.8069 47.0565 52.8069C45.5631 52.8069 44.3448 51.817 43.9256 50.2992C43.205 47.6199 42.8906 46.4848 42.2225 44.0563C44.4365 45.0066 45.6417 45.5213 48.1439 46.564C49.2574 47.0392 50.0041 47.9498 50.1875 49.0717C50.3709 50.1804 49.9779 51.2758 49.1526 52.0018M54.5369 45.6797C53.9473 46.6168 52.9386 47.1711 51.8382 47.1711C50.7377 47.1711 49.6766 46.5772 49.0347 45.5213C47.5937 43.1588 46.9648 42.1425 45.6548 40.0176C48.0391 40.308 49.336 40.4531 52.0216 40.7435C53.2268 40.8755 54.1962 41.5486 54.6941 42.5649C55.1788 43.568 55.1133 44.7294 54.5107 45.6797M57.9168 38.0642C57.5237 39.4369 56.2661 40.3872 54.8644 40.3872C54.1569 40.3872 53.4888 40.1496 52.8862 39.7008C52.7552 39.5952 52.5849 39.4369 52.3753 39.2653C50.646 37.6947 49.7552 36.8896 48.2225 35.5169C48.1439 35.4377 48.0522 35.3454 47.9736 35.2662C47.9343 35.2266 47.8819 35.187 47.8426 35.1474C50.2006 34.7514 51.4845 34.5139 54.1307 34.0387C54.3535 33.9991 54.5893 33.9727 54.7989 33.9727C55.8338 33.9727 56.777 34.4347 57.3796 35.2398C57.9954 36.0581 58.1788 37.0744 57.9037 38.051" fill="white"/>
<path d="M38.6199 30.2112C38.6199 25.4202 34.7553 21.5266 29.9999 21.5266C25.2444 21.5266 21.3798 25.4202 21.3798 30.2112C21.3798 35.0022 25.2444 38.8957 29.9999 38.8957C34.7553 38.8957 38.6199 35.0022 38.6199 30.2112Z" fill="white"/>
</svg>
