<svg width="60" height="60" viewBox="0 0 60 60" fill="none" xmlns="http://www.w3.org/2000/svg">
<path d="M30.0004 2.40002C14.7715 2.40002 2.40039 14.7712 2.40039 30C2.40039 45.2289 14.7715 57.6 30.0004 57.6C45.2292 57.6 57.6004 45.2289 57.6004 30C57.6004 14.7712 45.2292 2.40002 30.0004 2.40002ZM30.0004 4.80002C43.9322 4.80002 55.2004 16.0682 55.2004 30C55.2004 43.9318 43.9322 55.2 30.0004 55.2C16.0686 55.2 4.80039 43.9318 4.80039 30C4.80039 16.0682 16.0686 4.80002 30.0004 4.80002ZM22.8004 16.8V19.2H35.6652C31.8837 22.7841 29.6584 27.6641 28.327 32.0625C26.7072 37.4135 26.4004 41.9789 26.4004 43.2H28.8004C28.8004 42.4712 29.0936 37.8117 30.6238 32.7563C32.1349 27.7642 34.8523 22.3221 39.4832 19.2H39.6004V19.118C39.6196 19.1053 39.6373 19.0908 39.6566 19.0782L39.6004 18.9914V16.8H22.8004Z" fill="#82C83C"/>
</svg>
