<svg width="60" height="60" viewBox="0 0 60 60" fill="none" xmlns="http://www.w3.org/2000/svg">
<path d="M23.9992 4.91956C14.0392 5.15956 7.19922 11.5196 7.19922 21.1196C7.19922 25.1996 8.88016 28.2005 10.5602 31.0805C11.7602 33.1205 12.8402 35.1605 13.5602 37.6805C14.0402 39.2405 14.4002 41.0396 14.7602 42.7196C16.2002 49.0796 17.5192 55.0805 22.1992 55.0805C26.6392 55.0805 27.2402 50.64 27.3602 49.2C27.8402 44.4 28.2002 42.6 29.1602 37.8C29.2686 37.0408 29.8457 36.9727 30.0484 36.9657C30.2102 38.9692 30.8697 40.8339 31.9023 42.443C32.261 44.3839 32.5151 46.1431 32.7602 48.8391C33.1202 53.7591 35.7588 54.7196 37.9188 54.7196C41.1231 54.7196 42.7504 51.7948 43.9563 47.8242C46.0632 47.474 47.9922 46.5811 49.5813 45.2789L56.793 52.4907L58.4898 50.7938L51.2781 43.5821C52.9751 41.5112 53.9992 38.8701 53.9992 36C53.9992 32.9855 52.8638 30.2293 51.0109 28.1157C52.0208 26.02 52.7992 23.7579 52.7992 21V20.761C52.7992 20.401 52.6797 20.16 52.6797 19.8C52.6797 19.44 52.5602 19.08 52.5602 18.6C51.4802 10.2 45.0002 4.91956 35.7602 4.91956C33.6002 4.91956 31.6797 5.16096 29.8797 5.76096C28.0797 5.16096 26.0392 4.91956 23.9992 4.91956ZM24.1188 7.56096C25.8199 7.56096 27.5111 7.8494 29.0453 8.24768C29.1217 8.30144 29.1919 8.36492 29.2797 8.40002C31.1997 9.12002 32.9988 10.44 34.3188 12C34.5588 12.24 34.9197 12.361 35.2797 12.361C35.5197 12.361 35.8792 12.2396 35.9992 12.1196C36.4792 11.7596 36.5988 10.9191 36.1188 10.4391C35.2242 9.41678 34.2251 8.50293 33.1445 7.73909C34.0125 7.61971 34.9175 7.56096 35.8797 7.56096C43.9197 7.56096 49.4397 12.0005 50.2797 19.0805C50.2797 19.4405 50.3992 19.6791 50.3992 20.0391C50.3992 20.3991 50.3988 20.7596 50.5188 21.1196C50.5188 23.1116 50.0065 24.7755 49.2203 26.4492C47.2063 24.9207 44.7077 24 41.9992 24C35.9291 24 30.8867 28.5711 30.1141 34.4391C28.4363 34.4411 27.1198 35.5216 26.7602 37.2C25.8002 42 25.4402 44.0391 24.9602 48.8391C24.6002 52.3191 23.3992 52.561 22.1992 52.561C19.5592 52.561 18.3602 47.2796 17.1602 42.1196C16.8002 40.4396 16.4402 38.641 15.9602 36.961C15.1202 34.201 13.9188 31.9205 12.7188 29.8805C11.0388 27.0005 9.59922 24.4796 9.59922 21.1196C9.59922 12.8396 15.2388 7.56096 24.1188 7.56096ZM41.9992 26.4C45.17 26.4 47.9876 27.9634 49.7383 30.3516C48.4389 32.7144 47.1457 35.0857 46.3188 38.0391C45.6803 40.38 45.1389 42.7224 44.6055 45.0633C44.5475 45.1356 44.4908 45.2127 44.4297 45.2742C43.6517 45.4795 42.8393 45.6 41.9992 45.6C36.7192 45.6 32.3992 41.28 32.3992 36C32.3992 30.72 36.7192 26.4 41.9992 26.4ZM51.1188 33.0235C51.4273 33.962 51.5992 34.9617 51.5992 36C51.5992 39.2868 49.925 42.2013 47.3875 43.9336C47.8032 42.1521 48.23 40.3496 48.7188 38.6391C49.2725 36.6085 50.1827 34.7919 51.1188 33.0235ZM34.8063 45.5719C36.6706 46.9783 38.9493 47.8504 41.4227 47.9696C40.5553 50.6183 39.4806 52.561 37.9188 52.561C36.5988 52.561 35.4002 52.0791 35.1602 48.8391C35.047 47.5941 34.932 46.5565 34.8063 45.5719Z" fill="#82C83C"/>
</svg>
