<svg width="60" height="60" viewBox="0 0 60 60" fill="none" xmlns="http://www.w3.org/2000/svg">
<path d="M25.2755 9.61169C23.7721 9.61239 21.9767 9.97358 20.4989 11.182C19.9198 11.6556 19.4154 12.2644 19.0106 12.9961C18.6728 12.6751 18.3014 12.3868 17.9138 12.1406C16.6071 11.3108 15.0594 10.814 13.5989 10.814C12.1382 10.814 10.892 11.5183 10.2919 12.5508C10.2469 12.6281 10.2235 12.711 10.1841 12.7898C10.1221 12.7529 10.0636 12.6978 10.0013 12.6656C8.98865 12.1435 7.95168 12.0328 7.20048 12.0328C5.78048 12.0328 4.48005 12.461 3.6122 13.4156C2.74435 14.3702 2.40048 15.6896 2.40048 17.1914C2.4001 17.2219 2.40089 17.2524 2.40283 17.2828C2.65364 20.5961 3.2658 22.7536 4.07861 24.1898C4.89141 25.6261 5.99178 26.3998 7.11845 26.4093C8.99792 26.4258 10.2499 25.351 11.0067 24.3937C13.8303 26.8547 17.5007 26.5011 18.8067 26.2828C18.8607 26.3162 18.9005 26.3481 18.9591 26.3789C19.2795 26.5471 19.7394 26.7385 20.4005 26.9203C21.7226 27.2839 23.8485 27.6117 27.3005 27.6117C28.4576 27.6117 29.3708 27.16 30.0005 26.5828C30.6302 27.16 31.5434 27.6117 32.7005 27.6117C36.1525 27.6117 38.2784 27.2839 39.6005 26.9203C40.2616 26.7385 40.7215 26.5471 41.0419 26.3789C41.1016 26.3475 41.1418 26.3145 41.1966 26.2804C42.5035 26.4981 46.162 26.8509 48.9825 24.4031C49.7178 25.3465 50.9292 26.4 52.7442 26.4C53.8261 26.4 55.0491 25.7048 55.8919 24.2742C56.7346 22.8436 57.341 20.6819 57.5981 17.2828C57.6001 17.2524 57.6009 17.2219 57.6005 17.1914C57.6005 15.6896 57.2566 14.3702 56.3888 13.4156C55.5209 12.461 54.2205 12.0328 52.8005 12.0328C52.0497 12.0328 51.0125 12.1436 49.9997 12.6656C49.9373 12.6978 49.8788 12.753 49.8169 12.7898C49.7775 12.7111 49.7541 12.6281 49.7091 12.5508C49.109 11.5183 47.8627 10.8117 46.402 10.8117C44.9414 10.8117 43.3938 11.3105 42.0872 12.1406C41.6998 12.3867 41.328 12.6754 40.9903 12.9961C40.5857 12.2655 40.0808 11.6576 39.502 11.1844C38.0243 9.97593 36.2293 9.61169 34.7255 9.61169C32.8034 9.61169 31.0881 10.53 30.0005 11.9344C28.9131 10.5302 27.1984 9.61169 25.2755 9.61169ZM25.2755 12.0117C27.2609 12.0117 28.8005 13.5217 28.8005 15.3609V15.3633V23.8125C28.8005 23.8125 28.7857 24.198 28.5989 24.5578C28.4122 24.9175 28.2652 25.2117 27.3005 25.2117C24.0025 25.2117 22.0784 24.8908 21.038 24.6047C20.6938 24.51 20.57 24.4449 20.4005 24.3726V17.3133C20.4005 14.9794 21.1128 13.7825 22.02 13.0406C22.9272 12.2987 24.1701 12.0122 25.2755 12.0117ZM34.7255 12.0117C35.8304 12.0117 37.0737 12.2987 37.981 13.0406C38.8882 13.7825 39.6005 14.9801 39.6005 17.3133V24.3726C39.4309 24.4449 39.3071 24.51 38.963 24.6047C37.9226 24.8908 35.9985 25.2117 32.7005 25.2117C31.7357 25.2117 31.5888 24.9174 31.402 24.5578C31.3087 24.378 31.2508 24.1694 31.2239 24.014C31.2105 23.9364 31.2056 23.8733 31.2028 23.8359C31.2019 23.8234 31.2008 23.8187 31.2005 23.8125V15.3609C31.2018 13.5231 32.7424 12.0117 34.7255 12.0117ZM46.402 13.2117C47.261 13.2117 47.4127 13.3773 47.6325 13.7554C47.8523 14.1336 48.0005 14.9221 48.0005 15.9093V21.8859C46.0603 24.2568 43.1596 24.0423 42.0005 23.8781V15.9093C42.0005 15.4425 42.4602 14.7461 43.3739 14.1656C44.2876 13.5851 45.5431 13.2117 46.402 13.2117ZM13.5989 13.214C14.4581 13.214 15.7134 13.5877 16.627 14.1679C17.5407 14.7482 18.0005 15.4425 18.0005 15.9093V17.3133V23.8781C16.8414 24.0423 13.9406 24.257 12.0005 21.8859V15.9117C12.0005 14.9245 12.1487 14.1359 12.3685 13.7578C12.5882 13.3797 12.74 13.214 13.5989 13.214ZM7.20048 14.4328C7.64928 14.4328 8.41232 14.5471 8.8997 14.7984C9.38709 15.0497 9.60048 15.2177 9.60048 15.8718C9.60046 15.8852 9.60048 15.8984 9.60048 15.9117V22.139C9.47125 22.3896 8.601 24.0221 7.13955 24.0093C7.13703 24.0093 6.71519 23.9774 6.16689 23.0086C5.62322 22.0479 5.04544 20.2098 4.80752 17.1656C4.81352 16.0523 5.06058 15.3914 5.38877 15.0304C5.72091 14.6651 6.22048 14.4328 7.20048 14.4328ZM52.8005 14.4328C53.7805 14.4328 54.2801 14.6651 54.6122 15.0304C54.9404 15.3914 55.1874 16.0523 55.1935 17.1656C54.9489 20.3002 54.3644 22.1354 53.8224 23.0554C53.2758 23.9832 52.9175 24 52.7442 24C51.4336 24 50.5374 22.3897 50.4005 22.1367V15.8718C50.4005 15.2169 50.614 15.0495 51.1013 14.7984C51.5885 14.5473 52.3513 14.4328 52.8005 14.4328ZM9.83252 32.4117C8.70521 32.4117 7.35145 32.7506 6.09892 33.4711C4.8464 34.1915 3.62443 35.4471 3.60517 37.1976C3.59185 38.4084 3.56704 40.5806 4.03173 42.5836C4.26408 43.5851 4.61321 44.5629 5.25752 45.3797C5.90182 46.1964 6.94649 46.8117 8.14502 46.8117C10.1386 46.8117 11.7852 45.6969 12.7997 44.0859C13.0803 44.932 13.4711 45.744 14.0536 46.4367C14.8216 47.3501 16.0112 48.0117 17.4005 48.0117C18.7897 48.0117 19.9794 47.3501 20.7474 46.4367C21.0108 46.1234 21.223 45.7806 21.4153 45.4265C21.6624 46.1206 21.9734 46.7837 22.3974 47.3718C23.1419 48.4047 24.3496 49.2117 25.7981 49.2117C27.2466 49.2117 28.4565 48.4047 29.2013 47.3718C29.5284 46.9182 29.7837 46.4169 30.0005 45.8953C30.2178 46.4168 30.4726 46.9183 30.7997 47.3718C31.5446 48.4047 32.7541 49.2117 34.2028 49.2117C35.6513 49.2117 36.859 48.4047 37.6036 47.3718C38.0276 46.7837 38.3386 46.1206 38.5856 45.4265C38.778 45.7806 38.9902 46.1234 39.2536 46.4367C40.0216 47.3501 41.2112 48.0117 42.6005 48.0117C43.9897 48.0117 45.1794 47.3501 45.9474 46.4367C46.5298 45.744 46.9206 44.932 47.2013 44.0859C48.2157 45.6969 49.8624 46.8117 51.856 46.8117C53.0545 46.8117 54.0991 46.1964 54.7435 45.3797C55.3878 44.5629 55.7369 43.5851 55.9692 42.5836C56.4339 40.5806 56.4091 38.4084 56.3958 37.1976C56.3757 35.4474 55.1544 34.1915 53.902 33.4711C52.6497 32.7506 51.2958 32.4117 50.1685 32.4117C49.0415 32.4117 47.9008 32.8129 47.0278 33.6422C46.7875 33.8704 46.5774 34.1358 46.3903 34.425C46.1513 34.2591 45.9024 34.1196 45.652 34.0242C44.4786 33.5772 43.3007 33.6117 42.6005 33.6117C41.9003 33.6117 40.7223 33.5772 39.5489 34.0242C39.1516 34.1756 38.7572 34.4262 38.4052 34.7508C38.0498 34.4229 37.651 34.1708 37.2497 34.0195C36.078 33.5777 34.8989 33.6117 34.1981 33.6117C33.4985 33.6117 32.3227 33.5776 31.1513 34.0195C30.752 34.1701 30.3546 34.4204 30.0005 34.7461C29.6464 34.4204 29.249 34.1701 28.8497 34.0195C27.6783 33.5776 26.5024 33.6117 25.8028 33.6117C25.102 33.6117 23.923 33.5777 22.7513 34.0195C22.35 34.1708 21.9511 34.4229 21.5958 34.7508C21.2438 34.4262 20.8494 34.1756 20.452 34.0242C19.2786 33.5772 18.1007 33.6117 17.4005 33.6117C16.7003 33.6117 15.5223 33.5772 14.3489 34.0242C14.0986 34.1196 13.8497 34.2591 13.6106 34.425C13.4239 34.1362 13.2155 33.8702 12.9755 33.6422C12.1026 32.8128 10.9598 32.4117 9.83252 32.4117ZM9.83252 34.8117C10.39 34.8117 10.9307 35.0106 11.3208 35.3812C11.7109 35.7519 12.0005 36.2923 12.0005 37.2117C12.0005 39.4713 11.5814 41.3914 10.8895 42.6234C10.1977 43.8554 9.40246 44.4117 8.14502 44.4117C7.65874 44.4117 7.44423 44.277 7.14189 43.8937C6.83955 43.5105 6.55605 42.8383 6.3708 42.0398C6.00029 40.4428 5.99209 38.415 6.00517 37.2258C6.01232 36.5763 6.46056 36.0319 7.29423 35.5523C8.12791 35.0728 9.27502 34.8117 9.83252 34.8117ZM50.1685 34.8117C50.726 34.8117 51.8732 35.0728 52.7067 35.5523C53.5403 36.0319 53.9883 36.5759 53.9958 37.2258C54.0089 38.415 54.0007 40.4428 53.6302 42.0398C53.4449 42.8383 53.1614 43.5105 52.8591 43.8937C52.5567 44.277 52.3422 44.4117 51.856 44.4117C50.5985 44.4117 49.8033 43.8554 49.1114 42.6234C48.4195 41.3914 48.0005 39.4713 48.0005 37.2117C48.0005 36.2925 48.2898 35.752 48.6802 35.3812C49.0705 35.0104 49.6118 34.8117 50.1685 34.8117ZM17.4005 36.0117C18.1007 36.0117 19.0224 36.0476 19.5989 36.2672C20.1754 36.4868 20.4005 36.5657 20.4005 37.4789C20.4005 38.5835 20.3842 40.8307 19.913 42.6773C19.6774 43.6006 19.3231 44.4007 18.9099 44.8922C18.4966 45.3836 18.1112 45.6117 17.4005 45.6117C16.6897 45.6117 16.3044 45.3836 15.8911 44.8922C15.4779 44.4007 15.1236 43.6006 14.888 42.6773C14.4167 40.8307 14.4005 38.5835 14.4005 37.4789C14.4005 36.5657 14.6256 36.4868 15.202 36.2672C15.7785 36.0476 16.7003 36.0117 17.4005 36.0117ZM25.8028 36.0117C26.5024 36.0117 27.4231 36.0467 28.0013 36.2648C28.5795 36.4829 28.8005 36.5573 28.8005 37.4531C28.8005 38.5465 28.7882 41.109 28.3036 43.2914C28.0613 44.3826 27.6902 45.3626 27.2536 45.9679C26.817 46.5733 26.449 46.8117 25.7981 46.8117C25.1472 46.8117 24.7814 46.5732 24.345 45.9679C23.9087 45.3626 23.5394 44.3826 23.2974 43.2914C22.8134 41.109 22.8005 38.5469 22.8005 37.4531C22.8005 36.5573 23.0212 36.483 23.5997 36.2648C24.1782 36.0467 25.102 36.0117 25.8028 36.0117ZM34.1981 36.0117C34.8989 36.0117 35.8228 36.0467 36.4013 36.2648C36.9798 36.483 37.2005 36.5573 37.2005 37.4531C37.2005 37.4587 37.2005 37.4732 37.2005 37.4789C37.2003 38.582 37.1851 41.1202 36.7036 43.2914C36.4616 44.3826 36.0923 45.3626 35.656 45.9679C35.2196 46.5732 34.8537 46.8117 34.2028 46.8117C33.5515 46.8117 33.1839 46.5733 32.7474 45.9679C32.3108 45.3626 31.9396 44.3825 31.6974 43.2914C31.213 41.109 31.2005 38.5467 31.2005 37.4531C31.2005 36.5573 31.4215 36.4829 31.9997 36.2648C32.5779 36.0467 33.4985 36.0117 34.1981 36.0117ZM42.6005 36.0117C43.3007 36.0117 44.2224 36.0476 44.7989 36.2672C45.3754 36.4868 45.6005 36.5657 45.6005 37.4789C45.6005 38.5835 45.5842 40.8307 45.113 42.6773C44.8774 43.6006 44.5231 44.4007 44.1099 44.8922C43.6966 45.3836 43.3112 45.6117 42.6005 45.6117C41.8897 45.6117 41.5044 45.3836 41.0911 44.8922C40.6779 44.4007 40.3236 43.6006 40.088 42.6773C39.6167 40.8307 39.6005 38.5835 39.6005 37.4789C39.6005 36.5657 39.8256 36.4868 40.4021 36.2672C40.9785 36.0476 41.9003 36.0117 42.6005 36.0117Z" fill="#82C83C"/>
</svg>
