<svg width="60" height="60" viewBox="0 0 60 60" fill="none" xmlns="http://www.w3.org/2000/svg">
<g clip-path="url(#clip0_947_7977)">
<path d="M30 0C25.425 0 22.4531 1.27969 20.2125 2.475C17.9719 3.67031 16.5281 4.65 14.475 4.65C9.00469 4.65 5.89688 3.80625 3.9375 3.3375C2.95781 3.10313 2.24063 2.77969 1.2375 3.1875C0.735937 3.38906 0.342187 3.89531 0.1875 4.35C0.0328126 4.80469 0 5.24531 0 5.7375C0 8.10938 0.539063 11.85 3.6 15.1875V19.6125C3.6 20.9203 4.12031 23.8828 7.3125 25.5C8.25938 25.9781 9.40313 26.4188 10.6875 26.25C10.8375 26.2313 10.9828 26.1797 11.1375 26.1375C11.2359 26.3859 11.3484 26.6625 11.5125 26.925C12.1969 28.0453 13.5797 29.2313 15.9375 29.775C17.1328 30.0516 18.1266 30.0703 18.975 29.8125C19.3828 29.6859 19.7484 29.5172 20.0625 29.2875C20.9109 30.3234 22.5563 31.2 25.2 31.2C27.4781 31.2 29.0719 30.4594 30 29.475C30.9281 30.4594 32.5219 31.2 34.8 31.2C37.4438 31.2 39.0891 30.3234 39.9375 29.2875C40.2516 29.5172 40.6172 29.6859 41.025 29.8125C41.8734 30.0703 42.8672 30.0516 44.0625 29.775C46.4203 29.2313 47.8031 28.0453 48.4875 26.925C48.6516 26.6625 48.7641 26.3859 48.8625 26.1375C49.0172 26.1797 49.1625 26.2313 49.3125 26.25C50.5969 26.4188 51.7406 25.9781 52.6875 25.5C55.8797 23.8828 56.4 20.9203 56.4 19.6125V15.1875C59.4609 11.85 60 8.10938 60 5.7375C60 5.24531 59.9672 4.80469 59.8125 4.35C59.6578 3.89531 59.2641 3.38906 58.7625 3.1875C57.7594 2.77969 57.0422 3.10313 56.0625 3.3375C54.1031 3.80625 50.9953 4.65 45.525 4.65C43.4719 4.65 41.9953 3.67031 39.75 2.475C37.5047 1.27969 34.575 0 30 0ZM30 2.4C34.1484 2.4 36.5063 3.44531 38.625 4.575C40.7438 5.70469 42.7078 7.05 45.525 7.05C51.2484 7.05 54.7359 6.1125 56.625 5.6625C57.3656 5.48438 57.5484 5.5125 57.6 5.475C57.6094 5.57344 57.6 5.57813 57.6 5.7375C57.6 7.82813 57.2156 10.9125 54.4875 13.7625C54.4406 13.8141 54.3891 13.8609 54.3375 13.9125C54.0984 14.1563 53.8641 14.3859 53.5875 14.625C51 16.8563 46.6406 18.8906 39.45 19.8375C36.7547 20.1938 33.6656 20.3953 30.1125 20.4C30.075 20.4 30.0375 20.4 30 20.4C29.9625 20.4 29.925 20.4 29.8875 20.4C26.3813 20.3953 23.3344 20.1844 20.6625 19.8375C20.625 19.8328 20.5875 19.8422 20.55 19.8375C13.3594 18.8906 9 16.8563 6.4125 14.625C6.16406 14.4094 5.95781 14.2031 5.7375 13.9875C5.69063 13.9313 5.64375 13.8844 5.5875 13.8375C2.79375 10.9688 2.4 7.84688 2.4 5.7375C2.4 5.57813 2.39063 5.57344 2.4 5.475C2.45156 5.5125 2.63438 5.48438 3.375 5.6625C5.26406 6.1125 8.75156 7.05 14.475 7.05C17.2922 7.05 19.2281 5.70469 21.3375 4.575C23.4469 3.44531 25.8516 2.4 30 2.4ZM6 17.325C7.30781 18.2719 8.90625 19.1156 10.8 19.875V22.9875C10.8 23.5078 10.6969 23.7141 10.65 23.775C10.6031 23.8359 10.5797 23.8641 10.3875 23.8875C10.0031 23.9391 9.05625 23.7141 8.3625 23.3625C6.07031 22.2047 6 20.4891 6 19.6125V17.325ZM54 17.325V19.6125C54 20.4891 53.9297 22.2047 51.6375 23.3625C50.9438 23.7141 49.9969 23.9391 49.6125 23.8875C49.4203 23.8641 49.3969 23.8359 49.35 23.775C49.3031 23.7141 49.2 23.5078 49.2 22.9875V19.875C51.0938 19.1156 52.6922 18.2719 54 17.325ZM13.2 20.7375C14.9672 21.2766 16.9406 21.7453 19.2 22.0875V25.575C19.2 25.95 19.125 26.6813 18.8625 27.075C18.7313 27.2719 18.5953 27.4219 18.2625 27.525C17.9297 27.6281 17.3672 27.6609 16.4625 27.45C14.6203 27.0234 13.9031 26.2828 13.5375 25.6875C13.1719 25.0922 13.2 24.7125 13.2 24.7125V20.7375ZM46.8 20.7375V24.7125C46.8 24.7125 46.8281 25.0922 46.4625 25.6875C46.0969 26.2828 45.3797 27.0234 43.5375 27.45C42.6328 27.6609 42.0703 27.6281 41.7375 27.525C41.4047 27.4219 41.2688 27.2719 41.1375 27.075C40.875 26.6813 40.8 25.95 40.8 25.575V22.0875C43.0594 21.7453 45.0328 21.2766 46.8 20.7375ZM21.6 22.3875C23.775 22.6266 26.1703 22.7672 28.8 22.8V26.025C28.8 26.3953 28.7625 27.075 28.3875 27.6375C28.0125 28.2 27.3328 28.8 25.2 28.8C23.0438 28.8 22.2891 28.2141 21.9375 27.7875C21.5859 27.3609 21.6 27.075 21.6 27.075V26.025C21.6047 25.8328 21.6 25.6688 21.6 25.575V22.3875ZM38.4 22.3875V27.075C38.4 27.075 38.4141 27.3609 38.0625 27.7875C37.7109 28.2141 36.9563 28.8 34.8 28.8C32.6672 28.8 31.9875 28.2 31.6125 27.6375C31.2375 27.075 31.2 26.3953 31.2 26.025V22.8C33.8297 22.7672 36.225 22.6266 38.4 22.3875ZM6.1125 38.7C5.50313 38.7375 4.77656 38.9719 4.275 39.5625C3.79688 40.125 3.61406 40.875 3.6 41.7C3.4875 41.6344 3.32813 41.5359 3.225 41.475C2.72344 41.1797 2.38594 40.9266 1.9125 40.7625C1.67344 40.6828 1.32656 40.5516 0.75 40.8375C0.464063 40.9781 0.215626 41.2688 0.1125 41.5125C0.009375 41.7563 0 41.9203 0 42.075C0 45.1875 2.31094 49.4719 7.1625 53.2125C12.0141 56.9531 19.4953 60 30 60C40.5047 60 47.9859 56.9531 52.8375 53.2125C57.6891 49.4719 60 45.1875 60 42.075C60 41.9203 59.9906 41.7563 59.8875 41.5125C59.7844 41.2688 59.5359 40.9781 59.25 40.8375C58.6734 40.5516 58.3266 40.6828 58.0875 40.7625C57.6141 40.9266 57.2766 41.1797 56.775 41.475C56.6719 41.5359 56.5125 41.6344 56.4 41.7C56.3859 40.875 56.2031 40.125 55.725 39.5625C55.2234 38.9719 54.4969 38.7375 53.8875 38.7C52.6734 38.6203 51.6 39.0281 50.8125 39.1875C49.4953 39.45 48.525 40.1672 47.8875 40.9875C46.9594 40.2281 45.5109 39.8156 43.425 40.0125C41.4375 40.2 40.1156 41.1422 39.375 42.15C38.4375 41.3766 36.9469 40.8 34.8 40.8C32.5219 40.8 30.9281 41.5406 30 42.525C29.0719 41.5406 27.4781 40.8 25.2 40.8C23.0531 40.8 21.5625 41.3766 20.625 42.15C19.8844 41.1422 18.5625 40.2 16.575 40.0125C14.4891 39.8156 13.0406 40.2281 12.1125 40.9875C11.475 40.1672 10.5047 39.45 9.1875 39.1875C8.4 39.0281 7.32656 38.6203 6.1125 38.7ZM6.3 41.1C6.71719 41.0719 7.725 41.3484 8.7375 41.55C9.92813 41.7891 10.2703 42.3 10.5375 43.0125C10.7859 43.6734 10.8 44.4609 10.8 45.0375C9.73594 44.6578 8.72344 44.2922 7.875 43.9125C7.17656 43.6031 6.5625 43.2984 6 43.0125V41.8125C6 41.2781 6.1125 41.1375 6.1125 41.1375C6.1125 41.1375 6.09375 41.1141 6.3 41.1ZM53.7 41.1C53.9063 41.1141 53.8875 41.1375 53.8875 41.1375C53.8875 41.1375 54 41.2781 54 41.8125V43.0125C53.4375 43.2984 52.8234 43.6031 52.125 43.9125C51.2766 44.2922 50.2641 44.6578 49.2 45.0375C49.2 44.4609 49.2141 43.6734 49.4625 43.0125C49.7297 42.3 50.0719 41.7891 51.2625 41.55C52.275 41.3484 53.2828 41.0719 53.7 41.1ZM15.1125 42.375C15.4547 42.3563 15.8484 42.3656 16.35 42.4125C17.9484 42.5625 18.5203 43.2 18.8625 43.8C19.1953 44.3813 19.2 44.8547 19.2 44.8875V44.925V47.175C16.9359 46.8047 14.9578 46.3359 13.2 45.825V44.025C13.2 43.6688 13.2469 43.2328 13.5 42.9375C13.6922 42.7172 14.0906 42.4266 15.1125 42.375ZM44.8875 42.375C45.9094 42.4266 46.3078 42.7172 46.5 42.9375C46.7531 43.2328 46.8 43.6688 46.8 44.025V45.825C45.0422 46.3359 43.0641 46.8047 40.8 47.175V44.925C40.8 44.925 40.8141 44.8641 40.8 44.7375C40.8141 44.5734 40.8797 44.2547 41.1375 43.8C41.4797 43.2 42.0516 42.5625 43.65 42.4125C44.1516 42.3656 44.5453 42.3563 44.8875 42.375ZM25.2 43.2C27.3328 43.2 28.0125 43.8 28.3875 44.3625C28.7625 44.925 28.8 45.6047 28.8 45.975V47.9625C26.1703 47.9203 23.7797 47.775 21.6 47.5125V44.8875C21.6 44.8406 21.6188 44.6016 21.9375 44.2125C22.2891 43.7859 23.0438 43.2 25.2 43.2ZM34.8 43.2C36.9563 43.2 37.7109 43.7859 38.0625 44.2125C38.3813 44.6016 38.4 44.8406 38.4 44.8875C38.4 44.8922 38.4 44.925 38.4 44.925V47.5125C36.2156 47.775 33.8297 47.9203 31.2 47.9625V45.975C31.2 45.6047 31.2375 44.925 31.6125 44.3625C31.9875 43.8 32.6672 43.2 34.8 43.2ZM3.15 44.1375C4.13438 44.7141 5.12813 45.3375 6.9 46.125C11.5031 48.1734 18.9094 50.4 30 50.4C33.5391 50.4 36.6703 50.1375 39.4875 49.7625C39.5719 49.7531 39.6656 49.7719 39.75 49.7625C39.825 49.7578 39.9 49.7438 39.975 49.725C40.0125 49.7203 40.05 49.6922 40.0875 49.6875C45.8016 48.8719 50.0672 47.475 53.1 46.125C54.8719 45.3375 55.8656 44.7141 56.85 44.1375C56.1188 46.1813 54.6516 48.8109 51.375 51.3375C46.9641 54.7359 40.0453 57.6 30 57.6C19.9547 57.6 13.0359 54.7359 8.625 51.3375C5.34844 48.8109 3.88125 46.1813 3.15 44.1375Z" fill="#82C83C"/>
</g>
<defs>
<clipPath id="clip0_947_7977">
<rect width="60" height="60" fill="white"/>
</clipPath>
</defs>
</svg>
