<svg width="60" height="60" viewBox="0 0 60 60" fill="none" xmlns="http://www.w3.org/2000/svg">
<path d="M23.3506 2.39761C23.2752 2.396 23.1999 2.4015 23.1256 2.41402C17.6325 2.49051 13.0539 4.23994 9.85527 7.31246C6.58418 10.4546 4.7998 14.9326 4.7998 20.1C4.7998 23.9121 6.21048 26.8823 7.76699 29.6648C9.32351 32.4473 11.0205 35.0883 11.9482 38.4585V38.4515C13.0201 42.4403 13.7799 47.0054 14.9576 50.6882C15.5465 52.5296 16.2313 54.1622 17.2193 55.4296C18.2074 56.6971 19.6284 57.6 21.3068 57.6C22.9472 57.6 24.4562 56.9824 25.4436 55.7906C26.4309 54.5987 26.8803 52.9561 26.8803 51.0093C26.8803 46.2262 27.8471 39.8895 28.8256 34.4179C28.991 33.6319 29.4907 33.3984 30.0396 33.3984C30.5901 33.3984 31.0377 33.5964 31.167 34.3757L31.1693 34.3851V34.3945C32.1482 39.7565 33.1193 46.2184 33.1193 51.0093C33.1193 52.9556 33.5688 54.5987 34.5561 55.7906C35.5433 56.9825 37.0522 57.6 38.6928 57.6C40.3756 57.6 41.796 56.6866 42.7826 55.4109C43.7693 54.1352 44.4535 52.4936 45.042 50.646C46.2186 46.9523 46.9815 42.3872 48.0514 38.4585C48.9791 35.0882 50.6761 32.4474 52.2326 29.6648C53.7884 26.8834 55.1986 23.9138 55.1998 20.1046C55.2546 14.9384 53.4974 10.4574 50.2404 7.3148C46.9815 4.17029 42.2738 2.39996 36.6139 2.39996C34.155 2.39996 31.9839 2.73116 30.0537 3.36089C28.1235 2.73116 25.9524 2.39996 23.4936 2.39996C23.4792 2.39996 23.4657 2.40228 23.4514 2.4023C23.4179 2.39932 23.3842 2.39776 23.3506 2.39761ZM36.6139 4.79996C41.7779 4.79996 45.8192 6.38405 48.574 9.04214C51.3289 11.7002 52.8508 15.4666 52.7998 20.0859V20.0929V20.1C52.7998 23.3276 51.642 25.8029 50.1373 28.4929C48.6326 31.1829 46.776 34.0417 45.7357 37.821V37.8234C44.6186 41.9241 43.8487 46.4897 42.7568 49.9171C42.2109 51.6309 41.5751 53.048 40.8842 53.9414C40.1933 54.8346 39.5792 55.2 38.6928 55.2C37.5997 55.2 36.9216 54.8835 36.4053 54.2601C35.8889 53.6367 35.5193 52.5827 35.5193 51.0093C35.5193 45.9058 34.5223 39.3973 33.5342 33.982C33.2255 32.1214 31.5937 30.9984 30.0396 30.9984C28.4856 30.9984 26.858 32.0865 26.4748 33.9351L26.4701 33.9515L26.4678 33.9679C25.4799 39.4894 24.4803 45.9003 24.4803 51.0093C24.4803 52.5834 24.1106 53.6369 23.5943 54.2601C23.0781 54.8833 22.4001 55.2 21.3068 55.2C20.4161 55.2 19.8002 54.8375 19.1107 53.9531C18.4213 53.0687 17.7884 51.6631 17.2428 49.957C16.1516 46.5448 15.3819 41.9801 14.2662 37.8281L14.2639 37.8257V37.821C13.2236 34.0418 11.367 31.1827 9.8623 28.4929C8.35762 25.8031 7.1998 23.3282 7.1998 20.1C7.1998 15.4777 8.74963 11.705 11.5193 9.04449C14.2645 6.40757 18.2614 4.83243 23.36 4.80464C27.6154 5.12641 31.3298 7.05525 33.9561 10.1039C34.0578 10.2267 34.183 10.3281 34.3244 10.402C34.4658 10.4759 34.6205 10.5209 34.7795 10.5344C34.9384 10.5478 35.0985 10.5294 35.2503 10.4802C35.402 10.431 35.5425 10.3521 35.6634 10.248C35.7843 10.144 35.8833 10.0168 35.9545 9.87403C36.0256 9.73126 36.0677 9.57572 36.078 9.41652C36.0884 9.25732 36.0669 9.09765 36.0149 8.94684C35.9628 8.79604 35.8812 8.65713 35.7748 8.53824C34.6857 7.27398 33.4229 6.18275 32.0342 5.27574C33.3847 4.96744 34.9041 4.79996 36.6139 4.79996Z" fill="#82C83C"/>
</svg>
