<svg width="60" height="60" viewBox="0 0 60 60" fill="none" xmlns="http://www.w3.org/2000/svg">
<path d="M30.0004 2.40002C14.7715 2.40002 2.40039 14.7712 2.40039 30C2.40039 45.2289 14.7715 57.6 30.0004 57.6C45.2292 57.6 57.6004 45.2289 57.6004 30C57.6004 14.7712 45.2292 2.40002 30.0004 2.40002ZM30.0004 4.80002C43.9322 4.80002 55.2004 16.0682 55.2004 30C55.2004 43.9318 43.9322 55.2 30.0004 55.2C16.0686 55.2 4.80039 43.9318 4.80039 30C4.80039 16.0682 16.0686 4.80002 30.0004 4.80002ZM32.4004 16.7977V16.8L20.4004 34.7977L20.4051 34.8H20.4004V37.2H32.4004V43.2H34.8004V37.2H38.4004V34.8H34.8004V16.8H32.4051L32.4004 16.7977ZM32.4004 21.1242V34.8H23.2855L32.4004 21.1242Z" fill="#82C83C"/>
</svg>
