<svg width="60" height="60" viewBox="0 0 60 60" fill="none" xmlns="http://www.w3.org/2000/svg">
<g clip-path="url(#clip0_947_7996)">
<path d="M60 22.8C60 22.6968 59.9652 22.6044 59.9412 22.5084C59.7072 19.9272 58.692 17.718 56.958 16.0668C54.9132 14.1204 52.0152 13.1892 48.5772 13.1892L40.2 13.1916C36.804 13.2108 33.9336 14.238 31.9044 16.1652C31.14 16.89 30.5112 17.6244 30.0252 18.5496C29.5452 17.6256 28.9212 16.8912 28.1592 16.1652C26.1144 14.2188 23.2164 13.1904 19.7784 13.1904L11.4012 13.1928C8.0052 13.212 5.1348 14.142 3.1056 16.068C1.074 17.9892 0 20.6748 0 23.8284C0 26.2092 0.9084 28.0104 1.8372 29.652L2.3112 30.4728C3.138 31.8948 3.9936 33.3648 4.5048 35.196C4.8048 36.2976 5.064 37.446 5.3172 38.5644C5.664 40.1004 5.9928 41.5512 6.4008 42.8124C6.81 44.07 7.2732 45.0336 7.7808 45.6792C8.1996 46.2072 8.8968 46.9104 10.1088 46.9104C11.1264 46.9104 11.8992 46.5792 12.4728 45.8964C12.8556 45.4392 13.3128 44.5836 13.3128 43.098C13.3128 39.978 13.9488 36.0156 14.5296 32.7792L14.5476 32.7C14.784 31.5696 16.4544 31.5396 16.6512 32.7012C17.4816 37.1892 17.8848 40.59 17.8848 43.098C17.8848 44.5824 18.342 45.4392 18.7248 45.894C19.2972 46.578 20.07 46.9104 21.09 46.9104C22.302 46.9104 22.9992 46.2012 23.4192 45.666C23.928 45.0144 24.3924 44.0448 24.798 42.786C25.2 41.5368 25.524 40.1076 25.8696 38.5932C26.1264 37.4628 26.3916 36.2928 26.6928 35.1996C27.2052 33.3672 28.0608 31.896 28.8876 30.474L29.3616 29.6532C29.58 29.268 29.796 28.8732 30 28.4652C30.204 28.8732 30.42 29.268 30.6384 29.6532L31.1124 30.474C31.9392 31.896 32.7948 33.366 33.306 35.1972C33.606 36.2988 33.8652 37.4472 34.1184 38.5656C34.4652 40.1016 34.794 41.5524 35.202 42.8136C35.6112 44.0712 36.0744 45.0348 36.582 45.6804C37.0008 46.2084 37.698 46.9116 38.91 46.9116C39.9276 46.9116 40.7004 46.5804 41.274 45.8976C41.6568 45.4404 42.114 44.5848 42.114 43.0992C42.114 39.9792 42.75 36.0168 43.3308 32.7804L43.3488 32.7012C43.5864 31.5708 45.2568 31.5408 45.4524 32.7024C46.2828 37.1904 46.686 40.5912 46.686 43.0992C46.686 44.5836 47.1432 45.4404 47.526 45.8952C48.0984 46.5792 48.8712 46.9116 49.8912 46.9116C51.1032 46.9116 51.8004 46.2024 52.2204 45.6672C52.7292 45.0156 53.1936 44.046 53.5992 42.7872C54.0012 41.538 54.3252 40.1088 54.6708 38.5944C54.9276 37.464 55.1928 36.294 55.494 35.2008C56.0064 33.3684 56.862 31.8972 57.6888 30.4752L58.1628 29.6544C59.0916 28.014 60 26.2128 60 23.8356C60.0036 23.5344 59.988 23.2416 59.9712 22.9488C59.9772 22.896 60 22.8516 60 22.8ZM33.5544 17.808C35.1336 16.3092 37.4364 15.6072 40.2072 15.5916L48.5772 15.5892C51.3876 15.5892 53.7132 16.2912 55.3032 17.8056C56.3496 18.8004 57.042 20.0904 57.372 21.6H49.2V19.2C49.2 18.5364 48.6636 18 48 18H40.8C40.1364 18 39.6 18.5364 39.6 19.2V21.6H31.452C31.7988 20.0952 32.502 18.804 33.5544 17.808ZM42 20.4H46.8V25.2H42V20.4ZM4.7544 17.808C6.3336 16.3092 8.6364 15.6072 11.4072 15.5916L19.7772 15.5892C22.5876 15.5892 24.9132 16.2912 26.5032 17.8056C27.5496 18.8004 28.242 20.0904 28.572 21.6H20.4V19.2C20.4 18.5364 19.8636 18 19.2 18H12C11.3364 18 10.8 18.5364 10.8 19.2V21.6H2.652C2.9988 20.0952 3.702 18.804 4.7544 17.808ZM13.2 20.4H18V25.2H13.2V20.4ZM26.814 29.2644C25.9524 30.7452 24.9768 32.424 24.3816 34.5588C24.0636 35.7072 23.7924 36.9048 23.5296 38.064C23.1984 39.5232 22.8852 40.9008 22.5144 42.048C22.0956 43.3464 21.7176 43.9452 21.5316 44.184C21.276 44.5092 21.1992 44.5092 21.0912 44.5092C20.6976 44.5092 20.6244 44.4228 20.5656 44.3508C20.4312 44.19 20.2872 43.776 20.2872 43.0968C20.2872 40.44 19.8696 36.8976 19.0164 32.2836C18.7416 30.6528 17.286 29.4216 15.6264 29.4216C14.0004 29.4216 12.5736 30.564 12.2136 32.1468L12.1884 32.2584C11.5956 35.5332 10.914 39.726 10.914 43.0956C10.914 43.776 10.7712 44.19 10.6368 44.3496C10.5744 44.424 10.5048 44.508 10.1112 44.508C9.9948 44.508 9.9192 44.508 9.666 44.1876C9.4812 43.9524 9.1056 43.362 8.6856 42.0684C8.3112 40.914 7.9956 39.516 7.6608 38.0376C7.4112 36.936 7.1556 35.8068 6.8628 34.7172L6.8184 34.5504C6.2244 32.4216 5.2476 30.7428 4.3872 29.2632L3.9276 28.4664C2.994 26.8248 2.454 25.548 2.4144 24H10.8V26.4C10.8 27.0636 11.3364 27.6 12 27.6H19.2C19.8636 27.6 20.4 27.0636 20.4 26.4V24H28.7844C28.7448 25.548 28.2048 26.8248 27.2736 28.4688L26.814 29.2644ZM55.614 29.2644C54.7524 30.7452 53.7768 32.424 53.1816 34.5588C52.8636 35.7072 52.5924 36.9048 52.3296 38.064C51.9984 39.5232 51.6852 40.9008 51.3144 42.048C50.8956 43.3464 50.5176 43.9452 50.3316 44.184C50.076 44.5092 49.9992 44.5092 49.8912 44.5092C49.4976 44.5092 49.4244 44.4228 49.3656 44.3508C49.2312 44.19 49.0872 43.776 49.0872 43.0968C49.0872 40.44 48.6696 36.8976 47.8164 32.2836C47.5416 30.6528 46.086 29.4216 44.4264 29.4216C42.8004 29.4216 41.3736 30.564 41.0136 32.1468L40.9884 32.2584C40.3956 35.5332 39.714 39.726 39.714 43.0956C39.714 43.776 39.5712 44.19 39.4368 44.3496C39.3744 44.424 39.3048 44.508 38.9112 44.508C38.7948 44.508 38.7192 44.508 38.466 44.1876C38.2812 43.9524 37.9056 43.362 37.4856 42.0684C37.1112 40.914 36.7956 39.516 36.4608 38.0376C36.2112 36.936 35.9556 35.8068 35.6628 34.7172L35.6184 34.5504C35.0244 32.4216 34.0476 30.7428 33.1872 29.2632L32.7276 28.4664C31.7964 26.8236 31.2564 25.5456 31.2168 23.9976H39.6V26.3976C39.6 27.0612 40.1364 27.5976 40.8 27.5976H48C48.6636 27.5976 49.2 27.0612 49.2 26.3976V23.9976H57.5844C57.5448 25.5456 57.0048 26.8224 56.0736 28.4664L55.614 29.2644Z" fill="#82C83C"/>
</g>
<defs>
<clipPath id="clip0_947_7996">
<rect width="60" height="60" fill="white"/>
</clipPath>
</defs>
</svg>
