<svg width="60" height="60" viewBox="0 0 60 60" fill="none" xmlns="http://www.w3.org/2000/svg">
<path d="M40.9195 4.80002C40.5595 4.80002 31.9195 4.32096 25.9195 9.96096C22.1995 13.441 20.4 18.36 20.4 24.6V30.7196C19.92 31.4396 19.2 32.7596 19.2 34.9196C19.2 38.3996 22.1995 40.0805 23.5195 40.6805C23.7197 41.2166 24.0752 42.1212 24.5555 43.2H21.1008C20.5687 41.872 19.5079 40.8 18 40.8C17.2715 40.8 16.6945 41.2041 16.125 41.5828C15.5076 40.4765 14.5456 39.6 13.2 39.6C12.2676 39.6 11.4424 40.01 10.8 40.6008C10.1576 40.01 9.33236 39.6 8.4 39.6C7.12836 39.6 6.00835 40.2796 5.36719 41.2875C4.84186 40.9861 4.24361 40.8 3.6 40.8C1.62604 40.8 0 42.4261 0 44.4V46.8C0 48.774 1.62604 50.4 3.6 50.4C4.24361 50.4 4.84186 50.2139 5.36719 49.9125C6.00835 50.9204 7.12836 51.6 8.4 51.6C9.33236 51.6 10.1576 51.1901 10.8 50.5992C11.4424 51.1901 12.2676 51.6 13.2 51.6C13.2 53.574 14.826 55.2 16.8 55.2C18.774 55.2 20.4 53.574 20.4 51.6C20.4 50.9564 20.2139 50.3582 19.9125 49.8328C20.9204 49.1917 21.6 48.0717 21.6 46.8V45.6H33.3984C33.528 45.6214 33.6603 45.6214 33.7898 45.6H39.6C39.759 45.6023 39.9169 45.5729 40.0645 45.5136C40.212 45.4543 40.3463 45.3663 40.4596 45.2546C40.5728 45.143 40.6627 45.0099 40.7241 44.8632C40.7855 44.7165 40.8171 44.5591 40.8171 44.4C40.8171 44.241 40.7855 44.0835 40.7241 43.9368C40.6627 43.7901 40.5728 43.6571 40.4596 43.5454C40.3463 43.4338 40.212 43.3457 40.0645 43.2864C39.9169 43.2271 39.759 43.1978 39.6 43.2H35.2922C35.7133 42.5231 36.3325 42 37.2 42H42C42.3285 42 42.6376 42.0662 42.9211 42.1852C43.0667 42.2463 43.2228 42.2782 43.3807 42.2789C43.5386 42.2796 43.6951 42.2491 43.8412 42.1893C43.9873 42.1294 44.1201 42.0413 44.2321 41.93C44.3441 41.8187 44.433 41.6864 44.4938 41.5406C44.6733 41.1093 45.091 40.8 45.6 40.8C46.278 40.8 46.8 41.322 46.8 42C46.8 42.6781 46.278 43.2 45.6 43.2C45.2818 43.2001 44.9765 43.3265 44.7515 43.5515C44.5265 43.7766 44.4 44.0818 44.4 44.4C44.4 45.74 43.34 46.8 42 46.8H40.8C40.641 46.7978 40.4831 46.8272 40.3355 46.8864C40.188 46.9457 40.0537 47.0338 39.9404 47.1454C39.8272 47.2571 39.7373 47.3901 39.6759 47.5368C39.6145 47.6835 39.5829 47.841 39.5829 48C39.5829 48.159 39.6145 48.3165 39.6759 48.4632C39.7373 48.6099 39.8272 48.743 39.9404 48.8546C40.0537 48.9663 40.188 49.0543 40.3355 49.1136C40.4831 49.1729 40.641 49.2023 40.8 49.2H42C42.1701 49.2019 42.3387 49.1675 42.4945 49.0992C44.6277 48.8668 46.2915 47.2602 46.6453 45.1641C48.0565 44.6756 49.2 43.5679 49.2 42C49.2 40.0261 47.574 38.4 45.6 38.4C44.4961 38.4 43.614 39.0002 42.9516 39.7922C42.6336 39.7254 42.3361 39.6 42 39.6H37.2C34.9877 39.6 33.1914 41.1524 32.6438 43.2H27.2602C26.2138 41.0368 25.6805 39.3966 25.6805 39.361L25.4391 38.761L24.8391 38.5196C24.8391 38.5196 21.6 37.4396 21.6 34.9196C21.6 32.9996 22.4391 32.0391 22.4391 32.0391L22.8 31.6805V24.6C22.8 19.08 24.48 14.761 27.6 11.761C32.04 7.56096 38.4 7.20002 40.2 7.20002L42.7195 9.60002H43.0805C48.3605 10.2 53.6391 11.8805 56.0391 20.2805C56.2791 21.4805 56.4 23.04 56.4 24.6V31.6805L56.7609 32.0391C56.7609 32.0391 57.6 32.9996 57.6 34.9196C57.6 37.4396 54.3609 38.5196 54.3609 38.5196L53.7609 38.761L53.5195 39.361C53.5195 39.481 48.84 54 39.6 54C35.58 54 32.3881 51.18 30.0961 48H27.1078C29.7718 52.152 33.876 56.4 39.6 56.4C49.56 56.4 54.6005 43.5605 55.6805 40.6805C57.0005 40.0805 60 38.3996 60 34.9196C60 32.7596 59.28 31.3196 58.8 30.7196V24.6C58.8 22.8 58.6791 21.24 58.4391 19.8V19.6805C55.3191 8.88049 47.52 7.68002 43.8 7.20002L41.4 4.80002H40.9195ZM43.2 15.7219C42.8388 15.7219 42.4779 15.9612 42.2391 16.2C37.2003 22.2 26.4005 22.9231 26.2781 22.9219C25.8005 22.9219 25.3224 23.2781 25.2 23.8781L24 31.0781C23.8776 31.8005 24.3609 32.3995 24.9609 32.5219C25.6773 32.6383 26.2776 32.161 26.4 31.561L27.4781 25.2024C30.2393 24.9636 38.1605 23.6391 43.0781 18.8391C45.9605 22.5603 50.0395 24.4781 51.7219 25.0781L52.8 31.561C52.9224 32.161 53.4 32.5219 54 32.5219C54.828 32.5219 55.2005 31.8024 55.0781 31.2024L53.8781 24.0024C53.7617 23.5236 53.5215 23.1615 53.0391 23.0391C53.0391 23.0391 47.1609 21.1219 44.1609 16.3219C43.9221 15.9607 43.5612 15.7219 43.2 15.7219ZM33 31.2C32.0064 31.2 31.2 32.0064 31.2 33C31.2 33.9936 32.0064 34.8 33 34.8C33.9936 34.8 34.8 33.9936 34.8 33C34.8 32.0064 33.9936 31.2 33 31.2ZM46.2 31.2C45.2064 31.2 44.4 32.0064 44.4 33C44.4 33.9936 45.2064 34.8 46.2 34.8C47.1936 34.8 48 33.9936 48 33C48 32.0064 47.1936 31.2 46.2 31.2ZM8.4 42C9.07804 42 9.6 42.522 9.6 43.2V48C9.6 48.6781 9.07804 49.2 8.4 49.2C7.72196 49.2 7.2 48.6781 7.2 48V43.2C7.2 42.522 7.72196 42 8.4 42ZM13.2 42C13.878 42 14.4 42.522 14.4 43.2V44.4V46.8V48C14.4 48.6781 13.878 49.2 13.2 49.2C12.522 49.2 12 48.6781 12 48V43.2C12 42.522 12.522 42 13.2 42ZM3.6 43.2C4.27804 43.2 4.8 43.722 4.8 44.4V46.8C4.8 47.4781 4.27804 48 3.6 48C2.92196 48 2.4 47.4781 2.4 46.8V44.4C2.4 43.722 2.92196 43.2 3.6 43.2ZM18 43.2C18.6641 43.2 19.1651 43.7072 19.1859 44.3649C19.1836 44.4401 19.1883 44.5155 19.2 44.5899V46.8C19.2 47.4781 18.678 48 18 48C17.322 48 16.8 47.4781 16.8 46.8V44.4C16.8 43.722 17.322 43.2 18 43.2ZM16.8 50.4C17.478 50.4 18 50.922 18 51.6C18 52.2781 17.478 52.8 16.8 52.8C16.122 52.8 15.6 52.2781 15.6 51.6C15.6 50.922 16.122 50.4 16.8 50.4Z" fill="#82C83C"/>
</svg>
