<svg width="60" height="60" viewBox="0 0 60 60" fill="none" xmlns="http://www.w3.org/2000/svg">
<path d="M23.4936 2.40002C17.8336 2.40002 13.1264 4.17042 9.85527 7.31252C6.58418 10.4546 4.7998 14.9327 4.7998 20.1C4.7998 23.9122 6.21048 26.8824 7.76699 29.6649C9.32351 32.4473 11.0205 35.0883 11.9482 38.4586V38.4516C13.0201 42.4404 13.7799 47.0055 14.9576 50.6883C15.5465 52.5297 16.2313 54.1623 17.2193 55.4297C18.2074 56.6972 19.6284 57.6 21.3068 57.6C22.9472 57.6 24.4562 56.9825 25.4436 55.7907C26.4309 54.5988 26.8803 52.9562 26.8803 51.0094C26.8803 46.2263 27.8471 39.8896 28.8256 34.418C28.991 33.632 29.4907 33.3985 30.0396 33.3985C30.5901 33.3985 31.0377 33.5964 31.167 34.3758L31.1693 34.3852V34.3946C32.1482 39.7566 33.1193 46.2184 33.1193 51.0094C33.1193 52.9556 33.5688 54.5987 34.5561 55.7907C35.5433 56.9826 37.0522 57.6 38.6928 57.6C40.3756 57.6 41.796 56.6867 42.7826 55.411C43.7693 54.1352 44.4535 52.4937 45.042 50.6461C46.2186 46.9523 46.9815 42.3873 48.0514 38.4586C48.9791 35.0883 50.6761 32.4475 52.2326 29.6649C53.7884 26.8835 55.1986 23.9139 55.1998 20.1047C55.2546 14.9385 53.4974 10.4574 50.2404 7.31487C46.9815 4.17036 42.2738 2.40002 36.6139 2.40002C34.155 2.40002 31.9839 2.73123 30.0537 3.36096C28.1235 2.73123 25.9524 2.40002 23.4936 2.40002ZM23.4936 4.80002C25.9038 4.80002 27.9549 5.1182 29.6529 5.72112L30.0537 5.86409L30.4545 5.72112C32.1525 5.1182 34.2036 4.80002 36.6139 4.80002C41.7779 4.80002 45.8192 6.38412 48.574 9.04221C51.3289 11.7003 52.8508 15.4667 52.7998 20.086V20.093V20.1C52.7998 23.3276 51.642 25.803 50.1373 28.493C48.6326 31.183 46.776 34.0418 45.7357 37.8211V37.8235C44.6186 41.9242 43.8487 46.4897 42.7568 49.9172C42.2109 51.631 41.5751 53.0481 40.8842 53.9414C40.1933 54.8346 39.5792 55.2 38.6928 55.2C37.5997 55.2 36.9216 54.8836 36.4053 54.2602C35.8889 53.6368 35.5193 52.5828 35.5193 51.0094C35.5193 45.9059 34.5223 39.3973 33.5342 33.9821C33.2255 32.1214 31.5937 30.9985 30.0396 30.9985C28.4856 30.9985 26.858 32.0865 26.4748 33.9352L26.4701 33.9516L26.4678 33.968C25.4799 39.4895 24.4803 45.9004 24.4803 51.0094C24.4803 52.5834 24.1106 53.637 23.5943 54.2602C23.0781 54.8834 22.4001 55.2 21.3068 55.2C20.4161 55.2 19.8002 54.8376 19.1107 53.9532C18.4213 53.0687 17.7884 51.6632 17.2428 49.9571C16.1516 46.5448 15.3819 41.9802 14.2662 37.8282L14.2639 37.8258V37.8211C13.379 34.6062 11.9127 32.0688 10.5654 29.7235C11.4188 29.8967 12.2974 30 13.1998 30C13.9015 30 14.5851 29.928 15.2576 29.8219L16.2865 33.1664C16.3801 33.4706 16.5908 33.7252 16.872 33.8741C17.1533 34.023 17.4822 34.0542 17.7864 33.9606C18.0906 33.8671 18.3452 33.6566 18.4943 33.3753C18.6433 33.0941 18.6745 32.7652 18.5811 32.461L17.5896 29.2336C20.5 28.2022 22.9392 26.1822 24.5084 23.5735L26.5076 24.668C26.646 24.747 26.7988 24.7976 26.957 24.8169C27.1151 24.8363 27.2756 24.8239 27.4289 24.7805C27.5823 24.7372 27.7255 24.6637 27.8501 24.5645C27.9748 24.4652 28.0784 24.3421 28.155 24.2023C28.2316 24.0626 28.2795 23.909 28.2961 23.7505C28.3127 23.592 28.2975 23.4318 28.2515 23.2792C28.2055 23.1266 28.1296 22.9847 28.0281 22.8618C27.9267 22.7389 27.8018 22.6374 27.6607 22.5633L25.5537 21.4102C26.0923 19.9727 26.3998 18.4228 26.3998 16.8C26.3998 15.5514 26.221 14.3459 25.8959 13.2H28.7998C28.9588 13.2023 29.1167 13.1729 29.2643 13.1136C29.4118 13.0543 29.5461 12.9663 29.6594 12.8546C29.7726 12.743 29.8625 12.6099 29.9239 12.4632C29.9853 12.3165 30.0169 12.1591 30.0169 12C30.0169 11.841 29.9853 11.6835 29.9239 11.5368C29.8625 11.3901 29.7726 11.2571 29.6594 11.1454C29.5461 11.0338 29.4118 10.9457 29.2643 10.8864C29.1167 10.8272 28.9588 10.7978 28.7998 10.8H24.9443C23.72 8.41069 21.7927 6.44539 19.4295 5.17502C20.697 4.93737 22.0463 4.80002 23.4936 4.80002ZM15.71 6.30237C18.3925 6.94161 20.6862 8.57459 22.1764 10.8H20.3998C20.2408 10.7978 20.0829 10.8272 19.9354 10.8864C19.7878 10.9457 19.6535 11.0338 19.5402 11.1454C19.427 11.2571 19.3371 11.3901 19.2757 11.5368C19.2143 11.6835 19.1827 11.841 19.1827 12C19.1827 12.1591 19.2143 12.3165 19.2757 12.4632C19.3371 12.6099 19.427 12.743 19.5402 12.8546C19.6535 12.9663 19.7878 13.0543 19.9354 13.1136C20.0829 13.1729 20.2408 13.2023 20.3998 13.2H23.3834C23.7809 14.3259 23.9998 15.5358 23.9998 16.8C23.9998 18.0086 23.7939 19.1664 23.4303 20.25L20.292 18.5321C20.1168 18.4323 19.9193 18.3783 19.7178 18.375C19.448 18.3706 19.1846 18.4573 18.9701 18.621C18.7556 18.7848 18.6026 19.016 18.5357 19.2774C18.4687 19.5388 18.4919 19.8151 18.6013 20.0618C18.7108 20.3084 18.9001 20.511 19.1389 20.6367L22.4131 22.4274C21.1467 24.5007 19.2041 26.1044 16.8842 26.9438L16.1131 24.4336C16.0397 24.1813 15.8855 23.9601 15.6743 23.8038C15.463 23.6476 15.2063 23.565 14.9436 23.5688C14.7556 23.5714 14.5709 23.6181 14.4044 23.7051C14.2378 23.7921 14.094 23.9171 13.9845 24.0698C13.8751 24.2226 13.803 24.399 13.7742 24.5847C13.7454 24.7704 13.7606 24.9603 13.8186 25.1391L14.5475 27.5086C14.105 27.5635 13.6575 27.6 13.1998 27.6C11.6726 27.6 10.2333 27.2715 8.92012 26.7024C7.90597 24.6537 7.1998 22.6031 7.1998 20.1C7.1998 15.4777 8.74963 11.7051 11.5193 9.04456C12.6889 7.92107 14.0982 7.00371 15.71 6.30237Z" fill="#82C83C"/>
</svg>
