<svg width="14" height="14" viewBox="0 0 14 14" fill="none" xmlns="http://www.w3.org/2000/svg">
<path d="M1.97084 0.249359C1.55675 0.259428 1.22923 0.603277 1.2393 1.01737C1.24937 1.43146 1.59322 1.75898 2.00731 1.74892L10.6383 1.53905L0.219667 11.9577C-0.0732257 12.2505 -0.073226 12.7254 0.219667 13.0183C0.51256 13.3112 0.987434 13.3112 1.28033 13.0183L11.699 2.59964L11.4891 11.2307C11.4791 11.6448 11.8066 11.9887 12.2207 11.9987C12.6348 12.0088 12.9786 11.6813 12.9887 11.2672L13.2377 1.02431C13.2434 0.79109 13.169 0.575294 13.04 0.402515C13.0134 0.362957 12.9826 0.325375 12.9476 0.29039C12.9125 0.255339 12.8749 0.22448 12.8352 0.197819C12.6625 0.0689873 12.4468 -0.00537085 12.2137 0.00029638L1.97084 0.249359Z" fill="white"/>
</svg>
