<svg width="20" height="20" viewBox="0 0 20 20" fill="none" xmlns="http://www.w3.org/2000/svg">
<path d="M14.6553 2.65755C14.4787 2.66031 14.3105 2.73302 14.1874 2.85972C14.0644 2.98641 13.9967 3.15674 13.9991 3.33333V15.0573L12.4704 13.5286C12.4083 13.4648 12.334 13.414 12.2519 13.3794C12.1699 13.3447 12.0817 13.3268 11.9926 13.3268C11.8599 13.3269 11.7303 13.3664 11.6203 13.4405C11.5103 13.5146 11.4249 13.6198 11.375 13.7427C11.3251 13.8655 11.313 14.0005 11.3402 14.1303C11.3674 14.2601 11.4327 14.3789 11.5277 14.4714L14.1358 17.0794C14.1978 17.1608 14.2778 17.2269 14.3695 17.2724C14.4612 17.318 14.5621 17.3418 14.6645 17.342C14.7668 17.3423 14.8679 17.319 14.9598 17.2739C15.0517 17.2288 15.1319 17.1631 15.1944 17.082C15.1953 17.0807 15.1961 17.0794 15.197 17.0781L17.8038 14.4714C17.8677 14.4099 17.9188 14.3363 17.954 14.2549C17.9892 14.1735 18.0078 14.0859 18.0087 13.9972C18.0096 13.9085 17.9928 13.8205 17.9593 13.7384C17.9258 13.6563 17.8762 13.5817 17.8135 13.519C17.7507 13.4562 17.6761 13.4067 17.594 13.3731C17.5119 13.3396 17.4239 13.3228 17.3352 13.3237C17.2465 13.3246 17.1589 13.3432 17.0775 13.3784C16.9961 13.4136 16.9225 13.4647 16.8611 13.5286L15.3324 15.0573V3.33333C15.3336 3.24414 15.3169 3.15561 15.2833 3.07298C15.2497 2.99036 15.1999 2.91531 15.1367 2.8523C15.0736 2.78928 14.9985 2.73958 14.9158 2.70613C14.8331 2.67268 14.7445 2.65616 14.6553 2.65755ZM3.33241 2.66667C3.24407 2.66542 3.15636 2.68174 3.07438 2.71468C2.9924 2.74762 2.91779 2.79653 2.85488 2.85856C2.79196 2.92059 2.74201 2.9945 2.70791 3.07601C2.67381 3.15751 2.65625 3.24498 2.65625 3.33333C2.65625 3.42168 2.67381 3.50915 2.70791 3.59066C2.74201 3.67216 2.79196 3.74608 2.85488 3.80811C2.91779 3.87014 2.9924 3.91904 3.07438 3.95199C3.15636 3.98493 3.24407 4.00125 3.33241 4H9.99908C10.0874 4.00125 10.1751 3.98493 10.2571 3.95199C10.3391 3.91904 10.4137 3.87014 10.4766 3.80811C10.5395 3.74608 10.5895 3.67216 10.6236 3.59066C10.6577 3.50915 10.6752 3.42168 10.6752 3.33333C10.6752 3.24498 10.6577 3.15751 10.6236 3.07601C10.5895 2.9945 10.5395 2.92059 10.4766 2.85856C10.4137 2.79653 10.3391 2.74762 10.2571 2.71468C10.1751 2.68174 10.0874 2.66542 9.99908 2.66667H3.33241ZM3.33241 5.33333C3.24407 5.33208 3.15636 5.3484 3.07438 5.38135C2.9924 5.41429 2.91779 5.4632 2.85488 5.52523C2.79196 5.58726 2.74201 5.66117 2.70791 5.74268C2.67381 5.82418 2.65625 5.91165 2.65625 6C2.65625 6.08835 2.67381 6.17582 2.70791 6.25732C2.74201 6.33883 2.79196 6.41274 2.85488 6.47477C2.91779 6.5368 2.9924 6.58571 3.07438 6.61865C3.15636 6.6516 3.24407 6.66792 3.33241 6.66667H8.66574C8.75409 6.66792 8.84179 6.6516 8.92377 6.61865C9.00575 6.58571 9.08037 6.5368 9.14328 6.47477C9.20619 6.41274 9.25615 6.33883 9.29025 6.25732C9.32435 6.17582 9.34191 6.08835 9.34191 6C9.34191 5.91165 9.32435 5.82418 9.29025 5.74268C9.25615 5.66117 9.20619 5.58726 9.14328 5.52523C9.08037 5.4632 9.00575 5.41429 8.92377 5.38135C8.84179 5.3484 8.75409 5.33208 8.66574 5.33333H3.33241ZM3.33241 8C3.24407 7.99875 3.15636 8.01507 3.07438 8.04801C2.9924 8.08096 2.91779 8.12986 2.85488 8.19189C2.79196 8.25392 2.74201 8.32784 2.70791 8.40934C2.67381 8.49085 2.65625 8.57832 2.65625 8.66667C2.65625 8.75502 2.67381 8.84249 2.70791 8.92399C2.74201 9.0055 2.79196 9.07941 2.85488 9.14144C2.91779 9.20347 2.9924 9.25238 3.07438 9.28532C3.15636 9.31826 3.24407 9.33458 3.33241 9.33333H7.33241C7.42075 9.33458 7.50846 9.31826 7.59044 9.28532C7.67242 9.25238 7.74703 9.20347 7.80995 9.14144C7.87286 9.07941 7.92282 9.0055 7.95691 8.92399C7.99101 8.84249 8.00857 8.75502 8.00857 8.66667C8.00857 8.57832 7.99101 8.49085 7.95691 8.40934C7.92282 8.32784 7.87286 8.25392 7.80995 8.19189C7.74703 8.12986 7.67242 8.08096 7.59044 8.04801C7.50846 8.01507 7.42075 7.99875 7.33241 8H3.33241ZM3.33241 10.6667C3.24407 10.6654 3.15636 10.6817 3.07438 10.7147C2.9924 10.7476 2.91779 10.7965 2.85488 10.8586C2.79196 10.9206 2.74201 10.9945 2.70791 11.076C2.67381 11.1575 2.65625 11.245 2.65625 11.3333C2.65625 11.4217 2.67381 11.5092 2.70791 11.5907C2.74201 11.6722 2.79196 11.7461 2.85488 11.8081C2.91779 11.8701 2.9924 11.919 3.07438 11.952C3.15636 11.9849 3.24407 12.0012 3.33241 12H6.66574C6.75409 12.0012 6.84179 11.9849 6.92377 11.952C7.00575 11.919 7.08037 11.8701 7.14328 11.8081C7.20619 11.7461 7.25615 11.6722 7.29025 11.5907C7.32435 11.5092 7.34191 11.4217 7.34191 11.3333C7.34191 11.245 7.32435 11.1575 7.29025 11.076C7.25615 10.9945 7.20619 10.9206 7.14328 10.8586C7.08037 10.7965 7.00575 10.7476 6.92377 10.7147C6.84179 10.6817 6.75409 10.6654 6.66574 10.6667H3.33241ZM3.33241 13.3333C3.24407 13.3321 3.15636 13.3484 3.07438 13.3813C2.9924 13.4143 2.91779 13.4632 2.85488 13.5252C2.79196 13.5873 2.74201 13.6612 2.70791 13.7427C2.67381 13.8242 2.65625 13.9116 2.65625 14C2.65625 14.0883 2.67381 14.1758 2.70791 14.2573C2.74201 14.3388 2.79196 14.4127 2.85488 14.4748C2.91779 14.5368 2.9924 14.5857 3.07438 14.6187C3.15636 14.6516 3.24407 14.6679 3.33241 14.6667H5.33241C5.42075 14.6679 5.50846 14.6516 5.59044 14.6187C5.67242 14.5857 5.74703 14.5368 5.80995 14.4748C5.87286 14.4127 5.92282 14.3388 5.95691 14.2573C5.99101 14.1758 6.00857 14.0883 6.00857 14C6.00857 13.9116 5.99101 13.8242 5.95691 13.7427C5.92282 13.6612 5.87286 13.5873 5.80995 13.5252C5.74703 13.4632 5.67242 13.4143 5.59044 13.3813C5.50846 13.3484 5.42075 13.3321 5.33241 13.3333H3.33241ZM3.33241 16C3.24407 15.9987 3.15636 16.0151 3.07438 16.048C2.9924 16.081 2.91779 16.1299 2.85488 16.1919C2.79196 16.2539 2.74201 16.3278 2.70791 16.4093C2.67381 16.4908 2.65625 16.5783 2.65625 16.6667C2.65625 16.755 2.67381 16.8425 2.70791 16.924C2.74201 17.0055 2.79196 17.0794 2.85488 17.1414C2.91779 17.2035 2.9924 17.2524 3.07438 17.2853C3.15636 17.3183 3.24407 17.3346 3.33241 17.3333H3.99908C4.08742 17.3346 4.17513 17.3183 4.25711 17.2853C4.33909 17.2524 4.4137 17.2035 4.47661 17.1414C4.53953 17.0794 4.58948 17.0055 4.62358 16.924C4.65768 16.8425 4.67524 16.755 4.67524 16.6667C4.67524 16.5783 4.65768 16.4908 4.62358 16.4093C4.58948 16.3278 4.53953 16.2539 4.47661 16.1919C4.4137 16.1299 4.33909 16.081 4.25711 16.048C4.17513 16.0151 4.08742 15.9987 3.99908 16H3.33241Z" fill="#82C83C"/>
</svg>
