<svg width="123" height="128" viewBox="0 0 123 128" fill="none" xmlns="http://www.w3.org/2000/svg">
<path opacity="0.1" d="M106.197 115.118C108.866 107.017 121.372 26.2784 122.918 10.3692C123.385 5.55089 121.845 2.34908 118.829 0.919809C115.182 -0.815287 109.781 0.0522693 103.516 2.28667C94.9218 5.35118 -14.9418 51.4935 -21.2893 54.1648C-27.3087 56.6925 -33 59.4512 -33 63.4457C-33 66.2543 -31.3153 67.8334 -26.6714 69.4748C-21.8382 71.1787 -9.66693 74.8299 -2.48024 76.7897C4.44144 78.6808 12.3222 77.0394 16.7389 74.3244C21.4207 71.4471 75.4502 35.6841 79.3306 32.551C83.2048 29.4178 86.2965 33.431 83.129 36.5704C79.9616 39.7036 42.8735 75.3105 37.9835 80.2412C32.0461 86.2266 36.261 92.4305 40.2424 94.9146C44.7916 97.7482 77.5071 119.456 82.435 122.938C87.3628 126.421 92.36 128 96.9345 128C101.509 128 103.919 122.04 106.197 115.118Z" fill="white"/>
</svg>
