<svg width="17" height="19" viewBox="0 0 17 19" fill="none" xmlns="http://www.w3.org/2000/svg">
<path d="M1.33333 0C0.596667 0 0 0.596667 0 1.33333V16C0 16.7367 0.596667 17.3333 1.33333 17.3333H11.7812L8.04037 13.5938C7.8417 13.3951 7.71133 13.138 7.66667 12.8607L7.35026 10.8763C7.28293 10.4543 7.42196 10.0266 7.72396 9.72396C7.97596 9.47262 8.316 9.33333 8.66667 9.33333C8.73667 9.33333 8.8076 9.33893 8.8776 9.35026L10.8607 9.66797C11.138 9.71264 11.3938 9.843 11.5924 10.0417L13.3333 11.7812V5C13.3333 4.82333 13.2634 4.65398 13.138 4.52865L8.80469 0.195312C8.67935 0.0699792 8.51 0 8.33333 0H1.33333ZM8 1.26953L12.0638 5.33333H8.66667C8.29867 5.33333 8 5.03467 8 4.66667V1.26953ZM8.66667 10.6667L8.98307 12.651L13.362 17.0286L15.0286 15.362L10.6497 10.9844L8.66667 10.6667ZM15.9714 16.3047L14.3047 17.9714L14.6549 18.3216C15.1149 18.7816 15.8616 18.7816 16.3216 18.3216C16.7816 17.8616 16.7816 17.1149 16.3216 16.6549L15.9714 16.3047Z" fill="#82C83C"/>
</svg>
