<svg width="20" height="20" viewBox="0 0 20 20" fill="none" xmlns="http://www.w3.org/2000/svg">
<path d="M9.9987 2.00012C5.21203 2.00012 1.33203 5.28346 1.33203 9.33346C1.33203 11.5788 2.52758 13.5858 4.40625 14.9311C4.45422 15.9551 4.29555 17.369 2.88281 18.021L2.88021 18.0223C2.81709 18.0463 2.76275 18.0889 2.72439 18.1444C2.68602 18.2 2.66544 18.2659 2.66536 18.3335C2.66536 18.4219 2.70048 18.5066 2.763 18.5692C2.82551 18.6317 2.91029 18.6668 2.9987 18.6668C3.00666 18.6668 3.01419 18.6655 3.02214 18.6655C3.02387 18.6655 3.02561 18.6655 3.02734 18.6655C4.65003 18.6551 6.02755 17.7781 6.97786 16.8517C7.2792 16.5577 7.69928 16.413 8.11328 16.491C8.71995 16.6063 9.3507 16.6668 9.9987 16.6668C14.7854 16.6668 18.6654 13.3835 18.6654 9.33346C18.6654 5.28346 14.7854 2.00012 9.9987 2.00012ZM9.9987 5.48971C10.1329 5.48971 10.2673 5.56587 10.319 5.71887L11.0911 8.00403L13.5026 8.03267C13.8259 8.03601 13.9599 8.44741 13.7005 8.64075L11.7656 10.0809L12.4844 12.3829C12.581 12.6916 12.2301 12.9466 11.9661 12.7592L9.9987 11.3647L8.03125 12.7592C7.76725 12.9466 7.41702 12.6916 7.51302 12.3829L8.23177 10.0809L6.29688 8.64075C6.03754 8.44808 6.17146 8.03667 6.49479 8.03267L8.90625 8.00403L9.67839 5.71887C9.73005 5.56587 9.86453 5.48971 9.9987 5.48971Z" fill="white"/>
</svg>
