<svg width="16" height="16" viewBox="0 0 16 16" fill="none" xmlns="http://www.w3.org/2000/svg">
<path d="M7.99974 1.6001C4.17041 1.6001 1.06641 4.22676 1.06641 7.46676C1.06641 9.26303 2.02285 10.8686 3.52578 11.9449C3.56416 12.7641 3.43722 13.8952 2.30703 14.4168L2.30495 14.4178C2.25445 14.437 2.21098 14.4711 2.18029 14.5156C2.1496 14.56 2.13313 14.6127 2.13307 14.6668C2.13307 14.7375 2.16117 14.8053 2.21118 14.8553C2.26119 14.9053 2.32902 14.9334 2.39974 14.9334C2.40611 14.9334 2.41213 14.9324 2.41849 14.9324C2.41988 14.9324 2.42127 14.9324 2.42266 14.9324C3.7208 14.9241 4.82282 14.2225 5.58307 13.4813C5.82414 13.2461 6.16021 13.1304 6.49141 13.1928C6.97674 13.2851 7.48134 13.3334 7.99974 13.3334C11.8291 13.3334 14.9331 10.7068 14.9331 7.46676C14.9331 4.22676 11.8291 1.6001 7.99974 1.6001ZM7.99974 4.39176C8.10707 4.39176 8.21466 4.4527 8.25599 4.5751L8.8737 6.40322L10.8029 6.42614C11.0615 6.42881 11.1687 6.75793 10.9612 6.9126L9.41328 8.06468L9.98828 9.90635C10.0656 10.1533 9.7849 10.3573 9.5737 10.2074L7.99974 9.09176L6.42578 10.2074C6.21458 10.3573 5.9344 10.1533 6.0112 9.90635L6.5862 8.06468L5.03828 6.9126C4.83081 6.75846 4.93795 6.42934 5.19661 6.42614L7.12578 6.40322L7.74349 4.5751C7.78482 4.4527 7.89241 4.39176 7.99974 4.39176Z" fill="#82C83C"/>
</svg>
