<svg width="20" height="20" viewBox="0 0 20 20" fill="none" xmlns="http://www.w3.org/2000/svg">
<path d="M3.33333 4C2.59667 4 2 4.59667 2 5.33333V13.3333C2 14.07 2.59667 14.6667 3.33333 14.6667H16.6667C17.4033 14.6667 18 14.07 18 13.3333V5.33333C18 4.59667 17.4033 4 16.6667 4H3.33333ZM8.66667 6.66667C8.80267 6.66667 8.92201 6.71776 9.02734 6.78776L12.3646 8.79036C12.5426 8.91036 12.6667 9.10267 12.6667 9.33333C12.6667 9.564 12.5426 9.7563 12.3646 9.8763L9.02734 11.8789C8.92201 11.9489 8.80267 12 8.66667 12C8.29867 12 8 11.7013 8 11.3333V7.33333C8 6.96533 8.29867 6.66667 8.66667 6.66667ZM6.66667 16C6.57833 15.9987 6.49062 16.0151 6.40864 16.048C6.32666 16.081 6.25205 16.1299 6.18913 16.1919C6.12622 16.2539 6.07626 16.3278 6.04216 16.4093C6.00806 16.4908 5.99051 16.5783 5.99051 16.6667C5.99051 16.755 6.00806 16.8425 6.04216 16.924C6.07626 17.0055 6.12622 17.0794 6.18913 17.1414C6.25205 17.2035 6.32666 17.2524 6.40864 17.2853C6.49062 17.3183 6.57833 17.3346 6.66667 17.3333H13.3333C13.4217 17.3346 13.5094 17.3183 13.5914 17.2853C13.6733 17.2524 13.748 17.2035 13.8109 17.1414C13.8738 17.0794 13.9237 17.0055 13.9578 16.924C13.9919 16.8425 14.0095 16.755 14.0095 16.6667C14.0095 16.5783 13.9919 16.4908 13.9578 16.4093C13.9237 16.3278 13.8738 16.2539 13.8109 16.1919C13.748 16.1299 13.6733 16.081 13.5914 16.048C13.5094 16.0151 13.4217 15.9987 13.3333 16H6.66667Z" fill="#C5C5CC"/>
</svg>
